<svg xmlns="http://www.w3.org/2000/svg" xmlns:xlink="http://www.w3.org/1999/xlink" width="48" height="48" viewBox="0 0 48 48" fill="none">
<path d="M14.6001 19.71C13.5301 17.96 13.0001 16.06 13.0001 14C13.0001 7.92 17.9201 3 24.0001 3C30.0801 3 35.0001 7.92 35.0001 14C35.0001 16.06 34.4701 17.96 33.4001 19.71C32.6601 20.93 31.7301 21.96 30.6201 22.79L32.7907 30L36.741 30C38.851 30 40.801 31.1 41.891 32.91L43.711 35.97L43.721 35.97C45.831 39.51 43.291 44 39.171 44L8.831 44C4.711 44 2.161 39.5 4.281 35.97L6.111 32.91C7.201 31.1 9.151 30 11.261 30L15.2096 30L17.3801 22.79C16.2701 21.96 15.3401 20.93 14.6001 19.71Z" fill-rule="evenodd"  fill="#000000" >
</path>
</svg>
