<svg xmlns="http://www.w3.org/2000/svg" xmlns:xlink="http://www.w3.org/1999/xlink" width="48" height="48" viewBox="0 0 48 48" fill="none">
<path d="M36.69 38.55C36.48 39.03 36.2 39.46 35.83 39.83C35.46 40.2 35.03 40.48 34.55 40.69C34.06 40.9 33.54 41 33 41L15 41C14.46 41 13.94 40.9 13.45 40.69C12.97 40.48 12.54 40.2 12.17 39.83C11.8 39.46 11.52 39.03 11.31 38.55C11.1 38.06 11 37.54 11 37L11 11C11 10.46 11.1 9.94 11.31 9.45C11.52 8.97 11.8 8.54 12.17 8.17C12.54 7.8 12.97 7.52 13.45 7.31C13.94 7.1 14.46 7 15 7L23.5 7L23.5 13.2C23.53 14.21 23.74 15.18 24.13 16.11C24.16 16.17 24.18 16.23 24.21 16.29C24.61 17.18 25.15 17.96 25.84 18.66C25.94 18.75 26.03 18.84 26.13 18.92C26.8 19.53 27.55 20.02 28.39 20.37C29.38 20.79 30.42 21 31.5 21L37 21L37 37C37 37.54 36.9 38.06 36.69 38.55ZM15 45C13.92 45 12.88 44.79 11.89 44.37C10.93 43.96 10.08 43.39 9.34 42.66C8.61 41.92 8.04 41.07 7.63 40.11C7.21 39.12 7 38.08 7 37L7 11C7 9.92 7.21 8.88 7.63 7.89C8.04 6.93 8.61 6.08 9.34 5.34C10.08 4.61 10.93 4.04 11.89 3.63C12.88 3.21 13.92 3 15 3L27.5 3L27.5 3.04C28.07 3.11 28.62 3.26 29.15 3.49C29.91 3.81 30.57 4.27 31.13 4.86L39.33 13.46C39.87 14.01 40.28 14.65 40.57 15.36C40.78 15.89 40.91 16.44 40.97 17L41 17L41 37C41 38.08 40.79 39.12 40.37 40.11C39.96 41.07 39.39 41.92 38.66 42.66C37.92 43.39 37.07 43.96 36.11 44.37C35.12 44.79 34.08 45 33 45L15 45ZM31.2995 29.01C31.3695 29 31.4295 29 31.4995 29C31.5695 29 31.6295 29 31.6995 29.01C31.7595 29.02 31.8295 29.03 31.8895 29.04C31.9495 29.05 32.0195 29.07 32.0795 29.09C32.1395 29.11 32.1995 29.13 32.2695 29.15C32.3295 29.18 32.3895 29.21 32.4395 29.24C32.4995 29.27 32.5595 29.3 32.6095 29.34C32.6695 29.37 32.7195 29.41 32.7695 29.45C32.8195 29.5 32.8695 29.54 32.9095 29.59C32.9595 29.63 32.9995 29.68 33.0495 29.73C33.0895 29.78 33.1295 29.83 33.1595 29.89C33.1995 29.94 33.2295 30 33.2595 30.06C33.2895 30.11 33.3195 30.17 33.3495 30.23C33.3695 30.3 33.3895 30.36 33.4095 30.42C33.4295 30.48 33.4495 30.55 33.4595 30.61C33.4695 30.67 33.4795 30.74 33.4895 30.8C33.4995 30.87 33.4995 30.93 33.4995 31L33.4995 37C33.4995 37.07 33.4995 37.13 33.4895 37.2C33.4795 37.26 33.4695 37.33 33.4595 37.39C33.4495 37.45 33.4295 37.52 33.4095 37.58C33.3895 37.64 33.3695 37.7 33.3495 37.77C33.3195 37.83 33.2895 37.89 33.2595 37.94C33.2295 38 33.1995 38.06 33.1595 38.11C33.1295 38.17 33.0895 38.22 33.0495 38.27C32.9995 38.32 32.9595 38.37 32.9095 38.41C32.8695 38.46 32.8195 38.5 32.7695 38.55C32.7195 38.59 32.6695 38.63 32.6095 38.66C32.5595 38.7 32.4995 38.73 32.4395 38.76C32.3895 38.79 32.3295 38.82 32.2695 38.85C32.1995 38.87 32.1395 38.89 32.0795 38.91C32.0195 38.93 31.9495 38.95 31.8895 38.96C31.8295 38.97 31.7595 38.98 31.6995 38.99C31.6295 39 31.5695 39 31.4995 39C31.4295 39 31.3695 39 31.2995 38.99C31.2395 38.98 31.1695 38.97 31.1095 38.96C31.0495 38.95 30.9795 38.93 30.9195 38.91C30.8595 38.89 30.7995 38.87 30.7295 38.85C30.6695 38.82 30.6095 38.79 30.5595 38.76C30.4995 38.73 30.4395 38.7 30.3895 38.66C30.3295 38.63 30.2795 38.59 30.2295 38.55C30.1795 38.5 30.1295 38.46 30.0895 38.41C30.0395 38.37 29.9995 38.32 29.9495 38.27C29.9095 38.22 29.8695 38.17 29.8395 38.11C29.7995 38.06 29.7695 38 29.7395 37.94C29.7095 37.89 29.6795 37.83 29.6495 37.77C29.6295 37.7 29.6095 37.64 29.5895 37.58C29.5695 37.52 29.5495 37.45 29.5395 37.39C29.5295 37.33 29.5195 37.26 29.5095 37.2C29.4995 37.13 29.4995 37.07 29.4995 37L29.4995 31C29.4995 30.93 29.4995 30.87 29.5095 30.8C29.5195 30.74 29.5295 30.67 29.5395 30.61C29.5495 30.55 29.5695 30.48 29.5895 30.42C29.6095 30.36 29.6295 30.3 29.6495 30.23C29.6795 30.17 29.7095 30.11 29.7395 30.06C29.7695 30 29.7995 29.94 29.8395 29.89C29.8695 29.83 29.9095 29.78 29.9495 29.73C29.9995 29.68 30.0395 29.63 30.0895 29.59C30.1295 29.54 30.1795 29.5 30.2295 29.45C30.2795 29.41 30.3295 29.37 30.3895 29.34C30.4395 29.3 30.4995 29.27 30.5595 29.24C30.6095 29.21 30.6695 29.18 30.7295 29.15C30.7995 29.13 30.8595 29.11 30.9195 29.09C30.9795 29.07 31.0495 29.05 31.1095 29.04C31.1695 29.03 31.2395 29.02 31.2995 29.01ZM18.9238 31L20.5 25.85L22.0762 31L18.9238 31ZM16.41 38.42C16.36 38.46 16.32 38.51 16.27 38.55C16.21 38.59 16.16 38.63 16.11 38.67C16.05 38.7 16 38.74 15.94 38.77C15.88 38.8 15.82 38.82 15.76 38.85C15.7 38.87 15.64 38.9 15.58 38.92C15.51 38.93 15.45 38.95 15.39 38.96C15.32 38.98 15.26 38.98 15.19 38.99C15.13 39 15.06 39 15 39C14.93 39 14.87 39 14.8 38.99C14.73 38.98 14.67 38.97 14.61 38.96C14.54 38.95 14.48 38.93 14.42 38.91C14.35 38.89 14.29 38.87 14.23 38.85L14.05 38.76C14 38.73 13.94 38.7 13.89 38.66C13.83 38.62 13.78 38.59 13.73 38.54C13.68 38.5 13.63 38.46 13.58 38.41C13.54 38.36 13.49 38.32 13.45 38.27C13.41 38.21 13.37 38.16 13.33 38.11C13.3 38.05 13.27 38 13.23 37.94C13.2 37.88 13.18 37.82 13.15 37.76C13.13 37.7 13.1 37.64 13.08 37.58C13.07 37.51 13.05 37.45 13.04 37.39C13.02 37.32 13.02 37.26 13.01 37.19C13 37.13 13 37.06 13 37C13 36.93 13 36.87 13.01 36.8C13.02 36.73 13.03 36.67 13.04 36.61C13.05 36.54 13.07 36.48 13.09 36.42L16.68 24.67C16.81 24.26 17 23.87 17.25 23.52C17.49 23.18 17.78 22.88 18.12 22.63C18.46 22.38 18.83 22.19 19.24 22.05C19.65 21.92 20.07 21.85 20.5 21.85C20.93 21.85 21.36 21.92 21.76 22.05C22.17 22.19 22.54 22.38 22.88 22.63C23.22 22.88 23.51 23.18 23.75 23.52C24 23.87 24.19 24.26 24.32 24.68L27.91 36.42C27.95 36.54 27.98 36.67 27.99 36.8C28 36.93 28 37.06 27.99 37.19C27.98 37.32 27.95 37.45 27.92 37.58C27.88 37.7 27.83 37.82 27.77 37.94C27.7 38.06 27.63 38.16 27.55 38.27C27.47 38.37 27.37 38.46 27.27 38.54C27.17 38.63 27.06 38.7 26.95 38.76C26.83 38.82 26.71 38.87 26.58 38.91C26.46 38.95 26.33 38.98 26.2 38.99C26.07 39 25.94 39 25.81 38.99C25.68 38.98 25.55 38.95 25.42 38.92C25.3 38.88 25.18 38.83 25.06 38.77C24.94 38.7 24.84 38.63 24.73 38.55C24.63 38.47 24.54 38.37 24.46 38.27C24.37 38.17 24.3 38.06 24.24 37.95C24.18 37.83 24.13 37.71 24.09 37.58L23.3004 35L17.6996 35L16.91 37.58C16.89 37.65 16.87 37.71 16.85 37.77L16.76 37.95C16.73 38 16.7 38.06 16.66 38.11C16.62 38.17 16.58 38.22 16.54 38.27C16.5 38.32 16.46 38.37 16.41 38.42ZM36.86 16.86C36.87 16.91 36.89 16.95 36.91 17L31.5 17C30.96 17 30.44 16.9 29.95 16.69C29.47 16.48 29.04 16.2 28.67 15.83C28.3 15.46 28.02 15.03 27.81 14.55C27.6 14.06 27.5 13.54 27.5 13L27.5 7.13C27.52 7.14 27.55 7.15 27.57 7.16C27.83 7.27 28.05 7.42 28.23 7.62L36.45 16.22C36.62 16.41 36.76 16.62 36.86 16.86ZM29 25C29 23.62 30.12 22.5 31.5 22.5C32.88 22.5 34 23.62 34 25C34 26.38 32.88 27.5 31.5 27.5C30.12 27.5 29 26.38 29 25Z" fill-rule="evenodd"  fill="#000000" >
</path>
</svg>
