<svg xmlns="http://www.w3.org/2000/svg" xmlns:xlink="http://www.w3.org/1999/xlink" width="48" height="48" viewBox="0 0 48 48" fill="none">
<path d="M16.9259 37.5412C16.6899 38.3829 15.917 39 15 39C13.8954 39 13 38.1046 13 37C13 36.7803 13.0354 36.5688 13.1009 36.371L16.6746 24.6753C17.828 20.9005 23.172 20.9005 24.3254 24.6753L27.8991 36.371C27.9646 36.5688 28 36.7803 28 37C28 38.1046 27.1046 39 26 39C25.083 39 24.3101 38.3829 24.0741 37.5412L23.2976 35L17.7024 35L16.9259 37.5412ZM20.5 25.8442L22.0754 31L18.9246 31L20.5 25.8442ZM33.5 37C33.5 38.1046 32.6046 39 31.5 39C30.3954 39 29.5 38.1046 29.5 37L29.5 31C29.5 29.8955 30.3954 29 31.5 29C32.6046 29 33.5 29.8955 33.5 31L33.5 37Z" fill-rule="evenodd"  fill="#424242" >
</path>
<path d="M34 25C34 26.3807 32.8807 27.5 31.5 27.5C30.1193 27.5 29 26.3807 29 25C29 23.6193 30.1193 22.5 31.5 22.5C32.8807 22.5 34 23.6193 34 25Z"   fill="#424242" >
</path>
<path d="M25.5 3L15 3C10.5817 3 7 6.58172 7 11L7 37C7 41.4183 10.5817 45 15 45L33 45C37.4183 45 41 41.4183 41 37L41 17L40.9703 17C40.9147 16.442 40.7811 15.899 40.5696 15.3711C40.2827 14.655 39.8728 14.0178 39.3401 13.4598L31.1285 4.85714C31.04 4.76445 30.9493 4.67505 30.8562 4.58896C30.3911 4.15871 29.8687 3.81101 29.289 3.54585C29.2427 3.52463 29.1959 3.50395 29.1488 3.48379C28.9603 3.40316 28.7698 3.3326 28.5773 3.27213C28.2251 3.16153 27.866 3.08464 27.5 3.04147L27.5 3L25.5 3ZM36.9072 17C36.9065 16.998 36.9059 16.996 36.9053 16.9941C36.8907 16.9486 36.8744 16.9035 36.8565 16.8588C36.7609 16.6201 36.6243 16.4077 36.4467 16.2217L28.2351 7.61905C28.2115 7.59434 28.1874 7.57033 28.1629 7.54703C27.9909 7.38393 27.795 7.25533 27.5752 7.16126C27.5503 7.15058 27.5252 7.14043 27.5 7.13082L27.5 13C27.5 15.2091 29.2909 17 31.5 17L36.9072 17ZM23.5 13L23.5 7L15 7C12.7909 7 11 8.79086 11 11L11 37C11 39.2091 12.7909 41 15 41L33 41C35.2091 41 37 39.2091 37 37L37 21L31.5 21C27.0817 21 23.5 17.4183 23.5 13Z" fill-rule="evenodd"  fill="#787878" >
</path>
</svg>
