<svg xmlns="http://www.w3.org/2000/svg" xmlns:xlink="http://www.w3.org/1999/xlink" width="48" height="48" viewBox="0 0 48 48" fill="none">
<path d="M28.6595 41.9882C38.2953 41.6413 46.0004 33.7204 46.0004 24C46.0004 14.2796 38.2953 6.35875 28.6595 6.01189C29.4822 6.74451 30.0004 7.81177 30.0004 9.00004L30.0004 10.1418C36.785 11.1123 42.0004 16.9471 42.0004 24C42.0004 31.053 36.785 36.8878 30.0004 37.8582L30.0004 39C30.0004 40.1883 29.4822 41.2555 28.6595 41.9882Z" fill-rule="evenodd"  fill="#424242" >
</path>
<path d="M26 3L10 3C5.58172 3 2 6.58172 2 11L2 37C2 41.4183 5.58172 45 10 45L26 45C29.3137 45 32 42.3137 32 39L32 9C32 5.68629 29.3137 3 26 3ZM6 11C6 8.79086 7.79086 7 10 7L26 7C27.1046 7 28 7.89543 28 9L28 39C28 40.1046 27.1046 41 26 41L10 41C7.79086 41 6 39.2091 6 37L6 11Z" fill-rule="evenodd"  fill="#787878" >
</path>
<path d="M9.00027 30.0002C9.00041 31.1048 9.89596 32.0001 11.0005 32L18.3338 31.999C19.4384 31.9989 20.3337 31.1033 20.3335 29.9987C20.3334 28.8942 19.4378 27.9989 18.3333 27.999L11 28C9.89543 28.0001 9.00012 28.8957 9.00027 30.0002Z" fill-rule="evenodd"  fill="#424242" >
</path>
<path d="M11 34L10.9998 34C9.89534 34.0001 9 34.8955 9 36C9 37.1046 9.89543 38 11 38L11.0002 38L23.0003 37.999L23.0005 37.999C24.105 37.9989 25.0003 37.1035 25.0003 35.999C25.0003 34.8945 24.1049 33.999 23.0003 33.999L23.0002 33.999L11 34Z" fill-rule="evenodd"  fill="#424242" >
</path>
<path d="M38 24C38 28.4183 34.4183 32 30 32L28 32L28 16L30 16C34.4183 16 38 19.5817 38 24ZM32 27.4649L32 20.5351C33.1956 21.2267 34 22.5194 34 24C34 25.4806 33.1956 26.7733 32 27.4649Z" fill-rule="evenodd"  fill="#787878" >
</path>
</svg>
