<svg xmlns="http://www.w3.org/2000/svg" xmlns:xlink="http://www.w3.org/1999/xlink" width="48" height="48" viewBox="0 0 48 48" fill="none">
<path d="M23.61 4.04C23.67 4.03 23.74 4.02 23.8 4.01C23.87 4 23.93 4 24 4C24.07 4 24.13 4 24.2 4.01C24.26 4.02 24.33 4.03 24.39 4.04C24.45 4.05 24.52 4.07 24.58 4.09C24.64 4.11 24.7 4.13 24.77 4.15C24.83 4.18 24.89 4.21 24.94 4.24C25 4.27 25.06 4.3 25.11 4.34C25.17 4.37 25.22 4.41 25.27 4.45C25.32 4.5 25.37 4.54 25.41 4.59C25.46 4.63 25.5 4.68 25.55 4.73C25.59 4.78 25.63 4.83 25.66 4.89C25.7 4.94 25.73 5 25.76 5.06C25.79 5.11 25.82 5.17 25.85 5.23C25.87 5.3 25.89 5.36 25.91 5.42C25.93 5.48 25.95 5.55 25.96 5.61C25.97 5.67 25.98 5.74 25.99 5.8C26 5.87 26 5.93 26 6L26 8L31 8C31.81 8 32.59 8.16 33.34 8.47C34.05 8.78 34.69 9.2 35.24 9.76C35.8 10.31 36.22 10.95 36.53 11.66C36.84 12.41 37 13.19 37 14L37 16C37 16.81 36.84 17.59 36.53 18.34C36.22 19.05 35.8 19.69 35.24 20.24C34.69 20.8 34.05 21.22 33.34 21.53C32.59 21.84 31.81 22 31 22L26 22L26 26L34 26C34.81 26 35.59 26.16 36.34 26.47C37.05 26.78 37.69 27.2 38.24 27.76C38.8 28.31 39.22 28.95 39.53 29.66C39.84 30.41 40 31.19 40 32L40 34C40 34.81 39.84 35.59 39.53 36.34C39.22 37.05 38.8 37.69 38.24 38.24C37.69 38.8 37.05 39.22 36.34 39.53C35.59 39.84 34.81 40 34 40L26 40L26 42C26 42.07 26 42.13 25.99 42.2C25.98 42.26 25.97 42.33 25.96 42.39C25.95 42.45 25.93 42.52 25.91 42.58C25.89 42.64 25.87 42.7 25.85 42.77C25.82 42.83 25.79 42.88 25.76 42.94C25.73 43 25.7 43.06 25.66 43.11C25.63 43.17 25.59 43.22 25.55 43.27C25.5 43.32 25.46 43.37 25.41 43.41C25.37 43.46 25.32 43.5 25.27 43.55C25.22 43.59 25.17 43.63 25.11 43.66C25.06 43.7 25 43.73 24.94 43.76C24.89 43.79 24.83 43.82 24.77 43.85C24.7 43.87 24.64 43.89 24.58 43.91C24.52 43.93 24.45 43.95 24.39 43.96C24.33 43.97 24.26 43.98 24.2 43.99C24.13 44 24.07 44 24 44C23.93 44 23.87 44 23.8 43.99C23.74 43.98 23.67 43.97 23.61 43.96C23.55 43.95 23.48 43.93 23.42 43.91C23.36 43.89 23.3 43.87 23.23 43.85C23.17 43.82 23.11 43.79 23.06 43.76C23 43.73 22.94 43.7 22.89 43.66C22.83 43.63 22.78 43.59 22.73 43.55C22.68 43.5 22.63 43.46 22.59 43.41C22.54 43.37 22.5 43.32 22.45 43.27C22.41 43.22 22.37 43.17 22.34 43.11C22.3 43.06 22.27 43 22.24 42.94C22.21 42.88 22.18 42.83 22.15 42.77C22.13 42.7 22.11 42.64 22.09 42.58C22.07 42.52 22.05 42.45 22.04 42.39C22.03 42.33 22.02 42.26 22.01 42.2C22 42.13 22 42.07 22 42L22 40L14 40C13.19 40 12.41 39.84 11.66 39.53C10.95 39.22 10.31 38.8 9.76 38.24C9.2 37.69 8.78 37.05 8.47 36.34C8.16 35.59 8 34.81 8 34L8 32C8 31.19 8.16 30.41 8.47 29.66C8.78 28.95 9.2 28.31 9.76 27.76C10.31 27.2 10.95 26.78 11.66 26.47C12.41 26.16 13.19 26 14 26L22 26L22 22L17 22C16.19 22 15.41 21.84 14.66 21.53C13.95 21.22 13.31 20.8 12.76 20.24C12.2 19.69 11.78 19.05 11.47 18.34C11.16 17.59 11 16.81 11 16L11 14C11 13.19 11.16 12.41 11.47 11.66C11.78 10.95 12.2 10.31 12.76 9.76C13.31 9.2 13.95 8.78 14.66 8.47C15.41 8.16 16.19 8 17 8L22 8L22 6C22 5.93 22 5.87 22.01 5.8C22.02 5.74 22.03 5.67 22.04 5.61C22.05 5.55 22.07 5.48 22.09 5.42C22.11 5.36 22.13 5.3 22.15 5.23C22.18 5.17 22.21 5.11 22.24 5.06C22.27 5 22.3 4.94 22.34 4.89C22.37 4.83 22.41 4.78 22.45 4.73C22.5 4.68 22.54 4.63 22.59 4.59C22.63 4.54 22.68 4.5 22.73 4.45C22.78 4.41 22.83 4.37 22.89 4.34C22.94 4.3 23 4.27 23.06 4.24C23.11 4.21 23.17 4.18 23.23 4.15C23.3 4.13 23.36 4.11 23.42 4.09C23.48 4.07 23.55 4.05 23.61 4.04ZM22 30L14 30C13.73 30 13.47 30.05 13.22 30.16C12.98 30.26 12.77 30.4 12.59 30.59C12.4 30.77 12.26 30.98 12.16 31.22C12.05 31.47 12 31.73 12 32L12 34C12 34.27 12.05 34.53 12.16 34.78C12.26 35.02 12.4 35.23 12.59 35.41C12.77 35.6 12.98 35.74 13.22 35.84C13.47 35.95 13.73 36 14 36L22 36L22 30ZM26 36L34 36C34.27 36 34.53 35.95 34.78 35.84C35.02 35.74 35.23 35.6 35.41 35.41C35.6 35.23 35.74 35.02 35.84 34.78C35.95 34.53 36 34.27 36 34L36 32C36 31.73 35.95 31.47 35.84 31.22C35.74 30.98 35.6 30.77 35.41 30.59C35.23 30.4 35.02 30.26 34.78 30.16C34.53 30.05 34.27 30 34 30L26 30L26 36ZM17 12L22 12L22 18L17 18C16.73 18 16.47 17.95 16.22 17.84C15.98 17.74 15.77 17.6 15.59 17.41C15.4 17.23 15.26 17.02 15.16 16.78C15.05 16.53 15 16.27 15 16L15 14C15 13.73 15.05 13.47 15.16 13.22C15.26 12.98 15.4 12.77 15.59 12.59C15.77 12.4 15.98 12.26 16.22 12.16C16.47 12.05 16.73 12 17 12ZM26 12L26 18L31 18C31.27 18 31.53 17.95 31.78 17.84C32.02 17.74 32.23 17.6 32.41 17.41C32.6 17.23 32.74 17.02 32.84 16.78C32.95 16.53 33 16.27 33 16L33 14C33 13.73 32.95 13.47 32.84 13.22C32.74 12.98 32.6 12.77 32.41 12.59C32.23 12.4 32.02 12.26 31.78 12.16C31.53 12.05 31.27 12 31 12L26 12Z" fill-rule="evenodd"  fill="#000000" >
</path>
</svg>
