<svg xmlns="http://www.w3.org/2000/svg" xmlns:xlink="http://www.w3.org/1999/xlink" width="48" height="48" viewBox="0 0 48 48" fill="none">
<path d="M40.5045 12C40.5045 10.9 39.6045 10 38.5045 10C37.7845 10 37.1645 10.37 36.8045 10.93L33.0384 16.1555C32.5846 15.9261 32.1214 15.714 31.65 15.52C29.22 14.52 26.62 14 24 14C21.37 14 18.78 14.52 16.35 15.52C15.7519 15.7661 15.167 16.0414 14.5976 16.3442L10.6955 10.93C10.3355 10.37 9.7155 10 8.9955 10C7.8955 10 6.9955 10.9 6.9955 12C6.9955 12.44 7.1355 12.84 7.3755 13.17L11.2688 18.5742C10.7793 18.9795 10.309 19.4085 9.86 19.86C8.45 21.27 7 23.76 5.52 27.35C4.52 29.78 4 32.38 4 35C4 38.33 10.67 40 24 40C37.33 40 44 38.33 44 35C44 32.37 43.48 29.78 42.48 27.35C41 23.76 39.55 21.27 38.14 19.86C37.5952 19.3123 37.0192 18.7975 36.4156 18.3183L40.1245 13.17C40.3645 12.84 40.5045 12.44 40.5045 12ZM35.32 22.68C33.83 21.2 32.07 20.02 30.13 19.22C28.19 18.42 26.1 18 24 18C21.9 18 19.82 18.42 17.87 19.22C15.93 20.02 14.17 21.2 12.68 22.68C11.65 23.72 10.5 25.78 9.22 28.87C8.5 30.61 8.09 32.47 8.01 34.34C8.09 34.38 8.17 34.41 8.26 34.44C9.08 34.76 10.3 35.03 11.92 35.27C15.2 35.76 19.22 36 24 36C28.78 36 32.8 35.76 36.08 35.27C37.7 35.03 38.92 34.76 39.74 34.44C39.83 34.41 39.91 34.38 39.99 34.34C39.91 32.47 39.5 30.62 38.78 28.87C37.5 25.78 36.35 23.72 35.32 22.68ZM15.5 26C15.5 24.62 16.62 23.5 18 23.5C19.38 23.5 20.5 24.62 20.5 26C20.5 27.38 19.38 28.5 18 28.5C16.62 28.5 15.5 27.38 15.5 26ZM27.5 26C27.5 24.62 28.62 23.5 30 23.5C31.38 23.5 32.5 24.62 32.5 26C32.5 27.38 31.38 28.5 30 28.5C28.62 28.5 27.5 27.38 27.5 26Z" fill-rule="evenodd"  fill="#000000" >
</path>
</svg>
