<svg xmlns="http://www.w3.org/2000/svg" xmlns:xlink="http://www.w3.org/1999/xlink" width="48" height="48" viewBox="0 0 48 48" fill="none">
<path d="M7 12C7 12.4447 7.14516 12.8555 7.39067 13.1877L12.2476 19.9281C12.6094 20.4433 13.2081 20.78 13.8855 20.78C14.9901 20.78 15.8855 19.8846 15.8855 18.78C15.8855 18.3353 15.7403 17.9245 15.4948 17.5924L10.6379 10.8519C10.2761 10.3367 9.67736 10 9 10C7.89543 10 7 10.8954 7 12ZM40.5 12C40.5 12.4447 40.3548 12.8555 40.1093 13.1877L35.2524 19.9281C34.8906 20.4433 34.2919 20.78 33.6145 20.78C32.5099 20.78 31.6145 19.8846 31.6145 18.78C31.6145 18.3353 31.7596 17.9245 32.0052 17.5924L36.8621 10.8519C37.2239 10.3367 37.8226 10 38.5 10C39.6046 10 40.5 10.8954 40.5 12Z" fill-rule="evenodd"  fill="#088A78" >
</path>
<path d="M24 40C37.3333 40 44 38.3333 44 35C44 32.3736 43.4827 29.7729 42.4776 27.3465C40.9913 23.758 39.5461 21.2618 38.1421 19.8579C36.285 18.0007 34.0802 16.5275 31.6537 15.5224C29.2272 14.5173 26.6264 14 24 14C21.3736 14 18.7728 14.5173 16.3463 15.5224C13.9198 16.5275 11.715 18.0007 9.85786 19.8579C8.4539 21.2618 7.00873 23.758 5.52236 27.3464C4.51728 29.7729 4 32.3736 4 35C4 38.3333 10.6667 40 24 40ZM18 28.5C19.3807 28.5 20.5 27.3807 20.5 26C20.5 24.6193 19.3807 23.5 18 23.5C16.6193 23.5 15.5 24.6193 15.5 26C15.5 27.3807 16.6193 28.5 18 28.5ZM30 28.5C31.3807 28.5 32.5 27.3807 32.5 26C32.5 24.6193 31.3807 23.5 30 23.5C28.6193 23.5 27.5 24.6193 27.5 26C27.5 27.3807 28.6193 28.5 30 28.5Z" fill-rule="evenodd"  fill="#0D9E86" >
</path>
<path d="M40.1531 22.5683C39.9584 22.6806 39.7594 22.7865 39.5563 22.8847C37.5134 23.8724 35.0881 24.6558 32.4189 25.1904C32.4024 25.1937 32.3858 25.197 32.3693 25.2003C32.0357 24.2118 31.1009 23.5 29.9999 23.5C28.6647 23.5 27.574 24.5467 27.5035 25.8643C26.3477 25.9544 25.1761 26 23.9999 26C22.8237 26 21.6521 25.9544 20.4963 25.8643C20.4258 24.5467 19.3351 23.5 17.9999 23.5C16.8988 23.5 15.964 24.2118 15.6305 25.2003C15.6139 25.197 15.5974 25.1937 15.5808 25.1904C12.9117 24.6558 10.4864 23.8724 8.44353 22.8847C8.24038 22.7865 8.04141 22.6806 7.84671 22.5682C8.52619 21.4225 9.19653 20.5191 9.85774 19.8579C11.7149 18.0007 13.9197 16.5275 16.3462 15.5224C18.7727 14.5173 21.3735 14 23.9999 14C26.6263 14 29.2271 14.5173 31.6536 15.5224C34.0801 16.5275 36.2849 18.0007 38.142 19.8579C38.8032 20.5191 39.4735 21.4225 40.1531 22.5683Z" fill-rule="evenodd"  fill="#2CB197" >
</path>
<path d="M31.6541 15.5224C33.1626 16.1473 34.5855 16.9531 35.8924 17.9195C34.492 18.2099 32.9367 18.4481 31.2714 18.6263C28.9662 18.873 26.4955 19 24.0004 19C21.5053 19 19.0346 18.873 16.7294 18.6263C15.0641 18.4481 13.5088 18.2099 12.1084 17.9195C13.4153 16.9531 14.8382 16.1473 16.3467 15.5224C18.7732 14.5173 21.374 14 24.0004 14C26.6268 14 29.2276 14.5173 31.6541 15.5224Z" fill-rule="evenodd"  fill="#51C5AA" >
</path>
</svg>
