<svg xmlns="http://www.w3.org/2000/svg" xmlns:xlink="http://www.w3.org/1999/xlink" width="48" height="48" viewBox="0 0 48 48" fill="none">
<path d="M9.41421 32.6642L9.41458 32.6638L24 18.0784L38.5847 32.6632L38.5858 32.6642C38.9477 33.0261 39.4477 33.25 40 33.25C41.1046 33.25 42 32.3546 42 31.25C42 30.6977 41.7761 30.1977 41.4142 29.8358L26.8284 15.25C25.2663 13.6879 22.7337 13.6879 21.1716 15.25L6.58615 29.8354L6.58579 29.8358C6.22386 30.1977 6 30.6977 6 31.25C6 32.3546 6.89543 33.25 8 33.25C8.55229 33.25 9.05228 33.0261 9.41421 32.6642Z" fill-rule="evenodd"  fill="#787878" >
</path>
<path d="M16.6642 25.4142L16.6645 25.4139L24 18.0784L31.3348 25.4132L31.3358 25.4142C31.6977 25.7761 32.1977 26 32.75 26C33.8545 26 34.75 25.1046 34.75 24C34.75 23.4477 34.5261 22.9477 34.1642 22.5858L34.1632 22.5848L26.8284 15.25C25.2663 13.6879 22.7337 13.6879 21.1716 15.25L13.8361 22.5855L13.8358 22.5858C13.4739 22.9477 13.25 23.4477 13.25 24C13.25 25.1046 14.1454 26 15.25 26C15.8023 26 16.3023 25.7761 16.6642 25.4142Z" fill-rule="evenodd"  fill="#424242" >
</path>
</svg>
