<svg xmlns="http://www.w3.org/2000/svg" xmlns:xlink="http://www.w3.org/1999/xlink" width="48" height="48" viewBox="0 0 48 48" fill="none">
<path d="M6.15 27.77C6.1 27.64 6.06 27.52 6.04 27.39C6.01 27.26 6 27.13 6 27C6 26.87 6.01 26.74 6.04 26.61C6.06 26.48 6.1 26.36 6.15 26.23C6.2 26.11 6.26 26 6.34 25.89C6.41 25.78 6.49 25.68 6.59 25.59C6.63 25.54 6.68 25.5 6.73 25.45C6.78 25.41 6.83 25.37 6.89 25.34C6.94 25.3 7 25.27 7.06 25.24C7.11 25.21 7.17 25.18 7.23 25.15C7.3 25.13 7.36 25.11 7.42 25.09C7.48 25.07 7.55 25.05 7.61 25.04C7.67 25.03 7.74 25.02 7.8 25.01C7.87 25 7.93 25 8 25C8.07 25 8.13 25 8.2 25.01C8.26 25.02 8.33 25.03 8.39 25.04C8.45 25.05 8.52 25.07 8.58 25.09C8.64 25.11 8.7 25.13 8.77 25.15C8.83 25.18 8.89 25.21 8.94 25.24C9 25.27 9.06 25.3 9.11 25.34C9.17 25.37 9.22 25.41 9.27 25.45C9.32 25.5 9.37 25.54 9.41 25.59L22 38.1714L22 6.25C22 6.18 22 6.12 22.01 6.05C22.02 5.99 22.03 5.92 22.04 5.86C22.05 5.8 22.07 5.73 22.09 5.67C22.11 5.61 22.13 5.55 22.15 5.48C22.18 5.42 22.21 5.36 22.24 5.31C22.27 5.25 22.3 5.19 22.34 5.14C22.37 5.08 22.41 5.03 22.46 4.98C22.5 4.93 22.54 4.88 22.59 4.84C22.63 4.79 22.68 4.75 22.73 4.7C22.78 4.66 22.84 4.62 22.89 4.59C22.94 4.55 23 4.52 23.06 4.49L23.24 4.4L23.42 4.34C23.48 4.32 23.55 4.3 23.61 4.29C23.68 4.28 23.74 4.27 23.81 4.26C23.87 4.25 23.94 4.25 24 4.25C24.07 4.25 24.13 4.25 24.2 4.26C24.26 4.27 24.33 4.28 24.39 4.29C24.46 4.3 24.52 4.32 24.58 4.34C24.64 4.36 24.71 4.38 24.77 4.4C24.83 4.43 24.89 4.46 24.94 4.49C25 4.52 25.06 4.55 25.11 4.59C25.17 4.62 25.22 4.66 25.27 4.7C25.32 4.75 25.37 4.79 25.42 4.84C25.46 4.88 25.51 4.93 25.55 4.98C25.59 5.03 25.63 5.08 25.66 5.14C25.7 5.19 25.73 5.25 25.76 5.31C25.8 5.37 25.82 5.42 25.85 5.48C25.87 5.55 25.9 5.61 25.91 5.67C25.93 5.73 25.95 5.8 25.96 5.86C25.98 5.92 25.98 5.99 25.99 6.05C26 6.12 26 6.18 26 6.25L26 38.1714L38.59 25.59C38.63 25.54 38.68 25.5 38.73 25.45C38.78 25.41 38.83 25.37 38.89 25.34C38.94 25.3 39 25.27 39.06 25.24C39.11 25.21 39.17 25.18 39.23 25.15C39.3 25.13 39.36 25.11 39.42 25.09C39.48 25.07 39.55 25.05 39.61 25.04C39.67 25.03 39.74 25.02 39.8 25.01C39.87 25 39.93 25 40 25C40.07 25 40.13 25 40.2 25.01C40.26 25.02 40.33 25.03 40.39 25.04C40.45 25.05 40.52 25.07 40.58 25.09C40.64 25.11 40.7 25.13 40.77 25.15C40.83 25.18 40.89 25.21 40.94 25.24C41 25.27 41.06 25.3 41.11 25.34C41.17 25.37 41.22 25.41 41.27 25.45C41.32 25.5 41.37 25.54 41.41 25.59C41.46 25.63 41.5 25.68 41.55 25.73C41.59 25.78 41.63 25.83 41.66 25.89C41.7 25.94 41.73 26 41.76 26.06C41.79 26.11 41.82 26.17 41.85 26.23C41.87 26.3 41.89 26.36 41.91 26.42C41.93 26.48 41.95 26.55 41.96 26.61C41.97 26.67 41.98 26.74 41.99 26.8C42 26.87 42 26.93 42 27C42 27.07 42 27.13 41.99 27.2C41.98 27.26 41.97 27.33 41.96 27.39C41.95 27.45 41.93 27.52 41.91 27.58C41.89 27.64 41.87 27.7 41.85 27.77C41.82 27.83 41.79 27.89 41.76 27.94C41.73 28 41.7 28.06 41.66 28.11C41.63 28.17 41.59 28.22 41.55 28.27C41.5 28.32 41.46 28.37 41.41 28.41L26.82 43C26.44 43.39 26 43.68 25.5 43.88C25.02 44.08 24.52 44.18 24 44.18C23.48 44.18 22.98 44.08 22.5 43.88C22 43.68 21.56 43.39 21.18 43L6.59 28.41C6.49 28.32 6.41 28.22 6.34 28.11C6.26 28 6.2 27.89 6.15 27.77Z"   fill="#000000" >
</path>
</svg>
