<svg xmlns="http://www.w3.org/2000/svg" xmlns:xlink="http://www.w3.org/1999/xlink" width="48" height="48" viewBox="0 0 48 48" fill="none">
<path d="M15.1782 5.58C14.7922 4.2965 15.7479 3 17.0882 3L25.5882 3C30.9471 3 34.4819 5.68004 36.1882 11.05L41.3082 27.16L43.7482 34.72L44.6982 37.67L45.8982 41.38C46.3168 42.6719 45.3562 44 43.9982 44L28.1882 44C27.3042 44 26.5313 43.417 26.2782 42.57L22.0582 28.47L15.1782 5.58Z" fill-rule="evenodd"  fill="#FA9E14" >
</path>
<path d="M25.6399 25.8051L39.337 25.8021C40.2013 25.8019 40.9679 26.357 41.2376 27.1782L45.8997 41.3759C46.3244 42.6693 45.3608 43.9999 43.9995 43.9999L4.99958 43.9999C3.63411 43.9999 2.67014 42.6618 3.10248 41.3666L5.6713 33.6708C7.42159 28.4342 10.9599 25.8128 16.2862 25.8065L16.2873 25.8064L24.1963 25.8021L25.6387 25.8013L25.6399 25.8051Z" fill-rule="evenodd"  fill="#FA9E14" >
</path>
<path d="M39.3625 25.8022L38.641 25.8022L25.6404 25.805L25.6395 25.8022L23.8356 25.8022L21.2666 25.8037L26.6998 43.9998L44 43.9998C45.3517 43.9998 46.3113 42.6879 45.9089 41.4031L45.5679 40.3638L41.2381 27.1781C40.971 26.3649 40.2166 25.8127 39.3625 25.8022Z" fill-rule="evenodd"  fill="#FBB63E" >
</path>
</svg>
