<svg xmlns="http://www.w3.org/2000/svg" xmlns:xlink="http://www.w3.org/1999/xlink" width="48" height="48" viewBox="0 0 48 48" fill="none">
<path d="M17.0979 3C15.7579 3 14.7979 4.29 15.1779 5.58L21.256 25.8022L16.288 25.8022C15.098 25.8022 13.938 26.0022 12.808 26.3822C11.708 26.7522 10.688 27.2922 9.74805 27.9922C8.80805 28.6922 7.99805 29.5222 7.30805 30.4722C6.60805 31.4522 6.05805 32.5122 5.66805 33.6722L3.09805 41.3722C2.66805 42.6622 3.63805 44.0022 4.99805 44.0022L43.9988 44.0022C45.2413 44.0022 46.1433 42.9078 45.9823 41.7409C45.9647 41.6135 45.9345 41.4852 45.8906 41.3573L44.6979 37.67L43.7379 34.73L41.3079 27.15L36.1779 11.05C35.4279 8.67 34.0879 6.74 32.1679 5.26C30.2079 3.75 28.0179 3 25.5879 3L17.0979 3ZM36.6797 25.8022L32.3679 12.27C31.2579 8.76 28.9879 7 25.5879 7L19.7879 7L25.4335 25.8022L36.6797 25.8022ZM23.0721 31.8662L22.4539 29.8022L16.288 29.8022C14.768 29.8022 13.378 30.2722 12.138 31.2022C10.878 32.1422 9.98805 33.3922 9.46805 34.9322L7.77805 40.0022L25.5014 40.0022L23.0721 31.8662ZM29.6879 40L41.2373 40L37.888 29.8022L26.6388 29.8022L27.6588 33.2245L29.6879 40Z" fill-rule="evenodd"  fill="#000000" >
</path>
</svg>
