<svg xmlns="http://www.w3.org/2000/svg" xmlns:xlink="http://www.w3.org/1999/xlink" width="48" height="48" viewBox="0 0 48 48" fill="none">
<path d="M39.0102 29.9665C39.0102 30.3833 38.9883 30.7977 38.9444 31.2061C38.6836 33.6972 37.6403 35.9497 36.0694 37.6919C36.2673 37.4648 36.4456 37.2209 36.602 36.9597C36.7226 36.7612 36.83 36.5543 36.9206 36.3385C36.9535 36.2675 36.9835 36.1936 37.0083 36.1203C37.0383 36.0493 37.0631 35.9754 37.085 35.9021C37.1099 35.8341 37.1318 35.7632 37.1509 35.6922C37.1699 35.6182 37.1895 35.5449 37.2057 35.471C37.2086 35.4627 37.2114 35.4536 37.2137 35.4453C37.2305 35.3714 37.2438 35.2981 37.2576 35.2241C37.2715 35.1478 37.2853 35.0708 37.2962 34.9946C37.2962 34.9916 37.2962 34.9916 37.2962 34.9892C37.3073 34.9183 37.3153 34.8473 37.3211 34.7733C37.3378 34.6059 37.3459 34.4389 37.3459 34.2684C37.3459 33.3096 37.0902 32.4099 36.643 31.6443C36.5414 31.4655 36.4289 31.2955 36.3054 31.1339C36.16 30.9408 36.0036 30.7595 35.8333 30.5919C35.4103 30.1693 34.9163 29.8228 34.3698 29.579C34.1338 29.4711 33.8868 29.3834 33.6341 29.3178C33.6311 29.3178 33.626 29.3148 33.6231 29.3148L33.5353 29.2838L32.2559 28.8301L32.2559 28.8271L28.9088 27.6382C28.8978 27.6352 28.884 27.6352 28.8759 27.6329L28.6669 27.5535C27.994 27.2811 27.4366 26.7707 27.088 26.1208L25.8663 22.9005L24.4657 19.2122L24.1968 18.5003L24.1281 18.3554C24.0513 18.1623 24.0098 17.9524 24.0098 17.7342C24.0098 17.6775 24.0098 17.6209 24.0155 17.5696C24.0952 16.7581 24.7623 16.1226 25.5697 16.1226C25.7838 16.1226 25.9898 16.1679 26.1768 16.2502L32.414 19.5544L33.6444 20.2043C34.2954 20.6045 34.9019 21.0754 35.4565 21.6061C37.4665 23.5129 38.7846 26.1852 38.9825 29.1729C38.9993 29.4365 39.0102 29.7 39.0102 29.9665Z"   fill="#4187FF" >
</path>
<path d="M37.3419 34.2642C37.3419 34.5933 37.3119 34.9111 37.2565 35.2206C37.2398 35.3028 37.2237 35.3851 37.2046 35.4674C37.1689 35.6147 37.1307 35.7566 37.084 35.8984C37.0592 35.9724 37.0344 36.0458 37.0072 36.1167C36.9795 36.1906 36.9495 36.2616 36.9195 36.3349C36.8289 36.5508 36.7216 36.7576 36.601 36.9562C36.4446 37.2173 36.2657 37.4612 36.0683 37.6884C35.1593 38.727 32.0725 40.5789 30.9351 41.3314L28.4096 42.9257C26.5595 44.1039 24.8097 44.9374 22.6046 44.994C22.5002 44.997 22.3987 45 22.2971 45C22.1545 45 22.0143 44.997 21.8741 44.9917C18.1396 44.8444 14.8825 42.773 13.0047 39.712C12.1453 38.3132 11.5769 36.7076 11.3848 34.9827C11.7881 37.3402 13.7768 39.1277 16.1741 39.1277C17.0143 39.1277 17.9394 38.8592 18.4917 38.5231L18.7554 38.3615L19.7607 37.7486L21.0401 36.9657L21.0401 36.9288L21.2052 36.8268L32.6536 29.8192L33.5349 29.2803L33.6226 29.3113C33.6255 29.3113 33.6306 29.3143 33.6336 29.3143C33.8863 29.3792 34.1333 29.4675 34.3694 29.5754C34.9158 29.8192 35.4099 30.1657 35.8329 30.5884C36.0031 30.756 36.1595 30.9372 36.3049 31.1304C36.4284 31.2919 36.5409 31.4625 36.6425 31.6407C37.0863 32.4058 37.3419 33.3054 37.3419 34.2642Z"   fill="#1764FF" >
</path>
<path d="M21.0446 10.8787L21.0406 36.9652L19.7612 37.7486L18.7553 38.3609L18.7553 38.361C18.7512 38.361 18.4961 38.5202 18.4927 38.5237C17.8025 38.9077 17.0141 39.1289 16.1733 39.1289C13.7755 39.1289 11.7903 37.3414 11.3846 34.9838C11.3655 34.8753 11.3511 34.7626 11.3396 34.6542C11.3246 34.4485 11.3136 34.2469 11.3096 34.0412L11.3096 4.68258C11.3096 3.75602 12.0379 3 12.9381 3C13.2757 3 13.5909 3.10852 13.85 3.28679L18.8297 6.64836C18.8562 6.67162 18.8857 6.69129 18.9163 6.71037C20.2038 7.61785 21.0446 9.1454 21.0446 10.8787Z"   fill="#4187FF" >
</path>
</svg>
