<svg xmlns="http://www.w3.org/2000/svg" xmlns:xlink="http://www.w3.org/1999/xlink" width="48" height="48" viewBox="0 0 48 48" fill="none">
<path d="M31.6 19.09C31.6 20.2 32.5 21.09 33.6 21.09C34.7 21.09 35.6 20.2 35.6 19.09L35.6 13.88C35.6 7.92 30.76 3 24.8 3C18.79 3 14 7.87 14 13.88L14 19.09C14 20.2 14.9 21.09 16 21.09C17.1 21.09 18 20.2 18 19.09L18 13.88C18 10.08 21 7 24.8 7C28.56 7 31.6 10.12 31.6 13.88L31.6 19.09ZM28.14 27.9999L9 27.9999C7.9 27.9999 7 27.0999 7 25.9999C7 24.8999 7.9 23.9999 9 23.9999L28.14 23.9999C29.24 23.9999 30.14 24.8999 30.14 25.9999C30.14 27.0999 29.24 27.9999 28.14 27.9999ZM34.2593 27.9999L39.9993 27.9999C41.1093 27.9999 41.9993 27.0999 41.9993 25.9999C41.9993 24.8999 41.1093 23.9999 39.9993 23.9999L34.2593 23.9999C33.1593 23.9999 32.2593 24.8999 32.2593 25.9999C32.2593 27.0999 33.1593 27.9999 34.2593 27.9999ZM23.35 36.0001L9 36.0001C7.9 36.0001 7 35.1001 7 34.0001C7 32.9001 7.9 32.0001 9 32.0001L23.35 32.0001C24.46 32.0001 25.35 32.9001 25.35 34.0001C25.35 35.1001 24.46 36.0001 23.35 36.0001ZM39.9956 36.0001L29.4756 36.0001C28.3756 36.0001 27.4756 35.1001 27.4756 34.0001C27.4756 32.9001 28.3756 32.0001 29.4756 32.0001L39.9956 32.0001C41.1056 32.0001 41.9956 32.9001 41.9956 34.0001C41.9956 35.1001 41.1056 36.0001 39.9956 36.0001ZM17.47 44L9 44C7.9 44 7 43.1 7 42C7 40.9 7.9 40 9 40L17.47 40C18.57 40 19.47 40.9 19.47 42C19.47 43.1 18.57 44 17.47 44ZM39.998 44L23.668 44C22.568 44 21.668 43.1 21.668 42C21.668 40.9 22.568 40 23.668 40L39.998 40C41.108 40 41.998 40.9 41.998 42C41.998 43.1 41.108 44 39.998 44Z" fill-rule="evenodd"  fill="#000000" >
</path>
</svg>
