<svg xmlns="http://www.w3.org/2000/svg" xmlns:xlink="http://www.w3.org/1999/xlink" width="48" height="48" viewBox="0 0 48 48" fill="none">
<path d="M20.71 41.3405C20.24 40.5605 20 39.6905 20 38.7605L20 27.6441L12.1127 32.6596C11.7941 32.8744 11.411 33 11 33C9.9 33 9 32.1 9 31C9 30.294 9.37074 29.6704 9.92716 29.3143L9.92624 29.3128L18.2762 24.0028L10.0087 18.7353C9.40726 18.3894 9 17.74 9 17C9 15.9 9.9 15 11 15C11.3947 15 11.7637 15.1159 12.0746 15.3154L12.0762 15.3128L20 20.3573L20 9.25054C20 8.32054 20.24 7.46054 20.71 6.67054C21.16 5.93054 21.76 5.34054 22.51 4.91055C23.27 4.47055 24.08 4.25055 24.95 4.24055C25.87 4.23055 26.73 4.46055 27.53 4.94055L34.16 8.83054C35.11 9.39054 35.85 10.1505 36.37 11.1005C36.87 12.0005 37.11 12.9705 37.11 14.0005C37.11 15.0305 36.87 16.0005 36.37 16.9005C35.85 17.8505 35.11 18.6105 34.15 19.1705L25.95 24.0005L34.16 28.8305C35.11 29.3905 35.85 30.1505 36.37 31.1005C36.87 32.0005 37.11 32.9705 37.11 34.0005C37.11 35.0305 36.87 36.0005 36.37 36.9005C35.85 37.8505 35.11 38.6105 34.15 39.1705L27.53 43.0705C26.73 43.5405 25.86 43.7705 24.95 43.7605C24.08 43.7505 23.28 43.5305 22.52 43.1005C21.76 42.6605 21.16 42.0805 20.71 41.3405ZM32.87 14.9705C32.69 15.2805 32.45 15.5405 32.13 15.7305L24 20.5005L24 9.25054C24 9.06054 24.05 8.89054 24.14 8.73055C24.23 8.58054 24.35 8.47054 24.51 8.38054C24.66 8.29054 24.82 8.24054 24.99 8.24054C25.17 8.24054 25.34 8.29054 25.51 8.38054L32.12 12.2705C32.45 12.4605 32.69 12.7105 32.87 13.0305C33.03 13.3305 33.11 13.6505 33.11 14.0005C33.11 14.3505 33.03 14.6705 32.87 14.9705ZM24.14 39.2705C24.05 39.1205 24 38.9505 24 38.7605L24 27.5005L32.12 32.2705C32.45 32.4605 32.69 32.7105 32.87 33.0305C33.03 33.3305 33.11 33.6505 33.11 34.0005C33.11 34.3505 33.03 34.6705 32.87 34.9705C32.69 35.2805 32.45 35.5405 32.13 35.7305L25.51 39.6105C25.34 39.7105 25.17 39.7605 24.99 39.7605C24.82 39.7505 24.66 39.7105 24.5 39.6205C24.35 39.5305 24.22 39.4205 24.14 39.2705Z" fill-rule="evenodd"  fill="#000000" >
</path>
</svg>
