<svg xmlns="http://www.w3.org/2000/svg" xmlns:xlink="http://www.w3.org/1999/xlink" width="48" height="48" viewBox="0 0 48 48" fill="none">
<path d="M42 33C42 34.46 41.72 35.87 41.16 37.21C40.6 38.56 39.81 39.75 38.78 40.77C37.75 41.8 36.56 42.6 35.21 43.16C33.87 43.72 32.46 44 31 44L16 44C14.92 44 13.88 43.79 12.89 43.37C11.93 42.96 11.08 42.39 10.34 41.66C9.61 40.92 9.04 40.07 8.63 39.11C8.21 38.12 8 37.08 8 36L8 12C8 10.92 8.21 9.88 8.63 8.89C9.04 7.93 9.61 7.08 10.34 6.34C11.08 5.61 11.93 5.04 12.89 4.63C13.88 4.21 14.92 4 16 4L27 4C28.46 4 29.87 4.28 31.21 4.84C32.56 5.4 33.75 6.19 34.77 7.22C35.8 8.25 36.6 9.44 37.16 10.79C37.72 12.13 38 13.54 38 15C38 16.46 37.72 17.87 37.16 19.21C36.61 20.53 35.84 21.69 34.85 22.7C34.97 22.74 35.09 22.79 35.21 22.84C36.56 23.4 37.75 24.19 38.77 25.22C39.8 26.25 40.6 27.44 41.16 28.79C41.72 30.13 42 31.54 42 33ZM12 26L12 36C12 36.54 12.1 37.06 12.31 37.55C12.52 38.03 12.8 38.46 13.17 38.83C13.54 39.2 13.97 39.48 14.45 39.69C14.94 39.9 15.46 40 16 40L31 40C31.93 40 32.82 39.82 33.68 39.47C34.54 39.11 35.29 38.61 35.94 37.95C36.6 37.29 37.11 36.54 37.47 35.68C37.82 34.82 38 33.93 38 33C38 32.07 37.82 31.18 37.47 30.32C37.11 29.46 36.61 28.71 35.95 28.06C35.29 27.4 34.54 26.89 33.68 26.53C32.82 26.18 31.93 26 31 26L12 26ZM29.68 8.53C30.54 8.89 31.29 9.4 31.95 10.06C32.61 10.71 33.11 11.46 33.47 12.32C33.82 13.18 34 14.07 34 15C34 15.93 33.82 16.82 33.47 17.68C33.11 18.54 32.6 19.29 31.94 19.95C31.29 20.61 30.54 21.11 29.68 21.47C28.82 21.82 27.93 22 27 22L12 22L12 12C12 11.46 12.1 10.94 12.31 10.45C12.52 9.97 12.8 9.54 13.17 9.17C13.54 8.8 13.97 8.52 14.45 8.31C14.94 8.1 15.46 8 16 8L27 8C27.93 8 28.82 8.18 29.68 8.53Z" fill-rule="evenodd"  fill="#000000" >
</path>
</svg>
