<svg xmlns="http://www.w3.org/2000/svg" xmlns:xlink="http://www.w3.org/1999/xlink" width="48" height="48" viewBox="0 0 48 48" fill="none">
<path d="M31 22L8 22L8 36C8 40.4183 11.5817 44 16 44L31 44C37.0751 44 42 39.0751 42 33C42 26.9249 37.0751 22 31 22ZM12 26L12 36C12 38.2091 13.7909 40 16 40L31 40C34.866 40 38 36.866 38 33C38 29.134 34.866 26 31 26L12 26Z" fill-rule="evenodd"  fill="#4187FF" >
</path>
<path d="M27 4L16 4C11.5817 4 8 7.58172 8 12L8 26L27 26C33.0751 26 38 21.0751 38 15C38 8.92487 33.0751 4 27 4ZM12 12C12 9.79086 13.7909 8 16 8L27 8C30.866 8 34 11.134 34 15C34 18.866 30.866 22 27 22L12 22L12 12Z" fill-rule="evenodd"  fill="#1764FF" >
</path>
<path d="M10 24.0012C10.0001 25.1058 10.8956 26.0012 12.0001 26.0011L27.0001 26.0001C28.1047 26 29.0001 25.1046 29 24C28.9999 22.8954 28.1045 22 26.9999 22.0001L11.9999 22.0011C10.8953 22.0012 9.99994 22.8967 10 24.0012Z" fill-rule="evenodd"  fill="#1764FF" >
</path>
</svg>
