<svg xmlns="http://www.w3.org/2000/svg" xmlns:xlink="http://www.w3.org/1999/xlink" width="48" height="48" viewBox="0 0 48 48" fill="none">
<path d="M11 15L37 15C40.3137 15 43 17.6863 43 21L43 33C43 36.3137 40.3137 39 37 39L11 39C7.68629 39 5 36.3137 5 33L5 21C5 17.6863 7.68629 15 11 15Z"   fill="#BEDCFF" >
</path>
<path d="M37 13L11 13C6.58172 13 3 16.5817 3 21L3 33C3 37.4183 6.58172 41 11 41L37 41C41.4183 41 45 37.4183 45 33L45 21C45 16.5817 41.4183 13 37 13ZM7 21C7 18.7909 8.79086 17 11 17L37 17C39.2091 17 41 18.7909 41 21L41 33C41 35.2091 39.2091 37 37 37L11 37C8.79086 37 7 35.2091 7 33L7 21Z" fill-rule="evenodd"  fill="#4187FF" >
</path>
<path d="M14 9C14 10.1046 14.8954 11 16 11L32 11C33.1046 11 34 10.1046 34 9C34 7.89543 33.1046 7 32 7L16 7C14.8954 7 14 7.89543 14 9Z" fill-rule="evenodd"  fill="#6BA6FF" >
</path>
<path d="M20 25L20 29C20 30.1046 19.1046 31 18 31C16.8954 31 16 30.1046 16 29L16 25C16 23.8954 16.8954 23 18 23C19.1046 23 20 23.8954 20 25Z" fill-rule="evenodd"  fill="#1764FF" >
</path>
<path d="M32 25L32 29C32 30.1046 31.1046 31 30 31C28.8954 31 28 30.1046 28 29L28 25C28 23.8954 28.8954 23 30 23C31.1046 23 32 23.8954 32 25Z" fill-rule="evenodd"  fill="#1764FF" >
</path>
</svg>
