<svg xmlns="http://www.w3.org/2000/svg" xmlns:xlink="http://www.w3.org/1999/xlink" width="48" height="48" viewBox="0 0 48 48" fill="none">
<path d="M23.7002 4.79004C34.3502 4.79004 42.9902 13.39 42.9902 24C42.9902 28.97 41.0902 33.5 37.9802 36.91L40.7602 39.82C41.9702 41.09 41.0802 43.19 39.3202 43.2L23.7002 43.2C13.0602 43.2 4.42023 34.6 4.42023 24C4.42023 13.39 13.0602 4.79004 23.7002 4.79004Z"   fill="#BEDCFF" >
</path>
<path d="M40.6639 36.8212C43.5449 33.1026 44.9854 28.8276 44.9854 23.9961C44.9854 12.2843 35.4167 2.79004 23.7049 2.79004C11.952 2.79004 2.42441 12.2432 2.42441 23.9961C2.42441 35.7078 11.9931 45.2021 23.7049 45.2021L39.3192 45.2021C42.8402 45.2021 44.6436 40.9815 42.2097 38.4371L40.6639 36.8212ZM36.5527 38.3101C36.2421 37.9942 36.0355 37.5756 35.9887 37.1099C35.9821 37.0434 35.9786 36.9759 35.9786 36.9076L35.9786 36.9073C35.9786 36.3783 36.184 35.8972 36.5194 35.5395C39.4967 32.2664 40.9854 28.4186 40.9854 23.9961C40.9854 14.4934 33.2075 6.79004 23.7049 6.79004C14.1612 6.79004 6.42441 14.4524 6.42441 23.9961C6.42441 33.4987 14.2023 41.2021 23.7049 41.2021L39.3192 41.2021L36.5527 38.3101Z" fill-rule="evenodd"  fill="#1764FF" >
</path>
<path d="M16 19L31 19C33.2091 19 35 20.7909 35 23L35 29C35 31.2091 33.2091 33 31 33L16 33C13.7909 33 12 31.2091 12 29L12 23C12 20.7909 13.7909 19 16 19Z"   fill="#94C3FF" >
</path>
<path d="M31 17L16 17C12.6863 17 10 19.6863 10 23L10 29C10 32.3137 12.6863 35 16 35L31 35C34.3137 35 37 32.3137 37 29L37 23C37 19.6863 34.3137 17 31 17ZM14 23C14 21.8954 14.8954 21 16 21L31 21C32.1046 21 33 21.8954 33 23L33 29C33 30.1046 32.1046 31 31 31L16 31C14.8954 31 14 30.1046 14 29L14 23Z" fill-rule="evenodd"  fill="#4187FF" >
</path>
<path d="M17 13C17 14.1046 17.8954 15 19 15L27 15C28.1046 15 29 14.1046 29 13C29 11.8954 28.1046 11 27 11L19 11C17.8954 11 17 11.8954 17 13Z" fill-rule="evenodd"  fill="#1764FF" >
</path>
<path d="M17 27L17 25C17 23.8954 17.8954 23 19 23C20.1046 23 21 23.8954 21 25L21 27C21 28.1046 20.1046 29 19 29C17.8954 29 17 28.1046 17 27Z" fill-rule="evenodd"  fill="#1764FF" >
</path>
<path d="M26 27L26 25C26 23.8954 26.8954 23 28 23C29.1046 23 30 23.8954 30 25L30 27C30 28.1046 29.1046 29 28 29C26.8954 29 26 28.1046 26 27Z" fill-rule="evenodd"  fill="#1764FF" >
</path>
</svg>
