<svg xmlns="http://www.w3.org/2000/svg" xmlns:xlink="http://www.w3.org/1999/xlink" width="48" height="48" viewBox="0 0 48 48" fill="none">
<path d="M44.9899 24C44.9899 28.83 43.5499 33.1 40.6599 36.82L42.2099 38.44C44.6299 40.98 42.8399 45.18 39.3299 45.2L23.6999 45.2C11.9899 45.2 2.41992 35.71 2.41992 24C2.41992 12.25 11.9499 2.79004 23.6999 2.79004C35.4099 2.79004 44.9899 12.29 44.9899 24ZM18.9999 15L26.9999 15C28.0999 15 28.9999 14.1 28.9999 13C28.9999 11.9 28.0999 11 26.9999 11L18.9999 11C17.8999 11 16.9999 11.9 16.9999 13C16.9999 14.1 17.8999 15 18.9999 15ZM36.9999 23L36.9999 29C36.9999 32.31 34.3099 35 30.9999 35L15.9999 35C12.6899 35 9.99992 32.31 9.99992 29L9.99992 23C9.99992 19.69 12.6899 17 15.9999 17L30.9999 17C34.3099 17 36.9999 19.69 36.9999 23ZM15.9999 21L30.9999 21C32.0999 21 32.9999 21.9 32.9999 23L32.9999 29C32.9999 30.1 32.0999 31 30.9999 31L15.9999 31C14.8999 31 13.9999 30.1 13.9999 29L13.9999 23C13.9999 21.9 14.8999 21 15.9999 21ZM18.9999 29C20.0999 29 20.9999 28.1 20.9999 27L20.9999 25C20.9999 23.9 20.0999 23 18.9999 23C17.8999 23 16.9999 23.9 16.9999 25L16.9999 27C16.9999 28.1 17.8999 29 18.9999 29ZM27.9999 29C29.0999 29 29.9999 28.1 29.9999 27L29.9999 25C29.9999 23.9 29.0999 23 27.9999 23C26.8999 23 25.9999 23.9 25.9999 25L25.9999 27C25.9999 28.1 26.8999 29 27.9999 29Z" fill-rule="evenodd"  fill="#000000" >
</path>
</svg>
