<svg xmlns="http://www.w3.org/2000/svg" xmlns:xlink="http://www.w3.org/1999/xlink" width="48" height="48" viewBox="0 0 48 48" fill="none">
<path d="M38.4316 10.113L26.4644 10.113L26.4644 4.57178C26.4644 4.39304 26.3161 4.25009 26.135 4.25009C21.2767 4.25009 20.212 5.43225 20.212 6.97589L20.212 10.113L8.85457 10.113C8.17704 10.113 7.87968 11.6643 7.87988 12.7582C7.87988 12.9397 8.02166 13.0895 8.20551 13.0895L20.212 13.0895L20.212 17.013L12.2558 17.013C11.5758 17.013 11.279 18.6121 11.2811 19.6694C11.2814 19.8465 11.4273 19.9895 11.6066 19.9895L27.5875 19.9895C27.2625 22.805 26.4837 25.3018 25.3965 27.4613C27.3593 28.3749 29.323 29.3557 31.3902 30.2588C33.803 26.428 35.2789 22.0379 35.3066 17.6623C35.3089 17.3046 35.017 17.013 34.6548 17.013L34.6221 17.013L34.622 17.0129L26.4644 17.013L26.4644 13.0895L37.7825 13.0895C38.4601 13.0895 38.7575 11.6013 38.7573 10.4443C38.7572 10.2629 38.6155 10.113 38.4316 10.113Z"   fill="#1764FF" >
</path>
<path d="M4.65626 32.6108C4.64535 39.0156 18.0221 41.5987 24.2451 37.6268C25.4798 36.8124 26.6261 35.8827 27.6762 34.8599C27.4654 34.7206 26.4032 33.9571 25.183 33.1751C24.2897 32.6027 23.2881 32.0329 22.5929 31.6282C15.1425 40.1167 4.65626 37.8674 4.65626 32.6108Z"   fill="#1764FF" >
</path>
<path d="M2 32.6104L2 32.6107C2.00021 37.4073 6.27921 41.2495 12.1341 41.2495C16.7324 41.2495 20.8255 39.8786 24.2376 37.6315C18.0011 41.588 4.6565 39.0097 4.65609 32.6107L4.65609 32.6104C4.65609 29.8684 7.70936 27.8923 11.4144 27.8923C15.2817 27.8923 18.9894 29.5145 22.5928 31.6281C24.3092 32.6348 26.002 33.7528 27.6771 34.8604C32.4493 38.0163 37.0787 41.0853 41.7028 41.2426C34.2836 40.9759 31.5768 32.6963 25.3973 27.4618C25.3971 27.4617 25.3969 27.4615 25.3966 27.4613C21.2867 25.5484 17.1805 23.9289 12.1341 23.9289C6.18283 23.9289 2 27.7534 2 32.6104Z"   fill="#4187FF" >
</path>
<path d="M42.0736 41.25C45.0732 41.25 45.8606 37.5517 45.9987 34.6427C46.0257 34.074 45.5749 33.5949 44.9985 33.5771C36.7867 33.3234 31.0886 30.1105 25.3965 27.4611C31.6786 32.7818 34.3708 41.25 42.0736 41.25Z"   fill="#6BA6FF" >
</path>
</svg>
