<svg xmlns="http://www.w3.org/2000/svg" xmlns:xlink="http://www.w3.org/1999/xlink" width="48" height="48" viewBox="0 0 48 48" fill="none">
<path d="M38.6435 35.0238C38.6512 34.9976 38.6589 34.9668 38.6666 34.936C38.6599 34.9628 38.6532 34.994 38.6435 35.0238ZM38.6435 35.0238C38.6412 35.0316 38.6389 35.0391 38.6366 35.046C38.6366 35.056 38.6266 35.066 38.6266 35.066C38.6332 35.0528 38.6387 35.0385 38.6435 35.0238ZM20.284 5.22861L20.194 5.16861L15.454 1.96861C14.854 1.53861 14.184 1.32861 13.434 1.32861C11.064 1.32861 9.87402 2.52861 9.87402 4.93861L9.87402 33.0986C9.87402 33.3586 9.88402 33.6186 9.91402 33.8886C9.92719 34.0071 9.94036 34.1169 9.95352 34.2181L9.95352 34.2261C10.1635 36.1361 10.7735 37.9161 11.7835 39.5861C14.1535 43.4161 17.5235 45.4261 21.9035 45.6061C22.0335 45.6161 22.2035 45.6161 22.4135 45.6161C22.5635 45.6161 22.7035 45.6161 22.8135 45.6061C24.8735 45.5461 27.0535 44.7761 29.3535 43.3161L31.7635 41.7861C31.9235 41.6861 32.2035 41.5061 32.6035 41.2461C34.7343 39.8957 36.1577 38.8683 36.8737 38.1773C36.9356 38.125 36.9967 38.068 37.0566 38.006L37.1166 37.946C38.9966 35.846 40.0866 33.396 40.3766 30.596C40.4266 30.136 40.4466 29.666 40.4466 29.196C40.4466 28.886 40.4366 28.586 40.4066 28.286C40.1866 24.896 38.8466 22.036 36.4166 19.726C35.7866 19.126 35.0866 18.576 34.3266 18.126C34.2966 18.106 34.2666 18.086 34.2366 18.076L33.0566 17.446L27.0766 14.266C27.0366 14.246 26.9866 14.226 26.9466 14.206C26.5066 14.016 26.0366 13.916 25.5566 13.916C24.6546 13.916 23.8329 14.2575 23.2124 14.8236L23.214 10.8886C23.214 8.49861 22.254 6.61861 20.324 5.25861C20.314 5.24861 20.294 5.23861 20.284 5.22861ZM23.2099 21.127L23.2054 32.3023L28.57 29.0191L28.1666 28.876C28.0866 28.856 27.9966 28.826 27.9166 28.786L27.7866 28.736C26.7066 28.296 25.8166 27.486 25.2566 26.466C25.2066 26.386 25.1666 26.306 25.1366 26.216L23.9666 23.126L23.2099 21.127ZM22.3505 37.5458C22.4128 37.5027 22.4722 37.4563 22.5285 37.407L33.3935 30.7661L33.3979 30.7617C33.6072 30.8782 33.8011 31.0229 33.9666 31.196C34.0766 31.306 34.1666 31.406 34.2366 31.506C34.2466 31.516 34.2566 31.526 34.2666 31.546L34.2866 31.566C34.3237 31.6216 34.3779 31.6944 34.4414 31.7923L34.4435 31.7961C34.7135 32.2761 34.8435 32.7761 34.8435 33.3161C34.8435 33.4379 34.8384 33.5648 34.8244 33.6969L34.8166 33.736L34.8166 33.746L34.7966 33.856L34.7966 33.876L34.7961 33.8804C34.7954 33.8832 34.7946 33.886 34.7939 33.8889C34.7909 33.8985 34.7866 33.9094 34.7866 33.916C34.7822 33.9426 34.7757 33.9693 34.7691 33.9951C34.7668 34.0039 34.7645 34.0126 34.7623 34.0212C34.7563 34.044 34.7506 34.0658 34.7466 34.086L34.7466 34.0873C34.7351 34.1397 34.7272 34.1756 34.7204 34.1979C34.7193 34.2004 34.7181 34.2031 34.7166 34.206C34.7114 34.2112 34.7034 34.2302 34.6955 34.2558L34.6935 34.2561L34.6933 34.2631C34.6885 34.2796 34.6838 34.2983 34.68 34.3176C34.6779 34.3234 34.6757 34.3295 34.6735 34.3361L34.6735 34.3161C34.6735 34.3401 34.6671 34.3578 34.6594 34.3793C34.6522 34.3949 34.6444 34.4104 34.6366 34.426C34.6338 34.4317 34.6317 34.4373 34.6301 34.443L34.5935 34.5161L34.5935 34.5303C34.5918 34.5343 34.59 34.5385 34.5882 34.5428C34.5865 34.5456 34.5855 34.5483 34.5848 34.551C34.5789 34.5652 34.5728 34.5806 34.5666 34.596C34.5652 34.6003 34.5635 34.6048 34.5617 34.6095C34.531 34.6702 34.4866 34.7557 34.4235 34.8661C34.3235 35.0261 34.2235 35.1661 34.1135 35.2861C33.7835 35.6761 32.5535 36.5361 30.4535 37.8761C30.0335 38.1461 29.7535 38.3161 29.6235 38.4061L27.2035 39.9361C25.5135 41.0161 23.9935 41.5761 22.6635 41.6061L22.6035 41.6061C22.5735 41.6061 22.5435 41.6161 22.5035 41.6161L22.1535 41.6161C22.1335 41.6061 22.1235 41.6061 22.1235 41.6061L22.0835 41.6061C20.2435 41.5361 18.6535 40.9761 17.3335 39.9461C18.2335 39.8461 19.0535 39.5661 19.8035 39.1161L19.8135 39.1061C19.8235 39.1061 19.8335 39.0961 19.8435 39.0861L19.9119 39.0426L20.044 38.9686L21.024 38.3686L22.1191 37.692L22.2435 37.6161C22.2805 37.5939 22.3162 37.5703 22.3505 37.5458ZM19.204 34.7816L19.214 10.8886C19.214 9.87861 18.824 9.09861 18.034 8.53861L17.974 8.48861L13.874 5.72861L13.874 33.0986C13.874 33.2286 13.884 33.3586 13.894 33.4886C13.904 33.5786 13.904 33.6286 13.914 33.6486C14.184 35.1986 15.054 35.9786 16.544 35.9786C16.974 35.9786 17.384 35.8786 17.764 35.6686L17.984 35.5386L18.074 35.4833L18.9335 34.9461L19.204 34.7816ZM33.6566 22.626C35.1957 24.0851 36.0955 25.8639 36.3661 27.9623C35.9029 27.5729 35.3879 27.2508 34.8335 26.9961C34.8235 26.9961 34.8135 26.9961 34.8135 26.9861L34.7935 26.9861C34.4652 26.8369 34.1469 26.7273 33.8581 26.6474L33.8566 26.646L32.6366 26.226L29.5966 25.136C29.4966 25.096 29.4066 25.066 29.3066 25.036L29.2666 25.016C29.0866 24.946 28.9266 24.806 28.8166 24.636L27.7066 21.706L26.4866 18.486L31.1766 20.966L32.3066 21.576C32.7866 21.876 33.2366 22.226 33.6566 22.626Z" fill-rule="evenodd"  fill="#000000" >
</path>
</svg>
