<svg xmlns="http://www.w3.org/2000/svg" xmlns:xlink="http://www.w3.org/1999/xlink" width="48" height="48" viewBox="0 0 48 48" fill="none">
<path d="M37.6714 21.03C37.6814 20.45 37.6914 20.03 37.6914 19.79C37.6914 17.66 37.4414 15.64 36.9414 13.74C36.4114 11.69 35.6114 9.9 34.5514 8.37C33.3814 6.68 31.9514 5.39 30.2614 4.48C28.4214 3.49 26.3414 3 24.0014 3C21.6714 3 19.5814 3.49 17.7514 4.48C16.0514 5.39 14.6214 6.69 13.4614 8.37C12.4014 9.9 11.6114 11.69 11.0714 13.74C10.5714 15.64 10.3214 17.66 10.3214 19.79C10.3214 20.03 10.3314 20.45 10.3514 21.03L8.85144 24.82L8.83144 24.82L8.59144 25.47C8.00144 27.04 7.54144 28.34 7.22144 29.39C6.43144 31.94 6.03144 34.06 6.00144 35.74C5.97144 37.58 6.41144 38.56 7.33144 38.66C7.68144 38.71 8.04144 38.6 8.42144 38.35C8.63144 38.21 8.85144 38.01 9.10144 37.75C9.46144 37.37 9.89144 36.85 10.3614 36.19C10.3714 36.18 10.3714 36.17 10.3814 36.17C10.5514 36.78 10.7814 37.39 11.0614 38C11.6014 39.18 12.3114 40.25 13.1814 41.2L12.9714 41.29C12.3014 41.59 11.7414 41.9 11.3114 42.23C10.7914 42.62 10.4714 43.07 10.3614 43.59C10.3114 43.83 10.3014 44.06 10.3414 44.29C10.3714 44.49 10.4414 44.67 10.5314 44.84C10.7514 45.21 11.1514 45.47 11.7414 45.63C12.1014 45.72 12.5614 45.8 13.1414 45.86C14.1014 45.95 15.3614 46 16.9114 46C18.2214 46 19.6014 45.96 21.0314 45.89C22.2714 45.83 23.2614 45.76 24.0014 45.69C24.7414 45.76 25.7414 45.83 26.9814 45.89C28.4214 45.96 29.7914 46 31.1014 46C32.6614 46 33.9214 45.95 34.8814 45.86C35.4514 45.8 35.9214 45.72 36.2714 45.63C36.8714 45.47 37.2714 45.21 37.4814 44.86C37.5814 44.68 37.6414 44.49 37.6814 44.29C37.7214 44.06 37.7114 43.83 37.6614 43.59C37.5514 43.07 37.2214 42.61 36.6914 42.22C36.2614 41.9 35.7114 41.59 35.0414 41.29L34.8314 41.2C35.7014 40.25 36.4014 39.18 36.9514 37.99C37.2314 37.39 37.4614 36.78 37.6414 36.17L37.6514 36.18C38.1214 36.84 38.5414 37.37 38.9114 37.75C39.1614 38 39.3814 38.21 39.6014 38.35C39.9714 38.6 40.3314 38.71 40.6914 38.66C41.6014 38.55 42.0414 37.58 42.0014 35.74C41.9814 34.06 41.5714 31.94 40.7914 29.4C40.5114 28.47 40.0514 27.16 39.4214 25.47L39.3414 25.27L39.3314 25.25L37.6714 21.03Z" fill-rule="evenodd"  fill="#000000" >
</path>
</svg>
