<svg xmlns="http://www.w3.org/2000/svg" xmlns:xlink="http://www.w3.org/1999/xlink" width="48" height="48" viewBox="0 0 48 48" fill="none">
<path d="M7.49 29.55C7.76 29.74 7.94 30.06 7.94 30.42C7.94 30.54 7.92 30.65 7.88 30.76L7.17 33.47C7.13 33.59 7.08 33.73 7.08 33.86C7.08 34.15 7.32 34.39 7.61 34.39C7.73 34.39 7.82 34.35 7.92 34.29L11.4 32.26C11.66 32.11 11.94 32.01 12.24 32.01C12.41 32.01 12.56 32.04 12.71 32.08C14.68 32.65 16.73 32.9 18.78 32.8C23.5 32.5002 26 29.5499 25.5 24.5C32.5 22.0001 34 22.5002 33.4 17.31C32.2 10.9 25.84 6 17.9 6C9.12 6 2 12 2 19.41C2 23.45 4.14 27.09 7.49 29.55ZM13.93 13.77C13.58 13.42 13.1 13.22 12.6 13.22C11.56 13.22 10.72 14.07 10.72 15.12C10.72 16.17 11.56 17.02 12.6 17.02C13.64 17.02 14.48 16.17 14.48 15.12C14.48 14.61 14.29 14.13 13.93 13.77ZM25.08 15.12C25.09 14.61 24.89 14.13 24.53 13.77C24.18 13.42 23.7 13.22 23.2 13.22C22.71 13.22 22.23 13.42 21.87 13.77C21.52 14.13 21.32 14.61 21.32 15.12C21.32 15.62 21.52 16.11 21.87 16.46C22.23 16.82 22.71 17.02 23.2 17.02C23.7 17.02 24.18 16.82 24.53 16.46C24.89 16.11 25.08 15.62 25.08 15.12Z" fill-rule="evenodd"  fill="#2CB197" >
</path>
<path d="M32.853 15.3372C33.09 15.9754 33.2738 16.6343 33.4003 17.31C33.9067 21.6903 32.9173 22.0176 28.3883 23.5159C27.5509 23.7929 26.5926 24.1099 25.5003 24.5C26.0003 29.5499 23.5003 32.5002 18.7803 32.8C18.1518 32.8307 17.5232 32.8284 16.8969 32.7941C16.6284 31.7486 16.4941 30.6528 16.4941 29.5069C16.4941 25.4915 18.1432 22.0937 21.4414 19.3137C24.5867 16.6625 28.3543 15.3369 32.7441 15.3369C32.7805 15.3369 32.8168 15.337 32.853 15.3372Z" fill-rule="evenodd"  fill="#51C5AA" >
</path>
<path d="M41.4241 37.9569C44.218 35.9083 46.0041 32.8743 46.0041 29.5069C46.0041 23.3353 40.0644 18.3369 32.7441 18.3369C25.426 18.3369 19.4941 23.3353 19.4941 29.5069C19.4941 35.6793 25.4253 40.6869 32.7441 40.6869C34.2572 40.6869 35.7206 40.4706 37.0741 40.0769C37.1977 40.039 37.3285 40.0169 37.4641 40.0169C37.7188 40.0169 37.9454 40.0897 38.1641 40.2169L41.0641 41.9169C41.1457 41.9623 41.2282 41.9969 41.3241 41.9969C41.5682 41.9969 41.7641 41.8036 41.7641 41.5569C41.7641 41.4449 41.7211 41.3329 41.6941 41.2269L41.0941 38.9669C41.066 38.8746 41.0541 38.7835 41.0541 38.6869C41.0541 38.3863 41.1994 38.1189 41.4241 37.9569ZM35.5133 25.8848C35.5133 25.9021 35.5136 25.9195 35.5141 25.9369C35.5141 26.8605 36.2503 27.6069 37.1641 27.6069C38.0783 27.6069 38.8241 26.861 38.8241 25.9369C38.8246 25.92 38.8248 25.9031 38.8248 25.8863C38.8253 25.2951 38.5098 24.7465 38.0041 24.4445C37.4847 24.1344 36.8435 24.1344 36.3241 24.4445C35.8188 24.7462 35.5129 25.2942 35.5133 25.8848ZM26.6741 25.9369L26.6741 25.9345C26.6741 25.0107 27.4101 24.2545 28.3241 24.2545C29.2382 24.2545 29.9841 25.0107 29.9841 25.9345L29.9841 25.9369C29.9841 26.8608 29.2382 27.6069 28.3241 27.6069C27.4101 27.6069 26.6741 26.8608 26.6741 25.9369Z" fill-rule="evenodd"  fill="#0D9E86" >
</path>
</svg>
