<svg xmlns="http://www.w3.org/2000/svg" xmlns:xlink="http://www.w3.org/1999/xlink" width="48" height="48" viewBox="0 0 48 48" fill="none">
<path d="M36.5844 23.1358C29.8269 17.8477 22.2083 10.843 13.8559 3.33245C13.1972 2.7405 12.6139 2.97334 12.32 3.75932C10.4388 8.79813 12.2629 13.272 15.2101 15.8515C18.1703 18.441 22.571 20.8252 25.2672 22.09C25.3723 22.1394 25.2801 22.2959 25.1737 22.2486C20.2214 20.0373 16.7778 18.4403 12.1058 14.7887C11.6029 14.3954 11.0929 14.5479 11.0326 15.3155C10.6504 20.1314 13.6904 23.9139 17.0847 25.1932C19.1852 25.9844 21.4822 26.4225 23.6132 26.6829C23.7241 26.6967 23.6995 26.8631 23.5878 26.8638C20.8411 26.8724 17.5234 26.2061 14.6527 25.0873C14.0466 24.8512 13.837 25.3418 13.9305 25.7299C14.4204 27.7649 16.9037 30.8759 20.8567 31.5297C21.5958 31.652 22.3835 31.6678 23.085 31.6468C23.2524 31.6415 23.2926 31.7349 23.2387 31.8651C23.2387 31.8651 20.5537 36.5284 20.4362 36.727C20.3441 36.8822 20.4005 37.0072 20.5913 37.0072C20.7821 37.0072 23.9713 37.0072 24.1342 37.0072C24.2977 37.0072 24.399 37.1144 24.3152 37.2552C24.2309 37.3959 19.5836 45.2077 19.3636 45.5813C19.1722 45.9049 19.398 46.1542 19.7575 45.8871C20.1163 45.6207 34.9693 34.5993 35.3937 34.2836C35.5883 34.1389 35.5416 33.9435 35.2691 33.9435L32.0908 33.9435C31.8838 33.9435 31.8378 33.8028 31.9792 33.6594C32.1213 33.516 35.5857 30.0156 36.816 28.7061C38.0995 27.3393 38.7542 24.8341 36.5844 23.1358Z"   fill="#000000" >
</path>
</svg>
