<svg xmlns="http://www.w3.org/2000/svg" xmlns:xlink="http://www.w3.org/1999/xlink" width="48" height="48" viewBox="0 0 48 48" fill="none">
<path d="M25.2065 25.0085C21.257 17.9361 15.7736 11.6212 9.06873 6.93694C8.79317 6.75323 8.93289 6.29688 9.30025 6.29688L28.4545 6.29688C29.1893 6.29688 29.8746 6.61731 30.3338 7.16845C32.6301 10.0157 34.3724 13.4155 35.2909 17.0894C32.7682 17.7131 26.7222 23.4928 25.2065 25.0085Z"   fill="#6BA6FF" >
</path>
<path d="M46.5903 17.8679C44.5697 16.9035 42.3258 16.3086 39.9377 16.3086C30.1147 16.3086 25.9475 25.5048 19.3604 29.0281C35.0692 37.0756 38.1058 34.2269 43.6079 22.2326C44.2967 20.5793 45.3503 19.1078 46.5903 17.8679Z"   fill="#0732A6" >
</path>
<path d="M17.5658 41.7026C29.3704 41.7026 38.2601 33.8074 41.037 27.3284C33.7634 41.8757 7.75664 22.2883 2.59921 16.8151C2.36959 16.5855 2 16.7183 2 17.0398L2 33.9401L2 35.3224C2 36.1031 2.41248 36.8838 3.05542 37.2971C7.18865 40.0984 12.1926 41.7026 17.5658 41.7026Z"   fill="#1764FF" >
</path>
</svg>
