<svg xmlns="http://www.w3.org/2000/svg" xmlns:xlink="http://www.w3.org/1999/xlink" width="48" height="48" viewBox="0 0 48 48" fill="none">
<path d="M11.78 5.71269C16.01 2.88269 21.09 1.60269 26.15 2.11269L26.16 2.11269C30.59 2.54269 34.79 4.32269 38.2 7.19269L38.23 7.22269C39.8 8.60269 39.85 11.0227 38.37 12.4527L34.7 16.1227C33.49 17.2827 31.6 17.3427 30.33 16.2527C28.81 15.0127 26.95 14.2427 24.99 14.0527C22.68 13.8227 20.37 14.4027 18.44 15.6827C17.1694 16.5364 16.1178 17.6615 15.3576 18.9684C15.3518 18.9789 15.3458 18.9894 15.3398 18.9999C15.334 19.01 15.3281 19.02 15.3221 19.03C14.95 19.6803 14.6497 20.3748 14.43 21.1027C13.76 23.3127 13.87 25.6927 14.76 27.8227C15.65 29.9627 17.24 31.7227 19.28 32.8127C21.32 33.9127 23.68 34.2627 25.95 33.8127C28.22 33.3627 30.26 32.1227 31.74 30.3427C31.83 30.2327 31.92 30.1127 32 30.0027L26 30.0027C23.79 30.0027 22 28.2127 22 26.0027L22 22.0027C22 19.7927 23.79 18.0027 26 18.0027L42.44 18.0027C44.1 17.9727 45.52 19.1727 45.77 20.8227C45.92 21.8627 46 22.9227 46 24.0027C46 25.4827 45.85 26.9427 45.56 28.4027C44.84 31.9127 43.28 35.1927 41 37.9627C37.77 41.8927 33.28 44.5827 28.29 45.5827C23.3 46.5727 18.12 45.8027 13.63 43.4027C9.14 41.0027 5.62 37.1227 3.67 32.4127C1.72 27.7127 1.47 22.4827 2.95 17.6127C4.42 12.7427 7.55 8.53269 11.78 5.71269ZM12.9962 15.3374C13.8988 14.1873 14.9839 13.1767 16.22 12.3527C18.92 10.5627 22.15 9.75269 25.37 10.0727C27.92 10.3227 30.35 11.2627 32.39 12.7827L35.24 9.93269C32.52 7.77269 29.23 6.42269 25.77 6.09269L25.76 6.09269C21.62 5.67269 17.46 6.72269 14 9.03269C12.2529 10.1991 10.7352 11.6537 9.50498 13.3217L12.9962 15.3374ZM7.50347 16.7848L11.0027 18.8052C10.8562 19.1743 10.725 19.5504 10.61 19.9327C9.66 23.0327 9.82 26.3627 11.06 29.3627C11.5126 30.4453 12.0936 31.4597 12.7865 32.3855L9.93637 35.2356C8.88766 33.922 8.02078 32.4585 7.37 30.8827C5.77 27.0427 5.57 22.7527 6.77 18.7727C6.97607 18.0932 7.2213 17.4296 7.50347 16.7848ZM12.7642 38.0646L15.6162 35.2126C16.1782 35.6318 16.774 36.01 17.4 36.3427C20.25 37.8727 23.55 38.3627 26.73 37.7327C29.91 37.1027 32.77 35.3827 34.82 32.8827C34.8811 32.8092 34.9414 32.7352 35.0009 32.6605L38.4956 34.6782C38.3104 34.9309 38.1185 35.1792 37.92 35.4227C35.27 38.6327 31.59 40.8427 27.51 41.6627C23.43 42.4727 19.19 41.8427 15.51 39.8727C14.536 39.3525 13.6176 38.7464 12.7642 38.0646ZM40.4925 31.2124C40.9983 30.0569 41.3841 28.8477 41.64 27.6027C41.88 26.4127 42 25.2127 42 24.0027C42 23.3227 41.96 22.6627 41.89 22.0027L26 22.0027L26 26.0027L35.32 26.0027C36.7 26.0027 37.67 27.3627 37.21 28.6727C37.1462 28.8502 37.079 29.0263 37.0085 29.2009L40.4925 31.2124Z" fill-rule="evenodd"  fill="#000000" >
</path>
</svg>
