<svg xmlns="http://www.w3.org/2000/svg" xmlns:xlink="http://www.w3.org/1999/xlink" width="48" height="48" viewBox="0 0 48 48" fill="none">
<path d="M24 30C27.3137 30 30 27.3137 30 24C30 20.6863 27.3137 18 24 18C20.6863 18 18 20.6863 18 24C18 27.3137 20.6863 30 24 30ZM24 22C25.1046 22 26 22.8954 26 24C26 25.1046 25.1046 26 24 26C22.8954 26 22 25.1046 22 24C22 22.8954 22.8954 22 24 22Z" fill-rule="evenodd"  fill="#424242" >
</path>
<path d="M16.9278 16.93L16.9289 16.9289C17.2909 16.5669 17.5147 16.0669 17.5147 15.5146C17.5147 14.4101 16.6193 13.5146 15.5147 13.5146C14.9624 13.5146 14.4624 13.7385 14.1005 14.1004C11.3668 16.8341 10 20.1339 10 23.9999C10 27.8653 11.3664 31.1647 14.0992 33.8981L14.1005 33.8994C14.4624 34.2613 14.9624 34.4852 15.5147 34.4852C16.6193 34.4852 17.5147 33.5897 17.5147 32.4852C17.5147 31.9329 17.2909 31.4329 16.9289 31.0709C14.9763 29.1183 14 26.7613 14 23.9999C14 21.2391 14.9759 18.8824 16.9278 16.93Z" fill-rule="evenodd"  fill="#787878" >
</path>
<path d="M32.4844 13.5146C33.0367 13.5146 33.5367 13.7385 33.8986 14.1004C36.6323 16.8341 37.9991 20.1339 37.9991 23.9999C37.9991 27.8653 36.6327 31.1646 33.8999 33.898L33.8986 33.8994C33.5367 34.2613 33.0367 34.4852 32.4844 34.4852C31.3798 34.4852 30.4844 33.5897 30.4844 32.4852C30.4844 31.9329 30.7082 31.4329 31.0702 31.0709C33.0228 29.1183 33.9991 26.7613 33.9991 23.9999C33.9991 21.2385 33.0228 18.8815 31.0702 16.9289C30.7082 16.5669 30.4844 16.0669 30.4844 15.5146C30.4844 14.4101 31.3798 13.5146 32.4844 13.5146Z" fill-rule="evenodd"  fill="#787878" >
</path>
<path d="M36.7284 11.2719C36.3664 10.9099 36.1426 10.41 36.1426 9.85767C36.1426 8.7531 37.038 7.85767 38.1426 7.85767C38.6949 7.85767 39.1949 8.08153 39.5568 8.44346C43.8526 12.7392 46.0004 17.9247 46.0004 23.9998C46.0004 30.0749 43.8526 35.2604 39.5568 39.5562C39.1949 39.9181 38.6949 40.142 38.1426 40.142C37.038 40.142 36.1426 39.2465 36.1426 38.142C36.1426 37.5897 36.3664 37.0897 36.7284 36.7278L36.7299 36.7263C40.2436 33.2118 42.0004 28.9696 42.0004 23.9998C42.0004 19.0292 40.2431 14.7866 36.7284 11.2719Z" fill-rule="evenodd"  fill="#424242" >
</path>
<path d="M8.44365 8.44346C8.80558 8.08153 9.30558 7.85767 9.85786 7.85767C10.9624 7.85767 11.8579 8.7531 11.8579 9.85767C11.8579 10.41 11.634 10.9099 11.2721 11.2719C7.75736 14.7866 6 19.0292 6 23.9998C6 28.9698 7.75697 33.212 11.2709 36.7266L11.2721 36.7278C11.634 37.0897 11.8579 37.5897 11.8579 38.142C11.8579 39.2465 10.9624 40.142 9.85786 40.142C9.30558 40.142 8.80558 39.9181 8.44365 39.5562L8.44236 39.5549C4.14745 35.2593 2 30.0743 2 23.9998C2 17.9247 4.14788 12.7392 8.44365 8.44346Z" fill-rule="evenodd"  fill="#424242" >
</path>
</svg>
