<svg xmlns="http://www.w3.org/2000/svg" xmlns:xlink="http://www.w3.org/1999/xlink" width="48" height="48" viewBox="0 0 48 48" fill="none">
<path d="M4 36L4 12C4 7.58172 7.58172 4 12 4L36 4C40.4183 4 44 7.58172 44 12L44 36C44 40.4183 40.4183 44 36 44L12 44C7.58172 44 4 40.4183 4 36ZM40 13.9972L40 12C40 9.79086 38.2091 8 36 8L12 8C9.79086 8 8 9.79086 8 12L8 13.9517L40 13.9972ZM8 17.9517L40 17.9972L40 36C40 38.2091 38.2091 40 36 40L12 40C9.79086 40 8 38.2091 8 36L8 17.9517ZM18.8523 27.251C18.8523 27.251 18.6103 27.548 18.2143 27.922L11.6143 34.038L11.6143 36.942L23.2523 36.942L23.2523 33.818L16.4543 33.818L20.2163 30.342C20.2163 30.342 21.0743 29.528 21.6463 28.868C21.6463 28.868 22.2183 28.208 22.5593 27.636C22.5593 27.636 22.9003 27.064 23.0323 26.547C23.0323 26.547 23.1643 26.03 23.1643 25.524C23.1643 25.524 23.1643 24.644 22.7903 23.753C22.7903 23.753 22.4163 22.862 21.7013 22.147C21.7013 22.147 20.9863 21.432 19.9633 20.981C19.9633 20.981 18.9403 20.53 17.6203 20.53C17.6203 20.53 14.8263 20.53 13.2203 21.938C13.2203 21.938 11.6143 23.346 11.6143 26.118L15.3763 26.118C15.3763 26.118 15.3763 25.062 16.0033 24.545C16.0033 24.545 16.6303 24.028 17.5543 24.028C17.5543 24.028 18.3463 24.028 18.8853 24.49C18.8853 24.49 19.4243 24.952 19.4243 25.612C19.4243 25.612 19.4243 25.898 19.3803 26.151C19.3803 26.151 19.3363 26.404 19.2153 26.679C19.2153 26.679 19.0943 26.954 18.8523 27.251ZM32.4703 27.251C32.4703 27.251 32.2283 27.548 31.8323 27.922L25.2323 34.038L25.2323 36.942L36.8703 36.942L36.8703 33.818L30.0723 33.818L33.8343 30.342C33.8343 30.342 34.6923 29.528 35.2643 28.868C35.2643 28.868 35.8363 28.208 36.1773 27.636C36.1773 27.636 36.5183 27.064 36.6503 26.547C36.6503 26.547 36.7823 26.03 36.7823 25.524C36.7823 25.524 36.7823 24.644 36.4083 23.753C36.4083 23.753 36.0343 22.862 35.3193 22.147C35.3193 22.147 34.6043 21.432 33.5813 20.981C33.5813 20.981 32.5583 20.53 31.2383 20.53C31.2383 20.53 28.4443 20.53 26.8383 21.938C26.8383 21.938 25.2323 23.346 25.2323 26.118L28.9943 26.118C28.9943 26.118 28.9943 25.062 29.6213 24.545C29.6213 24.545 30.2483 24.028 31.1723 24.028C31.1723 24.028 31.9643 24.028 32.5033 24.49C32.5033 24.49 33.0423 24.952 33.0423 25.612C33.0423 25.612 33.0423 25.898 32.9983 26.151C32.9983 26.151 32.9543 26.404 32.8333 26.679C32.8333 26.679 32.7123 26.954 32.4703 27.251Z" fill-rule="evenodd"  fill="#000000" >
</path>
</svg>
