<svg xmlns="http://www.w3.org/2000/svg" xmlns:xlink="http://www.w3.org/1999/xlink" width="48" height="48" viewBox="0 0 48 48" fill="none">
<path d="M4 36L4 12C4 7.58172 7.58172 4 12 4L36 4C40.4183 4 44 7.58172 44 12L44 36C44 40.4183 40.4183 44 36 44L12 44C7.58172 44 4 40.4183 4 36ZM40 13.9972L40 12C40 9.79086 38.2091 8 36 8L12 8C9.79086 8 8 9.79086 8 12L8 13.9517L40 13.9972ZM8 17.9517L40 17.9972L40 36C40 38.2091 38.2091 40 36 40L12 40C9.79086 40 8 38.2091 8 36L8 17.9517ZM24.1319 30.859C24.1319 30.859 24.4069 30.848 24.5169 30.804L20.2049 36.942L24.2089 36.942L28.7409 30.342C28.7409 30.342 29.4449 29.308 29.9179 28.164C29.9179 28.164 30.3909 27.02 30.3909 25.81C30.3909 25.81 30.3909 24.49 29.8849 23.489C29.8849 23.489 29.3789 22.488 28.4989 21.817C28.4989 21.817 27.6189 21.146 26.4639 20.805C26.4639 20.805 25.3089 20.464 23.9889 20.464C23.9889 20.464 22.6689 20.464 21.5139 20.794C21.5139 20.794 20.3589 21.124 19.4899 21.795C19.4899 21.795 18.6209 22.466 18.1259 23.467C18.1259 23.467 17.6309 24.468 17.6309 25.81C17.6309 25.81 17.6309 26.756 18.0159 27.669C18.0159 27.669 18.4009 28.582 19.1709 29.286C19.1709 29.286 19.9409 29.99 21.0739 30.43C21.0739 30.43 22.2069 30.87 23.6809 30.87C23.6809 30.87 23.8569 30.87 24.1319 30.859ZM26.8819 24.589C26.8819 24.589 27.1129 25.106 27.1129 25.81C27.1129 25.81 27.1129 26.976 26.3649 27.603C26.3649 27.603 25.6169 28.23 24.0109 28.23C24.0109 28.23 22.6249 28.23 21.7999 27.658C21.7999 27.658 20.9749 27.086 20.9749 25.81C20.9749 25.81 20.9749 24.38 21.8109 23.742C21.8109 23.742 22.6469 23.104 24.0109 23.104C24.0109 23.104 24.6709 23.104 25.2429 23.258C25.2429 23.258 25.8149 23.412 26.2329 23.742C26.2329 23.742 26.6509 24.072 26.8819 24.589Z" fill-rule="evenodd"  fill="#000000" >
</path>
</svg>
