<svg xmlns="http://www.w3.org/2000/svg" xmlns:xlink="http://www.w3.org/1999/xlink" width="48" height="48" viewBox="0 0 48 48" fill="none">
<path d="M4 36L4 12C4 7.58172 7.58172 4 12 4L36 4C40.4183 4 44 7.58172 44 12L44 36C44 40.4183 40.4183 44 36 44L12 44C7.58172 44 4 40.4183 4 36ZM40 13.9972L40 12C40 9.79086 38.2091 8 36 8L12 8C9.79086 8 8 9.79086 8 12L8 13.9517L40 13.9972ZM8 17.9517L40 17.9972L40 36C40 38.2091 38.2091 40 36 40L12 40C9.79086 40 8 38.2091 8 36L8 17.9517ZM29.9409 30.859C29.9409 30.859 30.2159 30.848 30.3259 30.804L26.0139 36.942L30.0179 36.942L34.5499 30.342C34.5499 30.342 35.2539 29.308 35.7269 28.164C35.7269 28.164 36.1999 27.02 36.1999 25.81C36.1999 25.81 36.1999 24.49 35.6939 23.489C35.6939 23.489 35.1879 22.488 34.3079 21.817C34.3079 21.817 33.4279 21.146 32.2729 20.805C32.2729 20.805 31.1179 20.464 29.7979 20.464C29.7979 20.464 28.4779 20.464 27.3229 20.794C27.3229 20.794 26.1679 21.124 25.2989 21.795C25.2989 21.795 24.4299 22.466 23.9349 23.467C23.9349 23.467 23.4399 24.468 23.4399 25.81C23.4399 25.81 23.4399 26.756 23.8249 27.669C23.8249 27.669 24.2099 28.582 24.9799 29.286C24.9799 29.286 25.7499 29.99 26.8829 30.43C26.8829 30.43 28.0159 30.87 29.4899 30.87C29.4899 30.87 29.6659 30.87 29.9409 30.859ZM16.3119 24.71L16.3119 36.942L19.5679 36.942L19.5679 20.992L16.8179 20.992L12.0439 23.434L12.0439 26.756L16.3119 24.71ZM32.6909 24.589C32.6909 24.589 32.9219 25.106 32.9219 25.81C32.9219 25.81 32.9219 26.976 32.1739 27.603C32.1739 27.603 31.4259 28.23 29.8199 28.23C29.8199 28.23 28.4339 28.23 27.6089 27.658C27.6089 27.658 26.7839 27.086 26.7839 25.81C26.7839 25.81 26.7839 24.38 27.6199 23.742C27.6199 23.742 28.4559 23.104 29.8199 23.104C29.8199 23.104 30.4799 23.104 31.0519 23.258C31.0519 23.258 31.6239 23.412 32.0419 23.742C32.0419 23.742 32.4599 24.072 32.6909 24.589Z" fill-rule="evenodd"  fill="#000000" >
</path>
</svg>
