<svg xmlns="http://www.w3.org/2000/svg" xmlns:xlink="http://www.w3.org/1999/xlink" width="48" height="48" viewBox="0 0 48 48" fill="none">
<path d="M4 12L4 14L44 14L44 12C44 7.58172 40.4183 4 36 4L12 4C7.58172 4 4 7.58172 4 12ZM12 44C7.58172 44 4 40.4183 4 36L4 18L44 18L44 36C44 40.4183 40.4183 44 36 44L12 44ZM18.852 28.251Q18.61 28.548 18.214 28.922L11.614 35.038L11.614 37.942L23.252 37.942L23.252 34.818L16.454 34.818L20.216 31.342Q21.074 30.528 21.646 29.868Q22.218 29.208 22.559 28.636Q22.9 28.064 23.032 27.547Q23.164 27.03 23.164 26.524Q23.164 25.644 22.79 24.753Q22.416 23.862 21.701 23.147Q20.986 22.432 19.963 21.981Q18.94 21.53 17.62 21.53Q14.826 21.53 13.22 22.938Q11.614 24.346 11.614 27.118L15.376 27.118Q15.376 26.062 16.003 25.545Q16.63 25.028 17.554 25.028Q18.346 25.028 18.885 25.49Q19.424 25.952 19.424 26.612Q19.424 26.898 19.38 27.151Q19.336 27.404 19.215 27.679Q19.094 27.954 18.852 28.251ZM32.47 28.251Q32.228 28.548 31.832 28.922L25.232 35.038L25.232 37.942L36.87 37.942L36.87 34.818L30.072 34.818L33.834 31.342Q34.692 30.528 35.264 29.868Q35.836 29.208 36.177 28.636Q36.518 28.064 36.65 27.547Q36.782 27.03 36.782 26.524Q36.782 25.644 36.408 24.753Q36.034 23.862 35.319 23.147Q34.604 22.432 33.581 21.981Q32.558 21.53 31.238 21.53Q28.444 21.53 26.838 22.938Q25.232 24.346 25.232 27.118L28.994 27.118Q28.994 26.062 29.621 25.545Q30.248 25.028 31.172 25.028Q31.964 25.028 32.503 25.49Q33.042 25.952 33.042 26.612Q33.042 26.898 32.998 27.151Q32.954 27.404 32.833 27.679Q32.712 27.954 32.47 28.251Z" fill-rule="evenodd"  fill="#000000" >
</path>
</svg>
