<svg xmlns="http://www.w3.org/2000/svg" xmlns:xlink="http://www.w3.org/1999/xlink" width="48" height="48" viewBox="0 0 48 48" fill="none">
<path d="M4 36L4 12C4 7.58172 7.58172 4 12 4L36 4C40.4183 4 44 7.58172 44 12L44 36C44 40.4183 40.4183 44 36 44L12 44C7.58172 44 4 40.4183 4 36ZM40 13.9972L40 12C40 9.79086 38.2091 8 36 8L12 8C9.79086 8 8 9.79086 8 12L8 13.9517L40 13.9972ZM8 17.9517L40 17.9972L40 36C40 38.2091 38.2091 40 36 40L12 40C9.79086 40 8 38.2091 8 36L8 17.9517ZM18.8523 27.251C18.8523 27.251 18.6103 27.548 18.2143 27.922L11.6143 34.038L11.6143 36.942L23.2523 36.942L23.2523 33.818L16.4543 33.818L20.2163 30.342C20.2163 30.342 21.0743 29.528 21.6463 28.868C21.6463 28.868 22.2183 28.208 22.5593 27.636C22.5593 27.636 22.9003 27.064 23.0323 26.547C23.0323 26.547 23.1643 26.03 23.1643 25.524C23.1643 25.524 23.1643 24.644 22.7903 23.753C22.7903 23.753 22.4163 22.862 21.7013 22.147C21.7013 22.147 20.9863 21.432 19.9633 20.981C19.9633 20.981 18.9403 20.53 17.6203 20.53C17.6203 20.53 14.8263 20.53 13.2203 21.938C13.2203 21.938 11.6143 23.346 11.6143 26.118L15.3763 26.118C15.3763 26.118 15.3763 25.062 16.0033 24.545C16.0033 24.545 16.6303 24.028 17.5543 24.028C17.5543 24.028 18.3463 24.028 18.8853 24.49C18.8853 24.49 19.4243 24.952 19.4243 25.612C19.4243 25.612 19.4243 25.898 19.3803 26.151C19.3803 26.151 19.3363 26.404 19.2153 26.679C19.2153 26.679 19.0943 26.954 18.8523 27.251ZM36.1883 33.719C36.1883 33.719 36.5623 32.784 36.5623 31.75L36.5623 25.546C36.5623 25.546 36.5623 24.578 36.1663 23.676C36.1663 23.676 35.7703 22.774 35.0223 22.081C35.0223 22.081 34.2743 21.388 33.1963 20.97C33.1963 20.97 32.1183 20.552 30.7323 20.552C30.7323 20.552 29.3463 20.552 28.2903 20.981C28.2903 20.981 27.2343 21.41 26.5083 22.114C26.5083 22.114 25.7823 22.818 25.4083 23.709C25.4083 23.709 25.0343 24.6 25.0343 25.546L25.0343 31.75C25.0343 31.75 25.0343 32.806 25.3863 33.741C25.3863 33.741 25.7383 34.676 26.4423 35.391C26.4423 35.391 27.1463 36.106 28.2133 36.513C28.2133 36.513 29.2803 36.92 30.7323 36.92C30.7323 36.92 32.1623 36.92 33.2403 36.502C33.2403 36.502 34.3183 36.084 35.0663 35.369C35.0663 35.369 35.8143 34.654 36.1883 33.719ZM32.8663 23.852C32.8663 23.852 33.6803 24.556 33.6803 25.92L33.6803 31.728C33.6803 31.728 33.6803 32.872 32.8773 33.565C32.8773 33.565 32.0743 34.258 30.7323 34.258C30.7323 34.258 29.4123 34.258 28.6533 33.565C28.6533 33.565 27.8943 32.872 27.8943 31.728L27.8943 25.92C27.8943 25.92 27.8943 24.556 28.6643 23.852C28.6643 23.852 29.4343 23.148 30.7323 23.148C30.7323 23.148 32.0523 23.148 32.8663 23.852Z" fill-rule="evenodd"  fill="#000000" >
</path>
</svg>
