<svg xmlns="http://www.w3.org/2000/svg" xmlns:xlink="http://www.w3.org/1999/xlink" width="48" height="48" viewBox="0 0 48 48" fill="none">
<path d="M4 12L4 14L44 14L44 12C44 7.58172 40.4183 4 36 4L12 4C7.58172 4 4 7.58172 4 12ZM12 44C7.58172 44 4 40.4183 4 36L4 18L44 18L44 36C44 40.4183 40.4183 44 36 44L12 44ZM17.312 25.71L17.312 37.942L20.568 37.942L20.568 21.992L17.818 21.992L13.044 24.434L13.044 27.756L17.312 25.71ZM29.929 27.14C29.4523 27.2133 29.0307 27.3747 28.664 27.624L28.95 24.918L36.21 24.918L36.21 21.992L25.98 21.992L24.858 30.418L27.872 31.342C28.2533 30.8287 28.664 30.4693 29.104 30.264C29.544 30.0587 30.1013 29.956 30.776 29.956C31.2013 29.956 31.5973 30.0073 31.964 30.11C32.3307 30.2127 32.6497 30.3667 32.921 30.572C33.1923 30.7773 33.4087 31.034 33.57 31.342C33.7313 31.65 33.812 32.0093 33.812 32.42C33.812 32.8013 33.746 33.1607 33.614 33.498C33.482 33.8353 33.2913 34.1287 33.042 34.378C32.7927 34.6273 32.4773 34.8253 32.096 34.972C31.7147 35.1187 31.2747 35.192 30.776 35.192C30.38 35.192 30.017 35.1553 29.687 35.082C29.357 35.0087 29.0637 34.8803 28.807 34.697C28.5503 34.5137 28.334 34.2717 28.158 33.971C27.982 33.6703 27.8573 33.2927 27.784 32.838L24.462 33.344C24.5647 34.1067 24.792 34.7813 25.144 35.368C25.496 35.9547 25.947 36.4533 26.497 36.864C27.047 37.2747 27.6887 37.5863 28.422 37.799C29.1553 38.0117 29.9473 38.118 30.798 38.118C31.722 38.118 32.569 37.997 33.339 37.755C34.109 37.513 34.7727 37.1537 35.33 36.677C35.8873 36.2003 36.32 35.6063 36.628 34.895C36.936 34.1837 37.09 33.366 37.09 32.442C37.09 30.638 36.584 29.285 35.572 28.383C34.56 27.481 33.0787 27.03 31.128 27.03C30.8053 27.03 30.4057 27.0667 29.929 27.14Z" fill-rule="evenodd"  fill="#000000" >
</path>
</svg>
