<svg xmlns="http://www.w3.org/2000/svg" xmlns:xlink="http://www.w3.org/1999/xlink" width="48" height="48" viewBox="0 0 48 48" fill="none">
<path d="M4 36L4 12C4 7.58172 7.58172 4 12 4L36 4C40.4183 4 44 7.58172 44 12L44 36C44 40.4183 40.4183 44 36 44L12 44C7.58172 44 4 40.4183 4 36ZM40 13.9972L40 12C40 9.79086 38.2091 8 36 8L12 8C9.79086 8 8 9.79086 8 12L8 13.9517L40 13.9972ZM8 17.9517L40 17.9972L40 36C40 38.2091 38.2091 40 36 40L12 40C9.79086 40 8 38.2091 8 36L8 17.9517ZM16.3119 24.7099L16.3119 36.9419L19.5679 36.9419L19.5679 20.9919L16.8179 20.9919L12.0439 23.4339L12.0439 26.7559L16.3119 24.7099ZM24.5619 24.0939L31.7999 24.0939L25.5739 27.6139L26.9379 30.5179L27.9719 30.0559C27.9719 30.0559 28.4119 29.8799 28.9729 29.6489C28.9729 29.6489 29.5339 29.4179 30.0179 29.4179C30.0179 29.4179 31.4259 29.4179 31.9649 29.9569C31.9649 29.9569 32.5039 30.4959 32.5039 31.8159C32.5039 31.8159 32.5039 32.5419 32.3279 33.0369C32.3279 33.0369 32.1519 33.5319 31.8439 33.8179C31.8439 33.8179 31.5359 34.1039 31.1069 34.2249C31.1069 34.2249 30.6779 34.3459 30.1499 34.3459C30.1499 34.3459 28.9839 34.3459 28.3349 33.8399C28.3349 33.8399 27.6859 33.3339 27.6859 31.9919L23.9679 31.9919C23.9679 31.9919 23.9679 33.3559 24.3859 34.3349C24.3859 34.3349 24.8039 35.3139 25.5959 35.9299C25.5959 35.9299 26.3879 36.5459 27.5099 36.8319C27.5099 36.8319 28.6319 37.1179 30.0399 37.1179C30.0399 37.1179 31.3379 37.1179 32.4599 36.8099C32.4599 36.8099 33.5819 36.5019 34.4069 35.8639C34.4069 35.8639 35.2319 35.2259 35.7049 34.2579C35.7049 34.2579 36.1779 33.2899 36.1779 31.9479C36.1779 31.9479 36.1779 30.4739 35.7489 29.5059C35.7489 29.5059 35.3199 28.5379 34.6379 27.9659C34.6379 27.9659 33.9559 27.3939 33.1089 27.1629C33.1089 27.1629 32.2619 26.9319 31.4259 26.9319L31.4259 26.9099L35.7159 24.7319L35.7159 20.9919L24.5619 20.9919L24.5619 24.0939Z" fill-rule="evenodd"  fill="#000000" >
</path>
</svg>
