<svg xmlns="http://www.w3.org/2000/svg" xmlns:xlink="http://www.w3.org/1999/xlink" width="48" height="48" viewBox="0 0 48 48" fill="none">
<path d="M4 12L4 14L44 14L44 12C44 7.58172 40.4183 4 36 4L12 4C7.58172 4 4 7.58172 4 12ZM12 44C7.58172 44 4 40.4183 4 36L4 18L44 18L44 36C44 40.4183 40.4183 44 36 44L12 44ZM18.852 28.251C18.6907 28.449 18.478 28.6727 18.214 28.922L11.614 35.038L11.614 37.942L23.252 37.942L23.252 34.818L16.454 34.818L20.216 31.342C20.788 30.7993 21.2647 30.308 21.646 29.868C22.0273 29.428 22.3317 29.0173 22.559 28.636C22.7863 28.2547 22.944 27.8917 23.032 27.547C23.12 27.2023 23.164 26.8613 23.164 26.524C23.164 25.9373 23.0393 25.347 22.79 24.753C22.5407 24.159 22.1777 23.6237 21.701 23.147C21.2243 22.6703 20.645 22.2817 19.963 21.981C19.281 21.6803 18.5 21.53 17.62 21.53C15.7573 21.53 14.2907 21.9993 13.22 22.938C12.1493 23.8767 11.614 25.27 11.614 27.118L15.376 27.118C15.376 26.414 15.585 25.8897 16.003 25.545C16.421 25.2003 16.938 25.028 17.554 25.028C18.082 25.028 18.5257 25.182 18.885 25.49C19.2443 25.798 19.424 26.172 19.424 26.612C19.424 26.8027 19.4093 26.9823 19.38 27.151C19.3507 27.3197 19.2957 27.4957 19.215 27.679C19.1343 27.8623 19.0133 28.053 18.852 28.251ZM29.918 27.58L33.306 21.992L29.764 21.992L25.892 28.394C25.5107 29.01 25.1733 29.6847 24.88 30.418C24.5867 31.1513 24.44 31.8773 24.44 32.596C24.44 33.476 24.6013 34.257 24.924 34.939C25.2467 35.621 25.694 36.1967 26.266 36.666C26.838 37.1353 27.5127 37.4947 28.29 37.744C29.0673 37.9933 29.9033 38.118 30.798 38.118C31.722 38.118 32.5727 37.9933 33.35 37.744C34.1273 37.4947 34.7983 37.1353 35.363 36.666C35.9277 36.1967 36.3713 35.6137 36.694 34.917C37.0167 34.2203 37.178 33.4247 37.178 32.53C37.178 31.5327 36.991 30.704 36.617 30.044C36.243 29.384 35.7737 28.8597 35.209 28.471C34.6443 28.0823 34.0247 27.8073 33.35 27.646C32.6753 27.4847 32.0373 27.404 31.436 27.404C30.864 27.404 30.358 27.4627 29.918 27.58ZM28.807 34.301C28.3303 33.927 28.092 33.388 28.092 32.684C28.092 31.8333 28.334 31.2283 28.818 30.869C29.302 30.5097 29.9767 30.33 30.842 30.33C31.722 30.33 32.404 30.506 32.888 30.858C33.372 31.21 33.614 31.8113 33.614 32.662C33.614 33.454 33.3573 34.0187 32.844 34.356C32.3307 34.6933 31.6853 34.862 30.908 34.862C29.984 34.862 29.2837 34.675 28.807 34.301Z" fill-rule="evenodd"  fill="#000000" >
</path>
</svg>
