<svg xmlns="http://www.w3.org/2000/svg" xmlns:xlink="http://www.w3.org/1999/xlink" width="48" height="48" viewBox="0 0 48 48" fill="none">
<path d="M4 12L4 14L44 14L44 12C44 7.58172 40.4183 4 36 4L12 4C7.58172 4 4 7.58172 4 12ZM12 44C7.58172 44 4 40.4183 4 36L4 18L44 18L44 36C44 40.4183 40.4183 44 36 44L12 44ZM30.941 31.859C31.1243 31.8517 31.2527 31.8333 31.326 31.804L27.014 37.942L31.018 37.942L35.55 31.342C36.0193 30.6527 36.4117 29.9267 36.727 29.164C37.0423 28.4013 37.2 27.6167 37.2 26.81C37.2 25.93 37.0313 25.1563 36.694 24.489C36.3567 23.8217 35.8947 23.2643 35.308 22.817C34.7213 22.3697 34.043 22.0323 33.273 21.805C32.503 21.5777 31.678 21.464 30.798 21.464C29.918 21.464 29.093 21.574 28.323 21.794C27.553 22.014 26.8783 22.3477 26.299 22.795C25.7197 23.2423 25.265 23.7997 24.935 24.467C24.605 25.1343 24.44 25.9153 24.44 26.81C24.44 27.4407 24.5683 28.0603 24.825 28.669C25.0817 29.2777 25.4667 29.8167 25.98 30.286C26.4933 30.7553 27.1277 31.1367 27.883 31.43C28.6383 31.7233 29.5073 31.87 30.49 31.87C30.6073 31.87 30.7577 31.8663 30.941 31.859ZM17.312 25.71L17.312 37.942L20.568 37.942L20.568 21.992L17.818 21.992L13.044 24.434L13.044 27.756L17.312 25.71ZM33.691 25.589C33.845 25.9337 33.922 26.3407 33.922 26.81C33.922 27.5873 33.6727 28.185 33.174 28.603C32.6753 29.021 31.8907 29.23 30.82 29.23C29.896 29.23 29.159 29.0393 28.609 28.658C28.059 28.2767 27.784 27.6607 27.784 26.81C27.784 25.8567 28.0627 25.1673 28.62 24.742C29.1773 24.3167 29.9107 24.104 30.82 24.104C31.26 24.104 31.6707 24.1553 32.052 24.258C32.4333 24.3607 32.7633 24.522 33.042 24.742C33.3207 24.962 33.537 25.2443 33.691 25.589Z" fill-rule="evenodd"  fill="#000000" >
</path>
</svg>
