<svg xmlns="http://www.w3.org/2000/svg" xmlns:xlink="http://www.w3.org/1999/xlink" width="48" height="48" viewBox="0 0 48 48" fill="none">
<path d="M4 36L4 12C4 7.58172 7.58172 4 12 4L36 4C40.4183 4 44 7.58172 44 12L44 36C44 40.4183 40.4183 44 36 44L12 44C7.58172 44 4 40.4183 4 36ZM40 13.9972L40 12C40 9.79086 38.2091 8 36 8L12 8C9.79086 8 8 9.79086 8 12L8 13.9517L40 13.9972ZM8 17.9517L40 17.9972L40 36C40 38.2091 38.2091 40 36 40L12 40C9.79086 40 8 38.2091 8 36L8 17.9517ZM36.1879 33.719C36.1879 33.719 36.5619 32.784 36.5619 31.75L36.5619 25.546C36.5619 25.546 36.5619 24.578 36.1659 23.676C36.1659 23.676 35.7699 22.774 35.0219 22.081C35.0219 22.081 34.2739 21.388 33.1959 20.97C33.1959 20.97 32.1179 20.552 30.7319 20.552C30.7319 20.552 29.3459 20.552 28.2899 20.981C28.2899 20.981 27.2339 21.41 26.5079 22.114C26.5079 22.114 25.7819 22.818 25.4079 23.709C25.4079 23.709 25.0339 24.6 25.0339 25.546L25.0339 31.75C25.0339 31.75 25.0339 32.806 25.3859 33.741C25.3859 33.741 25.7379 34.676 26.4419 35.391C26.4419 35.391 27.1459 36.106 28.2129 36.513C28.2129 36.513 29.2799 36.92 30.7319 36.92C30.7319 36.92 32.1619 36.92 33.2399 36.502C33.2399 36.502 34.3179 36.084 35.0659 35.369C35.0659 35.369 35.8139 34.654 36.1879 33.719ZM17.3119 24.71L17.3119 36.942L20.5679 36.942L20.5679 20.992L17.8179 20.992L13.0439 23.434L13.0439 26.756L17.3119 24.71ZM32.8659 23.852C32.8659 23.852 33.6799 24.556 33.6799 25.92L33.6799 31.728C33.6799 31.728 33.6799 32.872 32.8769 33.565C32.8769 33.565 32.0739 34.258 30.7319 34.258C30.7319 34.258 29.4119 34.258 28.6529 33.565C28.6529 33.565 27.8939 32.872 27.8939 31.728L27.8939 25.92C27.8939 25.92 27.8939 24.556 28.6639 23.852C28.6639 23.852 29.4339 23.148 30.7319 23.148C30.7319 23.148 32.0519 23.148 32.8659 23.852Z" fill-rule="evenodd"  fill="#000000" >
</path>
</svg>
