<svg xmlns="http://www.w3.org/2000/svg" xmlns:xlink="http://www.w3.org/1999/xlink" width="48" height="48" viewBox="0 0 48 48" fill="none">
<path d="M4 36L4 12C4 7.58172 7.58172 4 12 4L36 4C40.4183 4 44 7.58172 44 12L44 36C44 40.4183 40.4183 44 36 44L12 44C7.58172 44 4 40.4183 4 36ZM40 13.9972L40 12C40 9.79086 38.2091 8 36 8L12 8C9.79086 8 8 9.79086 8 12L8 13.9517L40 13.9972ZM8 17.9517L40 17.9972L40 36C40 38.2091 38.2091 40 36 40L12 40C9.79086 40 8 38.2091 8 36L8 17.9517ZM22.6203 26.1399C22.6203 26.1399 21.9053 26.2499 21.3553 26.6239L21.6413 23.9179L28.9013 23.9179L28.9013 20.9919L18.6713 20.9919L17.5493 29.4179L20.5633 30.3419C20.5633 30.3419 21.1353 29.5719 21.7953 29.2639C21.7953 29.2639 22.4553 28.9559 23.4673 28.9559C23.4673 28.9559 24.1053 28.9559 24.6553 29.1099C24.6553 29.1099 25.2053 29.2639 25.6123 29.5719C25.6123 29.5719 26.0193 29.8799 26.2613 30.3419C26.2613 30.3419 26.5033 30.8039 26.5033 31.4199C26.5033 31.4199 26.5033 31.9919 26.3053 32.4979C26.3053 32.4979 26.1073 33.0039 25.7333 33.3779C25.7333 33.3779 25.3593 33.7519 24.7873 33.9719C24.7873 33.9719 24.2153 34.1919 23.4673 34.1919C23.4673 34.1919 22.8733 34.1919 22.3783 34.0819C22.3783 34.0819 21.8833 33.9719 21.4983 33.6969C21.4983 33.6969 21.1133 33.4219 20.8493 32.9709C20.8493 32.9709 20.5853 32.5199 20.4753 31.8379L17.1533 32.3439C17.1533 32.3439 17.3073 33.4879 17.8353 34.3679C17.8353 34.3679 18.3633 35.2479 19.1883 35.8639C19.1883 35.8639 20.0133 36.4799 21.1133 36.7989C21.1133 36.7989 22.2133 37.1179 23.4893 37.1179C23.4893 37.1179 24.8753 37.1179 26.0303 36.7549C26.0303 36.7549 27.1853 36.3919 28.0213 35.6769C28.0213 35.6769 28.8573 34.9619 29.3193 33.8949C29.3193 33.8949 29.7813 32.8279 29.7813 31.4419C29.7813 31.4419 29.7813 28.7359 28.2633 27.3829C28.2633 27.3829 26.7453 26.0299 23.8193 26.0299C23.8193 26.0299 23.3353 26.0299 22.6203 26.1399Z" fill-rule="evenodd"  fill="#000000" >
</path>
</svg>
