<svg xmlns="http://www.w3.org/2000/svg" xmlns:xlink="http://www.w3.org/1999/xlink" width="48" height="48" viewBox="0 0 48 48" fill="none">
<path d="M4 36L4 12C4 7.58172 7.58172 4 12 4L36 4C40.4183 4 44 7.58172 44 12L44 36C44 40.4183 40.4183 44 36 44L12 44C7.58172 44 4 40.4183 4 36ZM40 13.9972L40 12C40 9.79086 38.2091 8 36 8L12 8C9.79086 8 8 9.79086 8 12L8 13.9517L40 13.9972ZM8 17.9517L40 17.9972L40 36C40 38.2091 38.2091 40 36 40L12 40C9.79086 40 8 38.2091 8 36L8 17.9517ZM36.4413 29.572C36.4413 29.572 35.7483 28.494 34.5163 27.856C34.5163 27.856 35.3523 27.284 35.7923 26.536C35.7923 26.536 36.2323 25.788 36.2323 24.6C36.2323 24.6 36.2323 23.654 35.8583 22.873C35.8583 22.873 35.4843 22.092 34.7803 21.542C34.7803 21.542 34.0763 20.992 33.0863 20.684C33.0863 20.684 32.0963 20.376 30.8643 20.376C30.8643 20.376 29.6103 20.376 28.5873 20.695C28.5873 20.695 27.5643 21.014 26.8383 21.586C26.8383 21.586 26.1123 22.158 25.7163 22.95C25.7163 22.95 25.3203 23.742 25.3203 24.71C25.3203 24.71 25.3203 25.854 25.7493 26.591C25.7493 26.591 26.1783 27.328 26.9483 27.856C26.9483 27.856 25.7823 28.472 25.1443 29.561C25.1443 29.561 24.5063 30.65 24.5063 32.102C24.5063 32.102 24.5063 33.246 24.9353 34.159C24.9353 34.159 25.3643 35.072 26.1783 35.71C26.1783 35.71 26.9923 36.348 28.1473 36.7C28.1473 36.7 29.3023 37.052 30.7763 37.052C30.7763 37.052 32.2503 37.052 33.4273 36.7C33.4273 36.7 34.6043 36.348 35.4293 35.699C35.4293 35.699 36.2543 35.05 36.6943 34.137C36.6943 34.137 37.1343 33.224 37.1343 32.102C37.1343 32.102 37.1343 30.65 36.4413 29.572ZM18.8523 27.251C18.8523 27.251 18.6103 27.548 18.2143 27.922L11.6143 34.038L11.6143 36.942L23.2523 36.942L23.2523 33.818L16.4543 33.818L20.2163 30.342C20.2163 30.342 21.0743 29.528 21.6463 28.868C21.6463 28.868 22.2183 28.208 22.5593 27.636C22.5593 27.636 22.9003 27.064 23.0323 26.547C23.0323 26.547 23.1643 26.03 23.1643 25.524C23.1643 25.524 23.1643 24.644 22.7903 23.753C22.7903 23.753 22.4163 22.862 21.7013 22.147C21.7013 22.147 20.9863 21.432 19.9633 20.981C19.9633 20.981 18.9403 20.53 17.6203 20.53C17.6203 20.53 14.8263 20.53 13.2203 21.938C13.2203 21.938 11.6143 23.346 11.6143 26.118L15.3763 26.118C15.3763 26.118 15.3763 25.062 16.0033 24.545C16.0033 24.545 16.6303 24.028 17.5543 24.028C17.5543 24.028 18.3463 24.028 18.8853 24.49C18.8853 24.49 19.4243 24.952 19.4243 25.612C19.4243 25.612 19.4243 25.898 19.3803 26.151C19.3803 26.151 19.3363 26.404 19.2153 26.679C19.2153 26.679 19.0943 26.954 18.8523 27.251ZM29.2693 25.777C29.2693 25.777 28.7083 25.37 28.7083 24.666C28.7083 24.666 28.7083 23.94 29.2583 23.555C29.2583 23.555 29.8083 23.17 30.8203 23.17C30.8203 23.17 31.8323 23.17 32.3713 23.555C32.3713 23.555 32.9103 23.94 32.9103 24.666C32.9103 24.666 32.9103 25.392 32.3713 25.788C32.3713 25.788 31.8323 26.184 30.8423 26.184C30.8423 26.184 29.8303 26.184 29.2693 25.777ZM32.9103 30.551C32.9103 30.551 33.6583 31.112 33.6583 32.146C33.6583 32.146 33.6583 34.17 30.7103 34.17C30.7103 34.17 27.9603 34.17 27.9603 32.168C27.9603 32.168 27.9603 31.112 28.6973 30.551C28.6973 30.551 29.4343 29.99 30.7763 29.99C30.7763 29.99 32.1623 29.99 32.9103 30.551Z" fill-rule="evenodd"  fill="#000000" >
</path>
</svg>
