<svg xmlns="http://www.w3.org/2000/svg" xmlns:xlink="http://www.w3.org/1999/xlink" width="48" height="48" viewBox="0 0 48 48" fill="none">
<path d="M4 12L4 14L44 14L44 12C44 7.58172 40.4183 4 36 4L12 4C7.58172 4 4 7.58172 4 12ZM12 44C7.58172 44 4 40.4183 4 36L4 18L44 18L44 36C44 40.4183 40.4183 44 36 44L12 44ZM29.632 30.572C29.17 29.8533 28.5283 29.2813 27.707 28.856C28.2643 28.4747 28.6897 28.0347 28.983 27.536C29.2763 27.0373 29.423 26.392 29.423 25.6C29.423 24.9693 29.2983 24.3937 29.049 23.873C28.7997 23.3523 28.4403 22.9087 27.971 22.542C27.5017 22.1753 26.937 21.8893 26.277 21.684C25.617 21.4787 24.8763 21.376 24.055 21.376C23.219 21.376 22.46 21.4823 21.778 21.695C21.096 21.9077 20.513 22.2047 20.029 22.586C19.545 22.9673 19.171 23.422 18.907 23.95C18.643 24.478 18.511 25.0647 18.511 25.71C18.511 26.4727 18.654 27.0997 18.94 27.591C19.226 28.0823 19.6257 28.504 20.139 28.856C19.3617 29.2667 18.7603 29.835 18.335 30.561C17.9097 31.287 17.697 32.134 17.697 33.102C17.697 33.8647 17.84 34.5503 18.126 35.159C18.412 35.7677 18.8263 36.2847 19.369 36.71C19.9117 37.1353 20.568 37.4653 21.338 37.7C22.108 37.9347 22.9843 38.052 23.967 38.052C24.9497 38.052 25.8333 37.9347 26.618 37.7C27.4027 37.4653 28.07 37.1317 28.62 36.699C29.17 36.2663 29.5917 35.7457 29.885 35.137C30.1783 34.5283 30.325 33.85 30.325 33.102C30.325 32.134 30.094 31.2907 29.632 30.572ZM22.46 26.777C22.086 26.5057 21.899 26.1353 21.899 25.666C21.899 25.182 22.0823 24.8117 22.449 24.555C22.8157 24.2983 23.3363 24.17 24.011 24.17C24.6857 24.17 25.2027 24.2983 25.562 24.555C25.9213 24.8117 26.101 25.182 26.101 25.666C26.101 26.15 25.9213 26.524 25.562 26.788C25.2027 27.052 24.693 27.184 24.033 27.184C23.3583 27.184 22.834 27.0483 22.46 26.777ZM26.101 31.551C26.5997 31.925 26.849 32.4567 26.849 33.146C26.849 34.4953 25.8663 35.17 23.901 35.17C22.0677 35.17 21.151 34.5027 21.151 33.168C21.151 32.464 21.3967 31.925 21.888 31.551C22.3793 31.177 23.0723 30.99 23.967 30.99C24.891 30.99 25.6023 31.177 26.101 31.551Z" fill-rule="evenodd"  fill="#000000" >
</path>
</svg>
