<svg xmlns="http://www.w3.org/2000/svg" xmlns:xlink="http://www.w3.org/1999/xlink" width="48" height="48" viewBox="0 0 48 48" fill="none">
<path d="M4 12L4 14L44 14L44 12C44 7.58172 40.4183 4 36 4L12 4C7.58172 4 4 7.58172 4 12ZM12 44C7.58172 44 4 40.4183 4 36L4 18L44 18L44 36C44 40.4183 40.4183 44 36 44L12 44ZM18.7532 25.0939L25.9912 25.0939L19.7652 28.6139L21.1292 31.5179L22.1632 31.0559C22.1632 31.0559 22.6032 30.8799 23.1642 30.6489C23.1642 30.6489 23.7252 30.4179 24.2092 30.4179C24.2092 30.4179 25.6172 30.4179 26.1562 30.9569C26.1562 30.9569 26.6952 31.4959 26.6952 32.8159C26.6952 32.8159 26.6952 33.5419 26.5192 34.0369C26.5192 34.0369 26.3432 34.5319 26.0352 34.8179C26.0352 34.8179 25.7272 35.1039 25.2982 35.2249C25.2982 35.2249 24.8692 35.3459 24.3412 35.3459C24.3412 35.3459 23.1752 35.3459 22.5262 34.8399C22.5262 34.8399 21.8772 34.3339 21.8772 32.9919L18.1592 32.9919C18.1592 32.9919 18.1592 34.3559 18.5772 35.3349C18.5772 35.3349 18.9952 36.3139 19.7872 36.9299C19.7872 36.9299 20.5792 37.5459 21.7012 37.8319C21.7012 37.8319 22.8232 38.1179 24.2312 38.1179C24.2312 38.1179 25.5292 38.1179 26.6512 37.8099C26.6512 37.8099 27.7732 37.5019 28.5982 36.8639C28.5982 36.8639 29.4232 36.2259 29.8962 35.2579C29.8962 35.2579 30.3692 34.2899 30.3692 32.9479C30.3692 32.9479 30.3692 31.4739 29.9402 30.5059C29.9402 30.5059 29.5112 29.5379 28.8292 28.9659C28.8292 28.9659 28.1472 28.3939 27.3002 28.1629C27.3002 28.1629 26.4532 27.9319 25.6172 27.9319L25.6172 27.9099L29.9072 25.7319L29.9072 21.9919L18.7532 21.9919L18.7532 25.0939Z" fill-rule="evenodd"  fill="#000000" >
</path>
</svg>
