<svg xmlns="http://www.w3.org/2000/svg" xmlns:xlink="http://www.w3.org/1999/xlink" width="48" height="48" viewBox="0 0 48 48" fill="none">
<path d="M4 36L4 12C4 7.58172 7.58172 4 12 4L36 4C40.4183 4 44 7.58172 44 12L44 36C44 40.4183 40.4183 44 36 44L12 44C7.58172 44 4 40.4183 4 36ZM40 13.9972L40 12C40 9.79086 38.2091 8 36 8L12 8C9.79086 8 8 9.79086 8 12L8 13.9517L40 13.9972ZM8 17.9517L40 17.9972L40 36C40 38.2091 38.2091 40 36 40L12 40C9.79086 40 8 38.2091 8 36L8 17.9517ZM21.7228 31.4419L26.6508 20.9919L22.9108 20.9919L18.0928 30.8259L18.0928 34.5659L24.8688 34.5659L24.8688 36.9419L28.3228 36.9419L28.3228 34.5659L29.9728 34.5659L29.9728 31.4419L28.3228 31.4419L28.3228 26.1619L24.8688 26.1619L24.8688 31.4419L21.7228 31.4419Z" fill-rule="evenodd"  fill="#000000" >
</path>
</svg>
