<svg xmlns="http://www.w3.org/2000/svg" xmlns:xlink="http://www.w3.org/1999/xlink" width="48" height="48" viewBox="0 0 48 48" fill="none">
<path d="M4 12L4 14L44 14L44 12C44 7.58172 40.4183 4 36 4L12 4C7.58172 4 4 7.58172 4 12ZM12 44C7.58172 44 4 40.4183 4 36L4 18L44 18L44 36C44 40.4183 40.4183 44 36 44L12 44ZM36.441 30.572C35.979 29.8533 35.3373 29.2813 34.516 28.856C35.0733 28.4747 35.4987 28.0347 35.792 27.536C36.0853 27.0373 36.232 26.392 36.232 25.6C36.232 24.9693 36.1073 24.3937 35.858 23.873C35.6087 23.3523 35.2493 22.9087 34.78 22.542C34.3107 22.1753 33.746 21.8893 33.086 21.684C32.426 21.4787 31.6853 21.376 30.864 21.376C30.028 21.376 29.269 21.4823 28.587 21.695C27.905 21.9077 27.322 22.2047 26.838 22.586C26.354 22.9673 25.98 23.422 25.716 23.95C25.452 24.478 25.32 25.0647 25.32 25.71C25.32 26.4727 25.463 27.0997 25.749 27.591C26.035 28.0823 26.4347 28.504 26.948 28.856C26.1707 29.2667 25.5693 29.835 25.144 30.561C24.7187 31.287 24.506 32.134 24.506 33.102C24.506 33.8647 24.649 34.5503 24.935 35.159C25.221 35.7677 25.6353 36.2847 26.178 36.71C26.7207 37.1353 27.377 37.4653 28.147 37.7C28.917 37.9347 29.7933 38.052 30.776 38.052C31.7587 38.052 32.6423 37.9347 33.427 37.7C34.2117 37.4653 34.879 37.1317 35.429 36.699C35.979 36.2663 36.4007 35.7457 36.694 35.137C36.9873 34.5283 37.134 33.85 37.134 33.102C37.134 32.134 36.903 31.2907 36.441 30.572ZM18.852 28.251C18.6907 28.449 18.478 28.6727 18.214 28.922L11.614 35.038L11.614 37.942L23.252 37.942L23.252 34.818L16.454 34.818L20.216 31.342C20.788 30.7993 21.2647 30.308 21.646 29.868C22.0273 29.428 22.3317 29.0173 22.559 28.636C22.7863 28.2547 22.944 27.8917 23.032 27.547C23.12 27.2023 23.164 26.8613 23.164 26.524C23.164 25.9373 23.0393 25.347 22.79 24.753C22.5407 24.159 22.1777 23.6237 21.701 23.147C21.2243 22.6703 20.645 22.2817 19.963 21.981C19.281 21.6803 18.5 21.53 17.62 21.53C15.7573 21.53 14.2907 21.9993 13.22 22.938C12.1493 23.8767 11.614 25.27 11.614 27.118L15.376 27.118C15.376 26.414 15.585 25.8897 16.003 25.545C16.421 25.2003 16.938 25.028 17.554 25.028C18.082 25.028 18.5257 25.182 18.885 25.49C19.2443 25.798 19.424 26.172 19.424 26.612C19.424 26.8027 19.4093 26.9823 19.38 27.151C19.3507 27.3197 19.2957 27.4957 19.215 27.679C19.1343 27.8623 19.0133 28.053 18.852 28.251ZM29.269 26.777C28.895 26.5057 28.708 26.1353 28.708 25.666C28.708 25.182 28.8913 24.8117 29.258 24.555C29.6247 24.2983 30.1453 24.17 30.82 24.17C31.4947 24.17 32.0117 24.2983 32.371 24.555C32.7303 24.8117 32.91 25.182 32.91 25.666C32.91 26.15 32.7303 26.524 32.371 26.788C32.0117 27.052 31.502 27.184 30.842 27.184C30.1673 27.184 29.643 27.0483 29.269 26.777ZM32.91 31.551C33.4087 31.925 33.658 32.4567 33.658 33.146C33.658 34.4953 32.6753 35.17 30.71 35.17C28.8767 35.17 27.96 34.5027 27.96 33.168C27.96 32.464 28.2057 31.925 28.697 31.551C29.1883 31.177 29.8813 30.99 30.776 30.99C31.7 30.99 32.4113 31.177 32.91 31.551Z" fill-rule="evenodd"  fill="#000000" >
</path>
</svg>
