<svg xmlns="http://www.w3.org/2000/svg" xmlns:xlink="http://www.w3.org/1999/xlink" width="48" height="48" viewBox="0 0 48 48" fill="none">
<path d="M4 36L4 12C4 7.58172 7.58172 4 12 4L36 4C40.4183 4 44 7.58172 44 12L44 36C44 40.4183 40.4183 44 36 44L12 44C7.58172 44 4 40.4183 4 36ZM40 13.9972L40 12C40 9.79086 38.2091 8 36 8L12 8C9.79086 8 8 9.79086 8 12L8 13.9517L40 13.9972ZM8 17.9517L40 17.9972L40 36C40 38.2091 38.2091 40 36 40L12 40C9.79086 40 8 38.2091 8 36L8 17.9517ZM36.1876 33.719C36.1876 33.719 36.5616 32.784 36.5616 31.75L36.5616 25.546C36.5616 25.546 36.5616 24.578 36.1656 23.676C36.1656 23.676 35.7696 22.774 35.0216 22.081C35.0216 22.081 34.2736 21.388 33.1956 20.97C33.1956 20.97 32.1176 20.552 30.7316 20.552C30.7316 20.552 29.3456 20.552 28.2896 20.981C28.2896 20.981 27.2336 21.41 26.5076 22.114C26.5076 22.114 25.7816 22.818 25.4076 23.709C25.4076 23.709 25.0336 24.6 25.0336 25.546L25.0336 31.75C25.0336 31.75 25.0336 32.806 25.3856 33.741C25.3856 33.741 25.7376 34.676 26.4416 35.391C26.4416 35.391 27.1456 36.106 28.2126 36.513C28.2126 36.513 29.2796 36.92 30.7316 36.92C30.7316 36.92 32.1616 36.92 33.2396 36.502C33.2396 36.502 34.3176 36.084 35.0656 35.369C35.0656 35.369 35.8136 34.654 36.1876 33.719ZM11.9436 24.094L19.1816 24.094L12.9556 27.614L14.3196 30.518L15.3536 30.056C15.3536 30.056 15.7936 29.88 16.3546 29.649C16.3546 29.649 16.9156 29.418 17.3996 29.418C17.3996 29.418 18.8076 29.418 19.3466 29.957C19.3466 29.957 19.8856 30.496 19.8856 31.816C19.8856 31.816 19.8856 32.542 19.7096 33.037C19.7096 33.037 19.5336 33.532 19.2256 33.818C19.2256 33.818 18.9176 34.104 18.4886 34.225C18.4886 34.225 18.0596 34.346 17.5316 34.346C17.5316 34.346 16.3656 34.346 15.7166 33.84C15.7166 33.84 15.0676 33.334 15.0676 31.992L11.3496 31.992C11.3496 31.992 11.3496 33.356 11.7676 34.335C11.7676 34.335 12.1856 35.314 12.9776 35.93C12.9776 35.93 13.7696 36.546 14.8916 36.832C14.8916 36.832 16.0136 37.118 17.4216 37.118C17.4216 37.118 18.7196 37.118 19.8416 36.81C19.8416 36.81 20.9636 36.502 21.7886 35.864C21.7886 35.864 22.6136 35.226 23.0866 34.258C23.0866 34.258 23.5596 33.29 23.5596 31.948C23.5596 31.948 23.5596 30.474 23.1306 29.506C23.1306 29.506 22.7016 28.538 22.0196 27.966C22.0196 27.966 21.3376 27.394 20.4906 27.163C20.4906 27.163 19.6436 26.932 18.8076 26.932L18.8076 26.91L23.0976 24.732L23.0976 20.992L11.9436 20.992L11.9436 24.094ZM32.8656 23.852C32.8656 23.852 33.6796 24.556 33.6796 25.92L33.6796 31.728C33.6796 31.728 33.6796 32.872 32.8766 33.565C32.8766 33.565 32.0736 34.258 30.7316 34.258C30.7316 34.258 29.4116 34.258 28.6526 33.565C28.6526 33.565 27.8936 32.872 27.8936 31.728L27.8936 25.92C27.8936 25.92 27.8936 24.556 28.6636 23.852C28.6636 23.852 29.4336 23.148 30.7316 23.148C30.7316 23.148 32.0516 23.148 32.8656 23.852Z" fill-rule="evenodd"  fill="#000000" >
</path>
</svg>
