<svg xmlns="http://www.w3.org/2000/svg" xmlns:xlink="http://www.w3.org/1999/xlink" width="48" height="48" viewBox="0 0 48 48" fill="none">
<path d="M4 12L4 14L44 14L44 12C44 7.58172 40.4183 4 36 4L12 4C7.58172 4 4 7.58172 4 12ZM12 44C7.58172 44 4 40.4183 4 36L4 18L44 18L44 36C44 40.4183 40.4183 44 36 44L12 44ZM24.132 31.859C24.3153 31.8517 24.4437 31.8333 24.517 31.804L20.205 37.942L24.209 37.942L28.741 31.342C29.2103 30.6527 29.6027 29.9267 29.918 29.164C30.2333 28.4013 30.391 27.6167 30.391 26.81C30.391 25.93 30.2223 25.1563 29.885 24.489C29.5477 23.8217 29.0857 23.2643 28.499 22.817C27.9123 22.3697 27.234 22.0323 26.464 21.805C25.694 21.5777 24.869 21.464 23.989 21.464C23.109 21.464 22.284 21.574 21.514 21.794C20.744 22.014 20.0693 22.3477 19.49 22.795C18.9107 23.2423 18.456 23.7997 18.126 24.467C17.796 25.1343 17.631 25.9153 17.631 26.81C17.631 27.4407 17.7593 28.0603 18.016 28.669C18.2727 29.2777 18.6577 29.8167 19.171 30.286C19.6843 30.7553 20.3187 31.1367 21.074 31.43C21.8293 31.7233 22.6983 31.87 23.681 31.87C23.7983 31.87 23.9487 31.8663 24.132 31.859ZM26.882 25.589C27.036 25.9337 27.113 26.3407 27.113 26.81C27.113 27.5873 26.8637 28.185 26.365 28.603C25.8663 29.021 25.0817 29.23 24.011 29.23C23.087 29.23 22.35 29.0393 21.8 28.658C21.25 28.2767 20.975 27.6607 20.975 26.81C20.975 25.8567 21.2537 25.1673 21.811 24.742C22.3683 24.3167 23.1017 24.104 24.011 24.104C24.451 24.104 24.8617 24.1553 25.243 24.258C25.6243 24.3607 25.9543 24.522 26.233 24.742C26.5117 24.962 26.728 25.2443 26.882 25.589Z" fill-rule="evenodd"  fill="#000000" >
</path>
</svg>
