<svg xmlns="http://www.w3.org/2000/svg" xmlns:xlink="http://www.w3.org/1999/xlink" width="48" height="48" viewBox="0 0 48 48" fill="none">
<path d="M4 12L4 14L44 14L44 12C44 7.58172 40.4183 4 36 4L12 4C7.58172 4 4 7.58172 4 12ZM12 44C7.58172 44 4 40.4183 4 36L4 18L44 18L44 36C44 40.4183 40.4183 44 36 44L12 44ZM23.109 27.58L26.497 21.992L22.955 21.992L19.083 28.394C18.7017 29.01 18.3643 29.6847 18.071 30.418C17.7777 31.1513 17.631 31.8773 17.631 32.596C17.631 33.476 17.7923 34.257 18.115 34.939C18.4377 35.621 18.885 36.1967 19.457 36.666C20.029 37.1353 20.7037 37.4947 21.481 37.744C22.2583 37.9933 23.0943 38.118 23.989 38.118C24.913 38.118 25.7637 37.9933 26.541 37.744C27.3183 37.4947 27.9893 37.1353 28.554 36.666C29.1187 36.1967 29.5623 35.6137 29.885 34.917C30.2077 34.2203 30.369 33.4247 30.369 32.53C30.369 31.5327 30.182 30.704 29.808 30.044C29.434 29.384 28.9647 28.8597 28.4 28.471C27.8353 28.0823 27.2157 27.8073 26.541 27.646C25.8663 27.4847 25.2283 27.404 24.627 27.404C24.055 27.404 23.549 27.4627 23.109 27.58ZM21.998 34.301C21.5213 33.927 21.283 33.388 21.283 32.684C21.283 31.8333 21.525 31.2283 22.009 30.869C22.493 30.5097 23.1677 30.33 24.033 30.33C24.913 30.33 25.595 30.506 26.079 30.858C26.563 31.21 26.805 31.8113 26.805 32.662C26.805 33.454 26.5483 34.0187 26.035 34.356C25.5217 34.6933 24.8763 34.862 24.099 34.862C23.175 34.862 22.4747 34.675 21.998 34.301Z" fill-rule="evenodd"  fill="#000000" >
</path>
</svg>
