<svg xmlns="http://www.w3.org/2000/svg" xmlns:xlink="http://www.w3.org/1999/xlink" width="48" height="48" viewBox="0 0 48 48" fill="none">
<path d="M4 36L4 12C4 7.58172 7.58172 4 12 4L36 4C40.4183 4 44 7.58172 44 12L44 36C44 40.4183 40.4183 44 36 44L12 44C7.58172 44 4 40.4183 4 36ZM40 13.9972L40 12C40 9.79086 38.2091 8 36 8L12 8C9.79086 8 8 9.79086 8 12L8 13.9517L40 13.9972ZM8 17.9517L40 17.9972L40 36C40 38.2091 38.2091 40 36 40L12 40C9.79086 40 8 38.2091 8 36L8 17.9517ZM11.4436 24.0939L18.6816 24.0939L12.4556 27.6139L13.8196 30.5179L14.8536 30.0559C14.8536 30.0559 15.2936 29.8799 15.8546 29.6489C15.8546 29.6489 16.4156 29.4179 16.8996 29.4179C16.8996 29.4179 18.3076 29.4179 18.8466 29.9569C18.8466 29.9569 19.3856 30.4959 19.3856 31.8159C19.3856 31.8159 19.3856 32.5419 19.2096 33.0369C19.2096 33.0369 19.0336 33.5319 18.7256 33.8179C18.7256 33.8179 18.4176 34.1039 17.9886 34.2249C17.9886 34.2249 17.5596 34.3459 17.0316 34.3459C17.0316 34.3459 15.8656 34.3459 15.2166 33.8399C15.2166 33.8399 14.5676 33.3339 14.5676 31.9919L10.8496 31.9919C10.8496 31.9919 10.8496 33.3559 11.2676 34.3349C11.2676 34.3349 11.6856 35.3139 12.4776 35.9299C12.4776 35.9299 13.2696 36.5459 14.3916 36.8319C14.3916 36.8319 15.5136 37.1179 16.9216 37.1179C16.9216 37.1179 18.2196 37.1179 19.3416 36.8099C19.3416 36.8099 20.4636 36.5019 21.2886 35.8639C21.2886 35.8639 22.1136 35.2259 22.5866 34.2579C22.5866 34.2579 23.0596 33.2899 23.0596 31.9479C23.0596 31.9479 23.0596 30.4739 22.6306 29.5059C22.6306 29.5059 22.2016 28.5379 21.5196 27.9659C21.5196 27.9659 20.8376 27.3939 19.9906 27.1629C19.9906 27.1629 19.1436 26.9319 18.3076 26.9319L18.3076 26.9099L22.5976 24.7319L22.5976 20.9919L11.4436 20.9919L11.4436 24.0939ZM30.4296 24.7099L30.4296 36.9419L33.6856 36.9419L33.6856 20.9919L30.9356 20.9919L26.1616 23.4339L26.1616 26.7559L30.4296 24.7099Z" fill-rule="evenodd"  fill="#000000" >
</path>
</svg>
