<svg xmlns="http://www.w3.org/2000/svg" xmlns:xlink="http://www.w3.org/1999/xlink" width="48" height="48" viewBox="0 0 48 48" fill="none">
<path d="M4 36L4 12C4 7.58172 7.58172 4 12 4L36 4C40.4183 4 44 7.58172 44 12L44 36C44 40.4183 40.4183 44 36 44L12 44C7.58172 44 4 40.4183 4 36ZM40 13.9972L40 12C40 9.79086 38.2091 8 36 8L12 8C9.79086 8 8 9.79086 8 12L8 13.9517L40 13.9972ZM8 17.9517L40 17.9972L40 36C40 38.2091 38.2091 40 36 40L12 40C9.79086 40 8 38.2091 8 36L8 17.9517ZM35.4409 29.572C35.4409 29.572 34.7479 28.494 33.5159 27.856C33.5159 27.856 34.3519 27.284 34.7919 26.536C34.7919 26.536 35.2319 25.788 35.2319 24.6C35.2319 24.6 35.2319 23.654 34.8579 22.873C34.8579 22.873 34.4839 22.092 33.7799 21.542C33.7799 21.542 33.0759 20.992 32.0859 20.684C32.0859 20.684 31.0959 20.376 29.8639 20.376C29.8639 20.376 28.6099 20.376 27.5869 20.695C27.5869 20.695 26.5639 21.014 25.8379 21.586C25.8379 21.586 25.1119 22.158 24.7159 22.95C24.7159 22.95 24.3199 23.742 24.3199 24.71C24.3199 24.71 24.3199 25.854 24.7489 26.591C24.7489 26.591 25.1779 27.328 25.9479 27.856C25.9479 27.856 24.7819 28.472 24.1439 29.561C24.1439 29.561 23.5059 30.65 23.5059 32.102C23.5059 32.102 23.5059 33.246 23.9349 34.159C23.9349 34.159 24.3639 35.072 25.1779 35.71C25.1779 35.71 25.9919 36.348 27.1469 36.7C27.1469 36.7 28.3019 37.052 29.7759 37.052C29.7759 37.052 31.2499 37.052 32.4269 36.7C32.4269 36.7 33.6039 36.348 34.4289 35.699C34.4289 35.699 35.2539 35.05 35.6939 34.137C35.6939 34.137 36.1339 33.224 36.1339 32.102C36.1339 32.102 36.1339 30.65 35.4409 29.572ZM16.3119 24.71L16.3119 36.942L19.5679 36.942L19.5679 20.992L16.8179 20.992L12.0439 23.434L12.0439 26.756L16.3119 24.71ZM28.2689 25.777C28.2689 25.777 27.7079 25.37 27.7079 24.666C27.7079 24.666 27.7079 23.94 28.2579 23.555C28.2579 23.555 28.8079 23.17 29.8199 23.17C29.8199 23.17 30.8319 23.17 31.3709 23.555C31.3709 23.555 31.9099 23.94 31.9099 24.666C31.9099 24.666 31.9099 25.392 31.3709 25.788C31.3709 25.788 30.8319 26.184 29.8419 26.184C29.8419 26.184 28.8299 26.184 28.2689 25.777ZM31.9099 30.551C31.9099 30.551 32.6579 31.112 32.6579 32.146C32.6579 32.146 32.6579 34.17 29.7099 34.17C29.7099 34.17 26.9599 34.17 26.9599 32.168C26.9599 32.168 26.9599 31.112 27.6969 30.551C27.6969 30.551 28.4339 29.99 29.7759 29.99C29.7759 29.99 31.1619 29.99 31.9099 30.551Z" fill-rule="evenodd"  fill="#000000" >
</path>
</svg>
