<svg xmlns="http://www.w3.org/2000/svg" xmlns:xlink="http://www.w3.org/1999/xlink" width="48" height="48" viewBox="0 0 48 48" fill="none">
<path d="M8.10114 38.5199C7.75973 38.3351 7.44794 38.1079 7.17 37.83C6.8 37.46 6.52 37.03 6.31 36.55C6.1 36.06 6 35.54 6 35L6 17.5C6 17.16 6.07 16.83 6.2 16.52C6.32 16.23 6.5 15.96 6.73 15.73C6.96 15.5 7.23 15.32 7.52 15.2C7.83 15.07 8.16 15 8.5 15L10.68 15C11.76 15 12.76 14.73 13.7 14.19C14.63 13.65 15.36 12.91 15.89 11.97L17.01 10.01C17.36 9.39 17.85 8.9 18.47 8.54C19.09 8.18 19.76 8 20.48 8L27.52 8C28.24 8 28.91 8.18 29.53 8.54C30.15 8.9 30.64 9.39 30.99 10.01L32.11 11.97C32.321 12.3442 32.5637 12.6868 32.8381 12.9976L29.3786 16.567C28.9089 16.2674 28.4128 16.0078 27.89 15.79C26.65 15.26 25.36 15 24 15C22.64 15 21.35 15.26 20.11 15.79C18.91 16.29 17.85 17.01 16.93 17.93C16.01 18.85 15.29 19.91 14.79 21.11C14.26 22.35 14 23.64 14 25C14 26.36 14.26 27.65 14.79 28.89C15.0485 29.5105 15.3659 30.0936 15.7394 30.6392L8.10114 38.5199ZM18.6199 27.6672L26.4977 19.5393C26.4456 19.5155 26.393 19.4924 26.34 19.47C25.59 19.16 24.82 19 24 19C23.18 19 22.41 19.16 21.66 19.47C20.95 19.77 20.31 20.2 19.76 20.76C19.2 21.31 18.77 21.95 18.47 22.66C18.16 23.41 18 24.18 18 25C18 25.82 18.16 26.59 18.47 27.34C18.5168 27.4508 18.5668 27.5599 18.6199 27.6672ZM35.6534 10.0929C35.6315 10.0594 35.6104 10.0251 35.59 9.99L34.47 8.03C33.75 6.78 32.78 5.8 31.53 5.08C30.29 4.36 28.95 4 27.52 4L20.48 4C19.05 4 17.71 4.36 16.47 5.08C15.22 5.8 14.25 6.78 13.53 8.03L12.41 9.99C12.23 10.3 11.99 10.55 11.68 10.73C11.37 10.91 11.04 11 10.68 11L8.5 11C7.62 11 6.77 11.17 5.97 11.51C5.19 11.84 4.5 12.3 3.9 12.9C3.3 13.5 2.84 14.19 2.51 14.97C2.17 15.77 2 16.62 2 17.5L2 35C2 36.08 2.21 37.12 2.63 38.11C3.04 39.07 3.61 39.92 4.34 40.66C4.85753 41.1705 5.42886 41.6028 6.054 41.9568C6.06421 41.9985 6.07711 42.0413 6.09 42.08C6.11 42.14 6.13 42.2 6.15 42.27C6.18 42.33 6.21 42.38 6.24 42.44C6.27 42.5 6.3 42.56 6.34 42.61C6.37 42.67 6.41 42.72 6.45 42.77C6.5 42.82 6.54 42.87 6.59 42.91C6.63 42.96 6.68 43 6.73 43.05C6.78 43.09 6.83 43.13 6.89 43.16C6.94 43.2 7 43.23 7.06 43.26C7.11 43.29 7.17 43.32 7.23 43.35C7.3 43.37 7.36 43.39 7.42 43.41C7.48 43.43 7.55 43.45 7.61 43.46C7.67 43.47 7.74 43.48 7.8 43.49C7.87 43.5 7.93 43.5 8 43.5C8.13 43.5 8.27 43.49 8.4 43.46C8.53 43.43 8.66 43.39 8.78 43.34C8.9 43.29 9.02 43.23 9.13 43.15C9.24 43.07 9.34 42.99 9.44 42.89L40.94 10.39C41.03 10.3 41.11 10.2 41.18 10.09C41.25 9.98 41.31 9.87 41.35 9.75C41.4 9.63 41.44 9.51 41.46 9.38C41.49 9.26 41.5 9.13 41.5 9C41.5 8.93 41.5 8.87 41.49 8.8C41.48 8.74 41.47 8.67 41.46 8.61C41.45 8.55 41.43 8.48 41.41 8.42C41.39 8.36 41.37 8.3 41.35 8.23C41.32 8.17 41.29 8.11 41.26 8.06C41.23 8 41.2 7.94 41.16 7.89C41.13 7.83 41.09 7.78 41.05 7.73C41 7.68 40.96 7.63 40.91 7.59C40.87 7.54 40.82 7.5 40.77 7.45C40.72 7.41 40.67 7.37 40.61 7.34C40.56 7.3 40.5 7.27 40.44 7.24C40.38 7.21 40.33 7.18 40.27 7.15C40.2 7.13 40.14 7.11 40.08 7.09C40.02 7.07 39.95 7.05 39.89 7.04C39.83 7.03 39.76 7.02 39.7 7.01C39.63 7 39.57 7 39.5 7C39.37 7 39.23 7.01 39.1 7.04C38.97 7.07 38.84 7.11 38.72 7.16C38.6 7.21 38.48 7.27 38.37 7.35C38.26 7.43 38.16 7.51 38.06 7.61L35.6534 10.0929ZM46 35L46 17.5C46 16.62 45.83 15.77 45.49 14.97C45.16 14.19 44.7 13.5 44.1 12.9C43.8994 12.6994 43.6888 12.5145 43.4682 12.3449C43.4656 12.3567 43.4629 12.3684 43.46 12.38C43.44 12.51 43.4 12.63 43.35 12.75C43.31 12.87 43.25 12.98 43.18 13.09C43.11 13.2 43.03 13.3 42.94 13.39L40.9404 15.4531C41.057 15.5349 41.1675 15.6275 41.27 15.73C41.5 15.96 41.68 16.23 41.8 16.52C41.93 16.83 42 17.16 42 17.5L42 35C42 35.54 41.9 36.06 41.69 36.55C41.48 37.03 41.2 37.46 40.83 37.83C40.46 38.2 40.03 38.48 39.55 38.69C39.06 38.9 38.54 39 38 39L18.118 39L14.2411 43L38 43C39.08 43 40.12 42.79 41.11 42.37C42.07 41.96 42.92 41.39 43.66 40.66C44.39 39.92 44.96 39.07 45.37 38.11C45.79 37.12 46 36.08 46 35ZM22.1573 34.8324C22.7579 34.9445 23.3715 35 24 35C25.36 35 26.65 34.74 27.89 34.21C29.09 33.71 30.15 32.99 31.07 32.07C31.99 31.15 32.71 30.09 33.21 28.89C33.74 27.65 34 26.36 34 25C34 24.2642 33.9239 23.5489 33.7701 22.851L29.6063 27.147C29.582 27.2115 29.5565 27.2758 29.53 27.34C29.23 28.05 28.8 28.69 28.24 29.24C27.69 29.8 27.05 30.23 26.34 30.53C26.333 30.5329 26.326 30.5358 26.319 30.5386L22.1573 34.8324Z" fill-rule="evenodd"  fill="#000000" >
</path>
</svg>
