<svg xmlns="http://www.w3.org/2000/svg" xmlns:xlink="http://www.w3.org/1999/xlink" width="48" height="48" viewBox="0 0 48 48" fill="none">
<path d="M11 5L37 5C40.3137 5 43 7.68629 43 11L43 27C43 30.3137 40.3137 33 37 33L11 33C7.68629 33 5 30.3137 5 27L5 11C5 7.68629 7.68629 5 11 5Z"   fill="#FEF4C1" >
</path>
<path d="M37 3L11 3C6.58172 3 3 6.58172 3 11L3 27C3 31.4183 6.58172 35 11 35L37 35C41.4183 35 45 31.4183 45 27L45 11C45 6.58172 41.4183 3 37 3ZM7 11C7 8.79086 8.79086 7 11 7L37 7C39.2091 7 41 8.79086 41 11L41 27C41 29.2091 39.2091 31 37 31L11 31C8.79086 31 7 29.2091 7 27L7 11Z" fill-rule="evenodd"  fill="#FCCB68" >
</path>
<path d="M31.51 44.09L34.49 42.31C34.8 42.12 35.2 42.12 35.51 42.31L38.49 44.09C39.16 44.49 40 44 40 43.23L40 34.5L30 34.5L30 43.23C30 44 30.84 44.49 31.51 44.09Z"   fill="#FA9E14" >
</path>
<path d="M38 37.5422C37.053 37.8396 36.0452 38 35 38C33.9548 38 32.947 37.8396 32 37.5422L32 41.4676L33.4565 40.5937C34.4066 40.0237 35.5934 40.0237 36.5435 40.5937L38 41.4676L38 37.5422ZM28 35.1414C26.1486 33.3265 25 30.7974 25 28C25 22.4771 29.4771 18 35 18C40.5228 18 45 22.4771 45 28C45 30.7974 43.8514 33.3265 42 35.1414L42 43.2338C42 45.5657 39.4561 47.006 37.4565 45.8063L35 44.3324L32.5435 45.8063C30.5439 47.006 28 45.5657 28 43.2338L28 35.1414Z" fill-rule="evenodd"  fill="#FA9E14" >
</path>
<path d="M10 15C10 16.1046 10.8954 17 12 17L22 17C23.1046 17 24 16.1046 24 15C24 13.8954 23.1046 13 22 13L12 13C10.8954 13 10 13.8954 10 15Z" fill-rule="evenodd"  fill="#FA9E14" >
</path>
<path d="M10 23C10 24.1046 10.8954 25 12 25L17.5 25C18.6046 25 19.5 24.1046 19.5 23C19.5 21.8954 18.6046 21 17.5 21L12 21C10.8954 21 10 21.8954 10 23Z" fill-rule="evenodd"  fill="#FA9E14" >
</path>
</svg>
