<svg xmlns="http://www.w3.org/2000/svg" xmlns:xlink="http://www.w3.org/1999/xlink" width="48" height="48" viewBox="0 0 48 48" fill="none">
<path d="M45 17.6371L45 11C45 6.58 41.42 3 37 3L11 3C6.58 3 3 6.58 3 11L3 27C3 31.42 6.58 35 11 35L21.9921 35C21.4901 33.9603 21.1331 32.6504 21.0303 31L11 31C8.79 31 7 29.21 7 27L7 11C7 8.79 8.79 7 11 7L37 7C39.21 7 41 8.79 41 11L41 14.8764C42.7938 15.5803 44.0857 16.6164 45 17.6371ZM28 17L13 17C11.9 17 11 16.1 11 15C11 13.9 11.9 13 13 13L28 13C29.1 13 30 13.9 30 15C30 16.1 29.1 17 28 17ZM35 18C29.48 18 25 22.48 25 28C25 30.7954 26.1489 33.3241 28 35.1393L28 43.23C28 45.56 30.54 47 32.54 45.81L35 44.33L37.46 45.81C39.47 47 42 45.56 42 43.23L42 35.1393C43.8511 33.3241 45 30.7954 45 28C45 22.48 40.52 18 35 18ZM19 25L13 25C11.9 25 11 24.1 11 23C11 21.9 11.9 21 13 21L19 21C20.1 21 21 21.9 21 23C21 24.1 20.1 25 19 25ZM35 34C38.31 34 41 31.31 41 28C41 24.69 38.31 22 35 22C31.69 22 29 24.69 29 28C29 31.31 31.69 34 35 34ZM32 41.47L32 37.5416C32.9472 37.8394 33.9549 38 35 38C36.0451 38 37.0528 37.8394 38 37.5416L38 41.47L36.56 40.6C35.6 40.02 34.4 40.02 33.46 40.59L32 41.47ZM34.46 44.02C34.47 44.02 34.48 44.02 34.48 44.03L34.46 44.02ZM35.52 44.03L35.5 44.04C35.5 44.03 35.51 44.03 35.52 44.03Z" fill-rule="evenodd"  fill="#000000" >
</path>
</svg>
