<svg xmlns="http://www.w3.org/2000/svg" xmlns:xlink="http://www.w3.org/1999/xlink" width="48" height="48" viewBox="0 0 48 48" fill="none">
<path d="M34.0052 38.7554L35.5308 37.9895L34.0076 37.2299L34.0052 38.7554ZM30.0006 41.672C29.998 43.3105 31.7233 44.3767 33.1876 43.6416L40.0044 40.2194C41.8449 39.2955 41.8414 36.6672 39.9986 35.748L33.1942 32.3542C31.7329 31.6254 30.0148 32.6865 30.0122 34.3194L30.0006 41.672Z" fill-rule="evenodd"  fill="#1764FF" >
</path>
<path d="M14.8124 43.6417L14.8124 43.6417C16.2767 44.3768 18.002 43.3106 17.9994 41.6721L17.9878 34.3195C17.9852 32.6866 16.2671 31.6254 14.8058 32.3543L8.00145 35.7481C6.15856 36.6673 6.15513 39.2956 7.99562 40.2195L14.8124 43.6417ZM15.6897 41.8941L16.607 40.0669L16.607 40.0669L15.6897 41.8941ZM13.9948 38.7555L13.9924 37.23L12.4692 37.9896L13.9948 38.7555Z" fill-rule="evenodd"  fill="#1764FF" >
</path>
<path d="M24 7.96029L9.70254 30.3005C9.35018 30.8706 8.71945 31.2505 8 31.2505C6.89543 31.2505 6 30.3551 6 29.2505C6 28.8428 6.12197 28.4637 6.3314 28.1475L20.6309 5.80409C22.2042 3.34569 25.7958 3.34569 27.3691 5.80409L41.6686 28.1474C41.878 28.4636 42 28.8428 42 29.2505C42 30.3551 41.1046 31.2505 40 31.2505C39.2806 31.2505 38.6498 30.8706 38.2975 30.3005L24 7.96029L24 7.96029Z" fill-rule="evenodd"  fill="#4187FF" >
</path>
<path d="M10 23C10 24.1046 10.8954 25 12 25L36 25C37.1046 25 38 24.1046 38 23C38 21.8954 37.1046 21 36 21L12 21C10.8954 21 10 21.8954 10 23Z" fill-rule="evenodd"  fill="#4187FF" >
</path>
<path d="M11 38C11 39.1046 11.8954 40 13 40L35 40C36.1046 40 37 39.1046 37 38C37 36.8954 36.1046 36 35 36L13 36C11.8954 36 11 36.8954 11 38Z" fill-rule="evenodd"  fill="#1764FF" >
</path>
</svg>
