<svg xmlns="http://www.w3.org/2000/svg" xmlns:xlink="http://www.w3.org/1999/xlink" width="48" height="48" viewBox="0 0 48 48" fill="none">
<path d="M23.7002 4.79004C34.3502 4.79004 42.9902 13.39 42.9902 24C42.9902 28.97 41.0902 33.5 37.9802 36.91L40.7602 39.82C41.9702 41.09 41.0802 43.19 39.3202 43.2L23.7002 43.2C13.0602 43.2 4.42023 34.6 4.42023 24C4.42023 13.39 13.0602 4.79004 23.7002 4.79004Z"   fill="#BEDCFF" >
</path>
<path d="M40.6639 36.8212C43.5449 33.1026 44.9854 28.8276 44.9854 23.9961C44.9854 12.2843 35.4167 2.79004 23.7049 2.79004C11.952 2.79004 2.42441 12.2432 2.42441 23.9961C2.42441 35.7078 11.9931 45.2021 23.7049 45.2021L39.3192 45.2021C42.8402 45.2021 44.6436 40.9815 42.2097 38.4371L40.6639 36.8212ZM36.5527 38.3101C36.2421 37.9942 36.0355 37.5756 35.9887 37.1099C35.9821 37.0434 35.9786 36.9759 35.9786 36.9076L35.9786 36.9073C35.9786 36.3783 36.184 35.8972 36.5194 35.5395C39.4967 32.2664 40.9854 28.4186 40.9854 23.9961C40.9854 14.4934 33.2075 6.79004 23.7049 6.79004C14.1612 6.79004 6.42441 14.4524 6.42441 23.9961C6.42441 33.4987 14.2023 41.2021 23.7049 41.2021L39.3192 41.2021L36.5527 38.3101Z" fill-rule="evenodd"  fill="#1764FF" >
</path>
</svg>
