<svg xmlns="http://www.w3.org/2000/svg" xmlns:xlink="http://www.w3.org/1999/xlink" width="48" height="48" viewBox="0 0 48 48" fill="none">
<path d="M23.9952 2.79492C21.1125 2.79492 18.3532 3.35044 15.7172 4.46146C13.1715 5.5344 10.917 7.04863 8.95375 9.00417C6.98962 10.9606 5.46856 13.2076 4.39056 15.7453C3.27362 18.3749 2.71516 21.1281 2.71516 24.0049C2.71516 26.8795 3.27369 29.6309 4.39075 32.2591C5.46882 34.7955 6.98989 37.0415 8.95396 38.9972C10.9174 40.9521 13.1718 42.4659 15.7173 43.5386C18.3534 44.6495 21.1127 45.2049 23.9952 45.2049L37.2752 45.2049C38.3296 45.2049 39.2796 44.9112 40.125 44.3238C40.9089 43.7792 41.4911 43.0622 41.8715 42.1726C42.2518 41.2836 42.3684 40.3676 42.2212 39.4246C42.0676 38.4397 41.646 37.5725 40.9565 36.823C42.1354 35.2808 43.0852 33.6004 43.8058 31.7816C44.792 29.2924 45.2852 26.7002 45.2852 24.0049C45.2852 21.1279 44.7266 18.3747 43.6095 15.7452C42.5313 13.2073 41.0098 10.9602 39.0451 9.00392C37.0811 7.04835 34.8256 5.53414 32.2786 4.46129C29.6412 3.35038 26.88 2.79492 23.9952 2.79492ZM23.9952 6.79492C26.3414 6.79492 28.5849 7.24582 30.7259 8.14761C32.7943 9.01892 34.6266 10.2492 36.2227 11.8384C37.8184 13.4272 39.0535 15.2508 39.928 17.3093C40.8328 19.439 41.2852 21.6709 41.2852 24.0049C41.2852 26.1912 40.8858 28.2923 40.087 30.3082C39.328 32.224 38.2545 33.9516 36.8665 35.491C36.8642 35.4934 36.8618 35.4957 36.8595 35.498C36.8124 35.5451 36.7678 35.5944 36.7256 35.6459L35.537 36.9492L38.0017 39.5192C38.1499 39.6748 38.239 39.8488 38.2691 40.0412C38.2982 40.228 38.2731 40.4142 38.1938 40.5997C38.1146 40.7849 37.9976 40.9313 37.8428 41.0388C37.6834 41.1496 37.4942 41.2049 37.2752 41.2049L23.9952 41.2049C21.6516 41.2049 19.4101 40.7541 17.2706 39.8525C15.2034 38.9814 13.372 37.7514 11.7764 36.1626C10.1812 34.5744 8.94639 32.7516 8.07206 30.6944C7.16746 28.5662 6.71516 26.3363 6.71516 24.0049C6.71516 21.671 7.16752 19.4391 8.07226 17.3092C8.94659 15.2508 10.1814 13.4271 11.7766 11.8382C13.372 10.249 15.2034 9.01875 17.2707 8.14744C19.41 7.24576 21.6515 6.79492 23.9952 6.79492Z" fill-rule="evenodd"  fill="#000000" >
</path>
</svg>
