<svg xmlns="http://www.w3.org/2000/svg" xmlns:xlink="http://www.w3.org/1999/xlink" width="48" height="48" viewBox="0 0 48 48" fill="none">
<path d="M4 36C4 40.4183 7.58172 44 12 44L36 44C40.4183 44 44 40.4183 44 36L44 12C44 7.58172 40.4183 4 36 4L12 4C7.58172 4 4 7.58172 4 12L4 36ZM16.5 16C17.8807 16 19 17.1193 19 18.5C19 19.6046 19.8954 20.5 21 20.5C22.1046 20.5 23 19.6046 23 18.5C23 14.9102 20.0899 12 16.5 12C12.9101 12 10 14.9102 10 18.5C10 18.5847 10.0053 18.6681 10.0155 18.75C10.0053 18.8319 10 18.9153 10 19L10 29C10 29.0847 10.0053 29.1681 10.0155 29.25C10.0053 29.3319 10 29.4153 10 29.5C10 33.0898 12.9101 36 16.5 36C20.0899 36 23 33.0898 23 29.5C23 28.3954 22.1046 27.5 21 27.5C19.8954 27.5 19 28.3954 19 29.5C19 30.8807 17.8807 32 16.5 32C15.1193 32 14 30.8807 14 29.5C14 29.4153 13.9947 29.3319 13.9845 29.25C13.9947 29.1681 14 29.0847 14 29L14 19C14 18.9153 13.9947 18.8319 13.9845 18.75C13.9947 18.6681 14 18.5847 14 18.5C14 17.1193 15.1193 16 16.5 16ZM29 14C29 12.8954 28.1046 12 27 12C25.8954 12 25 12.8954 25 14L25 34C25 35.1046 25.8954 36 27 36C28.1046 36 29 35.1046 29 34L29 26.5C29 25.1193 30.1193 24 31.5 24C32.8807 24 34 25.1193 34 26.5L34 34C34 35.1046 34.8954 36 36 36C37.1046 36 38 35.1046 38 34L38 26C38 25.7881 37.967 25.5839 37.906 25.3922C37.3802 22.3301 34.7122 20 31.5 20C30.6141 20 29.7696 20.1772 29 20.4982L29 14Z" fill-rule="evenodd"  fill="#000000" >
</path>
</svg>
