<svg xmlns="http://www.w3.org/2000/svg" xmlns:xlink="http://www.w3.org/1999/xlink" width="48" height="48" viewBox="0 0 48 48" fill="none">
<path d="M12 44L36 44C40.42 44 44 40.42 44 36L44 12C44 7.58 40.42 4 36 4L12 4C7.58 4 4 7.58 4 12L4 36C4 40.42 7.58 44 12 44ZM40 36L40 12C40 9.79 38.21 8 36 8L12 8C9.79 8 8 9.79 8 12L8 36C8 38.21 9.79 40 12 40L36 40C38.21 40 40 38.21 40 36ZM19 18.5C19 19.6 19.9 20.5 21 20.5C22.1 20.5 23 19.6 23 18.5C23 14.91 20.09 12 16.5 12C12.91 12 10 14.91 10 18.5C10 18.5846 10.0053 18.6681 10.0157 18.75C10.0053 18.8319 10 18.9154 10 19L10 29C10 29.0846 10.0053 29.1681 10.0157 29.25C10.0053 29.3319 10 29.4154 10 29.5C10 33.09 12.91 36 16.5 36C20.09 36 23 33.09 23 29.5C23 28.4 22.1 27.5 21 27.5C19.9 27.5 19 28.4 19 29.5C19 30.88 17.88 32 16.5 32C15.12 32 14 30.88 14 29.5C14 29.4154 13.9947 29.3319 13.9843 29.25C13.9947 29.1681 14 29.0846 14 29L14 19C14 18.9154 13.9947 18.8319 13.9843 18.75C13.9947 18.6681 14 18.5846 14 18.5C14 17.12 15.12 16 16.5 16C17.88 16 19 17.12 19 18.5ZM29 34C29 35.1 28.1 36 27 36C25.9 36 25 35.1 25 34L25 14C25 12.9 25.9 12 27 12C28.1 12 29 12.9 29 14L29 20.4981C29.7696 20.1772 30.6141 20 31.5 20C34.7146 20 37.384 22.3333 37.9071 25.3988C37.9674 25.5887 38 25.7907 38 26L38 34C38 35.1 37.1 36 36 36C34.9 36 34 35.1 34 34L34 26.5C34 25.12 32.88 24 31.5 24C30.12 24 29 25.12 29 26.5L29 34Z" fill-rule="evenodd"  fill="#000000" >
</path>
</svg>
