<svg xmlns="http://www.w3.org/2000/svg" xmlns:xlink="http://www.w3.org/1999/xlink" width="48" height="48" viewBox="0 0 48 48" fill="none">
<path d="M42.4208 17.2471C45.2109 19.466 45.6739 23.5266 43.455 26.3166L30.6199 42.4556C28.4011 45.2456 24.3405 45.7086 21.5505 43.4897L5.41147 30.6546C2.62145 28.4358 2.15842 24.3753 4.37729 21.5852L17.2124 5.44623C19.4313 2.65619 23.4918 2.19317 26.2818 4.41205L42.4208 17.2471Z" fill-rule="evenodd"  fill="#6BA6FF" >
</path>
<path d="M25.0328 44.8717C23.802 44.7709 22.5919 44.3181 21.5528 43.4917L17.0628 39.9217L5.41281 30.6217C3.98214 29.4869 3.16193 27.8684 3.00281 26.1817C2.85858 24.5869 3.30734 22.934 4.38281 21.5817L11.3328 12.8417L17.2428 5.4317C18.1326 4.31635 19.3138 3.57982 20.5928 3.2317C22.5013 2.72116 24.618 3.08761 26.2828 4.4117L26.9028 4.9117C28.1673 6.24889 28.7487 7.8472 28.6328 9.7117L25.0328 44.8717Z" fill-rule="evenodd"  fill="#1764FF" >
</path>
</svg>
