<svg xmlns="http://www.w3.org/2000/svg" xmlns:xlink="http://www.w3.org/1999/xlink" width="48" height="48" viewBox="0 0 48 48" fill="none">
<path d="M24.9584 44.771C26.6852 45.078 28.5217 44.4528 29.6897 42.9842L43.9107 25.1036C45.607 22.971 45.2529 19.8655 43.1202 18.1693L29.4152 7.26928C29.4285 7.55065 29.4261 7.83514 29.4076 8.12279L29.4035 8.18448L25.3771 43.5908C25.3483 43.8437 25.2866 44.0885 25.19 44.3229C25.1262 44.4796 25.0489 44.6293 24.9584 44.771ZM12.403 12.1599L18.3053 4.7388C18.509 4.48272 18.733 4.25228 18.9732 4.04795C20.733 2.55657 23.3559 2.46616 25.2311 3.95662L25.554 4.21161C26.4773 5.15341 27.0407 6.46948 26.9461 7.9665L23.1913 40.9731L23.1666 41.1869L22.926 43.3111C22.9136 43.4201 22.8396 43.5188 22.7389 43.562C22.6512 43.5988 22.5516 43.5923 22.4681 43.5462L4.87474 29.5535C3.34981 28.3409 2.73426 26.4073 3.12737 24.6243C3.28478 23.9156 3.60147 23.2307 4.08354 22.6242L12.403 12.1599Z" fill-rule="evenodd"  fill="#000000" >
</path>
</svg>
