<svg xmlns="http://www.w3.org/2000/svg" xmlns:xlink="http://www.w3.org/1999/xlink" width="48" height="48" viewBox="0 0 48 48" fill="none">
<path d="M26.6313 4.66626L26.3424 4.42743C25.6341 3.864 24.8644 3.46859 24.0234 3.24234C23.2232 3.0215 22.4003 2.95422 21.5657 3.04932C21.4834 3.0587 21.4015 3.0696 21.3201 3.082C20.5635 3.19311 19.8477 3.43381 19.1795 3.79561C18.4121 4.21523 17.7599 4.76262 17.213 5.43892L7.61971 17.5008L4.38112 21.5637C3.83416 22.2399 3.44756 22.9986 3.21137 23.8407C2.98173 24.6519 2.91445 25.4748 3.00954 26.3094C3.06104 26.7614 3.15817 27.1994 3.30093 27.6232C3.42135 27.988 3.57442 28.3414 3.75902 28.6823C4.1687 29.4508 4.71609 30.103 5.40233 30.6488L21.5498 43.4825C22.2361 44.0283 22.9947 44.4148 23.827 44.6521C24.6371 44.8718 25.46 44.939 26.2946 44.8439C27.1292 44.7487 27.9158 44.498 28.6557 44.1017C29.4132 43.6832 30.0654 43.1358 30.6112 42.4495L43.446 26.312C43.9917 25.6258 44.3783 24.8671 44.6156 24.0349C44.8352 23.2248 44.9025 22.4019 44.8073 21.5673C44.7122 20.7327 44.4615 19.946 44.0651 19.2061C43.6466 18.4487 43.0992 17.7965 42.413 17.2507L26.841 4.85698C26.8196 4.83475 26.7981 4.81264 26.7763 4.79065L26.7088 4.72789L26.6313 4.66626ZM21.9028 7.03934C21.9297 7.0354 21.9567 7.03188 21.9838 7.02879C22.3017 6.99255 22.6165 7.01706 22.9282 7.1023C23.2398 7.18755 23.5285 7.33581 23.7831 7.53828C23.7831 7.53828 23.793 7.53715 23.7941 7.54708L24.1037 7.79348C24.2602 7.98298 24.3792 8.19192 24.4729 8.42476C24.5997 8.74245 24.6481 9.07913 24.627 9.42374L21.7747 38.3626L7.89504 27.494C7.62941 27.2827 7.42 27.0348 7.26681 26.7503C7.19914 26.6247 7.14311 26.4977 7.09851 26.3676C7.04678 26.2091 7.01134 26.0459 6.9922 25.8781C6.95596 25.5601 6.98046 25.2453 7.06684 24.9436C7.15096 24.622 7.29922 24.3333 7.50169 24.0788L10.7496 19.9951L20.3613 7.93708C20.5726 7.67145 20.8205 7.46204 21.105 7.30885C21.3556 7.17386 21.6193 7.08428 21.9028 7.03934ZM25.5382 40.8857L28.4614 11.2618L39.9328 20.3918C40.1874 20.5943 40.3968 20.8421 40.55 21.1266C40.7021 21.4012 40.7968 21.7024 40.8331 22.0203C40.8693 22.3383 40.8448 22.6531 40.7584 22.9548C40.6743 23.2764 40.526 23.565 40.3136 23.8207L27.4788 39.9583C27.2775 40.2228 27.0296 40.4322 26.7352 40.5866C26.4607 40.7386 26.1595 40.8334 25.8415 40.8696C25.74 40.8812 25.6388 40.8865 25.5382 40.8857Z" fill-rule="evenodd"  fill="#000000" >
</path>
</svg>
