<svg xmlns="http://www.w3.org/2000/svg" xmlns:xlink="http://www.w3.org/1999/xlink" width="48" height="48" viewBox="0 0 48 48" fill="none">
<path d="M24 45C35.598 45 45 35.598 45 24C45 12.402 35.598 3 24 3C12.402 3 3 12.402 3 24C3 35.598 12.402 45 24 45Z" fill-rule="evenodd"  fill="#FF1A1A" >
</path>
<path d="M23.9994 21.1711L29.0836 16.0855C29.8646 15.3043 31.1309 15.3042 31.912 16.0851C32.6932 16.866 32.6934 18.1323 31.9124 18.9135L26.8278 23.9995L31.9136 29.0853C32.6946 29.8663 32.6946 31.1327 31.9136 31.9137C31.1326 32.6947 29.8662 32.6947 29.0852 31.9137L23.9998 26.8283L18.9157 31.9139C18.1347 32.6951 16.8684 32.6952 16.0873 31.9143C15.3061 31.1334 15.3059 29.8671 16.0869 29.0859L21.1714 23.9999L16.0864 18.9149C15.3053 18.1339 15.3054 16.8676 16.0864 16.0865C16.8675 15.3055 18.1338 15.3055 18.9148 16.0865L23.9994 21.1711Z" fill-rule="evenodd"  fill="#FFECE8" >
</path>
</svg>
