<svg xmlns="http://www.w3.org/2000/svg" xmlns:xlink="http://www.w3.org/1999/xlink" width="48" height="48" viewBox="0 0 48 48" fill="none">
<path d="M2 36C2 40.4183 5.58172 44 10 44L38 44C42.4183 44 46 40.4183 46 36L46 12C46 7.58172 42.4183 4 38 4L10 4C5.58172 4 2 7.58172 2 12L2 36ZM38 40L10 40C7.79086 40 6 38.2091 6 36L6 12C6 9.79086 7.79086 8 10 8L38 8C40.2091 8 42 9.79086 42 12L42 36C42 38.2091 40.2091 40 38 40Z" fill-rule="evenodd"  fill="#787878" >
</path>
<path d="M14 25L12 25C10.8954 25 10 25.8954 10 27C10 28.1046 10.8954 29 12 29L14 29C15.1046 29 16 28.1046 16 27C16 25.8954 15.1046 25 14 25Z" fill-rule="evenodd"  fill="#787878" >
</path>
<path d="M18 27C18 28.1046 18.8954 29 20 29L26 29C27.1046 29 28 28.1046 28 27C28 25.8954 27.1046 25 26 25L20 25C18.8954 25 18 25.8954 18 27Z" fill-rule="evenodd"  fill="#424242" >
</path>
<path d="M32 29L36 29C37.1046 29 38 28.1046 38 27C38 25.8954 37.1046 25 36 25L32 25C30.8954 25 30 25.8954 30 27C30 28.1046 30.8954 29 32 29Z" fill-rule="evenodd"  fill="#787878" >
</path>
<path d="M12 36L16 36C17.1046 36 18 35.1046 18 34C18 32.8954 17.1046 32 16 32L12 32C10.8954 32 10 32.8954 10 34C10 35.1046 10.8954 36 12 36Z" fill-rule="evenodd"  fill="#424242" >
</path>
<path d="M36 32L22 32C20.8954 32 20 32.8954 20 34C20 35.1046 20.8954 36 22 36L36 36C37.1046 36 38 35.1046 38 34C38 32.8954 37.1046 32 36 32Z" fill-rule="evenodd"  fill="#787878" >
</path>
</svg>
