<svg xmlns="http://www.w3.org/2000/svg" xmlns:xlink="http://www.w3.org/1999/xlink" width="48" height="48" viewBox="0 0 48 48" fill="none">
<path d="M24 3C21.15 3 18.43 3.55 15.83 4.65C13.31 5.71 11.09 7.21 9.15 9.15C7.21 11.09 5.71 13.31 4.65 15.83C3.55 18.43 3 21.15 3 24C3 26.85 3.55 29.57 4.65 32.17C5.71 34.69 7.21 36.91 9.15 38.85C11.09 40.79 13.31 42.29 15.83 43.35C18.43 44.45 21.15 45 24 45C26.85 45 29.57 44.45 32.17 43.35C34.69 42.29 36.91 40.79 38.85 38.85C40.79 36.91 42.29 34.69 43.35 32.17C44.45 29.57 45 26.85 45 24C45 21.15 44.45 18.43 43.35 15.83C42.29 13.31 40.79 11.09 38.85 9.15C36.91 7.21 34.69 5.71 32.17 4.65C29.57 3.55 26.85 3 24 3ZM36.02 36.02C37.59 34.45 38.8 32.65 39.66 30.61C40.55 28.51 41 26.31 41 24C41 21.69 40.55 19.49 39.66 17.39C38.8 15.35 37.59 13.55 36.02 11.98C34.45 10.41 32.65 9.2 30.61 8.34C28.51 7.45 26.31 7 24 7C21.69 7 19.49 7.45 17.39 8.34C15.35 9.2 13.55 10.41 11.98 11.98C10.41 13.55 9.2 15.35 8.34 17.39C7.45 19.49 7 21.69 7 24C7 26.31 7.45 28.51 8.34 30.61C9.2 32.65 10.41 34.45 11.98 36.02C13.55 37.59 15.35 38.8 17.39 39.66C19.49 40.55 21.69 41 24 41C26.31 41 28.51 40.55 30.61 39.66C32.65 38.8 34.45 37.59 36.02 36.02ZM15.5113 30.3C15.5013 30.37 15.5013 30.43 15.5013 30.5C15.5013 30.57 15.5013 30.63 15.5113 30.7C15.5213 30.76 15.5313 30.83 15.5413 30.89C15.5513 30.95 15.5713 31.02 15.5913 31.08C15.6113 31.14 15.6313 31.21 15.6513 31.27C15.6813 31.33 15.7113 31.39 15.7413 31.44C15.7713 31.5 15.8013 31.56 15.8413 31.61C15.8713 31.67 15.9113 31.72 15.9513 31.77C16.0013 31.82 16.0413 31.87 16.0913 31.91C16.1313 31.96 16.1813 32 16.2313 32.05C16.2813 32.09 16.3313 32.13 16.3913 32.16C16.4413 32.2 16.5013 32.23 16.5613 32.26C16.6213 32.29 16.6713 32.32 16.7313 32.35C16.8013 32.37 16.8613 32.39 16.9213 32.41C16.9813 32.43 17.0513 32.45 17.1113 32.46C17.1713 32.47 17.2413 32.48 17.3013 32.49C17.3713 32.5 17.4313 32.5 17.5013 32.5C17.5713 32.5 17.6313 32.5 17.7013 32.49C17.7613 32.48 17.8313 32.47 17.8913 32.46C17.9513 32.45 18.0213 32.43 18.0813 32.41C18.1413 32.39 18.2013 32.37 18.2713 32.35C18.3313 32.32 18.3913 32.29 18.4413 32.26C18.5013 32.23 18.5613 32.2 18.6113 32.16C18.6713 32.13 18.7213 32.09 18.7713 32.05C18.8213 32 18.8713 31.96 18.9113 31.91L23.9976 26.8237L29.0806 31.9106L29.0906 31.9106C29.1306 31.9606 29.1806 32.0006 29.2306 32.0506C29.2806 32.0906 29.3306 32.1306 29.3906 32.1606C29.4406 32.2006 29.5006 32.2306 29.5606 32.2606C29.6206 32.2906 29.6706 32.3206 29.7306 32.3506C29.8006 32.3706 29.8606 32.3906 29.9206 32.4106C29.9806 32.4306 30.0506 32.4506 30.1106 32.4606C30.1706 32.4706 30.2406 32.4806 30.3006 32.4906C30.3706 32.5006 30.4306 32.5006 30.5006 32.5006C30.5706 32.5006 30.6306 32.5006 30.7006 32.4906C30.7606 32.4806 30.8306 32.4706 30.8906 32.4606C30.9506 32.4506 31.0206 32.4306 31.0806 32.4106L31.2606 32.3506C31.3306 32.3206 31.3806 32.2906 31.4406 32.2606C31.5006 32.2306 31.5606 32.2006 31.6106 32.1606C31.6606 32.1306 31.7206 32.0906 31.7706 32.0406C31.8206 32.0006 31.8706 31.9606 31.9106 31.9106C31.9606 31.8706 32.0006 31.8206 32.0406 31.7706C32.0906 31.7206 32.1306 31.6606 32.1606 31.6106C32.2006 31.5606 32.2306 31.5006 32.2606 31.4406C32.2906 31.3806 32.3206 31.3306 32.3506 31.2606L32.4106 31.0806C32.4306 31.0206 32.4506 30.9506 32.4606 30.8906C32.4706 30.8306 32.4806 30.7606 32.4906 30.7006C32.5006 30.6306 32.5006 30.5706 32.5006 30.5006C32.5006 30.4306 32.5006 30.3706 32.4906 30.3006C32.4806 30.2406 32.4706 30.1706 32.4606 30.1106C32.4506 30.0506 32.4306 29.9806 32.4106 29.9206C32.3906 29.8606 32.3706 29.8006 32.3506 29.7306C32.3206 29.6706 32.2906 29.6206 32.2606 29.5606C32.2306 29.5006 32.2006 29.4406 32.1606 29.3906C32.1306 29.3306 32.0906 29.2806 32.0506 29.2306C32.0006 29.1806 31.9606 29.1306 31.9106 29.0906L31.9106 29.0806L26.8237 23.9976L31.9113 18.91C31.9613 18.87 32.0013 18.82 32.0413 18.77C32.0913 18.72 32.1213 18.66 32.1613 18.61C32.2013 18.56 32.2313 18.5 32.2613 18.44L32.3513 18.26L32.4113 18.08C32.4313 18.02 32.4513 17.95 32.4613 17.89C32.4713 17.82 32.4813 17.76 32.4913 17.69C32.4913 17.63 32.5013 17.56 32.5013 17.5C32.5013 17.43 32.4913 17.37 32.4913 17.3C32.4813 17.24 32.4713 17.17 32.4613 17.11C32.4513 17.04 32.4313 16.98 32.4113 16.92C32.3913 16.86 32.3713 16.79 32.3413 16.73C32.3213 16.67 32.2913 16.61 32.2613 16.56C32.2313 16.5 32.2013 16.44 32.1613 16.39C32.1213 16.33 32.0813 16.28 32.0413 16.23C32.0013 16.18 31.9613 16.13 31.9113 16.09C31.8713 16.04 31.8213 16 31.7713 15.95C31.7213 15.91 31.6613 15.87 31.6113 15.84C31.5513 15.8 31.5013 15.77 31.4413 15.74L31.2613 15.65L31.0813 15.59C31.0213 15.57 30.9513 15.55 30.8913 15.54C30.8213 15.53 30.7613 15.52 30.6913 15.51C30.6313 15.5 30.5613 15.5 30.5013 15.5C30.4313 15.5 30.3713 15.5 30.3013 15.51C30.2413 15.52 30.1713 15.53 30.1113 15.54C30.0413 15.55 29.9813 15.57 29.9213 15.59C29.8513 15.61 29.7913 15.63 29.7313 15.65L29.5513 15.74C29.5013 15.77 29.4413 15.8 29.3913 15.84C29.3313 15.87 29.2813 15.91 29.2313 15.95C29.1813 16 29.1313 16.04 29.0813 16.09L23.9996 21.1756L18.9106 16.0906C18.8706 16.0406 18.8206 16.0006 18.7706 15.9506C18.7206 15.9106 18.6706 15.8706 18.6106 15.8406C18.5606 15.8006 18.5006 15.7706 18.4406 15.7406C18.3906 15.7106 18.3306 15.6806 18.2706 15.6506C18.2006 15.6306 18.1406 15.6106 18.0806 15.5906C18.0206 15.5706 17.9506 15.5506 17.8906 15.5406C17.8306 15.5306 17.7606 15.5206 17.7006 15.5106C17.6306 15.5006 17.5706 15.5006 17.5006 15.5006C17.4306 15.5006 17.3706 15.5006 17.3006 15.5106C17.2406 15.5206 17.1706 15.5306 17.1106 15.5406C17.0506 15.5506 16.9806 15.5706 16.9206 15.5906C16.8606 15.6106 16.8006 15.6306 16.7306 15.6506C16.6706 15.6806 16.6106 15.7106 16.5606 15.7406C16.5006 15.7706 16.4406 15.8006 16.3906 15.8406C16.3306 15.8706 16.2806 15.9106 16.2306 15.9506C16.1806 16.0006 16.1306 16.0406 16.0906 16.0906C16.0406 16.1306 16.0006 16.1806 15.9506 16.2306C15.9106 16.2806 15.8706 16.3306 15.8406 16.3906C15.8006 16.4406 15.7706 16.5006 15.7406 16.5606C15.7106 16.6106 15.6806 16.6706 15.6506 16.7306C15.6306 16.8006 15.6106 16.8606 15.5906 16.9206C15.5706 16.9806 15.5506 17.0506 15.5406 17.1106C15.5306 17.1706 15.5206 17.2406 15.5106 17.3006C15.5006 17.3706 15.5006 17.4306 15.5006 17.5006C15.5006 17.5706 15.5006 17.6306 15.5106 17.7006C15.5206 17.7606 15.5306 17.8306 15.5406 17.8906C15.5506 17.9506 15.5706 18.0206 15.5906 18.0806C15.6106 18.1406 15.6306 18.2006 15.6506 18.2706C15.6806 18.3306 15.7106 18.3906 15.7406 18.4406C15.7706 18.5006 15.8006 18.5606 15.8406 18.6106C15.8706 18.6706 15.9106 18.7206 15.9506 18.7706C16.0006 18.8206 16.0406 18.8706 16.0906 18.9106L21.1767 24.0007L16.0913 29.09C16.0413 29.13 16.0013 29.18 15.9513 29.23C15.9113 29.28 15.8713 29.33 15.8413 29.39C15.8013 29.44 15.7713 29.5 15.7413 29.56C15.7113 29.62 15.6813 29.67 15.6513 29.73C15.6313 29.8 15.6113 29.86 15.5913 29.92C15.5713 29.98 15.5513 30.05 15.5413 30.11C15.5313 30.17 15.5213 30.24 15.5113 30.3Z" fill-rule="evenodd"  fill="#000000" >
</path>
</svg>
