<svg xmlns="http://www.w3.org/2000/svg" xmlns:xlink="http://www.w3.org/1999/xlink" width="48" height="48" viewBox="0 0 48 48" fill="none">
<path d="M28.3802 8C24.3296 8 20.8919 10.7238 19.6764 14.5016C18.6805 14.2397 17.637 14.1005 16.562 14.1005C9.62479 14.1005 4 19.8975 4 27.0502C4 34.2013 9.62479 40 16.562 40C20.2041 40 25.157 39.9997 25.157 39.9997C25.157 39.9997 30.6955 39.9997 34 39.9997C39.5223 39.9997 44 35.4372 44 29.8103C44 25.3795 41.2236 21.6088 37.1818 20.2059C37.4238 19.3528 37.5537 18.4499 37.5537 17.5157C37.5537 12.261 33.4463 8 28.3802 8Z" fill-rule="evenodd"  fill="#BEDCFF" >
</path>
<path d="M32.7544 6.91644C31.3621 6.30548 29.904 6 28.3802 6C27.1607 6 25.9773 6.19802 24.8298 6.59407C23.7228 6.97615 22.6979 7.52535 21.7551 8.24169C20.8281 8.94605 20.0253 9.77779 19.3468 10.7369C19.01 11.213 18.7119 11.7091 18.4525 12.2252C17.8288 12.1421 17.1986 12.1005 16.562 12.1005C14.5803 12.1005 12.684 12.4953 10.8732 13.2847C9.12931 14.0451 7.58625 15.117 6.24406 16.5005C4.90594 17.8798 3.87024 19.463 3.13697 21.2501C2.37899 23.0974 2 25.0307 2 27.0502C2 29.0693 2.37899 31.0025 3.13698 32.8497C3.87026 34.6367 4.90593 36.2199 6.24399 37.5993C7.5862 38.983 9.12924 40.055 10.8731 40.8155C12.684 41.6052 14.5803 42 16.562 42L18.9633 42L25.1571 41.9997L34 41.9997C40.732 41.9997 46 36.5423 46 29.8103C46 28.5074 45.8019 27.2444 45.4057 26.0213C45.0195 24.829 44.4615 23.7242 43.7317 22.7069C43.0075 21.6973 42.1471 20.8197 41.1505 20.074C40.6138 19.6724 40.0504 19.3188 39.4603 19.0131C39.5226 18.5194 39.5537 18.0203 39.5537 17.5157C39.5537 15.9638 39.264 14.4775 38.6847 13.0568C38.1237 11.6811 37.331 10.4619 36.3066 9.39927C35.2773 8.3315 34.0932 7.50389 32.7544 6.91644ZM26.1348 10.3752C26.8595 10.1251 27.608 10 28.3802 10C29.3447 10 30.267 10.1931 31.1472 10.5793C32.0034 10.955 32.7633 11.4871 33.4269 12.1754C34.0954 12.8689 34.6134 13.6662 34.9808 14.5672C35.3627 15.5038 35.5537 16.4866 35.5537 17.5157C35.5537 18.2496 35.455 18.9644 35.2577 19.6601L34.7426 21.4762L36.526 22.0953C37.3333 22.3755 38.076 22.7693 38.7541 23.2767C39.4213 23.7759 39.9971 24.3631 40.4815 25.0384C40.9692 25.7183 41.3421 26.4568 41.6004 27.254C41.8668 28.0765 42 28.9286 42 29.8103C42 34.3332 38.5229 37.9997 34 37.9997L25.1569 37.9997L18.9632 38L16.562 38C15.1364 38 13.7731 37.7163 12.472 37.1489C11.2101 36.5987 10.0912 35.8205 9.1151 34.8142C8.1349 33.8037 7.37572 32.6428 6.83755 31.3313C6.27918 29.9705 6 28.5435 6 27.0502C6 25.5565 6.27919 24.1293 6.83756 22.7685C7.37569 21.457 8.13485 20.2961 9.11503 19.2857C10.091 18.2797 11.21 17.5015 12.4719 16.9514C13.773 16.3841 15.1363 16.1005 16.562 16.1005C17.449 16.1005 18.3176 16.2123 19.1678 16.4359L21.0001 16.9177L21.5803 15.1142C21.8197 14.3702 22.1637 13.6812 22.6123 13.0471C23.0539 12.4229 23.5748 11.8827 24.1751 11.4266C24.778 10.9685 25.4313 10.618 26.1348 10.3752Z" fill-rule="evenodd"  fill="#6BA6FF" >
</path>
<path d="M46.0001 29.8101C46.0001 36.5424 40.7324 42.0001 34.0001 42.0001L16.5601 42.0001C15.4555 42.0001 14.5601 41.1047 14.5601 40.0001C14.5601 38.8955 15.4555 38.0001 16.5601 38.0001L34.0001 38.0001C38.5233 38.0001 42.0001 34.3333 42.0001 29.8101C42.0001 28.7055 42.8955 27.8101 44.0001 27.8101C45.1047 27.8101 46.0001 28.7055 46.0001 29.8101Z" fill-rule="evenodd"  fill="#1764FF" >
</path>
</svg>
