<svg xmlns="http://www.w3.org/2000/svg" xmlns:xlink="http://www.w3.org/1999/xlink" width="47.999755859375" height="48" viewBox="0 0 47.999755859375 48" fill="none">
<path d="M6.24 37.6C3.41 34.68 2 31.17 2 27.05C2 22.93 3.41 19.42 6.24 16.5C9.09 13.57 12.53 12.1 16.56 12.1C17.19 12.1 17.82 12.14 18.45 12.22C19.22 10.65 20.32 9.33 21.76 8.24C23.72 6.75 25.93 6 28.38 6C31.48 6 34.12 7.13 36.31 9.4C38.47 11.65 39.55 14.35 39.55 17.52C39.55 18.01 39.52 18.5 39.46 18.98C43.82 21.03 46 24.64 46 29.81C46 36.54 40.73 42 34 42L16.56 42C12.53 42 9.09 40.53 6.24 37.6ZM34 38L16.56 38C13.65 38 11.17 36.94 9.11 34.81C7.04 32.67 6 30.09 6 27.05C6 24.01 7.04 21.43 9.11 19.29C11.17 17.16 13.65 16.1 16.56 16.1C17.44 16.1 18.32 16.21 19.18 16.44L21.01 16.91L21.58 15.11C22.68 11.7 24.94 10 28.38 10C30.35 10 32.03 10.72 33.43 12.17C34.84 13.65 35.55 15.43 35.55 17.52C35.55 18.25 35.45 18.96 35.25 19.67L34.75 21.48L36.53 22.1C40.18 23.36 42 25.93 42 29.81C42 34.33 38.52 38 34 38ZM26 24.8264L29.59 28.41C29.95 28.78 30.45 29 31 29C32.1 29 33 28.1 33 27C33 26.45 32.78 25.95 32.41 25.59L26.82 20C25.26 18.44 22.74 18.44 21.18 20L15.59 25.59C15.22 25.95 15 26.45 15 27C15 28.1 15.9 29 17 29C17.55 29 18.05 28.78 18.41 28.41L22 24.8264L22 34C22 35.1 22.9 36 24 36C25.1 36 26 35.1 26 34L26 24.8264Z" fill-rule="evenodd"  fill="#000000" >
</path>
</svg>
