<svg xmlns="http://www.w3.org/2000/svg" xmlns:xlink="http://www.w3.org/1999/xlink" width="48" height="48" viewBox="0 0 48 48" fill="none">
<path d="M3 24C3 25.1046 3.89543 26 5 26L17 26C18.1046 26 19 25.1046 19 24C19 22.8954 18.1046 22 17 22L5 22C3.89543 22 3 22.8954 3 24Z" fill-rule="evenodd"  fill="#4187FF" >
</path>
<path d="M29 24C29 25.1046 29.8954 26 31 26L43 26C44.1046 26 45 25.1046 45 24C45 22.8954 44.1046 22 43 22L31 22C29.8954 22 29 22.8954 29 24Z" fill-rule="evenodd"  fill="#4187FF" >
</path>
<path d="M31 24C31 27.866 27.866 31 24 31C20.134 31 17 27.866 17 24C17 20.134 20.134 17 24 17C27.866 17 31 20.134 31 24Z"   fill="#BEDCFF" >
</path>
<path d="M24 33C28.9706 33 33 28.9706 33 24C33 19.0294 28.9706 15 24 15C19.0294 15 15 19.0294 15 24C15 28.9706 19.0294 33 24 33ZM24 19C26.7614 19 29 21.2386 29 24C29 26.7614 26.7614 29 24 29C21.2386 29 19 26.7614 19 24C19 21.2386 21.2386 19 24 19Z" fill-rule="evenodd"  fill="#1764FF" >
</path>
</svg>
