<svg xmlns="http://www.w3.org/2000/svg" xmlns:xlink="http://www.w3.org/1999/xlink" width="48" height="48" viewBox="0 0 48 48" fill="none">
<path d="M12 20.5C13.1046 20.5 14 21.3954 14 22.5L14 27C14 28.1046 13.1046 29 12 29C10.8954 29 10 28.1046 10 27L10 22.5C10 21.3954 10.8954 20.5 12 20.5ZM20 20.5C21.1046 20.5 22 21.3954 22 22.5L22 27C22 28.1046 21.1046 29 20 29C18.8954 29 18 28.1046 18 27L18 22.5C18 21.3954 18.8954 20.5 20 20.5ZM28 20.5C29.1046 20.5 30 21.3954 30 22.5L30 27C30 28.1046 29.1046 29 28 29C26.8954 29 26 28.1046 26 27L26 22.5C26 21.3954 26.8954 20.5 28 20.5ZM36 20.5C37.1046 20.5 38 21.3954 38 22.5L38 27C38 28.1046 37.1046 29 36 29C34.8954 29 34 28.1046 34 27L34 22.5C34 21.3954 34.8954 20.5 36 20.5ZM16 28C17.1046 28 18 28.8954 18 30L18 34.5C18 35.6046 17.1046 36.5 16 36.5C14.8954 36.5 14 35.6046 14 34.5L14 30C14 28.8954 14.8954 28 16 28ZM24 28C25.1046 28 26 28.8954 26 30L26 34.5C26 35.6046 25.1046 36.5 24 36.5C22.8954 36.5 22 35.6046 22 34.5L22 30C22 28.8954 22.8954 28 24 28ZM34 30C34 28.8954 33.1046 28 32 28C30.8954 28 30 28.8954 30 30L30 34.5C30 35.6046 30.8954 36.5 32 36.5C33.1046 36.5 34 35.6046 34 34.5L34 30Z" fill-rule="evenodd"  fill="#424242" >
</path>
<path d="M11 2.5C6.58172 2.5 3 6.08172 3 10.5L3 36.5C3 40.9183 6.58172 44.5 11 44.5L37 44.5C41.4183 44.5 45 40.9183 45 36.5L45 19.5C45 15.0817 41.4183 11.5 37 11.5L29.8981 11.5L24.2849 5.18509C23.5258 4.33114 22.6252 3.67013 21.5829 3.20208C20.5406 2.73403 19.4481 2.5 18.3056 2.5L11 2.5ZM29 15.5L7 15.5L7 20L41 20L41 19.5C41 17.2909 39.2091 15.5 37 15.5L29 15.5ZM41 24L7 24L7 33L41 33L41 24ZM40.9691 37L7.03095 37C7.277 38.9731 8.96019 40.5 11 40.5L37 40.5C39.0398 40.5 40.723 38.9731 40.9691 37ZM24.5463 11.5L21.2952 7.84254C20.9157 7.41557 20.4653 7.08507 19.9442 6.85104C19.4231 6.61701 18.8769 6.5 18.3056 6.5L11 6.5C8.79086 6.5 7 8.29086 7 10.5L7 11.5L24.5463 11.5Z" fill-rule="evenodd"  fill="#787878" >
</path>
</svg>
