<svg xmlns="http://www.w3.org/2000/svg" xmlns:xlink="http://www.w3.org/1999/xlink" width="48" height="48" viewBox="0 0 48 48" fill="none">
<path d="M10 44C6.68629 44 4 41.3137 4 38L4 25C4 20.5817 7.58172 17 12 17L12 12C12 7.58172 15.5817 4 20 4L36 4C40.4183 4 44 7.58172 44 12L44 38C44 41.3137 41.3137 44 38 44L36 44L36 36C36 33.7909 34.2091 32 32 32L24 32C21.7909 32 20 33.7909 20 36L20 44L10 44ZM21.5 15.9701C20.3954 15.9701 19.5 15.0881 19.5 14.0001C19.5 12.9121 20.3954 12.0301 21.5 12.0301L35 12.0301C36.1046 12.0301 37 12.9121 37 14.0001C37 15.0881 36.1046 15.9701 35 15.9701L21.5 15.9701ZM21.5 22.9701C20.3954 22.9701 19.5 22.0881 19.5 21.0001C19.5 19.9121 20.3954 19.0301 21.5 19.0301L35 19.0301C36.1046 19.0301 37 19.9121 37 21.0001C37 22.0881 36.1046 22.9701 35 22.9701L21.5 22.9701ZM12 21C9.79086 21 8 22.7909 8 25L8 38C8 39.1046 8.89543 40 10 40L12 40L12 21Z" fill-rule="evenodd"  fill="#000000" >
</path>
</svg>
