<svg xmlns="http://www.w3.org/2000/svg" xmlns:xlink="http://www.w3.org/1999/xlink" width="48" height="48" viewBox="0 0 48 48" fill="none">
<path d="M4.82535 29.6549L18.3454 43.1749C19.1154 43.9449 19.9954 44.5249 20.9954 44.9249C21.9554 45.3149 22.9554 45.5149 24.0054 45.5149C25.0454 45.5149 26.0454 45.3149 27.0054 44.9249C28.0054 44.5249 28.8854 43.9449 29.6554 43.1749L43.1754 29.6549C43.9454 28.8849 44.5254 28.0049 44.9254 27.0049C45.3154 26.0449 45.5154 25.0449 45.5154 24.0049C45.5154 22.9549 45.3154 21.9549 44.9254 20.9949C44.5254 19.9949 43.9454 19.1149 43.1754 18.3449L29.6554 4.82486C28.8854 4.05486 28.0054 3.47486 27.0054 3.07486C26.0454 2.68486 25.0454 2.48486 24.0054 2.48486C22.9554 2.48486 21.9554 2.68486 20.9954 3.07486C19.9954 3.47486 19.1154 4.05486 18.3454 4.82486L4.82535 18.3449C4.05535 19.1149 3.47535 19.9949 3.07535 20.9949C2.68535 21.9549 2.48535 22.9549 2.48535 24.0049C2.48535 25.0449 2.68535 26.0449 3.07535 27.0049C3.47535 28.0049 4.05535 28.8849 4.82535 29.6549ZM24 14.9999C22.78 14.9999 21.61 15.2399 20.5 15.7099C19.42 16.1599 18.46 16.7999 17.63 17.6299C16.8 18.4599 16.16 19.4199 15.71 20.4999C15.24 21.6099 15 22.7799 15 23.9999C15 25.2199 15.24 26.3899 15.71 27.4999C16.16 28.5799 16.8 29.5399 17.63 30.3699C18.46 31.1999 19.42 31.8399 20.5 32.2899C21.61 32.7599 22.78 32.9999 24 32.9999C25.22 32.9999 26.39 32.7599 27.5 32.2899C28.58 31.8399 29.54 31.1999 30.37 30.3699C31.2 29.5399 31.84 28.5799 32.29 27.4999C32.7599 26.3899 33 25.2199 33 23.9999C33 22.7799 32.7599 21.6099 32.29 20.4999C31.84 19.4199 31.2 18.4599 30.37 17.6299C29.54 16.7999 28.58 16.1599 27.5 15.7099C26.39 15.2399 25.22 14.9999 24 14.9999Z" fill-rule="evenodd"  fill="#000000" >
</path>
</svg>
