<svg xmlns="http://www.w3.org/2000/svg" xmlns:xlink="http://www.w3.org/1999/xlink" width="48" height="48" viewBox="0 0 48 48" fill="none">
<path d="M43 13L43 14L39 14L39 13C39 10.79 37.21 9 35 9L9 9C6.79 9 5 10.79 5 13L5 29C5 31.21 6.79 33 9 33L17 33L17 36C17 36.3405 17.0095 36.6738 17.0283 37L9 37C4.58 37 1 33.42 1 29L1 13C1 8.58 4.58 5 9 5L35 5C39.42 5 43 8.58 43 13ZM47 35L47 26C47 21.58 43.42 18 39 18L29 18C24.58 18 21 21.58 21 26L21 35C21 39.42 24.58 43 29 43L39 43C43.42 43 47 39.42 47 35ZM39 22L29 22C26.79 22 25 23.79 25 26L25 35C25 37.21 26.79 39 29 39L39 39C41.21 39 43 37.21 43 35L43 26C43 23.79 41.21 22 39 22ZM31.0005 37.0009L37.0005 36.9997C38.1005 36.9995 39.0003 36.0993 39.0001 34.9993C38.9999 33.8993 38.0997 32.9995 36.9997 32.9997L30.9997 33.0009C29.8997 33.0011 28.9999 33.9013 29.0001 35.0013C29.0003 36.1013 29.9005 37.0011 31.0005 37.0009ZM18.9285 43.0003C18.1395 41.8827 17.5837 40.5439 17.2777 39.0005L12.9999 39.0009C11.8999 39.001 11 39.9011 11.0001 41.0011C11.0002 42.1011 11.9003 43.001 13.0003 43.0009L18.9285 43.0003Z" fill-rule="evenodd"  fill="#000000" >
</path>
</svg>
