<svg xmlns="http://www.w3.org/2000/svg" xmlns:xlink="http://www.w3.org/1999/xlink" width="48" height="48" viewBox="0 0 48 48" fill="none">
<path d="M43.53 40.34C43.84 39.59 44 38.81 44 38L44 12C44 10.92 43.79 9.88 43.37 8.89C42.96 7.93 42.39 7.08 41.66 6.34C40.92 5.61 40.07 5.04 39.11 4.63C38.12 4.21 37.08 4 36 4L20 4C18.92 4 17.88 4.21 16.89 4.63C15.93 5.04 15.08 5.61 14.34 6.34C13.61 7.08 13.04 7.93 12.63 8.89C12.21 9.88 12 10.92 12 12L12 17C10.92 17 9.88 17.21 8.89 17.63C7.93 18.04 7.08 18.61 6.34 19.34C5.61 20.08 5.04 20.93 4.63 21.89C4.21 22.88 4 23.92 4 25L4 38C4 38.81 4.16 39.59 4.47 40.34C4.78 41.05 5.2 41.69 5.76 42.24C6.31 42.8 6.95 43.22 7.66 43.53C8.41 43.84 9.19 44 10 44L38 44C38.81 44 39.59 43.84 40.34 43.53C41.05 43.22 41.69 42.8 42.24 42.24C42.8 41.69 43.22 41.05 43.53 40.34ZM16 40L20 40L20 36C20 35.46 20.11 34.94 20.32 34.44C20.52 33.96 20.81 33.54 21.17 33.17C21.54 32.81 21.96 32.52 22.44 32.32C22.94 32.11 23.46 32 24 32L32 32C32.54 32 33.06 32.11 33.56 32.32C34.04 32.52 34.46 32.81 34.83 33.17C35.19 33.54 35.48 33.96 35.68 34.44C35.89 34.94 36 35.46 36 36L36 40L38 40C38.27 40 38.53 39.95 38.78 39.84C39.02 39.74 39.23 39.6 39.41 39.41C39.6 39.23 39.74 39.02 39.84 38.78C39.95 38.53 40 38.27 40 38L40 12C40 11.46 39.9 10.94 39.69 10.45C39.48 9.97 39.2 9.54 38.83 9.17C38.46 8.8 38.03 8.52 37.55 8.31C37.06 8.1 36.54 8 36 8L20 8C19.46 8 18.94 8.1 18.45 8.31C17.97 8.52 17.54 8.8 17.17 9.17C16.8 9.54 16.52 9.97 16.31 10.45C16.1 10.94 16 11.46 16 12L16 40ZM21.5 12.0301C21.43 12.0301 21.37 12.0301 21.3 12.0399C21.24 12.0498 21.17 12.0596 21.11 12.0695C21.05 12.0793 20.98 12.099 20.92 12.1187C20.86 12.1384 20.8 12.1581 20.73 12.1778C20.67 12.2074 20.61 12.2369 20.56 12.2665C20.5 12.296 20.44 12.3256 20.39 12.365C20.33 12.3945 20.28 12.4339 20.23 12.4733C20.18 12.5226 20.13 12.562 20.09 12.6112C20.04 12.6506 20 12.6999 19.95 12.7491C19.91 12.7984 19.87 12.8476 19.84 12.9067C19.8 12.956 19.77 13.0151 19.74 13.0742C19.71 13.1234 19.68 13.1825 19.65 13.2416C19.63 13.3105 19.61 13.3696 19.59 13.4288C19.57 13.4878 19.55 13.5568 19.54 13.6159C19.53 13.675 19.52 13.7439 19.51 13.803C19.5 13.872 19.5 13.9311 19.5 14C19.5 14.069 19.5 14.1281 19.51 14.197C19.52 14.2561 19.53 14.3251 19.54 14.3842C19.55 14.4433 19.57 14.5122 19.59 14.5713C19.61 14.6304 19.63 14.6895 19.65 14.7585C19.68 14.8176 19.71 14.8766 19.74 14.9259C19.77 14.985 19.8 15.0441 19.84 15.0933C19.87 15.1524 19.91 15.2017 19.95 15.2509C20 15.3002 20.04 15.3494 20.09 15.3888C20.13 15.4381 20.18 15.4775 20.23 15.5267C20.28 15.5661 20.33 15.6055 20.39 15.6351C20.44 15.6745 20.5 15.704 20.56 15.7336C20.61 15.7631 20.67 15.7927 20.73 15.8222C20.8 15.8419 20.86 15.8616 20.92 15.8813C20.98 15.901 21.05 15.9207 21.11 15.9306C21.17 15.9404 21.24 15.9503 21.3 15.9601C21.37 15.97 21.43 15.97 21.5 15.97L35 15.97C35.07 15.97 35.13 15.97 35.2 15.9601C35.26 15.9503 35.33 15.9404 35.39 15.9306C35.45 15.9207 35.52 15.901 35.58 15.8813C35.64 15.8616 35.7 15.8419 35.77 15.8222C35.83 15.7927 35.88 15.7631 35.94 15.7336C36 15.704 36.06 15.6745 36.11 15.6351C36.17 15.6055 36.22 15.5661 36.27 15.5267C36.32 15.4775 36.37 15.4381 36.41 15.3888C36.46 15.3494 36.5 15.3002 36.55 15.2509C36.59 15.2017 36.63 15.1524 36.66 15.0933C36.7 15.0441 36.73 14.985 36.76 14.9259C36.79 14.8766 36.82 14.8176 36.85 14.7585C36.87 14.6895 36.89 14.6304 36.91 14.5713C36.93 14.5122 36.95 14.4433 36.96 14.3842C36.97 14.3251 36.98 14.2561 36.99 14.197C37 14.1281 37 14.069 37 14C37 13.9311 37 13.872 36.99 13.803C36.98 13.7439 36.97 13.675 36.96 13.6159C36.95 13.5568 36.93 13.4878 36.91 13.4288C36.89 13.3696 36.87 13.3105 36.85 13.2416C36.82 13.1825 36.79 13.1234 36.76 13.0742C36.73 13.0151 36.7 12.956 36.66 12.9067C36.63 12.8476 36.59 12.7984 36.55 12.7491C36.5 12.6999 36.46 12.6506 36.41 12.6112C36.37 12.562 36.32 12.5226 36.27 12.4733C36.22 12.4339 36.17 12.3945 36.11 12.365C36.06 12.3256 36 12.296 35.94 12.2665C35.88 12.2369 35.83 12.2074 35.77 12.1778C35.7 12.1581 35.64 12.1384 35.58 12.1187C35.52 12.099 35.45 12.0793 35.39 12.0695C35.33 12.0596 35.26 12.0498 35.2 12.0399C35.13 12.0301 35.07 12.0301 35 12.0301L21.5 12.0301ZM21.5 19.0301C21.43 19.0301 21.37 19.0301 21.3 19.0399C21.24 19.0498 21.17 19.0596 21.11 19.0695C21.05 19.0793 20.98 19.099 20.92 19.1187C20.86 19.1384 20.8 19.1581 20.73 19.1778C20.67 19.2074 20.61 19.2369 20.56 19.2665C20.5 19.296 20.44 19.3256 20.39 19.365C20.33 19.3945 20.28 19.4339 20.23 19.4733C20.18 19.5226 20.13 19.562 20.09 19.6112C20.04 19.6506 20 19.6999 19.95 19.7491C19.91 19.7984 19.87 19.8476 19.84 19.9067C19.8 19.956 19.77 20.0151 19.74 20.0742C19.71 20.1234 19.68 20.1825 19.65 20.2416C19.63 20.3105 19.61 20.3696 19.59 20.4287C19.57 20.4878 19.55 20.5568 19.54 20.6159C19.53 20.675 19.52 20.7439 19.51 20.803C19.5 20.872 19.5 20.9311 19.5 21C19.5 21.069 19.5 21.1281 19.51 21.197C19.52 21.2561 19.53 21.3251 19.54 21.3842C19.55 21.4433 19.57 21.5122 19.59 21.5713C19.61 21.6304 19.63 21.6895 19.65 21.7585C19.68 21.8176 19.71 21.8766 19.74 21.9259C19.77 21.985 19.8 22.0441 19.84 22.0933C19.87 22.1524 19.91 22.2017 19.95 22.2509C20 22.3002 20.04 22.3494 20.09 22.3888C20.13 22.4381 20.18 22.4775 20.23 22.5267C20.28 22.5661 20.33 22.6055 20.39 22.6351C20.44 22.6745 20.5 22.704 20.56 22.7336C20.61 22.7631 20.67 22.7927 20.73 22.8222C20.8 22.8419 20.86 22.8616 20.92 22.8813C20.98 22.901 21.05 22.9207 21.11 22.9306C21.17 22.9404 21.24 22.9503 21.3 22.9601C21.37 22.97 21.43 22.97 21.5 22.97L35 22.97C35.07 22.97 35.13 22.97 35.2 22.9601C35.26 22.9503 35.33 22.9404 35.39 22.9306C35.45 22.9207 35.52 22.901 35.58 22.8813C35.64 22.8616 35.7 22.8419 35.77 22.8222C35.83 22.7927 35.88 22.7631 35.94 22.7336C36 22.704 36.06 22.6745 36.11 22.6351C36.17 22.6055 36.22 22.5661 36.27 22.5267C36.32 22.4775 36.37 22.4381 36.41 22.3888C36.46 22.3494 36.5 22.3002 36.55 22.2509C36.59 22.2017 36.63 22.1524 36.66 22.0933C36.7 22.0441 36.73 21.985 36.76 21.9259C36.79 21.8766 36.82 21.8176 36.85 21.7585C36.87 21.6895 36.89 21.6304 36.91 21.5713C36.93 21.5122 36.95 21.4433 36.96 21.3842C36.97 21.3251 36.98 21.2561 36.99 21.197C37 21.1281 37 21.069 37 21C37 20.9311 37 20.872 36.99 20.803C36.98 20.7439 36.97 20.675 36.96 20.6159C36.95 20.5568 36.93 20.4878 36.91 20.4287C36.89 20.3696 36.87 20.3105 36.85 20.2416C36.82 20.1825 36.79 20.1234 36.76 20.0742C36.73 20.0151 36.7 19.956 36.66 19.9067C36.63 19.8476 36.59 19.7984 36.55 19.7491C36.5 19.6999 36.46 19.6506 36.41 19.6112C36.37 19.562 36.32 19.5226 36.27 19.4733C36.22 19.4339 36.17 19.3945 36.11 19.365C36.06 19.3256 36 19.296 35.94 19.2665C35.88 19.2369 35.83 19.2074 35.77 19.1778C35.7 19.1581 35.64 19.1384 35.58 19.1187C35.52 19.099 35.45 19.0793 35.39 19.0695C35.33 19.0596 35.26 19.0498 35.2 19.0399C35.13 19.0301 35.07 19.0301 35 19.0301L21.5 19.0301ZM12 40L12 21C11.46 21 10.94 21.1 10.45 21.31C9.97 21.52 9.54 21.8 9.17 22.17C8.8 22.54 8.52 22.97 8.31 23.45C8.1 23.94 8 24.46 8 25L8 38C8 38.27 8.05 38.53 8.16 38.78C8.26 39.02 8.4 39.23 8.59 39.41C8.77 39.6 8.98 39.74 9.22 39.84C9.47 39.95 9.73 40 10 40L12 40ZM32 40L24 40L24 36L32 36L32 40Z" fill-rule="evenodd"  fill="#000000" >
</path>
</svg>
