<svg xmlns="http://www.w3.org/2000/svg" xmlns:xlink="http://www.w3.org/1999/xlink" width="48" height="48" viewBox="0 0 48 48" fill="none">
<path d="M20.1607 37C20.0541 36.1579 20 35.2673 20 34.33L20 17C20 12.58 23.58 9 28 9L41.9306 9C40.5478 6.60836 37.9626 5 35 5L9 5C4.58 5 1 8.58 1 13L1 29C1 33.42 4.58 37 9 37L20.1607 37ZM47 37L47 19C47 15.69 44.31 13 41 13L31 13C27.69 13 25 15.69 25 19L25 37C25 40.31 27.69 43 31 43L41 43C44.31 43 47 40.31 47 37ZM39.0005 36.9997L33.0005 37.0009C31.9005 37.0011 31.0003 36.1013 31.0001 35.0013C30.9999 33.9013 31.8997 33.0011 32.9997 33.0009L38.9997 32.9997C40.0997 32.9995 40.9999 33.8993 41.0001 34.9993C41.0003 36.0993 40.1005 36.9995 39.0005 36.9997ZM20.5351 39.0007L17.9998 39.001C16.8998 39.0011 15.9999 39.9012 16 41.0012C16.0001 42.1012 16.9002 43.0011 18.0002 43.001L22.3325 43.0006C21.5307 41.884 20.9271 40.5456 20.5351 39.0007Z" fill-rule="evenodd"  fill="#000000" >
</path>
</svg>
