<svg xmlns="http://www.w3.org/2000/svg" xmlns:xlink="http://www.w3.org/1999/xlink" width="48" height="48" viewBox="0 0 48 48" fill="none">
<path d="M23.0737 22.3127L12.0738 15.3127L9.92628 18.6874L18.2748 24.0001L9.92627 29.3128L12.0738 32.6874L23.0738 25.6874C23.671 25.2833 23.9798 24.7208 24 24C23.9797 23.2793 23.6709 22.7168 23.0737 22.3127Z" fill-rule="evenodd"  fill="#787878" >
</path>
<path d="M20 9.24562L20 38.7551C20 42.6221 24.2017 45.0254 27.5348 43.065L34.1526 39.1728C38.0965 36.8531 38.0969 31.1497 34.1532 28.8296L25.9446 24.0003L34.1526 19.1728C38.0965 16.8531 38.0969 11.1497 34.1532 8.82953L27.5354 4.93612C24.2022 2.97514 20 5.3784 20 9.24562ZM24 20.5034L32.1247 15.7249C33.4394 14.9517 33.4395 13.0505 32.1249 12.2771L25.5071 8.38372C24.8404 7.99152 24 8.47218 24 9.24562L24 20.5034ZM24 27.4971L32.1249 32.2772C33.4395 33.0506 33.4394 34.9517 32.1247 35.7249L25.507 39.6171C24.8403 40.0092 24 39.5285 24 38.7551L24 27.4971Z" fill-rule="evenodd"  fill="#424242" >
</path>
<path d="M13 31C13 32.1046 12.1046 33 11 33C9.89543 33 9 32.1046 9 31C9 29.8954 9.89543 29 11 29C12.1046 29 13 29.8954 13 31Z"   fill="#787878" >
</path>
<path d="M13 17C13 18.1046 12.1046 19 11 19C9.89543 19 9 18.1046 9 17C9 15.8954 9.89543 15 11 15C12.1046 15 13 15.8954 13 17Z"   fill="#787878" >
</path>
</svg>
