<svg xmlns="http://www.w3.org/2000/svg" xmlns:xlink="http://www.w3.org/1999/xlink" width="48" height="48" viewBox="0 0 48 48" fill="none">
<path d="M24 20C22.8954 20 22 20.8954 22 22L22 34C22 35.1046 22.8954 36 24 36C25.1046 36 26 35.1046 26 34L26 22C26 20.8954 25.1046 20 24 20Z" fill-rule="evenodd"  fill="#424242" >
</path>
<path d="M7.1088 35.0861L6.55324 36.0861C4.33147 40.0853 7.22328 45 11.7982 45L36.202 45C40.7769 45 43.6688 40.0853 41.447 36.0861L40.8914 35.0862C40.3624 34.1337 39.6283 33.3813 38.6893 32.8288C37.7503 32.2763 36.736 32 35.6465 32L12.3537 32C11.2642 32 10.25 32.2763 9.31098 32.8288C8.37196 33.3813 7.6379 34.1337 7.1088 35.0861ZM11.7982 41C10.2732 41 9.30928 39.3618 10.0499 38.0287L10.6054 37.0287C10.7818 36.7113 11.0265 36.4604 11.3395 36.2763C11.6525 36.0921 11.9906 36 12.3537 36L35.6465 36C36.0097 36 36.3477 36.0921 36.6607 36.2763C36.9737 36.4604 37.2184 36.7112 37.3948 37.0287L37.9504 38.0287C38.6909 39.3618 37.727 41 36.202 41L11.7982 41Z" fill-rule="evenodd"  fill="#787878" >
</path>
<path d="M24 23C28.4183 23 32 19.4183 32 15C32 10.5817 28.4183 7 24 7C19.5817 7 16 10.5817 16 15C16 19.4183 19.5817 23 24 23ZM24 11C26.2091 11 28 12.7909 28 15C28 17.2091 26.2091 19 24 19C21.7909 19 20 17.2091 20 15C20 12.7909 21.7909 11 24 11Z" fill-rule="evenodd"  fill="#787878" >
</path>
<path d="M38.3523 6.13396C38.1301 5.8117 38 5.42104 38 5C38 3.89543 38.8954 3 40 3C40.7044 3 41.3237 3.36413 41.68 3.91442C42.4038 4.99935 43.0149 6.14277 43.5133 7.34468C44.5254 9.78543 45.0315 12.3372 45.0315 15C45.0315 17.6628 44.5254 20.2146 43.5133 22.6553C43.0149 23.8572 42.4038 25.0007 41.68 26.0856C41.3237 26.6359 40.7044 27 40 27C38.8954 27 38 26.1046 38 25C38 24.5789 38.1301 24.1883 38.3523 23.866C38.9313 22.9982 39.42 22.0839 39.8184 21.1232C40.6271 19.1729 41.0315 17.1318 41.0315 15C41.0315 12.8682 40.6271 10.8271 39.8184 8.87684C39.42 7.91605 38.9313 7.00176 38.3523 6.13396Z" fill-rule="evenodd"  fill="#787878" >
</path>
<path d="M6.35145 3.91441C6.70776 3.36413 7.32709 3 8.03147 3C9.13604 3 10.0315 3.89543 10.0315 5C10.0315 5.42105 9.90136 5.81171 9.67915 6.13397C9.10017 7.00177 8.61148 7.91606 8.21307 8.87684C7.40436 10.8271 7 12.8682 7 15C7 17.1318 7.40436 19.1729 8.21307 21.1232C8.61148 22.0839 9.10017 22.9982 9.67915 23.866C9.90135 24.1883 10.0315 24.5789 10.0315 25C10.0315 26.1046 9.13604 27 8.03147 27C7.32709 27 6.70776 26.6359 6.35145 26.0856C5.62764 25.0007 5.01654 23.8572 4.51815 22.6553C3.50605 20.2146 3 17.6628 3 15C3 12.3372 3.50605 9.78543 4.51815 7.34468C5.01654 6.14277 5.62764 4.99934 6.35145 3.91441Z" fill-rule="evenodd"  fill="#787878" >
</path>
<path d="M32.3235 9.09096C32.1189 8.77721 32 8.40249 32 8C32 6.89543 32.8954 6 34 6C34.7253 6 35.3604 6.38608 35.7111 6.96393C36.2048 7.75076 36.6217 8.57929 36.9618 9.44952C37.6539 11.2204 38 13.0706 38 15C38 16.9294 37.6539 18.7796 36.9618 20.5505C36.6217 21.4207 36.2048 22.2492 35.7111 23.0361C35.3604 23.6139 34.7253 24 34 24C32.8954 24 32 23.1046 32 22C32 21.5975 32.1189 21.2228 32.3235 20.909C32.6835 20.3352 32.9877 19.7303 33.2363 19.0944C33.7454 17.7916 34 16.4268 34 15C34 13.5732 33.7454 12.2084 33.2363 10.9056C32.9877 10.2696 32.6835 9.66479 32.3235 9.09096Z" fill-rule="evenodd"  fill="#424242" >
</path>
<path d="M12.2889 6.96393C12.6396 6.38608 13.2747 6 14 6C15.1046 6 16 6.89543 16 8C16 8.40249 15.8811 8.77721 15.6765 9.09096C15.3165 9.66479 15.0123 10.2696 14.7638 10.9056C14.2546 12.2084 14 13.5732 14 15C14 16.4268 14.2546 17.7916 14.7638 19.0944C15.0123 19.7303 15.3165 20.3352 15.6765 20.909C15.8811 21.2228 16 21.5975 16 22C16 23.1046 15.1046 24 14 24C13.2747 24 12.6396 23.6139 12.2889 23.0361C11.7952 22.2492 11.3783 21.4207 11.0382 20.5505C10.3461 18.7796 10 16.9294 10 15C10 13.0706 10.3461 11.2204 11.0382 9.44952C11.3783 8.57929 11.7952 7.75076 12.2889 6.96393Z" fill-rule="evenodd"  fill="#424242" >
</path>
</svg>
