<svg xmlns="http://www.w3.org/2000/svg" xmlns:xlink="http://www.w3.org/1999/xlink" width="48" height="48" viewBox="0 0 48 48" fill="none">
<path d="M41.0001 3C39.8739 3 38.9525 3.9 38.9525 5L38.9525 43C38.9525 44.1 39.8739 45 41.0001 45C42.1263 45 43.0477 44.1 43.0477 43L43.0477 5C43.0477 3.9 42.1263 3 41.0001 3ZM29.6668 45C30.793 45 31.7144 44.1 31.7144 43L31.7144 13C31.7144 11.9 30.793 11 29.6668 11C28.5406 11 27.6192 11.9 27.6192 13L27.6192 43C27.6192 44.1 28.5406 45 29.6668 45ZM18.3334 45C19.4595 45 20.3808 44.1 20.3808 43L20.3808 21C20.3808 19.9 19.4595 19 18.3334 19C17.2073 19 16.286 19.9 16.286 21L16.286 43C16.286 44.1 17.2073 45 18.3334 45ZM7.00024 45C8.12642 45 9.04784 44.1 9.04784 43L9.04784 28C9.04784 26.9 8.12642 26 7.00024 26C5.87406 26 4.95264 26.9 4.95264 28L4.95264 43C4.95264 44.1 5.87406 45 7.00024 45Z" fill-rule="evenodd"  fill="#000000" >
</path>
</svg>
