<svg xmlns="http://www.w3.org/2000/svg" xmlns:xlink="http://www.w3.org/1999/xlink" width="48" height="48" viewBox="0 0 48 48" fill="none">
<path d="M26.5 37.5C26.5 38.8807 25.3807 40 24 40C22.6193 40 21.5 38.8807 21.5 37.5C21.5 36.1193 22.6193 35 24 35C25.3807 35 26.5 36.1193 26.5 37.5Z"   fill="#1764FF" >
</path>
<path d="M8.59358 13.0455C7.13604 14.1021 5.78503 15.2978 4.54053 16.6326C4.20529 16.9902 4 17.4712 4 18.0001C4 19.1047 4.89543 20.0001 6 20.0001C6.57964 20.0001 7.10169 19.7535 7.46697 19.3595C9.63317 17.0362 12.1168 15.239 14.918 13.9677C17.8084 12.6559 20.8358 12 24 12C27.1643 12 30.1917 12.6559 33.0821 13.9677C35.8832 15.239 38.3669 17.0362 40.5331 19.3594C40.5343 19.3608 40.5356 19.3623 40.537 19.3637C40.9021 19.7552 41.4225 20.0001 42.0001 20.0001C43.1047 20.0001 44.0001 19.1047 44.0001 18.0001C44.0001 17.4731 43.7963 16.9937 43.4632 16.6365C43.4619 16.6352 43.4607 16.6338 43.4595 16.6325C42.215 15.2977 40.864 14.102 39.4065 13.0455C37.9303 11.9754 36.3732 11.0686 34.7352 10.3252C31.3195 8.77508 27.7411 8 24 8C20.259 8 16.6806 8.77508 13.2649 10.3252C11.6269 11.0686 10.0698 11.9754 8.59358 13.0455Z" fill-rule="evenodd"  fill="#1764FF" >
</path>
<path d="M29.8226 23.1828C31.6124 23.9446 33.1989 25.0205 34.582 26.4103L34.5824 26.4107C34.9446 26.7747 35.4461 27 36.0001 27C37.1047 27 38.0001 26.1045 38.0001 25C38.0001 24.4495 37.7777 23.9509 37.4178 23.5892C37.4172 23.5886 37.4166 23.5881 37.416 23.5875C35.6661 21.8295 33.6572 20.4678 31.3892 19.5024C29.0362 18.5008 26.5732 18 24.0001 18C21.4269 18 18.9639 18.5008 16.6109 19.5024C14.343 20.4678 12.334 21.8294 10.5841 23.5874C10.5835 23.588 10.5829 23.5886 10.5823 23.5892C10.2224 23.9509 10 24.4495 10 25C10 26.1045 10.8954 27 12 27C12.5541 27 13.0555 26.7747 13.4177 26.4107C14.801 25.0207 16.3876 23.9447 18.1776 23.1828C20.0301 22.3943 21.9709 22 24.0001 22C26.0293 22 27.9701 22.3943 29.8226 23.1828Z" fill-rule="evenodd"  fill="#4187FF" >
</path>
<path d="M27.6092 32.3611C27.6096 32.3616 27.6101 32.362 27.6106 32.3625C27.9704 32.71 28.4602 32.9238 28.9999 32.9238C30.1045 32.9238 30.9999 32.0284 30.9999 30.9238C30.9999 30.359 30.7657 29.8488 30.3892 29.4851C30.3884 29.4844 30.3877 29.4837 30.3869 29.4829C29.5504 28.6757 28.591 28.0511 27.5085 27.6089C26.3903 27.1522 25.2208 26.9238 23.9999 26.9238C22.7791 26.9238 21.6095 27.1522 20.4913 27.6089C19.4089 28.051 18.4496 28.6756 17.6132 29.4828C17.2352 29.8466 17 30.3577 17 30.9238C17 32.0284 17.8954 32.9238 19 32.9238C19.5405 32.9238 20.0309 32.7094 20.3908 32.361C20.8584 31.9099 21.396 31.5602 22.0038 31.3119C22.6373 31.0532 23.3027 30.9238 23.9999 30.9238C24.6972 30.9238 25.3626 31.0532 25.996 31.3119C26.6039 31.5602 27.1416 31.9099 27.6092 32.3611Z" fill-rule="evenodd"  fill="#6BA6FF" >
</path>
</svg>
