<svg xmlns="http://www.w3.org/2000/svg" xmlns:xlink="http://www.w3.org/1999/xlink" width="48" height="48" viewBox="0 0 48 48" fill="none">
<path d="M9.04776 28C9.04776 26.8954 8.13104 26 7.0002 26C5.86936 26 4.95264 26.8954 4.95264 28L4.95264 43C4.95264 44.1046 5.86936 45 7.0002 45C8.13104 45 9.04776 44.1046 9.04776 43L9.04776 28Z" fill-rule="evenodd"  fill="#787878" >
</path>
<path d="M20.381 21C20.381 19.8954 19.4643 19 18.3336 19C17.2028 19 16.2861 19.8954 16.2861 21L16.2861 43C16.2861 44.1046 17.2028 45 18.3336 45C19.4643 45 20.381 44.1046 20.381 43L20.381 21Z" fill-rule="evenodd"  fill="#424242" >
</path>
<path d="M31.7143 13C31.7143 11.8954 30.7976 11 29.6667 11C28.5359 11 27.6191 11.8954 27.6191 13L27.6191 43C27.6191 44.1046 28.5359 45 29.6667 45C30.7976 45 31.7143 44.1046 31.7143 43L31.7143 13Z" fill-rule="evenodd"  fill="#787878" >
</path>
<path d="M43.0478 5L43.0478 43C43.0478 44.1046 42.1311 45 41.0002 45C39.8694 45 38.9526 44.1046 38.9526 43L38.9526 5C38.9526 3.89543 39.8694 3 41.0002 3C42.1311 3 43.0478 3.89543 43.0478 5Z" fill-rule="evenodd"  fill="#424242" >
</path>
</svg>
