<svg xmlns="http://www.w3.org/2000/svg" xmlns:xlink="http://www.w3.org/1999/xlink" width="48" height="48" viewBox="0 0 48 48" fill="none">
<path d="M26.5 37.5C26.5 38.8807 25.3807 40 24 40C22.6193 40 21.5 38.8807 21.5 37.5C21.5 36.1193 22.6193 35 24 35C25.3807 35 26.5 36.1193 26.5 37.5Z"   fill="#FFA096" >
</path>
<path d="M38.223 12.2787C34.0583 9.42623 29.3173 8 24 8C16.7951 8 10.6483 10.6186 5.55948 15.8557C4.35797 17.0923 3.28472 18.4352 2.33971 19.8845C2.1252 20.2032 2 20.587 2 21C2 22.1046 2.89543 23 4 23C4.71333 23 5.33944 22.6266 5.69349 22.0645C6.49658 20.8335 7.40816 19.6931 8.42824 18.6433C12.7316 14.2144 17.9222 12 24 12C28.2001 12 31.9765 13.0575 35.3292 15.1725L38.223 12.2787ZM38.5291 17.6294C38.8823 17.9534 39.2299 18.2914 39.5718 18.6433C40.5919 19.6931 41.5034 20.8335 42.3065 22.0645C42.6605 22.6265 43.2867 23 44 23C45.1046 23 46 22.1046 46 21C46 20.587 45.8748 20.2032 45.6603 19.8845C44.7153 18.4352 43.642 17.0923 42.4405 15.8557C42.0856 15.4905 41.7255 15.138 41.3603 14.7982L38.5291 17.6294Z" fill-rule="evenodd"  fill="#FF4943" >
</path>
<path d="M24.4894 26.0123C24.3279 26.0041 24.1648 26 24 26C21.6145 26 19.5804 26.8581 17.8975 28.5743C17.5051 28.9745 17.1542 29.4087 16.8448 29.877C16.6272 30.1971 16.5 30.5837 16.5 31C16.5 31.8116 16.9834 32.5102 17.6779 32.8238L24.4894 26.0123ZM25.7986 30.3599C26.3249 30.589 26.8076 30.9273 27.2465 31.3748C27.4572 31.5897 27.6459 31.8228 27.8126 32.0741C28.1677 32.6308 28.7907 33 29.5 33C30.6046 33 31.5 32.1046 31.5 31C31.5 30.5837 31.3728 30.1971 31.1552 29.877C30.8458 29.4087 30.4949 28.9745 30.1025 28.5743C29.6704 28.1336 29.2151 27.7495 28.7366 27.4219L25.7986 30.3599Z" fill-rule="evenodd"  fill="#FFA096" >
</path>
<path d="M31.8373 18.6644C29.4604 17.5548 26.8479 17 24 17C18.9756 17 14.6842 18.7269 11.1257 22.1806C10.2844 22.9972 9.53222 23.8843 8.86917 24.842C8.6367 25.1688 8.5 25.5684 8.5 26C8.5 27.1046 9.39543 28 10.5 28C11.1922 28 11.8023 27.6483 12.1613 27.1139C12.6753 26.3723 13.2587 25.6847 13.9116 25.051C16.6941 22.3503 20.0569 21 24 21C25.6921 21 27.2773 21.2487 28.7557 21.746L31.8373 18.6644ZM32.4748 23.6837C33.0328 24.0927 33.5707 24.5485 34.0884 25.051C34.7413 25.6847 35.3248 26.3723 35.8387 27.1139C36.1977 27.6483 36.8078 28 37.5 28C38.6046 28 39.5 27.1046 39.5 26C39.5 25.5684 39.3633 25.1687 39.1308 24.8419C38.4677 23.8843 37.7156 22.9972 36.8743 22.1806C36.3744 21.6954 35.86 21.2443 35.3312 20.8273L32.4748 23.6837Z" fill-rule="evenodd"  fill="#FF766C" >
</path>
<path d="M40.3157 4.52576L40.3146 4.5268L5.31574 39.5271C4.95383 39.889 4.72998 40.389 4.72998 40.9413C4.72998 42.0458 5.62541 42.9413 6.72998 42.9413C7.28228 42.9413 7.78229 42.7174 8.14422 42.3555L43.1431 7.35516L43.1442 7.35412C43.5061 6.9922 43.7299 6.49221 43.7299 5.93994C43.7299 4.83537 42.8345 3.93994 41.7299 3.93994C41.1776 3.93994 40.6776 4.16381 40.3157 4.52576Z" fill-rule="evenodd"  fill="#FF1A1A" >
</path>
</svg>
