<svg xmlns="http://www.w3.org/2000/svg" xmlns:xlink="http://www.w3.org/1999/xlink" width="48" height="48" viewBox="0 0 48 48" fill="none">
<path d="M24 26.5C22.8954 26.5 22 27.3954 22 28.5L22 38L18 38C16.8954 38 16 38.8954 16 40L7 40C5.89543 40 5 40.8954 5 42C5 43.1046 5.89543 44 7 44L16 44C16 45.1046 16.8954 46 18 46L30 46C31.1046 46 32 45.1046 32 44L41 44C42.1046 44 43 43.1046 43 42C43 40.8954 42.1046 40 41 40L32 40C32 38.8954 31.1046 38 30 38L26 38L26 28.5C26 27.3954 25.1046 26.5 24 26.5Z" fill-rule="evenodd"  fill="#787878" >
</path>
<path d="M8 22.5C8 26.9183 11.5817 30.5 16 30.5L32 30.5C36.4183 30.5 40 26.9183 40 22.5L40 11C40 6.58172 36.4183 3 32 3L16 3C11.5817 3 8 6.58172 8 11L8 22.5ZM32 26.5L16 26.5C13.7909 26.5 12 24.7091 12 22.5L12 11C12 8.79086 13.7909 7 16 7L32 7C34.2091 7 36 8.79086 36 11L36 22.5C36 24.7091 34.2091 26.5 32 26.5Z" fill-rule="evenodd"  fill="#424242" >
</path>
</svg>
