<svg xmlns="http://www.w3.org/2000/svg" xmlns:xlink="http://www.w3.org/1999/xlink" width="48" height="48" viewBox="0 0 48 48" fill="none">
<path d="M17 38C24.4558 38 30.5 31.9558 30.5 24.5C30.5 23.3954 29.6046 22.5 28.5 22.5C27.3954 22.5 26.5 23.3954 26.5 24.5C26.5 29.7467 22.2467 34 17 34C11.7533 34 7.5 29.7467 7.5 24.5C7.5 19.2533 11.7533 15 17 15C18.1046 15 19 14.1046 19 13C19 11.8954 18.1046 11 17 11C9.54416 11 3.5 17.0442 3.5 24.5C3.5 31.9558 9.54416 38 17 38Z" fill-rule="evenodd"  fill="#424242" >
</path>
<path d="M40.7002 24.5C40.7002 29.7467 36.4469 34 31.2002 34C30.0956 34 29.2002 34.8954 29.2002 36C29.2002 37.1046 30.0956 38 31.2002 38C38.656 38 44.7002 31.9558 44.7002 24.5C44.7002 17.0442 38.656 11 31.2002 11C23.7444 11 17.7002 17.0442 17.7002 24.5C17.7002 25.6046 18.5956 26.5 19.7002 26.5C20.8048 26.5 21.7002 25.6046 21.7002 24.5C21.7002 19.2533 25.9535 15 31.2002 15C36.4469 15 40.7002 19.2533 40.7002 24.5Z" fill-rule="evenodd"  fill="#787878" >
</path>
</svg>
