<svg xmlns="http://www.w3.org/2000/svg" xmlns:xlink="http://www.w3.org/1999/xlink" width="48" height="48" viewBox="0 0 48 48" fill="none">
<path d="M20 9.24589L20 38.7553C20 42.6223 24.2016 45.0256 27.5348 43.0652L34.1526 39.173C38.0966 36.8533 38.0969 31.1499 34.1532 28.8298L25.9446 24.0005L34.1526 19.173C38.0965 16.8533 38.0969 11.15 34.1532 8.82981L27.5354 4.93636C24.2022 2.97538 20 5.37866 20 9.24589ZM24 20.5036L32.1247 15.7251C33.4394 14.9519 33.4395 13.0508 32.1249 12.2774L25.5071 8.38396C24.8405 7.99177 24 8.47244 24 9.24589L24 20.5036ZM24 27.4973L32.1249 32.2774C33.4395 33.0508 33.4394 34.9519 32.1247 35.7251L25.5069 39.6173C24.8403 40.0094 24 39.5287 24 38.7553L24 27.4973Z" fill-rule="evenodd"  fill="#1764FF" >
</path>
<path d="M27.5351 4.93571L34.1529 8.82856C38.0967 11.1485 38.0967 16.8518 34.1529 19.1717L23.0362 25.711L12.1072 32.6659C11.7901 32.877 11.4094 33 11 33C9.89543 33 9 32.1046 9 31C9 30.2827 9.37757 29.6537 9.94481 29.3007L18.2747 23.9998L9.96034 18.7089C9.38448 18.3578 9 17.7238 9 17C9 15.8954 9.89543 15 11 15C11.4025 15 11.7773 15.1189 12.0911 15.3236L20 20.3565L20 9.24538C20 5.3783 24.2019 2.97502 27.5351 4.93571ZM25.507 8.38344L32.1248 12.2763C33.4394 13.0496 33.4394 14.9507 32.1248 15.724L24 20.5033L24 9.24538C24 8.47197 24.8404 7.99131 25.507 8.38344Z" fill-rule="evenodd"  fill="#4187FF" >
</path>
</svg>
