<svg xmlns="http://www.w3.org/2000/svg" xmlns:xlink="http://www.w3.org/1999/xlink" width="48" height="48" viewBox="0 0 48 48" fill="none">
<path d="M38.1924 12.3093C36.9222 11.4613 35.578 10.7286 34.1597 10.1113C30.9262 8.70376 27.5396 8 24 8C20.4604 8 17.0738 8.70376 13.8403 10.1113C10.722 11.4687 7.96173 13.3835 5.55948 15.8557C4.35797 17.0923 3.28472 18.4352 2.33971 19.8845C2.1252 20.2032 2 20.587 2 21C2 22.1046 2.89543 23 4 23C4.71333 23 5.33944 22.6266 5.69349 22.0645C6.49658 20.8335 7.40816 19.6931 8.42824 18.6433C10.4642 16.5479 12.8004 14.9265 15.4368 13.7789C18.1612 12.593 21.0156 12 24 12C26.9844 12 29.8388 12.593 32.5632 13.7789C33.5135 14.1925 34.4248 14.6678 35.2971 15.2046L38.1924 12.3093ZM31.8001 18.7016C31.5631 18.5926 31.3229 18.4881 31.0797 18.3883C28.8252 17.4628 26.4653 17 24 17C21.5347 17 19.1748 17.4628 16.9203 18.3883C14.7399 19.2834 12.8084 20.5475 11.1257 22.1806C10.2844 22.9972 9.53222 23.8843 8.86917 24.842C8.6367 25.1688 8.5 25.5684 8.5 26C8.5 27.1046 9.39543 28 10.5 28C11.1922 28 11.8023 27.6483 12.1613 27.1139C12.6753 26.3723 13.2587 25.6847 13.9116 25.051C15.2253 23.7759 16.7346 22.7885 18.4393 22.0886C20.2072 21.3629 22.0607 21 24 21C25.6365 21 27.212 21.2584 28.7264 21.7752L31.8001 18.7016ZM32.4656 23.6929L35.3239 20.8346C35.8623 21.2513 36.3791 21.7 36.8743 22.1806C37.7156 22.9971 38.4677 23.8842 39.1308 24.8419C39.3633 25.1687 39.5 25.5684 39.5 26C39.5 27.1046 38.6046 28 37.5 28C36.8078 28 36.1977 27.6483 35.8387 27.1139C35.3248 26.3723 34.7413 25.6847 34.0884 25.051C33.5771 24.5547 33.0362 24.102 32.4656 23.6929ZM24.4882 26.0135C24.3264 26.0045 24.1637 26 24 26C22.8281 26 21.7063 26.2311 20.6347 26.6933C19.6032 27.1382 18.6908 27.7652 17.8975 28.5743C17.5051 28.9745 17.1542 29.4087 16.8448 29.877C16.6272 30.1971 16.5 30.5837 16.5 31C16.5 31.8116 16.9834 32.5102 17.6779 32.8238L24.4882 26.0135ZM25.7889 30.3696L28.7267 27.4319C29.2194 27.7606 29.678 28.1414 30.1025 28.5743C30.4949 28.9745 30.8458 29.4087 31.1552 29.877C31.3728 30.1971 31.5 30.5837 31.5 31C31.5 32.1046 30.6046 33 29.5 33C28.7907 33 28.1677 32.6308 27.8126 32.0741C27.6459 31.8228 27.4572 31.5897 27.2465 31.3748C26.822 30.9419 26.3361 30.6068 25.7889 30.3696ZM38.526 17.6325L41.3574 14.8011C41.7262 15.1406 42.0872 15.4922 42.4405 15.8557C43.642 17.0923 44.7153 18.4352 45.6603 19.8845C45.8748 20.2032 46 20.587 46 21C46 22.1046 45.1046 23 44 23C43.2867 23 42.6605 22.6265 42.3065 22.0645C41.5034 20.8335 40.5919 19.6931 39.5718 18.6433C39.2316 18.2932 38.883 17.9562 38.526 17.6325ZM24 40C25.3807 40 26.5 38.8807 26.5 37.5C26.5 36.1193 25.3807 35 24 35C22.6193 35 21.5 36.1193 21.5 37.5C21.5 38.8807 22.6193 40 24 40Z" fill-rule="evenodd"  fill="#787878" >
</path>
<path d="M43.1431 7.35516L8.14422 42.3555C7.78229 42.7174 7.28228 42.9413 6.72998 42.9413C5.62541 42.9413 4.72998 42.0458 4.72998 40.9413C4.72998 40.389 4.95383 39.889 5.31574 39.5271L40.3146 4.5268L40.3157 4.52576C40.6776 4.16381 41.1776 3.93994 41.7299 3.93994C42.8345 3.93994 43.7299 4.83537 43.7299 5.93994C43.7299 6.49221 43.5061 6.9922 43.1442 7.35412L43.1431 7.35516Z" fill-rule="evenodd"  fill="#424242" >
</path>
</svg>
