<svg xmlns="http://www.w3.org/2000/svg" xmlns:xlink="http://www.w3.org/1999/xlink" width="48" height="48" viewBox="0 0 48 48" fill="none">
<path d="M14 5L34 5C37.3137 5 40 7.68629 40 11L40 37C40 40.3137 37.3137 43 34 43L14 43C10.6863 43 8 40.3137 8 37L8 11C8 7.68629 10.6863 5 14 5Z"   fill="#BEDCFF" >
</path>
<path d="M16 16.7338C16 17.5111 16.848 17.9912 17.5145 17.5913L20.4855 15.8087C20.8022 15.6187 21.1978 15.6187 21.5145 15.8087L24.4855 17.5913C25.152 17.9912 26 17.5111 26 16.7338L26 5L16 5L16 16.7338Z"   fill="#6BA6FF" >
</path>
<path d="M34 3L14 3C9.58172 3 6 6.58172 6 11L6 37C6 41.4183 9.58172 45 14 45L34 45C38.4183 45 42 41.4183 42 37L42 11C42 6.58172 38.4183 3 34 3ZM14 7C11.7909 7 10 8.79086 10 11L10 37C10 39.2091 11.7909 41 14 41L34 41C36.2091 41 38 39.2091 38 37L38 11C38 8.79086 36.2091 7 34 7L28 7L28 16.7338C28 19.0657 25.4561 20.506 23.4565 19.3063L21 17.8324L18.5435 19.3063C16.5439 20.506 14 19.0657 14 16.7338L14 7ZM24 7L18 7L18 14.9676L19.4565 14.0937C20.4066 13.5237 21.5934 13.5237 22.5435 14.0937L24 14.9676L24 7Z" fill-rule="evenodd"  fill="#1764FF" >
</path>
<path d="M14 27C14 28.1046 14.8954 29 16 29L32 29C33.1046 29 34 28.1046 34 27C34 25.8954 33.1046 25 32 25L16 25C14.8954 25 14 25.8954 14 27Z" fill-rule="evenodd"  fill="#1764FF" >
</path>
<path d="M14 35C14 36.1046 14.8954 37 16 37L22 37C23.1046 37 24 36.1046 24 35C24 33.8954 23.1046 33 22 33L16 33C14.8954 33 14 33.8954 14 35Z" fill-rule="evenodd"  fill="#4187FF" >
</path>
</svg>
