<svg xmlns="http://www.w3.org/2000/svg" xmlns:xlink="http://www.w3.org/1999/xlink" width="48" height="48" viewBox="0 0 48 48" fill="none">
<path d="M42.5878 34.9925L45.2478 16.4125C45.3278 15.8825 45.2678 15.3625 45.0678 14.8625C44.8778 14.3925 44.5878 14.0025 44.1978 13.6725C43.7978 13.3525 43.3578 13.1325 42.8578 13.0425C42.3278 12.9325 41.7978 12.9725 41.2878 13.1525L32.7778 16.1125L26.4578 7.0425C26.1678 6.6225 25.7978 6.3025 25.3478 6.0725C24.9278 5.8625 24.4778 5.7525 23.9978 5.7525C23.5278 5.7525 23.0678 5.8625 22.6478 6.0725C22.1978 6.3025 21.8278 6.6225 21.5478 7.0325L15.2278 16.1125L6.70785 13.1525C6.19785 12.9725 5.67785 12.9325 5.13785 13.0425C4.64785 13.1325 4.19785 13.3525 3.80785 13.6725C3.41785 14.0025 3.12785 14.3925 2.93785 14.8625C2.73785 15.3625 2.66785 15.8825 2.74785 16.4225L5.40785 34.9925C5.52785 35.8425 5.79785 36.6425 6.20785 37.3825C6.60785 38.1125 7.12785 38.7425 7.74785 39.2925C8.37785 39.8325 9.07785 40.2525 9.85785 40.5425C10.6578 40.8525 11.4778 41.0025 12.3378 41.0025L35.6578 41.0025C36.5178 41.0025 37.3478 40.8525 38.1478 40.5425C38.9178 40.2525 39.6178 39.8325 40.2478 39.2925C40.8778 38.7425 41.3878 38.1125 41.7878 37.3825C42.1978 36.6425 42.4678 35.8425 42.5878 34.9925ZM33.3778 20.1425C32.7478 20.3625 32.1178 20.3725 31.4778 20.1625C30.8378 19.9625 30.3178 19.5825 29.9378 19.0325L23.9978 10.5025L18.0678 19.0225C17.6778 19.5825 17.1678 19.9625 16.5278 20.1625C15.8878 20.3725 15.2478 20.3625 14.6078 20.1325L6.93785 17.4725L9.36785 34.4225C9.41785 34.7925 9.53785 35.1325 9.70785 35.4525C9.88785 35.7625 10.1078 36.0325 10.3678 36.2625C10.6378 36.5025 10.9478 36.6825 11.2778 36.8025C11.6178 36.9325 11.9678 37.0025 12.3378 37.0025L35.6578 37.0025C36.0278 37.0025 36.3878 36.9325 36.7278 36.8025C37.0578 36.6825 37.3578 36.5025 37.6278 36.2625C37.8978 36.0325 38.1178 35.7625 38.2878 35.4525C38.4678 35.1325 38.5778 34.7925 38.6278 34.4325L38.6278 34.4225L41.0578 17.4725L33.3778 20.1425ZM24 20.5C23.12 20.5 22.27 20.67 21.47 21.01C20.69 21.34 20 21.8 19.4 22.4C18.8 23 18.34 23.69 18.01 24.47C17.67 25.27 17.5 26.12 17.5 27C17.5 27.88 17.67 28.73 18.01 29.53C18.34 30.31 18.8 31 19.4 31.6C20 32.2 20.69 32.66 21.47 32.99C22.27 33.33 23.12 33.5 24 33.5C24.88 33.5 25.73 33.33 26.53 32.99C27.31 32.66 28 32.2 28.6 31.6C29.2 31 29.66 30.31 29.99 29.53C30.33 28.73 30.5 27.88 30.5 27C30.5 26.12 30.33 25.27 29.99 24.47C29.66 23.69 29.2 23 28.6 22.4C28 21.8 27.31 21.34 26.53 21.01C25.73 20.67 24.88 20.5 24 20.5ZM22.23 25.23C22 25.46 21.82 25.73 21.7 26.02C21.57 26.33 21.5 26.66 21.5 27C21.5 27.34 21.57 27.67 21.7 27.98C21.82 28.27 22 28.54 22.23 28.77C22.46 29 22.73 29.18 23.02 29.3C23.33 29.43 23.66 29.5 24 29.5C24.34 29.5 24.67 29.43 24.98 29.3C25.27 29.18 25.54 29 25.77 28.77C26 28.54 26.18 28.27 26.3 27.98C26.43 27.67 26.5 27.34 26.5 27C26.5 26.66 26.43 26.33 26.3 26.02C26.18 25.73 26 25.46 25.77 25.23C25.54 25 25.27 24.82 24.98 24.7C24.67 24.57 24.34 24.5 24 24.5C23.66 24.5 23.33 24.57 23.02 24.7C22.73 24.82 22.46 25 22.23 25.23Z" fill-rule="evenodd"  fill="#000000" >
</path>
</svg>
