<svg xmlns="http://www.w3.org/2000/svg" xmlns:xlink="http://www.w3.org/1999/xlink" width="48" height="48" viewBox="0 0 48 48" fill="none">
<path d="M39.9999 39L43.5 14.5L32 18.5L24 7L16 18.5L4.5 14.5L8 39L39.9999 39Z"   fill="#FEEDBD" >
</path>
<path d="M2.75233 16.4081L5.40688 34.99C5.52814 35.8387 5.79522 36.6368 6.20812 37.3842C6.6088 38.1095 7.12279 38.7441 7.75011 39.2882C8.37744 39.8322 9.07841 40.2513 9.85301 40.5454C10.6513 40.8484 11.4791 41 12.3365 41L35.6635 41C36.5209 41 37.3488 40.8484 38.147 40.5454C38.9216 40.2513 39.6225 39.8322 40.2499 39.2882C40.8772 38.7441 41.3912 38.1095 41.7919 37.3842C42.2048 36.6368 42.4719 35.8388 42.5932 34.99L45.2478 16.4081C45.5656 14.1835 43.4149 12.4121 41.2924 13.1504L32.7757 16.1127L26.4628 7.03791C25.2693 5.32216 22.7309 5.32216 21.5374 7.0379L21.5374 7.03791L15.2245 16.1127L6.70774 13.1503C4.58527 12.4121 2.43453 14.1835 2.75233 16.4081ZM9.70932 35.4499C9.53298 35.1307 9.41876 34.7888 9.36668 34.4243L6.94431 17.4677L14.6267 20.1398C15.262 20.3608 15.8995 20.3673 16.5393 20.1595C17.1789 19.9517 17.6908 19.5717 18.075 19.0195L24.0001 10.5022L29.9252 19.0195C30.3093 19.5717 30.8212 19.9517 31.4609 20.1595C32.1006 20.3673 32.7381 20.3608 33.3735 20.1398L41.0558 17.4677L38.6334 34.4243C38.5813 34.7888 38.4671 35.1307 38.2907 35.4499C38.1191 35.7605 37.8985 36.0326 37.6291 36.2664C37.3596 36.5 37.059 36.6798 36.7273 36.8058C36.3863 36.9352 36.0317 37 35.6635 37L12.3365 37C11.9683 37 11.6137 36.9352 11.2728 36.8058C10.941 36.6798 10.6404 36.5 10.3709 36.2664C10.1015 36.0326 9.88093 35.7605 9.70932 35.4499Z" fill-rule="evenodd"  fill="#FBB63E" >
</path>
<path d="M30.5 27C30.5 30.5899 27.5899 33.5 24 33.5C20.4102 33.5 17.5 30.5899 17.5 27C17.5 23.4102 20.4102 20.5 24 20.5C27.5899 20.5 30.5 23.4102 30.5 27Z" fill-rule="evenodd"  fill="#FA9E14" >
</path>
</svg>
