<svg xmlns="http://www.w3.org/2000/svg" xmlns:xlink="http://www.w3.org/1999/xlink" width="48" height="48" viewBox="0 0 48 48" fill="none">
<path d="M11 3L37 3C41.4183 3 45 6.58172 45 11L45 37C45 41.4183 41.4183 45 37 45L11 45C6.58172 45 3 41.4183 3 37L3 11C3 6.58172 6.58172 3 11 3ZM15.5 18L7 18L7 23L15.5 23L15.5 18ZM15.5 27L7 27L7 32L15.5 32L15.5 27ZM7 36L7 37C7 39.2091 8.79086 41 11 41L15.5 41L15.5 36L7 36ZM19.5 41L28.5 41L28.5 36L19.5 36L19.5 41ZM32.5 41L37 41C39.2091 41 41 39.2091 41 37L41 36L32.5 36L32.5 41ZM41 32L41 27L32.5 27L32.5 32L41 32ZM28.5 27L28.5 32L19.5 32L19.5 27L28.5 27ZM28.5 23L19.5 23L19.5 18L28.5 18L28.5 23ZM32.5 23L41 23L41 18L32.5 18L32.5 23Z" fill-rule="evenodd"  fill="#000000" >
</path>
</svg>
