<svg xmlns="http://www.w3.org/2000/svg" xmlns:xlink="http://www.w3.org/1999/xlink" width="48" height="48" viewBox="0 0 48 48" fill="none">
<path d="M24 5C13.51 5 5 13.51 5 24C5 34.49 13.51 43 24 43C34.49 43 43 34.49 43 24C43 13.51 34.49 5 24 5Z"   fill="#E2C2FB" >
</path>
<path d="M24 45C35.598 45 45 35.598 45 24C45 12.402 35.598 3 24 3C12.402 3 3 12.402 3 24C3 35.598 12.402 45 24 45ZM24 7C33.3888 7 41 14.6112 41 24C41 33.3888 33.3888 41 24 41C14.6112 41 7 33.3888 7 24C7 14.6112 14.6112 7 24 7Z" fill-rule="evenodd"  fill="#B579F4" >
</path>
<path d="M23.4535 26.6251L16.0409 19.2124C15.2598 18.4313 13.9935 18.4314 13.2124 19.2124C12.4314 19.9935 12.4314 21.2598 13.2124 22.0408L20.6251 29.4535C22.2847 31.1131 24.9754 31.1131 26.6349 29.4535L34.0476 22.0409C34.8287 21.2598 34.8287 19.9935 34.0476 19.2124C33.2666 18.4314 32.0003 18.4314 31.2192 19.2124L23.8065 26.6251C23.709 26.7226 23.551 26.7226 23.4535 26.6251Z" fill-rule="evenodd"  fill="#8134ED" >
</path>
</svg>
