<svg xmlns="http://www.w3.org/2000/svg" xmlns:xlink="http://www.w3.org/1999/xlink" width="48" height="48" viewBox="0 0 48 48" fill="none">
<path d="M9 2L18 2C20.7614 2 23 4.23858 23 7L23 16C23 18.7614 20.7614 21 18 21L9 21C6.23858 21 4 18.7614 4 16L4 7C4 4.23858 6.23858 2 9 2ZM34.0201 18.7845C34.0068 18.6916 34 18.5966 34 18.5L34 10C34 8.89543 33.1046 8 32 8L29 8C27.8954 8 27 7.1046 27 6C27 4.8954 27.8954 4 29 4L32 4C35.3137 4 38 6.6863 38 10L38 14L39.6274 14C41.3822 14 42.4308 15.9538 41.4607 17.4161L38.6034 21.7236C37.2345 23.7874 34.0201 22.8182 34.0201 20.3417L34.0201 18.7845ZM13.98 29.2162L13.98 27.6583C13.98 25.1818 10.7656 24.2126 9.39669 26.2764L6.53936 30.5839C5.56934 32.0462 6.61786 34 8.37268 34L10 34L10 38C10 41.3137 12.6863 44 16 44L19 44C20.1046 44 21 43.1046 21 42C21 40.8954 20.1046 40 19 40L16 40C14.8954 40 14 39.1046 14 38L14 29.5C14 29.4037 13.9932 29.3089 13.98 29.2162ZM30 27L39 27C41.7614 27 44 29.2386 44 32L44 41C44 43.7614 41.7614 46 39 46L30 46C27.2386 46 25 43.7614 25 41L25 32C25 29.2386 27.2386 27 30 27Z" fill-rule="evenodd"  fill="#000000" >
</path>
</svg>
