<svg xmlns="http://www.w3.org/2000/svg" xmlns:xlink="http://www.w3.org/1999/xlink" width="48" height="48" viewBox="0 0 48 48" fill="none">
<path d="M45 24C45 35.598 35.598 45 24 45C12.402 45 3 35.598 3 24C3 12.402 12.402 3 24 3C35.598 3 45 12.402 45 24ZM23.8235 26.9951L16.4109 19.5825C15.6298 18.8014 14.3635 18.8015 13.5825 19.5825C12.8015 20.3635 12.8014 21.6298 13.5825 22.4109L20.9951 29.8235C22.6547 31.4831 25.3453 31.4831 27.0049 29.8235L34.4175 22.4109C35.1986 21.6298 35.1985 20.3635 34.4175 19.5825C33.6365 18.8015 32.3702 18.8014 31.5891 19.5825L24.1765 26.9951C24.079 27.0926 23.921 27.0926 23.8235 26.9951Z" fill-rule="evenodd"  fill="#000000" >
</path>
</svg>
