<svg xmlns="http://www.w3.org/2000/svg" xmlns:xlink="http://www.w3.org/1999/xlink" width="48" height="48" viewBox="0 0 48 48" fill="none">
<path d="M24 3C22.067 3 20.5 4.567 20.5 6.5C20.5 8.433 22.067 10 24 10C25.933 10 27.5 8.433 27.5 6.5C27.5 4.567 25.933 3 24 3ZM17.9941 10.7579C17.998 10.6724 18 10.5865 18 10.5C18 7.46243 15.5376 5 12.5 5C9.46243 5 7 7.46243 7 10.5C7 13.5376 9.46243 16 12.5 16C12.7043 16 12.9059 15.9889 13.1044 15.9672C14.3275 17.649 15.458 19.4376 16.4959 21.3331C18.1064 24.2744 19.3708 27.262 20.289 30.2959C21.1435 33.1192 21.6779 35.9224 21.8923 38.7055C21.0466 39.3444 20.5 40.3584 20.5 41.5C20.5 43.433 22.067 45 24 45C25.933 45 27.5 43.433 27.5 41.5C27.5 40.2642 26.8595 39.178 25.8924 38.5552C25.664 35.4317 25.0724 32.2924 24.1175 29.1372C23.119 25.8381 21.748 22.5963 20.0043 19.412C19.8886 19.2006 19.7717 18.9904 19.6538 18.7814C20.2466 19.2075 20.8311 19.6418 21.4074 20.0841C24.4363 22.4089 27.0108 24.7914 29.1311 27.2315C30.9924 29.3735 32.4592 31.5113 33.5315 33.6449C33.1947 34.1828 33 34.8186 33 35.5C33 37.433 34.567 39 36.5 39C38.433 39 40 37.433 40 35.5C40 33.8128 38.8061 32.4044 37.2171 32.0735C35.9836 29.5642 34.2947 27.0756 32.1505 24.6079C29.854 21.965 27.0848 19.3993 23.8429 16.911C23.3734 16.5506 22.8987 16.1954 22.419 15.8453C22.5218 15.8726 22.6245 15.9002 22.7272 15.928C26.1064 16.8435 29.1563 17.9613 31.877 19.2815C34.2245 20.4206 36.2739 21.686 38.0252 23.0779C38.0086 23.2163 38 23.3571 38 23.5C38 25.433 39.567 27 41.5 27C43.433 27 45 25.433 45 23.5C45 21.567 43.433 20 41.5 20C41.2235 20 40.9545 20.0321 40.6964 20.0927C38.6731 18.4591 36.3154 16.9891 33.6233 15.6828C30.6773 14.2533 27.3939 13.0481 23.7731 12.0672C21.87 11.5516 19.9437 11.1152 17.9941 10.7579ZM40 10.5C40 12.433 38.433 14 36.5 14C34.567 14 33 12.433 33 10.5C33 8.567 34.567 7 36.5 7C38.433 7 40 8.567 40 10.5ZM10 23.5C10 25.433 8.433 27 6.5 27C4.567 27 3 25.433 3 23.5C3 21.567 4.567 20 6.5 20C8.433 20 10 21.567 10 23.5ZM16 35.5C16 37.433 14.433 39 12.5 39C10.567 39 9 37.433 9 35.5C9 33.567 10.567 32 12.5 32C14.433 32 16 33.567 16 35.5Z" fill-rule="evenodd"  fill="#000000" >
</path>
</svg>
