<svg xmlns="http://www.w3.org/2000/svg" xmlns:xlink="http://www.w3.org/1999/xlink" width="48" height="48" viewBox="0 0 48 48" fill="none">
<path d="M11 5L37 5C40.3137 5 43 7.68629 43 11L43 37C43 40.3137 40.3137 43 37 43L11 43C7.68629 43 5 40.3137 5 37L5 11C5 7.68629 7.68629 5 11 5Z"   fill="#BEDCFF" >
</path>
<path d="M37 3L11 3C6.58172 3 3 6.58172 3 11L3 37C3 41.4183 6.58172 45 11 45L37 45C41.4183 45 45 41.4183 45 37L45 11C45 6.58172 41.4183 3 37 3ZM7 11C7 8.79086 8.79086 7 11 7L37 7C39.2091 7 41 8.79086 41 11L41 37C41 39.2091 39.2091 41 37 41L11 41C8.79086 41 7 39.2091 7 37L7 11Z" fill-rule="evenodd"  fill="#1764FF" >
</path>
<path d="M43 18L5 18L5 14L43 14L43 18Z" fill-rule="evenodd"  fill="#4187FF" >
</path>
<path d="M43 27L5 27L5 23L43 23L43 27Z" fill-rule="evenodd"  fill="#4187FF" >
</path>
<path d="M43 36L5 36L5 32L43 32L43 36Z" fill-rule="evenodd"  fill="#4187FF" >
</path>
<path d="M20 16L20 43L16 43L16 16L20 16Z" fill-rule="evenodd"  fill="#4187FF" >
</path>
<path d="M33 16L33 43L29 43L29 16L33 16Z" fill-rule="evenodd"  fill="#4187FF" >
</path>
<path d="M37 3L11 3C6.58172 3 3 6.58172 3 11L3 37C3 41.4183 6.58172 45 11 45L37 45C41.4183 45 45 41.4183 45 37L45 11C45 6.58172 41.4183 3 37 3ZM7 11C7 8.79086 8.79086 7 11 7L37 7C39.2091 7 41 8.79086 41 11L41 37C41 39.2091 39.2091 41 37 41L11 41C8.79086 41 7 39.2091 7 37L7 11Z" fill-rule="evenodd"  fill="#1764FF" >
</path>
</svg>
