<svg xmlns="http://www.w3.org/2000/svg" xmlns:xlink="http://www.w3.org/1999/xlink" width="48" height="48" viewBox="0 0 48 48" fill="none">
<path d="M45 13.3996C45 13.5315 44.9946 13.6627 44.9839 13.7932C44.9945 13.8766 45 13.9616 45 14.0479L45 24.159C45 24.3285 44.9906 24.4967 44.9718 24.6636C44.9904 24.773 45 24.8854 45 25L45 35.2C45 36.0178 44.7834 36.8055 44.3502 37.5632C43.9827 38.2059 43.4655 38.8094 42.7987 39.3736C41.6528 40.3433 40.0896 41.1825 38.1089 41.8914C36.234 42.5624 34.096 43.0796 31.695 43.4431C29.2423 43.8144 26.6773 44 24 44C21.3226 44 18.7576 43.8144 16.305 43.4431C13.904 43.0796 11.766 42.5624 9.89104 41.8914C7.91041 41.1825 6.34714 40.3433 5.20122 39.3736C4.53444 38.8094 4.01729 38.2059 3.64977 37.5632C3.21659 36.8055 3 36.0178 3 35.2L3 25C3 24.8854 3.00965 24.773 3.02817 24.6636C3.00939 24.4967 3 24.3285 3 24.159L3 14.0479C3 13.9616 3.00547 13.8766 3.01607 13.7932C3.00536 13.6627 3 13.5315 3 13.3996C3 12.5737 3.21004 11.7755 3.63013 11.0052C3.99244 10.3408 4.50433 9.7152 5.16582 9.12835C6.31222 8.11129 7.87772 7.23041 9.86233 6.4857C11.7417 5.78048 13.8845 5.23691 16.2908 4.85499C18.7481 4.46499 21.3178 4.26999 24 4.26999C26.6822 4.26999 29.2519 4.46499 31.7092 4.85499C34.1155 5.23691 36.2583 5.78048 38.1377 6.4857C40.1223 7.23041 41.6878 8.11129 42.8342 9.12835C43.4957 9.7152 44.0076 10.3408 44.3699 11.0052C44.79 11.7755 45 12.5737 45 13.3996ZM38.1377 20.3135C39.2154 19.9091 40.1695 19.4646 41 18.9799L41 24.159C41 24.2615 40.9605 24.3813 40.8815 24.5182C40.7484 24.7491 40.5284 24.9932 40.2216 25.2505C39.4445 25.9024 38.2927 26.499 36.7663 27.0405C35.1342 27.6196 33.245 28.0701 31.0988 28.3922C28.8438 28.7306 26.4775 28.8998 24 28.8998C21.5225 28.8998 19.1562 28.7306 16.9011 28.3922C14.755 28.0701 12.8658 27.6196 11.2337 27.0405C9.70729 26.499 8.55553 25.9024 7.7784 25.2505C7.47159 24.9932 7.25162 24.7491 7.11849 24.5182C7.0395 24.3813 7 24.2615 7 24.159L7 18.9799C7.83053 19.4646 8.78464 19.9091 9.86233 20.3135C11.7417 21.0188 13.8845 21.5623 16.2908 21.9442C18.7481 22.3342 21.3178 22.5292 24 22.5292C26.6822 22.5292 29.2519 22.3342 31.7092 21.9442C34.1155 21.5623 36.2583 21.0188 38.1377 20.3135Z" fill-rule="evenodd"  fill="#000000" >
</path>
</svg>
