<svg xmlns="http://www.w3.org/2000/svg" xmlns:xlink="http://www.w3.org/1999/xlink" width="48" height="48" viewBox="0 0 48 48" fill="none">
<path d="M4.83725 39.9298C4.27222 39.8626 3.77913 39.6403 3.35797 39.2631C3.01445 38.9555 2.75842 38.5761 2.58987 38.1249C2.45638 37.7676 2.38822 37.391 2.38538 36.9951C2.38349 36.7323 2.41049 36.4752 2.46637 36.2236C2.4065 36.1582 2.34561 36.0925 2.28368 36.0265C1.87471 35.5907 1.62311 35.0602 1.52887 34.435C1.45749 33.9615 1.48565 33.4834 1.61334 33.0007C1.74245 32.5127 1.95733 32.0806 2.25799 31.7043C2.66049 31.2006 3.15621 30.8662 3.74515 30.701C5.08179 30.3264 6.13234 29.8366 6.89678 29.2316C7.19974 28.9919 7.50082 28.702 7.80003 28.3618C7.99964 28.1349 8.29731 27.7636 8.69303 27.248C9.03163 26.8069 9.29763 26.469 9.49102 26.2342C9.82882 25.8243 10.1649 25.4501 10.4992 25.1116C11.3532 24.2471 12.3394 23.4734 13.4577 22.7905C14.4653 22.1752 15.5403 21.7433 16.6825 21.4949C17.1139 21.4011 17.5769 21.3286 18.0713 21.2776C18.3483 21.249 18.7332 21.2198 19.226 21.1899C19.9276 21.1473 20.3815 21.0954 20.5875 21.0343C20.6639 21.0117 20.7207 20.9875 20.7581 20.9619C20.7907 20.9396 20.8252 20.9024 20.8616 20.8504C21.1012 20.5081 21.3714 20.055 21.672 19.4911C21.8674 19.1247 22.1707 18.5235 22.5819 17.6877C23.0665 16.7027 23.4461 15.9524 23.7205 15.4369C24.1951 14.5453 24.661 13.752 25.118 13.0571C26.3405 11.1981 27.7066 9.73392 29.2162 8.66452C31.1131 7.3207 33.2886 6.54116 35.7428 6.32588C38.4213 6.09092 41.4544 6.53153 44.8422 7.64773C45.3635 7.81951 45.7923 8.11842 46.1286 8.54445C46.4314 8.92823 46.619 9.36617 46.6913 9.85826C46.7571 10.3062 46.7188 10.7473 46.5766 11.1816C46.43 11.6293 46.1893 12.0189 45.8545 12.3506C45.1645 13.0341 44.5571 13.827 44.0322 14.7291C43.553 15.5526 43.1286 16.4923 42.7589 17.5481C42.4423 18.4519 42.1465 19.5016 41.8715 20.6971C41.7029 21.4294 41.477 22.5345 41.1936 24.0124C40.971 25.173 40.7985 26.0355 40.6763 26.5997C40.4694 27.5549 40.2586 28.391 40.0438 29.1081C40.4246 29.8483 40.8595 30.6507 41.3485 31.5151C42.5171 33.5806 43.4689 35.0292 44.2041 35.861C44.434 36.121 44.5985 36.4173 44.6977 36.7496C44.795 37.0753 44.8206 37.406 44.7746 37.7418C44.725 38.1034 44.5978 38.4341 44.3931 38.7339C44.1696 39.0612 43.8802 39.3142 43.5249 39.4927C42.7053 39.9045 41.8643 40.1387 41.0018 40.1951C40.2127 40.2468 39.4256 40.1484 38.6402 39.8998C37.4264 39.5157 36.2547 38.7858 35.1251 37.7103C34.7134 37.3182 34.3159 36.8894 33.9326 36.4239C33.6949 36.5066 33.4511 36.5807 33.2011 36.646C32.2806 36.8867 31.2646 37.0097 30.1531 37.0148C30.0445 37.2515 29.9256 37.483 29.7962 37.7094C29.091 38.9433 28.1023 39.9797 26.8301 40.8185C25.8013 41.4968 24.62 42.0241 23.286 42.4004C22.2111 42.7036 21.1048 42.8926 19.9672 42.9674C19.4634 43.0005 18.9978 42.8868 18.5704 42.6263C18.1788 42.3877 17.8804 42.0617 17.6751 41.6482C17.4812 41.2577 17.3987 40.8447 17.4278 40.4091C17.4584 39.9496 17.6083 39.5317 17.8774 39.1554C18.4984 38.2871 18.9992 37.455 19.3797 36.6591C19.5655 36.2706 19.7272 35.8803 19.8649 35.4884C18.0031 35.3143 16.4431 35.3538 15.1848 35.6069C14.3337 35.7781 13.5797 36.0599 12.9228 36.4522C12.6594 36.6096 12.3858 36.7992 12.1022 37.0211C11.9193 37.1643 11.6512 37.3884 11.2979 37.6933C10.8395 38.089 10.4828 38.3817 10.2278 38.5713C9.75551 38.9225 9.28588 39.2035 8.81889 39.4143C7.66208 39.9364 6.33487 40.1083 4.83725 39.9298ZM37.3272 34.2387C37.5097 34.4425 37.6951 34.6341 37.8835 34.8135C38.3613 35.2685 38.8253 35.6128 39.2753 35.8465C38.8461 35.1705 38.3905 34.4075 37.9084 33.5577C37.8687 33.6093 37.8286 33.6601 37.7882 33.7102C37.6399 33.8941 37.4862 34.0702 37.3272 34.2387ZM32.1891 32.7762C31.8234 32.8719 31.4269 32.9391 30.9997 32.9779C30.9998 32.9547 30.9999 32.9313 30.9999 32.9078L30.9999 32.9057C30.9999 31.8011 30.1045 30.9057 28.9999 30.9057C27.8953 30.9057 26.9999 31.8011 26.9999 32.9057C26.9999 33.9957 26.7744 34.9354 26.3233 35.7246C25.934 36.4059 25.369 36.9907 24.6283 37.479C24.1585 37.7888 23.629 38.0545 23.0398 38.276C23.4718 37.3552 23.8054 36.4206 24.0406 35.472C24.253 34.6149 24.3975 33.6901 24.4739 32.6976C24.5283 31.9908 24.5555 31.0916 24.5555 30C24.5555 28.8954 23.66 28 22.5555 28C21.4509 28 20.5555 28.8954 20.5555 30C20.5555 30.5765 20.5476 31.0876 20.5318 31.5335C20.2128 31.5007 19.9009 31.4732 19.5961 31.451C17.6199 31.3075 15.8866 31.3856 14.396 31.6854C13.0963 31.9469 11.9216 32.3911 10.8717 33.0181C10.4643 33.2614 10.0527 33.5458 9.63689 33.8712C9.40349 34.0539 9.08592 34.3186 8.68419 34.6653C8.29917 34.9977 8.01806 35.2298 7.84086 35.3615C7.59999 35.5406 7.37748 35.6763 7.17331 35.7684C6.98875 35.8518 6.78354 35.9124 6.55768 35.9503L6.5578 35.9329C6.55927 35.6358 6.52613 35.3525 6.45839 35.0831C6.37463 34.75 6.22078 34.449 5.99682 34.1802C7.32752 33.7035 8.45489 33.0995 9.37892 32.3683C9.87053 31.9793 10.3454 31.5244 10.8035 31.0036C11.0619 30.7098 11.4161 30.2698 11.8661 29.6835C12.1767 29.2789 12.414 28.977 12.5782 28.7778C12.8395 28.4606 13.0951 28.1755 13.345 27.9226C13.9698 27.29 14.7023 26.7173 15.5423 26.2043C16.1662 25.8233 16.8296 25.5564 17.5326 25.4035C17.8188 25.3413 18.1353 25.2922 18.4819 25.2564C18.7029 25.2336 19.0316 25.209 19.4682 25.1825C19.9408 25.1539 20.2947 25.1263 20.5299 25.0999C20.9777 25.0497 21.3761 24.9727 21.7251 24.8691C22.7397 24.5681 23.5442 23.9932 24.1384 23.1444C24.4706 22.6698 24.8251 22.0794 25.2017 21.373C25.4175 20.9682 25.7406 20.3284 26.1711 19.4534C26.6368 18.5068 26.9969 17.7945 27.2513 17.3166C27.6679 16.5339 28.0709 15.8467 28.4601 15.2549C29.4063 13.8161 30.4291 12.7073 31.5284 11.9285C32.8362 11.0021 34.3575 10.4628 36.0924 10.3106C37.7656 10.1638 39.665 10.3655 41.7908 10.9157C41.3521 11.4777 40.9468 12.0782 40.5749 12.7174C39.9678 13.7607 39.4374 14.9302 38.9837 16.226C38.6183 17.2693 38.2815 18.4607 37.9733 19.8002C37.7938 20.5802 37.5577 21.7332 37.2651 23.259C37.0485 24.3886 36.8824 25.22 36.767 25.753C36.5809 26.6121 36.3947 27.3517 36.2085 27.9719C35.786 29.379 35.2746 30.4549 34.6742 31.1996C34.3639 31.5845 34.0156 31.9029 33.6294 32.1548C33.212 32.4271 32.7319 32.6342 32.1891 32.7762ZM37 15.5C37 16.8807 35.8807 18 34.5 18C33.1193 18 32 16.8807 32 15.5C32 14.1193 33.1193 13 34.5 13C35.8807 13 37 14.1193 37 15.5Z" fill-rule="evenodd"  fill="#000000" >
</path>
</svg>
