<svg xmlns="http://www.w3.org/2000/svg" xmlns:xlink="http://www.w3.org/1999/xlink" width="48" height="48" viewBox="0 0 48 48" fill="none">
<path d="M38.02 17.7838C38.0068 17.6911 38 17.5964 38 17.5L38 13C38 9.68629 35.3137 7 32 7L29 7C27.8954 7 27 6.1046 27 5C27 3.8954 27.8954 3 29 3L32 3C37.5229 3 42 7.4772 42 13L43.6273 13C45.3821 13 46.4307 14.9538 45.4606 16.4161L42.6033 20.7236C41.2344 22.7874 38.02 21.8182 38.02 19.3417L38.02 17.7838ZM28.803 10.8355C31.9391 9.13177 35.2153 12.8508 33.1296 15.747L28.9891 21.4965L34.2078 25.0504C36.3191 26.4883 36.1148 29.6637 33.8366 30.8191L20.1639 37.7531C17.0268 39.344 13.8659 35.6517 15.9214 32.7973L19.8998 27.2729L14.9843 23.8984C12.9175 22.4794 13.0788 19.3778 15.2818 18.181L28.803 10.8355ZM18.1138 21.1948L28.2377 15.6949L24.9502 20.2599C24.0697 21.4827 24.3706 23.1909 25.6161 24.0391L31.0563 27.7439L20.7122 32.9898L23.9357 28.5137C24.814 27.2941 24.5172 25.5908 23.2782 24.7401L18.1138 21.1948ZM9.97997 30.2155L9.97997 28.6583C9.97997 26.1818 6.7656 25.2126 5.39664 27.2764L2.5393 31.5839C1.56928 33.0462 2.6178 35 4.37263 35L6.00005 35C6.00005 40.5228 10.4772 45 16 45L19 45C20.1046 45 21 44.1046 21 43C21 41.8954 20.1046 41 19 41L16 41C12.6863 41 10 38.3137 10 35L10 30.5C10 30.4034 9.9932 30.3084 9.97997 30.2155Z" fill-rule="evenodd"  fill="#000000" >
</path>
</svg>
