<svg xmlns="http://www.w3.org/2000/svg" xmlns:xlink="http://www.w3.org/1999/xlink" width="48" height="48" viewBox="0 0 48 48" fill="none">
<path d="M15 3L33 3C37.9706 3 42 7.02944 42 12L42 12C42 16.9706 37.9706 21 33 21L15 21C10.0294 21 6 16.9706 6 12L6 12C6 7.02944 10.0294 3 15 3Z"   fill="#E2C2FB" >
</path>
<path d="M33 1L15 1C13.5089 1 12.0815 1.28842 10.7177 1.86526C9.40143 2.42199 8.23614 3.20751 7.22183 4.22183C6.20751 5.23614 5.42199 6.40143 4.86526 7.71769C4.28842 9.08148 4 10.5089 4 12C4 18.0751 8.92487 23 15 23L33 23C39.0751 23 44 18.0751 44 12C44 5.92487 39.0751 1 33 1ZM12.2759 5.54927C13.1417 5.18309 14.0497 5 15 5L33 5C36.866 5 40 8.13401 40 12C40 15.866 36.866 19 33 19L15 19C11.134 19 8 15.866 8 12C8 11.0497 8.18309 10.1417 8.54927 9.2759C8.90339 8.43867 9.40372 7.69678 10.0503 7.05025C10.6968 6.40372 11.4387 5.90339 12.2759 5.54927Z" fill-rule="evenodd"  fill="#8134ED" >
</path>
<path d="M15 27L33 27C37.9706 27 42 31.0294 42 36L42 36C42 40.9706 37.9706 45 33 45L15 45C10.0294 45 6 40.9706 6 36L6 36C6 31.0294 10.0294 27 15 27Z"   fill="#E2C2FB" >
</path>
<path d="M33 25L15 25C13.5089 25 12.0815 25.2884 10.7177 25.8653C9.40143 26.422 8.23614 27.2075 7.22183 28.2218C6.20751 29.2361 5.42199 30.4014 4.86526 31.7177C4.28842 33.0815 4 34.5089 4 36C4 42.0751 8.92487 47 15 47L33 47C39.0751 47 44 42.0751 44 36C44 29.9249 39.0751 25 33 25ZM12.2759 29.5493C13.1417 29.1831 14.0497 29 15 29L33 29C36.866 29 40 32.134 40 36C40 39.866 36.866 43 33 43L15 43C11.134 43 8 39.866 8 36C8 35.0497 8.18309 34.1417 8.54927 33.2759C8.90339 32.4387 9.40372 31.6968 10.0503 31.0503C10.6968 30.4037 11.4387 29.9034 12.2759 29.5493Z" fill-rule="evenodd"  fill="#8134ED" >
</path>
<path d="M15 33L15 33C16.6568 33 18 34.3432 18 36L18 36C18 37.6568 16.6568 39 15 39L15 39C13.3432 39 12 37.6568 12 36L12 36C12 34.3432 13.3432 33 15 33Z"   fill="#8134ED" >
</path>
<path d="M20 36C20 33.2386 17.7614 31 15 31C14.3227 31 13.6738 31.1313 13.0532 31.3937C12.4547 31.6469 11.9252 32.0038 11.4645 32.4645C11.0038 32.9252 10.6469 33.4547 10.3938 34.0532C10.1313 34.6738 10 35.3227 10 36C10 38.7614 12.2386 41 15 41C17.7614 41 20 38.7614 20 36ZM14.2929 35.2929C14.4882 35.0976 14.7239 35 15 35C15.5523 35 16 35.4477 16 36C16 36.5523 15.5523 37 15 37C14.4477 37 14 36.5523 14 36C14 35.7239 14.0976 35.4882 14.2929 35.2929Z" fill-rule="evenodd"  fill="#8134ED" >
</path>
<path d="M33 9L33 9C34.6568 9 36 10.3432 36 12L36 12C36 13.6568 34.6568 15 33 15L33 15C31.3431 15 30 13.6568 30 12L30 12C30 10.3432 31.3431 9 33 9Z"   fill="#8134ED" >
</path>
<path d="M38 12C38 9.23858 35.7614 7 33 7C32.3227 7 31.6738 7.13125 31.0532 7.39375C30.4547 7.64686 29.9252 8.00377 29.4645 8.46447C29.0038 8.92517 28.6469 9.45473 28.3937 10.0532C28.1313 10.6738 28 11.3227 28 12C28 14.7614 30.2386 17 33 17C35.7614 17 38 14.7614 38 12ZM32.2929 11.2929C32.4882 11.0976 32.7239 11 33 11C33.5523 11 34 11.4477 34 12C34 12.5523 33.5523 13 33 13C32.4477 13 32 12.5523 32 12C32 11.7239 32.0976 11.4882 32.2929 11.2929Z" fill-rule="evenodd"  fill="#8134ED" >
</path>
</svg>
