<svg xmlns="http://www.w3.org/2000/svg" xmlns:xlink="http://www.w3.org/1999/xlink" width="48" height="48" viewBox="0 0 48 48" fill="none">
<path d="M10 4L23 4C26.3137 4 29 6.68629 29 10L29 23C29 26.3137 26.3137 29 23 29L10 29C6.68629 29 4 26.3137 4 23L4 10C4 6.68629 6.68629 4 10 4Z"   fill="#FFC7BF" >
</path>
<path d="M23 2L10 2C5.58172 2 2 5.58172 2 10L2 23C2 27.4183 5.58172 31 10 31L23 31C27.4183 31 31 27.4183 31 23L31 10C31 5.58172 27.4183 2 23 2ZM6 10C6 7.79086 7.79086 6 10 6L23 6C25.2091 6 27 7.79086 27 10L27 23C27 25.2091 25.2091 27 23 27L10 27C7.79086 27 6 25.2091 6 23L6 10Z" fill-rule="evenodd"  fill="#FF766C" >
</path>
<path d="M9.58648 23.3743C10.3676 24.1553 11.6339 24.1553 12.4149 23.3742L23.4137 12.3742C24.1946 11.5931 24.1946 10.3267 23.4135 9.54574C22.6324 8.76473 21.3661 8.76485 20.5851 9.5459L9.58632 20.5459C8.80532 21.327 8.80539 22.5933 9.58648 23.3743Z" fill-rule="evenodd"  fill="#FF1A1A" >
</path>
<path d="M23.4143 23.3738C24.1953 22.5927 24.1952 21.3264 23.4142 20.5454L12.4142 9.5463C11.6331 8.76527 10.3667 8.76534 9.58573 9.54642C8.80472 10.3275 8.80475 11.5938 9.58585 12.3748L20.5858 23.3739C21.3669 24.1549 22.6333 24.1549 23.4143 23.3738Z" fill-rule="evenodd"  fill="#FF1A1A" >
</path>
<path d="M25 19L38 19C41.3137 19 44 21.6863 44 25L44 38C44 41.3137 41.3137 44 38 44L25 44C21.6863 44 19 41.3137 19 38L19 25C19 21.6863 21.6863 19 25 19Z"   fill="#AFECDA" >
</path>
<path d="M38 17L25 17C20.5817 17 17 20.5817 17 25L17 38C17 42.4183 20.5817 46 25 46L38 46C42.4183 46 46 42.4183 46 38L46 25C46 20.5817 42.4183 17 38 17ZM21 25C21 22.7909 22.7909 21 25 21L38 21C40.2091 21 42 22.7909 42 25L42 38C42 40.2091 40.2091 42 38 42L25 42C22.7909 42 21 40.2091 21 38L21 25Z" fill-rule="evenodd"  fill="#51C5AA" >
</path>
<path d="M39.4458 28.3819L31.8552 36.3537C30.5394 37.7357 28.3383 37.7463 27.0091 36.3772L23.5666 32.8312L23.565 32.8296C23.2153 32.4695 23 31.9781 23 31.4365C23 30.3319 23.8954 29.4365 25 29.4365C25.5629 29.4365 26.0715 29.669 26.435 30.0433L26.4368 30.0452L29.4164 33.1144L36.5486 25.624L36.5516 25.6208C36.9159 25.2384 37.4301 25 38 25C39.1046 25 40 25.8954 40 27C40 27.5347 39.7902 28.0203 39.4484 28.3792L39.4458 28.3819Z" fill-rule="evenodd"  fill="#0D9E86" >
</path>
</svg>
