<svg xmlns="http://www.w3.org/2000/svg" xmlns:xlink="http://www.w3.org/1999/xlink" width="48" height="48" viewBox="0 0 48 48" fill="none">
<path d="M45 11.5C45 16.1944 41.1944 20 36.5 20C33.5548 20 30.9595 18.5021 29.4343 16.2266L21.5425 20.001C21.8398 20.9477 22 21.9551 22 23C22 24.9483 21.4428 26.7664 20.4792 28.3038L26.7072 33.2207C27.7746 32.4525 29.0845 32 30.5 32C34.0899 32 37 34.9102 37 38.5C37 42.0899 34.0899 45 30.5 45C26.9102 45 24 42.0899 24 38.5C24 37.7808 24.1168 37.0889 24.3325 36.4422L17.7077 31.2121C16.0892 32.3392 14.1218 33 12 33C6.47715 33 2 28.5228 2 23C2 17.4771 6.47715 13 12 13C15.04 13 17.7632 14.3566 19.5973 16.4973L28.0529 12.4534C28.0179 12.1404 28 11.8223 28 11.5C28 6.80558 31.8056 3 36.5 3C41.1944 3 45 6.80558 45 11.5ZM41 11.5C41 9.01472 38.9853 7 36.5 7C34.0147 7 32 9.01472 32 11.5C32 13.9853 34.0147 16 36.5 16C38.9853 16 41 13.9853 41 11.5ZM18 23C18 19.6863 15.3137 17 12 17C8.68629 17 6 19.6863 6 23C6 26.3137 8.68629 29 12 29C15.3137 29 18 26.3137 18 23ZM33 38.5C33 37.1193 31.8807 36 30.5 36C29.1193 36 28 37.1193 28 38.5C28 39.8807 29.1193 41 30.5 41C31.8807 41 33 39.8807 33 38.5Z" fill-rule="evenodd"  fill="#000000" >
</path>
</svg>
