<svg xmlns="http://www.w3.org/2000/svg" xmlns:xlink="http://www.w3.org/1999/xlink" width="48" height="48" viewBox="0 0 48 48" fill="none">
<path d="M11 3L18 3C20.2091 3 22 4.79086 22 7L22 41C22 43.2091 20.2091 45 18 45L11 45C6.58172 45 3 41.4183 3 37L3 11C3 6.58172 6.58172 3 11 3ZM30 3L37 3C41.4183 3 45 6.58172 45 11L45 19C45 21.2091 43.2091 23 41 23L30 23C27.7909 23 26 21.2091 26 19L26 7C26 4.79086 27.7909 3 30 3ZM37 26L34 26C29.5817 26 26 29.5817 26 34L26 41C26 43.2091 27.7909 45 30 45L41 45C43.2091 45 45 43.2091 45 41L45 34C45 29.5817 41.4183 26 37 26Z" fill-rule="evenodd"  fill="#000000" >
</path>
</svg>
