<svg xmlns="http://www.w3.org/2000/svg" xmlns:xlink="http://www.w3.org/1999/xlink" width="48" height="48" viewBox="0 0 48 48" fill="none">
<path d="M28.305 29.7502C28.3239 17.8857 21.9738 8.2982 20.9767 4.00336C17.3194 4.88587 15.4021 5.94595 12.4446 8.41362C28.552 22.9674 7.13247 30.9942 6 37.0804C6 41.9321 17.926 46.0775 24.5441 44.754C27.2888 39.5187 28.2975 34.4563 28.305 29.7502Z"   fill="#FFC7BF" >
</path>
<path d="M22.47 1.58594L20.51 2.05594C19.5172 2.2955 18.6296 2.56001 17.85 2.83594C17.0273 3.12719 16.2496 3.464 15.52 3.84594C14.81 4.21767 14.0912 4.6605 13.36 5.17594C12.7068 5.63645 11.9704 6.19976 11.16 6.87594L9.39001 8.35594L11.1 9.89594C13.5565 12.1155 15.1651 14.2424 15.92 16.2659C16.5202 17.8747 16.5769 19.4649 16.09 21.0459C15.6625 22.4341 14.7929 23.9151 13.47 25.4959C12.9219 26.1509 12.2544 26.87 11.48 27.6459C11.009 28.1179 10.2946 28.8035 9.34001 29.7059C8.56127 30.4421 7.99148 30.9886 7.63001 31.3459C7.01244 31.9565 6.50169 32.5079 6.09 32.9859C5.56518 33.5953 5.14778 34.1683 4.83 34.7059C4.42431 35.3924 4.15191 36.0607 4.03 36.7159L4 36.8959L4 37.0759C4 38.0302 4.26502 38.9685 4.8 39.8759C5.24325 40.6278 5.86294 41.3406 6.66001 42.0259C8.03388 43.2072 9.84118 44.2314 12.07 45.0959C14.1712 45.911 16.3456 46.4711 18.59 46.7759C20.9877 47.1017 23.1037 47.0831 24.9401 46.716L25.8701 46.5259L26.3201 45.6859C28.9708 40.6296 30.3001 35.3191 30.3001 29.7559C30.3001 25.8732 29.6618 21.7989 28.3601 17.5459C27.8719 15.9509 27.2749 14.2619 26.5601 12.4759C26.146 11.4414 25.5463 10.0303 24.7601 8.23594C24.189 6.93275 23.7965 6.00722 23.58 5.46594C23.0616 4.16947 22.8033 3.04492 22.47 1.58594ZM19.66 6.44594C19.495 6.49899 19.3335 6.55163 19.18 6.60594C18.5361 6.83387 17.9415 7.09199 17.38 7.38594C16.8258 7.67606 16.2474 8.03187 15.66 8.44594C15.5998 8.48839 15.5421 8.53111 15.48 8.57594C19.8347 13.1336 21.309 17.6829 19.91 22.2259C19.3243 24.1281 18.1981 26.0726 16.53 28.0659C15.9069 28.8105 15.167 29.6172 14.31 30.4759C13.8116 30.9753 13.0728 31.6869 12.09 32.6159C11.333 33.3316 10.7902 33.8596 10.45 34.1959C9.90845 34.7314 9.46197 35.1989 9.12001 35.5959C8.52552 36.2862 8.16143 36.8351 8.02001 37.2559C8.05138 37.4353 8.12654 37.6365 8.25001 37.8459C8.46918 38.2177 8.80752 38.5983 9.27001 38.9959C10.2967 39.8786 11.7081 40.667 13.51 41.3659C15.3177 42.0672 17.1876 42.5534 19.12 42.8159C20.6592 43.0251 22.0262 43.0649 23.22 42.9359C25.2672 38.7286 26.3001 34.33 26.3001 29.7459C26.3001 26.2643 25.7243 22.5853 24.5401 18.7159C24.0844 17.2276 23.5134 15.6482 22.84 13.9659C22.442 12.9713 21.859 11.5909 21.09 9.83594C20.5015 8.49293 20.0926 7.53754 19.86 6.95594C19.7898 6.78021 19.7227 6.61113 19.66 6.44594Z" fill-rule="evenodd"  fill="#FF1A1A" >
</path>
<path d="M40.5001 20.5034C41.0001 16.0033 35.9972 17.7982 35.0001 13.5034C31.0001 13.0034 20.06 10.5933 15 9.50336C28.5001 23.5034 9.13247 30.4173 8 36.5034C14.4401 27.9234 33.5001 25.0034 40.5001 20.5034Z"   fill="#FF766C" >
</path>
<path d="M8.5155 30.6702C6.40073 32.4358 4.94264 34.3273 4.14124 36.3447L7.85867 37.8215C8.41026 36.4329 9.48372 35.0726 11.079 33.7407C12.8087 32.2967 15.1221 30.9109 18.0194 29.5833C24.053 26.8185 32.5097 24.3557 43.3895 22.1948L45.678 21.7403L44.879 19.5481C44.2129 17.7209 42.9365 16.1123 41.0499 14.7225C39.5351 13.6066 37.593 12.6136 35.2235 11.7435C33.3598 11.059 31.1336 10.4178 28.5448 9.81981C27.0457 9.47351 24.8653 9.02759 22.0037 8.48205C20.4389 8.18374 19.312 7.96274 18.6231 7.81906C17.5191 7.58885 16.6274 7.37751 15.948 7.18502C15.2306 6.98178 14.7014 6.78955 14.3604 6.60833C14.2624 6.55624 14.2016 6.51925 14.1782 6.49738C14.2709 6.58389 14.3449 6.71106 14.4 6.87887L10.5999 8.12734C10.8685 8.94496 11.4963 9.61603 12.4833 10.1405C13.0753 10.4552 13.8668 10.7528 14.8577 11.0336C15.6276 11.2517 16.6105 11.4854 17.8064 11.7348C18.5179 11.8832 19.6673 12.1087 21.2546 12.4113C24.0657 12.9472 26.1957 13.3825 27.6445 13.7172C30.0707 14.2776 32.1374 14.8713 33.8446 15.4983C36.5303 16.4846 38.4991 17.6044 39.7509 18.8579C29.9217 20.9402 22.1225 23.3031 16.3531 25.9468C13.1315 27.4231 10.519 28.9975 8.5155 30.6702Z" fill-rule="evenodd"  fill="#FF1A1A" >
</path>
<path d="M19.1853 6.60329C19.8353 6.37345 20.5899 6.15486 21.4491 5.94754L20.5109 2.05914C19.5179 2.29874 18.6316 2.5564 17.8518 2.8321C17.0282 3.12334 16.2513 3.45978 15.5212 3.84142C14.8096 4.21332 14.088 4.65686 13.3563 5.17204C12.7012 5.63335 11.9686 6.2019 11.1587 6.87769L9.39027 8.35322L11.0992 9.8973C13.5558 12.117 15.1616 14.2387 15.9168 16.2626C16.5172 17.8716 16.574 19.4669 16.0872 21.0484C15.66 22.4369 14.785 23.9217 13.4624 25.5028C12.9144 26.158 12.2534 26.8736 11.4791 27.6497C11.0082 28.1218 10.2956 28.8091 9.34123 29.7116C8.5627 30.4479 7.99281 30.9947 7.63156 31.352C7.01424 31.9626 6.49981 32.5069 6.08827 32.9848C5.56365 33.5942 5.14251 34.1677 4.82486 34.7053C4.41934 35.3918 4.15563 36.0625 4.03374 36.7174L4 36.8988L4 37.0834C4 38.0376 4.26741 38.9684 4.80222 39.8758C5.24537 40.6276 5.86539 41.3461 6.6623 42.0312C8.03583 43.2122 9.83678 44.2347 12.0652 45.0988C14.1658 45.9133 16.3381 46.4728 18.5821 46.7774C20.9793 47.1027 23.096 47.0818 24.9323 46.7146L24.1479 42.7922C22.75 43.0717 21.0741 43.0789 19.1201 42.8138C17.1879 42.5516 15.3183 42.0701 13.5113 41.3694C11.71 40.6709 10.2963 39.8805 9.27011 38.9982C8.80786 38.6008 8.46721 38.2163 8.24818 37.8447C8.12476 37.6353 8.04737 37.4408 8.01602 37.2615C8.15741 36.8406 8.52527 36.285 9.11959 35.5947C9.46143 35.1977 9.90303 34.7314 10.4444 34.1959C10.7845 33.8596 11.3329 33.3336 12.0897 32.6179C13.0723 31.6886 13.8127 30.9742 14.311 30.4747C15.1678 29.6158 15.9076 28.814 16.5305 28.0693C18.1982 26.0756 19.3248 24.1275 19.9103 22.2249C21.3086 17.6815 19.8305 13.131 15.4759 8.57331C15.5379 8.52856 15.599 8.485 15.6592 8.44263C16.2469 8.02882 16.8185 7.67674 17.374 7.3864C17.9364 7.09246 18.5402 6.83142 19.1853 6.60329Z" fill-rule="evenodd"  fill="#FF1A1A" >
</path>
</svg>
