<svg xmlns="http://www.w3.org/2000/svg" xmlns:xlink="http://www.w3.org/1999/xlink" width="48" height="48" viewBox="0 0 48 48" fill="none">
<path d="M3.35797 39.2631C3.77913 39.6403 4.27222 39.8626 4.83725 39.9298C6.33487 40.1083 7.66208 39.9364 8.81889 39.4143C9.28588 39.2035 9.75551 38.9225 10.2278 38.5713C10.4828 38.3817 10.8395 38.089 11.2979 37.6933C11.6512 37.3884 11.9193 37.1643 12.1022 37.0211C12.3858 36.7992 12.6594 36.6096 12.9228 36.4522C13.5797 36.0599 14.3337 35.7781 15.1848 35.6069C16.4431 35.3538 18.0031 35.3143 19.8649 35.4884C19.7272 35.8803 19.5655 36.2706 19.3797 36.6591C18.9992 37.455 18.4984 38.2871 17.8774 39.1554C17.6083 39.5317 17.4584 39.9496 17.4278 40.4091C17.3987 40.8447 17.4812 41.2577 17.6751 41.6482C17.8804 42.0617 18.1788 42.3877 18.5704 42.6263C18.9978 42.8868 19.4634 43.0005 19.9672 42.9674C21.1048 42.8926 22.2111 42.7036 23.286 42.4004C24.62 42.0241 25.8013 41.4968 26.8301 40.8185C28.1023 39.9797 29.091 38.9433 29.7962 37.7094C29.9256 37.483 30.0445 37.2515 30.153 37.0148C31.2646 37.0097 32.2806 36.8867 33.2011 36.646C33.4511 36.5807 33.6949 36.5066 33.9326 36.4239C34.3159 36.8894 34.7134 37.3182 35.1251 37.7103C36.2547 38.7858 37.4264 39.5157 38.6402 39.8998C39.4256 40.1484 40.2127 40.2468 41.0018 40.1951C41.8643 40.1387 42.7053 39.9045 43.5249 39.4927C43.8802 39.3142 44.1696 39.0612 44.3931 38.7339C44.5978 38.4341 44.725 38.1034 44.7746 37.7418C44.8206 37.406 44.795 37.0753 44.6977 36.7496C44.5985 36.4173 44.434 36.121 44.2041 35.861C43.4689 35.0292 42.5171 33.5806 41.3485 31.5151C40.8595 30.6507 40.4246 29.8483 40.0438 29.1081C40.2586 28.391 40.4694 27.5549 40.6763 26.5997C40.7985 26.0355 40.971 25.173 41.1936 24.0124C41.477 22.5345 41.7029 21.4294 41.8715 20.6971C42.1465 19.5016 42.4423 18.4519 42.7589 17.5481C43.1286 16.4923 43.553 15.5526 44.0322 14.7291C44.5571 13.827 45.1645 13.0341 45.8545 12.3506C46.1893 12.0189 46.43 11.6293 46.5766 11.1816C46.7188 10.7473 46.7571 10.3062 46.6913 9.85826C46.619 9.36617 46.4314 8.92823 46.1286 8.54445C45.7923 8.11842 45.3635 7.81951 44.8422 7.64773C41.4544 6.53153 38.4213 6.09092 35.7428 6.32588C33.2886 6.54116 31.1131 7.3207 29.2162 8.66452C27.7066 9.73392 26.3405 11.1981 25.118 13.0571C24.661 13.752 24.1951 14.5453 23.7205 15.4369C23.4461 15.9524 23.0665 16.7027 22.5819 17.6877C22.1707 18.5235 21.8674 19.1247 21.672 19.4911C21.3714 20.055 21.1012 20.5081 20.8616 20.8504C20.8252 20.9024 20.7907 20.9396 20.7581 20.9619C20.7207 20.9875 20.6639 21.0117 20.5875 21.0343C20.3815 21.0954 19.9276 21.1473 19.226 21.1899C18.7332 21.2198 18.3483 21.249 18.0713 21.2776C17.5769 21.3286 17.1139 21.4011 16.6825 21.4949C15.5403 21.7433 14.4653 22.1752 13.4577 22.7905C12.3394 23.4734 11.3532 24.2471 10.4992 25.1116C10.1649 25.4501 9.82882 25.8243 9.49102 26.2342C9.29763 26.469 9.03163 26.8069 8.69303 27.248C8.29731 27.7636 7.99964 28.1349 7.80003 28.3618C7.50082 28.702 7.19974 28.9919 6.89678 29.2316C6.13234 29.8366 5.08179 30.3264 3.74515 30.701C3.15621 30.8662 2.66049 31.2006 2.25799 31.7043C1.95733 32.0806 1.74245 32.5127 1.61334 33.0007C1.48565 33.4834 1.45749 33.9615 1.52887 34.435C1.62311 35.0602 1.87471 35.5907 2.28368 36.0265C2.34561 36.0925 2.4065 36.1582 2.46637 36.2236C2.41049 36.4752 2.38349 36.7323 2.38538 36.9951C2.38822 37.391 2.45638 37.7676 2.58987 38.1249C2.75842 38.5761 3.01445 38.9555 3.35797 39.2631ZM34.5 18C35.8807 18 37 16.8807 37 15.5C37 14.1193 35.8807 13 34.5 13C33.1193 13 32 14.1193 32 15.5C32 16.8807 33.1193 18 34.5 18ZM37.3272 34.2387C37.4862 34.0702 37.6399 33.8941 37.7882 33.7102C37.8286 33.6601 37.8687 33.6093 37.9084 33.5577C38.3905 34.4075 38.8461 35.1705 39.2753 35.8465C38.8253 35.6128 38.3613 35.2685 37.8835 34.8135C37.6951 34.6341 37.5097 34.4425 37.3272 34.2387Z" fill-rule="evenodd"  fill="#000000" >
</path>
</svg>
