<svg xmlns="http://www.w3.org/2000/svg" xmlns:xlink="http://www.w3.org/1999/xlink" width="48" height="48" viewBox="0 0 48 48" fill="none">
<path d="M43.0849 38.5996C40.102 35.9753 36.3804 34.1632 36.8171 33.1829C37.1768 32.3753 38.781 30.7933 40.8261 29.9067C41.6005 29.571 41.8974 28.4794 41.2003 28.0037C36.697 24.93 32.9181 26.5813 31.7632 25.8033C30.4698 24.9321 31.7308 18.237 26.0273 13.4705C19.7347 8.21171 14.8283 9.45642 12.398 9.79107C10.9378 8.67857 7.51122 8.16267 5.13597 10.2078C4.73338 10.5544 4.78509 11.1666 5.12998 11.5707C6.46358 13.1332 7.30435 15.1934 8.40228 17.4275C8.56783 18.6297 9.23619 19.6332 12.3807 21.9043C12.7845 22.1959 12.9134 22.7414 12.7364 23.2071C11.5228 26.399 10.3612 33.6891 13.7218 36.4332C14.2985 36.9039 15.1303 36.3173 15.3373 35.6022C15.8417 33.8596 17.1269 31.5668 18.7147 30.9012C19.0712 30.7518 19.4612 30.9545 19.6872 31.268C23.578 36.6672 32.8845 42.042 42.6814 40.1295C43.4196 39.9853 43.6497 39.0965 43.0849 38.5996Z"   fill="#BEDCFF" >
</path>
<path d="M35.2289 42.2921C37.8883 42.6596 40.5002 42.593 43.0645 42.0925C43.6264 41.9827 44.1105 41.7338 44.5168 41.3457C44.9064 40.9735 45.1696 40.5262 45.3065 40.0037C45.4422 39.4858 45.4336 38.9702 45.2807 38.457C45.1221 37.9245 44.8305 37.4715 44.4061 37.0981C43.8553 36.6136 43.2199 36.1019 42.5 35.5632C42.0865 35.2538 41.4932 34.826 40.7201 34.28C40.1217 33.8573 39.6515 33.5158 39.3096 33.2554C39.3699 33.1996 39.4329 33.1434 39.4984 33.0866C40.1536 32.5196 40.8613 32.0713 41.6216 31.7417C42.1138 31.5284 42.5298 31.2097 42.8698 30.7857C43.1903 30.3858 43.406 29.939 43.5167 29.4452C43.6417 28.8874 43.617 28.3466 43.4425 27.8227C43.2385 27.21 42.867 26.7197 42.3279 26.3517C40.7869 25.3 39.1406 24.6082 37.3891 24.2765C36.7355 24.1527 36.0462 24.0755 35.3211 24.0448C34.9147 24.0277 34.3741 24.0249 33.6992 24.0366C33.4774 24.0404 33.2897 24.0422 33.1361 24.0418C33.0867 23.7963 33.0266 23.4608 32.9559 23.0353C32.795 22.0682 32.6484 21.2984 32.516 20.726C32.281 19.7092 31.989 18.768 31.6401 17.9024C30.6888 15.5423 29.2454 13.5534 27.3098 11.9358C24.4987 9.58649 21.602 8.15476 18.6199 7.64062C17.5024 7.44797 16.3543 7.38245 15.1754 7.44407C14.5519 7.47664 13.7708 7.56331 12.832 7.70406C12.4488 7.5004 12.0273 7.32809 11.5677 7.18713C10.7851 6.94714 9.97206 6.82323 9.12871 6.8154C8.19608 6.80675 7.30167 6.94248 6.4455 7.22259C5.46955 7.5419 4.59806 8.03176 3.83103 8.69218C3.492 8.98409 3.23758 9.3359 3.06778 9.74762C2.91531 10.1173 2.84379 10.5061 2.85323 10.914C2.86157 11.2746 2.93304 11.626 3.06762 11.9681C3.19748 12.2982 3.37785 12.5986 3.60875 12.8691C4.00179 13.3296 4.39999 13.9242 4.80337 14.6531C5.06837 15.1319 5.46227 15.92 5.98507 17.0174C6.18413 17.4352 6.34913 17.779 6.48007 18.0488C6.55769 18.4325 6.67411 18.7959 6.82931 19.139C7.04574 19.6176 7.35229 20.0907 7.74894 20.5585C8.34937 21.2667 9.31543 22.118 10.6471 23.1127C10.3704 23.9405 10.1354 24.8546 9.94212 25.855C9.66799 27.2738 9.52525 28.6458 9.51387 29.971C9.50008 31.5771 9.6848 33.0023 10.0681 34.2465C10.5578 35.8366 11.3541 37.0818 12.4569 37.9823C12.9631 38.3956 13.5401 38.6023 14.188 38.6025C14.7049 38.6026 15.1992 38.4661 15.6706 38.193C16.0477 37.9746 16.3752 37.688 16.6531 37.3333C16.9335 36.9753 17.1353 36.5836 17.2584 36.1583C17.3615 35.8023 17.4992 35.4367 17.6717 35.0614C17.8554 34.6619 18.0594 34.2939 18.2839 33.9572C18.4404 33.7224 18.5982 33.516 18.7572 33.338C19.7463 34.5465 20.9304 35.6915 22.3097 36.7731C24.0914 38.1703 26.0425 39.3362 28.1629 40.2708C30.4656 41.2856 32.8209 41.9594 35.2289 42.2921ZM39.7315 38.4913C39.3836 38.2373 38.9439 37.9226 38.4124 37.5473C37.843 37.1451 37.4325 36.8507 37.1808 36.6643C36.7371 36.3357 36.3785 36.0481 36.105 35.8016C34.8475 34.6678 34.4758 33.5236 34.9901 32.3691C35.3142 31.6415 35.9444 30.8725 36.8807 30.0622C37.422 29.5937 37.9902 29.1791 38.5855 28.8185C37.9574 28.5367 37.3105 28.3327 36.6448 28.2066C36.1814 28.1188 35.6839 28.0637 35.1523 28.0412C34.8252 28.0275 34.3639 28.0257 33.7685 28.036C33.1363 28.047 32.6763 28.0404 32.3884 28.0164C31.6887 27.9581 31.1078 27.7733 30.6458 27.462C30.2681 27.2076 29.9618 26.8594 29.7267 26.4172C29.5864 26.1531 29.4663 25.8418 29.3664 25.4832C29.2698 25.136 29.1511 24.5389 29.0101 23.6917C28.8629 22.8066 28.7324 22.1183 28.6188 21.6269C28.4307 20.8131 28.2012 20.0701 27.9302 19.3979C27.2289 17.658 26.167 16.1938 24.7447 15.0051C22.4839 13.1156 20.2157 11.9748 17.9403 11.5825C17.117 11.4405 16.265 11.3926 15.3842 11.4386C14.858 11.4661 14.1545 11.5475 13.2739 11.6828C13.0006 11.7248 12.7995 11.7546 12.6708 11.7724L11.8472 11.8858L11.1859 11.3819C10.9984 11.2391 10.7348 11.1156 10.395 11.0114C9.98238 10.8848 9.54792 10.8195 9.0916 10.8152C8.59677 10.8106 8.12934 10.8803 7.68931 11.0243C7.56808 11.064 7.45039 11.1089 7.33625 11.1592C7.66451 11.6256 7.98679 12.1446 8.3031 12.7161C8.60744 13.266 9.03848 14.1263 9.59622 15.297C9.85939 15.8494 10.0597 16.2655 10.1973 16.5454L10.3396 16.835L10.3836 17.1547C10.4016 17.2854 10.4317 17.3974 10.4738 17.4906C10.5362 17.6286 10.6449 17.7889 10.7999 17.9716C11.2721 18.5286 12.1894 19.299 13.5517 20.2829C13.8466 20.4959 14.0951 20.7543 14.297 21.0581C14.4857 21.3419 14.6237 21.6502 14.711 21.9832C14.8825 22.6374 14.8474 23.2822 14.6058 23.9177C14.3137 24.686 14.0683 25.5847 13.8695 26.6137C13.6416 27.7933 13.523 28.9238 13.5137 30.0053C13.5035 31.1984 13.6292 32.2196 13.8908 33.0691C13.9301 33.1965 13.9721 33.3188 14.0168 33.4358C14.0236 33.4208 14.0304 33.4058 14.0373 33.3908C14.3087 32.8005 14.6148 32.2497 14.9557 31.7384C15.8378 30.4153 16.8331 29.5214 17.9416 29.0567C18.2958 28.9082 18.6651 28.8401 19.0493 28.8524C19.3825 28.8631 19.7064 28.9342 20.0211 29.0656C20.5403 29.2826 20.9699 29.627 21.3098 30.0987C22.2015 31.336 23.3575 32.5116 24.7779 33.6255C26.2961 34.816 27.9622 35.811 29.7761 36.6105C31.7376 37.475 33.7377 38.0481 35.7763 38.3298C37.1112 38.5142 38.4296 38.568 39.7315 38.4913Z" fill-rule="evenodd"  fill="#6BA6FF" >
</path>
<path d="M18 15C18 13.8954 17.1046 13 16 13C14.8954 13 14 13.8954 14 15L14 16C14 17.1046 14.8954 18 16 18C17.1046 18 18 17.1046 18 16L18 15Z" fill-rule="evenodd"  fill="#1764FF" >
</path>
</svg>
