<svg xmlns="http://www.w3.org/2000/svg" xmlns:xlink="http://www.w3.org/1999/xlink" width="48" height="48" viewBox="0 0 48 48" fill="none">
<path d="M11.2019 11.1205C10.9303 11.6785 11.039 12.4216 11.528 13.3499C11.6271 13.4576 11.7716 13.6248 11.9616 13.8514C12.3576 14.3238 12.7693 14.845 13.1968 15.4152C14.5773 17.2562 15.8436 19.2288 16.9959 21.3331C18.6064 24.2743 19.8708 27.2619 20.789 30.2958C21.9297 34.065 22.5001 37.7984 22.5001 41.496L26.5001 41.496C26.5001 37.4038 25.8726 33.2841 24.6175 29.1371C23.619 25.838 22.248 22.5963 20.5043 19.412C20.3886 19.2006 20.2717 18.9904 20.1538 18.7814C20.7466 19.2075 21.3311 19.6417 21.9074 20.0841C24.9363 22.4088 27.5108 24.7913 29.6311 27.2314C32.2268 30.2188 34.0554 33.1979 35.1167 36.1688L38.8835 34.8232C37.6532 31.3794 35.5756 27.9742 32.6505 24.6078C30.354 21.9649 27.5848 19.3993 24.3429 16.911C23.8734 16.5506 23.3987 16.1953 22.919 15.8452C23.0218 15.8726 23.1245 15.9001 23.2272 15.9279C26.6064 16.8434 29.6563 17.9612 32.377 19.2814C35.7168 20.902 38.4532 22.7784 40.5862 24.9105L43.414 22.0815C40.9637 19.6322 37.8668 17.4992 34.1233 15.6827C31.1773 14.2532 27.8939 13.048 24.2731 12.0671C21.7007 11.3702 19.0858 10.8179 16.4283 10.4103C15.0884 10.2048 13.9983 10.0688 13.1579 10.0023C12.1256 10.1898 11.4736 10.5626 11.2019 11.1205Z" fill-rule="evenodd"  fill="#FCCB68" >
</path>
<path d="M40 10.5C40 12.433 38.433 14 36.5 14C34.567 14 33 12.433 33 10.5C33 8.567 34.567 7 36.5 7C38.433 7 40 8.567 40 10.5Z"   fill="#FBB63E" >
</path>
<path d="M45 23.5C45 25.433 43.433 27 41.5 27C39.567 27 38 25.433 38 23.5C38 21.567 39.567 20 41.5 20C43.433 20 45 21.567 45 23.5Z"   fill="#FBB63E" >
</path>
<path d="M40 35.5C40 37.433 38.433 39 36.5 39C34.567 39 33 37.433 33 35.5C33 33.567 34.567 32 36.5 32C38.433 32 40 33.567 40 35.5Z"   fill="#FBB63E" >
</path>
<path d="M24.5 38C22.567 38 21 39.567 21 41.5C21 43.433 22.567 45 24.5 45C26.433 45 28 43.433 28 41.5C28 39.567 26.433 38 24.5 38Z"   fill="#FBB63E" >
</path>
<path d="M24.5 3C22.567 3 21 4.567 21 6.5C21 8.43301 22.567 10 24.5 10C26.433 10 28 8.43301 28 6.5C28 4.567 26.433 3 24.5 3Z"   fill="#FBB63E" >
</path>
<path d="M16 35.5C16 37.433 14.433 39 12.5 39C10.567 39 9 37.433 9 35.5C9 33.567 10.567 32 12.5 32C14.433 32 16 33.567 16 35.5Z"   fill="#FBB63E" >
</path>
<path d="M10 23.5C10 25.433 8.43301 27 6.5 27C4.567 27 3 25.433 3 23.5C3 21.567 4.567 20 6.5 20C8.43301 20 10 21.567 10 23.5Z"   fill="#FBB63E" >
</path>
<path d="M18 10.5C18 13.5376 15.5376 16 12.5 16C9.46243 16 7 13.5376 7 10.5C7 7.46243 9.46243 5 12.5 5C15.5376 5 18 7.46243 18 10.5Z"   fill="#FA9E14" >
</path>
</svg>
