<svg xmlns="http://www.w3.org/2000/svg" xmlns:xlink="http://www.w3.org/1999/xlink" width="48" height="48" viewBox="0 0 48 48" fill="none">
<path d="M20.5076 2.05579L22.4686 1.58258L22.9249 3.54768C23.0322 4.01014 23.249 4.6492 23.5752 5.46486C23.7917 6.00614 24.1854 6.92837 24.7565 8.23156C24.8864 8.52806 25.0112 8.81405 25.1308 9.08954C26.5117 9.36735 27.6497 9.60964 28.5448 9.81641C31.1336 10.4144 33.3598 11.0556 35.2235 11.7401C37.593 12.6102 39.5351 13.6032 41.0499 14.7191C42.9365 16.1089 44.2129 17.7175 44.879 19.5447L45.678 21.7369L43.3895 22.1914C38.4374 23.175 33.9872 24.2211 30.0391 25.3298C30.2186 26.8289 30.3072 28.3023 30.3049 29.75C30.296 35.3131 28.9662 40.6228 26.3155 45.6792L25.8723 46.5246L24.9364 46.7118C23.1001 47.079 20.9831 47.0997 18.5854 46.774C16.341 46.4691 14.1682 45.9091 12.067 45.0941C9.83817 44.2295 8.03681 43.2066 6.66294 42.0254C5.86587 41.3401 5.24571 40.6215 4.80247 39.8696C4.26749 38.9621 4 38.0312 4 37.077L4 36.8925L4.03374 36.7111C4.15565 36.0559 4.41945 35.385 4.82514 34.6986C5.14291 34.1609 5.56421 33.5874 6.08904 32.9781C6.50072 32.5001 7.01535 31.9558 7.63291 31.3452C7.99438 30.9879 8.56448 30.4411 9.34322 29.7049C10.2978 28.8025 11.0106 28.1153 11.4815 27.6434C12.2559 26.8675 12.9172 26.152 13.4653 25.497C14.7881 23.9162 15.6633 22.4317 16.0908 21.0436C16.5777 19.4625 16.521 17.8676 15.9208 16.2589C15.1659 14.2353 13.5603 12.1137 11.1038 9.89422L9.39487 8.35013L11.1633 6.8746C11.9737 6.19842 12.7055 5.63007 13.3588 5.16956C14.0899 4.65412 14.8105 4.21054 15.5206 3.83881C16.2502 3.45687 17.0264 3.12027 17.8491 2.82902C18.6286 2.55309 19.5148 2.29535 20.5076 2.05579ZM19.0539 24.7858C24.4804 22.605 31.3794 20.6279 39.7509 18.8545C38.4991 17.6011 36.5303 16.4812 33.8446 15.4949C32.1374 14.868 30.0707 14.2743 27.6445 13.7138C26.1956 13.379 24.0657 12.9437 21.2546 12.4079C19.6673 12.1053 18.5179 11.8798 17.8064 11.7314C17.5619 11.6804 17.3263 11.6301 17.0996 11.5804C22.0695 17.0473 21.4918 21.2839 19.0539 24.7858Z" fill-rule="evenodd"  fill="#000000" >
</path>
</svg>
