<svg xmlns="http://www.w3.org/2000/svg" xmlns:xlink="http://www.w3.org/1999/xlink" width="48" height="48" viewBox="0 0 48 48" fill="none">
<path d="M24 45L11 45C6.58172 45 3 41.4183 3 37L3 11C3 6.58172 6.58172 3 11 3L37 3C41.4183 3 45 6.58172 45 11L45 24C45 25.1046 44.1046 26 43 26C41.8954 26 41 25.1046 41 24L41 11C41 8.79086 39.2091 7 37 7L11 7C8.79086 7 7 8.79086 7 11L7 37C7 39.2091 8.79086 41 11 41L24 41C25.1046 41 26 41.8954 26 43C26 44.1046 25.1046 45 24 45ZM14 16C12.8954 16 12 15.1046 12 14C12 12.8954 12.8954 12 14 12L34 12C35.1046 12 36 12.8954 36 14C36 15.1046 35.1046 16 34 16L14 16ZM12 22C12 23.1046 12.8954 24 14 24L20 24C21.1046 24 22 23.1046 22 22C22 20.8954 21.1046 20 20 20L14 20C12.8954 20 12 20.8954 12 22ZM41 31.5C41 33.3472 40.4728 35.0713 39.5606 36.5299L44.2656 40.4479C44.3186 40.491 44.3699 40.5373 44.4192 40.5867C45.2003 41.3677 45.2003 42.634 44.4192 43.4151C43.6766 44.1577 42.4953 44.1942 41.7095 43.5246L36.7661 39.4081C35.2589 40.4137 33.4479 41 31.5 41C26.2533 41 22 36.7467 22 31.5C22 26.2533 26.2533 22 31.5 22C36.7467 22 41 26.2533 41 31.5ZM37 31.5C37 28.4624 34.5376 26 31.5 26C28.4624 26 26 28.4624 26 31.5C26 34.5376 28.4624 37 31.5 37C34.5376 37 37 34.5376 37 31.5ZM12 30C12 31.1046 12.8954 32 14 32L16.5 32C17.6046 32 18.5 31.1046 18.5 30C18.5 28.8954 17.6046 28 16.5 28L14 28C12.8954 28 12 28.8954 12 30Z" fill-rule="evenodd"  fill="#000000" >
</path>
</svg>
