<svg xmlns="http://www.w3.org/2000/svg" xmlns:xlink="http://www.w3.org/1999/xlink" width="48" height="48" viewBox="0 0 48 48" fill="none">
<path d="M44.9839 13.7932C44.9946 13.6627 45 13.5315 45 13.3996C45 12.5737 44.79 11.7755 44.3699 11.0052C44.0076 10.3408 43.4957 9.7152 42.8342 9.12835C41.6878 8.11129 40.1223 7.23041 38.1377 6.4857C36.2583 5.78048 34.1155 5.23691 31.7092 4.85499C29.2519 4.46499 26.6822 4.26999 24 4.26999C21.3178 4.26999 18.7481 4.46499 16.2908 4.85499C13.8845 5.23691 11.7417 5.78048 9.86233 6.4857C7.87772 7.23041 6.31222 8.11129 5.16582 9.12835C4.50433 9.7152 3.99244 10.3408 3.63013 11.0052C3.21004 11.7755 3 12.5737 3 13.3996C3 13.5315 3.00536 13.6627 3.01607 13.7932C3.00547 13.8766 3 13.9616 3 14.0479L3 24.159C3 24.3285 3.00939 24.4967 3.02817 24.6636C3.00965 24.773 3 24.8854 3 25L3 35.2C3 36.0178 3.21659 36.8055 3.64977 37.5632C4.01729 38.2059 4.53444 38.8094 5.20122 39.3736C6.34714 40.3433 7.91041 41.1825 9.89104 41.8914C11.766 42.5624 13.904 43.0796 16.305 43.4431C18.7576 43.8144 21.3226 44 24 44C26.6773 44 29.2423 43.8144 31.695 43.4431C34.096 43.0796 36.234 42.5624 38.1089 41.8914C40.0896 41.1825 41.6528 40.3433 42.7987 39.3736C43.4655 38.8094 43.9827 38.2059 44.3502 37.5632C44.7834 36.8055 45 36.0178 45 35.2L45 25C45 24.8854 44.9904 24.773 44.9718 24.6636C44.9906 24.4967 45 24.3285 45 24.159L45 14.0479C45 13.9616 44.9945 13.8766 44.9839 13.7932ZM41 18.9799C40.1695 19.4646 39.2154 19.9091 38.1377 20.3135C36.2583 21.0188 34.1155 21.5623 31.7092 21.9442C29.2519 22.3342 26.6822 22.5292 24 22.5292C21.3178 22.5292 18.7481 22.3342 16.2908 21.9442C13.8845 21.5623 11.7417 21.0188 9.86233 20.3135C8.78464 19.9091 7.83053 19.4646 7 18.9799L7 24.159C7 24.2615 7.0395 24.3813 7.11849 24.5182C7.25162 24.7491 7.47159 24.9932 7.7784 25.2505C8.55553 25.9024 9.70729 26.499 11.2337 27.0405C12.8658 27.6196 14.755 28.0701 16.9011 28.3922C19.1562 28.7306 21.5225 28.8998 24 28.8998C26.4775 28.8998 28.8438 28.7306 31.0988 28.3922C33.245 28.0701 35.1342 27.6196 36.7663 27.0405C38.2927 26.499 39.4445 25.9024 40.2216 25.2505C40.5284 24.9932 40.7484 24.7491 40.8815 24.5182C40.9605 24.3813 41 24.2615 41 24.159L41 18.9799ZM7 35.2L7 29.5295C7.83846 29.9958 8.80388 30.4228 9.89625 30.8103C11.7704 31.4752 13.9074 31.9878 16.3075 32.3479C18.7593 32.7158 21.3235 32.8998 24 32.8998C26.6765 32.8998 29.2407 32.7158 31.6924 32.3479C34.0925 31.9878 36.2296 31.4752 38.1037 30.8103C39.1961 30.4227 40.1615 29.9958 41 29.5295L41 35.2C41 35.3093 40.9592 35.4352 40.8777 35.5777C40.7436 35.8122 40.5227 36.0597 40.215 36.3201C39.438 36.9776 38.2867 37.5793 36.7611 38.1253C35.1298 38.7092 33.2415 39.1635 31.0963 39.4882C28.8421 39.8294 26.4767 40 24 40C21.5233 40 19.1579 39.8294 16.9037 39.4882C14.7585 39.1635 12.8702 38.7092 11.2389 38.1253C9.71328 37.5793 8.56199 36.9776 7.785 36.3201C7.47725 36.0597 7.25633 35.8122 7.12225 35.5777C7.04075 35.4352 7 35.3093 7 35.2Z" fill-rule="evenodd"  fill="#000000" >
</path>
</svg>
