<svg xmlns="http://www.w3.org/2000/svg" xmlns:xlink="http://www.w3.org/1999/xlink" width="48" height="48" viewBox="0 0 48 48" fill="none">
<path d="M9 2L18 2C20.7614 2 23 4.23858 23 7L23 16C23 18.7614 20.7614 21 18 21L9 21C6.23858 21 4 18.7614 4 16L4 7C4 4.23858 6.23858 2 9 2ZM34 18.5C34 18.5966 34.0068 18.6916 34.0201 18.7845L34.0201 20.3417C34.0201 22.8182 37.2345 23.7874 38.6034 21.7236L41.4607 17.4161C42.4308 15.9538 41.3822 14 39.6274 14L38 14L38 10C38 6.6863 35.3137 4 32 4L29 4C27.8954 4 27 4.8954 27 6C27 7.1046 27.8954 8 29 8L32 8C33.1046 8 34 8.89543 34 10L34 18.5ZM9 6C8.44772 6 8 6.44772 8 7L8 16C8 16.5523 8.44772 17 9 17L18 17C18.5523 17 19 16.5523 19 16L19 7C19 6.44772 18.5523 6 18 6L9 6ZM13.98 29.2162L13.98 27.6583C13.98 25.1818 10.7656 24.2126 9.39669 26.2764L6.53936 30.5839C5.56934 32.0462 6.61786 34 8.37268 34L10 34L10 38C10 41.3137 12.6863 44 16 44L19 44C20.1046 44 21 43.1046 21 42C21 40.8954 20.1046 40 19 40L16 40C14.8954 40 14 39.1046 14 38L14 29.5C14 29.4037 13.9932 29.3089 13.98 29.2162ZM30 27L39 27C41.7614 27 44 29.2386 44 32L44 41C44 43.7614 41.7614 46 39 46L30 46C27.2386 46 25 43.7614 25 41L25 32C25 29.2386 27.2386 27 30 27ZM30 31C29.4477 31 29 31.4477 29 32L29 41C29 41.5523 29.4477 42 30 42L39 42C39.5523 42 40 41.5523 40 41L40 32C40 31.4477 39.5523 31 39 31L30 31Z" fill-rule="evenodd"  fill="#000000" >
</path>
</svg>
