<svg xmlns="http://www.w3.org/2000/svg" xmlns:xlink="http://www.w3.org/1999/xlink" width="48" height="48" viewBox="0 0 48 48" fill="none">
<path d="M43.0489 26.2961L39.0932 35.846C38.4842 37.3162 37.3162 38.4842 35.846 39.0932L26.2961 43.0489C24.8259 43.6579 23.1741 43.6579 21.7039 43.0489L12.154 39.0932C10.6838 38.4842 9.51578 37.3162 8.90682 35.846L4.95111 26.2961C4.34214 24.8259 4.34214 23.1741 4.95111 21.7039L8.90682 12.1539C9.51578 10.6838 10.6838 9.51572 12.154 8.90676L21.7039 4.95105C23.1741 4.34208 24.8259 4.34208 26.2961 4.95105L35.846 8.90676C37.3162 9.51572 38.4842 10.6838 39.0932 12.1539L43.0489 21.7039C43.6579 23.1741 43.6579 24.8259 43.0489 26.2961Z"   fill="#E2C2FB" >
</path>
<path d="M40.941 36.6114L44.8967 27.0615C45.3027 26.0813 45.5056 25.0608 45.5056 24C45.5056 22.9391 45.3027 21.9186 44.8967 20.9385L40.941 11.3886C40.535 10.4085 39.957 9.54333 39.2068 8.79318C38.4567 8.04304 37.5916 7.46498 36.6114 7.059L27.0615 3.10329C26.0814 2.69731 25.0609 2.49432 24 2.49432C22.9392 2.49432 21.9187 2.69731 20.9385 3.10329L11.3886 7.059C10.4085 7.46498 9.54339 8.04304 8.79325 8.79318C8.0431 9.54333 7.46504 10.4085 7.05906 11.3886L3.10335 20.9385C2.69737 21.9186 2.49438 22.9391 2.49438 24C2.49438 25.0608 2.69737 26.0813 3.10335 27.0615L7.05906 36.6114C7.46504 37.5915 8.0431 38.4566 8.79325 39.2068C9.54338 39.9569 10.4085 40.535 11.3886 40.941L20.9385 44.8967C21.9187 45.3026 22.9392 45.5056 24 45.5056C25.0609 45.5056 26.0814 45.3026 27.0615 44.8967L36.6114 40.941C37.5916 40.535 38.4567 39.9569 39.2068 39.2068C39.957 38.4566 40.535 37.5915 40.941 36.6114ZM41.5056 24C41.5056 24.5304 41.4042 25.0407 41.2012 25.5307L37.2455 35.0807C37.0425 35.5707 36.7535 36.0032 36.3784 36.3784C36.0033 36.7534 35.5707 37.0425 35.0807 37.2455L25.5307 41.2012C25.0407 41.4041 24.5305 41.5056 24 41.5056C23.4696 41.5056 22.9593 41.4041 22.4693 41.2012L12.9194 37.2455C12.4293 37.0425 11.9967 36.7534 11.6217 36.3784C11.2466 36.0033 10.9576 35.5707 10.7546 35.0807L6.79887 25.5307C6.59588 25.0406 6.49438 24.5304 6.49438 24C6.49438 23.4695 6.59588 22.9593 6.79887 22.4693L10.7546 12.9193C10.9576 12.4293 11.2466 11.9967 11.6217 11.6216C11.9967 11.2465 12.4293 10.9575 12.9194 10.7545L22.4693 6.79881C22.9594 6.59582 23.4696 6.49432 24 6.49432C24.5304 6.49432 25.0407 6.59582 25.5307 6.79881L35.0807 10.7545C35.5708 10.9575 36.0034 11.2465 36.3784 11.6216C36.7535 11.9967 37.0425 12.4293 37.2455 12.9193L41.2012 22.4693C41.4042 22.9593 41.5056 23.4695 41.5056 24Z" fill-rule="evenodd"  fill="#B579F4" >
</path>
<path d="M34.4213 20.4071L23.8348 31.1135C22.3517 32.6134 19.9328 32.6252 18.4352 31.1397L13.5921 26.3358L13.5915 26.3353C13.2262 25.9729 13 25.4705 13 24.9153C13 23.8107 13.8954 22.9153 15 22.9153C15.5494 22.9153 16.047 23.1368 16.4084 23.4953L16.4089 23.4958L21.1207 28.1694L31.5769 17.5947L31.5778 17.5938C31.9404 17.2271 32.4437 17 33 17C34.1046 17 35 17.8954 35 19C35 19.5482 34.7794 20.045 34.4222 20.4062L34.4213 20.4071Z" fill-rule="evenodd"  fill="#8134ED" >
</path>
</svg>
