<svg xmlns="http://www.w3.org/2000/svg" xmlns:xlink="http://www.w3.org/1999/xlink" width="48" height="48" viewBox="0 0 48 48" fill="none">
<path d="M20.2894 2.08022C16.8451 1.0422 13.8576 0.692594 11.3269 1.0314C8.81089 1.36823 6.77252 2.36383 5.21179 4.01819C3.83987 5.4724 2.90561 7.37328 2.40898 9.72084C1.99303 11.6871 1.89379 13.9212 2.11127 16.4231C2.30076 18.6032 2.71861 20.8835 3.3648 23.2641C3.95172 25.4265 4.67092 27.4764 5.52239 29.414C7.55551 34.0406 9.58173 36.4016 11.601 36.497C13.2654 36.6496 14.7957 36.191 16.1918 35.1211C16.6911 34.7385 17.2024 34.2525 17.7255 33.663C18.0143 33.3377 18.4208 32.8422 18.9451 32.1765C19.3786 31.6262 19.7017 31.2289 19.9144 30.9846C20.0746 30.8007 20.2274 30.6355 20.3731 30.4893C20.5594 30.5538 20.7494 30.6132 20.9432 30.6675C21.0271 30.691 21.1175 30.7147 21.2143 30.7388C20.22 31.851 19.3112 32.8147 18.4877 33.63C18.0371 34.076 17.7868 34.6134 17.7367 35.2422C17.6931 35.7885 17.8117 36.2977 18.0923 36.7698C18.2351 37.01 18.4115 37.2199 18.6213 37.3993C18.8641 37.607 19.1355 37.7606 19.4353 37.86C19.7726 37.9718 20.1179 38.0066 20.4712 37.9643C20.8097 37.9237 21.1295 37.815 21.4307 37.638C22.0627 37.2667 22.7204 36.852 23.4038 36.3941C23.3948 36.6212 23.3846 36.8602 23.3732 37.1112C23.3095 38.5155 23.2884 39.5398 23.3101 40.1841C23.3497 41.365 23.5177 42.3599 23.8142 43.1689C24.6282 45.3902 26.4487 46.6613 29.2757 46.9824C31.4087 47.2247 33.2169 46.7859 34.7003 45.666C35.9477 44.7243 36.9131 43.3167 37.5964 41.4432C38.101 40.0597 38.4809 38.321 38.736 36.2271C38.8133 35.5927 38.8843 34.8869 38.9489 34.1097C39.7147 34.353 40.5181 34.5538 41.3593 34.712C41.9729 34.8276 42.5443 34.7282 43.0735 34.4138C43.5399 34.1368 43.8796 33.745 44.0927 33.2385C44.2937 32.7607 44.3437 32.2683 44.2428 31.7613C44.1309 31.1995 43.8572 30.7293 43.4218 30.3508C42.8483 29.8523 42.2034 29.2657 41.4872 28.591C42.0783 27.9661 42.6652 27.1351 43.2479 26.0981C43.9214 24.8991 44.5256 23.5454 45.0602 22.037C45.6262 20.4395 46.0549 18.8313 46.3462 17.2123C46.6714 15.4039 46.8012 13.7022 46.7356 12.1072C46.6596 10.2598 46.322 8.62172 45.7228 7.19287C45.0181 5.51221 43.9775 4.17231 42.601 3.17315C39.6332 1.01916 35.3818 0.64127 29.847 2.03948C28.6704 1.89791 27.4162 1.89307 26.0844 2.02495C24.7127 2.16078 23.4639 2.43753 22.3381 2.8552C21.7015 2.54483 21.0186 2.28651 20.2894 2.08022ZM18.1514 5.63067C15.6886 4.97556 13.5907 4.76402 11.8577 4.99602C10.2787 5.20741 9.03329 5.79643 8.12134 6.76308C7.26358 7.6723 6.66392 8.93418 6.32238 10.5487C5.98847 12.1271 5.91309 13.9698 6.09625 16.0768C6.26509 18.0193 6.64138 20.0658 7.22511 22.2163C7.75991 24.1866 8.413 26.0494 9.1844 27.8047C9.90296 29.4399 10.6099 30.7308 11.3052 31.6774C11.5922 32.0683 11.8404 32.3491 12.0498 32.5198L12.0502 32.5201C12.3522 32.5385 12.6338 32.5056 12.895 32.4214C13.1755 32.331 13.4634 32.1726 13.7588 31.9462C14.0553 31.7189 14.3804 31.4061 14.734 31.0078C14.9707 30.7411 15.327 30.3057 15.8028 29.7015C16.2769 29.0996 16.6419 28.6517 16.8977 28.3579C16.9054 28.349 16.9131 28.3401 16.9209 28.3313C16.2779 27.7063 15.6753 26.9686 15.113 26.1181C14.5549 25.2738 14.2742 24.311 14.2708 23.2297C14.2697 22.8548 14.3024 22.4417 14.3691 21.9907C14.405 21.7478 14.4683 21.3953 14.559 20.9332C14.6514 20.4627 14.712 20.1181 14.741 19.8995C14.7822 19.589 14.7968 19.3229 14.7848 19.1013C14.6373 16.5651 14.7354 14.327 15.079 12.3869C15.4427 10.3331 16.0868 8.57903 17.0113 7.12468C17.3546 6.58459 17.7346 6.08659 18.1514 5.63067ZM36.7871 5.25813C37.6299 6.08672 38.3552 7.06347 38.9631 8.18838C39.9269 9.97176 40.5444 12.0304 40.8156 14.3643C41.0468 16.3536 41.011 18.332 40.7081 20.2995C40.6018 20.9903 40.421 22.0153 40.1656 23.3745C40.5697 22.5667 40.9445 21.6755 41.2899 20.7009C41.7834 19.3082 42.1565 17.9093 42.4093 16.5041C42.6826 14.9845 42.7926 13.5737 42.739 12.2717C42.6826 10.9035 42.4476 9.7261 42.0341 8.73953C41.6181 7.74738 41.0238 6.97099 40.2514 6.41037C39.3689 5.76986 38.2274 5.38695 36.827 5.26162C36.8137 5.26043 36.8004 5.25927 36.7871 5.25813ZM26.4785 6.00549C24.9949 6.15241 23.7453 6.50504 22.7296 7.06339C21.7667 7.59273 20.9858 8.32843 20.387 9.2705C19.0634 11.3529 18.5271 14.5524 18.7781 18.8691C18.8041 19.3496 18.7802 19.8684 18.7063 20.4256C18.6664 20.726 18.5924 21.152 18.4841 21.7036C18.4055 22.1041 18.3528 22.3948 18.3261 22.5756C18.2887 22.8287 18.2703 23.0426 18.2708 23.2174C18.2717 23.5014 18.3314 23.733 18.4499 23.9123C19.2259 25.0862 20.0592 25.9123 20.9499 26.3906C21.274 26.5647 21.6312 26.7063 22.0216 26.8156C22.275 26.8865 22.6534 26.9681 23.1569 27.0602C23.6295 27.1467 23.9835 27.2216 24.2188 27.2851C24.7114 27.4181 25.1374 27.5987 25.4969 27.8268C26.4609 28.4388 27.0359 29.4015 27.2218 30.715C27.3723 31.7791 27.4501 32.9431 27.4552 34.2068C27.4583 34.9331 27.4295 35.9617 27.3692 37.2925C27.3101 38.5917 27.2897 39.5109 27.3078 40.05C27.3331 40.8038 27.4205 41.3847 27.5699 41.7926C27.6869 42.1117 27.861 42.352 28.0924 42.5136C28.4444 42.7594 28.9893 42.9242 29.7271 43.008C30.8022 43.1301 31.6566 42.9519 32.2903 42.4735C32.909 42.0065 33.4251 41.2062 33.8386 40.0727C34.2384 38.9766 34.5473 37.5335 34.7655 35.7433C34.8553 35.0054 34.9365 34.1543 35.0091 33.19C35.0531 32.6057 35.1105 31.7279 35.1812 30.5564C35.2265 29.807 35.2614 29.2488 35.2858 28.8819C35.3427 28.0298 35.4623 27.037 35.6447 25.9036C35.7511 25.2421 35.9309 24.2419 36.184 22.9029C36.4581 21.4528 36.6483 20.3821 36.7547 19.6909C37.0028 18.0793 37.032 16.4577 36.8424 14.826C36.6304 13.0012 36.1643 11.4226 35.4442 10.0901C33.7436 6.94354 30.7551 5.58199 26.4785 6.00549ZM36 17.5C36 18.8807 34.8807 20 33.5 20C32.1193 20 31 18.8807 31 17.5C31 16.1193 32.1193 15 33.5 15C34.8807 15 36 16.1193 36 17.5ZM28 18.5C28 19.8807 26.8807 21 25.5 21C24.1193 21 23 19.8807 23 18.5C23 17.1193 24.1193 16 25.5 16C26.8807 16 28 17.1193 28 18.5Z" fill-rule="evenodd"  fill="#000000" >
</path>
</svg>
