<svg xmlns="http://www.w3.org/2000/svg" xmlns:xlink="http://www.w3.org/1999/xlink" width="48" height="48" viewBox="0 0 48 48" fill="none">
<path d="M26.5796 25.2284C24.9477 24.4513 23.0523 24.4513 21.4204 25.2284L4.896 33.0972C4.13591 33.4591 4.13591 34.5409 4.896 34.9029L20.5605 42.3622C22.7365 43.3983 25.2635 43.3983 27.4395 42.3622L43.104 34.9029C43.8641 34.5409 43.8641 33.4591 43.104 33.0972L26.5796 25.2284Z"   fill="#BEDCFF" >
</path>
<path d="M40.3481 34L25.7197 27.0341C25.1758 26.7751 24.6025 26.6456 24 26.6456C23.3975 26.6456 22.8242 26.7751 22.2803 27.0341L7.65187 34L21.4204 40.5564C22.2364 40.945 23.0963 41.1393 24 41.1393C24.9037 41.1393 25.7636 40.945 26.5796 40.5564L40.3481 34ZM43.9639 36.7086C46.2441 35.6227 46.2441 32.3773 43.9639 31.2914L27.4395 23.4227C26.3515 22.9046 25.205 22.6456 24 22.6456C22.795 22.6456 21.6485 22.9046 20.5605 23.4227L4.03613 31.2914C1.75586 32.3773 1.75586 35.6227 4.03613 36.7086L19.7007 44.1679C21.0606 44.8155 22.4937 45.1393 24 45.1393C25.5063 45.1393 26.9394 44.8155 28.2993 44.1679L43.9639 36.7086Z" fill-rule="evenodd"  fill="#4187FF" >
</path>
<path d="M26.5796 15.2284C24.9477 14.4513 23.0523 14.4513 21.4204 15.2284L4.896 23.0972C4.13591 23.4591 4.13591 24.5409 4.896 24.9029L21.4204 32.7716C23.0523 33.5487 24.9477 33.5487 26.5796 32.7716L43.104 24.9029C43.8641 24.5409 43.8641 23.4591 43.104 23.0972L26.5796 15.2284Z"   fill="#BEDCFF" >
</path>
<path d="M40.3481 24L25.7197 17.0341C25.1758 16.7751 24.6025 16.6456 24 16.6456C23.3975 16.6456 22.8242 16.7751 22.2803 17.0341L7.65187 24L22.2803 30.9659C22.8242 31.225 23.3975 31.3545 24 31.3545C24.6025 31.3545 25.1758 31.225 25.7197 30.9659L40.3481 24ZM43.9639 26.7086C46.2441 25.6227 46.2441 22.3773 43.9639 21.2914L27.4395 13.4227C26.3515 12.9046 25.205 12.6456 24 12.6456C22.795 12.6456 21.6485 12.9046 20.5605 13.4227L4.03613 21.2914C1.75586 22.3773 1.75586 25.6227 4.03613 26.7086L20.5605 34.5773C21.6485 35.0955 22.795 35.3545 24 35.3545C25.205 35.3545 26.3515 35.0955 27.4395 34.5773L43.9639 26.7086Z" fill-rule="evenodd"  fill="#6BA6FF" >
</path>
<path d="M27.4395 5.63783C25.2635 4.60168 22.7365 4.60168 20.5605 5.63783L4.896 13.0971C4.13591 13.4591 4.13591 14.5409 4.896 14.9029L21.4204 22.7716C23.0523 23.5487 24.9477 23.5487 26.5796 22.7716L43.104 14.9029C43.8641 14.5409 43.8641 13.4591 43.104 13.0971L27.4395 5.63783Z"   fill="#BEDCFF" >
</path>
<path d="M40.3481 14L26.5796 7.44355C25.7636 7.05499 24.9037 6.86072 24 6.86072C23.0963 6.86072 22.2364 7.05499 21.4204 7.44355L7.65187 14L22.2803 20.9659C22.8242 21.225 23.3975 21.3545 24 21.3545C24.6025 21.3545 25.1758 21.225 25.7197 20.9659L40.3481 14ZM43.9639 16.7086C46.2441 15.6227 46.2441 12.3772 43.9639 11.2914L28.2993 3.83211C26.9394 3.18451 25.5063 2.86072 24 2.86072C22.4937 2.86072 21.0606 3.18451 19.7007 3.83211L4.03613 11.2914C1.75586 12.3772 1.75586 15.6227 4.03613 16.7086L20.5605 24.5773C21.6485 25.0954 22.795 25.3545 24 25.3545C25.205 25.3545 26.3515 25.0954 27.4395 24.5773L43.9639 16.7086Z" fill-rule="evenodd"  fill="#4187FF" >
</path>
<path d="M24.6709 11.3354C24.2486 11.1243 23.7515 11.1243 23.3292 11.3354L19.4473 13.2764C19.263 13.3685 19.263 13.6315 19.4473 13.7236L23.3292 15.6646C23.7515 15.8758 24.2486 15.8758 24.6709 15.6646L28.5529 13.7236C28.7371 13.6315 28.7371 13.3685 28.5529 13.2764L24.6709 11.3354Z"   fill="#1764FF" >
</path>
<path d="M24.5279 13.5L24.0001 13.2361L23.4722 13.5L24.0001 13.7639L24.5279 13.5ZM29.4473 15.5125C31.1057 14.6833 31.1057 12.3167 29.4473 11.4875L25.5653 9.54657C25.0726 9.30023 24.5509 9.17706 24.0001 9.17706C23.4492 9.17706 22.9275 9.30023 22.4348 9.54657L18.5528 11.4876C16.8945 12.3167 16.8945 14.6833 18.5528 15.5125L22.4348 17.4535C22.9275 17.6998 23.4492 17.823 24.0001 17.823C24.5509 17.823 25.0726 17.6998 25.5653 17.4535L29.4473 15.5125Z" fill-rule="evenodd"  fill="#1764FF" >
</path>
</svg>
