<svg xmlns="http://www.w3.org/2000/svg" xmlns:xlink="http://www.w3.org/1999/xlink" width="48" height="48" viewBox="0 0 48 48" fill="none">
<path d="M35.138 29.7085Q36 26.6748 36 23Q36 19.3252 35.138 16.2915C34.5963 14.3849 33.7926 12.6451 32.727 11.0719Q31.2996 8.96454 29.1841 7.17508Q27.4354 5.69579 25.0116 4.2747L24 3.68161L22.9884 4.2747Q20.5646 5.69579 18.8159 7.17508Q16.7004 8.96454 15.273 11.0719Q13.6746 13.4317 12.862 16.2915Q12 19.3252 12 23Q12 26.6748 12.862 29.7085Q13.6746 32.5684 15.273 34.9282Q16.7004 37.0355 18.8159 38.8249C19.0043 38.9843 19.1985 39.1431 19.3987 39.3015L21.281 43.37C22.3535 45.6937 25.6485 45.6937 26.721 43.37L28.6045 39.299C28.8035 39.1414 28.9967 38.9834 29.1841 38.8249Q31.2996 37.0355 32.727 34.9282C33.7926 33.355 34.5963 31.6151 35.138 29.7085ZM26 16.5C26 15.3954 25.1046 14.5 24 14.5C23.5858 14.5 23.201 14.6259 22.8818 14.8416C22.6964 14.9668 22.5332 15.1223 22.3991 15.301C22.1485 15.6351 22 16.0502 22 16.5L22 33C22 34.1046 22.8954 35 24 35C25.1046 35 26 34.1046 26 33L26 16.5Z" fill-rule="evenodd"  fill="#000000" >
</path>
</svg>
