<svg xmlns="http://www.w3.org/2000/svg" xmlns:xlink="http://www.w3.org/1999/xlink" width="48" height="48" viewBox="0 0 48 48" fill="none">
<path d="M4.99614 35.5234C8.47304 42.6025 18.4031 41.5034 23.9961 41.5034C29.5786 41.5034 39.52 42.5887 42.9962 35.5234C42.9962 35.5234 42.9961 14.9762 42.9961 13.1334C42.9961 9.19578 34.4895 6.00336 23.9961 6.00336C13.5027 6.00336 4.99609 9.19578 4.99609 13.1334C4.99609 14.9722 4.99614 35.5234 4.99614 35.5234Z"   fill="#FEEDBD" >
</path>
<path d="M43 13.1296C43 17.0672 34.4934 20.2592 24 20.2592C13.5066 20.2592 5 17.0672 5 13.1296C5 9.19204 13.5066 6 24 6C34.4934 6 43 9.19204 43 13.1296Z"   fill="#FEEDBD" >
</path>
<path d="M44.3699 15.524C44.7899 14.7537 45 13.9556 45 13.1296C45 12.3037 44.7899 11.5056 44.3699 10.7352C44.0075 10.0708 43.4956 9.44522 42.8342 8.85836C41.6878 7.8413 40.1223 6.96042 38.1377 6.21571C36.2583 5.51049 34.1154 4.96692 31.7092 4.585C29.2519 4.195 26.6822 4 24 4C21.3178 4 18.7481 4.195 16.2908 4.585C13.8845 4.96692 11.7417 5.51049 9.86233 6.21571C7.87772 6.96042 6.31222 7.8413 5.16582 8.85836C4.50433 9.44522 3.99243 10.0708 3.63013 10.7352C3.21004 11.5056 3 12.3037 3 13.1296C3 13.9556 3.21004 14.7537 3.63013 15.524C3.99243 16.1884 4.50433 16.814 5.16582 17.4009C6.31222 18.418 7.87772 19.2988 9.86233 20.0435C11.7417 20.7488 13.8845 21.2923 16.2908 21.6742C18.7481 22.0642 21.3178 22.2592 24 22.2592C26.6822 22.2592 29.2519 22.0642 31.7092 21.6742C34.1154 21.2923 36.2583 20.7488 38.1377 20.0435C40.1223 19.2988 41.6878 18.418 42.8342 17.4009C43.4956 16.814 44.0075 16.1884 44.3699 15.524ZM40.8581 12.6503C40.9527 12.8238 41 12.9835 41 13.1296C41 13.2757 40.9527 13.4355 40.8581 13.609C40.7188 13.8644 40.4926 14.131 40.1796 14.4087C39.403 15.0976 38.254 15.7275 36.7324 16.2985C35.1055 16.909 33.2221 17.384 31.0821 17.7237C28.8325 18.0807 26.4718 18.2592 24 18.2592C21.5281 18.2592 19.1674 18.0807 16.9178 17.7237C14.7779 17.384 12.8945 16.909 11.2676 16.2985C9.74598 15.7275 8.59691 15.0976 7.82041 14.4087C7.50736 14.131 7.28119 13.8644 7.1419 13.609C7.0473 13.4355 7 13.2757 7 13.1296C7 12.9835 7.0473 12.8238 7.1419 12.6503C7.28119 12.3949 7.50736 12.1283 7.82041 11.8505C8.59691 11.1616 9.74598 10.5317 11.2676 9.96073C12.8945 9.35026 14.7779 8.8752 16.9178 8.53556C19.1674 8.17852 21.5281 8 24 8C26.4718 8 28.8326 8.17852 31.0822 8.53556C33.2221 8.8752 35.1055 9.35026 36.7324 9.96073C38.254 10.5317 39.403 11.1616 40.1796 11.8505C40.4926 12.1283 40.7188 12.3948 40.8581 12.6503Z" fill-rule="evenodd"  fill="#FA9E14" >
</path>
<path d="M7 13.9979C7 12.8933 6.10457 11.9979 5 11.9979C3.89543 11.9979 3 12.8933 3 13.9979L3 24.109C3 24.9254 3.21785 25.7114 3.65354 26.4668C4.02201 27.1056 4.54011 27.705 5.20782 28.2651C6.35359 29.2261 7.9164 30.0579 9.89625 30.7603C11.7704 31.4252 13.9074 31.9377 16.3075 32.2979C18.7593 32.6658 21.3235 32.8498 24 32.8498C26.6765 32.8498 29.2406 32.6658 31.6924 32.2979C34.0925 31.9377 36.2296 31.4252 38.1037 30.7603C40.0835 30.0579 41.6463 29.2261 42.7921 28.2651C43.4598 27.705 43.9779 27.1056 44.3464 26.4668C44.7821 25.7114 45 24.9254 45 24.109L45 13.9979C45 12.8933 44.1045 11.9979 43 11.9979C41.8954 11.9979 41 12.8933 41 13.9979L41 24.109C41 24.2115 40.9605 24.3312 40.8815 24.4682C40.7483 24.699 40.5284 24.9431 40.2216 25.2005C39.4444 25.8523 38.2927 26.449 36.7663 26.9905C35.1341 27.5695 33.245 28.0201 31.0988 28.3422C28.8438 28.6806 26.4775 28.8498 24 28.8498C21.5225 28.8498 19.1562 28.6806 16.9011 28.3422C14.7549 28.0201 12.8658 27.5695 11.2337 26.9905C9.70729 26.449 8.55553 25.8523 7.7784 25.2005C7.47158 24.9431 7.25161 24.699 7.11849 24.4682C7.03949 24.3312 7 24.2115 7 24.109L7 13.9979Z" fill-rule="evenodd"  fill="#FA9E14" >
</path>
<path d="M7 25C7 23.8954 6.10457 23 5 23C3.89543 23 3 23.8954 3 25L3 35.2C3 36.0178 3.21659 36.8055 3.64977 37.5632C4.01729 38.2059 4.53444 38.8094 5.20122 39.3736C6.34714 40.3433 7.91041 41.1825 9.89104 41.8914C11.766 42.5624 13.904 43.0796 16.305 43.4431C18.7576 43.8144 21.3226 44 24 44C26.6773 44 29.2423 43.8144 31.695 43.4431C34.096 43.0796 36.234 42.5624 38.1089 41.8914C40.0896 41.1825 41.6528 40.3433 42.7987 39.3736C43.4655 38.8094 43.9827 38.2059 44.3502 37.5632C44.7834 36.8055 45 36.0178 45 35.2L45 25C45 23.8954 44.1045 23 43 23C41.8954 23 41 23.8954 41 25L41 35.2C41 35.3093 40.9592 35.4352 40.8777 35.5777C40.7436 35.8122 40.5227 36.0597 40.215 36.3201C39.438 36.9776 38.2867 37.5793 36.7611 38.1253C35.1298 38.7092 33.2415 39.1635 31.0963 39.4882C28.8421 39.8294 26.4767 40 24 40C21.5233 40 19.1579 39.8294 16.9037 39.4882C14.7585 39.1635 12.8702 38.7092 11.2389 38.1253C9.71328 37.5793 8.56199 36.9776 7.785 36.3201C7.47725 36.0597 7.25633 35.8122 7.12225 35.5777C7.04075 35.4352 7 35.3093 7 35.2L7 25Z" fill-rule="evenodd"  fill="#FA9E14" >
</path>
</svg>
