<svg xmlns="http://www.w3.org/2000/svg" xmlns:xlink="http://www.w3.org/1999/xlink" width="48" height="48" viewBox="0 0 48 48" fill="none">
<path d="M5 11L5 37C5 40.3137 7.68629 43 11 43L37 43C40.3137 43 43 40.3137 43 37L43 11C43 7.68629 40.3137 5 37 5L11 5C7.68629 5 5 7.68629 5 11Z"   fill="#BEDCFF" >
</path>
<path d="M11 45L24 45C25.1046 45 26 44.1046 26 43C26 41.8954 25.1046 41 24 41L11 41C8.79086 41 7 39.2091 7 37L7 11C7 8.79086 8.79086 7 11 7L37 7C39.2091 7 41 8.79086 41 11L41 24C41 25.1046 41.8954 26 43 26C44.1046 26 45 25.1046 45 24L45 11C45 6.58172 41.4183 3 37 3L11 3C6.58172 3 3 6.58172 3 11L3 37C3 41.4183 6.58172 45 11 45Z" fill-rule="evenodd"  fill="#4187FF" >
</path>
<path d="M31.5 41C36.7467 41 41 36.7467 41 31.5C41 26.2533 36.7467 22 31.5 22C26.2533 22 22 26.2533 22 31.5C22 36.7467 26.2533 41 31.5 41ZM31.5 26C34.5376 26 37 28.4624 37 31.5C37 34.5376 34.5376 37 31.5 37C28.4624 37 26 34.5376 26 31.5C26 28.4624 28.4624 26 31.5 26Z" fill-rule="evenodd"  fill="#1764FF" >
</path>
<path d="M38.4072 35.6178L44.3756 40.5879C44.4286 40.631 44.4799 40.6773 44.5292 40.7266C45.3103 41.5077 45.3103 42.774 44.5292 43.5551C43.7866 44.2977 42.6053 44.3342 41.8195 43.6646L35.8511 38.6945C35.7981 38.6514 35.7468 38.6052 35.6975 38.5558C34.9164 37.7748 34.9164 36.5084 35.6975 35.7274C36.4401 34.9847 37.6215 34.9482 38.4072 35.6178Z" fill-rule="evenodd"  fill="#1764FF" >
</path>
<path d="M12 14C12 15.1046 12.8954 16 14 16L34 16C35.1046 16 36 15.1046 36 14C36 12.8954 35.1046 12 34 12L14 12C12.8954 12 12 12.8954 12 14Z" fill-rule="evenodd"  fill="#1764FF" >
</path>
<path d="M12 22C12 23.1046 12.8954 24 14 24L20 24C21.1046 24 22 23.1046 22 22C22 20.8954 21.1046 20 20 20L14 20C12.8954 20 12 20.8954 12 22Z" fill-rule="evenodd"  fill="#4187FF" >
</path>
<path d="M12 30C12 31.1046 12.8954 32 14 32L16.5 32C17.6046 32 18.5 31.1046 18.5 30C18.5 28.8954 17.6046 28 16.5 28L14 28C12.8954 28 12 28.8954 12 30Z" fill-rule="evenodd"  fill="#6BA6FF" >
</path>
</svg>
