<svg xmlns="http://www.w3.org/2000/svg" xmlns:xlink="http://www.w3.org/1999/xlink" width="48" height="48" viewBox="0 0 48 48" fill="none">
<path d="M15 1L33 1C39.0751 1 44 5.92487 44 12C44 18.0751 39.0751 23 33 23L15 23C8.92487 23 4 18.0751 4 12C4 10.5089 4.28842 9.08148 4.86526 7.71769C5.42199 6.40143 6.20751 5.23614 7.22183 4.22183C8.23614 3.20751 9.40143 2.42199 10.7177 1.86526C12.0815 1.28842 13.5089 1 15 1ZM15 5C14.0497 5 13.1417 5.18309 12.2759 5.54927C11.4387 5.90339 10.6968 6.40372 10.0503 7.05025C9.40372 7.69678 8.90339 8.43867 8.54927 9.2759C8.18309 10.1417 8 11.0497 8 12C8 15.866 11.134 19 15 19L33 19C36.866 19 40 15.866 40 12C40 8.13401 36.866 5 33 5L15 5ZM38 12C38 9.23858 35.7614 7 33 7C32.3227 7 31.6738 7.13125 31.0532 7.39375C30.4547 7.64686 29.9252 8.00377 29.4645 8.46447C29.0038 8.92516 28.6469 9.45473 28.3937 10.0532C28.1312 10.6738 28 11.3227 28 12C28 14.7614 30.2386 17 33 17C35.7614 17 38 14.7614 38 12ZM15 25L33 25C39.0751 25 44 29.9249 44 36C44 42.0751 39.0751 47 33 47L15 47C8.92487 47 4 42.0751 4 36C4 34.5089 4.28842 33.0815 4.86526 31.7177C5.42199 30.4014 6.20751 29.2361 7.22183 28.2218C8.23614 27.2075 9.40143 26.422 10.7177 25.8653C12.0815 25.2884 13.5089 25 15 25ZM15 29C14.0497 29 13.1417 29.1831 12.2759 29.5493C11.4387 29.9034 10.6968 30.4037 10.0503 31.0503C9.40372 31.6968 8.90339 32.4387 8.54927 33.2759C8.18309 34.1417 8 35.0497 8 36C8 39.866 11.134 43 15 43L33 43C36.866 43 40 39.866 40 36C40 32.134 36.866 29 33 29L15 29ZM15 31C17.7614 31 20 33.2386 20 36C20 38.7614 17.7614 41 15 41C12.2386 41 10 38.7614 10 36C10 35.3227 10.1313 34.6738 10.3938 34.0532C10.6469 33.4547 11.0038 32.9252 11.4645 32.4645C11.9252 32.0038 12.4547 31.6469 13.0532 31.3937C13.6738 31.1312 14.3227 31 15 31Z" fill-rule="evenodd"  fill="#000000" >
</path>
</svg>
