<svg xmlns="http://www.w3.org/2000/svg" xmlns:xlink="http://www.w3.org/1999/xlink" width="48" height="48" viewBox="0 0 48 48" fill="none">
<path d="M36.3076 3L11.6926 3C10.6473 3 9.64317 3.19582 8.68024 3.58746C7.7491 3.96617 6.91783 4.50248 6.18644 5.19639C5.45505 5.8903 4.87579 6.69224 4.44865 7.60219C4.00695 8.5432 3.75862 9.53565 3.70368 10.5795L2.33526 36.5795C2.09436 41.1567 5.74074 45 10.3242 45L16.0001 45C17.6347 45 18.579 43.1456 17.6176 41.8237C16.2888 39.9965 15.2425 37.7731 14.4787 35.1534C13.8131 32.8706 13.3717 30.3221 13.1543 27.5079C12.977 25.2134 12.9521 22.7964 13.0797 20.2568C13.1651 18.5549 13.3141 16.8721 13.5266 15.2085C15.018 16.203 16.3602 17.3079 17.5534 18.5234C19.3318 20.3351 20.6378 22.262 21.4716 24.3043C21.6832 24.8224 22.0205 25.2356 22.4837 25.5437C22.9409 25.8479 23.4463 26 24.0001 26C24.5739 26 25.0981 25.8314 25.5727 25.4943C26.0126 25.1819 26.3348 24.7766 26.5392 24.2783C27.3757 22.2402 28.6828 20.3172 30.4605 18.5094C31.6505 17.2992 32.9882 16.1989 34.4736 15.2085C34.6873 16.8809 34.8367 18.5721 34.9218 20.282C35.0482 22.8199 35.0224 25.2351 34.8444 27.5275C34.6262 30.3378 34.1843 32.8829 33.5188 35.1628C32.7552 37.7784 31.7098 39.9987 30.3826 41.8237C29.9019 42.4846 29.8976 43.2787 30.0157 43.5105C30.0356 43.5496 30.059 43.5727 30.0842 43.5765C30.3254 44.3667 31.0449 45 32.0001 45L37.676 45C42.2595 45 45.9059 41.1567 45.6649 36.5795L44.2965 10.5795C44.2416 9.53564 43.9933 8.5432 43.5516 7.60219C43.1244 6.69224 42.5452 5.8903 41.8138 5.19639C41.0824 4.50248 40.2512 3.96617 39.32 3.58746C38.3571 3.19582 37.353 3 36.3076 3ZM10.1872 7.29272C10.667 7.09757 11.1688 7 11.6926 7L36.3076 7C36.8314 7 37.3332 7.09757 37.813 7.29272C38.2783 7.48195 38.6942 7.75045 39.0607 8.0982C39.4272 8.44595 39.7172 8.84717 39.9306 9.30184C40.1507 9.77073 40.2745 10.2667 40.3021 10.7898L41.6705 36.7898C41.7909 39.0783 39.9677 41 37.676 41L35.5356 41C36.253 39.5615 36.8607 37.9893 37.3585 36.2836C38.1015 33.7385 38.5928 30.9231 38.8324 27.8372C39.0236 25.3754 39.0517 22.7907 38.9169 20.0831C38.8192 18.1206 38.6415 16.1804 38.3839 14.2627C38.2974 13.6185 38.0687 13.0385 37.6979 12.5226C37.334 12.0163 36.874 11.6273 36.3179 11.3554C35.7508 11.0781 35.1531 10.9564 34.5249 10.9902C33.8749 11.0252 33.2687 11.2234 32.7061 11.5849C30.8112 12.8024 29.112 14.1757 27.6084 15.7048C26.1486 17.1893 24.9459 18.7529 24.0001 20.3956C23.0579 18.7591 21.8605 17.201 20.4079 15.7213C18.9031 14.1884 17.2015 12.8115 15.3031 11.5907C14.7457 11.2322 14.1449 11.0327 13.501 10.9922C12.8743 10.9528 12.2773 11.0676 11.7101 11.3365C11.1479 11.603 10.6826 11.9888 10.3143 12.4941C9.93835 13.0097 9.70672 13.5917 9.61938 14.2401C9.36137 16.1557 9.18313 18.0944 9.08467 20.0563C8.94868 22.7656 8.97584 25.3522 9.16618 27.816C9.40488 30.9057 9.89567 33.7247 10.6386 36.2729C11.1371 37.9828 11.7457 39.5585 12.4646 41L10.3242 41C8.03247 41 6.20928 39.0783 6.32973 36.7898L7.69815 10.7898C7.72569 10.2667 7.8495 9.77073 8.06959 9.30184C8.28302 8.84716 8.573 8.44595 8.93954 8.0982C9.30607 7.75045 9.72197 7.48195 10.1872 7.29272ZM22 32.5C22 33.8807 20.8807 35 19.5 35C18.1193 35 17 33.8807 17 32.5C17 31.1193 18.1193 30 19.5 30C20.8807 30 22 31.1193 22 32.5ZM28.5 35C29.8807 35 31 33.8807 31 32.5C31 31.1193 29.8807 30 28.5 30C27.1193 30 26 31.1193 26 32.5C26 33.8807 27.1193 35 28.5 35Z" fill-rule="evenodd"  fill="#000000" >
</path>
</svg>
