<svg xmlns="http://www.w3.org/2000/svg" xmlns:xlink="http://www.w3.org/1999/xlink" width="48" height="48" viewBox="0 0 48 48" fill="none">
<path d="M26.0199 43.5C26.0199 43.3558 26.0046 43.2151 25.9756 43.0795C25.2203 39.1696 25.1735 35.1342 25.8353 30.9732C26.4314 27.2257 27.564 23.5702 29.2332 20.0066C29.9956 18.3792 30.8473 16.8261 31.7883 15.3474C32.6864 13.936 33.637 12.6374 34.6401 11.4515C35.6036 10.3122 36.5765 9.32251 37.5589 8.48247C38.1943 7.93905 38.8123 7.47627 39.4127 7.09414C40.356 8.71378 40.824 10.6583 40.8168 12.9276C40.813 14.1245 40.6758 15.3863 40.4052 16.713C40.2782 16.656 40.1483 16.6021 40.0156 16.551C39.3137 16.2809 38.5492 16.0999 37.7223 16.0079C37.1512 15.9444 36.5747 15.9252 35.9926 15.9505C35.705 15.9629 35.4591 15.9829 35.2549 16.0104C34.266 16.1312 33.5 16.9739 33.5 17.9955C33.5 19.1001 34.3954 19.9955 35.5 19.9955C35.6031 19.9955 35.7044 19.9877 35.8033 19.9727C35.885 19.9623 36.0058 19.9536 36.1659 19.9467C36.5422 19.9304 36.9136 19.9426 37.28 19.9834C38.1176 20.0766 38.7808 20.2967 39.2697 20.6437C39.2336 20.7411 39.1969 20.8387 39.1596 20.9364C38.8226 21.8186 38.4437 22.6903 38.023 23.5516C37.1312 23.2113 36.1886 23.0081 35.1955 22.9419C34.7035 22.9091 34.2246 22.9127 33.7589 22.9526C33.5274 22.9724 33.3281 22.9977 33.1611 23.0285C32.218 23.1895 31.5 24.0109 31.5 25C31.5 26.1045 32.3954 27 33.5 27C33.6322 27 33.7613 26.9871 33.8863 26.9627C33.8911 26.9619 33.8966 26.9611 33.9025 26.9602C33.9605 26.9517 34.0265 26.9443 34.1005 26.938C34.3638 26.9154 34.6402 26.9137 34.9294 26.933C35.3008 26.9578 35.6591 27.0143 36.0045 27.1026C35.7843 27.4371 35.5595 27.7638 35.33 28.0828C34.6238 29.0642 33.9206 29.9071 33.2204 30.6117C32.5701 31.2659 31.9827 31.7427 31.458 32.0421C31.0919 32.2509 30.8076 32.5414 30.6051 32.9134C30.4315 33.2321 30.3399 33.5733 30.3303 33.9369C30.3198 34.3286 30.4051 34.6963 30.5861 35.0401C30.8093 35.4639 31.1358 35.7808 31.5656 35.9907C32.0923 36.2478 32.6379 36.567 33.2025 36.9482C34.06 37.5273 34.8543 38.1825 35.5854 38.9139C35.9474 39.276 36.4475 39.5 36.9999 39.5C38.1045 39.5 38.9999 38.6046 38.9999 37.5C38.9999 36.9479 38.7762 36.448 38.4144 36.0861L38.4131 36.0848C37.5701 35.2415 36.6597 34.4794 35.6821 33.7986C35.8065 33.6803 35.9317 33.5579 36.0576 33.4313C36.907 32.5765 37.7468 31.5725 38.5768 30.4191C39.4155 29.2535 40.1965 28.0015 40.9199 26.6631C41.6796 25.2575 42.3384 23.8243 42.8963 22.3637C43.4961 20.7935 43.9575 19.2469 44.2806 17.7241C44.6332 16.0616 44.8119 14.467 44.8168 12.9402C44.8221 11.2563 44.6155 9.6826 44.1969 8.2193C43.7365 6.61004 43.0277 5.15984 42.0703 3.86868C41.8556 3.57918 41.5967 3.33952 41.2936 3.14971C40.9994 2.96559 40.6816 2.83958 40.34 2.77168C39.6709 2.63869 39.0291 2.73263 38.4145 3.0535C37.282 3.64476 36.1302 4.44108 34.9592 5.44247C33.8131 6.42258 32.6887 7.56457 31.5859 8.86843C30.4662 10.1923 29.4088 11.6361 28.4137 13.1998C27.3804 14.8235 26.4462 16.5269 25.6109 18.3099C23.7821 22.2141 22.5401 26.2258 21.885 30.3449C21.1491 34.972 21.2039 39.472 22.0495 43.845C22.213 44.7852 23.033 45.5 24.0199 45.5C25.1244 45.5 26.0199 44.6046 26.0199 43.5ZM11 3.00003L23.1465 3.00003C23.7792 3.00003 24.3548 3.18122 24.8731 3.54361C25.3285 3.862 25.676 4.27746 25.9156 4.79C26.1509 5.29312 26.2487 5.81867 26.209 6.36665C26.1645 6.98169 25.9548 7.53251 25.5797 8.01913C24.5228 9.3903 23.5142 10.9029 22.554 12.557C21.2215 14.8525 20.0746 17.2693 19.1135 19.8075C17.9179 22.9649 17.044 26.2247 16.4919 29.5868C15.8407 33.5526 15.6476 37.6039 15.9125 41.7407C15.939 42.154 15.8835 42.5575 15.746 42.9511C15.6147 43.3271 15.4187 43.665 15.158 43.965C14.8855 44.2786 14.5649 44.525 14.1963 44.7041C13.7904 44.9014 13.3627 45 12.9132 45L11 45C6.58172 45 3 41.4183 3 37L3 11C3 6.58175 6.58172 3.00003 11 3.00003Z" fill-rule="evenodd"  fill="#000000" >
</path>
</svg>
