<svg xmlns="http://www.w3.org/2000/svg" xmlns:xlink="http://www.w3.org/1999/xlink" width="48" height="48" viewBox="0 0 48 48" fill="none">
<path d="M36 6C39.3137 6 42 8.68629 42 12L42 21.0852C39.5174 19.7435 36.6091 19 33.5 19C24.3873 19 17 25.3873 17 34.5C17 37.2007 17.6488 39.7498 18.7991 42L12 42C8.68629 42 6 39.3137 6 36L6 12C6 8.68629 8.68629 6 12 6L36 6Z" fill-rule="evenodd"  fill="#BEDCFF" >
</path>
<path d="M4 36L4 12C4 7.58172 7.58172 4 12 4L36 4C40.4183 4 44 7.58172 44 12L44 22.3644C42.7978 21.4624 41.4527 20.7232 40 20.1697L40 17.9972L8 17.9528L8 36C8 38.2091 9.79086 40 12 40L17.9389 40C18.446 41.4348 19.146 42.7785 20.0076 44L12 44C7.58172 44 4 40.4183 4 36ZM40 13.9972L40 12C40 9.79086 38.2091 8 36 8L12 8C9.79086 8 8 9.79086 8 12L8 13.9528L40 13.9972Z" fill-rule="evenodd"  fill="#4187FF" >
</path>
<path d="M44 34.5C44 40.299 39.299 45 33.5 45C27.701 45 23 40.299 23 34.5C23 28.701 27.701 24 33.5 24C39.299 24 44 28.701 44 34.5Z"   fill="#BEDCFF" >
</path>
<path d="M33.5 47C40.4036 47 46 41.4036 46 34.5C46 27.5964 40.4036 22 33.5 22C26.5964 22 21 27.5964 21 34.5C21 41.4036 26.5964 47 33.5 47ZM33.5 26C38.1944 26 42 29.8056 42 34.5C42 39.1944 38.1944 43 33.5 43C28.8056 43 25 39.1944 25 34.5C25 29.8056 28.8056 26 33.5 26Z" fill-rule="evenodd"  fill="#1764FF" >
</path>
<path d="M30.9978 30.9995C30.9981 29.8952 31.8934 29 32.9978 29C34.1024 29 34.9978 29.8954 34.9978 31L34.9978 31.0005L34.9972 33.6667L36.4967 33.6667C37.6013 33.6667 38.4967 34.5621 38.4967 35.6667C38.4967 36.7712 37.6013 37.6667 36.4967 37.6667L33.5356 37.6667C32.1332 37.6667 30.9965 36.5296 30.9968 35.1273L30.9978 31L30.9978 30.9995Z" fill-rule="evenodd"  fill="#1764FF" >
</path>
</svg>
