<svg xmlns="http://www.w3.org/2000/svg" xmlns:xlink="http://www.w3.org/1999/xlink" width="48" height="48" viewBox="0 0 48 48" fill="none">
<path d="M24 6C18.4771 9.2381 14 13.6112 14 23C14 32.3888 18.4771 36.7619 24 40C29.5229 36.7619 34 32.3888 34 23C34 13.6112 29.5229 9.2381 24 6Z"   fill="#AFECDA" >
</path>
<path d="M35.138 29.7085C35.7127 27.686 36 25.4499 36 23C36 20.5501 35.7127 18.314 35.138 16.2915C34.5963 14.3849 33.7926 12.645 32.727 11.0718C31.7754 9.66695 30.5944 8.36802 29.1841 7.17505C28.0183 6.18886 26.6275 5.22206 25.0116 4.27467L24 3.68158L22.9884 4.27467C21.3726 5.22206 19.9817 6.18886 18.8159 7.17505C17.4056 8.36802 16.2246 9.66695 15.273 11.0718C14.2074 12.645 13.4037 14.3849 12.862 16.2915C12.2873 18.314 12 20.5501 12 23C12 25.4499 12.2873 27.686 12.862 29.7085C13.4037 31.6151 14.2074 33.355 15.273 34.9282C16.2246 36.3331 17.4056 37.632 18.8159 38.8249C19.9817 39.8111 21.3726 40.7779 22.9884 41.7253L24 42.3184L25.0116 41.7253C26.6275 40.7779 28.0183 39.8111 29.1841 38.8249C30.5944 37.632 31.7754 36.3331 32.727 34.9282C33.7926 33.355 34.5963 31.6151 35.138 29.7085ZM31.2903 17.3848C31.7634 19.0499 32 20.9217 32 23C32 25.0783 31.7634 26.9501 31.2903 28.6152C30.8656 30.1098 30.2406 31.4664 29.4152 32.6849C28.6693 33.7862 27.7311 34.8149 26.6008 35.771C25.855 36.4019 24.9881 37.031 24 37.6581C23.0119 37.031 22.145 36.4019 21.3992 35.771C20.2689 34.8149 19.3307 33.7862 18.5848 32.6849C17.7594 31.4664 17.1344 30.1098 16.7097 28.6152C16.2366 26.9501 16 25.0783 16 23C16 20.9217 16.2366 19.0499 16.7097 17.3848C17.1344 15.8902 17.7594 14.5336 18.5848 13.3151C19.3308 12.2138 20.2689 11.1851 21.3992 10.229C22.145 9.59807 23.0119 8.96906 24 8.34193C24.9881 8.96906 25.855 9.59807 26.6008 10.229C27.7311 11.1851 28.6693 12.2138 29.4152 13.3151C30.2406 14.5336 30.8656 15.8902 31.2903 17.3848Z" fill-rule="evenodd"  fill="#0D9E86" >
</path>
<path d="M21 38.5L23.092 43.0328C23.4495 43.8073 24.5505 43.8073 24.908 43.0328L27 38.5L24 33.5L21 38.5Z"   fill="#2CB197" >
</path>
<path d="M26.0001 32.946L29.2592 38.3779L26.724 43.8709C25.6514 46.1946 22.3487 46.1946 21.2762 43.8709L18.741 38.3779L22.0001 32.946L22.0001 17L26.0001 17L26.0001 32.946ZM24.0001 37.3873L23.2592 38.6221L24.0001 40.2274L24.741 38.6221L24.0001 37.3873Z" fill-rule="evenodd"  fill="#2CB197" >
</path>
<path d="M24 15C22.8954 15 22 15.8954 22 17C22 18.1046 22.8954 19 24 19C25.1046 19 26 18.1046 26 17C26 15.8954 25.1046 15 24 15Z"   fill="#2CB197" >
</path>
</svg>
