<svg xmlns="http://www.w3.org/2000/svg" xmlns:xlink="http://www.w3.org/1999/xlink" width="48" height="48" viewBox="0 0 48 48" fill="none">
<path d="M22.4686 1.58258L20.5076 2.05579C19.5148 2.29535 18.6286 2.55309 17.8491 2.82902C17.0264 3.12027 16.2502 3.45687 15.5206 3.83881C14.8105 4.21054 14.0899 4.65412 13.3588 5.16956C12.7055 5.63007 11.9737 6.19842 11.1633 6.8746L9.39487 8.35013L11.1038 9.89422C13.5603 12.1137 15.1659 14.2353 15.9208 16.2589C16.521 17.8676 16.5777 19.4625 16.0908 21.0436C15.6633 22.4317 14.7881 23.9162 13.4653 25.497C12.9172 26.152 12.2559 26.8675 11.4815 27.6434C11.0106 28.1153 10.2978 28.8025 9.34322 29.7049C8.56448 30.4411 7.99438 30.9879 7.63291 31.3452C7.01535 31.9558 6.50072 32.5001 6.08904 32.9781C5.56421 33.5874 5.14291 34.1609 4.82514 34.6986C4.41945 35.385 4.15565 36.0559 4.03374 36.7111L4 36.8925L4 37.077C4 38.0312 4.26749 38.9621 4.80247 39.8696C5.24571 40.6215 5.86587 41.3401 6.66294 42.0254C8.03681 43.2067 9.83817 44.2296 12.067 45.0941C14.1682 45.9092 16.341 46.4691 18.5854 46.774C20.9831 47.0997 23.1001 47.079 24.9364 46.7118L25.8723 46.5246L26.3155 45.6792C28.9662 40.6228 30.296 35.3131 30.3049 29.75C30.3072 28.3023 30.2186 26.8289 30.0391 25.3298C33.9872 24.2211 38.4374 23.175 43.3895 22.1914L45.678 21.7369L44.879 19.5447C44.2129 17.7175 42.9365 16.1089 41.0499 14.7191C39.5351 13.6032 37.593 12.6102 35.2235 11.7401C33.3598 11.0556 31.1336 10.4144 28.5448 9.81641C27.6497 9.60964 26.5117 9.36735 25.1308 9.08954C25.0111 8.81379 24.8863 8.5278 24.7565 8.23156C24.1854 6.92837 23.7917 6.00614 23.5752 5.46486C23.249 4.6492 23.0322 4.01014 22.9249 3.54768L22.4686 1.58258ZM20.3673 8.16386C20.1506 7.65664 19.9819 7.25204 19.8611 6.95007C19.7908 6.77434 19.7244 6.60389 19.6617 6.4387C19.4966 6.49175 19.3374 6.54544 19.1839 6.59975C18.54 6.82768 17.9373 7.08862 17.3758 7.38257C17.3066 7.41881 17.2371 7.45602 17.1673 7.4942C17.6027 7.59692 18.0879 7.70407 18.623 7.81566C19.0423 7.90309 19.6237 8.01916 20.3673 8.16386ZM18.0772 11.7873C20.3711 15.2694 20.9833 18.7472 19.9136 22.2208C19.6404 23.1081 19.2494 24.0053 18.7406 24.9125C24.2141 22.6816 31.2175 20.6623 39.7509 18.8545C38.4991 17.6011 36.5303 16.4812 33.8446 15.4949C32.1374 14.868 30.0707 14.2743 27.6445 13.7138C26.1956 13.379 24.0657 12.9437 21.2546 12.4079C19.855 12.1411 18.7959 11.9342 18.0772 11.7873ZM8.04681 37.3876C8.08747 37.5292 8.15462 37.6794 8.24827 37.8383C8.46744 38.2099 8.80827 38.5946 9.27076 38.9924C10.2974 39.8751 11.7117 40.6659 13.5135 41.3648C15.3212 42.066 17.1913 42.5479 19.1238 42.8104C20.6629 43.0195 22.0294 43.0596 23.2232 42.9307C25.2703 38.7233 26.2976 34.3276 26.3049 29.7436C26.3066 28.6792 26.2527 27.5967 26.1432 26.4961C23.07 27.4785 20.3621 28.5064 18.0194 29.5799C15.1221 30.9075 12.8086 32.2933 11.079 33.7373C9.6489 34.9313 8.63817 36.1481 8.04681 37.3876Z" fill-rule="evenodd"  fill="#000000" >
</path>
</svg>
