<svg xmlns="http://www.w3.org/2000/svg" xmlns:xlink="http://www.w3.org/1999/xlink" width="48" height="48" viewBox="0 0 48 48" fill="none">
<path d="M43.9639 11.2914C46.2441 12.3772 46.2441 15.6227 43.9639 16.7086L27.4395 24.5773C26.3515 25.0955 25.205 25.3545 24 25.3545C22.795 25.3545 21.6485 25.0955 20.5605 24.5773L4.03613 16.7086C1.75586 15.6227 1.75586 12.3772 4.03613 11.2914L19.7007 3.83211C21.0607 3.18451 22.4938 2.86072 24 2.86072C25.5063 2.86072 26.9394 3.18451 28.2993 3.83211L43.9639 11.2914ZM26.5796 7.44355L40.3481 14L25.7197 20.9659C25.1757 21.2249 24.6025 21.3545 24 21.3545C23.3974 21.3545 22.8242 21.2249 22.2803 20.9659L7.65187 14L21.4204 7.44355C22.2364 7.055 23.0962 6.86072 24 6.86072C24.9038 6.86072 25.7636 7.05499 26.5796 7.44355ZM29.4473 11.4875C31.1057 12.3167 31.1057 14.6832 29.4473 15.5124L25.5653 17.4534C25.0727 17.6997 24.5509 17.8229 24.0001 17.8229C23.4493 17.8229 22.9275 17.6997 22.4348 17.4534L18.5529 15.5124C16.8945 14.6832 16.8945 12.3167 18.5529 11.4875L22.4348 9.54653C22.9275 9.30019 23.4493 9.17702 24.0001 9.17702C24.5509 9.17702 25.0727 9.30019 25.5653 9.54653L29.4473 11.4875ZM5.35916 20.6614L4.03613 21.2914C1.75586 22.3772 1.75586 25.6227 4.03613 26.7086L20.5605 34.5773C21.6485 35.0955 22.795 35.3545 24 35.3545C25.205 35.3545 26.3515 35.0955 27.4395 34.5773L43.9639 26.7086C46.2441 25.6227 46.2441 22.3772 43.9639 21.2914L42.6408 20.6614L27.0095 28.1048C26.0576 28.5582 25.0544 28.7848 24 28.7848C22.9456 28.7848 21.9425 28.5582 20.9905 28.1048L5.35916 20.6614ZM4.03613 31.2914L5.35951 30.6612L20.9848 38.1055C21.9367 38.5588 22.9404 38.7855 23.9948 38.7855C25.0492 38.7855 26.0529 38.5588 27.0048 38.1055L42.6396 30.6608L43.9639 31.2914C46.2441 32.3772 46.2441 35.6227 43.9639 36.7086L28.2993 44.1679C26.9394 44.8155 25.5063 45.1393 24 45.1393C22.4938 45.1393 21.0607 44.8155 19.7007 44.1679L4.03613 36.7086C1.75586 35.6227 1.75586 32.3772 4.03613 31.2914Z" fill-rule="evenodd"  fill="#000000" >
</path>
</svg>
