<svg xmlns="http://www.w3.org/2000/svg" xmlns:xlink="http://www.w3.org/1999/xlink" width="48" height="48" viewBox="0 0 48 48" fill="none">
<path d="M7.5 18.5664L7.5 36C7.5 37.1046 8.39543 38 9.5 38C10.6046 38 11.5 37.1046 11.5 36L11.5 13.2717C11.5 12.0171 10.4829 11 9.22834 11C8.69374 11 8.21771 11.1675 7.80026 11.5026C7.39728 11.8261 7.13376 12.2389 7.0097 12.7411C6.94965 12.9841 6.86558 13.2321 6.75749 13.4851C6.59833 13.8576 6.40896 14.1832 6.18938 14.4619C5.93711 14.7821 5.65346 15.0265 5.33843 15.1951C4.95844 15.3984 4.5123 15.5 4 15.5L3 15.5C1.89543 15.5 1 16.3954 1 17.5C1 18.6046 1.89543 19.5 3 19.5L4 19.5C5.18079 19.5 6.25591 19.2407 7.22534 18.722C7.31828 18.6723 7.40983 18.6204 7.5 18.5664Z" fill-rule="evenodd"  fill="#0D9E86" >
</path>
<path d="M14.5 18.05L14.5 21C14.5 22.1046 15.3954 23 16.5 23C17.6046 23 18.5 22.1046 18.5 21L18.5 18.05C18.5 17.9489 18.5171 17.7944 18.5514 17.5866C18.6232 17.1515 18.7452 16.7601 18.9174 16.4123C19.1251 15.9928 19.3948 15.6714 19.7264 15.448C20.17 15.1493 20.7612 15 21.5 15C22.2388 15 22.83 15.1493 23.2736 15.448C23.6052 15.6714 23.8749 15.9928 24.0826 16.4123C24.2548 16.7601 24.3768 17.1515 24.4486 17.5866C24.4829 17.7944 24.5 17.9489 24.5 18.05L24.5 21C24.5 21.6312 24.3996 22.1787 24.1988 22.6425C24.0277 23.0377 23.767 23.4052 23.4167 23.7451C23.0796 24.072 22.6284 24.4033 22.0628 24.7391C21.6848 24.9636 21.0718 25.2874 20.2238 25.7107C19.3244 26.1596 18.6545 26.5137 18.2143 26.7729C17.4166 27.2426 16.7498 27.7317 16.214 28.2403C14.738 29.6415 14 31.3947 14 33.5L14 36C14 37.1046 14.8954 38 16 38L26.5 38C27.6046 38 28.5 37.1046 28.5 36C28.5 34.8954 27.6046 34 26.5 34L18 34L18 33.5C18 32.9631 18.0877 32.498 18.2632 32.1049C18.4151 31.7643 18.6501 31.4431 18.968 31.1413C19.283 30.8422 19.7083 30.5351 20.2438 30.2198C20.6045 30.0075 21.1933 29.6974 22.0102 29.2896C22.9451 28.823 23.6434 28.4526 24.105 28.1785C24.9405 27.6824 25.6394 27.1616 26.2018 26.6161C27.7339 25.1298 28.5 23.2578 28.5 21L28.5 18.05C28.5 17.7303 28.4651 17.3587 28.3952 16.9353C28.2587 16.1078 28.0161 15.342 27.6674 14.6377C27.1459 13.5843 26.426 12.7484 25.5077 12.1301C24.3888 11.3767 23.0529 11 21.5 11C19.9471 11 18.6112 11.3767 17.4923 12.1301C16.574 12.7484 15.8541 13.5843 15.3326 14.6377C14.984 15.342 14.7414 16.1078 14.6048 16.9353C14.5349 17.3587 14.5 17.7303 14.5 18.05Z" fill-rule="evenodd"  fill="#2CB197" >
</path>
<path d="M31 14C31 15.1046 31.8954 16 33 16L39.6716 16L33.2233 22.4483C32.8442 22.8273 32.6313 23.2829 32.5844 23.8149C32.5437 24.2778 32.6395 24.7115 32.872 25.1159C33.1116 25.5327 33.4496 25.8386 33.8859 26.0335C34.3932 26.2601 34.913 26.289 35.4453 26.1201C36.6425 25.7404 37.7393 25.5229 38.7356 25.4675C39.6951 25.414 40.4941 25.5145 41.1327 25.7688C41.7016 25.9953 42.1329 26.355 42.4268 26.8479C42.8089 27.489 43 28.373 43 29.5C43 30.0545 42.9092 30.6041 42.7276 31.1488C42.5409 31.7089 42.2778 32.2012 41.9383 32.6256C41.2053 33.5419 40.2258 34 39 34C38.3453 34 37.7391 33.913 37.1813 33.7391C36.6843 33.5841 36.2579 33.3707 35.9024 33.0988C35.3008 32.6387 35 32.1058 35 31.5C35 30.3954 34.1046 29.5 33 29.5C31.8954 29.5 31 30.3954 31 31.5L31 31.5017C31.0003 32.4542 31.2278 33.3546 31.6827 34.2029C32.1097 34.9991 32.7063 35.6902 33.4726 36.2762C34.2033 36.835 35.0426 37.2622 35.9905 37.5578C36.936 37.8526 37.9392 38 39 38C40.2731 38 41.4462 37.7317 42.5194 37.1951C43.5035 36.703 44.351 36.0128 45.0617 35.1244C45.6984 34.3286 46.1853 33.425 46.5224 32.4137C46.8408 31.4584 47 30.4872 47 29.5C47 27.6385 46.6209 26.0718 45.8626 24.7998C45.1055 23.5296 44.0221 22.6139 42.6125 22.0526C41.7826 21.7221 40.8641 21.5284 39.8569 21.4715L45.4142 15.9142C45.7893 15.5391 46 15.0304 46 14.5L46 14C46 12.8954 45.1046 12 44 12L33 12C31.8954 12 31 12.8954 31 14Z" fill-rule="evenodd"  fill="#51C5AA" >
</path>
</svg>
