<svg xmlns="http://www.w3.org/2000/svg" xmlns:xlink="http://www.w3.org/1999/xlink" width="48" height="48" viewBox="0 0 48 48" fill="none">
<path d="M35.1899 41.9842C37.8494 42.3517 40.4614 42.2852 43.0259 41.7847C43.5878 41.675 44.0719 41.426 44.4782 41.0379C44.8678 40.6657 45.131 40.2184 45.2679 39.6959C45.4037 39.1779 45.3951 38.6623 45.2422 38.1491C45.0836 37.6166 44.792 37.1636 44.3675 36.7901C43.8168 36.3055 43.1814 35.7939 42.4614 35.2552C42.0478 34.9457 41.4545 34.5179 40.6815 33.9719C40.083 33.5491 39.6128 33.2075 39.2709 32.9471C39.3312 32.8914 39.3942 32.8351 39.4597 32.7784C40.1149 32.2113 40.8227 31.763 41.583 31.4335C42.0752 31.2201 42.4913 30.9014 42.8312 30.4774C43.1519 30.0775 43.3675 29.6306 43.4782 29.1368C43.6032 28.5791 43.5785 28.0382 43.4041 27.5143C43.2001 26.9016 42.8285 26.4112 42.2894 26.0432C40.7483 24.9914 39.102 24.2996 37.3505 23.9678C36.6968 23.844 36.0075 23.7668 35.2823 23.7361C34.8759 23.7189 34.3353 23.7162 33.6604 23.7279C33.4386 23.7317 33.2509 23.7334 33.0973 23.733C33.0479 23.4875 32.9878 23.152 32.917 22.7265C32.7561 21.7593 32.6095 20.9895 32.4772 20.417C32.2422 19.4002 31.9502 18.459 31.6013 17.5934C30.6499 15.2331 29.2065 13.2441 27.2709 11.6264C24.4596 9.27695 21.5628 7.8451 18.5806 7.3309C17.4631 7.13822 16.3149 7.07268 15.136 7.13428C14.5124 7.16685 13.7313 7.25351 12.7924 7.39426C12.4092 7.19058 11.9877 7.01825 11.5281 6.87728C10.7454 6.63726 9.93239 6.51334 9.089 6.5055C8.15632 6.49683 7.26187 6.63255 6.40566 6.91267C5.42966 7.23197 4.55812 7.72184 3.79105 8.38228C3.452 8.6742 3.19756 9.02603 3.02775 9.43777C2.87526 9.80749 2.80373 10.1963 2.81317 10.6042C2.82151 10.9648 2.89297 11.3162 3.02756 11.6583C3.15741 11.9885 3.33779 12.2888 3.5687 12.5594C3.96174 13.0199 4.35996 13.6146 4.76335 14.3435C5.02835 14.8223 5.42225 15.6104 5.94506 16.7079C6.14412 17.1258 6.30913 17.4696 6.44007 17.7394C6.51769 18.1231 6.63411 18.4865 6.78931 18.8297C7.00575 19.3082 7.3123 19.7814 7.70896 20.2492C8.3094 20.9574 9.2755 21.8088 10.6072 22.8035C10.3305 23.6314 10.0954 24.5455 9.90216 25.546C9.628 26.9649 9.48522 28.3369 9.47383 29.6621C9.46001 31.2683 9.64472 32.6936 10.028 33.9379C10.5177 35.528 11.314 36.7734 12.4169 37.6739C12.9231 38.0872 13.5002 38.2939 14.148 38.2941C14.665 38.2942 15.1593 38.1578 15.6308 37.8846C16.0078 37.6662 16.3353 37.3796 16.6133 37.0249C16.8937 36.6669 17.0955 36.2752 17.2187 35.8498C17.3217 35.4938 17.4595 35.1282 17.632 34.753C17.8157 34.3534 18.0197 33.9853 18.2442 33.6487C18.4008 33.4139 18.5586 33.2074 18.7176 33.0294C19.7066 34.238 20.8908 35.3831 22.2702 36.4648C24.0519 37.8621 26.0031 39.028 28.1236 39.9627C30.4263 40.9776 32.7817 41.6514 35.1899 41.9842ZM16 13C17.1046 13 18 13.8954 18 15L18 16C18 17.1046 17.1046 18 16 18C14.8954 18 14 17.1046 14 16L14 15C14 13.8954 14.8954 13 16 13Z" fill-rule="evenodd"  fill="#000000" >
</path>
</svg>
