<svg xmlns="http://www.w3.org/2000/svg" xmlns:xlink="http://www.w3.org/1999/xlink" width="48" height="48" viewBox="0 0 48 48" fill="none">
<path d="M8.79801 41L9 41L9 45L3 45L3 41L4.57041 41L17.1077 4.3526C17.8104 2.29848 20.8229 2.6783 20.9938 4.84257L23.8483 41L24.5 41L24.5 45L19 45L19 41L19.8359 41L17.7663 14.785L8.79801 41Z" fill-rule="evenodd"  fill="#8134ED" >
</path>
<path d="M5 43C5 44.1046 4.10457 45 3 45C1.89543 45 1 44.1046 1 43C1 41.8954 1.89543 41 3 41C4.10457 41 5 41.8954 5 43Z"   fill="#8134ED" >
</path>
<path d="M25 41C23.8954 41 23 41.8954 23 43C23 44.1046 23.8954 45 25 45C26.1046 45 27 44.1046 27 43C27 41.8954 26.1046 41 25 41Z"   fill="#8134ED" >
</path>
<path d="M21 43C21 44.1046 20.1046 45 19 45C17.8954 45 17 44.1046 17 43C17 41.8954 17.8954 41 19 41C20.1046 41 21 41.8954 21 43Z"   fill="#8134ED" >
</path>
<path d="M11 43C11 44.1046 10.1046 45 9 45C7.89543 45 7 44.1046 7 43C7 41.8954 7.89543 41 9 41C10.1046 41 11 41.8954 11 43Z"   fill="#8134ED" >
</path>
<path d="M9 28L19.5 28L19.5 32L9 32L9 28Z" fill-rule="evenodd"  fill="#8134ED" >
</path>
<path d="M27 24C27 25.1046 27.8954 26 29 26L43.5 26C44.6046 26 45.5 25.1046 45.5 24C45.5 22.8954 44.6046 22 43.5 22L29 22C27.8954 22 27 22.8954 27 24Z" fill-rule="evenodd"  fill="#8134ED" >
</path>
<path d="M28 32C28 33.1046 28.8954 34 30 34L43 34C44.1046 34 45 33.1046 45 32C45 30.8954 44.1046 30 43 30L30 30C28.8954 30 28 30.8954 28 32Z" fill-rule="evenodd"  fill="#B579F4" >
</path>
<path d="M29 40C29 41.1046 29.8954 42 31 42L43 42C44.1046 42 45 41.1046 45 40C45 38.8954 44.1046 38 43 38L31 38C29.8954 38 29 38.8954 29 40Z" fill-rule="evenodd"  fill="#CC9DF8" >
</path>
</svg>
