<svg xmlns="http://www.w3.org/2000/svg" xmlns:xlink="http://www.w3.org/1999/xlink" width="48" height="48" viewBox="0 0 48 48" fill="none">
<path d="M26 3L13 3C10.2386 3 8 5.23858 8 8L8 32C8 34.7614 10.2386 37 13 37L26 37C28.7614 37 31 34.7614 31 32L31 8C31 5.23858 28.7614 3 26 3ZM36.0201 28.6583L36.0201 30.2155C36.0068 30.3084 36 30.4034 36 30.5L36 37C36 39.2091 34.2091 41 32 41L31 41C29.8954 41 29 41.8954 29 43C29 44.1046 29.8954 45 31 45L32 45C36.4183 45 40 41.4183 40 37L40 35L41.6274 35C43.3822 35 44.4308 33.0462 43.4607 31.5839L40.6034 27.2764C39.2345 25.2126 36.0201 26.1818 36.0201 28.6583Z" fill-rule="evenodd"  fill="#000000" >
</path>
</svg>
