<svg xmlns="http://www.w3.org/2000/svg" xmlns:xlink="http://www.w3.org/1999/xlink" width="48" height="48" viewBox="0 0 48 48" fill="none">
<path d="M40.9411 36.6115L44.8968 27.0616C45.3027 26.0814 45.5056 25.0609 45.5056 24C45.5056 22.9392 45.3027 21.9187 44.8968 20.9386L40.9411 11.3886C40.535 10.4085 39.9569 9.54336 39.2068 8.79321C38.4567 8.04306 37.5916 7.465 36.6115 7.05903L27.0616 3.10332C26.0815 2.69734 25.0609 2.49435 24 2.49435C22.9392 2.49435 21.9187 2.69734 20.9386 3.10332L11.3886 7.05903C10.4085 7.46501 9.54339 8.04307 8.79325 8.79321C8.0431 9.54336 7.46504 10.4085 7.05906 11.3886L3.10335 20.9386C2.69737 21.9187 2.49438 22.9392 2.49438 24C2.49438 25.0609 2.69737 26.0814 3.10335 27.0616L7.05906 36.6115C7.46503 37.5916 8.04309 38.4567 8.79325 39.2068C9.54338 39.9569 10.4085 40.535 11.3886 40.9411L20.9386 44.8968C21.9187 45.3027 22.9392 45.5056 24 45.5056C25.0609 45.5056 26.0814 45.3027 27.0616 44.8968L36.6115 40.9411C37.5916 40.535 38.4567 39.957 39.2068 39.2068C39.957 38.4567 40.535 37.5916 40.9411 36.6115ZM23.8348 31.1135L34.4213 20.4071L34.4222 20.4062C34.7794 20.045 35 19.5482 35 19C35 17.8954 34.1046 17 33 17C32.4437 17 31.9404 17.2271 31.5778 17.5938L31.5769 17.5947L21.1207 28.1694L16.4089 23.4958L16.4085 23.4953C16.047 23.1368 15.5494 22.9153 15 22.9153C13.8954 22.9153 13 23.8107 13 24.9153C13 25.4705 13.2262 25.9729 13.5915 26.3353L13.5921 26.3358L18.4352 31.1397C19.9328 32.6252 22.3517 32.6134 23.8348 31.1135Z" fill-rule="evenodd"  fill="#000000" >
</path>
</svg>
