<svg xmlns="http://www.w3.org/2000/svg" xmlns:xlink="http://www.w3.org/1999/xlink" width="48" height="48" viewBox="0 0 48 48" fill="none">
<path d="M36 4L12 4C7.58172 4 4 7.58172 4 12L4 14L44 14L44 12C44 7.58172 40.4183 4 36 4ZM4 36L4 18L44 18L44 22.1726C41.314 20.4622 38.0369 19.5 34.5 19.5C25.3873 19.5 18 25.8873 18 35C18 38.3204 18.9808 41.4117 20.6684 44L12 44C7.58172 44 4 40.4183 4 36ZM33.5 47C40.4036 47 46 41.4036 46 34.5C46 27.5964 40.4036 22 33.5 22C26.5964 22 21 27.5964 21 34.5C21 41.4036 26.5964 47 33.5 47ZM33.5 26C38.1944 26 42 29.8056 42 34.5C42 39.1944 38.1944 43 33.5 43C28.8056 43 25 39.1944 25 34.5C25 29.8056 28.8056 26 33.5 26ZM30.9178 30.9995C30.9181 29.8952 31.8134 29 32.9178 29C34.0224 29 34.9178 29.8954 34.9178 31L34.9178 31.0005L34.9172 33.6667L36.4167 33.6667C37.5212 33.6667 38.4167 34.5621 38.4167 35.6667C38.4167 36.7712 37.5212 37.6667 36.4167 37.6667L33.4556 37.6667C32.0532 37.6667 30.9165 36.5296 30.9168 35.1273L30.9178 31L30.9178 30.9995Z" fill-rule="evenodd"  fill="#000000" >
</path>
</svg>
