<svg xmlns="http://www.w3.org/2000/svg" xmlns:xlink="http://www.w3.org/1999/xlink" width="48" height="48" viewBox="0 0 48 48" fill="none">
<path d="M8.79801 40.9999L9 40.9999C10.1046 41 11 41.8954 11 43C11 44.1046 10.1046 45 9 44.9999L3.01477 44.9999L3 45C1.89543 45 1 44.1046 1 43C1 41.8954 1.89543 41 3 40.9999L4.57041 40.9999L9 28.0519L9 28L9.01777 28L17.1077 4.35261C17.8151 2.28472 20.8522 2.68785 20.9957 4.86869L23.3727 40.9999L24.5 40.9999C25.6046 41 26.5 41.8954 26.5 43C26.5 44.1046 25.6046 45 24.5 45L24.4852 44.9999L18 44.9999C16.8954 45 16 44.1046 16 43C16 41.8954 16.8954 41 18 41L19.3641 40.9999L18.772 32L11.8769 32L8.79801 40.9999ZM26.5871 17.0845L26.5861 17.0855C26.224 17.4474 26 17.9475 26 18.5C26 19.6046 26.8954 20.5 28 20.5C28.5521 20.5 29.052 20.2763 29.4139 19.9145L29.4153 19.9131C30.0278 19.3012 30.7145 18.8473 31.4752 18.5515C32.4205 18.1839 33.5955 18 35 18C35.5568 18 36.0832 18.093 36.579 18.2789C37.1086 18.4775 37.5692 18.7726 37.9608 19.1642C38.4153 19.6187 38.7706 20.1981 39.0267 20.9022C39.2304 21.4623 39.3683 22.0911 39.4405 22.7885C38.0644 22.2628 36.4175 22 34.5 22C33.3256 22 32.1746 22.1537 31.047 22.461C29.7953 22.8022 28.6806 23.3059 27.7027 23.9721C26.5665 24.7462 25.6828 25.6944 25.0518 26.8166C24.3506 28.0638 24 29.4582 24 31C24 32.2872 24.2456 33.4481 24.7368 34.4827C25.2323 35.5264 25.9558 36.401 26.9074 37.1066C28.6098 38.3689 30.904 39 33.79 39C35.9937 39 37.8507 38.7894 39.3608 38.3683C39.798 38.2464 40.2109 38.1055 40.5996 37.9455C41.046 38.3274 41.5904 38.5826 42.2328 38.7111C42.7605 38.8166 43.3137 38.8281 43.8922 38.7455C44.4201 38.6701 44.903 38.5267 45.3408 38.3152C46.0253 37.9976 46.5 37.3043 46.5 36.5C46.5 35.3954 45.6046 34.5 44.5 34.5C44.1723 34.5 43.8631 34.5788 43.5901 34.7185C43.564 34.7302 43.534 34.7409 43.5 34.7505L43.5 24C43.5 22.3328 43.2619 20.8446 42.7858 19.5353C42.3276 18.2751 41.6621 17.2086 40.7892 16.3358C39.9891 15.5357 39.0539 14.935 37.9835 14.5336C37.0349 14.1779 36.0404 14 35 14C33.0951 14 31.4369 14.2745 30.0254 14.8235C28.7422 15.3225 27.5961 16.0762 26.5871 17.0845ZM39.5 34.0503L39.5 27.3695C39.3018 27.2211 39.1261 27.0989 38.973 27.0031C38.672 26.8147 38.3557 26.6568 38.0241 26.5293C37.1061 26.1764 35.9314 26 34.5 26C33.6825 26 32.8822 26.1067 32.0989 26.3202C31.2783 26.5439 30.5636 26.8631 29.9548 27.2778C28.6516 28.1658 28 29.4065 28 31C28 31.6863 28.1168 32.2754 28.3503 32.7673C28.5601 33.2092 28.8732 33.5846 29.2898 33.8934C29.7536 34.2373 30.3432 34.5029 31.0584 34.6902C31.8472 34.8967 32.7578 35 33.79 35C35.6289 35 37.1276 34.8384 38.2863 34.5153C38.6638 34.41 39.0037 34.2871 39.306 34.1464C39.3659 34.1186 39.4306 34.0865 39.5 34.0503ZM18.5088 28L13.2454 28L17.6599 15.0959L18.5088 28ZM29 43C29 44.1046 29.8954 45 31 45L43 45C44.1046 45 45 44.1046 45 43C45 41.8954 44.1046 41 43 41L31 41C29.8954 41 29 41.8954 29 43Z" fill-rule="evenodd"  fill="#000000" >
</path>
</svg>
