<svg xmlns="http://www.w3.org/2000/svg" xmlns:xlink="http://www.w3.org/1999/xlink" width="48" height="48" viewBox="0 0 48 48" fill="none">
<path d="M25.9756 43.0795C26.0046 43.2151 26.0199 43.3558 26.0199 43.5C26.0199 44.6046 25.1244 45.5 24.0199 45.5C23.033 45.5 22.213 44.7852 22.0495 43.845C21.2039 39.472 21.1491 34.972 21.885 30.3449C22.5401 26.2258 23.7821 22.2141 25.6109 18.3099C26.4462 16.5269 27.3804 14.8235 28.4137 13.1998C29.4088 11.6361 30.4662 10.1923 31.5859 8.86843C32.6887 7.56457 33.8131 6.42258 34.9592 5.44247C36.1302 4.44108 37.282 3.64476 38.4145 3.0535C39.0291 2.73263 39.6709 2.63869 40.34 2.77168C40.6816 2.83958 40.9994 2.96559 41.2936 3.14971C41.5967 3.33952 41.8556 3.57918 42.0703 3.86868C43.0277 5.15984 43.7365 6.61004 44.1969 8.2193C44.6155 9.6826 44.8221 11.2563 44.8168 12.9402C44.8119 14.467 44.6332 16.0616 44.2806 17.7241C43.9575 19.2469 43.4961 20.7935 42.8963 22.3637C42.3384 23.8243 41.6796 25.2575 40.9199 26.6631C40.1965 28.0015 39.4155 29.2535 38.5768 30.4191C37.7468 31.5725 36.907 32.5765 36.0576 33.4313C35.9317 33.5579 35.8065 33.6803 35.6821 33.7986C36.6597 34.4794 37.5701 35.2415 38.4131 36.0848L38.4144 36.0861C38.7762 36.448 38.9999 36.9479 38.9999 37.5C38.9999 38.6046 38.1045 39.5 36.9999 39.5C36.4475 39.5 35.9474 39.276 35.5854 38.9139C34.8543 38.1825 34.06 37.5273 33.2025 36.9482C32.6379 36.567 32.0923 36.2478 31.5656 35.9907C31.1358 35.7808 30.8093 35.4639 30.5861 35.0401C30.4051 34.6963 30.3198 34.3286 30.3303 33.9369C30.3399 33.5733 30.4315 33.2321 30.6051 32.9134C30.8076 32.5414 31.0919 32.2509 31.458 32.0421C31.9827 31.7427 32.5701 31.2659 33.2204 30.6117C33.9206 29.9071 34.6238 29.0642 35.33 28.0828C35.5595 27.7638 35.7843 27.4371 36.0045 27.1026C35.6591 27.0143 35.3008 26.9578 34.9294 26.933C34.6402 26.9137 34.3638 26.9154 34.1005 26.938C34.0265 26.9443 33.9605 26.9517 33.9025 26.9602C33.8966 26.9611 33.8911 26.9619 33.8863 26.9627C33.7613 26.9871 33.6322 27 33.5 27C32.3954 27 31.5 26.1045 31.5 25C31.5 24.0109 32.218 23.1895 33.1611 23.0285C33.3281 22.9977 33.5274 22.9724 33.7589 22.9526C34.2246 22.9127 34.7035 22.9091 35.1955 22.9419C36.1886 23.0081 37.1312 23.2113 38.023 23.5516C38.4437 22.6903 38.8226 21.8186 39.1596 20.9364C39.1969 20.8387 39.2336 20.7411 39.2697 20.6437C38.7808 20.2967 38.1176 20.0766 37.28 19.9834C36.9136 19.9426 36.5422 19.9304 36.1659 19.9467C36.0058 19.9536 35.885 19.9623 35.8033 19.9727C35.7044 19.9877 35.6031 19.9955 35.5 19.9955C34.3954 19.9955 33.5 19.1001 33.5 17.9955C33.5 16.9739 34.266 16.1312 35.2549 16.0104C35.4591 15.9829 35.705 15.9629 35.9926 15.9505C36.5747 15.9252 37.1512 15.9444 37.7223 16.0079C38.5492 16.0999 39.3137 16.2809 40.0156 16.551C40.1483 16.6021 40.2782 16.656 40.4052 16.713C40.6758 15.3863 40.813 14.1245 40.8168 12.9276C40.824 10.6583 40.356 8.71378 39.4127 7.09414C38.8123 7.47627 38.1943 7.93905 37.5589 8.48247C36.5765 9.32251 35.6036 10.3122 34.6401 11.4515C33.637 12.6374 32.6864 13.936 31.7883 15.3474C30.8473 16.8261 29.9956 18.3792 29.2332 20.0066C27.564 23.5702 26.4314 27.2257 25.8353 30.9732C25.1735 35.1342 25.2203 39.1696 25.9756 43.0795ZM11 7.00003L25.5 7.00003C26.6046 7.00003 27.5 6.1046 27.5 5.00003C27.5 3.89546 26.6046 3.00003 25.5 3.00003L11 3.00003C6.58172 3.00003 3 6.58175 3 11L3 37C3 41.4183 6.58172 45 11 45L14 45C15.1046 45 16 44.1046 16 43C16 41.8954 15.1046 41 14 41L11 41C8.79086 41 7 39.2091 7 37L7 11C7 8.79089 8.79086 7.00003 11 7.00003Z" fill-rule="evenodd"  fill="#000000" >
</path>
</svg>
