<svg xmlns="http://www.w3.org/2000/svg" xmlns:xlink="http://www.w3.org/1999/xlink" width="48" height="48" viewBox="0 0 48 48" fill="none">
<path d="M26.2607 38.0698L16.7607 30.5698L19.2393 27.4302L28.7393 34.9302L26.2607 38.0698Z" fill-rule="evenodd"  fill="#BEDCFF" >
</path>
<path d="M18.1371 17.6957L29.6371 12.1957L31.3629 15.8043L19.8629 21.3043L18.1371 17.6957Z" fill-rule="evenodd"  fill="#BEDCFF" >
</path>
<path d="M43 11.5C43 15.0899 40.0899 18 36.5 18C32.9101 18 30 15.0899 30 11.5C30 7.91015 32.9101 5 36.5 5C40.0899 5 43 7.91015 43 11.5Z"   fill="#BEDCFF" >
</path>
<path d="M36.5 20C41.1944 20 45 16.1944 45 11.5C45 6.80558 41.1944 3 36.5 3C31.8056 3 28 6.80558 28 11.5C28 16.1944 31.8056 20 36.5 20ZM36.5 7C38.9853 7 41 9.01472 41 11.5C41 13.9853 38.9853 16 36.5 16C34.0147 16 32 13.9853 32 11.5C32 9.01472 34.0147 7 36.5 7Z" fill-rule="evenodd"  fill="#4187FF" >
</path>
<path d="M35 38.5C35 40.9853 32.9853 43 30.5 43C28.0147 43 26 40.9853 26 38.5C26 36.0147 28.0147 34 30.5 34C32.9853 34 35 36.0147 35 38.5Z"   fill="#BEDCFF" >
</path>
<path d="M30.5 45C34.0899 45 37 42.0899 37 38.5C37 34.9101 34.0899 32 30.5 32C26.9102 32 24 34.9101 24 38.5C24 42.0899 26.9102 45 30.5 45ZM30.5 36C31.8807 36 33 37.1193 33 38.5C33 39.8807 31.8807 41 30.5 41C29.1193 41 28 39.8807 28 38.5C28 37.1193 29.1193 36 30.5 36Z" fill-rule="evenodd"  fill="#4187FF" >
</path>
<path d="M20 23C20 27.4183 16.4183 31 12 31C7.58172 31 4 27.4183 4 23C4 18.5817 7.58172 15 12 15C16.4183 15 20 18.5817 20 23Z"   fill="#BEDCFF" >
</path>
<path d="M12 33C17.5228 33 22 28.5228 22 23C22 17.4771 17.5228 13 12 13C6.47715 13 2 17.4771 2 23C2 28.5228 6.47715 33 12 33ZM12 17C15.3137 17 18 19.6863 18 23C18 26.3137 15.3137 29 12 29C8.68629 29 6 26.3137 6 23C6 19.6863 8.68629 17 12 17Z" fill-rule="evenodd"  fill="#1764FF" >
</path>
</svg>
