<svg xmlns="http://www.w3.org/2000/svg" xmlns:xlink="http://www.w3.org/1999/xlink" width="48" height="48" viewBox="0 0 48 48" fill="none">
<path d="M5 11L5 37C5 40.3137 7.68629 43 11 43L18 43C19.1046 43 20 42.1046 20 41L20 7C20 5.89543 19.1046 5 18 5L11 5C7.68629 5 5 7.68629 5 11Z"   fill="#BEDCFF" >
</path>
<path d="M18 3L11 3C6.58172 3 3 6.58172 3 11L3 37C3 41.4183 6.58172 45 11 45L18 45C20.2091 45 22 43.2091 22 41L22 7C22 4.79086 20.2091 3 18 3ZM7 11C7 8.79086 8.79086 7 11 7L18 7L18 41L11 41C8.79086 41 7 39.2091 7 37L7 11Z" fill-rule="evenodd"  fill="#4187FF" >
</path>
<path d="M28 7L28 19C28 20.1046 28.8954 21 30 21L41 21C42.1046 21 43 20.1046 43 19L43 11C43 7.68629 40.3137 5 37 5L30 5C28.8954 5 28 5.89543 28 7Z"   fill="#BEDCFF" >
</path>
<path d="M37 3L30 3C27.7909 3 26 4.79086 26 7L26 19C26 21.2091 27.7909 23 30 23L41 23C43.2091 23 45 21.2091 45 19L45 11C45 6.58172 41.4183 3 37 3ZM30 19L30 7L37 7C39.2091 7 41 8.79086 41 11L41 19L30 19Z" fill-rule="evenodd"  fill="#6BA6FF" >
</path>
<path d="M28 34L28 41C28 42.1046 28.8954 43 30 43L41 43C42.1046 43 43 42.1046 43 41L43 34C43 30.6863 40.3137 28 37 28L34 28C30.6863 28 28 30.6863 28 34Z"   fill="#BEDCFF" >
</path>
<path d="M37 26L34 26C29.5817 26 26 29.5817 26 34L26 41C26 43.2091 27.7909 45 30 45L41 45C43.2091 45 45 43.2091 45 41L45 34C45 29.5817 41.4183 26 37 26ZM30 34C30 31.7909 31.7909 30 34 30L37 30C39.2091 30 41 31.7909 41 34L41 41L30 41L30 34Z" fill-rule="evenodd"  fill="#6BA6FF" >
</path>
</svg>
