<svg xmlns="http://www.w3.org/2000/svg" xmlns:xlink="http://www.w3.org/1999/xlink" width="48" height="48" viewBox="0 0 48 48" fill="none">
<path d="M10 2L23 2C27.4183 2 31 5.58172 31 10L31 17L38 17C42.4183 17 46 20.5817 46 25L46 38C46 42.4183 42.4183 46 38 46L25 46C20.5817 46 17 42.4183 17 38L17 31L10 31C5.58172 31 2 27.4183 2 23L2 10C2 5.58172 5.58172 2 10 2ZM27 10L27 17L25 17C23.5165 17 22.1273 17.4038 20.9364 18.1075L19.3291 16.5002L23.4141 12.4151C24.1951 11.6341 24.1951 10.3678 23.4141 9.58671C22.6331 8.80567 21.3667 8.80571 20.5857 9.58671L16.5007 13.6718L12.4149 9.58596C11.6338 8.8049 10.3675 8.80492 9.58646 9.58596C8.80542 10.367 8.8054 11.6333 9.58646 12.4144L13.6723 16.5002L9.5864 20.586C8.80536 21.367 8.80536 22.6334 9.5864 23.4144C10.3674 24.1954 11.6338 24.1954 12.4148 23.4144L16.5007 19.3286L18.1078 20.9357C17.4039 22.1268 17 23.5162 17 25L17 27L10 27C7.79086 27 6 25.2091 6 23L6 10C6 7.79086 7.79086 6 10 6L23 6C25.2091 6 27 7.79086 27 10ZM21 25C21 22.7909 22.7909 21 25 21L38 21C40.2091 21 42 22.7909 42 25L42 38C42 40.2091 40.2091 42 38 42L25 42C22.7909 42 21 40.2091 21 38L21 25ZM31.8552 36.3537L39.4458 28.3819L39.4484 28.3792C39.7902 28.0203 40 27.5347 40 27C40 25.8954 39.1046 25 38 25C37.4301 25 36.9159 25.2384 36.5516 25.6208L36.5486 25.624L29.4164 33.1144L26.4368 30.0452L26.435 30.0433C26.0715 29.669 25.5629 29.4365 25 29.4365C23.8954 29.4365 23 30.3319 23 31.4365C23 31.9781 23.2153 32.4695 23.565 32.8296L23.5666 32.8312L27.0091 36.3772C28.3383 37.7463 30.5394 37.7357 31.8552 36.3537Z" fill-rule="evenodd"  fill="#000000" >
</path>
</svg>
