<svg xmlns="http://www.w3.org/2000/svg" xmlns:xlink="http://www.w3.org/1999/xlink" width="48" height="48" viewBox="0 0 48 48" fill="none">
<path d="M43.0259 41.7847C40.4614 42.2852 37.8494 42.3517 35.1899 41.9842C32.7817 41.6515 30.4263 40.9776 28.1236 39.9627C26.0031 39.028 24.052 37.8621 22.2702 36.4647C20.8909 35.3831 19.7067 34.238 18.7176 33.0294C18.5586 33.2074 18.4008 33.4139 18.2442 33.6487C18.0198 33.9853 17.8157 34.3534 17.6321 34.753C17.4595 35.1282 17.3218 35.4938 17.2187 35.8498C17.0956 36.2752 16.8938 36.6669 16.6133 37.0249C16.3354 37.3796 16.0079 37.6662 15.6308 37.8846C15.1593 38.1577 14.6651 38.2942 14.1481 38.2941C13.5002 38.2939 12.9232 38.0872 12.417 37.6739C11.3141 36.7733 10.5178 35.528 10.028 33.9379C9.64476 32.6936 9.46005 31.2683 9.47387 29.6621C9.48526 28.3369 9.62804 26.9649 9.9022 25.5459C10.0955 24.5455 10.3305 23.6314 10.6073 22.8035C9.27554 21.8088 8.30944 20.9574 7.709 20.2492C7.31233 19.7814 7.00578 19.3082 6.78935 18.8297C6.63414 18.4865 6.51773 18.1231 6.44011 17.7394C6.30917 17.4696 6.14416 17.1257 5.9451 16.7079C5.42229 15.6104 5.02838 14.8223 4.76338 14.3434C4.35999 13.6146 3.96178 13.0199 3.56873 12.5594C3.33783 12.2888 3.15745 11.9885 3.02759 11.6583C2.89301 11.3162 2.82154 10.9648 2.8132 10.6042C2.80377 10.1963 2.8753 9.80749 3.02778 9.43776C3.1976 9.02602 3.45204 8.67419 3.79109 8.38227C4.55816 7.72183 5.42969 7.23196 6.40569 6.91266C7.26191 6.63254 8.15636 6.49682 9.08904 6.50549C9.93242 6.51333 10.7454 6.63725 11.5281 6.87727C11.9878 7.01824 12.4092 7.19057 12.7925 7.39425C13.7314 7.2535 14.5125 7.16684 15.136 7.13427C16.3149 7.07267 17.4632 7.13821 18.5807 7.33089C21.5629 7.8451 24.4597 9.27694 27.2709 11.6264C29.2065 13.2441 30.6499 15.2331 31.6013 17.5934C31.9502 18.459 32.2422 19.4002 32.4772 20.417C32.6096 20.9895 32.7562 21.7593 32.9171 22.7265C32.9878 23.152 33.0479 23.4875 33.0973 23.733C33.2509 23.7334 33.4386 23.7317 33.6604 23.7279C34.3353 23.7162 34.8759 23.7189 35.2824 23.7361C36.0075 23.7668 36.6969 23.844 37.3505 23.9678C39.1021 24.2996 40.7484 24.9914 42.2894 26.0432C42.8285 26.4112 43.2001 26.9016 43.4041 27.5143C43.5786 28.0382 43.6033 28.5791 43.4782 29.1368C43.3675 29.6306 43.1519 30.0775 42.8313 30.4773C42.4913 30.9014 42.0752 31.2201 41.5831 31.4335C40.8227 31.763 40.115 32.2113 39.4598 32.7784C39.3942 32.8351 39.3313 32.8914 39.2709 32.9471C39.6128 33.2075 40.083 33.5491 40.6815 33.9719C41.4546 34.5179 42.0479 34.9456 42.4614 35.2551C43.1814 35.7939 43.8168 36.3055 44.3676 36.7901C44.792 37.1636 45.0836 37.6166 45.2422 38.1491C45.3951 38.6623 45.4037 39.1779 45.268 39.6959C45.1311 40.2184 44.8678 40.6657 44.4783 41.0379C44.0719 41.426 43.5878 41.6749 43.0259 41.7847ZM38.3737 37.2392C38.9051 37.6146 39.3448 37.9293 39.6928 38.1833C38.3908 38.26 37.0723 38.2062 35.7374 38.0217C33.6987 37.74 31.6986 37.1668 29.737 36.3022C27.9229 35.5027 26.2568 34.5076 24.7386 33.317C23.3181 32.2031 22.162 31.0274 21.2704 29.79C20.9304 29.3183 20.5008 28.9739 19.9816 28.7569C19.6669 28.6254 19.343 28.5544 19.0097 28.5436C18.6255 28.5313 18.2563 28.5994 17.902 28.7479C16.7935 29.2126 15.7981 30.1065 14.9159 31.4297C14.575 31.9411 14.2689 32.4919 13.9975 33.0822C13.9906 33.0972 13.9837 33.1122 13.9769 33.1272C13.9322 33.0101 13.8902 32.8879 13.851 32.7604C13.5893 31.9109 13.4637 30.8896 13.4739 29.6965C13.4832 28.615 13.6018 27.4844 13.8298 26.3048C14.0286 25.2757 14.2741 24.377 14.5662 23.6087C14.8078 22.9731 14.8429 22.3283 14.6713 21.674C14.5841 21.3411 14.4461 21.0327 14.2574 20.7489C14.0554 20.4451 13.807 20.1867 13.512 19.9737C12.1496 18.9897 11.2323 18.2192 10.7601 17.6623C10.6051 17.4795 10.4965 17.3192 10.4341 17.1812C10.3919 17.088 10.3618 16.976 10.3438 16.8453L10.2998 16.5256L10.1575 16.2359C10.02 15.9561 9.81961 15.5399 9.55644 14.9875C8.99869 13.8167 8.56764 12.9563 8.2633 12.4064C7.94699 11.8349 7.6247 11.3159 7.29643 10.8495C7.41058 10.7992 7.52827 10.7542 7.6495 10.7145C8.08956 10.5706 8.55702 10.5009 9.05186 10.5055C9.50821 10.5097 9.94268 10.5751 10.3553 10.7017C10.6951 10.8059 10.9587 10.9294 11.1462 11.0722L11.8076 11.5761L12.6312 11.4627C12.76 11.445 12.961 11.4152 13.2344 11.3732C14.115 11.2379 14.8185 11.1565 15.3448 11.129C16.2256 11.083 17.0776 11.1309 17.901 11.2729C20.1765 11.6652 22.4447 12.8062 24.7057 14.6958C26.128 15.8845 27.1898 17.3489 27.8912 19.0888C28.1622 19.7611 28.3917 20.5042 28.5798 21.318C28.6935 21.8094 28.8239 22.4977 28.9711 23.3829C29.1121 24.2301 29.2308 24.8273 29.3274 25.1744C29.4273 25.533 29.5474 25.8444 29.6877 26.1085C29.9227 26.5507 30.2291 26.899 30.6068 27.1534C31.0688 27.4646 31.6497 27.6494 32.3495 27.7078C32.6374 27.7318 33.0974 27.7384 33.7297 27.7275C34.3251 27.7172 34.7864 27.7189 35.1135 27.7327C35.6451 27.7552 36.1427 27.8103 36.606 27.8981C37.2718 28.0242 37.9187 28.2282 38.5468 28.51C37.9516 28.8707 37.3833 29.2852 36.8419 29.7537C35.9056 30.5641 35.2754 31.3331 34.9512 32.0608C34.4369 33.2153 34.8086 34.3596 36.0662 35.4934C36.3396 35.74 36.6982 36.0276 37.142 36.3562C37.3937 36.5426 37.8042 36.837 38.3737 37.2392ZM16 13C17.1046 13 18 13.8954 18 15L18 16C18 17.1046 17.1046 18 16 18C14.8955 18 14 17.1046 14 16L14 15C14 13.8954 14.8955 13 16 13Z" fill-rule="evenodd"  fill="#000000" >
</path>
</svg>
