<svg xmlns="http://www.w3.org/2000/svg" xmlns:xlink="http://www.w3.org/1999/xlink" width="48" height="48" viewBox="0 0 48 48" fill="none">
<path d="M8.79801 41L9 41C10.1046 41 11 41.8954 11 43C11 44.1046 10.1046 45 9 45L8.9921 45L3.0079 45L3 45C1.89543 45 1 44.1046 1 43C1 41.8954 1.89543 41 3 41L4.57041 41L9 28.052L9 28L9.01778 28L17.1077 4.35263C17.8199 2.27087 20.8816 2.69772 20.9972 4.89489L22.8975 41L23 41C24.1046 41 25 41.8954 25 43C25 44.1046 24.1046 45 23 45L22.9921 45L18 45C16.8954 45 16 44.1046 16 43C16 41.8954 16.8954 41 18 41L18.892 41L18.4183 32L11.8769 32L8.79801 41ZM13.2454 28L18.2078 28L17.5461 15.4286L13.2454 28ZM33.1056 19.2111C32.1177 19.7051 31.7172 20.9064 32.2112 21.8943L32.7641 23L26.5 23C25.3954 23 24.5 23.8954 24.5 25C24.5 26.1046 25.3954 27 26.5 27L35.9763 27C35.9931 27.0002 36.0099 27.0002 36.0267 27L39.9189 27C39.8046 28.3682 39.5695 29.6508 39.2137 30.8478C38.6982 32.5822 37.9345 34.1163 36.9224 35.4501C36.6025 35.8716 36.2589 36.2723 35.8916 36.652C35.3684 36.1673 34.8719 35.6657 34.4022 35.1472C33.5094 34.1617 32.8265 33.218 32.3534 32.3161C32.1746 31.9752 32.0121 31.6143 31.8657 31.2335C31.7745 30.996 31.6537 30.6478 31.5032 30.1887C31.4655 30.0737 31.4353 29.9818 31.4125 29.913C31.1617 29.0949 30.4003 28.5 29.5 28.5C28.3954 28.5 27.5 29.3954 27.5 30.5C27.5 30.7369 27.5412 30.9641 27.6168 31.175C27.6378 31.2385 27.6663 31.325 27.7021 31.4344C27.8734 31.957 28.0166 32.3682 28.1318 32.668C28.3338 33.1938 28.5602 33.6958 28.8111 34.1741C29.4417 35.3763 30.3173 36.5959 31.4378 37.8328C31.8351 38.2714 32.2484 38.6992 32.6776 39.1162C31.1992 39.9515 29.5015 40.5939 27.5846 41.0432C26.6794 41.2344 26 42.0379 26 43C26 44.1046 26.8954 45 28 45C28.1718 45 28.3386 44.9783 28.4977 44.9376C31.0076 44.3492 33.2356 43.4633 35.1817 42.2799C35.4283 42.13 35.6699 41.9755 35.9065 41.8166C36.2154 42.0357 36.5255 42.2448 36.8369 42.4438C39.5028 44.148 42.0572 45 44.5 45C45.6046 45 46.5 44.1046 46.5 43C46.5 41.8954 45.6046 41 44.5 41C42.8564 41 41.0439 40.373 39.0626 39.119C39.4306 38.7193 39.7794 38.3023 40.1089 37.868C41.4144 36.1475 42.3941 34.1873 43.048 31.9874C43.5114 30.4282 43.8056 28.7658 43.9307 27L45 27C46.1046 27 47 26.1046 47 25C47 23.8954 46.1046 23 45 23L37.2361 23L35.7888 20.1055C35.2948 19.1176 34.0935 18.7171 33.1056 19.2111Z" fill-rule="evenodd"  fill="#000000" >
</path>
</svg>
