<svg xmlns="http://www.w3.org/2000/svg" xmlns:xlink="http://www.w3.org/1999/xlink" width="48" height="48" viewBox="0 0 48 48" fill="none">
<path d="M45 24C45 35.598 35.598 45 24 45C12.402 45 3 35.598 3 24C3 12.402 12.402 3 24 3C35.598 3 45 12.402 45 24ZM41 24C41 14.6112 33.3888 7 24 7C14.6112 7 7 14.6112 7 24C7 33.3888 14.6112 41 24 41C33.3888 41 41 33.3888 41 24ZM16.4109 19.5825L23.8235 26.9951C23.921 27.0926 24.079 27.0926 24.1765 26.9951L31.5891 19.5825C32.3702 18.8014 33.6365 18.8015 34.4175 19.5825C35.1985 20.3635 35.1986 21.6298 34.4175 22.4109L27.0049 29.8235C25.3453 31.4831 22.6547 31.4831 20.9951 29.8235L13.5825 22.4109C12.8014 21.6298 12.8015 20.3635 13.5825 19.5825C14.3635 18.8015 15.6298 18.8014 16.4109 19.5825Z" fill-rule="evenodd"  fill="#000000" >
</path>
</svg>
