<svg xmlns="http://www.w3.org/2000/svg" xmlns:xlink="http://www.w3.org/1999/xlink" width="48" height="48" viewBox="0 0 48 48" fill="none">
<path d="M18 3L11 3C6.58172 3 3 6.58172 3 11L3 37C3 41.4183 6.58172 45 11 45L18 45C20.2091 45 22 43.2091 22 41L22 7C22 4.79086 20.2091 3 18 3ZM37 3L30 3C27.7909 3 26 4.79086 26 7L26 19C26 21.2091 27.7909 23 30 23L41 23C43.2091 23 45 21.2091 45 19L45 11C45 6.58172 41.4183 3 37 3ZM7 11C7 8.79086 8.79086 7 11 7L18 7L18 41L11 41C8.79086 41 7 39.2091 7 37L7 11ZM30 19L30 7L37 7C39.2091 7 41 8.79086 41 11L41 19L30 19ZM34 26L37 26C41.4183 26 45 29.5817 45 34L45 41C45 43.2091 43.2091 45 41 45L30 45C27.7909 45 26 43.2091 26 41L26 34C26 29.5817 29.5817 26 34 26ZM34 30C31.7909 30 30 31.7909 30 34L30 41L41 41L41 34C41 31.7909 39.2091 30 37 30L34 30Z" fill-rule="evenodd"  fill="#000000" >
</path>
</svg>
