<svg xmlns="http://www.w3.org/2000/svg" xmlns:xlink="http://www.w3.org/1999/xlink" width="48" height="48" viewBox="0 0 48 48" fill="none">
<path d="M8.79801 41L9 41L9 45L3 45L3 41L4.57041 41L17.1077 4.35261C17.8151 2.28472 20.8522 2.68785 20.9957 4.86869L23.3727 41L24.5 41L24.5 45L18 45L18 41L19.3641 41L17.6599 15.096L8.79801 41Z" fill-rule="evenodd"  fill="#FA9E14" >
</path>
<path d="M5 43C5 44.1046 4.10457 45 3 45C1.89543 45 1 44.1046 1 43C1 41.8954 1.89543 41 3 41C4.10457 41 5 41.8954 5 43Z"   fill="#FA9E14" >
</path>
<path d="M25 41C23.8954 41 23 41.8954 23 43C23 44.1046 23.8954 45 25 45C26.1046 45 27 44.1046 27 43C27 41.8954 26.1046 41 25 41Z"   fill="#FA9E14" >
</path>
<path d="M20 43C20 44.1046 19.1046 45 18 45C16.8954 45 16 44.1046 16 43C16 41.8954 16.8954 41 18 41C19.1046 41 20 41.8954 20 43Z"   fill="#FA9E14" >
</path>
<path d="M11 43C11 44.1046 10.1046 45 9 45C7.89543 45 7 44.1046 7 43C7 41.8954 7.89543 41 9 41C10.1046 41 11 41.8954 11 43Z"   fill="#FA9E14" >
</path>
<path d="M9 28L19.5 28L19.5 32L9 32L9 28Z" fill-rule="evenodd"  fill="#FA9E14" >
</path>
<path d="M29 43C29 44.1046 29.8954 45 31 45L43 45C44.1046 45 45 44.1046 45 43C45 41.8954 44.1046 41 43 41L31 41C29.8954 41 29 41.8954 29 43Z" fill-rule="evenodd"  fill="#FCCB68" >
</path>
<path d="M26.5871 17.0845L26.5861 17.0855C26.224 17.4474 26 17.9475 26 18.5C26 19.6046 26.8954 20.5 28 20.5C28.5521 20.5 29.052 20.2763 29.4139 19.9145C29.4144 19.9141 29.4148 19.9136 29.4153 19.9132C30.0278 19.3012 30.7145 18.8473 31.4752 18.5515C32.4205 18.1838 33.5954 18 35 18C35.5568 18 36.0832 18.093 36.579 18.2789C37.1086 18.4775 37.5692 18.7726 37.9608 19.1642C38.4153 19.6187 38.7706 20.1981 39.0267 20.9022C39.3422 21.77 39.5 22.8026 39.5 24L39.5 35.5C39.5 35.9371 39.5764 36.3479 39.7292 36.7325C39.8858 37.1266 40.114 37.4737 40.4139 37.7736C40.8921 38.2517 41.4984 38.5642 42.2328 38.7111C42.7605 38.8166 43.3137 38.8281 43.8922 38.7455C44.4201 38.6701 44.903 38.5267 45.3408 38.3152C46.0253 37.9976 46.5 37.3043 46.5 36.5C46.5 35.3954 45.6046 34.5 44.5 34.5C44.1723 34.5 43.8631 34.5788 43.5901 34.7185C43.564 34.7302 43.534 34.7409 43.5 34.7505L43.5 24C43.5 22.3328 43.2619 20.8446 42.7858 19.5353C42.3276 18.2751 41.6621 17.2086 40.7892 16.3358C39.9891 15.5357 39.0539 14.935 37.9835 14.5336C37.0349 14.1779 36.0404 14 35 14C33.0952 14 31.4369 14.2745 30.0254 14.8235C28.7422 15.3225 27.5961 16.0762 26.5871 17.0845Z" fill-rule="evenodd"  fill="#FBB63E" >
</path>
<path d="M38.973 27.0031C39.191 27.1396 39.4548 27.3294 39.7644 27.5726L42.2356 24.4274C41.8141 24.0961 41.4339 23.8245 41.0952 23.6125C40.5762 23.2877 40.0309 23.0154 39.4593 22.7957C38.0794 22.2652 36.4263 22 34.5 22C33.3256 22 32.1746 22.1537 31.047 22.461C29.7954 22.8022 28.6806 23.3059 27.7027 23.9721C26.5665 24.7462 25.6828 25.6944 25.0518 26.8166C24.3506 28.0638 24 29.4582 24 31C24 32.2872 24.2456 33.4481 24.7368 34.4827C25.2323 35.5264 25.9558 36.401 26.9074 37.1066C28.6098 38.3689 30.904 39 33.79 39C35.9937 39 37.8507 38.7894 39.3608 38.3683C39.9489 38.2043 40.4932 38.0058 40.9937 37.7729C41.2816 37.639 41.6041 37.4664 41.9612 37.2551C41.9859 37.2405 42.0039 37.2298 42.0154 37.2231L39.9846 33.7769C39.9712 33.7848 39.9512 33.7966 39.9246 33.8124C39.6808 33.9566 39.4746 34.0679 39.306 34.1464C39.0037 34.2871 38.6638 34.41 38.2863 34.5153C37.1276 34.8384 35.6289 35 33.79 35C32.7578 35 31.8472 34.8967 31.0584 34.6902C30.3432 34.5029 29.7536 34.2373 29.2898 33.8934C28.8732 33.5846 28.5601 33.2092 28.3503 32.7673C28.1168 32.2754 28 31.6863 28 31C28 29.4065 28.6516 28.1657 29.9548 27.2779C30.5636 26.8631 31.2783 26.5439 32.0989 26.3202C32.8822 26.1067 33.6825 26 34.5 26C35.9314 26 37.1061 26.1764 38.0241 26.5293C38.3557 26.6568 38.672 26.8147 38.973 27.0031Z" fill-rule="evenodd"  fill="#FBB63E" >
</path>
</svg>
