<svg xmlns="http://www.w3.org/2000/svg" xmlns:xlink="http://www.w3.org/1999/xlink" width="48" height="48" viewBox="0 0 48 48" fill="none">
<path d="M9 8L32 8C35.3137 8 38 10.6863 38 14L38 28C38 31.3137 35.3137 34 32 34L9 34C5.68629 34 3 31.3137 3 28L3 14C3 10.6863 5.68629 8 9 8Z"   fill="#FEEDBD" >
</path>
<path d="M32 6L9 6C4.58172 6 1 9.58172 1 14L1 28C1 32.4183 4.58172 36 9 36L32 36C36.4183 36 40 32.4183 40 28L40 14C40 9.58172 36.4183 6 32 6ZM5 14C5 11.7909 6.79086 10 9 10L32 10C34.2091 10 36 11.7909 36 14L36 28C36 30.2091 34.2091 32 32 32L9 32C6.79086 32 5 30.2091 5 28L5 14Z" fill-rule="evenodd"  fill="#FBB63E" >
</path>
<path d="M8.17895 14.1719C8.49382 13.4806 9.19078 13 10 13C11.1046 13 12 13.8954 12 15C12 15.3162 11.9266 15.6152 11.796 15.881C11.7953 15.8825 11.7946 15.8842 11.7939 15.886C11.7727 15.9351 11.7492 15.9952 11.7233 16.0663C11.6252 16.3362 11.533 16.6543 11.4468 17.0206C11.1489 18.2866 11 19.7797 11 21.5C11 23.2203 11.1489 24.7134 11.4468 25.9794C11.533 26.3457 11.6252 26.6638 11.7233 26.9337C11.7492 27.0048 11.7727 27.0649 11.7939 27.114C11.7946 27.1158 11.7953 27.1175 11.796 27.119C11.9266 27.3848 12 27.6838 12 28C12 29.1046 11.1046 30 10 30C9.19079 30 8.49383 29.5194 8.17895 28.8281C8.11208 28.6864 8.04048 28.5106 7.96416 28.3007C7.81232 27.8831 7.67532 27.4147 7.55317 26.8956C7.18439 25.3283 7 23.5298 7 21.5C7 19.4702 7.18439 17.6717 7.55317 16.1044C7.67532 15.5853 7.81232 15.1169 7.96416 14.6993C8.04047 14.4895 8.11207 14.3137 8.17895 14.1719Z" fill-rule="evenodd"  fill="#FCCB68" >
</path>
<path d="M16 23.0034L45 23.0034L45 42.0034L16 42.0034L16 23.0034Z"   fill="#FEEDBD" >
</path>
<path d="M32.8211 14.1719C32.5062 13.4806 31.8092 13 31 13C29.8954 13 29 13.8954 29 15C29 15.3162 29.0734 15.6152 29.204 15.881C29.2047 15.8825 29.2054 15.8842 29.2061 15.886C29.2273 15.9351 29.2508 15.9952 29.2767 16.0663C29.3748 16.3362 29.467 16.6543 29.5532 17.0206C29.8511 18.2866 30 19.7797 30 21.5C30 23.2203 29.8511 24.7134 29.5532 25.9794C29.467 26.3457 29.3748 26.6638 29.2767 26.9337C29.2508 27.0048 29.2273 27.0649 29.2061 27.114C29.2054 27.1158 29.2047 27.1175 29.204 27.119C29.0734 27.3848 29 27.6838 29 28C29 29.1046 29.8954 30 31 30C31.8092 30 32.5062 29.5194 32.821 28.8281C32.8879 28.6864 32.9595 28.5106 33.0358 28.3007C33.1877 27.8831 33.3247 27.4147 33.4468 26.8956C33.8156 25.3283 34 23.5298 34 21.5C34 19.4702 33.8156 17.6717 33.4468 16.1044C33.3247 15.5853 33.1877 15.1169 33.0358 14.6993C32.9595 14.4895 32.8879 14.3137 32.8211 14.1719Z" fill-rule="evenodd"  fill="#FCCB68" >
</path>
<path d="M30 17C21.72 17 15 19.46 15 22.5C15 25.54 21.72 28 30 28C38.28 28 45 25.54 45 22.5C45 19.46 38.28 17 30 17Z"   fill="#FEEDBD" >
</path>
<path d="M46.4417 24.5831C46.8139 23.9162 47 23.2218 47 22.5C47 21.7782 46.8139 21.0838 46.4417 20.4169C46.1296 19.8577 45.6928 19.3347 45.1313 18.8479C44.1875 18.0298 42.9088 17.3248 41.2951 16.7332C39.787 16.1802 38.0703 15.7544 36.1452 15.4558C34.1857 15.1519 32.1373 15 30 15C27.8627 15 25.8143 15.1519 23.8548 15.4558C21.9296 15.7544 20.213 16.1802 18.7049 16.7332C17.0913 17.3248 15.8125 18.0298 14.8687 18.8479C14.3072 19.3347 13.8704 19.8577 13.5583 20.4169C13.1861 21.0838 13 21.7782 13 22.5C13 23.2218 13.1861 23.9162 13.5583 24.5831C13.8704 25.1423 14.3072 25.6653 14.8687 26.1521C15.8125 26.9702 17.0913 27.6751 18.7049 28.2668C20.213 28.8198 21.9296 29.2456 23.8548 29.5442C25.8143 29.8481 27.8627 30 30 30C32.1373 30 34.1857 29.8481 36.1452 29.5442C38.0703 29.2456 39.787 28.8198 41.2951 28.2668C42.9088 27.6751 44.1875 26.9702 45.1313 26.1521C45.6928 25.6653 46.1296 25.1423 46.4417 24.5831ZM42.9488 22.3662C42.9829 22.4274 43 22.472 43 22.5C43 22.528 42.9829 22.5726 42.9488 22.6338C42.8649 22.7842 42.719 22.9495 42.5112 23.1296C41.9369 23.6275 41.0726 24.088 39.9181 24.5113C38.6581 24.9733 37.1961 25.3334 35.5322 25.5914C33.7758 25.8638 31.9317 26 30 26C28.0683 26 26.2242 25.8638 24.4678 25.5914C22.8038 25.3333 21.3419 24.9733 20.0819 24.5113C18.9275 24.088 18.0631 23.6275 17.4888 23.1296C17.281 22.9495 17.1351 22.7842 17.0512 22.6338C17.0171 22.5726 17 22.528 17 22.5C17 22.472 17.0171 22.4274 17.0512 22.3662C17.1351 22.2158 17.281 22.0505 17.4888 21.8704C18.0631 21.3725 18.9275 20.912 20.0819 20.4887C21.3419 20.0267 22.8039 19.6666 24.4678 19.4086C26.2242 19.1362 28.0683 19 30 19C31.9317 19 33.7758 19.1362 35.5322 19.4086C37.1961 19.6666 38.6581 20.0267 39.9181 20.4887C41.0726 20.912 41.9369 21.3725 42.5112 21.8704C42.719 22.0505 42.8649 22.2158 42.9488 22.3662Z" fill-rule="evenodd"  fill="#FA9E14" >
</path>
<path d="M17 23C17 21.8954 16.1046 21 15 21C13.8954 21 13 21.8954 13 23L13 30.8C13 31.5186 13.1941 32.2068 13.5824 32.8646C13.9006 33.4037 14.3434 33.9058 14.911 34.3709C15.8539 35.1437 17.1297 35.8089 18.7383 36.3666C20.2412 36.8876 21.9521 37.2888 23.8712 37.5702C25.8253 37.8567 27.8683 38 30 38C32.1317 38 34.1747 37.8567 36.1288 37.5702C38.0479 37.2888 39.7588 36.8876 41.2617 36.3666C42.8704 35.8089 44.1461 35.1437 45.089 34.3709C45.6565 33.9058 46.0994 33.4037 46.4176 32.8646C46.8059 32.2068 47 31.5186 47 30.8L47 23C47 21.8954 46.1046 21 45 21C43.8954 21 43 21.8954 43 23L43 30.7787C42.9948 30.792 42.9858 30.8096 42.9729 30.8313C42.8951 30.9632 42.7553 31.1118 42.5534 31.2772C41.9783 31.7487 41.111 32.1853 39.9515 32.5873C38.6863 33.0259 37.2186 33.3676 35.5485 33.6125C33.7868 33.8708 31.9373 34 30 34C28.0627 34 26.2132 33.8708 24.4515 33.6125C22.7814 33.3676 21.3137 33.0259 20.0485 32.5873C18.8891 32.1853 18.0217 31.7487 17.4466 31.2772C17.2447 31.1118 17.1049 30.9632 17.0271 30.8313C17.0142 30.8096 17.0052 30.792 17 30.7787L17 23Z" fill-rule="evenodd"  fill="#FA9E14" >
</path>
<path d="M17 31C17 29.8954 16.1046 29 15 29C13.8954 29 13 29.8954 13 31L13 38.8C13 39.5186 13.1941 40.2068 13.5824 40.8646C13.9006 41.4037 14.3434 41.9058 14.911 42.3709C15.8539 43.1437 17.1297 43.8089 18.7383 44.3666C20.2412 44.8876 21.9521 45.2888 23.8712 45.5702C25.8253 45.8567 27.8683 46 30 46C32.1317 46 34.1747 45.8567 36.1288 45.5702C38.0479 45.2888 39.7588 44.8876 41.2617 44.3666C42.8704 43.8089 44.1461 43.1437 45.089 42.3709C45.6565 41.9058 46.0994 41.4037 46.4176 40.8646C46.8059 40.2068 47 39.5186 47 38.8L47 31C47 29.8954 46.1046 29 45 29C43.8954 29 43 29.8954 43 31L43 38.7787C42.9948 38.792 42.9858 38.8096 42.9729 38.8313C42.8951 38.9632 42.7553 39.1118 42.5534 39.2772C41.9783 39.7487 41.111 40.1853 39.9515 40.5873C38.6863 41.0259 37.2186 41.3676 35.5485 41.6125C33.7868 41.8708 31.9373 42 30 42C28.0627 42 26.2132 41.8708 24.4515 41.6125C22.7814 41.3676 21.3137 41.0259 20.0485 40.5873C18.8891 40.1853 18.0217 39.7487 17.4466 39.2772C17.2447 39.1118 17.1049 38.9632 17.0271 38.8313C17.0142 38.8096 17.0052 38.792 17 38.7787L17 31Z" fill-rule="evenodd"  fill="#FA9E14" >
</path>
</svg>
