<svg xmlns="http://www.w3.org/2000/svg" xmlns:xlink="http://www.w3.org/1999/xlink" width="48" height="48" viewBox="0 0 48 48" fill="none">
<path d="M44 25C44 23.8954 43.1046 23 42 23C40.8954 23 40 23.8954 40 25C40 27.1349 39.7379 29.0842 39.2137 30.8478C38.6982 32.5822 37.9345 34.1163 36.9224 35.4501C34.8277 38.2106 31.7151 40.075 27.5846 41.0432C26.6794 41.2344 26 42.0379 26 43C26 44.1046 26.8954 45 28 45C28.1718 45 28.3386 44.9783 28.4977 44.9376C31.0076 44.3492 33.2356 43.4633 35.1817 42.2799C37.1368 41.091 38.7792 39.6204 40.1089 37.868C41.4144 36.1475 42.3941 34.1873 43.048 31.9874C43.6827 29.852 44 27.5228 44 25Z" fill-rule="evenodd"  fill="#6BA6FF" >
</path>
<path d="M25 25C25 26.1046 25.8954 27 27 27L45.5 27C46.6046 27 47.5 26.1046 47.5 25C47.5 23.8954 46.6046 23 45.5 23L27 23C25.8954 23 25 23.8954 25 25Z" fill-rule="evenodd"  fill="#4187FF" >
</path>
<path d="M28.1168 31.675C28.0412 31.4641 28 31.2369 28 31C28 29.8954 28.8954 29 30 29C30.9003 29 31.6617 29.5949 31.9125 30.413C31.9353 30.4818 31.9655 30.5736 32.0032 30.6887C32.1537 31.1478 32.2745 31.496 32.3657 31.7335C32.5121 32.1143 32.6746 32.4752 32.8534 32.8161C33.3265 33.718 34.0094 34.6617 34.9022 35.6472C35.532 36.3424 36.2099 37.0072 36.9358 37.6417C37.7831 38.3822 38.6349 39.0262 39.4913 39.5736C41.5004 40.8579 43.3367 41.5 45 41.5C46.1046 41.5 47 42.3954 47 43.5C47 44.6046 46.1046 45.5 45 45.5C42.5572 45.5 40.0028 44.6479 37.3369 42.9438C36.3123 42.2889 35.3012 41.5254 34.3035 40.6535C33.4605 39.9167 32.6719 39.1431 31.9378 38.3328C30.8173 37.0959 29.9417 35.8763 29.3111 34.674C29.0602 34.1958 28.8338 33.6938 28.6318 33.168C28.5166 32.8682 28.3734 32.457 28.2021 31.9344C28.1663 31.825 28.1378 31.7385 28.1168 31.675Z" fill-rule="evenodd"  fill="#4187FF" >
</path>
<path d="M33.1056 19.1712C32.1176 19.6651 31.7172 20.8665 32.2111 21.8544L34.2111 25.8544C34.7051 26.8424 35.9065 27.2429 36.8944 26.7489C37.8824 26.2549 38.2828 25.0535 37.7889 24.0656L35.7889 20.0656C35.2949 19.0776 34.0935 18.6772 33.1056 19.1712Z" fill-rule="evenodd"  fill="#4187FF" >
</path>
<path d="M8.79801 41L9 41L9 45L3 45L3 41L4.57041 41L17.1077 4.35263C17.8199 2.27087 20.8816 2.69772 20.9972 4.89489L22.8975 41L23 41L23 45L18 45L18 41L18.892 41L17.5461 15.4286L8.79801 41Z" fill-rule="evenodd"  fill="#1764FF" >
</path>
<path d="M5 43C5 44.1046 4.10457 45 3 45C1.89543 45 1 44.1046 1 43C1 41.8954 1.89543 41 3 41C4.10457 41 5 41.8954 5 43Z"   fill="#1764FF" >
</path>
<path d="M25 43C25 44.1046 24.1046 45 23 45C21.8954 45 21 44.1046 21 43C21 41.8954 21.8954 41 23 41C24.1046 41 25 41.8954 25 43Z"   fill="#1764FF" >
</path>
<path d="M20 43C20 44.1046 19.1046 45 18 45C16.8954 45 16 44.1046 16 43C16 41.8954 16.8954 41 18 41C19.1046 41 20 41.8954 20 43Z"   fill="#1764FF" >
</path>
<path d="M11 43C11 44.1046 10.1046 45 9 45C7.89543 45 7 44.1046 7 43C7 41.8954 7.89543 41 9 41C10.1046 41 11 41.8954 11 43Z"   fill="#1764FF" >
</path>
<path d="M9 28L19.5 28L19.5 32L9 32L9 28Z" fill-rule="evenodd"  fill="#1764FF" >
</path>
</svg>
