<svg xmlns="http://www.w3.org/2000/svg" xmlns:xlink="http://www.w3.org/1999/xlink" width="48" height="48" viewBox="0 0 48 48" fill="none">
<path d="M32 6L9 6C4.58172 6 1 9.58172 1 14L1 28C1 32.4183 4.58172 36 9 36L13 36L13 38.8C13 39.5186 13.1941 40.2068 13.5824 40.8646C13.9006 41.4037 14.3434 41.9058 14.911 42.3709C15.8539 43.1437 17.1296 43.8089 18.7383 44.3666C20.2412 44.8876 21.9521 45.2888 23.8712 45.5702C25.8253 45.8567 27.8683 46 30 46C32.1317 46 34.1747 45.8567 36.1288 45.5702C38.0479 45.2888 39.7588 44.8876 41.2617 44.3666C42.8704 43.8089 44.1461 43.1437 45.089 42.3709C45.6565 41.9058 46.0994 41.4037 46.4176 40.8646C46.8059 40.2068 47 39.5186 47 38.8L47 31C47 30.972 46.9994 30.9442 46.9983 30.9165C46.9994 30.8778 47 30.8389 47 30.8L47 23C47 22.9306 46.9965 22.862 46.9896 22.7945C46.9965 22.6968 47 22.5987 47 22.5C47 21.7782 46.8139 21.0838 46.4417 20.4169C46.1296 19.8577 45.6928 19.3347 45.1313 18.8479C44.1875 18.0298 42.9088 17.3248 41.2951 16.7332C40.8792 16.5807 40.4476 16.4379 40 16.3047L40 14C40 9.58172 36.4183 6 32 6ZM33.3268 15.1283C33.2368 14.7949 33.1398 14.4852 33.0358 14.1993C32.9595 13.9895 32.8879 13.8137 32.8211 13.6719C32.5062 12.9806 31.8092 12.5 31 12.5C29.8954 12.5 29 13.3954 29 14.5C29 14.6762 29.0228 14.847 29.0656 15.0098C27.2639 15.0478 25.527 15.1965 23.8548 15.4558C21.9296 15.7544 20.213 16.1802 18.7049 16.7332C17.0912 17.3249 15.8125 18.0298 14.8687 18.8479C14.3072 19.3347 13.8704 19.8577 13.5583 20.4169C13.1861 21.0838 13 21.7782 13 22.5C13 22.5987 13.0035 22.6968 13.0104 22.7945C13.0035 22.862 13 22.9306 13 23L13 30.8C13 30.8389 13.0006 30.8778 13.0017 30.9165C13.0006 30.9442 13 30.972 13 31L13 32L9 32C6.79086 32 5 30.2091 5 28L5 14C5 11.7909 6.79086 10 9 10L32 10C34.2091 10 36 11.7909 36 14L36 15.4336C35.1265 15.3018 34.2355 15.2 33.3268 15.1283ZM10 12.5C9.19078 12.5 8.49382 12.9806 8.17895 13.6719C8.11207 13.8137 8.04047 13.9895 7.96416 14.1993C7.81232 14.6169 7.67532 15.0853 7.55317 15.6044C7.18439 17.1717 7 18.9703 7 21C7 23.0297 7.18439 24.8283 7.55317 26.3956C7.67532 26.9147 7.81232 27.3831 7.96416 27.8007C8.04048 28.0106 8.11208 28.1864 8.17895 28.3281C8.49383 29.0194 9.19079 29.5 10 29.5C11.1046 29.5 12 28.6046 12 27.5C12 27.1838 11.9266 26.8848 11.796 26.619C11.7953 26.6175 11.7946 26.6158 11.7939 26.614C11.7727 26.5649 11.7492 26.5048 11.7233 26.4337C11.6252 26.1638 11.533 25.8457 11.4468 25.4794C11.1489 24.2134 11 22.7203 11 21C11 19.2797 11.1489 17.7866 11.4468 16.5206C11.533 16.1543 11.6252 15.8362 11.7233 15.5663C11.7492 15.4952 11.7727 15.4351 11.7939 15.386C11.7946 15.3842 11.7953 15.3825 11.796 15.381C11.9266 15.1152 12 14.8162 12 14.5C12 13.3954 11.1046 12.5 10 12.5ZM43 27.538C42.4807 27.7975 41.9124 28.0405 41.2951 28.2668C39.787 28.8198 38.0703 29.2456 36.1452 29.5442C34.1857 29.8481 32.1373 30 30 30C27.8627 30 25.8143 29.8481 23.8548 29.5442C21.9296 29.2456 20.213 28.8198 18.7049 28.2668C18.0876 28.0405 17.5193 27.7975 17 27.538L17 30.7787C17.0052 30.792 17.0142 30.8096 17.0271 30.8313C17.1049 30.9632 17.2447 31.1118 17.4466 31.2772C18.0217 31.7487 18.889 32.1854 20.0485 32.5873C21.3137 33.0259 22.7814 33.3676 24.4515 33.6125C26.2132 33.8708 28.0627 34 30 34C31.9373 34 33.7868 33.8708 35.5485 33.6125C37.2186 33.3676 38.6863 33.0259 39.9515 32.5873C41.111 32.1853 41.9783 31.7487 42.5534 31.2772C42.7553 31.1118 42.8951 30.9632 42.9729 30.8313C42.9858 30.8096 42.9948 30.792 43 30.7787L43 27.538Z" fill-rule="evenodd"  fill="#000000" >
</path>
</svg>
