<svg xmlns="http://www.w3.org/2000/svg" xmlns:xlink="http://www.w3.org/1999/xlink" width="48" height="48" viewBox="0 0 48 48" fill="none">
<path d="M31.6406 26.283C31.6406 26.283 37.5844 29.5603 40.1406 27.283C44.6341 23.28 52.1383 -1.71672 30.6406 3.78308C21.9128 6.01594 31.6406 26.283 31.6406 26.283Z"   fill="#6BA6FF" >
</path>
<path d="M43.001 2.95317C40.015 0.785947 35.7296 0.416713 30.1449 1.84547L30.1449 1.84546C28.6407 2.23028 27.4494 3.01506 26.5711 4.19981C25.8276 5.2026 25.3489 6.45554 25.1348 7.95864C24.8176 10.1855 25.0819 12.985 25.9277 16.357C26.5085 18.6722 27.3328 21.1617 28.4006 23.8256C28.7332 24.6553 29.0706 25.4541 29.4129 26.222C29.5865 26.6116 29.728 26.9205 29.8375 27.1485L30.1144 27.7255L30.6749 28.0345L30.6753 28.0347C30.9693 28.1967 31.3387 28.3788 31.7835 28.5811C32.6644 28.9817 33.5254 29.3065 34.3667 29.5555C35.6141 29.9247 36.7465 30.1019 37.764 30.0873C39.2788 30.0655 40.5144 29.6285 41.471 28.7764C42.203 28.1243 42.9287 27.1582 43.6479 25.8781C44.3215 24.6792 44.9256 23.3255 45.4602 21.817C46.0262 20.2195 46.4549 18.6113 46.7462 16.9923C47.0714 15.184 47.2012 13.4823 47.1356 11.8873C47.0596 10.0399 46.722 8.40173 46.1229 6.97289C45.4182 5.29223 44.3776 3.95232 43.001 2.95317ZM29.7843 6.58205C30.0988 6.15792 30.5494 5.87079 31.1363 5.72066C33.4995 5.11608 35.5297 4.88974 37.227 5.04164C38.6274 5.16696 39.7689 5.54988 40.6514 6.19039C41.4238 6.75101 42.0181 7.52739 42.4341 8.51955C42.8477 9.50611 43.0826 10.6835 43.139 12.0517C43.1926 13.3537 43.0827 14.7645 42.8093 16.2841C42.5565 17.6893 42.1834 19.0882 41.6899 20.4809C41.2318 21.7736 40.722 22.9195 40.1606 23.9187C39.6596 24.8103 39.2095 25.434 38.8102 25.7897C38.5956 25.9809 38.2277 26.0802 37.7065 26.0877C37.0949 26.0965 36.36 25.9739 35.5018 25.7199C34.8387 25.5236 34.1512 25.2637 33.4394 24.94C33.3421 24.8958 33.2505 24.8533 33.1645 24.8127C33.1333 24.7435 33.1006 24.6704 33.0664 24.5936C32.7448 23.8721 32.4271 23.12 32.1134 22.3373C31.1129 19.8414 30.3443 17.5236 29.8075 15.3838C29.0889 12.5189 28.8513 10.2319 29.0948 8.5227C29.2136 7.68875 29.4434 7.04187 29.7843 6.58205Z" fill-rule="evenodd"  fill="#6BA6FF" >
</path>
<path d="M19.8947 35.0514C19.4794 35.4626 19.9136 36.2098 20.4175 35.9137C23.2608 34.243 26.0044 32 26.0044 32L24.5044 30C24.5044 30 22.1699 32.7989 19.8947 35.0514Z"   fill="#FFFFFF" >
</path>
<path d="M24.5877 26.7777L22.9685 28.719C22.5919 29.1706 22.1206 29.7163 21.5548 30.3559C20.4267 31.6313 19.4043 32.7226 18.4877 33.6301C18.0371 34.0761 17.7868 34.6135 17.7367 35.2423C17.6931 35.7887 17.8117 36.2978 18.0923 36.7699C18.2352 37.0101 18.4115 37.22 18.6213 37.3994C18.8641 37.6071 19.1355 37.7607 19.4354 37.8601C19.7726 37.9719 20.1179 38.0067 20.4712 37.9644C20.8097 37.9238 21.1296 37.8151 21.4307 37.6381C22.676 36.9064 24.021 36.0066 25.4659 34.9388C26.1863 34.4063 26.7878 33.9429 27.2703 33.5484L28.7552 32.3344L26.1044 28.8L24.5877 26.7777Z" fill-rule="evenodd"  fill="#4187FF" >
</path>
<path d="M42.1095 31.8602C42.4916 32.1923 42.2266 32.8402 41.7291 32.7466C37.9097 32.0278 36 30.5 36 30.5L38 28C38 28 40.201 30.201 42.1095 31.8602Z"   fill="#FFFFFF" >
</path>
<path d="M37.8342 25.0057L39.4142 26.5858C39.7716 26.9431 40.2083 27.3697 40.7245 27.8655C41.7524 28.8528 42.6514 29.6812 43.4217 30.3508C43.8571 30.7294 44.1308 31.1995 44.2427 31.7613C44.3437 32.2683 44.2937 32.7607 44.0926 33.2386C43.8796 33.7451 43.5398 34.1368 43.0735 34.4138C42.5443 34.7282 41.9729 34.8276 41.3592 34.7121C39.5885 34.3788 37.9848 33.8573 36.5479 33.1476C36.0809 32.9169 35.6559 32.6777 35.2728 32.4299C35.0572 32.2904 34.8833 32.1678 34.751 32.062L34.7506 32.0618L33.1889 30.8124L36.4383 26.7506L37.8342 25.0057Z" fill-rule="evenodd"  fill="#4187FF" >
</path>
<path d="M11.7286 34.5901C16.7499 35.1059 17.7263 27.5901 22.2286 27.5901C27.2263 18.0901 28.8284 6.65014 19.7286 4.09012C-6.77009 -3.91009 7.22757 34.5901 11.7286 34.5901Z"   fill="#6BA6FF" >
</path>
<path d="M11.8577 5.08602C13.8205 4.82324 16.2515 5.12948 19.1506 6.00474L19.1688 6.01022L19.1871 6.01536C20.8935 6.49544 22.1631 7.3615 22.9957 8.61356C23.7932 9.81275 24.2166 11.3712 24.2659 13.289C24.3149 15.197 23.9948 17.3383 23.3054 19.7128C22.7296 21.6961 21.938 23.7037 20.9305 25.7356C19.9812 25.9532 19.0812 26.4152 18.2305 27.1215C17.8029 27.4764 17.3587 27.9186 16.8977 28.448C16.6419 28.7418 16.2769 29.1896 15.8028 29.7916C15.327 30.3957 14.9707 30.8311 14.734 31.0979C14.3804 31.4962 14.0553 31.809 13.7587 32.0363C13.4634 32.2626 13.1754 32.421 12.895 32.5115C12.6338 32.5957 12.3522 32.6286 12.0501 32.6102L12.0498 32.6099C11.8405 32.4391 11.5922 32.1583 11.3052 31.7675C10.6099 30.8209 9.90296 29.53 9.1844 27.8948C8.41301 26.1394 7.75991 24.2766 7.22511 22.3064C6.64138 20.1558 6.2651 18.1093 6.09625 16.1669C5.9131 14.0598 5.98847 12.2171 6.32238 10.6387C6.66393 9.02417 7.26358 7.7623 8.12134 6.85308C9.03329 5.88642 10.2787 5.2974 11.8577 5.08602ZM20.2894 2.17022C16.8451 1.1322 13.8576 0.782591 11.3269 1.1214C8.81089 1.45823 6.77252 2.45383 5.21179 4.10819C3.83987 5.56239 2.9056 7.46328 2.40898 9.81084C1.99303 11.7771 1.89379 14.0112 2.11127 16.5132C2.30076 18.6932 2.71861 20.9736 3.3648 23.3542C3.95173 25.5165 4.67093 27.5665 5.52239 29.5041C7.55551 34.1306 9.58173 36.4916 11.6011 36.5871C13.2654 36.7397 14.7956 36.281 16.1918 35.2112C16.6911 34.8286 17.2023 34.3425 17.7255 33.7531C18.0143 33.4277 18.4208 32.9322 18.9451 32.2666C19.3785 31.7162 19.7016 31.3189 19.9144 31.0747C20.2336 30.7081 20.5239 30.4162 20.7854 30.1992C21.0443 29.9842 21.2911 29.8279 21.5257 29.7302C21.7498 29.6368 21.9841 29.5901 22.2287 29.5901L23.4364 29.5901L23.9987 28.5213C25.3593 25.9348 26.4087 23.3704 27.1468 20.828C27.9516 18.0556 28.3242 15.5084 28.2646 13.1863C28.1956 10.5002 27.5495 8.23764 26.3265 6.39853C25.6497 5.38087 24.8096 4.51828 23.8064 3.81076C22.7871 3.092 21.6148 2.54515 20.2894 2.17022Z" fill-rule="evenodd"  fill="#6BA6FF" >
</path>
<path d="M24.9714 31.0552C25.9735 38.137 22.7584 44.3201 29.2314 45.0552C36.5383 45.885 36.5213 36.4128 37.0114 29.0752C37.1964 26.3064 38.0008 23.0474 38.4614 20.0552C39.4621 13.554 37.5367 2.9339 26.0114 4.07521C19.0111 4.76842 15.9589 9.54499 16.5114 19.0452C16.6275 21.1856 15.3064 23.2524 16.5114 25.0752C20.4645 31.0552 24.4762 27.5558 24.9714 31.0552Z"   fill="#BEDCFF" >
</path>
<path d="M22.4596 7.12336C23.4752 6.565 24.7249 6.21237 26.2085 6.06546C30.4851 5.64196 33.4736 7.00351 35.1742 10.1501C35.8942 11.4826 36.3603 13.0612 36.5724 14.886C36.762 16.5177 36.7327 18.1393 36.4847 19.7509C36.3783 20.4421 36.188 21.5128 35.914 22.9629C35.6609 24.3019 35.4811 25.3021 35.3747 25.9636C35.1923 27.097 35.0727 28.0898 35.0158 28.9419C34.9913 29.3088 34.9564 29.867 34.9112 30.6164C34.8404 31.7879 34.7831 32.6657 34.7391 33.25C34.6665 34.2143 34.5853 35.0654 34.4954 35.8033C34.2772 37.5935 33.9683 39.0366 33.5686 40.1327C33.1551 41.2662 32.639 42.0664 32.0203 42.5335C31.3865 43.0119 30.5321 43.1901 29.4571 43.068C28.7192 42.9842 28.1743 42.8194 27.8224 42.5736C27.591 42.412 27.4168 42.1717 27.2999 41.8526C27.1504 41.4447 27.063 40.8638 27.0378 40.11C27.0196 39.5709 27.0401 38.6517 27.0991 37.3525C27.1595 36.0217 27.1882 34.9931 27.1852 34.2668C27.18 33.0031 27.1022 31.8391 26.9517 30.775C26.7658 29.4615 26.1909 28.4988 25.2268 27.8868C24.8673 27.6587 24.4413 27.4781 23.9487 27.3451C23.7135 27.2816 23.3595 27.2067 22.8868 27.1202C22.3833 27.0281 22.0049 26.9465 21.7516 26.8756C21.3612 26.7663 21.0039 26.6247 20.6798 26.4506C19.7891 25.9723 18.9558 25.1462 18.1798 23.9723C18.0613 23.793 18.0016 23.5614 18.0007 23.2774C18.0002 23.1026 18.0186 22.8887 18.056 22.6356C18.0828 22.4548 18.1354 22.1641 18.2141 21.7636C18.3223 21.212 18.3964 20.786 18.4362 20.4856C18.5102 19.9284 18.5341 19.4096 18.508 18.9291C18.257 14.6123 18.7933 11.4128 20.117 9.33047C20.7158 8.38839 21.4967 7.65269 22.4596 7.12336ZM33.8888 3.40524C31.6225 2.21639 28.931 1.77628 25.8143 2.08492C21.6656 2.49575 18.6412 4.19566 16.7413 7.18465C15.8168 8.63899 15.1727 10.3931 14.8089 12.4469C14.4653 14.387 14.3673 16.6251 14.5148 19.1613C14.5268 19.3829 14.5122 19.649 14.471 19.9595C14.442 20.1781 14.3813 20.5227 14.2889 20.9932C14.1982 21.4553 14.1349 21.8078 14.099 22.0507C14.0324 22.5018 13.9996 22.9148 14.0008 23.2897C14.0041 24.371 14.2848 25.3338 14.843 26.1781C15.9897 27.9128 17.3044 29.1783 18.7873 29.9746C19.3707 30.2879 19.9993 30.5388 20.6731 30.7275C21.0448 30.8316 21.5427 30.9407 22.1671 31.0549C22.5605 31.1268 22.8288 31.183 22.9719 31.2234C22.9789 31.2567 22.9853 31.2941 22.9911 31.3354C23.1162 32.2191 23.1809 33.2016 23.1853 34.283C23.1879 34.9435 23.1606 35.9062 23.1032 37.1712C23.0394 38.5755 23.0184 39.5998 23.04 40.2441C23.0796 41.425 23.2477 42.4199 23.5442 43.2289C24.3582 45.4502 26.1787 46.7213 29.0057 47.0424C31.1386 47.2847 32.9468 46.8459 34.4303 45.726C35.6777 44.7843 36.6431 43.3767 37.3264 41.5032C37.831 40.1197 38.2108 38.381 38.466 36.2871C38.5633 35.4882 38.6506 34.5759 38.7278 33.5503C38.7733 32.9464 38.832 32.0488 38.9039 30.8574C38.9486 30.1165 38.983 29.5668 39.007 29.2085C39.0556 28.4799 39.1613 27.61 39.3239 26.5989C39.4245 25.9734 39.598 25.0091 39.8444 23.7058C40.1269 22.211 40.3248 21.0956 40.4381 20.3595C40.7409 18.392 40.7768 16.4136 40.5456 14.4243C40.2744 12.0904 39.6569 10.0317 38.6931 8.24835C37.5251 6.08711 35.9237 4.47274 33.8888 3.40524Z" fill-rule="evenodd"  fill="#6BA6FF" >
</path>
<path d="M28 18.5C28 19.8807 26.8807 21 25.5 21C24.1193 21 23 19.8807 23 18.5C23 17.1193 24.1193 16 25.5 16C26.8807 16 28 17.1193 28 18.5Z"   fill="#1764FF" >
</path>
<path d="M36 17.5C36 18.8807 34.8807 20 33.5 20C32.1193 20 31 18.8807 31 17.5C31 16.1193 32.1193 15 33.5 15C34.8807 15 36 16.1193 36 17.5Z"   fill="#1764FF" >
</path>
</svg>
