<svg xmlns="http://www.w3.org/2000/svg" xmlns:xlink="http://www.w3.org/1999/xlink" width="48" height="48" viewBox="0 0 48 48" fill="none">
<path d="M18.4458 14.3819L10.8552 22.3537C9.53935 23.7357 7.33833 23.7463 6.00914 22.3772L2.56659 18.8312L2.56501 18.8296C2.21531 18.4695 2 17.9781 2 17.4365C2 16.3319 2.89543 15.4365 4 15.4365C4.56293 15.4365 5.07154 15.669 5.43499 16.0433L5.43683 16.0452L8.41642 19.1144L15.5486 11.624L15.5516 11.6208C15.9159 11.2384 16.4301 11 17 11C18.1046 11 19 11.8954 19 13C19 13.5347 18.7902 14.0203 18.4484 14.3792L18.4458 14.3819ZM23.5 17C23.5 18.1046 24.3954 19 25.5 19L43 19C44.1046 19 45 18.1046 45 17C45 15.8954 44.1046 15 43 15L25.5 15C24.3954 15 23.5 15.8954 23.5 17ZM18.4458 30.3819L10.8552 38.3537C9.53935 39.7357 7.33833 39.7463 6.00914 38.3772L2.56659 34.8312L2.56501 34.8296C2.21531 34.4695 2 33.9781 2 33.4365C2 32.3319 2.89543 31.4365 4 31.4365C4.56293 31.4365 5.07154 31.669 5.43499 32.0433L5.43683 32.0452L8.41642 35.1144L15.5486 27.624L15.5516 27.6208C15.9159 27.2384 16.4301 27 17 27C18.1046 27 19 27.8954 19 29C19 29.5347 18.7902 30.0203 18.4484 30.3792L18.4458 30.3819ZM23.5 33C23.5 34.1046 24.3954 35 25.5 35L43 35C44.1046 35 45 34.1046 45 33C45 31.8954 44.1046 31 43 31L25.5 31C24.3954 31 23.5 31.8954 23.5 33Z" fill-rule="evenodd"  fill="#000000" >
</path>
</svg>
