<svg xmlns="http://www.w3.org/2000/svg" xmlns:xlink="http://www.w3.org/1999/xlink" width="48" height="48" viewBox="0 0 48 48" fill="none">
<path d="M36.3076 3L11.6926 3C10.6473 3 9.64317 3.19582 8.68024 3.58746C7.7491 3.96617 6.91783 4.50248 6.18644 5.19639C5.45505 5.8903 4.87579 6.69224 4.44865 7.60219C4.00695 8.5432 3.75862 9.53565 3.70368 10.5795L2.33526 36.5795C2.09436 41.1567 5.74074 45 10.3242 45L16.0001 45C17.6347 45 18.579 43.1456 17.6176 41.8237C16.2888 39.9965 15.2425 37.7731 14.4787 35.1534C13.8131 32.8706 13.3717 30.3221 13.1543 27.5079C12.977 25.2134 12.9521 22.7964 13.0797 20.2568C13.1651 18.5549 13.3141 16.8721 13.5266 15.2085C15.018 16.203 16.3602 17.3079 17.5534 18.5234C19.3318 20.3351 20.6378 22.262 21.4716 24.3043C21.6832 24.8224 22.0205 25.2356 22.4837 25.5437C22.9409 25.8479 23.4463 26 24.0001 26C24.5739 26 25.0981 25.8314 25.5727 25.4943C26.0126 25.1819 26.3348 24.7766 26.5392 24.2783C27.3757 22.2402 28.6828 20.3172 30.4605 18.5094C31.6505 17.2992 32.9882 16.1989 34.4736 15.2085C34.6873 16.8809 34.8367 18.5721 34.9218 20.282C35.0482 22.8199 35.0224 25.2351 34.8444 27.5275C34.6262 30.3378 34.1843 32.8829 33.5188 35.1628C32.7552 37.7784 31.7098 39.9987 30.3826 41.8237C29.9019 42.4846 29.8976 43.2787 30.0157 43.5105C30.0356 43.5496 30.059 43.5727 30.0842 43.5765C30.3254 44.3667 31.0449 45 32.0001 45L37.676 45C42.2595 45 45.9059 41.1567 45.6649 36.5795L44.2965 10.5795C44.2416 9.53564 43.9933 8.5432 43.5516 7.60219C43.1244 6.69224 42.5452 5.8903 41.8138 5.19639C41.0824 4.50248 40.2512 3.96617 39.32 3.58746C38.3571 3.19582 37.353 3 36.3076 3ZM22 32.5C22 33.8807 20.8807 35 19.5 35C18.1193 35 17 33.8807 17 32.5C17 31.1193 18.1193 30 19.5 30C20.8807 30 22 31.1193 22 32.5ZM31 32.5C31 33.8807 29.8807 35 28.5 35C27.1193 35 26 33.8807 26 32.5C26 31.1193 27.1193 30 28.5 30C29.8807 30 31 31.1193 31 32.5Z" fill-rule="evenodd"  fill="#000000" >
</path>
</svg>
