<svg xmlns="http://www.w3.org/2000/svg" xmlns:xlink="http://www.w3.org/1999/xlink" width="48" height="48" viewBox="0 0 48 48" fill="none">
<path d="M41.3485 31.5184C40.7467 30.4545 40.2268 29.4847 39.7889 28.6089L36.2111 30.3978C36.6795 31.3346 37.2315 32.3647 37.867 33.488C38.3644 34.3672 38.8338 35.1545 39.2753 35.8499C38.8253 35.6162 38.3614 35.2719 37.8835 34.8168C37.3375 34.297 36.8162 33.6745 36.3196 32.9493C36.0734 32.5899 35.8884 32.2942 35.7647 32.0622L32.2352 33.9445C32.4284 34.3067 32.6898 34.7284 33.0194 35.2097C33.6744 36.1659 34.3763 37.0006 35.1251 37.7136C36.2547 38.7892 37.4264 39.519 38.6402 39.9032C39.4256 40.1517 40.2127 40.2501 41.0018 40.1985C41.8643 40.142 42.7053 39.9079 43.5249 39.496C43.8802 39.3175 44.1696 39.0646 44.3932 38.7372C44.5979 38.4374 44.7251 38.1067 44.7747 37.7451C44.8207 37.4094 44.795 37.0787 44.6978 36.7529C44.5986 36.4206 44.434 36.1244 44.2042 35.8643C43.469 35.0326 42.5171 33.5839 41.3485 31.5184Z" fill-rule="evenodd"  fill="#B579F4" >
</path>
<path d="M26.66 34.6708C43.2443 37.7592 35.6759 19.6227 44.4469 10.9332C44.8816 10.5025 44.7975 9.74216 44.2163 9.55066C27.8991 4.17445 25.9126 17.1262 22.5 22.0008C21.0366 24.0911 18.187 22.2494 14.5 24.5008C9.3361 27.6541 10.5248 30.881 4.28505 32.6302C3.55741 32.8342 3.22516 34.1104 3.74223 34.6614C4.08478 35.0265 4.35599 35.3412 4.45716 35.4601C4.4856 35.4936 4.50811 35.5316 4.51881 35.5742C4.55321 35.711 4.60949 36.0597 4.45611 36.5254C4.26349 37.1104 4.46236 37.8744 5.07388 37.9473C11.97 38.7688 8.27044 30.232 26.66 34.6708Z"   fill="#E2C2FB" >
</path>
<path d="M6.55767 35.9537C6.78354 35.9158 6.98874 35.8551 7.1733 35.7718C7.37747 35.6797 7.59999 35.544 7.84085 35.3649C8.01805 35.2332 8.29916 35.0011 8.68419 34.6687C9.08592 34.322 9.40348 34.0573 9.63688 33.8746C10.0527 33.5492 10.4643 33.2648 10.8717 33.0215C11.9215 32.3945 13.0963 31.9503 14.396 31.6888C15.8866 31.389 17.6199 31.3109 19.5961 31.4544C21.7408 31.6103 24.2343 32.0301 27.0766 32.7139C29.1754 33.1001 30.8796 33.122 32.1891 32.7796C32.7319 32.6376 33.212 32.4305 33.6294 32.1582C34.0156 31.9063 34.3639 31.5879 34.6742 31.203C35.2746 30.4583 35.786 29.3824 36.2085 27.9753C36.3947 27.3551 36.5809 26.6155 36.767 25.7564C36.8824 25.2233 37.0485 24.392 37.2651 23.2624C37.5577 21.7365 37.7938 20.5836 37.9733 19.8036C38.2815 18.464 38.6183 17.2726 38.9837 16.2294C39.4374 14.9336 39.9678 13.7641 40.5749 12.7208C40.9468 12.0816 41.3521 11.481 41.7908 10.919C39.665 10.3689 37.7656 10.1672 36.0924 10.3139C34.3575 10.4661 32.8362 11.0054 31.5284 11.9319C30.4291 12.7106 29.4063 13.8194 28.4601 15.2583C28.0709 15.8501 27.6679 16.5373 27.2513 17.32C26.9969 17.7978 26.6368 18.5101 26.1711 19.4568C25.7406 20.3317 25.4175 20.9716 25.2017 21.3764C24.8251 22.0827 24.4706 22.6732 24.1384 23.1478C23.5442 23.9966 22.7397 24.5715 21.7251 24.8725C21.3761 24.9761 20.9777 25.053 20.5299 25.1033C20.2947 25.1297 19.9408 25.1572 19.4682 25.1859C19.0316 25.2124 18.7029 25.237 18.4819 25.2598C18.1353 25.2956 17.8188 25.3446 17.5326 25.4069C16.8296 25.5598 16.1662 25.8267 15.5423 26.2077C14.7023 26.7206 13.9698 27.2934 13.345 27.926C13.0951 28.1789 12.8395 28.464 12.5782 28.7812C12.414 28.9804 12.1767 29.2823 11.8661 29.6869C11.4161 30.2732 11.0619 30.7132 10.8035 31.007C10.3454 31.5278 9.87053 31.9827 9.37891 32.3717C8.45489 33.1029 7.32752 33.7069 5.99681 34.1836C6.22077 34.4524 6.37463 34.7534 6.45838 35.0865C6.52613 35.3559 6.55927 35.6392 6.55779 35.9363C6.55777 35.9421 6.55773 35.9479 6.55767 35.9537ZM3.35796 39.2665C3.77912 39.6437 4.27222 39.8659 4.83724 39.9332C6.33486 40.1117 7.66208 39.9398 8.81888 39.4177C9.28588 39.2069 9.7555 38.9259 10.2278 38.5747C10.4828 38.385 10.8395 38.0924 11.2979 37.6967C11.6511 37.3918 11.9192 37.1677 12.1022 37.0245C12.3858 36.8026 12.6594 36.6129 12.9228 36.4556C13.5797 36.0633 14.3337 35.7815 15.1848 35.6103C17.6734 35.1097 21.342 35.4446 26.1907 36.615L26.242 36.6273L26.2938 36.637C29.002 37.1413 31.3044 37.1455 33.2011 36.6494C35.0767 36.1589 36.6057 35.1803 37.7882 33.7136C38.7164 32.5623 39.4669 31.0329 40.0396 29.1256C40.2558 28.4053 40.4681 27.5645 40.6763 26.6031C40.7985 26.0388 40.971 25.1764 41.1936 24.0158C41.477 22.5379 41.7029 21.4328 41.8715 20.7005C42.1465 19.505 42.4423 18.4553 42.7589 17.5514C43.1286 16.4956 43.553 15.556 44.0322 14.7325C44.5571 13.8303 45.1645 13.0375 45.8545 12.354C46.1893 12.0223 46.43 11.6326 46.5766 11.1849C46.7188 10.7506 46.7571 10.3095 46.6913 9.86161C46.619 9.36952 46.4314 8.93158 46.1286 8.5478C45.7923 8.12177 45.3635 7.82287 44.8422 7.65108C41.4544 6.53489 38.4213 6.09427 35.7428 6.32923C33.2886 6.54451 31.1131 7.32406 29.2162 8.66788C27.7066 9.73728 26.3405 11.2015 25.118 13.0604C24.661 13.7554 24.1951 14.5486 23.7205 15.4403C23.4461 15.9558 23.0665 16.706 22.5819 17.691C22.1707 18.5269 21.8674 19.128 21.672 19.4945C21.3714 20.0584 21.1012 20.5115 20.8616 20.8538C20.8252 20.9058 20.7907 20.943 20.7581 20.9653C20.7207 20.9909 20.6639 21.015 20.5875 21.0377C20.3815 21.0988 19.9276 21.1507 19.226 21.1933C18.7332 21.2232 18.3483 21.2524 18.0713 21.281C17.5769 21.332 17.1139 21.4044 16.6825 21.4983C15.5403 21.7467 14.4653 22.1786 13.4577 22.7939C12.3394 23.4768 11.3532 24.2505 10.4992 25.115C10.1649 25.4535 9.82881 25.8277 9.49101 26.2376C9.29763 26.4723 9.03163 26.8103 8.69302 27.2514C8.2973 27.767 7.99964 28.1383 7.80002 28.3652C7.50082 28.7053 7.19973 28.9953 6.89677 29.235C6.13233 29.8399 5.08179 30.3297 3.74514 30.7044C3.1562 30.8695 2.66049 31.204 2.25799 31.7077C1.95733 32.084 1.74245 32.5161 1.61334 33.0041C1.48565 33.4868 1.45749 33.9649 1.52887 34.4384C1.62311 35.0635 1.87471 35.594 2.28368 36.0299C2.34561 36.0959 2.4065 36.1616 2.46637 36.227C2.41049 36.4785 2.38349 36.7357 2.38538 36.9985C2.38822 37.3944 2.45638 37.771 2.58987 38.1283C2.75842 38.5795 3.01445 38.9589 3.35796 39.2665Z" fill-rule="evenodd"  fill="#B579F4" >
</path>
<path d="M37 15.5034C37 16.8841 35.8807 18.0034 34.5 18.0034C33.1193 18.0034 32 16.8841 32 15.5034C32 14.1226 33.1193 13.0034 34.5 13.0034C35.8807 13.0034 37 14.1226 37 15.5034Z"   fill="#8134ED" >
</path>
<path d="M22 40.0034L26.5 40.0034L28 32.0034L22 32.0034L22 40.0034Z"   fill="#E2C2FB" >
</path>
<path d="M24.5555 30.0034C24.5555 31.095 24.5283 31.9942 24.4739 32.7009C24.3975 33.6935 24.2531 34.6183 24.0406 35.4754C23.8054 36.4239 23.4719 37.3586 23.0399 38.2794C23.6291 38.0578 24.1585 37.7922 24.6283 37.4824C25.369 36.994 25.9341 36.4092 26.3234 35.728C26.7744 34.9387 27 33.9991 27 32.909C27 31.8044 27.8954 30.909 29 30.909C30.1046 30.909 31 31.8044 31 32.909L31 32.9112C30.9997 34.7086 30.5984 36.3091 29.7963 37.7127C29.0911 38.9467 28.1024 39.9831 26.8302 40.8219C25.8014 41.5002 24.62 42.0275 23.286 42.4038C22.2111 42.707 21.1049 42.896 19.9673 42.9708C19.4634 43.0039 18.9978 42.8902 18.5704 42.6297C18.1789 42.3911 17.8804 42.065 17.6751 41.6516C17.4812 41.2611 17.3988 40.8481 17.4278 40.4125C17.4584 39.953 17.6083 39.5351 17.8774 39.1588C18.4984 38.2905 18.9992 37.4583 19.3798 36.6624C19.7196 35.9516 19.9791 35.2351 20.1581 34.5129C20.3172 33.8713 20.4264 33.165 20.4857 32.394C20.5322 31.7894 20.5555 30.9925 20.5555 30.0034C20.5555 28.8988 21.4509 28.0034 22.5555 28.0034C23.6601 28.0034 24.5555 28.8988 24.5555 30.0034Z" fill-rule="evenodd"  fill="#B579F4" >
</path>
</svg>
