<svg xmlns="http://www.w3.org/2000/svg" xmlns:xlink="http://www.w3.org/1999/xlink" width="48" height="48" viewBox="0 0 48 48" fill="none">
<path d="M9 6L32 6C36.4183 6 40 9.58172 40 14L40 16.3047C40.4476 16.4379 40.8792 16.5807 41.2951 16.7332C42.9088 17.3248 44.1875 18.0298 45.1313 18.8479C45.6928 19.3347 46.1296 19.8577 46.4417 20.4169C46.8139 21.0838 47 21.7782 47 22.5C47 22.5987 46.9965 22.6968 46.9896 22.7945C46.9965 22.862 47 22.9306 47 23L47 30.8C47 30.8389 46.9994 30.8778 46.9983 30.9165C46.9994 30.9442 47 30.972 47 31L47 38.8C47 39.5186 46.8059 40.2068 46.4176 40.8646C46.0994 41.4037 45.6565 41.9058 45.089 42.3709C44.1461 43.1437 42.8704 43.8089 41.2617 44.3666C39.7588 44.8876 38.0479 45.2888 36.1288 45.5702C34.1747 45.8567 32.1317 46 30 46C27.8683 46 25.8253 45.8567 23.8712 45.5702C21.9521 45.2888 20.2412 44.8876 18.7383 44.3666C17.1296 43.8089 15.8539 43.1437 14.911 42.3709C14.3434 41.9058 13.9006 41.4037 13.5824 40.8646C13.1941 40.2068 13 39.5186 13 38.8L13 36L9 36C4.58172 36 1 32.4183 1 28L1 14C1 9.58172 4.58172 6 9 6ZM13 32L13 31C13 30.972 13.0006 30.9442 13.0017 30.9165C13.0006 30.8778 13 30.8389 13 30.8L13 23C13 22.9306 13.0035 22.862 13.0104 22.7945C13.0035 22.6968 13 22.5987 13 22.5C13 21.7782 13.1861 21.0838 13.5583 20.4169C13.8704 19.8577 14.3072 19.3347 14.8687 18.8479C15.8125 18.0298 17.0912 17.3249 18.7049 16.7332C20.213 16.1802 21.9296 15.7544 23.8548 15.4558C25.527 15.1965 27.2639 15.0478 29.0656 15.0098C29.0228 14.847 29 14.6762 29 14.5C29 13.3954 29.8954 12.5 31 12.5C31.8092 12.5 32.5062 12.9806 32.8211 13.6719C32.8879 13.8137 32.9595 13.9895 33.0358 14.1993C33.1398 14.4852 33.2368 14.7949 33.3268 15.1283C34.2355 15.2 35.1265 15.3018 36 15.4336L36 14C36 11.7909 34.2091 10 32 10L9 10C6.79086 10 5 11.7909 5 14L5 28C5 30.2091 6.79086 32 9 32L13 32ZM17 27.538L17 30.7787C17.0052 30.792 17.0142 30.8096 17.0271 30.8313C17.1049 30.9632 17.2447 31.1118 17.4466 31.2772C18.0217 31.7487 18.889 32.1854 20.0485 32.5873C21.3137 33.0259 22.7814 33.3676 24.4515 33.6125C26.2132 33.8708 28.0627 34 30 34C31.9373 34 33.7868 33.8708 35.5485 33.6125C37.2186 33.3676 38.6863 33.0259 39.9515 32.5873C41.111 32.1853 41.9783 31.7487 42.5534 31.2772C42.7553 31.1118 42.8951 30.9632 42.9729 30.8313C42.9858 30.8096 42.9948 30.792 43 30.7787L43 27.538C42.4807 27.7975 41.9124 28.0405 41.2951 28.2668C39.787 28.8198 38.0703 29.2456 36.1452 29.5442C34.1857 29.8481 32.1373 30 30 30C27.8627 30 25.8143 29.8481 23.8548 29.5442C21.9296 29.2456 20.213 28.8198 18.7049 28.2668C18.0876 28.0405 17.5193 27.7975 17 27.538ZM10 12.5C9.19078 12.5 8.49382 12.9806 8.17895 13.6719C8.11207 13.8137 8.04047 13.9895 7.96416 14.1993C7.81232 14.6169 7.67532 15.0853 7.55317 15.6044C7.18439 17.1717 7 18.9703 7 21C7 23.0297 7.18439 24.8283 7.55317 26.3956C7.67532 26.9147 7.81232 27.3831 7.96416 27.8007C8.04048 28.0106 8.11208 28.1864 8.17895 28.3281C8.49383 29.0194 9.19079 29.5 10 29.5C11.1046 29.5 12 28.6046 12 27.5C12 27.1838 11.9266 26.8848 11.796 26.619C11.7953 26.6175 11.7946 26.6158 11.7939 26.614C11.7727 26.5649 11.7492 26.5048 11.7233 26.4337C11.6252 26.1638 11.533 25.8457 11.4468 25.4794C11.1489 24.2134 11 22.7203 11 21C11 19.2797 11.1489 17.7866 11.4468 16.5206C11.533 16.1543 11.6252 15.8362 11.7233 15.5663C11.7492 15.4952 11.7727 15.4351 11.7939 15.386C11.7946 15.3842 11.7953 15.3825 11.796 15.381C11.9266 15.1152 12 14.8162 12 14.5C12 13.3954 11.1046 12.5 10 12.5ZM42.9488 22.3662C42.9829 22.4274 43 22.472 43 22.5C43 22.528 42.9829 22.5726 42.9488 22.6338C42.8649 22.7842 42.719 22.9495 42.5112 23.1296C41.9369 23.6275 41.0726 24.088 39.9181 24.5113C38.6581 24.9733 37.1961 25.3334 35.5322 25.5914C33.7758 25.8638 31.9317 26 30 26C28.0683 26 26.2242 25.8638 24.4678 25.5914C22.8038 25.3333 21.3419 24.9733 20.0819 24.5113C18.9274 24.088 18.0631 23.6275 17.4888 23.1296C17.281 22.9495 17.1351 22.7842 17.0512 22.6338C17.0171 22.5726 17 22.528 17 22.5C17 22.472 17.0171 22.4274 17.0512 22.3662C17.1351 22.2158 17.281 22.0505 17.4888 21.8704C18.0631 21.3725 18.9274 20.912 20.0819 20.4887C21.3419 20.0267 22.8039 19.6667 24.4678 19.4086C26.2242 19.1362 28.0683 19 30 19C31.9317 19 33.7758 19.1362 35.5322 19.4086C37.1961 19.6666 38.6581 20.0267 39.9181 20.4887C41.0726 20.912 41.9369 21.3725 42.5112 21.8704C42.719 22.0505 42.8649 22.2158 42.9488 22.3662ZM17 38.7787L17 35.6612C17.5283 35.9129 18.1077 36.148 18.7383 36.3666C20.2412 36.8876 21.9521 37.2888 23.8712 37.5702C25.8253 37.8567 27.8683 38 30 38C32.1317 38 34.1747 37.8567 36.1288 37.5702C38.0479 37.2888 39.7588 36.8876 41.2617 36.3666C41.8923 36.148 42.4717 35.9129 43 35.6612L43 38.7787C42.9948 38.792 42.9858 38.8096 42.9729 38.8313C42.8951 38.9632 42.7553 39.1118 42.5534 39.2772C41.9783 39.7487 41.111 40.1853 39.9515 40.5873C38.6863 41.0259 37.2186 41.3676 35.5485 41.6125C33.7868 41.8708 31.9373 42 30 42C28.0627 42 26.2132 41.8708 24.4515 41.6125C22.7814 41.3676 21.3137 41.0259 20.0485 40.5873C18.8891 40.1853 18.0217 39.7487 17.4466 39.2772C17.2447 39.1118 17.1049 38.9632 17.0271 38.8313C17.0142 38.8096 17.0052 38.792 17 38.7787Z" fill-rule="evenodd"  fill="#000000" >
</path>
</svg>
