<svg xmlns="http://www.w3.org/2000/svg" xmlns:xlink="http://www.w3.org/1999/xlink" width="48" height="48" viewBox="0 0 48 48" fill="none">
<path d="M4 36L4 12C4 7.58172 7.58172 4 12 4L36 4C40.4183 4 44 7.58172 44 12L44 21.8644C42.7978 20.9624 41.4527 20.2232 40 19.6697L40 17.9972L8 17.9528L8 36C8 38.2091 9.79086 40 12 40L18.1248 40C18.6884 41.4432 19.4494 42.7876 20.3745 44L12 44C7.58172 44 4 40.4183 4 36ZM40 13.9972L40 12C40 9.79086 38.2091 8 36 8L12 8C9.79086 8 8 9.79086 8 12L8 13.9528L40 13.9972ZM33.5 47C40.4036 47 46 41.4036 46 34.5C46 27.5964 40.4036 22 33.5 22C26.5964 22 21 27.5964 21 34.5C21 41.4036 26.5964 47 33.5 47ZM33.5 26C38.1944 26 42 29.8056 42 34.5C42 39.1944 38.1944 43 33.5 43C28.8056 43 25 39.1944 25 34.5C25 29.8056 28.8056 26 33.5 26ZM32.9178 29C31.8134 29 30.9181 29.8952 30.9178 30.9995L30.9178 31L30.9168 35.1273C30.9165 36.5296 32.0532 37.6667 33.4556 37.6667L36.4167 37.6667C37.5212 37.6667 38.4167 36.7712 38.4167 35.6667C38.4167 34.5621 37.5212 33.6667 36.4167 33.6667L34.9172 33.6667L34.9178 31.0005L34.9178 31C34.9178 29.8954 34.0224 29 32.9178 29Z" fill-rule="evenodd"  fill="#000000" >
</path>
</svg>
