<svg xmlns="http://www.w3.org/2000/svg" xmlns:xlink="http://www.w3.org/1999/xlink" width="48" height="48" viewBox="0 0 48 48" fill="none">
<path d="M9 4L18 4C19.6569 4 21 5.34315 21 7L21 16C21 17.6569 19.6569 19 18 19L9 19C7.34315 19 6 17.6569 6 16L6 7C6 5.34315 7.34315 4 9 4Z"   fill="#E2C2FB" >
</path>
<path d="M18 2L9 2C6.23858 2 4 4.23858 4 7L4 16C4 18.7614 6.23858 21 9 21L18 21C20.7614 21 23 18.7614 23 16L23 7C23 4.23858 20.7614 2 18 2ZM8 7C8 6.44772 8.44772 6 9 6L18 6C18.5523 6 19 6.44772 19 7L19 16C19 16.5523 18.5523 17 18 17L9 17C8.44772 17 8 16.5523 8 16L8 7Z" fill-rule="evenodd"  fill="#8134ED" >
</path>
<path d="M30 29L39 29C40.6569 29 42 30.3431 42 32L42 41C42 42.6569 40.6569 44 39 44L30 44C28.3431 44 27 42.6569 27 41L27 32C27 30.3431 28.3431 29 30 29Z"   fill="#E2C2FB" >
</path>
<path d="M39 27L30 27C27.2386 27 25 29.2386 25 32L25 41C25 43.7614 27.2386 46 30 46L39 46C41.7614 46 44 43.7614 44 41L44 32C44 29.2386 41.7614 27 39 27ZM29 32C29 31.4477 29.4477 31 30 31L39 31C39.5523 31 40 31.4477 40 32L40 41C40 41.5523 39.5523 42 39 42L30 42C29.4477 42 29 41.5523 29 41L29 32Z" fill-rule="evenodd"  fill="#8134ED" >
</path>
<path d="M14 30C14 28.8954 13.1046 28 12 28C10.8954 28 10 28.8954 10 30L10 38.5C10 41.8137 12.6863 44.5 16 44.5L19 44.5C20.1046 44.5 21 43.6046 21 42.5C21 41.3954 20.1046 40.5 19 40.5L16 40.5C14.8954 40.5 14 39.6046 14 38.5L14 30Z" fill-rule="evenodd"  fill="#B579F4" >
</path>
<path d="M11.77 34.01C12.985 34.01 13.97 33.025 13.97 31.81L13.97 27.6683C13.97 25.1918 10.7556 24.2226 9.38668 26.2864L6.52935 30.5939C5.55933 32.0563 6.60785 34.01 8.36268 34.01L11.77 34.01Z" fill-rule="evenodd"  fill="#B579F4" >
</path>
<path d="M34 18.5C34 19.6046 34.8954 20.5 36 20.5C37.1046 20.5 38 19.6046 38 18.5L38 10C38 6.6863 35.3137 4 32 4L29 4C27.8954 4 27 4.8954 27 6C27 7.1046 27.8954 8 29 8L32 8C33.1046 8 34 8.89543 34 10L34 18.5Z" fill-rule="evenodd"  fill="#B579F4" >
</path>
<path d="M36.23 14.01C35.015 14.01 34.03 14.995 34.03 16.21L34.03 20.3517C34.03 22.8282 37.2444 23.7974 38.6134 21.7337L41.4707 17.4261C42.4407 15.9638 41.3922 14.01 39.6374 14.01L36.23 14.01Z" fill-rule="evenodd"  fill="#B579F4" >
</path>
</svg>
