<svg xmlns="http://www.w3.org/2000/svg" xmlns:xlink="http://www.w3.org/1999/xlink" width="48" height="48" viewBox="0 0 48 48" fill="none">
<path d="M26 3L13 3C10.2386 3 8 5.23858 8 8L8 32C8 34.7614 10.2386 37 13 37L26 37C28.7614 37 31 34.7614 31 32L31 8C31 5.23858 28.7614 3 26 3ZM12 8C12 7.44772 12.4477 7 13 7L26 7C26.5523 7 27 7.44772 27 8L27 32C27 32.5523 26.5523 33 26 33L13 33C12.4477 33 12 32.5523 12 32L12 8ZM36.0201 30.2155L36.0201 28.6583C36.0201 26.1818 39.2345 25.2126 40.6034 27.2764L43.4607 31.5839C44.4308 33.0462 43.3822 35 41.6274 35L40 35L40 37C40 41.4183 36.4183 45 32 45L31 45C29.8954 45 29 44.1046 29 43C29 41.8954 29.8954 41 31 41L32 41C34.2091 41 36 39.2091 36 37L36 30.5C36 30.4034 36.0068 30.3084 36.0201 30.2155Z" fill-rule="evenodd"  fill="#000000" >
</path>
</svg>
