<svg xmlns="http://www.w3.org/2000/svg" xmlns:xlink="http://www.w3.org/1999/xlink" width="48" height="48" viewBox="0 0 48 48" fill="none">
<path d="M30.4788 7.08369C31.0056 7.1961 31.4682 7.38421 31.8665 7.648C32.1886 7.87003 32.5791 8.00003 33 8.00003C34.1046 8.00003 35 7.1046 35 6.00003C35 5.29599 34.6362 4.67691 34.0864 4.32052C33.264 3.77363 32.3397 3.39071 31.3135 3.17174C30.7852 3.05903 30.317 3.0018 29.9087 3.00003L29.9084 3.00003C28.5299 3.00002 27.3414 3.3179 26.3431 3.95369C25.5061 4.48675 24.8489 5.21014 24.3715 6.12386C24.0519 6.73555 23.8299 7.40027 23.7056 8.11801C23.6415 8.48814 23.6096 8.8164 23.61 9.1028L23.6049 14.6093L23.6018 17.9926L17.9974 18L17.9974 18C16.8986 18.0014 16 18.9009 16 20C16 21.1 16.9 22 18 22L18.0026 22L18.011 22L23.6 21.9926L23.6 32.4965C23.5999 32.5644 23.595 32.6734 23.5854 32.8234C23.5644 33.1516 23.5277 33.4937 23.4754 33.8497C23.3085 34.9854 23.0215 36.0183 22.6146 36.9483C22.0828 38.1637 21.3811 39.1043 20.5096 39.77C19.4362 40.59 18.0763 41 16.43 41C16.3735 41 16.2733 40.9928 16.1292 40.9785C15.7995 40.9457 15.4604 40.8878 15.1118 40.8046C14.057 40.5529 13.1376 40.1272 12.3534 39.5275C11.9973 39.2 11.522 39 11 39C9.89543 39 9 39.8954 9 41C9 41.629 9.2904 42.1902 9.74444 42.5569L9.7406 42.5617C11.0153 43.5815 12.4962 44.2927 14.1832 44.6954C14.7075 44.8205 15.2244 44.9084 15.7339 44.959C16.0094 44.9863 16.2414 45 16.43 45C18.9782 45 21.1475 44.3162 22.9378 42.9487C24.3572 41.8645 25.471 40.3988 26.2792 38.5517C26.8294 37.2942 27.214 35.9208 27.4329 34.4315C27.5434 33.6799 27.5991 33.0373 27.6 32.5035L27.6 21.9924L33.9776 22L33.9776 21.9999L34 22C35.1 22 36 21.1 36 20C36 18.9 35.1 18 34 18L33.9824 18.0001L33.9824 18L27.6018 17.9924L27.6049 14.6131L27.61 9.11769C27.6105 9.10475 27.6114 9.08896 27.6128 9.07033C27.6189 8.9862 27.6303 8.89634 27.6469 8.80076C27.7001 8.4935 27.79 8.21863 27.9167 7.97616C28.0641 7.69405 28.2558 7.47785 28.4918 7.32758C28.832 7.11089 29.294 7.0017 29.8778 7.00001L29.8827 7.00022C29.9144 7.00165 29.9512 7.0043 29.993 7.00817C30.1481 7.0225 30.31 7.04767 30.4788 7.08369Z" fill-rule="evenodd"  fill="#000000" >
</path>
</svg>
