<svg xmlns="http://www.w3.org/2000/svg" xmlns:xlink="http://www.w3.org/1999/xlink" width="48" height="48" viewBox="0 0 48 48" fill="none">
<path d="M37.28 19.9868C38.3147 20.1019 39.0833 20.4107 39.5858 20.9132C39.9478 21.2751 40.4477 21.4989 41 21.4989C42.1046 21.4989 43 20.6035 43 19.4989C43 18.9466 42.7761 18.4466 42.4142 18.0847C42.4135 18.084 42.4128 18.0833 42.4121 18.0826C41.7542 17.4254 40.9554 16.916 40.0156 16.5544C39.3137 16.2843 38.5492 16.1033 37.7223 16.0113C37.1512 15.9478 36.5747 15.9286 35.9926 15.9539C35.705 15.9663 35.4591 15.9863 35.2549 16.0138C34.266 16.1346 33.5 16.9773 33.5 17.9989C33.5 19.1035 34.3954 19.9989 35.5 19.9989C35.6031 19.9989 35.7044 19.9911 35.8033 19.9761C35.885 19.9657 36.0058 19.9571 36.1659 19.9501C36.5422 19.9338 36.9136 19.946 37.28 19.9868Z" fill-rule="evenodd"  fill="#4187FF" >
</path>
<path d="M37.4466 27.7038C36.6874 27.2535 35.8483 26.9977 34.9294 26.9365C34.6402 26.9172 34.3638 26.9188 34.1005 26.9414C34.0265 26.9478 33.9605 26.9552 33.9025 26.9637C33.8966 26.9646 33.8911 26.9654 33.8863 26.9661C33.7613 26.9906 33.6321 27.0034 33.5 27.0034C32.3954 27.0034 31.5 26.108 31.5 25.0034C31.5 24.0144 32.2179 23.193 33.1611 23.032C33.3281 23.0012 33.5274 22.9759 33.7589 22.956C34.2246 22.9161 34.7035 22.9125 35.1955 22.9453C36.7526 23.0492 38.1853 23.4898 39.4935 24.2672C40.0949 24.6121 40.5 25.2604 40.5 26.0034C40.5 27.108 39.6046 28.0034 38.5 28.0034C38.1134 28.0034 37.7525 27.8938 37.4466 27.7038Z" fill-rule="evenodd"  fill="#4187FF" >
</path>
<path d="M25.9759 43.0829C26.0049 43.2185 26.0202 43.3592 26.0202 43.5034C26.0202 44.608 25.1247 45.5034 24.0202 45.5034C23.0332 45.5034 22.2133 44.7886 22.0498 43.8484C21.2042 39.4754 21.1493 34.9753 21.8852 30.3483C22.5404 26.2291 23.7824 22.2175 25.6112 18.3133C26.4465 16.5302 27.3807 14.8269 28.4139 13.2032C29.4091 11.6395 30.4665 10.1957 31.5862 8.87181C32.6889 7.56795 33.8134 6.42596 34.9595 5.44585C36.1305 4.44447 37.2822 3.64815 38.4148 3.05689C39.0294 2.73602 39.6712 2.64208 40.3403 2.77507C40.6819 2.84297 40.9997 2.96898 41.2939 3.1531C41.597 3.34291 41.8559 3.58257 42.0706 3.87206C43.028 5.16322 43.7368 6.61343 44.1972 8.22268C44.6158 9.68599 44.8224 11.2596 44.8171 12.9436C44.8122 14.4703 44.6335 16.0649 44.2809 17.7275C43.9578 19.2503 43.4964 20.7968 42.8966 22.3671C42.3386 23.8277 41.6798 25.2608 40.9202 26.6665C40.1968 28.0049 39.4158 29.2569 38.5771 30.4225C37.7471 31.5759 36.9073 32.5799 36.0579 33.4347C35.932 33.5613 35.8068 33.6837 35.6824 33.802C36.66 34.4828 37.5704 35.2449 38.4134 36.0882L38.4147 36.0895C38.7765 36.4514 39.0002 36.9513 39.0002 37.5034C39.0002 38.608 38.1048 39.5034 37.0002 39.5034C36.4478 39.5034 35.9477 39.2794 35.5857 38.9173C34.8546 38.1859 34.0603 37.5307 33.2027 36.9516C32.6382 36.5704 32.0926 36.2512 31.5659 35.9941C31.136 35.7842 30.8095 35.4673 30.5864 35.0435C30.4054 34.6997 30.3201 34.332 30.3305 33.9403C30.3402 33.5767 30.4318 33.2355 30.6054 32.9168C30.8079 32.5448 31.0922 32.2543 31.4583 32.0455C31.9829 31.7461 32.5704 31.2693 33.2207 30.6151C33.9209 29.9105 34.6241 29.0676 35.3303 28.0862C36.069 27.0596 36.7593 25.9524 37.4012 24.7647C38.078 23.5124 38.6642 22.2374 39.1599 20.9398C39.6854 19.564 40.0881 18.2165 40.3679 16.8974C40.6634 15.5044 40.8131 14.1822 40.8171 12.931C40.8243 10.6617 40.3562 8.71716 39.413 7.09752C38.8126 7.47965 38.1946 7.94243 37.5592 8.48585C36.5768 9.32589 35.6039 10.3156 34.6404 11.4549C33.6373 12.6408 32.6867 13.9394 31.7885 15.3508C30.8475 16.8294 29.9959 18.3825 29.2335 20.01C27.5643 23.5735 26.4316 27.229 25.8356 30.9766C25.1738 35.1375 25.2206 39.1729 25.9759 43.0829Z" fill-rule="evenodd"  fill="#1764FF" >
</path>
<path d="M5 11.0034L5 37.0034C5 40.3171 7.68629 43.0034 11 43.0034L12.9132 43.0034C13.4982 43.0034 13.954 42.4557 13.9166 41.8719C12.7408 23.5136 20.6033 11.2024 23.9957 6.80145C24.5342 6.10276 24.0287 5.00336 23.1465 5.00336L11 5.00336C7.68629 5.00336 5 7.68965 5 11.0034Z"   fill="#6BA6FF" >
</path>
<path d="M23.1465 3.00336L11 3.00336C6.58172 3.00336 3 6.58508 3 11.0034L3 37.0034C3 41.4217 6.58172 45.0034 11 45.0034L12.9132 45.0034C13.3627 45.0034 13.7904 44.9047 14.1963 44.7075C14.5649 44.5283 14.8855 44.282 15.158 43.9684C15.4187 43.6684 15.6147 43.3304 15.746 42.9545C15.8835 42.5609 15.939 42.1574 15.9125 41.7441C15.6476 37.6072 15.8407 33.5559 16.4919 29.5902C17.044 26.228 17.9179 22.9683 19.1135 19.8109C20.0746 17.2727 21.2215 14.8558 22.554 12.5603C23.5142 10.9062 24.5228 9.39363 25.5797 8.02246C25.9548 7.53584 26.1645 6.98502 26.209 6.36998C26.2487 5.822 26.1509 5.29645 25.9156 4.79332C25.676 4.28079 25.3285 3.86533 24.8731 3.54694C24.3548 3.18455 23.7792 3.00336 23.1465 3.00336ZM7 11.0034C7 8.79422 8.79086 7.00336 11 7.00336L21.3628 7.00336C20.5788 8.1149 19.8227 9.29782 19.0946 10.5521C17.6521 13.0371 16.4114 15.6512 15.3727 18.3944C14.0827 21.801 13.1401 25.3169 12.5448 28.942C11.8968 32.8878 11.6703 36.9082 11.8651 41.0034L11 41.0034C8.79086 41.0034 7 39.2125 7 37.0034L7 11.0034Z" fill-rule="evenodd"  fill="#6BA6FF" >
</path>
</svg>
