<svg xmlns="http://www.w3.org/2000/svg" xmlns:xlink="http://www.w3.org/1999/xlink" width="48" height="48" viewBox="0 0 48 48" fill="none">
<path d="M33 1L15 1C13.5089 1 12.0815 1.28842 10.7177 1.86526C9.40143 2.42199 8.23614 3.20751 7.22183 4.22183C6.20751 5.23614 5.42199 6.40143 4.86526 7.71769C4.28842 9.08148 4 10.5089 4 12C4 18.0751 8.92487 23 15 23L33 23C39.0751 23 44 18.0751 44 12C44 5.92487 39.0751 1 33 1ZM38 12C38 9.23858 35.7614 7 33 7C32.3227 7 31.6738 7.13125 31.0532 7.39375C30.4547 7.64686 29.9252 8.00377 29.4645 8.46447C29.0038 8.92516 28.6468 9.45473 28.3937 10.0532C28.1312 10.6738 28 11.3227 28 12C28 14.7614 30.2386 17 33 17C35.7614 17 38 14.7614 38 12ZM33 25L15 25C13.5089 25 12.0815 25.2884 10.7177 25.8653C9.40143 26.422 8.23614 27.2075 7.22183 28.2218C6.20751 29.2361 5.42199 30.4014 4.86526 31.7177C4.28842 33.0815 4 34.5089 4 36C4 42.0751 8.92487 47 15 47L33 47C39.0751 47 44 42.0751 44 36C44 29.9249 39.0751 25 33 25ZM20 36C20 33.2386 17.7614 31 15 31C14.3227 31 13.6738 31.1312 13.0532 31.3937C12.4547 31.6468 11.9252 32.0038 11.4645 32.4645C11.0038 32.9252 10.6469 33.4547 10.3938 34.0532C10.1313 34.6738 10 35.3227 10 36C10 38.7614 12.2386 41 15 41C17.7614 41 20 38.7614 20 36Z" fill-rule="evenodd"  fill="#000000" >
</path>
</svg>
