<svg xmlns="http://www.w3.org/2000/svg" xmlns:xlink="http://www.w3.org/1999/xlink" width="48" height="48" viewBox="0 0 48 48" fill="none">
<path d="M10 31C10 29.8954 9.10457 29 8 29C6.89543 29 6 29.8954 6 31L6 35.5C6 41.0228 10.4771 45.5 16 45.5L19 45.5C20.1046 45.5 21 44.6046 21 43.5C21 42.3954 20.1046 41.5 19 41.5L16 41.5C12.6863 41.5 10 38.8137 10 35.5L10 31Z" fill-rule="evenodd"  fill="#FBB63E" >
</path>
<path d="M7.76995 35.01C8.98498 35.01 9.96995 34.025 9.96995 32.81L9.96995 28.6683C9.96995 26.1918 6.75558 25.2226 5.38662 27.2864L2.52929 31.5939C1.55927 33.0563 2.60779 35.01 4.36262 35.01L7.76995 35.01Z" fill-rule="evenodd"  fill="#FBB63E" >
</path>
<path d="M38 17.5C38 18.6046 38.8954 19.5 40 19.5C41.1046 19.5 42 18.6046 42 17.5L42 13C42 7.4772 37.5229 3 32 3L29 3C27.8954 3 27 3.8954 27 5C27 6.1046 27.8954 7 29 7L32 7C35.3137 7 38 9.68629 38 13L38 17.5Z" fill-rule="evenodd"  fill="#FBB63E" >
</path>
<path d="M40.23 13.01C39.015 13.01 38.03 13.995 38.03 15.21L38.03 19.3517C38.03 21.8282 41.2444 22.7974 42.6134 20.7337L45.4707 16.4261C46.4407 14.9638 45.3922 13.01 43.6374 13.01L40.23 13.01Z" fill-rule="evenodd"  fill="#FBB63E" >
</path>
<path d="M16.2367 19.918C15.3464 20.4017 15.2811 21.6554 16.1165 22.2289L22.1462 26.3684C22.46 26.5838 22.5352 27.0153 22.3127 27.3242L17.5445 33.9453C16.7137 35.0989 17.9912 36.5914 19.2593 35.9483L32.9315 29.0146C33.8524 28.5477 33.935 27.2641 33.0816 26.683L26.7417 22.3654C26.4263 22.1506 26.35 21.718 26.5731 21.4082L31.5064 14.558C32.3494 13.3874 31.0252 11.8841 29.7576 12.5728L16.2367 19.918Z"   fill="#FA9E14" >
</path>
<path d="M28.2376 15.6746L18.114 21.1743L23.2782 24.7196C24.5172 25.5702 24.8139 27.2734 23.9357 28.493L20.7122 32.969L31.0561 27.7233L25.6161 24.0186C24.3706 23.1704 24.0696 21.4622 24.9502 20.2395L28.2376 15.6746ZM33.1293 15.7268C35.215 12.8307 31.9389 9.1117 28.8029 10.8154L15.2821 18.1606C13.0791 19.3574 12.9178 22.4589 14.9846 23.8778L19.8999 27.2522L15.9216 32.7765C13.8661 35.6308 17.0269 39.323 20.1639 37.7321L33.8362 30.7984C36.1144 29.643 36.3188 26.4677 34.2074 25.0299L28.9889 21.4761L33.1293 15.7268Z" fill-rule="evenodd"  fill="#FA9E14" >
</path>
</svg>
