<svg xmlns="http://www.w3.org/2000/svg" xmlns:xlink="http://www.w3.org/1999/xlink" width="48" height="48" viewBox="0 0 48 48" fill="none">
<path d="M23 2L10 2C5.58172 2 2 5.58172 2 10L2 23C2 27.4183 5.58172 31 10 31L17 31L17 38C17 42.4183 20.5817 46 25 46L38 46C42.4183 46 46 42.4183 46 38L46 25C46 20.5817 42.4183 17 38 17L31 17L31 10C31 5.58172 27.4183 2 23 2ZM27 17L27 10C27 7.79086 25.2091 6 23 6L10 6C7.79086 6 6 7.79086 6 10L6 23C6 25.2091 7.79086 27 10 27L17 27L17 25C17 23.5162 17.4039 22.1268 18.1078 20.9357L16.5007 19.3286L12.4148 23.4144C11.6338 24.1954 10.3674 24.1954 9.5864 23.4144C8.80536 22.6334 8.80536 21.367 9.5864 20.586L13.6723 16.5002L9.58646 12.4144C8.8054 11.6333 8.80542 10.367 9.58646 9.58596C10.3675 8.80492 11.6338 8.8049 12.4149 9.58596L16.5007 13.6718L20.5857 9.58671C21.3667 8.80571 22.6331 8.80567 23.4141 9.58671C24.1951 10.3678 24.1951 11.6341 23.4141 12.4151L19.3291 16.5002L20.9364 18.1075C22.1273 17.4038 23.5165 17 25 17L27 17ZM39.4458 28.3819L31.8552 36.3537C30.5394 37.7357 28.3383 37.7463 27.0091 36.3772L23.5666 32.8312L23.565 32.8296C23.2153 32.4695 23 31.9781 23 31.4365C23 30.3319 23.8954 29.4365 25 29.4365C25.5629 29.4365 26.0715 29.669 26.435 30.0433L26.4368 30.0452L29.4164 33.1144L36.5486 25.624L36.5516 25.6208C36.9159 25.2384 37.4301 25 38 25C39.1046 25 40 25.8954 40 27C40 27.5347 39.7902 28.0203 39.4484 28.3792L39.4458 28.3819Z" fill-rule="evenodd"  fill="#000000" >
</path>
</svg>
