<svg xmlns="http://www.w3.org/2000/svg" xmlns:xlink="http://www.w3.org/1999/xlink" width="48" height="48" viewBox="0 0 48 48" fill="none">
<path d="M13 5L26 5C27.6569 5 29 6.34315 29 8L29 32C29 33.6569 27.6569 35 26 35L13 35C11.3432 35 10 33.6569 10 32L10 8C10 6.34315 11.3432 5 13 5Z"   fill="#E2C2FB" >
</path>
<path d="M26 3L13 3C10.2386 3 8 5.23858 8 8L8 32C8 34.7614 10.2386 37 13 37L26 37C28.7614 37 31 34.7614 31 32L31 8C31 5.23858 28.7614 3 26 3ZM12 8C12 7.44772 12.4477 7 13 7L26 7C26.5523 7 27 7.44772 27 8L27 32C27 32.5523 26.5523 33 26 33L13 33C12.4477 33 12 32.5523 12 32L12 8Z" fill-rule="evenodd"  fill="#8134ED" >
</path>
<path d="M36 30.5C36 29.3954 36.8954 28.5 38 28.5C39.1046 28.5 40 29.3954 40 30.5L40 37C40 41.4183 36.4183 45 32 45L31 45C29.8954 45 29 44.1046 29 43C29 41.8954 29.8954 41 31 41L32 41C34.2091 41 36 39.2091 36 37L36 30.5Z" fill-rule="evenodd"  fill="#B579F4" >
</path>
<path d="M38.21 35.01C36.995 35.01 36.01 34.025 36.01 32.81L36.01 28.6683C36.01 26.1918 39.2244 25.2226 40.5934 27.2864L43.4507 31.5939C44.4207 33.0563 43.3722 35.01 41.6174 35.01L38.21 35.01Z" fill-rule="evenodd"  fill="#B579F4" >
</path>
</svg>
