<svg xmlns="http://www.w3.org/2000/svg" xmlns:xlink="http://www.w3.org/1999/xlink" width="48" height="48" viewBox="0 0 48 48" fill="none">
<path d="M5.89474 16.7691L5.89474 19.1966C5.89474 20.3011 6.79017 21.1966 7.89474 21.1966C8.99931 21.1966 9.89474 20.3011 9.89474 19.1966L9.89474 16.7691C9.89437 16.7178 9.90042 16.6296 9.91288 16.5044C9.94275 16.2041 9.99779 15.8886 10.078 15.5581C10.3407 14.4756 10.8082 13.4823 11.4807 12.5782C12.4403 11.288 13.7688 10.2653 15.4663 9.50993C17.7284 8.50331 20.5729 8 24 8C27.4271 8 30.2716 8.50331 32.5337 9.50993C34.2312 10.2653 35.5597 11.2881 36.5193 12.5782C37.1918 13.4823 37.6593 14.4756 37.922 15.5581C38.0022 15.8886 38.0572 16.2041 38.0871 16.5044C38.0996 16.6296 38.1056 16.7126 38.1053 16.7533L38.1053 19.1966C38.1053 19.644 38.0264 20.0613 37.8687 20.4486C37.7124 20.8326 37.4723 21.2049 37.1485 21.5655C36.4588 22.3336 35.385 23.0585 33.9273 23.74C32.6055 24.3581 30.8913 24.9684 28.7846 25.5711C27.9231 25.8176 26.9252 26.0834 25.7907 26.3685C25.1046 26.541 24.0629 26.7952 22.6657 27.1311C19.9337 27.788 17.9235 28.2992 16.635 28.6647C14.435 29.2888 12.6181 29.9289 11.1842 30.585C9.33427 31.4315 7.90924 32.3951 6.90909 33.4758C5.63636 34.851 5 36.4238 5 38.1943L5 42C5 43.1046 5.89543 44 7 44L41 44C42.1046 44 43 43.1046 43 42C43 40.8954 42.1046 40 41 40L9 40L9 38.1943C9 37.8227 9.06773 37.4759 9.20318 37.1538C9.34083 36.8265 9.55472 36.5061 9.84483 36.1926C10.4825 35.5035 11.4838 34.8468 12.8485 34.2224C14.0969 33.6511 15.723 33.0813 17.7267 32.5129C18.9632 32.1621 20.9213 31.6645 23.6009 31.0202C25.0116 30.681 26.0665 30.4235 26.7658 30.2478C27.9421 29.9521 28.9817 29.6751 29.8848 29.4168C32.1954 28.7558 34.1076 28.0714 35.6215 27.3635C37.5711 26.452 39.0722 25.4101 40.1247 24.238C41.4451 22.7676 42.1053 21.0871 42.1053 19.1966L42.1052 16.785C42.1067 16.6014 42.0941 16.3759 42.0675 16.1084C42.0192 15.6235 41.9331 15.1256 41.8092 14.6148C41.4186 13.0051 40.7251 11.5304 39.7288 10.191C38.3521 8.34009 36.4958 6.89492 34.1599 5.85543C31.3802 4.61848 27.9936 4 24 4C20.0064 4 16.6198 4.61848 13.8401 5.85543C11.5041 6.89492 9.64783 8.34009 8.27117 10.191C7.27488 11.5304 6.58143 13.0051 6.1908 14.6148C6.06685 15.1256 5.98076 15.6235 5.93252 16.1084C5.90592 16.3758 5.89333 16.596 5.89474 16.7691Z" fill-rule="evenodd"  fill="#000000" >
</path>
</svg>
