<svg xmlns="http://www.w3.org/2000/svg" xmlns:xlink="http://www.w3.org/1999/xlink" width="48" height="48" viewBox="0 0 48 48" fill="none">
<path d="M30.4888 7.08366C31.0238 7.19781 31.4925 7.39002 31.8949 7.66027L34.1251 4.33969C33.2956 3.78256 32.3617 3.39323 31.3235 3.17171C30.7952 3.059 30.327 3.00177 29.9187 3L29.9184 3C28.5399 2.99999 27.3514 3.31787 26.3531 3.95366C25.5161 4.48672 24.8589 5.21011 24.3815 6.12383C24.0619 6.73552 23.8399 7.40024 23.7156 8.11798C23.6515 8.48811 23.6196 8.81637 23.62 9.10277L23.6149 14.6093L23.6118 17.9926L18.0074 18L18.0126 22L23.61 21.9926L23.61 32.4965C23.6099 32.5644 23.605 32.6734 23.5954 32.8234C23.5744 33.1516 23.5377 33.4937 23.4854 33.8497C23.3185 34.9854 23.0315 36.0183 22.6246 36.9483C22.0928 38.1637 21.3912 39.1042 20.5196 39.77C19.4462 40.59 18.0863 41 16.44 41C16.3835 41 16.2833 40.9928 16.1392 40.9785C15.8095 40.9457 15.4704 40.8878 15.1218 40.8046C14.0155 40.5406 13.058 40.0851 12.2494 39.4383L9.75061 42.5617C11.0254 43.5815 12.5062 44.2927 14.1932 44.6954C14.7175 44.8205 15.2345 44.9084 15.7439 44.959C16.0194 44.9863 16.2515 45 16.44 45C18.9883 45 21.1575 44.3162 22.9478 42.9487C24.3672 41.8644 25.481 40.3987 26.2892 38.5517C26.8394 37.2942 27.224 35.9208 27.4429 34.4315C27.5534 33.6799 27.6091 33.0373 27.61 32.5035L27.61 21.9924L33.9876 22L33.9924 18L27.6118 17.9924L27.6149 14.6131L27.62 9.11766C27.6205 9.10472 27.6214 9.08893 27.6228 9.0703C27.6289 8.98617 27.6403 8.89631 27.6569 8.80073C27.7101 8.49347 27.8 8.2186 27.9267 7.97613C28.0741 7.69402 28.2658 7.47782 28.5018 7.32755C28.842 7.11086 29.304 7.00167 29.8878 6.99998L29.8927 7.00019C29.9244 7.00162 29.9612 7.00427 30.003 7.00814C30.1581 7.02247 30.32 7.04764 30.4888 7.08366Z" fill-rule="evenodd"  fill="#1764FF" >
</path>
<path d="M25.6073 17.99L18.0073 18L18.0126 22L25.6126 21.99L33.9876 22L33.9924 18L25.6073 17.99Z" fill-rule="evenodd"  fill="#4187FF" >
</path>
<path d="M18 18C16.9 18 16 18.9 16 20C16 21.1 16.9 22 18 22C19.1 22 20 21.1 20 20C20 18.9 19.1 18 18 18Z"   fill="#4187FF" >
</path>
<path d="M34 18C32.9 18 32 18.9 32 20C32 21.1 32.9 22 34 22C35.1 22 36 21.1 36 20C36 18.9 35.1 18 34 18Z"   fill="#4187FF" >
</path>
<path d="M33 4C31.8954 4 31 4.89543 31 6C31 7.10457 31.8954 8 33 8C34.1046 8 35 7.10457 35 6C35 4.89543 34.1046 4 33 4Z"   fill="#1764FF" >
</path>
<path d="M11 39C9.89543 39 9 39.8954 9 41C9 42.1046 9.89543 43 11 43C12.1046 43 13 42.1046 13 41C13 39.8954 12.1046 39 11 39Z"   fill="#1764FF" >
</path>
</svg>
