<svg xmlns="http://www.w3.org/2000/svg" xmlns:xlink="http://www.w3.org/1999/xlink" width="48" height="48" viewBox="0 0 48 48" fill="none">
<path d="M38.02 17.7838C38.0068 17.6911 38 17.5964 38 17.5L38 13C38 9.68629 35.3137 7 32 7L29 7C27.8954 7 27 6.1046 27 5C27 3.8954 27.8954 3 29 3L32 3C37.5229 3 42 7.4772 42 13L43.6273 13C45.3821 13 46.4307 14.9538 45.4606 16.4161L42.6033 20.7236C41.2344 22.7874 38.02 21.8182 38.02 19.3417L38.02 17.7838ZM33.1296 15.747C35.2153 12.8508 31.9391 9.13177 28.803 10.8355L15.2818 18.181C13.0788 19.3778 12.9175 22.4794 14.9843 23.8984L19.8998 27.2729L15.9214 32.7973C13.8659 35.6517 17.0268 39.344 20.1639 37.7531L33.8366 30.8191C36.1148 29.6637 36.3191 26.4883 34.2078 25.0504L28.9891 21.4965L33.1296 15.747ZM9.97997 30.2155L9.97997 28.6583C9.97997 26.1818 6.7656 25.2126 5.39664 27.2764L2.5393 31.5839C1.56928 33.0462 2.6178 35 4.37263 35L6.00005 35C6.00005 40.5228 10.4772 45 16 45L19 45C20.1046 45 21 44.1046 21 43C21 41.8954 20.1046 41 19 41L16 41C12.6863 41 10 38.3137 10 35L10 30.5C10 30.4034 9.9932 30.3084 9.97997 30.2155Z" fill-rule="evenodd"  fill="#000000" >
</path>
</svg>
