<svg xmlns="http://www.w3.org/2000/svg" xmlns:xlink="http://www.w3.org/1999/xlink" width="48" height="48" viewBox="0 0 48 48" fill="none">
<path d="M18.4166 32.8392C15.9164 31.6047 13.832 29.7254 12.1634 27.2011C10.8572 25.2252 10.9244 22.785 12.365 19.8805C12.5838 19.4393 12.7206 19.1427 12.7754 18.9906C12.3132 10.3469 14.5678 4.63763 19.539 1.86292C16.4094 0.994594 13.672 0.717411 11.3269 1.03137C8.81089 1.3682 6.77252 2.3638 5.21179 4.01816C3.83987 5.47237 2.90561 7.37325 2.40898 9.72081C1.99303 11.6871 1.89379 13.9212 2.11127 16.4231C2.30076 18.6032 2.71861 20.8835 3.3648 23.2641C3.95172 25.4264 4.67092 27.4764 5.52239 29.414C7.55551 34.0405 9.58173 36.4015 11.601 36.497C13.2654 36.6496 14.7956 36.191 16.1918 35.1211C16.6911 34.7385 17.2024 34.2525 17.7255 33.663C17.9086 33.4568 18.1389 33.1822 18.4166 32.8392ZM42.398 27.4602C42.6823 27.0545 42.9656 26.6005 43.2479 26.0981C43.9214 24.8991 44.5256 23.5454 45.0602 22.037C45.6262 20.4395 46.0549 18.8313 46.3462 17.2123C46.6714 15.4039 46.8012 13.7022 46.7356 12.1072C46.6596 10.2598 46.322 8.62169 45.7228 7.19284C45.0181 5.51218 43.9775 4.17227 42.601 3.17312C40.5642 1.69489 37.923 1.05315 34.6773 1.24792C37.2017 2.44293 39.2164 4.43281 40.7214 7.21758C42.8071 11.0769 43.4611 15.5323 42.6836 20.5838C42.5669 21.3423 42.3651 22.4802 42.0784 23.9973C41.8317 25.3026 41.6403 26.4066 41.5043 27.3092C41.6736 27.339 41.8573 27.3701 42.0554 27.4025C42.1718 27.4216 42.286 27.4408 42.398 27.4602ZM34.1589 3.34525C31.8927 2.1564 29.2012 1.71629 26.0845 2.02492C21.9357 2.43575 18.9114 4.13566 17.0114 7.12465C16.0869 8.579 15.4428 10.3331 15.0791 12.3869C14.7355 14.327 14.6374 16.5651 14.7849 19.1013C14.7969 19.3229 14.7823 19.589 14.7411 19.8995C14.7121 20.1181 14.6515 20.4627 14.5591 20.9332C14.4684 21.3953 14.4051 21.7478 14.3692 21.9907C14.3025 22.4417 14.2698 22.8548 14.2709 23.2297C14.2743 24.311 14.555 25.2738 15.1131 26.1181C16.2598 27.8528 17.5746 29.1183 19.0575 29.9146C19.6409 30.2279 20.2695 30.4788 20.9433 30.6675C21.0272 30.691 21.1176 30.7147 21.2144 30.7388C20.2201 31.851 19.3112 32.8148 18.4877 33.6301C18.0371 34.0761 17.7868 34.6135 17.7367 35.2423C17.6931 35.7887 17.8117 36.2978 18.0923 36.7699C18.2351 37.0101 18.4115 37.22 18.6213 37.3994C18.8641 37.6071 19.1355 37.7607 19.4353 37.8601C19.7726 37.9719 20.1179 38.0067 20.4712 37.9644C20.8097 37.9238 21.1295 37.8151 21.4307 37.6381C22.0628 37.2667 22.7205 36.852 23.4039 36.3941C23.3949 36.6212 23.3847 36.8602 23.3733 37.1112C23.3096 38.5155 23.2885 39.5398 23.3102 40.1841C23.3498 41.365 23.5178 42.3599 23.8143 43.1689C24.6283 45.3902 26.4488 46.6613 29.2759 46.9824C31.4088 47.2247 33.217 46.7859 34.7004 45.666C35.9478 44.7243 36.9132 43.3167 37.5965 41.4432C38.1011 40.0597 38.481 38.321 38.7362 36.2271C38.8134 35.5927 38.8844 34.887 38.949 34.1097C39.7147 34.353 40.5181 34.5537 41.3593 34.712C41.9729 34.8275 42.5443 34.7281 43.0735 34.4138C43.5399 34.1368 43.8796 33.745 44.0927 33.2385C44.2937 32.7607 44.3437 32.2683 44.2428 31.7613C44.1309 31.1995 43.8572 30.7293 43.4218 30.3508C42.6515 29.6812 41.7524 28.8528 40.7246 27.8655C40.2779 27.4365 39.8908 27.0593 39.5631 26.734C39.5732 26.6696 39.5835 26.6045 39.594 26.5389C39.6947 25.9134 39.8682 24.9491 40.1145 23.6458C40.3971 22.151 40.595 21.0355 40.7083 20.2995C41.0111 18.332 41.0469 16.3536 40.8157 14.3643C40.5445 12.0304 39.927 9.97172 38.9632 8.18835C37.7953 6.02711 36.1939 4.41274 34.1589 3.34525ZM36 17.5C36 18.8807 34.8807 20 33.5 20C32.1193 20 31 18.8807 31 17.5C31 16.1193 32.1193 15 33.5 15C34.8807 15 36 16.1193 36 17.5ZM28 18.5C28 19.8807 26.8807 21 25.5 21C24.1193 21 23 19.8807 23 18.5C23 17.1193 24.1193 16 25.5 16C26.8807 16 28 17.1193 28 18.5Z" fill-rule="evenodd"  fill="#000000" >
</path>
</svg>
