<svg xmlns="http://www.w3.org/2000/svg" xmlns:xlink="http://www.w3.org/1999/xlink" width="48" height="48" viewBox="0 0 48 48" fill="none">
<path d="M35.138 29.7085C35.7127 27.686 36 25.4498 36 23C36 20.5501 35.7127 18.3139 35.138 16.2915C34.5963 14.3849 33.7926 12.645 32.727 11.0718C31.7754 9.66695 30.5944 8.36802 29.1841 7.17505C28.0183 6.18886 26.6275 5.22206 25.0116 4.27467L24 3.68158L22.9884 4.27467C21.3725 5.22206 19.9817 6.18886 18.8159 7.17505C17.4056 8.36802 16.2246 9.66695 15.273 11.0718C14.2074 12.645 13.4037 14.3849 12.862 16.2915C12.2873 18.3139 12 20.5501 12 23C12 25.4498 12.2873 27.686 12.862 29.7085C13.4037 31.6151 14.2074 33.355 15.273 34.9282C16.2246 36.333 17.4056 37.6319 18.8159 38.8249C19.0039 38.984 19.1979 39.1426 19.3977 39.3007L21.2762 43.3709C22.3487 45.6946 25.6515 45.6946 26.724 43.3709L28.6027 39.3004C28.8023 39.1424 28.9961 38.9839 29.1841 38.8249C30.5944 37.6319 31.7754 36.333 32.727 34.9282C33.7926 33.355 34.5963 31.6151 35.138 29.7085ZM27.5037 34.9521C28.2406 34.234 28.8778 33.4783 29.4152 32.6849C30.2406 31.4664 30.8656 30.1098 31.2903 28.6152C31.7634 26.95 32 25.0783 32 23C32 20.9216 31.7634 19.0499 31.2903 17.3848C30.8656 15.8902 30.2406 14.5337 29.4152 13.3151C28.6693 12.2138 27.7311 11.1851 26.6008 10.229C25.855 9.59807 24.9881 8.96906 24 8.34193C23.0119 8.96906 22.145 9.59807 21.3992 10.229C20.2689 11.1851 19.3308 12.2138 18.5848 13.3151C17.7594 14.5336 17.1344 15.8902 16.7097 17.3848C16.2366 19.0499 16 20.9216 16 23C16 25.0783 16.2366 26.95 16.7097 28.6152C17.1344 30.1098 17.7594 31.4663 18.5848 32.6849C19.1222 33.4783 19.7594 34.2341 20.4964 34.9522L22.0001 32.446L22.0001 16.5213C22 16.5142 22 16.5071 22 16.5C22 15.3954 22.8954 14.5 24 14.5C25.1046 14.5 26 15.3954 26 16.5L26.0001 16.5L26.0001 32.446L27.5037 34.9521Z" fill-rule="evenodd"  fill="#000000" >
</path>
</svg>
