<svg xmlns="http://www.w3.org/2000/svg" xmlns:xlink="http://www.w3.org/1999/xlink" width="48" height="48" viewBox="0 0 48 48" fill="none">
<path d="M44.8968 27.0616L40.9411 36.6115C40.535 37.5916 39.957 38.4567 39.2068 39.2068C38.4567 39.957 37.5916 40.535 36.6115 40.9411L27.0616 44.8968C26.0814 45.3027 25.0609 45.5056 24 45.5056C22.9392 45.5056 21.9187 45.3027 20.9386 44.8968L11.3886 40.9411C10.4085 40.535 9.54338 39.9569 8.79325 39.2068C8.04309 38.4567 7.46503 37.5916 7.05906 36.6115L3.10335 27.0616C2.69737 26.0814 2.49438 25.0609 2.49438 24C2.49438 22.9392 2.69737 21.9187 3.10335 20.9386L7.05906 11.3886C7.46504 10.4085 8.0431 9.54336 8.79325 8.79321C9.54339 8.04307 10.4085 7.46501 11.3886 7.05903L20.9386 3.10332C21.9187 2.69734 22.9392 2.49435 24 2.49435C25.0609 2.49435 26.0815 2.69734 27.0616 3.10332L36.6115 7.05903C37.5916 7.465 38.4567 8.04306 39.2068 8.79321C39.9569 9.54336 40.535 10.4085 40.9411 11.3886L44.8968 20.9386C45.3027 21.9187 45.5056 22.9392 45.5056 24C45.5056 25.0609 45.3027 26.0814 44.8968 27.0616ZM41.2012 25.5308C41.4042 25.0408 41.5056 24.5305 41.5056 24C41.5056 23.4695 41.4041 22.9593 41.2012 22.4694L37.2455 12.9194C37.0425 12.4293 36.7535 11.9967 36.3784 11.6216C36.0034 11.2466 35.5708 10.9575 35.0807 10.7546L25.5308 6.79884C25.0407 6.59585 24.5305 6.49435 24 6.49435C23.4697 6.49435 22.9595 6.59585 22.4694 6.79884L12.9194 10.7546C12.4293 10.9575 11.9967 11.2466 11.6217 11.6216C11.2466 11.9967 10.9576 12.4293 10.7546 12.9194L6.79887 22.4694C6.59588 22.9593 6.49438 23.4695 6.49438 24C6.49438 24.5305 6.59588 25.0407 6.79887 25.5308L10.7546 35.0807C10.9576 35.5708 11.2466 36.0034 11.6217 36.3784C11.9967 36.7535 12.4293 37.0425 12.9194 37.2455L22.4694 41.2012C22.9593 41.4041 23.4695 41.5056 24 41.5056C24.5305 41.5056 25.0408 41.4042 25.5308 41.2012L35.0807 37.2455C35.5708 37.0425 36.0033 36.7535 36.3784 36.3784C36.7535 36.0033 37.0425 35.5708 37.2455 35.0807L41.2012 25.5308ZM23.8348 31.1135L34.4213 20.4071L34.4222 20.4062C34.7794 20.045 35 19.5482 35 19C35 17.8954 34.1046 17 33 17C32.4437 17 31.9404 17.2271 31.5778 17.5938L31.5769 17.5947L21.1207 28.1694L16.4089 23.4958L16.4085 23.4953C16.047 23.1368 15.5494 22.9153 15 22.9153C13.8954 22.9153 13 23.8107 13 24.9153C13 25.4705 13.2262 25.9729 13.5915 26.3353L13.5921 26.3358L18.4352 31.1397C19.9328 32.6252 22.3517 32.6134 23.8348 31.1135Z" fill-rule="evenodd"  fill="#000000" >
</path>
</svg>
