<svg xmlns="http://www.w3.org/2000/svg" xmlns:xlink="http://www.w3.org/1999/xlink" width="48" height="48" viewBox="0 0 48 48" fill="none">
<path d="M8.79801 41L8.9921 41L9 41C10.1046 41 11 41.8954 11 43C11 44.1046 10.1046 45 9 45L3 45C1.89543 45 1 44.1046 1 43C1 41.8954 1.89543 41 3 41L4.57041 41L9 28.052L9 28L9.01779 28L17.1077 4.35263C17.8104 2.29851 20.8229 2.67833 20.9938 4.8426L23.8483 41L24.5 41C25.6046 41 26.5 41.8954 26.5 43C26.5 44.1046 25.6046 45 24.5 45L19 45C17.8954 45 17 44.1046 17 43C17 41.8954 17.8954 41 19 41L19.0079 41L19.8359 41L19.1254 32L11.877 32L8.79801 41ZM18.8096 28L13.2454 28L17.7663 14.7851L18.8096 28ZM26.5 24C26.5 25.1046 27.3954 26 28.5 26L43 26C44.1046 26 45 25.1046 45 24C45 22.8954 44.1046 22 43 22L28.5 22C27.3954 22 26.5 22.8954 26.5 24ZM28 32C28 33.1046 28.8954 34 30 34L43 34C44.1046 34 45 33.1046 45 32C45 30.8954 44.1046 30 43 30L30 30C28.8954 30 28 30.8954 28 32ZM31 42C29.8954 42 29 41.1046 29 40C29 38.8954 29.8954 38 31 38L43 38C44.1046 38 45 38.8954 45 40C45 41.1046 44.1046 42 43 42L31 42Z" fill-rule="evenodd"  fill="#000000" >
</path>
</svg>
