<svg xmlns="http://www.w3.org/2000/svg" xmlns:xlink="http://www.w3.org/1999/xlink" width="48" height="48" viewBox="0 0 48 48" fill="none">
<path d="M19.007 5.5C17.907 5.5 17.007 6.4 17.007 7.5C17.007 7.99 17.187 8.44 17.477 8.79L20.1511 12L19 12C16.0307 12 13.5603 14.1648 13.0832 17L12.5 17C11.12 17 10 15.88 10 14.5L10 10C10 8.9 9.1 8 8 8C6.9 8 6 8.9 6 10L6 14.5C6 18.09 8.91 21 12.5 21L13 21L13 23L6 23C4.9 23 4 23.9 4 25C4 26.1 4.9 27 6 27L13 27L13 29L12.51 29C8.92 29 6.01 31.91 6.01 35.5L6.01 40C6.01 41.1 6.91 42 8.01 42C9.11 42 10.01 41.1 10.01 40L10.01 35.5C10.01 34.12 11.13 33 12.51 33L13.4132 33C14.7175 37.6195 18.9602 41 24 41C29.0398 41 33.2825 37.6195 34.5868 33L35.51 33C36.89 33 38.01 34.12 38.01 35.5L38.01 40C38.01 41.1 38.91 42 40.01 42C41.11 42 42.01 41.1 42.01 40L42.01 35.5C42.01 31.91 39.1 29 35.51 29L35 29L35 27L42 27C43.1 27 44 26.1 44 25C44 23.9 43.1 23 42 23L35 23L35 21L35.5 21C39.09 21 42 18.09 42 14.5L42 10C42 8.9 41.1 8 40 8C38.9 8 38 8.9 38 10L38 14.5C38 15.88 36.88 17 35.5 17L34.9168 17C34.4397 14.1648 31.9693 12 29 12L27.8629 12L30.537 8.79C30.827 8.44 31.007 7.99 31.007 7.5C31.007 6.4 30.107 5.5 29.007 5.5C28.387 5.5 27.827 5.78 27.457 6.23L24.007 10.38L20.557 6.23C20.187 5.78 19.627 5.5 19.007 5.5ZM31 25L31 18C31 16.9 30.1 16 29 16L19 16C17.9 16 17 16.9 17 18L17 30C17 33.87 20.13 37 24 37C27.87 37 31 33.87 31 30L31 25Z" fill-rule="evenodd"  fill="#000000" >
</path>
</svg>
