<svg xmlns="http://www.w3.org/2000/svg" xmlns:xlink="http://www.w3.org/1999/xlink" width="48" height="48" viewBox="0 0 48 48" fill="none">
<path d="M14 3L38 3C40.21 3 42 4.79 42 7L42 42C42 44.21 40.21 46 38 46L13 46C10.18 46 8.15 45.02 6.93 43.06C6.31 42.07 6 41.05 6 40L6 11C6 6.58 9.58 3 14 3ZM15.59 21.75L18 20.25L20.42 21.75C22.41 23 25 21.56 25 19.2L25 9C25 7.9 24.1 7 23 7L13 7C11.9 7 11 7.9 11 9L11 19.2C11 21.55 13.59 22.99 15.58 21.75L15.59 21.75ZM38 38L13 38C11 38 10 38.67 10 40C10 41.33 11 42 13 42L38 42L38 38Z" fill-rule="evenodd"  fill="#000000" >
</path>
</svg>
