<svg xmlns="http://www.w3.org/2000/svg" xmlns:xlink="http://www.w3.org/1999/xlink" width="48" height="48" viewBox="0 0 48 48" fill="none">
<path d="M36 16C36 14.8954 35.1046 14 34 14C32.8954 14 32 14.8954 32 16C32 19.3136 29.3138 21.9998 26.0002 21.9998L15 21.9998C13.8954 21.9998 13 22.8953 13 23.9999C13 25.1044 13.8954 25.9999 15 25.9999L26.0002 25.9999C31.5229 25.9999 36 21.5228 36 16Z" fill-rule="evenodd"  fill="#424242" >
</path>
<path d="M17 17.7101C19.8915 16.8496 22 14.171 22 11C22 7.13401 18.866 4 15 4C11.134 4 8 7.13401 8 11C8 14.171 10.1085 16.8496 13 17.7101L13 30.2899C10.1085 31.1504 8 33.829 8 37C8 40.866 11.134 44 15 44C18.866 44 22 40.866 22 37C22 33.829 19.8915 31.1504 17 30.2899L17 17.7101ZM18 11C18 9.34315 16.6568 8 15 8C13.3432 8 12 9.34315 12 11C12 12.6568 13.3432 14 15 14C16.6568 14 18 12.6568 18 11ZM15 34C16.6568 34 18 35.3432 18 37C18 38.6568 16.6568 40 15 40C13.3432 40 12 38.6568 12 37C12 35.3432 13.3432 34 15 34Z" fill-rule="evenodd"  fill="#787878" >
</path>
<path d="M34 18C37.866 18 41 14.866 41 11C41 7.13401 37.866 4 34 4C30.134 4 27 7.13401 27 11C27 14.866 30.134 18 34 18ZM34 8C35.6569 8 37 9.34315 37 11C37 12.6568 35.6569 14 34 14C32.3432 14 31 12.6568 31 11C31 9.34315 32.3432 8 34 8Z" fill-rule="evenodd"  fill="#424242" >
</path>
</svg>
