<svg xmlns="http://www.w3.org/2000/svg" xmlns:xlink="http://www.w3.org/1999/xlink" width="48" height="48" viewBox="0 0 48 48" fill="none">
<path d="M36 16C36 14.8954 35.1046 14 34 14C32.8954 14 32 14.8954 32 16C32 19.3136 29.3138 21.9998 26.0002 21.9998L15 21.9998C13.8954 21.9998 13 22.8953 13 23.9999C13 25.1044 13.8954 25.9999 15 25.9999L26.0002 25.9999C31.5229 25.9999 36 21.5228 36 16Z" fill-rule="evenodd"  fill="#424242" >
</path>
<path d="M15 44C18.866 44 22 40.866 22 37C22 33.134 18.866 30 15 30C11.134 30 8 33.134 8 37C8 40.866 11.134 44 15 44ZM15 34C16.6568 34 18 35.3432 18 37C18 38.6568 16.6568 40 15 40C13.3431 40 12 38.6568 12 37C12 35.3432 13.3431 34 15 34Z" fill-rule="evenodd"  fill="#787878" >
</path>
<path d="M15 15C13.8954 15 13 15.8954 13 17L13 31C13 32.1046 13.8954 33 15 33C16.1046 33 17 32.1046 17 31L17 17C17 15.8954 16.1046 15 15 15Z" fill-rule="evenodd"  fill="#787878" >
</path>
<path d="M15 18C18.866 18 22 14.866 22 11C22 7.13401 18.866 4 15 4C11.134 4 8 7.13401 8 11C8 14.866 11.134 18 15 18ZM15 8C16.6568 8 18 9.34315 18 11C18 12.6568 16.6568 14 15 14C13.3431 14 12 12.6568 12 11C12 9.34315 13.3431 8 15 8Z" fill-rule="evenodd"  fill="#787878" >
</path>
<path d="M34 18C37.866 18 41 14.866 41 11C41 7.13401 37.866 4 34 4C30.134 4 27 7.13401 27 11C27 14.866 30.134 18 34 18ZM34 8C35.6569 8 37 9.34315 37 11C37 12.6568 35.6569 14 34 14C32.3432 14 31 12.6568 31 11C31 9.34315 32.3432 8 34 8Z" fill-rule="evenodd"  fill="#424242" >
</path>
</svg>
