<svg xmlns="http://www.w3.org/2000/svg" xmlns:xlink="http://www.w3.org/1999/xlink" width="48" height="48" viewBox="0 0 48 48" fill="none">
<path d="M21 11C21 14.171 18.8915 16.8496 16 17.7101L16 30.2899C18.8915 31.1504 21 33.829 21 37C21 40.866 17.866 44 14 44C10.134 44 7 40.866 7 37C7 33.829 9.10851 31.1504 12 30.2899L12 17.7101C9.10851 16.8496 7 14.171 7 11C7 7.13401 10.134 4 14 4C17.866 4 21 7.13401 21 11ZM14 8C15.6568 8 17 9.34315 17 11C17 12.6568 15.6568 14 14 14C12.3432 14 11 12.6568 11 11C11 9.34315 12.3432 8 14 8ZM17 37C17 35.3432 15.6568 34 14 34C12.3432 34 11 35.3432 11 37C11 38.6568 12.3432 40 14 40C15.6568 40 17 38.6568 17 37Z" fill-rule="evenodd"  fill="#787878" >
</path>
<path d="M17.1421 17.2568C16.1973 17.7323 15.1299 18 14 18C13.5429 18 13.0961 17.9562 12.6635 17.8726C14.2108 20.7045 17.333 22.8972 22.0303 24.4508C25.8227 25.7051 28.2285 27.2097 29.2475 28.9645C29.588 29.5818 30.2452 30 31 30C32.1046 30 33 29.1046 33 28C33 27.6245 32.8965 27.2732 32.7165 26.973C31.192 24.3348 28.0486 22.2282 23.2864 20.6531C20.4665 19.7204 18.4184 18.5884 17.1421 17.2568ZM14.0156 14L14 13.9999L13.9844 14L14 14L14.0156 14Z" fill-rule="evenodd"  fill="#424242" >
</path>
<path d="M35 38C38.866 38 42 34.866 42 31C42 27.134 38.866 24 35 24C31.134 24 28 27.134 28 31C28 34.866 31.134 38 35 38ZM35 28C36.6569 28 38 29.3432 38 31C38 32.6568 36.6569 34 35 34C33.3432 34 32 32.6568 32 31C32 29.3432 33.3432 28 35 28Z" fill-rule="evenodd"  fill="#424242" >
</path>
</svg>
