<svg xmlns="http://www.w3.org/2000/svg" xmlns:xlink="http://www.w3.org/1999/xlink" width="48" height="48" viewBox="0 0 48 48" fill="none">
<path d="M20 11C20 13.7614 17.7614 16 15 16C12.2386 16 10 13.7614 10 11C10 8.23858 12.2386 6 15 6C17.7614 6 20 8.23858 20 11Z"   fill="#4187FF" >
</path>
<path d="M20 37C20 39.7614 17.7614 42 15 42C12.2386 42 10 39.7614 10 37C10 34.2386 12.2386 32 15 32C17.7614 32 20 34.2386 20 37Z"   fill="#6BA6FF" >
</path>
<path d="M39 11C39 13.7614 36.7614 16 34 16C31.2386 16 29 13.7614 29 11C29 8.23858 31.2386 6 34 6C36.7614 6 39 8.23858 39 11Z"   fill="#4187FF" >
</path>
<path d="M22 11C22 14.171 19.8915 16.8496 17 17.7101L17 21.9998L26.0002 21.9998C28.7457 21.9998 31.0606 20.1557 31.7735 17.6385C28.9991 16.7084 27 14.0876 27 11C27 7.13401 30.134 4 34 4C37.866 4 41 7.13401 41 11C41 14.2268 38.8167 16.9436 35.8467 17.7538C35.0176 22.4403 30.9246 25.9999 26.0002 25.9999L17 25.9999L17 30.2899C19.8915 31.1504 22 33.829 22 37C22 40.866 18.866 44 15 44C11.134 44 8 40.866 8 37C8 33.829 10.1085 31.1504 13 30.2899L13 17.7101C10.1085 16.8496 8 14.171 8 11C8 7.13401 11.134 4 15 4C18.866 4 22 7.13401 22 11ZM34 14C35.6568 14 37 12.6568 37 11C37 9.34315 35.6568 8 34 8C32.3432 8 31 9.34315 31 11C31 12.6568 32.3432 14 34 14ZM15 8C16.6568 8 18 9.34315 18 11C18 12.6568 16.6568 14 15 14C13.3432 14 12 12.6568 12 11C12 9.34315 13.3432 8 15 8ZM15 34C16.6568 34 18 35.3432 18 37C18 38.6568 16.6568 40 15 40C13.3432 40 12 38.6568 12 37C12 35.3432 13.3432 34 15 34Z" fill-rule="evenodd"  fill="#1764FF" >
</path>
</svg>
