<svg xmlns="http://www.w3.org/2000/svg" xmlns:xlink="http://www.w3.org/1999/xlink" width="48" height="48" viewBox="0 0 48 48" fill="none">
<path d="M14 15C12.8954 15 12 15.8954 12 17L12 31C12 32.1046 12.8954 33 14 33C15.1046 33 16 32.1046 16 31L16 17C16 15.8954 15.1046 15 14 15Z" fill-rule="evenodd"  fill="#4187FF" >
</path>
<path d="M33 28C33 27.6245 32.8965 27.2732 32.7165 26.973C31.192 24.3348 28.0487 22.2282 23.2864 20.6531C19.1953 19.3 16.7288 17.5271 15.8866 15.3345C15.6124 14.5571 14.8713 13.9999 14 13.9999C12.8954 13.9999 12 14.8953 12 15.9999C12 16.2655 12.0518 16.519 12.1458 16.7509C13.4355 20.1312 16.7304 22.6978 22.0303 24.4508C25.8228 25.7051 28.2285 27.2097 29.2475 28.9645C29.588 29.5818 30.2452 30 31 30C32.1046 30 33 29.1046 33 28Z" fill-rule="evenodd"  fill="#1764FF" >
</path>
<path d="M19 11C19 13.7614 16.7614 16 14 16C11.2386 16 9 13.7614 9 11C9 8.23858 11.2386 6 14 6C16.7614 6 19 8.23858 19 11Z"   fill="#BEDCFF" >
</path>
<path d="M14 18C17.866 18 21 14.866 21 11C21 7.13401 17.866 4 14 4C10.134 4 7 7.13401 7 11C7 14.866 10.134 18 14 18ZM14 8C15.6568 8 17 9.34315 17 11C17 12.6568 15.6568 14 14 14C12.3431 14 11 12.6568 11 11C11 9.34315 12.3431 8 14 8Z" fill-rule="evenodd"  fill="#4187FF" >
</path>
<path d="M19 37C19 39.7614 16.7614 42 14 42C11.2386 42 9 39.7614 9 37C9 34.2386 11.2386 32 14 32C16.7614 32 19 34.2386 19 37Z"   fill="#BEDCFF" >
</path>
<path d="M14 44C17.866 44 21 40.866 21 37C21 33.134 17.866 30 14 30C10.134 30 7 33.134 7 37C7 40.866 10.134 44 14 44ZM14 34C15.6568 34 17 35.3432 17 37C17 38.6568 15.6568 40 14 40C12.3431 40 11 38.6568 11 37C11 35.3432 12.3431 34 14 34Z" fill-rule="evenodd"  fill="#4187FF" >
</path>
<path d="M40 31C40 33.7614 37.7614 36 35 36C32.2386 36 30 33.7614 30 31C30 28.2386 32.2386 26 35 26C37.7614 26 40 28.2386 40 31Z"   fill="#BEDCFF" >
</path>
<path d="M35 38C38.866 38 42 34.866 42 31C42 27.134 38.866 24 35 24C31.134 24 28 27.134 28 31C28 34.866 31.134 38 35 38ZM35 28C36.6569 28 38 29.3432 38 31C38 32.6568 36.6569 34 35 34C33.3432 34 32 32.6568 32 31C32 29.3432 33.3432 28 35 28Z" fill-rule="evenodd"  fill="#1764FF" >
</path>
</svg>
