<svg xmlns="http://www.w3.org/2000/svg" xmlns:xlink="http://www.w3.org/1999/xlink" width="48" height="48" viewBox="0 0 48 48" fill="none">
<path d="M42 10L42 14.5C42 18.0899 39.0899 21 35.5 21L33 21C31.8954 21 31 20.1046 31 19C31 17.8954 31.8954 17 33 17L35.5 17C36.8807 17 38 15.8807 38 14.5L38 10C38 8.89543 38.8954 8 40 8C41.1046 8 42 8.89543 42 10Z" fill-rule="evenodd"  fill="#FF4943" >
</path>
<path d="M6 10L6 14.5C6 18.0899 8.91015 21 12.5 21L15 21C16.1046 21 17 20.1046 17 19C17 17.8954 16.1046 17 15 17L12.5 17C11.1193 17 10 15.8807 10 14.5L10 10C10 8.89543 9.10457 8 8 8C6.89543 8 6 8.89543 6 10Z" fill-rule="evenodd"  fill="#FF4943" >
</path>
<path d="M6.00977 40L6.00977 35.5C6.00977 31.9101 8.91992 29 12.5098 29L15.0098 29C16.1143 29 17.0098 29.8954 17.0098 31C17.0098 32.1046 16.1143 33 15.0098 33L12.5098 33C11.1291 33 10.0098 34.1193 10.0098 35.5L10.0098 40C10.0098 41.1046 9.11434 42 8.00977 42C6.9052 42 6.00977 41.1046 6.00977 40Z" fill-rule="evenodd"  fill="#FF4943" >
</path>
<path d="M42.0098 40L42.0098 35.5C42.0098 31.9101 39.0996 29 35.5098 29L33.0098 29C31.9052 29 31.0098 29.8954 31.0098 31C31.0098 32.1046 31.9052 33 33.0098 33L35.5098 33C36.8905 33 38.0098 34.1193 38.0098 35.5L38.0098 40C38.0098 41.1046 38.9052 42 40.0098 42C41.1143 42 42.0098 41.1046 42.0098 40Z" fill-rule="evenodd"  fill="#FF4943" >
</path>
<path d="M4 25C4 26.1046 4.89543 27 6 27L15 27C16.1046 27 17 26.1046 17 25C17 23.8954 16.1046 23 15 23L6 23C4.89543 23 4 23.8954 4 25Z" fill-rule="evenodd"  fill="#FF4943" >
</path>
<path d="M31 25C31 26.1046 31.8954 27 33 27L42 27C43.1046 27 44 26.1046 44 25C44 23.8954 43.1046 23 42 23L33 23C31.8954 23 31 23.8954 31 25Z" fill-rule="evenodd"  fill="#FF4943" >
</path>
<path d="M19 14L29 14C31.2091 14 33 15.7909 33 18L33 30C33 34.9706 28.9706 39 24 39L24 39C19.0294 39 15 34.9706 15 30L15 18C15 15.7909 16.7909 14 19 14Z"   fill="#FFC7BF" >
</path>
<path d="M20.5532 6.23137C20.1864 5.78483 19.63 5.5 19.007 5.5C17.9024 5.5 17.007 6.39543 17.007 7.5C17.007 7.99181 17.1845 8.44215 17.479 8.79046L20.1536 12L19 12C15.6863 12 13 14.6863 13 18L13 30C13 36.0751 17.9249 41 24 41C30.0751 41 35 36.0751 35 30L35 18C35 14.6863 32.3137 12 29 12L27.8604 12L30.5351 8.79044C30.8295 8.44213 31.007 7.9918 31.007 7.5C31.007 6.39543 30.1116 5.5 29.007 5.5C28.384 5.5 27.8276 5.78482 27.4608 6.23135L24.007 10.3759L20.5532 6.23137ZM17 18C17 16.8954 17.8954 16 19 16L29 16C30.1046 16 31 16.8954 31 18L31 30C31 33.866 27.866 37 24 37C20.134 37 17 33.866 17 30L17 18Z" fill-rule="evenodd"  fill="#FF1A1A" >
</path>
</svg>
