<svg xmlns="http://www.w3.org/2000/svg" xmlns:xlink="http://www.w3.org/1999/xlink" width="48" height="48" viewBox="0 0 48 48" fill="none">
<path d="M7 20.5C7 21.6046 7.89543 22.5 9 22.5L39 22.5C40.1046 22.5 41 21.6046 41 20.5C41 19.3954 40.1046 18.5 39 18.5L9 18.5C7.89543 18.5 7 19.3954 7 20.5Z" fill-rule="evenodd"  fill="#0D9E86" >
</path>
<path d="M8 42C8 43.1046 8.89543 44 10 44L38 44C39.1046 44 40 43.1046 40 42C40 40.8954 39.1046 40 38 40L10 40C8.89543 40 8 40.8954 8 42Z" fill-rule="evenodd"  fill="#FF4943" >
</path>
<path d="M22 36L22 5C22 3.89543 22.8954 3 24 3C25.1046 3 26 3.89543 26 5L26 36C26 37.1046 25.1046 38 24 38C22.8954 38 22 37.1046 22 36Z" fill-rule="evenodd"  fill="#0D9E86" >
</path>
</svg>
