<svg xmlns="http://www.w3.org/2000/svg" xmlns:xlink="http://www.w3.org/1999/xlink" width="48" height="48" viewBox="0 0 48 48" fill="none">
<path d="M36.6397 29.7176C36.5297 29.8276 36.3997 29.9676 36.2497 30.1276C36.3197 30.2776 36.3797 30.4376 36.4197 30.5976C36.5597 31.0676 36.5897 31.5576 36.5297 32.0476C36.4797 32.4376 36.3697 32.8176 36.1897 33.1776C35.9497 33.6776 35.5997 34.1176 35.1497 34.4676L35.1097 34.5076L28.9997 39.1176L22.9097 43.7076C22.3497 44.1276 21.7397 44.3776 21.0697 44.4676C20.5697 44.5276 20.0897 44.4976 19.6097 44.3576C19.0397 44.2076 18.5397 43.9176 18.0997 43.5176C17.6897 43.1276 17.3797 42.6676 17.1797 42.1376C17.0197 41.6976 16.9397 41.2576 16.9497 40.7876C16.9597 40.1076 17.1497 39.4676 17.5097 38.8676L18.9397 36.4076L18.9297 36.3976C18.6197 36.1076 18.3697 35.7676 18.1797 35.3876C17.8497 34.7176 17.7297 34.0076 17.8397 33.2576C17.8997 32.8476 18.0197 32.4576 18.2197 32.0876C18.1197 32.0376 18.0297 31.9876 17.9397 31.9376C17.0597 31.4776 16.2597 30.8876 15.5297 30.1976C14.8697 29.5576 14.3097 28.8676 13.8497 28.1076C13.3797 27.3276 13.0497 26.5576 12.8697 25.7776C12.7497 25.2676 12.7297 24.7676 12.7997 24.2576C12.6397 24.0476 12.4897 23.8276 12.3397 23.6076C11.6797 22.5876 11.1897 21.4976 10.8797 20.3176C10.5497 19.0676 10.4297 17.7776 10.5397 16.4676C10.5797 15.8476 10.7397 15.2676 11.0297 14.7276C11.1397 14.5276 11.2597 14.3376 11.3997 14.1576C11.3897 14.1176 11.3797 14.0876 11.3697 14.0476C11.0297 12.8376 10.8897 11.6076 10.9397 10.3376C10.9897 9.00756 11.2597 7.69756 11.7397 6.38756C11.9397 5.84756 12.2197 5.36756 12.5597 4.95756C13.0797 4.34756 13.6997 3.92756 14.4397 3.68756C15.2697 3.41756 16.0997 3.42756 16.9397 3.69756C17.5397 3.89756 18.0897 4.22756 18.5897 4.68756C19.2297 5.26756 20.1797 6.13756 21.4397 7.29756C24.9497 10.5076 27.5197 12.8476 29.1497 14.2976C31.8197 16.6676 34.1297 18.6276 36.0697 20.1776C36.9197 20.8576 37.5597 21.6576 37.9797 22.5976C38.3697 23.4876 38.5397 24.4176 38.4897 25.3976C38.4497 26.2276 38.2497 27.0276 37.8997 27.8076C37.5797 28.5176 37.1597 29.1476 36.6397 29.7076L36.6397 29.7176ZM33.0271 31.6795C33.0124 31.6992 32.9933 31.7187 32.9697 31.7376C32.6397 31.9876 21.0897 40.6976 20.8097 40.9076C20.5297 41.1176 20.3597 40.9176 20.5097 40.6676C20.6797 40.3676 24.2897 34.1976 24.3597 34.0876C24.4197 33.9676 24.3397 33.8876 24.2197 33.8876L21.4597 33.8876C21.3097 33.8876 21.2697 33.7876 21.3397 33.6676C21.4297 33.5076 23.5197 29.8176 23.5197 29.8176C23.5597 29.7176 23.5297 29.6476 23.3997 29.6476C22.8497 29.6676 22.2397 29.6576 21.6697 29.5576C18.5897 29.0376 16.6597 26.5776 16.2797 24.9676C16.2457 24.8216 16.2661 24.6542 16.3502 24.5417C16.2664 24.6542 16.2461 24.8213 16.2801 24.9671C16.6601 26.5771 18.5901 29.0371 21.6701 29.5571C22.2401 29.6571 22.8501 29.6671 23.4001 29.6471C23.5301 29.6471 23.5601 29.7171 23.5201 29.8171C23.5201 29.8171 21.4301 33.5071 21.3401 33.6671C21.2701 33.7871 21.3101 33.8871 21.4601 33.8871L24.2201 33.8871C24.3401 33.8871 24.4201 33.9671 24.3601 34.0871C24.2901 34.1971 20.6801 40.3671 20.5101 40.6671C20.3601 40.9171 20.5301 41.1171 20.8101 40.9071C21.0901 40.6971 32.6401 31.9871 32.9701 31.7371C32.9934 31.7184 33.0124 31.699 33.0271 31.6795ZM30.2977 31.2638C30.3044 31.255 30.3119 31.2461 30.3201 31.2371C30.4301 31.1271 33.1201 28.3571 34.0801 27.3271C34.1415 27.2608 34.201 27.1911 34.2583 27.1183C34.2009 27.1913 34.1412 27.2612 34.0797 27.3276C33.1197 28.3576 30.4297 31.1276 30.3197 31.2376C30.3116 31.2464 30.3043 31.2552 30.2977 31.2638ZM15.2089 7.25705C15.1399 7.34874 15.0796 7.46303 15.0297 7.59756C13.5597 11.5776 14.9797 15.1176 17.2697 17.1576C19.5797 19.2076 22.9997 21.0876 25.0997 22.0876C25.144 22.1097 25.1423 22.1594 25.1168 22.1926C25.1427 22.1594 25.1446 22.1093 25.1001 22.0871C23.0001 21.0871 19.5801 19.2071 17.2701 17.1571C14.9801 15.1171 13.5601 11.5771 15.0301 7.59707C15.0799 7.46278 15.1401 7.34866 15.2089 7.25705ZM14.1629 16.3054C14.0906 16.4021 14.0423 16.5456 14.0297 16.7376C13.7297 20.5476 16.0897 23.5376 18.7297 24.5476C20.3697 25.1676 22.1497 25.5176 23.8097 25.7276C23.8715 25.7344 23.8815 25.7979 23.8525 25.837C23.8819 25.7979 23.8722 25.734 23.8101 25.7271C22.1501 25.5171 20.3701 25.1671 18.7301 24.5471C16.0901 23.5371 13.7301 20.5471 14.0301 16.7371C14.0427 16.5454 14.0908 16.4021 14.1629 16.3054ZM33.7101 26.9871C33.3001 27.4271 32.5701 28.1871 31.5201 29.2771C30.6101 30.2271 30.0901 30.7571 29.9601 30.8871L29.9501 30.8971C29.8801 30.9771 29.8201 31.0571 29.7901 31.1471C29.7401 31.2871 29.7401 31.4171 29.7801 31.5571C29.8301 31.7071 29.9301 31.8171 30.0701 31.8971C30.1701 31.9471 30.2801 31.9671 30.4001 31.9671L31.8301 31.9671L26.5901 35.9271L21.7101 39.6071L22.8601 37.6371L24.8001 34.3271L24.8001 34.3171C24.8601 34.2071 24.8801 34.0971 24.8801 33.9871C24.8701 33.8571 24.8301 33.7371 24.7501 33.6371C24.6201 33.4671 24.4401 33.3871 24.2201 33.3871L22.0701 33.3871L22.8601 31.9971L23.9701 30.0371L23.9801 30.0071C24.0601 29.7971 24.0501 29.6071 23.9401 29.4271C23.8301 29.2471 23.6401 29.1471 23.4001 29.1471L23.3801 29.1471C22.7401 29.1771 22.2001 29.1471 21.7501 29.0671C21.0701 28.9471 20.4201 28.7271 19.8101 28.4071C19.2601 28.1171 18.7601 27.7471 18.3101 27.3171C17.9001 26.9171 17.5501 26.4871 17.2701 26.0371C17.0501 25.6671 16.8901 25.3171 16.8001 24.9771C17.9001 25.4071 19.0501 25.7471 20.2401 25.9871C21.5101 26.2471 22.6901 26.3771 23.7901 26.3671C23.9401 26.3671 24.0701 26.3171 24.1801 26.2171C24.2801 26.1171 24.3401 26.0071 24.3601 25.8771C24.3801 25.7271 24.3501 25.5971 24.2601 25.4671C24.1701 25.3271 24.0301 25.2471 23.8601 25.2371C21.9401 24.9871 20.2901 24.6071 18.9001 24.0771C18.2801 23.8471 17.7001 23.4971 17.1501 23.0471C16.5901 22.5871 16.1001 22.0471 15.6901 21.4171C15.2601 20.7671 14.9501 20.0571 14.7501 19.2971C14.5301 18.4871 14.4601 17.6471 14.5201 16.7771C14.5301 16.7471 14.5301 16.7271 14.5301 16.6971L14.5401 16.7071C16.2201 18.0371 17.9101 19.1871 19.6101 20.1371C20.3501 20.5471 21.1701 20.9671 22.1001 21.4171C22.7301 21.7171 23.6301 22.1371 24.8101 22.6771C24.9601 22.7371 25.1101 22.7471 25.2601 22.6871C25.3901 22.6371 25.4801 22.5471 25.5501 22.4371C25.6201 22.3071 25.6501 22.1771 25.6201 22.0371C25.5901 21.8571 25.4901 21.7271 25.3201 21.6371C24.0301 21.0271 22.7701 20.3471 21.5201 19.5871C19.9201 18.6271 18.6201 17.6871 17.6001 16.7871C17.0401 16.2871 16.5701 15.7271 16.1701 15.0971C15.7401 14.4271 15.4301 13.7271 15.2201 12.9671C14.9901 12.1671 14.9001 11.3471 14.9301 10.5071C14.9701 9.59707 15.1601 8.68707 15.4901 7.77707C15.5301 7.66707 15.5701 7.59707 15.6201 7.53707C15.6401 7.51707 15.6601 7.49707 15.6701 7.49707L15.6901 7.49707C15.7401 7.51707 15.8101 7.55707 15.8801 7.62707C16.5201 8.21707 17.4701 9.08707 18.7401 10.2471C22.2601 13.4771 24.8401 15.8271 26.4901 17.2871C29.2201 19.7071 31.5801 21.7171 33.5801 23.3071C34.2301 23.8271 34.5301 24.4471 34.5001 25.1971C34.4801 25.5171 34.4001 25.8471 34.2501 26.1671C34.1101 26.4771 33.9301 26.7471 33.7101 26.9871ZM23.5497 42.4076C23.5297 42.4276 23.5197 42.4476 23.5097 42.4676L23.5497 42.4076Z" fill-rule="evenodd"  fill="#000000" >
</path>
</svg>
