<svg xmlns="http://www.w3.org/2000/svg" xmlns:xlink="http://www.w3.org/1999/xlink" width="48" height="48" viewBox="0 0 48 48" fill="none">
<path d="M36.8203 28.71C35.5903 30.02 32.1203 33.52 31.9803 33.66C31.8403 33.8 31.8803 33.94 32.0903 33.94L35.2703 33.94C35.5403 33.94 35.5903 34.14 35.3903 34.28C34.9703 34.6 20.1203 45.62 19.7603 45.89C19.4003 46.15 19.1703 45.9 19.3603 45.58C19.5803 45.21 24.2303 37.4 24.3203 37.26C24.4003 37.11 24.3003 37.01 24.1303 37.01C23.9703 37.01 20.7803 37.01 20.5903 37.01C20.4003 37.01 20.3403 36.88 20.4403 36.73C20.5503 36.53 23.2403 31.87 23.2403 31.87C23.2903 31.73 23.2503 31.64 23.0803 31.65C22.3803 31.67 21.6003 31.65 20.8603 31.53C16.9003 30.88 14.4203 27.76 13.9303 25.73C13.8403 25.34 14.0503 24.85 14.6503 25.09C17.5203 26.21 20.8403 26.87 23.5903 26.86C23.7003 26.86 23.7203 26.7 23.6103 26.68C21.4803 26.42 19.1903 25.98 17.0803 25.19C13.6903 23.91 10.6503 20.13 11.0303 15.32C11.0903 14.55 11.6003 14.4 12.1103 14.79C16.7803 18.44 20.2203 20.04 25.1703 22.25C25.2803 22.3 25.3703 22.14 25.2703 22.09C22.5703 20.83 18.1703 18.44 15.2103 15.85C12.2603 13.27 10.4403 8.80003 12.3203 3.76003C12.6103 2.97003 13.2003 2.74003 13.8603 3.33003C22.2103 10.84 29.8303 17.85 36.5803 23.14C38.7503 24.83 38.1003 27.34 36.8203 28.71Z"   fill="#1764FF" >
</path>
<path d="M37.984 25.8502C37.984 25.8502 31.3372 27.3689 23.594 26.6802C21.463 26.4197 19.1645 25.9814 17.064 25.1902C13.6697 23.9109 10.6318 20.1361 11.014 15.3202C11.0744 14.5527 11.5911 14.3969 12.094 14.7902C16.766 18.4419 20.2017 20.0389 25.154 22.2502C25.2604 22.2976 25.3591 22.1395 25.254 22.0902C22.5579 20.8254 18.1542 18.4397 15.194 15.8502C12.2468 13.2706 10.4229 8.79897 12.304 3.76018C12.598 2.97428 13.1854 2.73828 13.844 3.33018C22.1964 10.8408 29.8065 17.8521 36.564 23.1402C37.5769 23.933 37.984 24.9037 37.984 25.8502Z"   fill="#4187FF" >
</path>
<path d="M25.2652 22.09C22.5691 20.8252 18.1654 18.4395 15.2052 15.85C12.258 13.2704 10.4341 8.79881 12.3152 3.76001C12.6092 2.97401 13.1966 2.73801 13.8552 3.33001C22.2077 10.8405 29.8177 17.8519 36.5752 23.14C36.5752 23.14 27.9613 23.3548 25.2652 22.09Z"   fill="#6BA6FF" >
</path>
</svg>
