<svg xmlns="http://www.w3.org/2000/svg" xmlns:xlink="http://www.w3.org/1999/xlink" width="48" height="48" viewBox="0 0 48 48" fill="none">
<path d="M5.58578 42.4142C6.36683 43.1953 7.63316 43.1953 8.41421 42.4142L43.4142 7.4142C44.1952 6.63319 44.1953 5.36682 43.4142 4.58577C42.6332 3.80472 41.3668 3.80477 40.5858 4.58577L5.58578 39.5858C4.80473 40.3668 4.80473 41.6332 5.58578 42.4142Z" fill-rule="evenodd"  fill="#787878" >
</path>
<path d="M4 19L4 40C4 42.2091 5.79086 44 8 44L29 44C30.1046 44 31 43.1046 31 42C31 40.8954 30.1046 40 29 40L8 40L8 19C8 17.8954 7.10457 17 6 17C4.89543 17 4 17.8954 4 19Z" fill-rule="evenodd"  fill="#424242" >
</path>
</svg>
