<svg xmlns="http://www.w3.org/2000/svg" xmlns:xlink="http://www.w3.org/1999/xlink" width="48" height="48" viewBox="0 0 48 48" fill="none">
<path d="M42.4142 42.4142C43.1953 41.6332 43.1953 40.3668 42.4142 39.5858L7.4142 4.58577C6.63319 3.80477 5.36682 3.80472 4.58577 4.58577C3.80472 5.36682 3.80477 6.6332 4.58577 7.4142L39.5858 42.4142C40.3668 43.1953 41.6332 43.1953 42.4142 42.4142Z" fill-rule="evenodd"  fill="#787878" >
</path>
<path d="M44 19C44 17.8954 43.1046 17 42 17C40.8954 17 40 17.8954 40 19L40 40L19 40C17.8954 40 17 40.8954 17 42C17 43.1046 17.8954 44 19 44L40 44C42.2091 44 44 42.2091 44 40L44 19Z" fill-rule="evenodd"  fill="#424242" >
</path>
</svg>
