<svg xmlns="http://www.w3.org/2000/svg" xmlns:xlink="http://www.w3.org/1999/xlink" width="48" height="48" viewBox="0 0 48 48" fill="none">
<path d="M38.5854 15.5862L38.5858 15.5858C38.9477 15.2239 39.4477 15 40 15C41.1046 15 42 15.8954 42 17C42 17.5523 41.7761 18.0523 41.4142 18.4142L41.4138 18.4146L26.8284 33C25.2663 34.5621 22.7337 34.5621 21.1716 33L6.5858 18.4142C6.2239 18.0523 6 17.5523 6 17C6 15.8954 6.8954 15 8 15C8.5523 15 9.0523 15.2239 9.4142 15.5858L9.4153 15.5868L24 30.1716L38.5854 15.5862Z" fill-rule="evenodd"  fill="#787878" >
</path>
<path d="M30.5854 23.5861L30.5858 23.5858C30.9477 23.2239 31.4477 23 32 23C33.1046 23 34 23.8954 34 25C34 25.5523 33.7761 26.0523 33.4142 26.4142L26.8284 33C25.2663 34.5621 22.7337 34.5621 21.1716 33L14.5867 26.4152L14.5858 26.4142C14.2239 26.0523 14 25.5523 14 25C14 23.8954 14.8954 23 16 23C16.5523 23 17.0523 23.2239 17.4142 23.5858L17.4148 23.5864L24 30.1716L30.5854 23.5861Z" fill-rule="evenodd"  fill="#424242" >
</path>
</svg>
