<svg xmlns="http://www.w3.org/2000/svg" xmlns:xlink="http://www.w3.org/1999/xlink" width="48" height="48" viewBox="0 0 48 48" fill="none">
<path d="M41.6629 15.8889C41.6265 15.8344 41.5876 15.7818 41.546 15.7312C41.5045 15.6806 41.4605 15.6321 41.4142 15.5858C41.3679 15.5395 41.3194 15.4955 41.2688 15.454C41.2182 15.4124 41.1656 15.3735 41.1111 15.3371C41.0567 15.3007 41.0006 15.267 40.9428 15.2362C40.885 15.2053 40.8259 15.1773 40.7654 15.1522C40.7048 15.1272 40.6432 15.1051 40.5806 15.0861C40.5179 15.0671 40.4544 15.0512 40.3902 15.0384C40.3259 15.0257 40.2612 15.0161 40.196 15.0096C40.1308 15.0032 40.0655 15 40 15C39.9345 15 39.8692 15.0032 39.804 15.0096C39.7388 15.0161 39.6741 15.0257 39.6098 15.0384C39.5456 15.0512 39.4821 15.0671 39.4194 15.0861C39.3568 15.1051 39.2952 15.1272 39.2346 15.1522C39.1741 15.1773 39.115 15.2053 39.0572 15.2362C38.9994 15.267 38.9433 15.3007 38.8889 15.3371C38.8344 15.3735 38.7818 15.4124 38.7312 15.454C38.6806 15.4955 38.6321 15.5395 38.5858 15.5858L24 30.1716L9.4142 15.5858C9.36787 15.5395 9.3194 15.4955 9.2688 15.454C9.21813 15.4124 9.16557 15.3735 9.1111 15.3371C9.05663 15.3007 9.00053 15.267 8.9428 15.2362C8.885 15.2053 8.82587 15.1773 8.7654 15.1522C8.70487 15.1272 8.64326 15.1051 8.5806 15.0861C8.51787 15.0671 8.4544 15.0512 8.3902 15.0384C8.32593 15.0257 8.2612 15.0161 8.196 15.0096C8.13087 15.0032 8.06553 15 8 15C7.93447 15 7.86913 15.0032 7.804 15.0096C7.7388 15.0161 7.67407 15.0257 7.6098 15.0384C7.5456 15.0512 7.48213 15.0671 7.4194 15.0861C7.35674 15.1051 7.29513 15.1272 7.2346 15.1522C7.17413 15.1773 7.115 15.2053 7.0572 15.2362C6.99947 15.267 6.94337 15.3007 6.8889 15.3371C6.83443 15.3735 6.78187 15.4124 6.7312 15.454C6.6806 15.4955 6.63213 15.5395 6.5858 15.5858C6.49294 15.6786 6.41003 15.7797 6.3371 15.8889C6.2641 15.998 6.20247 16.1133 6.1522 16.2346C6.102 16.356 6.06407 16.481 6.0384 16.6098C6.0128 16.7386 6 16.8687 6 17C6 17.1313 6.0128 17.2614 6.0384 17.3902C6.06407 17.519 6.102 17.644 6.1522 17.7654C6.20247 17.8867 6.2641 18.0019 6.3371 18.1111C6.41003 18.2203 6.49294 18.3214 6.5858 18.4142L21.1758 33.0042C21.5583 33.3867 21.9987 33.6792 22.4972 33.8817C22.9786 34.0772 23.4795 34.175 24 34.175C24.5205 34.175 25.0214 34.0772 25.5028 33.8817C26.0013 33.6792 26.4417 33.3867 26.8242 33.0042L41.4142 18.4142C41.4605 18.3679 41.5045 18.3194 41.546 18.2688C41.5876 18.2182 41.6265 18.1656 41.6629 18.1111C41.6993 18.0567 41.733 18.0006 41.7638 17.9428C41.7947 17.885 41.8227 17.8259 41.8478 17.7654C41.8728 17.7049 41.8949 17.6433 41.9139 17.5806C41.9329 17.5179 41.9488 17.4544 41.9616 17.3902C41.9743 17.3259 41.984 17.2612 41.9904 17.196C41.9968 17.1308 42 17.0655 42 17C42 16.9345 41.9968 16.8692 41.9904 16.804C41.984 16.7388 41.9743 16.6741 41.9616 16.6098C41.9488 16.5456 41.9329 16.4821 41.9139 16.4194C41.8949 16.3567 41.8728 16.2951 41.8478 16.2346C41.8227 16.1741 41.7947 16.115 41.7638 16.0572C41.733 15.9994 41.6993 15.9433 41.6629 15.8889Z"   fill="#000000" >
</path>
</svg>
