<svg xmlns="http://www.w3.org/2000/svg" xmlns:xlink="http://www.w3.org/1999/xlink" width="48" height="48" viewBox="0 0 48 48" fill="none">
<path d="M15.3371 6.88886C15.3007 6.94332 15.267 6.99944 15.2362 7.05721C15.2053 7.11497 15.1773 7.17412 15.1522 7.23463C15.1272 7.29515 15.1051 7.35675 15.0861 7.41943C15.0671 7.48211 15.0512 7.54558 15.0384 7.60982C15.0257 7.67406 15.0161 7.73878 15.0096 7.80397C15.0032 7.86915 15 7.9345 15 8C15 8.0655 15.0032 8.13085 15.0096 8.19603C15.0161 8.26122 15.0257 8.32594 15.0384 8.39018C15.0512 8.45442 15.0671 8.51789 15.0861 8.58057C15.1051 8.64325 15.1272 8.70485 15.1522 8.76537C15.1773 8.82588 15.2053 8.88503 15.2362 8.94279C15.267 9.00056 15.3007 9.05668 15.3371 9.11114C15.3735 9.16561 15.4124 9.21816 15.454 9.26879C15.4955 9.31942 15.5395 9.3679 15.5858 9.41421L30.1716 24L15.5858 38.5858C15.5395 38.6321 15.4955 38.6806 15.454 38.7312C15.4124 38.7819 15.3735 38.8344 15.3371 38.8889C15.3007 38.9434 15.267 38.9995 15.2362 39.0572C15.2053 39.115 15.1773 39.1741 15.1522 39.2346C15.1272 39.2951 15.1051 39.3567 15.0861 39.4194C15.0671 39.4821 15.0512 39.5456 15.0384 39.6098C15.0257 39.6741 15.0161 39.7388 15.0096 39.804C15.0032 39.8691 15 39.9345 15 40C15 40.0655 15.0032 40.1309 15.0096 40.196C15.0161 40.2612 15.0257 40.3259 15.0384 40.3902C15.0512 40.4544 15.0671 40.5179 15.0861 40.5806C15.1051 40.6433 15.1272 40.7049 15.1522 40.7654C15.1773 40.8259 15.2053 40.885 15.2362 40.9428C15.267 41.0005 15.3007 41.0566 15.3371 41.1111C15.3735 41.1656 15.4124 41.2181 15.454 41.2688C15.4955 41.3194 15.5395 41.3679 15.5858 41.4142C15.6786 41.5071 15.7797 41.59 15.8889 41.6629C15.998 41.7359 16.1133 41.7975 16.2346 41.8478C16.356 41.898 16.481 41.9359 16.6098 41.9616C16.7386 41.9872 16.8687 42 17 42C17.1313 42 17.2614 41.9872 17.3902 41.9616C17.519 41.9359 17.644 41.898 17.7654 41.8478C17.8867 41.7975 18.0019 41.7359 18.1111 41.6629C18.2203 41.59 18.3214 41.5071 18.4142 41.4142L33.0042 26.8242C33.3867 26.4417 33.6792 26.0013 33.8817 25.5028C34.0772 25.0214 34.175 24.5205 34.175 24C34.175 23.4795 34.0772 22.9786 33.8817 22.4972C33.6792 21.9987 33.3867 21.5583 33.0042 21.1758L18.4142 6.58579C18.3679 6.53947 18.3194 6.49553 18.2688 6.45398C18.2182 6.41243 18.1656 6.37345 18.1111 6.33706C18.0567 6.30067 18.0006 6.26703 17.9428 6.23616C17.885 6.20528 17.8259 6.17731 17.7654 6.15224C17.7049 6.12717 17.6433 6.10513 17.5806 6.08612C17.5179 6.06711 17.4544 6.05121 17.3902 6.03843C17.3259 6.02565 17.2612 6.01605 17.196 6.00963C17.1308 6.00321 17.0655 6 17 6C16.9345 6 16.8692 6.00321 16.804 6.00963C16.7388 6.01605 16.6741 6.02565 16.6098 6.03843C16.5456 6.05121 16.4821 6.06711 16.4194 6.08612C16.3567 6.10513 16.2951 6.12717 16.2346 6.15224C16.1741 6.17731 16.115 6.20528 16.0572 6.23616C15.9994 6.26703 15.9433 6.30067 15.8889 6.33706C15.8344 6.37345 15.7818 6.41243 15.7312 6.45398C15.6806 6.49553 15.6321 6.53947 15.5858 6.58579C15.5395 6.6321 15.4955 6.68058 15.454 6.73121C15.4124 6.78184 15.3735 6.83439 15.3371 6.88886Z"   fill="#000000" >
</path>
</svg>
