<svg xmlns="http://www.w3.org/2000/svg" xmlns:xlink="http://www.w3.org/1999/xlink" width="48" height="48" viewBox="0 0 48 48" fill="none">
<path d="M24 45C35.598 45 45 35.598 45 24C45 12.402 35.598 3 24 3C12.402 3 3 12.402 3 24C3 35.598 12.402 45 24 45ZM24 7C33.3888 7 41 14.6112 41 24C41 33.3888 33.3888 41 24 41C14.6112 41 7 33.3888 7 24C7 14.6112 14.6112 7 24 7Z" fill-rule="evenodd"  fill="#424242" >
</path>
<path d="M24 31C27.866 31 31 27.866 31 24C31 20.134 27.866 17 24 17C20.134 17 17 20.134 17 24C17 27.866 20.134 31 24 31ZM24 21C25.6568 21 27 22.3432 27 24C27 25.6568 25.6568 27 24 27C22.3432 27 21 25.6568 21 24C21 22.3432 22.3432 21 24 21Z" fill-rule="evenodd"  fill="#424242" >
</path>
<path d="M28.3882 14.912C30.7359 15.7003 32.2938 17.2561 33.0618 19.5794C33.3102 20.4015 34.0735 21 34.9766 21C36.0811 21 36.9766 20.1046 36.9766 19C36.9766 18.7662 36.9364 18.5417 36.8627 18.3331C35.6771 14.7344 33.2737 12.3291 29.6524 11.1171C29.4413 11.0413 29.2138 11 28.9766 11C27.872 11 26.9766 11.8954 26.9766 13C26.9766 13.8998 27.5708 14.6608 28.3882 14.912Z" fill-rule="evenodd"  fill="#787878" >
</path>
</svg>
