<svg xmlns="http://www.w3.org/2000/svg" xmlns:xlink="http://www.w3.org/1999/xlink" width="48" height="48" viewBox="0 0 48 48" fill="none">
<path d="M3 36.5L3 10.5C3 6.08 6.58 2.5 11 2.5L18.31 2.5C20.59 2.5 22.77 3.48 24.29 5.18L29.8996 11.5L37 11.5C41.42 11.5 45 15.08 45 19.5L45 36.5C45 40.92 41.42 44.5 37 44.5L11 44.5C6.58 44.5 3 40.92 3 36.5ZM32 39L35 39C37.21 39 39 37.21 39 35L39 32C39 29.79 37.21 28 35 28L32 28C29.79 28 28 29.79 28 32L28 35C28 37.21 29.79 39 32 39ZM11.0002 33L18.3302 32.9993C19.4402 32.9992 20.3301 32.0991 20.33 30.9991C20.3299 29.8991 19.4398 28.9992 18.3298 28.9993L10.9998 29C9.8998 29.0001 8.99989 29.9002 9 31.0002C9.00011 32.1002 9.9002 33.0001 11.0002 33ZM35 32L32 32L32 35L35 35L35 32ZM11.0002 39L22.0002 38.9989C23.1002 38.9988 24.0001 38.0987 24 36.9987C23.9999 35.8987 23.0998 34.9988 21.9998 34.9989L10.9998 35C9.8998 35.0001 8.99989 35.9002 9 37.0002C9.00011 38.1002 9.9002 39.0001 11.0002 39Z" fill-rule="evenodd"  fill="#000000" >
</path>
</svg>
