<svg xmlns="http://www.w3.org/2000/svg" xmlns:xlink="http://www.w3.org/1999/xlink" width="48" height="48" viewBox="0 0 48 48" fill="none">
<path d="M40.9696 17C40.8353 15.6773 40.2603 14.4251 39.33 13.46L31.13 4.86C30.1644 3.84308 28.8774 3.20589 27.5 3.04206L27.5 13C27.5 15.21 29.29 17 31.5 17L40.9696 17ZM23.5 3L15 3C10.58 3 7 6.58 7 11L7 37C7 41.42 10.58 45 15 45L33 45C37.42 45 41 41.42 41 37L41 21L31.5 21C27.08 21 23.5 17.42 23.5 13L23.5 3ZM33 37C33 39.21 31.21 41 29 41L26 41C23.79 41 22 39.21 22 37L22 34C22 31.79 23.79 30 26 30L29 30C31.21 30 33 31.79 33 34L33 37ZM13.0003 35.0001L17.0003 34.9993C18.1003 34.9991 19.0001 34.0989 18.9999 32.9989C18.9997 31.8989 18.0995 30.9991 16.9995 30.9993L12.9995 31.0001C11.8995 31.0003 10.9997 31.9005 10.9999 33.0005C11.0001 34.1005 11.9003 35.0003 13.0003 35.0001ZM26 37L26 34L29 34L29 37L26 37ZM13.0004 40.9998L19.0004 40.9986C20.1004 40.9984 21.0002 40.0982 21 38.9982C20.9998 37.8982 20.0996 36.9984 18.9996 36.9986L12.9996 36.9998C11.8996 37 10.9998 37.9002 11 39.0002C11.0002 40.1002 11.9004 41 13.0004 40.9998Z" fill-rule="evenodd"  fill="#000000" >
</path>
</svg>
