<svg xmlns="http://www.w3.org/2000/svg" xmlns:xlink="http://www.w3.org/1999/xlink" width="48" height="48" viewBox="0 0 48 48" fill="none">
<path d="M3 34C3 35.1046 3.89543 36 5 36L43 36C44.1046 36 45 35.1046 45 34C45 32.8954 44.1046 32 43 32L5 32C3.89543 32 3 32.8954 3 34Z" fill-rule="evenodd"  fill="#787878" >
</path>
<path d="M16 5C16 3.89543 15.1046 3 14 3C12.8954 3 12 3.89543 12 5L12 43C12 44.1046 12.8954 45 14 45C15.1046 45 16 44.1046 16 43L16 5Z" fill-rule="evenodd"  fill="#424242" >
</path>
<path d="M36 5C36 3.89543 35.1046 3 34 3C32.8954 3 32 3.89543 32 5L32 43C32 44.1046 32.8954 45 34 45C35.1046 45 36 44.1046 36 43L36 5Z" fill-rule="evenodd"  fill="#787878" >
</path>
<path d="M32 12L5 12C3.89543 12 3 12.8954 3 14C3 15.1046 3.89543 16 5 16L32 16L32 12ZM36 16L36 12L43 12C44.1046 12 45 12.8954 45 14C45 15.1046 44.1046 16 43 16L36 16Z" fill-rule="evenodd"  fill="#424242" >
</path>
</svg>
