<svg xmlns="http://www.w3.org/2000/svg" xmlns:xlink="http://www.w3.org/1999/xlink" width="48" height="48" viewBox="0 0 48 48" fill="none">
<path d="M39.1439 39.8436L44.9764 21.8927C45.1748 21.2821 45.2727 20.6566 45.2703 20.0162C45.2679 19.3906 45.1699 18.7801 44.9764 18.1845C44.7828 17.5889 44.5032 17.0373 44.1376 16.5299C43.7631 16.0103 43.3162 15.5618 42.7968 15.1845L27.5269 4.09024C27.0075 3.71289 26.4429 3.42643 25.833 3.23085C25.2374 3.03984 24.6264 2.94434 24.0002 2.94434C23.3739 2.94434 22.763 3.03984 22.1674 3.23085C21.5574 3.42643 20.9928 3.71289 20.4735 4.09024L5.20354 15.1845C4.68417 15.5618 4.23726 16.0103 3.86279 16.5299C3.49707 17.0373 3.21744 17.5889 3.02392 18.1845C2.83039 18.7801 2.73242 19.3906 2.73003 20.0162C2.72757 20.6566 2.82553 21.2821 3.02392 21.8927L8.8565 39.8436C9.05488 40.4541 9.34329 41.0177 9.72173 41.5344C10.0913 42.039 10.5295 42.4754 11.0361 42.8436C11.5428 43.2116 12.0932 43.4935 12.6873 43.6891C13.2957 43.8893 13.9209 43.9895 14.5629 43.9895L33.4375 43.9895C34.0795 43.9895 34.7046 43.8893 35.313 43.6891C35.9071 43.4935 36.4575 43.2116 36.9642 42.8436C37.4708 42.4754 37.909 42.039 38.2786 41.5344C38.657 41.0177 38.9455 40.4541 39.1439 39.8436ZM41.1722 19.4206C41.306 19.8326 41.306 20.2446 41.1722 20.6566L35.3396 38.6075C35.2057 39.0195 34.9635 39.3528 34.6131 39.6075C34.2626 39.8621 33.8707 39.9895 33.4375 39.9895L14.5629 39.9895C14.1296 39.9895 13.7377 39.8621 13.3873 39.6075C13.0368 39.3528 12.7946 39.0195 12.6607 38.6075L6.82814 20.6566C6.69427 20.2446 6.69427 19.8326 6.82814 19.4206C6.96201 19.0085 7.20419 18.6752 7.55468 18.4206L22.8246 7.32631C23.1751 7.07166 23.567 6.94434 24.0002 6.94434C24.4334 6.94434 24.8252 7.07166 25.1758 7.32631L40.4457 18.4206C40.7961 18.6752 41.0383 19.0085 41.1722 19.4206Z" fill-rule="evenodd"  fill="#000000" >
</path>
</svg>
