<svg xmlns="http://www.w3.org/2000/svg" xmlns:xlink="http://www.w3.org/1999/xlink" width="48" height="48" viewBox="0 0 48 48" fill="none">
<path d="M35.9283 4.84986C36.3153 4.4242 36.796 4.19836 37.3707 4.17234C37.9459 4.16459 38.4391 4.36183 38.8503 4.76404L44.4218 10.389C44.8002 10.7819 44.9932 11.251 45.0008 11.7965C44.9932 12.3419 44.8002 12.8111 44.4218 13.2039L35.5087 22.2027L35.5075 22.2039C35.1451 22.5698 34.6423 22.7965 34.0866 22.7965C32.982 22.7965 32.0866 21.9011 32.0866 20.7965C32.0866 20.2477 32.3076 19.7504 32.6656 19.3891L32.6659 19.3888L40.1858 11.7965L37.5154 9.10037L30.0234 17.61C29.6567 18.0307 29.117 18.2965 28.5151 18.2965C27.4106 18.2965 26.5151 17.4011 26.5151 16.2965C26.5151 15.7865 26.706 15.3212 27.0202 14.9679L35.9283 4.84986L35.9283 4.84986Z" fill-rule="evenodd"  fill="#787878" >
</path>
<path d="M29.8603 14.8161L41.0032 24.9411C41.3718 25.2836 41.5862 25.7047 41.6464 26.2043C41.6954 26.705 41.5769 27.1624 41.2909 27.5764C41.1478 27.7787 40.9439 28.0416 40.6791 28.365C40.1741 28.9818 39.6051 29.6176 38.9719 30.2725C36.9707 32.3422 34.6931 34.2365 32.1391 35.9555C28.5737 38.3553 24.707 40.2402 20.539 41.6103C15.3451 43.3176 9.83244 44.1713 4.00111 44.1713C3.13755 44.1337 2.52225 43.7236 2.1552 42.9411C1.8575 42.1296 1.99915 41.4039 2.58014 40.7639C8.83307 34.4508 14.7845 28.2551 20.4344 22.1768C22.1987 20.2787 23.8267 18.5066 25.3185 16.8605C26.0622 16.0398 26.6289 15.4096 27.0186 14.9698C27.3919 14.5606 27.8548 14.3371 28.4074 14.2992C28.9608 14.2773 29.4452 14.4496 29.8603 14.8161ZM9.00764 39.9379C12.5798 39.5986 16.0072 38.8894 19.2899 37.8104C23.1075 36.5555 26.6461 34.831 29.9056 32.6371C32.2267 31.0749 34.2903 29.3599 36.0963 27.492C36.3821 27.1964 36.652 26.9066 36.9058 26.6226L28.6597 19.1298C28.5391 19.2631 28.4134 19.402 28.2825 19.5465C26.7795 21.2051 25.14 22.9896 23.3642 24.9001C18.7758 29.8363 13.9903 34.8489 9.00764 39.9379Z" fill-rule="evenodd"  fill="#424242" >
</path>
</svg>
