<svg xmlns="http://www.w3.org/2000/svg" xmlns:xlink="http://www.w3.org/1999/xlink" width="48" height="48" viewBox="0 0 48 48" fill="none">
<path d="M39 17.0002L17 17.0002C15.8954 17.0002 15 16.1048 15 15.0002C15 13.8957 15.8954 13.0002 17 13.0002L39 13.0002C42.3137 13.0002 45 15.6865 45 19.0002L45 29.0002C45 32.3139 42.3137 35.0002 39 35.0002L17 35.0002C15.8954 35.0002 15 34.1048 15 33.0002C15 31.8956 15.8954 31.0002 17 31.0002L39 31.0002C40.1046 31.0002 41 30.1048 41 29.0002L41 19.0002C41 17.8957 40.1046 17.0002 39 17.0002Z" fill-rule="evenodd"  fill="#787878" >
</path>
<path d="M19 5C19 3.89543 18.1046 3 17 3C15.8954 3 15 3.89543 15 5L15 43C15 44.1046 15.8954 45 17 45C18.1046 45 19 44.1046 19 43L19 5Z" fill-rule="evenodd"  fill="#424242" >
</path>
<path d="M9 17L13 17L13 13L9 13C5.68629 13 3 15.6863 3 19L3 29C3 32.3137 5.68629 35 9 35L13 35L13 31L9 31C7.89543 31 7 30.1046 7 29L7 19C7 17.8954 7.89543 17 9 17Z" fill-rule="evenodd"  fill="#424242" >
</path>
</svg>
