<svg xmlns="http://www.w3.org/2000/svg" xmlns:xlink="http://www.w3.org/1999/xlink" width="48" height="48" viewBox="0 0 48 48" fill="none">
<path d="M32.5 15.5L32.5 7L37 7C37.54 7 38.06 7.1 38.55 7.31C39.03 7.52 39.46 7.8 39.83 8.17C40.2 8.54 40.48 8.97 40.69 9.45C40.9 9.94 41 10.46 41 11L41 15.5L32.5 15.5ZM11 7C10.46 7 9.94 7.1 9.45 7.31C8.97 7.52 8.54 7.8 8.17 8.17C7.8 8.54 7.52 8.97 7.31 9.45C7.1 9.94 7 10.46 7 11L7 15.5L15.5 15.5L15.5 7L11 7ZM42.66 42.66C41.92 43.39 41.07 43.96 40.11 44.37C39.12 44.79 38.08 45 37 45L11 45C9.92 45 8.88 44.79 7.89 44.37C6.93 43.96 6.08 43.39 5.34 42.66C4.61 41.92 4.04 41.07 3.63 40.11C3.21 39.12 3 38.08 3 37L3 11C3 9.92 3.21 8.88 3.63 7.89C4.04 6.93 4.61 6.08 5.34 5.34C6.08 4.61 6.93 4.04 7.89 3.63C8.88 3.21 9.92 3 11 3L37 3C38.08 3 39.12 3.21 40.11 3.63C41.07 4.04 41.92 4.61 42.66 5.34C43.39 6.08 43.96 6.93 44.37 7.89C44.79 8.88 45 9.92 45 11L45 37C45 38.08 44.79 39.12 44.37 40.11C43.96 41.07 43.39 41.92 42.66 42.66ZM28.5 32.5L19.5 32.5L19.5 41L28.5 41L28.5 32.5ZM8.17 39.83C8.54 40.2 8.97 40.48 9.45 40.69C9.94 40.9 10.46 41 11 41L15.5 41L15.5 32.5L7 32.5L7 37C7 37.54 7.1 38.06 7.31 38.55C7.52 39.03 7.8 39.46 8.17 39.83ZM41 28.5L32.5 28.5L32.5 19.5L41 19.5L41 28.5ZM32.5 32.5L32.5 41L37 41C37.54 41 38.06 40.9 38.55 40.69C39.03 40.48 39.46 40.2 39.83 39.83C40.2 39.46 40.48 39.03 40.69 38.55C40.9 38.06 41 37.54 41 37L41 32.5L32.5 32.5ZM7 28.5L15.5 28.5L15.5 19.5L7 19.5L7 28.5ZM28.5 19.5L19.5 19.5L19.5 28.5L28.5 28.5L28.5 19.5ZM28.5 7L19.5 7L19.5 15.5L28.5 15.5L28.5 7Z" fill-rule="evenodd"  fill="#000000" >
</path>
</svg>
