<svg xmlns="http://www.w3.org/2000/svg" xmlns:xlink="http://www.w3.org/1999/xlink" width="48" height="48" viewBox="0 0 48 48" fill="none">
<path d="M31 23.55L31 26.5C31 27.6046 31.8954 28.5 33 28.5C34.1046 28.5 35 27.6046 35 26.5L35 23.55C35 21.5167 36 20.5 38 20.5C40 20.5 41 21.5167 41 23.55L41 26.5C41 28.408 39.4127 30.3768 36.2381 32.4064C32.4127 34.8521 30.5 37.3867 30.5 40.01L30.5 41.5C30.5 42.6046 31.3954 43.5 32.5 43.5L43 43.5C44.1046 43.5 45 42.6046 45 41.5C45 40.3954 44.1046 39.5 43 39.5L34.5783 39.5C34.8943 38.4415 36.1658 37.2003 38.3928 35.7765C42.7976 32.9604 45 29.8682 45 26.5L45 23.55C45 22.3964 44.7225 21.259 44.1674 20.1377C42.9668 17.7126 40.911 16.5 38 16.5C35.089 16.5 33.0332 17.7126 31.8326 20.1377C31.2775 21.259 31 22.3964 31 23.55Z" fill-rule="evenodd"  fill="#1764FF" >
</path>
<path d="M5.99994 43.5001C7.10451 43.5001 7.99996 42.6047 8 41.5001L8.001 6.50011C8.00104 5.39552 7.10563 4.50009 6.00106 4.50006C4.89649 4.50003 4.00104 5.3954 4.001 6.5L4 41.5C3.99996 42.6046 4.89537 43.5 5.99994 43.5001Z" fill-rule="evenodd"  fill="#4187FF" >
</path>
<path d="M27.9981 23.5C27.9981 22.3954 27.1026 21.5 25.998 21.5001L5.99994 21.5011C4.89534 21.5011 3.99998 22.3966 4.00003 23.5012C4.00009 24.6057 4.89553 25.5011 6.00013 25.5011L25.9982 25.5001C27.1028 25.5 27.9982 24.6046 27.9981 23.5Z" fill-rule="evenodd"  fill="#4187FF" >
</path>
<path d="M25.9999 43.5C27.1045 43.5001 28 42.6047 28 41.5001L28.0009 6.5001C28.0009 5.3955 27.1055 4.50008 26.0009 4.50005C24.8963 4.50002 24.0009 5.3954 24.0009 6.5L24 41.5C24 42.6046 24.8954 43.5 25.9999 43.5Z" fill-rule="evenodd"  fill="#4187FF" >
</path>
</svg>
