<svg xmlns="http://www.w3.org/2000/svg" xmlns:xlink="http://www.w3.org/1999/xlink" width="48" height="48" viewBox="0 0 48 48" fill="none">
<path d="M28 37L11.5 37C10.3954 37 9.5 37.8954 9.5 39C9.5 40.1046 10.3954 41 11.5 41L28 41C36.0081 41 42.5 34.5081 42.5 26.5C42.5 18.4919 36.0081 12 28 12L9.5 12C8.3954 12 7.5 12.8954 7.5 14C7.5 15.1046 8.3954 16 9.5 16L28 16C33.799 16 38.5 20.701 38.5 26.5C38.5 32.299 33.799 37 28 37Z" fill-rule="evenodd"  fill="#4187FF" >
</path>
<path d="M15.4525 9.31268C15.876 8.94596 16.144 8.4043 16.144 7.80005C16.144 6.69548 15.2486 5.80005 14.144 5.80005C13.6361 5.80005 13.1724 5.98936 12.8197 6.30127L7.40308 11.0408C5.58179 12.6345 5.58179 15.4678 7.40308 17.0614L12.8197 21.8009C13.1724 22.1128 13.6361 22.3022 14.144 22.3022C15.2486 22.3022 16.144 21.4067 16.144 20.3022C16.144 19.6979 15.876 19.1562 15.4524 18.7895L10.0371 14.0511L15.4525 9.31268Z" fill-rule="evenodd"  fill="#1764FF" >
</path>
</svg>
