<svg xmlns="http://www.w3.org/2000/svg" xmlns:xlink="http://www.w3.org/1999/xlink" width="48" height="48" viewBox="0 0 48 48" fill="none">
<path d="M38.5 23.9356L38.5 41.5C38.5 42.6046 39.3954 43.5 40.5 43.5C41.6046 43.5 42.5 42.6046 42.5 41.5L42.5 18.785C42.5 17.523 41.477 16.5 40.215 16.5C39.133 16.5 38.4108 17.0114 38.0483 18.0341C37.3474 20.0114 36.1647 21 34.5 21L34 21C32.8954 21 32 21.8954 32 23C32 24.1046 32.8954 25 34 25L34.5 25C36.0431 25 37.3764 24.6452 38.5 23.9356Z" fill-rule="evenodd"  fill="#1764FF" >
</path>
<path d="M5.99994 43.5001C7.10451 43.5001 7.99996 42.6047 8 41.5001L8.001 6.50011C8.00103 5.39552 7.10562 4.50009 6.00105 4.50006C4.89648 4.50003 4.00103 5.3954 4.001 6.5L4 41.5C3.99996 42.6046 4.89537 43.5 5.99994 43.5001Z" fill-rule="evenodd"  fill="#4187FF" >
</path>
<path d="M27.9981 23.5C27.9981 22.3954 27.1026 21.5 25.998 21.5001L5.99994 21.5011C4.89534 21.5011 3.99998 22.3966 4.00003 23.5012C4.00009 24.6057 4.89553 25.5011 6.00013 25.5011L25.9982 25.5001C27.1028 25.5 27.9982 24.6046 27.9981 23.5Z" fill-rule="evenodd"  fill="#4187FF" >
</path>
<path d="M26 43.5C27.1045 43.5001 28 42.6047 28 41.5001L28.0009 6.5001C28.0009 5.3955 27.1055 4.50008 26.0009 4.50005C24.8964 4.50002 24.0009 5.3954 24.0009 6.5L24 41.5C24 42.6046 24.8954 43.5 26 43.5Z" fill-rule="evenodd"  fill="#4187FF" >
</path>
</svg>
