<svg xmlns="http://www.w3.org/2000/svg" xmlns:xlink="http://www.w3.org/1999/xlink" width="48" height="48" viewBox="0 0 48 48" fill="none">
<path d="M40 23L40 6C40 4.8954 39.1046 4 38 4C36.8954 4 36 4.8954 36 6L36 23C36 29.6274 30.6274 35 24 35C22.3715 35 20.8148 34.6859 19.3297 34.0578C17.8942 33.4507 16.6226 32.5932 15.5147 31.4853C14.4068 30.3774 13.5493 29.1058 12.9422 27.6703C12.3141 26.1852 12 24.6285 12 23L12 6C12 4.8954 11.1046 4 10 4C8.89543 4 8 4.8954 8 6L8 23C8 25.1693 8.41939 27.2454 9.25818 29.2285C10.0679 31.143 11.2106 32.838 12.6863 34.3137C14.162 35.7894 15.857 36.9321 17.7715 37.7418C19.7546 38.5806 21.8307 39 24 39C32.8366 39 40 31.8365 40 23Z" fill-rule="evenodd"  fill="#787878" >
</path>
<path d="M6.99996 43.0032C7.00007 44.1077 7.89559 45.0031 9.00016 45.003L39.0002 44.9999C40.1048 44.9998 41.0001 44.1043 41 42.9997C40.9998 41.8951 40.1044 40.9998 38.9998 40.9999L8.99976 41.003C7.89519 41.0031 6.99985 41.8986 6.99996 43.0032Z" fill-rule="evenodd"  fill="#424242" >
</path>
</svg>
