<svg xmlns="http://www.w3.org/2000/svg" xmlns:xlink="http://www.w3.org/1999/xlink" width="48" height="48" viewBox="0 0 48 48" fill="none">
<path d="M10 42L38 42C41.31 42 44 39.31 44 36L44 12C44 8.69 41.31 6 38 6L10 6C6.69 6 4 8.69 4 12L4 36C4 39.31 6.69 42 10 42Z"   fill="#FFC7BF" >
</path>
<path d="M2 36C2 40.4183 5.58172 44 10 44L38 44C42.4183 44 46 40.4183 46 36L46 12C46 7.58172 42.4183 4 38 4L10 4C5.58172 4 2 7.58172 2 12L2 36ZM38 40L10 40C7.79086 40 6 38.2091 6 36L6 12C6 9.79086 7.79086 8 10 8L38 8C40.2091 8 42 9.79086 42 12L42 36C42 38.2091 40.2091 40 38 40Z" fill-rule="evenodd"  fill="#FF766C" >
</path>
<path d="M18.5858 14.5858C18.9477 14.2239 19.4477 14 20 14C21.1046 14 22 14.8954 22 16C22 16.5523 21.7761 17.0523 21.4142 17.4142L21.4135 17.415L14.8284 24L21.4132 30.5848L21.4142 30.5858C21.7761 30.9477 22 31.4477 22 32C22 33.1046 21.1046 34 20 34C19.4477 34 18.9477 33.7761 18.5858 33.4142L18.5849 33.4133L12 26.8284C10.4379 25.2663 10.4379 22.7337 12 21.1716L18.5858 14.5858Z" fill-rule="evenodd"  fill="#FF1A1A" >
</path>
<path d="M26.5861 17.4146L26.5858 17.4142C26.2239 17.0523 26 16.5523 26 16C26 14.8954 26.8954 14 28 14C28.5523 14 29.0523 14.2239 29.4142 14.5858L36 21.1716C37.5621 22.7337 37.5621 25.2663 36 26.8284L29.4152 33.4133L29.4142 33.4142C29.0523 33.7761 28.5523 34 28 34C26.8954 34 26 33.1046 26 32C26 31.4477 26.2239 30.9477 26.5858 30.5858L26.5864 30.5852L33.1716 24L26.5861 17.4146Z" fill-rule="evenodd"  fill="#FF1A1A" >
</path>
</svg>
