<svg xmlns="http://www.w3.org/2000/svg" xmlns:xlink="http://www.w3.org/1999/xlink" width="48" height="48" viewBox="0 0 48 48" fill="none">
<path d="M26 2L22 2C18.6863 2 16 4.68629 16 8L16 9C11.5817 9 8 12.5817 8 17L8 36C8 40.4183 11.5817 44 16 44L32 44C36.4183 44 40 40.4183 40 36L40 17C40 12.5817 36.4183 9 32 9L32 8C32 4.68629 29.3137 2 26 2ZM28 9L28 8C28 6.89543 27.1046 6 26 6L22 6C20.8954 6 20 6.89543 20 8L20 9L28 9ZM16 13C13.7909 13 12 14.7909 12 17L12 36C12 38.2091 13.7909 40 16 40L32 40C34.2091 40 36 38.2091 36 36L36 17C36 14.7909 34.2091 13 32 13L16 13Z" fill-rule="evenodd"  fill="#787878" >
</path>
<path d="M15 18.0012C15.0001 19.1058 15.8956 20.0011 17.0001 20.001L27.0001 20C28.1047 19.9999 29.0001 19.1044 29 17.9999C28.9998 16.8953 28.1044 15.9999 26.9998 16L16.9998 16.001C15.8952 16.0011 14.9998 16.8967 15 18.0012Z" fill-rule="evenodd"  fill="#424242" >
</path>
<path d="M15.0001 24.0012C15.0003 25.1058 15.8958 26.0011 17.0004 26.0009L23.0004 25.9999C24.105 25.9997 25.0003 25.1042 25.0001 23.9996C24.9999 22.895 24.1043 21.9997 22.9998 21.9999L16.9998 22.0009C15.8952 22.0011 14.9999 22.8967 15.0001 24.0012Z" fill-rule="evenodd"  fill="#424242" >
</path>
</svg>
