<svg xmlns="http://www.w3.org/2000/svg" xmlns:xlink="http://www.w3.org/1999/xlink" width="48" height="48" viewBox="0 0 48 48" fill="none">
<path d="M25.7237 2.99634L38.8497 2.99638C39.6827 2.99637 40.4806 3.15771 41.2435 3.48039C41.9793 3.79158 42.6305 4.23051 43.1972 4.79718C43.7639 5.36385 44.2028 6.01508 44.514 6.75087C44.8367 7.51373 44.998 8.31169 44.998 9.14474L44.9981 21.7757C44.9981 22.5911 44.8421 23.3753 44.53 24.1286C44.218 24.8819 43.7737 25.5468 43.1972 26.1233L25.3082 44.0123C24.7246 44.5959 24.053 45.0433 23.2936 45.3545C22.5605 45.6547 21.7968 45.8076 21.0023 45.813C20.2079 45.8184 19.4422 45.676 18.7051 45.3857C17.9415 45.0848 17.2639 44.6466 16.6725 44.071L3.61906 31.3673C1.16216 28.9763 1.13544 25.0378 3.55959 22.6136L21.3761 4.79716C21.9526 4.22064 22.6175 3.77637 23.3708 3.46436C24.124 3.15235 24.9083 2.99634 25.7237 2.99634ZM25.7236 6.99635C25.4387 6.99636 25.1647 7.05088 24.9015 7.15989C24.6383 7.26891 24.4059 7.42413 24.2045 7.62556L6.38799 25.442C5.54096 26.2891 5.55033 27.6653 6.40877 28.5008L19.4622 41.2045C19.6697 41.4064 19.906 41.5596 20.1711 41.664C20.4283 41.7653 20.6964 41.815 20.9752 41.8131C21.254 41.8112 21.5213 41.7579 21.7771 41.6531C22.0408 41.545 22.275 41.3886 22.4798 41.1839L40.3688 23.2949C40.5703 23.0934 40.7255 22.8611 40.8345 22.5979C40.9435 22.3347 40.998 22.0606 40.998 21.7757L40.9981 9.14475C40.998 8.85243 40.942 8.57389 40.8301 8.30911C40.7214 8.05231 40.5677 7.82447 40.3688 7.62558C40.1699 7.4267 39.9421 7.27294 39.6853 7.16431C39.4205 7.05235 39.142 6.99634 38.8496 6.9963L25.7236 6.99635ZM35.9995 17.4979C35.9995 20.5355 33.5371 22.9979 30.4995 22.9979C27.462 22.9979 24.9995 20.5355 24.9995 17.4979C24.9995 14.4603 27.462 11.9979 30.4995 11.9979C33.5371 11.9979 35.9995 14.4603 35.9995 17.4979ZM31.9995 17.4979C31.9995 16.6695 31.328 15.9979 30.4995 15.9979C29.6711 15.9979 28.9995 16.6695 28.9995 17.4979C28.9995 18.3263 29.6711 18.9979 30.4995 18.9979C31.328 18.9979 31.9995 18.3263 31.9995 17.4979Z" fill-rule="evenodd"  fill="#000000" >
</path>
</svg>
