<svg xmlns="http://www.w3.org/2000/svg" xmlns:xlink="http://www.w3.org/1999/xlink" width="48" height="48" viewBox="0 0 48 48" fill="none">
<path d="M20.9907 3.07128C19.9923 3.47613 19.1098 4.06187 18.3432 4.8285L4.8285 18.3432C4.06187 19.1098 3.47613 19.9923 3.07128 20.9907C2.68066 21.9539 2.48535 22.9571 2.48535 24.0001C2.48535 25.0431 2.68066 26.0462 3.07128 27.0095C3.47613 28.0078 4.06187 28.8903 4.8285 29.657L18.3432 43.1717C21.4674 46.2959 26.5328 46.2959 29.657 43.1717L43.1717 29.657C46.2959 26.5328 46.2959 21.4674 43.1717 18.3432L29.657 4.8285C28.8903 4.06187 28.0078 3.47613 27.0095 3.07128C26.0462 2.68066 25.0431 2.48535 24.0001 2.48535C22.9571 2.48535 21.9539 2.68066 20.9907 3.07128ZM7.65692 21.1717L21.1717 7.65692C21.5559 7.27267 21.9967 6.97973 22.4939 6.7781C22.9751 6.58293 23.4772 6.48535 24.0001 6.48535C24.5229 6.48535 25.025 6.58293 25.5063 6.7781C26.0035 6.97973 26.4442 7.27267 26.8285 7.65692L40.3432 21.1717C41.9053 22.7338 41.9053 25.2664 40.3432 26.8285L26.8285 40.3432C25.2664 41.9053 22.7338 41.9053 21.1717 40.3432L7.65692 26.8285C7.27267 26.4442 6.97973 26.0035 6.7781 25.5063C6.58293 25.025 6.48535 24.5229 6.48535 24.0001C6.48535 23.4772 6.58293 22.9751 6.7781 22.4939C6.97973 21.9967 7.27267 21.5559 7.65692 21.1717Z" fill-rule="evenodd"  fill="#787878" >
</path>
<path d="M24 33C28.9706 33 33 28.9706 33 24C33 19.0294 28.9706 15 24 15C19.0294 15 15 19.0294 15 24C15 28.9706 19.0294 33 24 33ZM24 19C26.7614 19 29 21.2386 29 24C29 26.7614 26.7614 29 24 29C21.2386 29 19 26.7614 19 24C19 21.2386 21.2386 19 24 19Z" fill-rule="evenodd"  fill="#424242" >
</path>
</svg>
