<svg xmlns="http://www.w3.org/2000/svg" xmlns:xlink="http://www.w3.org/1999/xlink" width="48" height="48" viewBox="0 0 48 48" fill="none">
<path d="M24.0033 6.99927C25.0833 6.99927 26.1033 7.20927 27.0833 7.61927C28.0333 8.01927 28.8633 8.58927 29.5933 9.31927C30.3233 10.0493 30.8933 10.8893 31.2933 11.8393C31.7033 12.8193 31.9133 13.8393 31.9133 14.9193L31.9133 25.0193C31.9133 26.0993 31.7033 27.1193 31.2933 28.0993C30.8933 29.0493 30.3233 29.8893 29.5933 30.6193C28.8633 31.3493 28.0333 31.9193 27.0833 32.3193C26.1033 32.7293 25.0833 32.9393 24.0033 32.9393C22.9533 32.9393 21.9433 32.7393 20.9733 32.3393C20.0033 31.9393 19.1433 31.3693 18.4033 30.6293C17.6533 29.8793 17.0833 29.0193 16.6833 28.0493C16.2833 27.0793 16.0833 26.0693 16.0833 25.0193L16.0833 14.9193C16.0833 13.8693 16.2833 12.8593 16.6833 11.8893C17.0833 10.9193 17.6533 10.0593 18.3933 9.31927C19.1433 8.56927 20.0033 7.99927 20.9733 7.59927C21.9433 7.19927 22.9533 6.99927 24.0033 6.99927ZM4.5 25.5008L4.5 25.1508C4.5 25.0808 4.5 25.0208 4.51 24.9508C4.52 24.8908 4.53 24.8208 4.54 24.7608C4.55 24.7008 4.57 24.6308 4.59 24.5708C4.61 24.5108 4.63 24.4508 4.65 24.3808C4.68 24.3208 4.71 24.2608 4.74 24.2108C4.77 24.1508 4.8 24.0908 4.84 24.0408C4.87 23.9808 4.91 23.9308 4.95 23.8808C5 23.8308 5.04 23.7808 5.09 23.7408C5.13 23.6908 5.18 23.6508 5.23 23.6008C5.28 23.5608 5.33 23.5208 5.39 23.4908C5.44 23.4508 5.5 23.4208 5.56 23.3908C5.61 23.3608 5.67 23.3308 5.73 23.3008C5.8 23.2808 5.86 23.2608 5.92 23.2408C5.98 23.2208 6.05 23.2008 6.11 23.1908C6.17 23.1808 6.24 23.1708 6.3 23.1608C6.37 23.1508 6.43 23.1508 6.5 23.1508C6.57 23.1508 6.63 23.1508 6.7 23.1608C6.76 23.1708 6.83 23.1808 6.89 23.1908C6.95 23.2008 7.02 23.2208 7.08 23.2408C7.14 23.2608 7.2 23.2808 7.27 23.3008C7.33 23.3308 7.39 23.3608 7.44 23.3908C7.5 23.4208 7.56 23.4508 7.61 23.4908C7.67 23.5208 7.72 23.5608 7.77 23.6008C7.82 23.6508 7.87 23.6908 7.91 23.7408C7.96 23.7808 8 23.8308 8.05 23.8808C8.09 23.9308 8.13 23.9808 8.16 24.0408C8.2 24.0908 8.23 24.1508 8.26 24.2108C8.29 24.2608 8.32 24.3208 8.35 24.3808C8.37 24.4508 8.39 24.5108 8.41 24.5708C8.43 24.6308 8.45 24.7008 8.46 24.7608C8.47 24.8208 8.48 24.8908 8.49 24.9508C8.5 25.0208 8.5 25.0808 8.5 25.1508L8.5 25.5008C8.5 27.5608 8.89 29.5308 9.68 31.4308C10.47 33.3308 11.59 35.0008 13.04 36.4508C14.5 37.9108 16.17 39.0308 18.07 39.8208C19.97 40.6108 21.94 41.0008 24 41.0008C26.06 41.0008 28.03 40.6108 29.93 39.8208C31.83 39.0308 33.5 37.9108 34.95 36.4608C36.41 35.0008 37.53 33.3308 38.32 31.4308C39.11 29.5308 39.5 27.5608 39.5 25.5008L39.5 25.1508C39.5 25.0808 39.5 25.0208 39.51 24.9508C39.52 24.8908 39.53 24.8208 39.54 24.7608C39.55 24.7008 39.57 24.6308 39.59 24.5708C39.61 24.5108 39.63 24.4508 39.65 24.3808C39.68 24.3208 39.71 24.2608 39.74 24.2108C39.77 24.1508 39.8 24.0908 39.84 24.0408C39.87 23.9808 39.91 23.9308 39.95 23.8808C40 23.8308 40.04 23.7808 40.09 23.7408C40.13 23.6908 40.18 23.6508 40.23 23.6008C40.28 23.5608 40.33 23.5208 40.39 23.4908C40.44 23.4508 40.5 23.4208 40.56 23.3908C40.62 23.3608 40.67 23.3308 40.73 23.3008C40.8 23.2808 40.86 23.2608 40.92 23.2408C40.98 23.2208 41.05 23.2008 41.11 23.1908C41.17 23.1808 41.24 23.1708 41.3 23.1608C41.37 23.1508 41.43 23.1508 41.5 23.1508C41.57 23.1508 41.63 23.1508 41.7 23.1608C41.76 23.1708 41.83 23.1808 41.89 23.1908C41.95 23.2008 42.02 23.2208 42.08 23.2408C42.14 23.2608 42.2 23.2808 42.27 23.3008C42.33 23.3308 42.39 23.3608 42.44 23.3908C42.5 23.4208 42.56 23.4508 42.61 23.4908C42.67 23.5208 42.72 23.5608 42.77 23.6008C42.82 23.6508 42.87 23.6908 42.91 23.7408C42.96 23.7808 43 23.8308 43.05 23.8808C43.09 23.9308 43.13 23.9808 43.16 24.0408C43.2 24.0908 43.23 24.1508 43.26 24.2108C43.29 24.2608 43.32 24.3208 43.35 24.3808C43.37 24.4508 43.39 24.5108 43.41 24.5708C43.43 24.6308 43.45 24.7008 43.46 24.7608C43.47 24.8208 43.48 24.8908 43.49 24.9508C43.5 25.0208 43.5 25.0808 43.5 25.1508L43.5 25.5008C43.5 28.0908 43.01 30.5708 42.02 32.9608C41.03 35.3508 39.62 37.4608 37.79 39.2808C35.96 41.1108 33.85 42.5308 31.46 43.5208C29.07 44.5108 26.59 45.0008 24 45.0008C21.41 45.0008 18.93 44.5108 16.54 43.5208C14.15 42.5308 12.04 41.1208 10.22 39.2908C8.39 37.4608 6.97 35.3508 5.98 32.9608C4.99 30.5708 4.5 28.0908 4.5 25.5008ZM35.9133 25.0193C35.9133 26.6393 35.6033 28.1793 34.9733 29.6593C34.3733 31.0893 33.5233 32.3493 32.4333 33.4493C31.3333 34.5493 30.0733 35.3993 28.6433 35.9993C27.1633 36.6293 25.6233 36.9393 24.0033 36.9393C22.4233 36.9393 20.9033 36.6393 19.4433 36.0393C17.9833 35.4293 16.6933 34.5693 15.5633 33.4493C14.4533 32.3293 13.5933 31.0393 12.9833 29.5793C12.3833 28.1193 12.0833 26.5993 12.0833 25.0193L12.0833 14.9193C12.0833 13.3393 12.3833 11.8193 12.9833 10.3593C13.5933 8.89927 14.4533 7.60927 15.5733 6.47927C16.6933 5.36927 17.9833 4.50927 19.4433 3.89927C20.9033 3.29927 22.4233 2.99927 24.0033 2.99927C25.6233 2.99927 27.1633 3.30927 28.6433 3.93927C30.0733 4.53927 31.3333 5.38927 32.4333 6.48927C33.5233 7.58927 34.3733 8.84927 34.9733 10.2793C35.6033 11.7593 35.9133 13.2993 35.9133 14.9193L35.9133 25.0193Z" fill-rule="evenodd"  fill="#000000" >
</path>
</svg>
