<svg xmlns="http://www.w3.org/2000/svg" xmlns:xlink="http://www.w3.org/1999/xlink" width="48" height="48" viewBox="0 0 48 48" fill="none">
<path d="M29.3002 38.8648L23.2164 32.7808L23.2164 32.7807C22.4353 31.9997 21.169 31.9997 20.388 32.7807C19.6069 33.5618 19.6069 34.8281 20.3879 35.6091L20.388 35.6092L26.4717 41.6932C30.6763 45.8981 37.4937 45.8981 41.6984 41.6933C45.9032 37.4885 45.9031 30.6712 41.6982 26.4665L35.6146 20.3833L32.7863 23.2118L38.8699 29.295C41.5126 31.9376 41.5126 36.2222 38.87 38.8649C36.2273 41.5076 31.9427 41.5075 29.3002 38.8648Z" fill-rule="evenodd"  fill="#424242" >
</path>
<path d="M34 4C34 2.89543 33.1046 2 32 2C30.8954 2 30 2.89543 30 4L30 12C30 13.1046 30.8954 14 32 14C33.1046 14 34 13.1046 34 12L34 4Z" fill-rule="evenodd"  fill="#424242" >
</path>
<path d="M44 18C45.1046 18 46 17.1046 46 16C46 14.8954 45.1046 14 44 14L36 14C34.8954 14 34 14.8954 34 16C34 17.1046 34.8954 18 36 18L44 18Z" fill-rule="evenodd"  fill="#787878" >
</path>
<path d="M14 44C14 45.1046 14.8954 46 16 46C17.1046 46 18 45.1046 18 44L18 36C18 34.8954 17.1046 34 16 34C14.8954 34 14 34.8954 14 36L14 44Z" fill-rule="evenodd"  fill="#424242" >
</path>
<path d="M4 30C2.89543 30 2 30.8954 2 32C2 33.1046 2.89543 34 4 34L12 34C13.1046 34 14 33.1046 14 32C14 30.8954 13.1046 30 12 30L4 30Z" fill-rule="evenodd"  fill="#787878" >
</path>
<path d="M6.55938 21.4748L12.4228 27.3686L12.4264 27.3722C13.2075 28.1533 14.4737 28.1533 15.2548 27.3722C16.0346 26.5924 16.0359 25.3288 15.2585 24.5475L15.2548 24.5438L9.39512 18.6537C8.77029 18.0257 8.294 17.3053 7.96627 16.4927C7.64931 15.7067 7.49136 14.8875 7.49243 14.035C7.49354 13.1825 7.65362 12.3637 7.97266 11.5785C8.30248 10.7667 8.78061 10.0476 9.40705 9.4212C11.96 6.86828 16.0991 6.86841 18.6518 9.42149L24.6136 15.384L24.6137 15.3841C25.3947 16.1651 26.661 16.1651 27.4421 15.3841C28.2231 14.6031 28.2232 13.3368 27.4422 12.5557L27.4421 12.5557L21.4805 6.59325C17.3656 2.47789 10.6937 2.47768 6.57862 6.59277C5.57047 7.60091 4.79989 8.76092 4.26687 10.0728C3.75236 11.3391 3.49423 12.6581 3.49248 14.0298C3.49068 15.4016 3.7454 16.7212 4.25664 17.9888C4.78625 19.3021 5.55383 20.4641 6.55938 21.4748Z" fill-rule="evenodd"  fill="#787878" >
</path>
</svg>
