<svg xmlns="http://www.w3.org/2000/svg" xmlns:xlink="http://www.w3.org/1999/xlink" width="48" height="48" viewBox="0 0 48 48" fill="none">
<path d="M35 3L13 3C8.58172 3 5 6.58172 5 11L5 37C5 41.4183 8.58172 45 13 45L35 45C39.4183 45 43 41.4183 43 37L43 11C43 6.58172 39.4183 3 35 3ZM9 11C9 8.79086 10.7909 7 13 7L35 7C37.2091 7 39 8.79086 39 11L39 37C39 39.2091 37.2091 41 35 41L13 41C10.7909 41 9 39.2091 9 37L9 11Z" fill-rule="evenodd"  fill="#787878" >
</path>
<path d="M35 7L35 17C35 20.3137 32.3137 23 29 23L19 23C15.6863 23 13 20.3137 13 17L13 7L17 7L17 17C17 18.1046 17.8954 19 19 19L29 19C30.1046 19 31 18.1046 31 17L31 7L35 7Z" fill-rule="evenodd"  fill="#424242" >
</path>
<path d="M21 9C19.8954 9 19 9.89543 19 11L19 15C19 16.1046 19.8954 17 21 17C22.1046 17 23 16.1046 23 15L23 11C23 9.89543 22.1046 9 21 9Z" fill-rule="evenodd"  fill="#424242" >
</path>
<path d="M15 36C15 37.1046 15.8954 38 17 38L31 38C32.1046 38 33 37.1046 33 36C33 34.8954 32.1046 34 31 34L17 34C15.8954 34 15 34.8954 15 36Z" fill-rule="evenodd"  fill="#424242" >
</path>
</svg>
