<svg xmlns="http://www.w3.org/2000/svg" xmlns:xlink="http://www.w3.org/1999/xlink" width="48" height="48" viewBox="0 0 48 48" fill="none">
<path d="M5.99994 43.5C7.10451 43.5 7.99994 42.6046 7.99994 41.5L7.99994 25.5L23.9999 25.5L23.9999 41.5C23.9999 42.6046 24.8953 43.5 25.9999 43.5C27.1045 43.5 27.9999 42.6046 27.9999 41.5L27.9999 6.5C27.9999 5.3954 27.1045 4.5 25.9999 4.5C24.8953 4.5 23.9999 5.3954 23.9999 6.5L23.9999 21.5L7.99994 21.5L7.99994 6.5C7.99994 5.3954 7.10451 4.5 5.99994 4.5C4.89537 4.5 3.99994 5.3954 3.99994 6.5L3.99994 41.5C3.99994 42.6046 4.89537 43.5 5.99994 43.5Z" fill-rule="evenodd"  fill="#787878" >
</path>
<path d="M34.5 36.08L34.5 35C34.5 33.8954 33.6046 33 32.5 33C31.3954 33 30.5 33.8954 30.5 35L30.5 36.08C30.5 37.0377 30.6283 37.9288 30.8849 38.7532C31.1761 39.6887 31.6207 40.502 32.2185 41.1933C32.8716 41.9484 33.6755 42.5219 34.6303 42.9139C35.582 43.3046 36.6553 43.5 37.85 43.5C39.1248 43.5 40.2465 43.2856 41.2151 42.8568C42.1761 42.4313 42.9642 41.8098 43.5794 40.9921C44.5265 39.7333 45 38.0959 45 36.08L45 33.69C45 31.9669 44.7422 30.5093 44.2265 29.3174C43.7262 28.1609 42.9948 27.2595 42.0323 26.6133C41.2862 26.1124 40.4184 25.782 39.4291 25.6223C39.0892 25.5674 38.7249 25.5313 38.3362 25.5141C38.1252 25.5047 37.8465 25.5 37.5 25.5C36.7915 25.5 36.0044 25.5928 35.1386 25.7783L35.4025 20.5L43 20.5C44.1046 20.5 45 19.6046 45 18.5C45 17.3954 44.1046 16.5 43 16.5L33.5 16.5C32.9698 16.5068 32.5104 16.6904 32.1216 17.0509C31.7421 17.4212 31.5358 17.871 31.5025 18.4001L31.0025 28.4001C30.9867 29.1182 31.2651 29.6941 31.8377 30.1276C32.4337 30.5286 33.0687 30.605 33.7428 30.357C34.0961 30.2156 34.5317 30.0709 35.0494 29.923C36.0366 29.641 36.8534 29.5 37.5 29.5C38.0672 29.5 38.4977 29.5237 38.7915 29.5712C39.2043 29.6378 39.5414 29.7588 39.8027 29.9343C40.1151 30.144 40.3659 30.4678 40.5553 30.9055C40.8518 31.5908 41 32.5189 41 33.69L41 36.08C41 37.2048 40.7944 38.0405 40.3831 38.5872C39.9252 39.1957 39.0809 39.5 37.85 39.5C36.645 39.5 35.7764 39.1922 35.244 38.5766C35.01 38.3061 34.83 37.9686 34.7042 37.5643C34.5681 37.1271 34.5 36.6323 34.5 36.08Z" fill-rule="evenodd"  fill="#424242" >
</path>
</svg>
