<svg xmlns="http://www.w3.org/2000/svg" xmlns:xlink="http://www.w3.org/1999/xlink" width="48" height="48" viewBox="0 0 48 48" fill="none">
<path d="M17.9998 15.3374L17.9998 32.6574C17.9998 33.3774 18.1798 34.0474 18.5398 34.6674C18.8898 35.2874 19.3798 35.7674 19.9998 36.1274C20.6198 36.4874 21.2798 36.6674 21.9998 36.6674C22.7098 36.6674 23.3798 36.4874 23.9998 36.1274L38.9998 27.4674C39.6198 27.1074 40.1098 26.6174 40.4698 25.9974C40.8298 25.3874 41.0098 24.7174 41.0098 23.9974C41.0098 23.2874 40.8298 22.6174 40.4698 21.9974C40.1098 21.3774 39.6198 20.8874 38.9998 20.5374L23.9998 11.8674C23.3798 11.5174 22.7098 11.3374 21.9998 11.3374C21.2798 11.3374 20.6198 11.5174 19.9998 11.8674C19.3798 12.2274 18.8898 12.7174 18.5398 13.3374C18.1798 13.9574 17.9998 14.6274 17.9998 15.3374ZM40.9998 30.9274C42.2398 30.2174 43.2198 29.2474 43.9298 28.0074C44.6498 26.7674 45.0098 25.4374 45.0098 23.9974C45.0098 22.5674 44.6498 21.2274 43.9298 19.9874C43.2198 18.7574 42.2398 17.7774 40.9998 17.0674L25.9998 8.4074C24.7598 7.6974 23.4198 7.3374 21.9998 7.3374C20.5698 7.3374 19.2298 7.6974 17.9998 8.4074C16.7598 9.1174 15.7798 10.0974 15.0698 11.3374C14.3598 12.5774 13.9998 13.9074 13.9998 15.3374L13.9998 21.9999L11.9921 21.9999L11.9898 20.3399C11.9898 19.9399 11.8898 19.5799 11.6898 19.2299C11.4898 18.8899 11.2298 18.6299 10.8998 18.4399C10.5598 18.2399 10.1898 18.1399 9.78977 18.1399C9.37977 18.1399 9.00977 18.2399 8.66977 18.4499L2.76977 21.8099C2.36977 22.0399 2.05977 22.3499 1.82977 22.7499C1.61977 23.1299 1.50977 23.5399 1.50977 23.9899C1.50977 24.4399 1.61977 24.8499 1.83977 25.2399C2.06977 25.6299 2.37977 25.9399 2.77977 26.1599L8.66977 29.5499C9.01977 29.7599 9.38977 29.8599 9.79977 29.8599C10.2198 29.8599 10.5998 29.7499 10.9498 29.5299C11.2998 29.3199 11.5598 29.0399 11.7498 28.6699C11.9198 28.3499 11.9998 28.0099 11.9998 27.6499L11.9975 25.9999L13.9998 25.9999L13.9998 32.6574C13.9998 34.0874 14.3598 35.4174 15.0698 36.6574C15.7798 37.8974 16.7598 38.8774 17.9998 39.5974C19.2298 40.3074 20.5698 40.6674 21.9998 40.6674C23.4198 40.6674 24.7598 40.3074 25.9998 39.5974L40.9998 30.9274ZM4.75977 22.6899C4.75977 22.6899 4.74977 22.6799 4.73977 22.6799L4.75977 22.6899ZM4.74977 25.2899C4.75977 25.2799 4.75977 25.2799 4.76977 25.2799L4.74977 25.2899Z" fill-rule="evenodd"  fill="#000000" >
</path>
</svg>
