<svg xmlns="http://www.w3.org/2000/svg" xmlns:xlink="http://www.w3.org/1999/xlink" width="48" height="48" viewBox="0 0 48 48" fill="none">
<path d="M37.0976 22.9556C36.0894 25.6189 34.2921 27.8944 31.9911 29.4968C31.997 29.6638 32 29.8316 32 30C32 33.8155 30.4737 37.2744 27.9984 39.7996C28.6451 39.931 29.3145 40 30 40C35.5228 40 40 35.5228 40 30C40 27.2521 38.8917 24.7631 37.0976 22.9556ZM37.9911 18.5032C37.997 18.3362 38 18.1684 38 18C38 10.268 31.732 4 24 4C16.268 4 10 10.268 10 18C10 18.1684 10.003 18.3362 10.0089 18.5032C6.3769 21.0324 4 25.2386 4 30C4 37.732 10.268 44 18 44C20.1472 44 22.1815 43.5166 24 42.6527C25.8185 43.5166 27.8528 44 30 44C37.732 44 44 37.732 44 30C44 25.2386 41.6231 21.0324 37.9911 18.5032ZM20.0016 39.7996C19.3549 39.931 18.6855 40 18 40C12.4771 40 8 35.5228 8 30C8 27.2521 9.10834 24.7631 10.9024 22.9556C11.9106 25.6189 13.7079 27.8944 16.0089 29.4968C16.003 29.6638 16 29.8316 16 30C16 33.8155 17.5263 37.2744 20.0016 39.7996ZM24 38.0007C26.063 36.4511 27.5073 34.1221 27.8955 31.4509C26.6589 31.8084 25.3518 32 24 32C22.6482 32 21.3411 31.8084 20.1045 31.4509C20.4927 34.1221 21.9369 36.4511 24 38.0007ZM16.9024 25.0444C17.5944 23.2162 18.6583 21.5708 20.0016 20.2004C19.3549 20.069 18.6855 20 18 20C16.7171 20 15.4907 20.2416 14.3637 20.6817C14.8277 22.3528 15.7148 23.8479 16.9024 25.0444ZM24 17.3473C22.1815 16.4834 20.1472 16 18 16C16.6482 16 15.3411 16.1916 14.1045 16.5491C14.8073 11.7139 18.9699 8 24 8C29.03 8 33.1927 11.7139 33.8955 16.5491C32.6589 16.1916 31.3518 16 30 16C27.8528 16 25.8185 16.4834 24 17.3473ZM27.9984 20.2004C28.6451 20.069 29.3145 20 30 20C31.2829 20 32.5093 20.2416 33.6363 20.6817C33.1723 22.3528 32.2852 23.8479 31.0976 25.0444C30.4056 23.2162 29.3417 21.5708 27.9984 20.2004ZM24 21.9993C25.7392 23.3057 27.0387 25.166 27.6363 27.3183C26.5093 27.7584 25.2829 28 24 28C22.7171 28 21.4907 27.7584 20.3637 27.3183C20.9613 25.166 22.2607 23.3057 24 21.9993Z" fill-rule="evenodd"  fill="#787878" >
</path>
<path d="M29.6118 22.1766C28.4045 20.3879 26.8678 18.9538 25.0016 17.8743C24.3821 17.5159 23.6182 17.5159 22.9987 17.8743C21.1325 18.9538 19.5958 20.3879 18.3886 22.1767C17.1547 24.0049 16.3971 26.0113 16.1156 28.1958L16.1153 28.1975C16.0638 28.6002 16.1364 28.9981 16.1857 29.0966C16.1963 29.1178 16.2058 29.1251 16.2127 29.1158C16.3701 29.5624 16.6845 29.9489 17.1143 30.192C18.148 30.777 19.2377 31.2223 20.3832 31.5279C21.5632 31.8427 22.7689 32.0001 24.0002 32.0001C25.2315 32.0001 26.4371 31.8427 27.6171 31.5279C28.7626 31.2223 29.8523 30.777 30.8861 30.192L30.8877 30.1911C31.2408 29.9909 31.5157 29.6942 31.565 29.5957C31.5756 29.5746 31.5758 29.5625 31.5641 29.5626C31.8271 29.1688 31.9479 28.6855 31.8848 28.1958C31.6033 26.0113 30.8456 24.0049 29.6118 22.1766ZM24.0002 21.9965C23.1067 22.6643 22.3413 23.4702 21.7042 24.4143C21.0917 25.3218 20.6437 26.2906 20.3603 27.3207C21.5106 27.7736 22.7239 28.0001 24.0002 28.0001C25.2764 28.0001 26.4897 27.7736 27.6401 27.3207C27.3566 26.2906 26.9086 25.3218 26.2962 24.4143C25.659 23.4702 24.8937 22.6643 24.0002 21.9965Z" fill-rule="evenodd"  fill="#424242" >
</path>
</svg>
