<svg xmlns="http://www.w3.org/2000/svg" xmlns:xlink="http://www.w3.org/1999/xlink" width="48" height="48" viewBox="0 0 48 48" fill="none">
<path d="M15.5562 41.0232L15.562 41.0369C15.985 42.0499 17.1469 42.5334 18.1647 42.1171C19.187 41.6988 19.6768 40.5311 19.2585 39.5087L19.2529 39.4951L19.2518 39.4925L11.697 21.4078C9.4515 16.0324 12.0146 9.85676 17.4065 7.65113C18.7062 7.11946 20.0515 6.85815 21.4423 6.8672C22.7878 6.87594 24.0867 7.13551 25.3391 7.64588C26.5915 8.15625 27.7019 8.87853 28.6703 9.81271C29.6713 10.7784 30.4508 11.9056 31.0087 13.1943L38.7455 31.0651C40.2002 34.4251 38.6111 38.3244 35.2223 39.7106C34.4089 40.0434 33.5674 40.2062 32.698 40.1991C31.8566 40.1922 31.0447 40.0278 30.2621 39.706C29.4795 39.3842 28.7869 38.9297 28.1841 38.3427C27.5612 37.736 27.0777 37.0283 26.7337 36.2196L19.291 18.7204C18.7777 17.5135 19.3508 16.1199 20.5647 15.6233C20.855 15.5045 21.1546 15.4458 21.4637 15.4472C21.7635 15.4486 22.0536 15.5057 22.3339 15.6186C22.6142 15.7316 22.8628 15.8915 23.0798 16.0984C23.3035 16.3116 23.4788 16.5617 23.6057 16.8484L30.6231 32.7101L30.6259 32.7164C31.0619 33.7033 32.2073 34.1694 33.2122 33.7584C34.2345 33.3402 34.7242 32.1723 34.306 31.15C34.2989 31.1325 34.2915 31.1152 34.2839 31.098L34.2802 31.0897L27.2637 15.2301C26.9222 14.4582 26.4476 13.7826 25.8401 13.2033C25.2533 12.6439 24.5828 12.2123 23.8286 11.9084C23.0745 11.6046 22.292 11.4509 21.4813 11.4473C20.6418 11.4436 19.8315 11.6015 19.0503 11.9211C15.7716 13.2623 14.2237 17.0261 15.6101 20.2859L23.0529 37.7851C23.6065 39.0868 24.3867 40.2279 25.3933 41.2084C26.3655 42.155 27.4813 42.8874 28.7407 43.4053C30.0001 43.9233 31.3083 44.1878 32.6651 44.1989C34.0703 44.2104 35.4275 43.9484 36.7368 43.4128C42.1996 41.1782 44.7612 34.8923 42.4163 29.4759L34.6794 11.6051C33.9096 9.82692 32.8323 8.26988 31.4475 6.93393C30.1095 5.64323 28.5766 4.6458 26.8487 3.94165C25.1207 3.23749 23.3273 2.87937 21.4683 2.86728C19.5441 2.85477 17.6854 3.21531 15.892 3.94891C8.44464 6.99536 4.90456 15.5251 8.00616 22.9497L15.5562 41.0232Z" fill-rule="evenodd"  fill="#787878" >
</path>
<path d="M30.6231 32.7101L23.6056 16.8485C23.4787 16.5617 23.3035 16.3117 23.0798 16.0985C22.8628 15.8915 22.6141 15.7316 22.3338 15.6187C22.0535 15.5058 21.7635 15.4487 21.4636 15.4473C21.1546 15.446 20.8549 15.5047 20.5647 15.6234C19.3508 16.12 18.7776 17.5135 19.2909 18.7204L23.7945 29.309L23.7963 29.3132C23.7999 29.3217 23.8034 29.3302 23.8069 29.3388C24.2251 30.361 23.7354 31.5289 22.713 31.9471C21.6993 32.3618 20.5424 31.8836 20.1153 30.8787L20.114 30.8755L15.61 20.286C14.2237 17.0262 15.7716 13.2623 19.0502 11.9212C19.8314 11.6016 20.6417 11.4437 21.4812 11.4474C22.292 11.4509 23.0744 11.6046 23.8286 11.9085C24.5828 12.2123 25.2532 12.644 25.84 13.2034C26.4476 13.7827 26.9221 14.4583 27.2636 15.2302L34.2802 31.0898L34.2839 31.0982C34.2915 31.1153 34.2988 31.1326 34.306 31.1501C34.7242 32.1724 34.2344 33.3402 33.2121 33.7584C32.2072 34.1694 31.0618 33.7033 30.6259 32.7165L30.6231 32.7101Z" fill-rule="evenodd"  fill="#424242" >
</path>
</svg>
