<svg xmlns="http://www.w3.org/2000/svg" xmlns:xlink="http://www.w3.org/1999/xlink" width="48" height="48" viewBox="0 0 48 48" fill="none">
<path d="M44 20L44 33C44 40.732 37.732 47 30 47L22 47C20.8954 47 20 46.1046 20 45C20 43.8954 20.8954 43 22 43L30 43C35.5228 43 40 38.5228 40 33L40 20C40 18.8954 40.8954 18 42 18C43.1046 18 44 18.8954 44 20Z" fill-rule="evenodd"  fill="#787878" >
</path>
<path d="M23 1L19 1C15.6863 1 13 3.68629 13 7L13 8C8.58172 8 5 11.5817 5 16L5 33C5 37.4183 8.58172 41 13 41L29 41C33.4183 41 37 37.4183 37 33L37 16C37 11.5817 33.4183 8 29 8L29 7C29 3.68629 26.3137 1 23 1ZM25 8L25 7C25 5.89543 24.1046 5 23 5L19 5C17.8954 5 17 5.89543 17 7L17 8L25 8ZM13 12C10.7909 12 9 13.7909 9 16L9 33C9 35.2091 10.7909 37 13 37L29 37C31.2091 37 33 35.2091 33 33L33 16C33 13.7909 31.2091 12 29 12L13 12Z" fill-rule="evenodd"  fill="#787878" >
</path>
<path d="M12 17.0012C12.0001 18.1058 12.8956 19.0011 14.0001 19.001L24.0001 19C25.1047 18.9999 26.0001 18.1044 26 16.9999C25.9998 15.8953 25.1044 14.9999 23.9998 15L13.9998 15.001C12.8952 15.0011 11.9998 15.8967 12 17.0012Z" fill-rule="evenodd"  fill="#424242" >
</path>
<path d="M12.0001 23.0012C12.0003 24.1058 12.8958 25.0011 14.0004 25.0009L20.0004 24.9999C21.105 24.9997 22.0003 24.1042 22.0001 22.9996C21.9999 21.895 21.1043 20.9997 19.9998 20.9999L13.9998 21.0009C12.8952 21.0011 11.9999 21.8967 12.0001 23.0012Z" fill-rule="evenodd"  fill="#424242" >
</path>
</svg>
