<svg xmlns="http://www.w3.org/2000/svg" xmlns:xlink="http://www.w3.org/1999/xlink" width="48" height="48" viewBox="0 0 48 48" fill="none">
<path d="M8 37L8 11C8.00773 10.4509 8.20299 9.97951 8.58579 9.58579C8.97951 9.20299 9.45091 9.00773 10 9L38 9C38.5491 9.00773 39.0205 9.20299 39.4142 9.58579C39.797 9.97951 39.9923 10.4509 40 11L40 37C40 41.4183 36.4183 45 32 45L16 45C11.5817 45 8 41.4183 8 37Z" fill-rule="evenodd"  fill="#787878" >
</path>
<path d="M2.99995 11C2.99992 12.1046 3.89533 13 4.9999 13.0001L42.9999 13.001C44.1045 13.0011 44.9999 12.1056 45 11.0011C45 9.89651 44.1046 9.00106 43 9.00103L5 9.00005C3.89543 9.00002 2.99998 9.89543 2.99995 11Z" fill-rule="evenodd"  fill="#424242" >
</path>
<path d="M16 9L16 11C16 12.1046 16.8954 13 18 13C19.1046 13 20 12.1046 20 11L20 9C20 7.89543 20.8954 7 22 7L26 7C27.1046 7 28 7.89543 28 9L28 11C28 12.1046 28.8954 13 30 13C31.1046 13 32 12.1046 32 11L32 9C32 5.68629 29.3137 3 26 3L22 3C18.6863 3 16 5.68629 16 9Z" fill-rule="evenodd"  fill="#424242" >
</path>
</svg>
