<svg xmlns="http://www.w3.org/2000/svg" xmlns:xlink="http://www.w3.org/1999/xlink" width="48" height="48" viewBox="0 0 48 48" fill="none">
<path d="M24 42.5781C25.1046 42.5781 26 41.6827 26 40.5781L26 7.42033C26 6.31572 25.1046 5.42033 24 5.42033C22.8954 5.42033 22 6.31572 22 7.42033L22 40.5781C22 41.6827 22.8954 42.5781 24 42.5781Z" fill-rule="evenodd"  fill="#787878" >
</path>
<path d="M40 8L40 14.5C40 15.6046 40.8954 16.5 42 16.5C43.1046 16.5 44 15.6046 44 14.5L44 7C44 5.34315 42.6569 4 41 4L7 4C5.34315 4 4 5.34315 4 7L4 14.5C4 15.6046 4.89543 16.5 6 16.5C7.10457 16.5 8 15.6046 8 14.5L8 8L40 8Z" fill-rule="evenodd"  fill="#424242" >
</path>
<path d="M13.4736 41.999C13.4736 43.1036 14.3691 43.999 15.4736 43.999L31.5791 43.999C32.6836 43.999 33.5791 43.1036 33.5791 41.999C33.5791 40.8945 32.6836 39.999 31.5791 39.999L15.4736 39.999C14.3691 39.999 13.4736 40.8945 13.4736 41.999Z" fill-rule="evenodd"  fill="#424242" >
</path>
</svg>
