<svg xmlns="http://www.w3.org/2000/svg" xmlns:xlink="http://www.w3.org/1999/xlink" width="48" height="48" viewBox="0 0 48 48" fill="none">
<path d="M15.6658 10.6631C14.8557 11.2227 14.1046 11.8581 13.4126 12.5693C12.0235 13.9969 10.9478 15.6369 10.1854 17.4892C9.39515 19.4095 9 21.4226 9 23.5286C9 25.6347 9.39515 27.6478 10.1854 29.5681C10.9478 31.4204 12.0235 33.0603 13.4126 34.488C14.798 35.9118 16.3872 37.0134 18.1801 37.7928C20.0316 38.5976 21.9715 39 24 39C26.0285 39 27.9684 38.5976 29.8199 37.7928C31.6128 37.0134 33.202 35.9118 34.5874 34.488C35.9765 33.0603 37.0523 31.4204 37.8146 29.5681C38.6049 27.6478 39 25.6347 39 23.5286C39 21.4226 38.6049 19.4095 37.8146 17.4892C37.0523 15.6369 35.9765 13.9969 34.5874 12.5693C33.8954 11.8581 33.1443 11.2227 32.3342 10.6631C31.7982 10.3043 31.4454 9.69337 31.4454 9C31.4454 7.89543 32.3408 7 33.4454 7C33.876 7 34.2748 7.13608 34.6012 7.36758C35.6279 8.07613 36.5789 8.88019 37.4542 9.77977C39.2023 11.5763 40.5554 13.6386 41.5135 15.9668C42.5045 18.3747 43 20.8953 43 23.5286C43 26.1619 42.5045 28.6825 41.5135 31.0904C40.5554 33.4187 39.2023 35.481 37.4542 37.2775C35.7025 39.0778 33.6892 40.4724 31.4145 41.4612C29.0545 42.4871 26.583 43 24 43C21.417 43 18.9455 42.4871 16.5855 41.4612C14.3108 40.4724 12.2975 39.0778 10.5458 37.2775C8.79774 35.481 7.44463 33.4186 6.48645 31.0904C5.49548 28.6825 5 26.1619 5 23.5286C5 20.8953 5.49548 18.3747 6.48645 15.9668C7.44463 13.6386 8.79774 11.5763 10.5458 9.77977C11.4211 8.88018 12.3721 8.07612 13.3988 7.36757C13.7252 7.13608 14.124 7 14.5546 7C15.6592 7 16.5546 7.89543 16.5546 9C16.5546 9.69337 16.2018 10.3043 15.6658 10.6631Z" fill-rule="evenodd"  fill="#787878" >
</path>
<path d="M6 9C4.89543 9 4 8.10457 4 7C4 5.89543 4.89543 5 6 5L14 5C16.2091 5 18 6.79086 18 9L18 17C18 18.1046 17.1046 19 16 19C14.8954 19 14 18.1046 14 17L14 11.9932C13.8 12.1779 13.6044 12.3684 13.4134 12.5648C12.0246 13.9921 10.9488 15.6329 10.186 17.4873C9.39532 19.4093 9 21.4235 9 23.53C9 25.6169 9.38876 27.6135 10.1663 29.5199C10.9157 31.3574 11.9738 32.9883 13.3405 34.4126C13.3413 34.4134 13.342 34.4142 13.3428 34.4149C13.6879 34.7743 13.9 35.2624 13.9 35.8C13.9 36.9046 13.0046 37.8 11.9 37.8C11.333 37.8 10.8212 37.5641 10.4572 37.1851L10.4543 37.1821C8.7349 35.3902 7.40427 33.3397 6.46248 31.0305C5.48749 28.6399 5 26.1397 5 23.53C5 20.8965 5.49558 18.375 6.48673 15.9656C7.44542 13.635 8.7987 11.5716 10.5466 9.77526C10.8062 9.50841 11.0725 9.24999 11.3455 9L6 9Z" fill-rule="evenodd"  fill="#424242" >
</path>
</svg>
