<svg xmlns="http://www.w3.org/2000/svg" xmlns:xlink="http://www.w3.org/1999/xlink" width="48" height="48" viewBox="0 0 48 48" fill="none">
<path d="M19.2762 3.01909C18.2339 2.94418 17.5111 3.38867 17.1077 4.35256L9.01777 28L9 28L9 28.0519L4.57041 40.9999L3 40.9999C1.89543 41 1 41.8954 1 43C1 44.1046 1.89543 45 3 45L3.01477 44.9999L9 44.9999C10.1046 45 11 44.1046 11 43C11 41.8954 10.1046 41 9 41L8.79801 40.9999L11.8769 32L18.4183 32L18.892 40.9999L18 41C16.8954 41 16 41.8954 16 43C16 44.1046 16.8954 45 18 44.9999L22.9852 44.9999L23 45C24.1046 45 25 44.1046 25 43C25 41.8954 24.1046 41 23 40.9999L22.8975 40.9999L20.9972 4.89482C20.8728 3.85733 20.2991 3.23209 19.2762 3.01909ZM18.2078 28L17.5461 15.4285L13.2453 28L18.2078 28ZM28.5 26.0068C28.9477 26.0068 29.3611 25.8597 29.6944 25.6111C30.8137 24.7988 32.0391 24.2697 33.3706 24.024C34.6565 23.7867 35.8428 23.8493 36.9296 24.2117C37.9995 24.5685 38.8369 25.1836 39.4419 26.0568C40.0414 26.9221 40.3861 28.0029 40.4761 29.2993C39.9295 29.5252 39.2976 29.7108 38.5804 29.8561C38.0707 29.9593 37.4785 30.0505 36.8038 30.1298C36.3856 30.1789 35.7501 30.2419 34.8974 30.3189C34.1835 30.3833 33.6503 30.4347 33.2977 30.4732C32.6922 30.5393 32.1568 30.6123 31.6917 30.6919C30.4386 30.9066 29.3907 31.2273 28.5479 31.654C27.4045 32.2329 26.534 33.038 25.9364 34.0692C25.3121 35.1464 25 36.4566 25 37.9999C25 39.2105 25.2668 40.29 25.8005 41.2385C26.3237 42.1683 27.079 42.9306 28.0665 43.5255C29.6981 44.5084 31.9393 44.9999 34.79 44.9999C36.9937 44.9999 38.8507 44.7893 40.3608 44.3682C40.7742 44.2529 41.1659 44.1207 41.5359 43.9713C41.7064 44.1212 41.8943 44.2499 42.0996 44.3574C42.4201 44.5252 42.7652 44.6315 43.135 44.6762C43.7392 44.7492 44.3485 44.6565 44.9629 44.3981C45.4992 44.1726 45.9834 43.8431 46.4155 43.4098C46.7767 43.0479 47 42.5484 47 41.9968C47 40.8922 46.1046 39.9968 45 39.9968C44.8274 39.9968 44.6598 40.0187 44.5 40.0598L44.5 30.0068C44.5 27.5582 43.91 25.4822 42.7299 23.7789C42.1688 22.9689 41.4913 22.275 40.6974 21.6972C39.9445 21.1491 39.1104 20.7225 38.1951 20.4172C37.3268 20.1276 36.4137 19.9566 35.4556 19.9043C34.5287 19.8536 33.5917 19.9157 32.6446 20.0905C31.7034 20.2642 30.7856 20.5431 29.8912 20.9272C28.988 21.3152 28.139 21.7975 27.3442 22.3743C26.8334 22.7367 26.5 23.3328 26.5 24.0068C26.5 25.1114 27.3954 26.0068 28.5 26.0068ZM40.5 40.0502L40.5 33.508C40.1393 33.6081 39.764 33.6975 39.3743 33.7765C38.7562 33.9016 38.055 34.0103 37.2705 34.1025C36.8165 34.1558 36.1453 34.2225 35.2568 34.3027C33.915 34.4237 32.9518 34.5343 32.3671 34.6345C31.5099 34.7814 30.8391 34.9774 30.3547 35.2227C29.9172 35.4442 29.5981 35.7282 29.3973 36.0748C29.1324 36.5318 29 37.1735 29 37.9999C29 38.5118 29.0955 38.9375 29.2866 39.277C29.4646 39.5934 29.746 39.8675 30.1306 40.0993C30.5989 40.3814 31.2062 40.5987 31.9526 40.7514C32.7625 40.9171 33.7083 40.9999 34.79 40.9999C36.6289 40.9999 38.1276 40.8383 39.2863 40.5152C39.6638 40.41 40.0037 40.287 40.306 40.1463C40.3659 40.1184 40.4306 40.0864 40.5 40.0502Z" fill-rule="evenodd"  fill="#000000" >
</path>
</svg>
