<svg xmlns="http://www.w3.org/2000/svg" xmlns:xlink="http://www.w3.org/1999/xlink" width="48" height="48" viewBox="0 0 48 48" fill="none">
<path d="M15.4135 15.415L6.82843 24L15.413 32.5845L15.4142 32.5858C15.7761 32.9477 16 33.4477 16 34C16 35.1046 15.1046 36 14 36C13.4477 36 12.9477 35.7761 12.5858 35.4142L12.5845 35.413L4.00001 26.8284C2.43791 25.2663 2.43791 22.7337 4.00001 21.1716L12.585 12.5865L12.5858 12.5858C12.9477 12.2239 13.4477 12 14 12C15.1046 12 16 12.8954 16 14C16 14.5523 15.7761 15.0523 15.4142 15.4142L15.4135 15.415Z" fill-rule="evenodd"  fill="#787878" >
</path>
<path d="M35.4145 12.5861L44 21.1716C45.5621 22.7337 45.5621 25.2663 44 26.8284L35.4153 35.4132L35.4142 35.4142C35.0523 35.7761 34.5523 36 34 36C32.8954 36 32 35.1046 32 34C32 33.4477 32.2239 32.9477 32.5858 32.5858L32.5868 32.5847L41.1716 24L32.5858 15.4142C32.2239 15.0523 32 14.5523 32 14C32 12.8954 32.8954 12 34 12C34.5523 12 35.0523 12.2239 35.4142 12.5858L35.4145 12.5861Z" fill-rule="evenodd"  fill="#787878" >
</path>
<path d="M19.5149 41.9404C20.5865 42.2083 21.6724 41.5568 21.9403 40.4852L29.9403 8.48523C30.2082 7.4136 29.5567 6.32777 28.4851 6.05987C27.4135 5.79197 26.3276 6.44346 26.0597 7.51508L18.0597 39.515C17.7918 40.5866 18.4433 41.6725 19.5149 41.9404Z" fill-rule="evenodd"  fill="#424242" >
</path>
</svg>
