<svg xmlns="http://www.w3.org/2000/svg" xmlns:xlink="http://www.w3.org/1999/xlink" width="48" height="48" viewBox="0 0 48 48" fill="none">
<path d="M32.1629 18.7279C31.3819 19.509 31.3819 20.7753 32.1629 21.5564L36.5876 25.981C39.5165 28.9099 39.5165 33.6587 36.5876 36.5876C33.6587 39.5165 28.9099 39.5165 25.981 36.5876L21.5563 32.163C20.7753 31.3819 19.509 31.3819 18.7279 32.163C17.9468 32.944 17.9469 34.2103 18.7279 34.9914L23.1525 39.416C27.6435 43.907 34.925 43.9071 39.416 39.416C43.907 34.925 43.907 27.6436 39.416 23.1526L34.9914 18.7279C34.2103 17.9469 32.944 17.9469 32.1629 18.7279Z" fill-rule="evenodd"  fill="#787878" >
</path>
<path d="M12.5801 28.9086L12.5816 28.9101L12.5857 28.9142C13.3668 29.6953 14.6331 29.6953 15.4141 28.9142C16.1938 28.1346 16.1952 26.8714 15.4183 26.09L15.4141 26.0858L11.1062 21.7524C10.3885 21.0305 9.84146 20.2024 9.46502 19.2682C9.10093 18.3649 8.9196 17.4234 8.92104 16.4438C8.92248 15.4643 9.10658 14.5233 9.47333 13.621C9.85251 12.6879 10.402 11.8615 11.1219 11.1417C11.8431 10.4204 12.6713 9.87017 13.6065 9.49094C14.5108 9.12424 15.4537 8.94089 16.4351 8.94089C17.4165 8.94089 18.3593 9.12424 19.2636 9.49094C20.1988 9.87017 21.027 10.4204 21.7483 11.1417L26.163 15.5564C26.944 16.3374 28.2104 16.3375 28.9914 15.5564C29.7725 14.7754 29.7724 13.509 28.9914 12.728L24.5767 8.31327C23.473 7.20962 22.2031 6.36657 20.7668 5.78413C19.3805 5.22197 17.9366 4.94089 16.4351 4.94088C14.9335 4.94089 13.4896 5.22197 12.1033 5.78413C10.667 6.36657 9.39707 7.20962 8.29342 8.31327C7.19199 9.4147 6.35007 10.6819 5.76765 12.1149C5.20545 13.4982 4.92326 14.9392 4.92108 16.4379C4.91886 17.9366 5.1968 19.3785 5.75491 20.7634C6.33309 22.1981 7.17126 23.4678 8.26943 24.5725L12.5801 28.9086Z" fill-rule="evenodd"  fill="#787878" >
</path>
<path d="M32.4853 32.4852C33.2663 31.7042 33.2663 30.4378 32.4853 29.6568L18.3432 15.5147C17.5621 14.7336 16.2958 14.7337 15.5148 15.5147C14.7337 16.2958 14.7337 17.5621 15.5148 18.3431L29.6568 32.4852C30.4379 33.2663 31.7042 33.2663 32.4853 32.4852Z" fill-rule="evenodd"  fill="#424242" >
</path>
</svg>
