<svg xmlns="http://www.w3.org/2000/svg" xmlns:xlink="http://www.w3.org/1999/xlink" width="48" height="48" viewBox="0 0 48 48" fill="none">
<path d="M19.2762 3.01909C18.2339 2.94418 17.5111 3.38867 17.1077 4.35256L9.01777 28L9 28L9 28.0519L4.57041 40.9999L3 40.9999C1.89543 41 1 41.8954 1 43C1 44.1046 1.89543 45 3 45L3.01477 44.9999L9 44.9999C10.1046 45 11 44.1046 11 43C11 41.8954 10.1046 41 9 41L8.79801 40.9999L11.8769 32L18.4183 32L18.892 40.9999L18 41C16.8954 41 16 41.8954 16 43C16 44.1046 16.8954 45 18 44.9999L22.9852 44.9999L23 45C24.1046 45 25 44.1046 25 43C25 41.8954 24.1046 41 23 40.9999L22.8975 40.9999L20.9972 4.89482C20.8728 3.85733 20.2991 3.23209 19.2762 3.01909ZM18.2078 28L17.5461 15.4285L13.2453 28L18.2078 28Z" fill-rule="evenodd"  fill="#424242" >
</path>
<path d="M28.5 26.007C28.9477 26.007 29.3611 25.8599 29.6944 25.6114C30.8137 24.7991 32.0391 24.27 33.3706 24.0243C34.6565 23.787 35.8429 23.8495 36.9296 24.212C37.9995 24.5688 38.8369 25.1838 39.4419 26.0571C40.0414 26.9223 40.3861 28.0032 40.4761 29.2996C39.9295 29.5255 39.2976 29.7111 38.5804 29.8563C38.0707 29.9596 37.4785 30.0508 36.8038 30.1301C36.3856 30.1792 35.7501 30.2422 34.8974 30.3192C34.1835 30.3836 33.6502 30.435 33.2977 30.4735C32.6922 30.5396 32.1568 30.6126 31.6917 30.6922C30.4386 30.9069 29.3906 31.2276 28.5479 31.6543C27.4045 32.2332 26.534 33.0382 25.9364 34.0695C25.3121 35.1467 25 36.4569 25 38.0002C25 39.2108 25.2668 40.2903 25.8005 41.2388C26.3237 42.1685 27.079 42.9309 28.0665 43.5257C29.6981 44.5087 31.9392 45.0002 34.79 45.0002C36.9937 45.0002 38.8507 44.7896 40.3608 44.3685C40.7742 44.2532 41.1659 44.1209 41.5359 43.9715C41.7065 44.1215 41.8944 44.2502 42.0996 44.3577C42.4201 44.5255 42.7652 44.6318 43.135 44.6765C43.7392 44.7495 44.3485 44.6568 44.9629 44.3984C45.4992 44.1729 45.9834 43.8434 46.4155 43.41C46.7767 43.0481 47 42.5487 47 41.9971C47 40.8924 46.1046 39.9971 45 39.9971C44.8274 39.9971 44.6598 40.019 44.5 40.0601L44.5 30.0071C44.5 27.5584 43.91 25.4825 42.7299 23.7791C42.1688 22.9692 41.4913 22.2753 40.6974 21.6974C39.9445 21.1494 39.1104 20.7227 38.1951 20.4174C37.3268 20.1279 36.4137 19.9569 35.4556 19.9045C34.5287 19.8539 33.5917 19.9159 32.6446 20.0907C31.7034 20.2644 30.7856 20.5434 29.8912 20.9275C28.988 21.3154 28.139 21.7978 27.3442 22.3746C26.8334 22.7369 26.5 23.3331 26.5 24.007C26.5 25.1116 27.3954 26.007 28.5 26.007ZM40.5 40.0505L40.5 33.5083C40.1393 33.6083 39.764 33.6978 39.3743 33.7768C38.7562 33.9019 38.055 34.0106 37.2705 34.1028C36.8165 34.1561 36.1453 34.2228 35.2568 34.303C33.915 34.424 32.9518 34.5346 32.3671 34.6348C31.5099 34.7817 30.8391 34.9777 30.3547 35.2229C29.9172 35.4445 29.5981 35.7285 29.3973 36.0751C29.1324 36.5321 29 37.1738 29 38.0002C29 38.5121 29.0955 38.9377 29.2866 39.2773C29.4646 39.5937 29.746 39.8678 30.1306 40.0995C30.5989 40.3817 31.2062 40.599 31.9526 40.7517C32.7626 40.9174 33.7083 41.0002 34.79 41.0002C36.6289 41.0002 38.1276 40.8386 39.2863 40.5154C39.6638 40.4103 40.0037 40.2873 40.306 40.1466C40.3659 40.1187 40.4306 40.0867 40.5 40.0505Z" fill-rule="evenodd"  fill="#787878" >
</path>
</svg>
