<svg xmlns="http://www.w3.org/2000/svg" xmlns:xlink="http://www.w3.org/1999/xlink" width="48" height="48" viewBox="0 0 48 48" fill="none">
<path d="M32.1915 9.31265C31.768 8.94593 31.5 8.40428 31.5 7.80005C31.5 6.69548 32.3954 5.80005 33.5 5.80005C34.0079 5.80005 34.4716 5.98937 34.8243 6.30128L40.2368 11.0372C42.0581 12.6309 42.0581 15.4642 40.2368 17.0579L34.8243 21.7938C34.4715 22.1057 34.0079 22.295 33.5 22.295C32.3954 22.295 31.5 21.3996 31.5 20.295C31.5 19.6908 31.7679 19.1491 32.1915 18.7824L37.6028 14.0475L32.1915 9.31265Z" fill-rule="evenodd"  fill="#424242" >
</path>
<path d="M20.5 41L37 41C38.1046 41 39 40.1046 39 39C39 37.8954 38.1046 37 37 37L20.5 37C14.701 37 10 32.299 10 26.5C10 20.701 14.701 16 20.5 16L39 16C40.1046 16 41 15.1046 41 14C41 12.8954 40.1046 12 39 12L20.5 12C12.4919 12 6 18.4919 6 26.5C6 34.5081 12.4919 41 20.5 41Z" fill-rule="evenodd"  fill="#787878" >
</path>
<path d="M6 26.5C6 18.4919 12.4919 12 20.5 12L39 12C40.1046 12 41 12.8954 41 14C41 15.1046 40.1046 16 39 16L20.5 16C14.701 16 10 20.701 10 26.5C10 27.6046 9.1046 28.5 8 28.5C6.8954 28.5 6 27.6046 6 26.5Z" fill-rule="evenodd"  fill="#424242" >
</path>
</svg>
