<svg xmlns="http://www.w3.org/2000/svg" xmlns:xlink="http://www.w3.org/1999/xlink" width="48" height="48" viewBox="0 0 48 48" fill="none">
<path d="M14.99 5.8C14.98 5.74 14.97 5.67 14.96 5.61C14.95 5.55 14.93 5.48 14.91 5.42C14.89 5.36 14.87 5.3 14.85 5.23C14.82 5.17 14.79 5.11 14.76 5.06C14.73 5 14.7 4.94 14.66 4.89C14.63 4.83 14.59 4.78 14.55 4.73C14.5 4.68 14.46 4.63 14.41 4.59C14.37 4.54 14.32 4.5 14.27 4.45C14.22 4.41 14.17 4.37 14.11 4.34C14.06 4.3 14 4.27 13.94 4.24C13.89 4.21 13.83 4.18 13.77 4.15C13.7 4.13 13.64 4.11 13.58 4.09C13.52 4.07 13.45 4.05 13.39 4.04C13.33 4.03 13.26 4.02 13.2 4.01C13.13 4 13.07 4 13 4C12.93 4 12.87 4 12.8 4.01C12.74 4.02 12.67 4.03 12.61 4.04C12.55 4.05 12.48 4.07 12.42 4.09C12.36 4.11 12.3 4.13 12.23 4.15C12.17 4.18 12.11 4.21 12.06 4.24C12 4.27 11.94 4.3 11.89 4.34C11.83 4.37 11.78 4.41 11.73 4.45C11.68 4.5 11.63 4.54 11.59 4.59C11.54 4.63 11.5 4.68 11.45 4.73C11.41 4.78 11.37 4.83 11.34 4.89C11.3 4.94 11.27 5 11.24 5.06C11.21 5.11 11.18 5.17 11.15 5.23C11.13 5.3 11.11 5.36 11.09 5.42C11.07 5.48 11.05 5.55 11.04 5.61C11.03 5.67 11.02 5.74 11.01 5.8C11 5.87 11 5.93 11 6L11 20.2239C10.4889 20.3408 9.98866 20.5031 9.5 20.71C8.42 21.16 7.46 21.8 6.63 22.63C5.8 23.46 5.16 24.42 4.71 25.5C4.24 26.61 4 27.78 4 29C4 30.22 4.24 31.39 4.71 32.5C5.16 33.58 5.8 34.54 6.63 35.37C7.46 36.2 8.42 36.84 9.5 37.29C9.98866 37.4969 10.4889 37.6592 11 37.7761L11 42C11 42.07 11 42.13 11.01 42.2C11.02 42.26 11.03 42.33 11.04 42.39C11.05 42.45 11.07 42.52 11.09 42.58C11.11 42.64 11.13 42.7 11.15 42.77C11.18 42.83 11.21 42.89 11.24 42.94C11.27 43 11.3 43.06 11.34 43.11C11.37 43.17 11.41 43.22 11.45 43.27C11.5 43.32 11.54 43.37 11.59 43.41C11.63 43.46 11.68 43.5 11.73 43.55C11.78 43.59 11.83 43.63 11.89 43.66C11.94 43.7 12 43.73 12.06 43.76C12.11 43.79 12.17 43.82 12.23 43.85C12.3 43.87 12.36 43.89 12.42 43.91C12.48 43.93 12.55 43.95 12.61 43.96C12.67 43.97 12.74 43.98 12.8 43.99C12.87 44 12.93 44 13 44C13.07 44 13.13 44 13.2 43.99C13.26 43.98 13.33 43.97 13.39 43.96C13.45 43.95 13.52 43.93 13.58 43.91C13.64 43.89 13.7 43.87 13.77 43.85C13.83 43.82 13.89 43.79 13.94 43.76C14 43.73 14.06 43.7 14.11 43.66C14.17 43.63 14.22 43.59 14.27 43.55C14.32 43.5 14.37 43.46 14.41 43.41C14.46 43.37 14.5 43.32 14.55 43.27C14.59 43.22 14.63 43.17 14.66 43.11C14.7 43.06 14.73 43 14.76 42.94C14.79 42.89 14.82 42.83 14.85 42.77C14.87 42.7 14.89 42.64 14.91 42.58C14.93 42.52 14.95 42.45 14.96 42.39C14.97 42.33 14.98 42.26 14.99 42.2C15 42.13 15 42.07 15 42L15 37.7761C15.5111 37.6592 16.0113 37.4969 16.5 37.29C17.58 36.84 18.54 36.2 19.37 35.37C20.2 34.54 20.84 33.58 21.29 32.5C21.76 31.39 22 30.22 22 29C22 27.78 21.76 26.61 21.29 25.5C20.84 24.42 20.2 23.46 19.37 22.63C18.54 21.8 17.58 21.16 16.5 20.71C16.0113 20.5031 15.5111 20.3408 15 20.2239L15 6C15 5.93 15 5.87 14.99 5.8ZM37 10.2239C37.5111 10.3408 38.0113 10.5031 38.5 10.71C39.58 11.16 40.54 11.8 41.37 12.63C42.2 13.46 42.84 14.42 43.29 15.5C43.76 16.61 44 17.78 44 19C44 20.22 43.76 21.39 43.29 22.5C42.84 23.58 42.2 24.54 41.37 25.37C40.54 26.2 39.58 26.84 38.5 27.29C38.0113 27.4969 37.5111 27.6592 37 27.7761L37 42C37 42.07 37 42.13 36.99 42.2C36.98 42.26 36.97 42.33 36.96 42.39C36.95 42.45 36.93 42.52 36.91 42.58C36.89 42.64 36.87 42.7 36.85 42.77C36.82 42.83 36.79 42.89 36.76 42.94C36.73 43 36.7 43.06 36.66 43.11C36.63 43.17 36.59 43.22 36.55 43.27C36.5 43.32 36.46 43.37 36.41 43.41C36.37 43.46 36.32 43.5 36.27 43.55C36.22 43.59 36.17 43.63 36.11 43.66C36.06 43.7 36 43.73 35.94 43.76C35.89 43.79 35.83 43.82 35.77 43.85C35.7 43.87 35.64 43.89 35.58 43.91C35.52 43.93 35.45 43.95 35.39 43.96C35.33 43.97 35.26 43.98 35.2 43.99C35.13 44 35.07 44 35 44C34.93 44 34.87 44 34.8 43.99C34.74 43.98 34.67 43.97 34.61 43.96C34.55 43.95 34.48 43.93 34.42 43.91C34.36 43.89 34.3 43.87 34.23 43.85C34.17 43.82 34.11 43.79 34.06 43.76C34 43.73 33.94 43.7 33.89 43.66C33.83 43.63 33.78 43.59 33.73 43.55C33.68 43.5 33.63 43.46 33.59 43.41C33.54 43.37 33.5 43.32 33.45 43.27C33.41 43.22 33.37 43.17 33.34 43.11C33.3 43.06 33.27 43 33.24 42.94C33.21 42.89 33.18 42.83 33.15 42.77C33.13 42.7 33.11 42.64 33.09 42.58C33.07 42.52 33.05 42.45 33.04 42.39C33.03 42.33 33.02 42.26 33.01 42.2C33 42.13 33 42.07 33 42L33 27.7761C32.4889 27.6592 31.9887 27.4969 31.5 27.29C30.42 26.84 29.46 26.2 28.63 25.37C27.8 24.54 27.16 23.58 26.71 22.5C26.24 21.39 26 20.22 26 19C26 17.78 26.24 16.61 26.71 15.5C27.16 14.42 27.8 13.46 28.63 12.63C29.46 11.8 30.42 11.16 31.5 10.71C31.9887 10.5031 32.4889 10.3408 33 10.2239L33 6C33 5.93 33 5.87 33.01 5.8C33.02 5.74 33.03 5.67 33.04 5.61C33.05 5.55 33.07 5.48 33.09 5.42C33.11 5.36 33.13 5.3 33.15 5.23C33.18 5.17 33.21 5.11 33.24 5.06C33.27 5 33.3 4.94 33.34 4.89C33.37 4.83 33.41 4.78 33.45 4.73C33.5 4.68 33.54 4.63 33.59 4.59C33.63 4.54 33.68 4.5 33.73 4.45C33.78 4.41 33.83 4.37 33.89 4.34C33.94 4.3 34 4.27 34.06 4.24C34.11 4.21 34.17 4.18 34.23 4.15C34.3 4.13 34.36 4.11 34.42 4.09C34.48 4.07 34.55 4.05 34.61 4.04C34.67 4.03 34.74 4.02 34.8 4.01C34.87 4 34.93 4 35 4C35.07 4 35.13 4 35.2 4.01C35.26 4.02 35.33 4.03 35.39 4.04C35.45 4.05 35.52 4.07 35.58 4.09C35.64 4.11 35.7 4.13 35.77 4.15C35.83 4.18 35.89 4.21 35.94 4.24C36 4.27 36.06 4.3 36.11 4.34C36.17 4.37 36.22 4.41 36.27 4.45C36.32 4.5 36.37 4.54 36.41 4.59C36.46 4.63 36.5 4.68 36.55 4.73C36.59 4.78 36.63 4.83 36.66 4.89C36.7 4.94 36.73 5 36.76 5.06C36.79 5.11 36.82 5.17 36.85 5.23C36.87 5.3 36.89 5.36 36.91 5.42C36.93 5.48 36.95 5.55 36.96 5.61C36.97 5.67 36.98 5.74 36.99 5.8C37 5.87 37 5.93 37 6L37 10.2239ZM35 24C35.68 24 36.33 23.87 36.95 23.61C37.55 23.36 38.08 23 38.54 22.54C39 22.08 39.36 21.55 39.61 20.95C39.87 20.33 40 19.68 40 19C40 18.32 39.87 17.67 39.61 17.05C39.36 16.45 39 15.92 38.54 15.46C38.08 15 37.55 14.64 36.95 14.39C36.33 14.13 35.68 14 35 14C34.32 14 33.67 14.13 33.05 14.39C32.45 14.64 31.92 15 31.46 15.46C31 15.92 30.64 16.45 30.39 17.05C30.13 17.67 30 18.32 30 19C30 19.68 30.13 20.33 30.39 20.95C30.64 21.55 31 22.08 31.46 22.54C31.92 23 32.45 23.36 33.05 23.61C33.67 23.87 34.32 24 35 24ZM14.95 33.61C14.33 33.87 13.68 34 13 34C12.32 34 11.67 33.87 11.05 33.61C10.45 33.36 9.92 33 9.46 32.54C9 32.08 8.64 31.55 8.39 30.95C8.13 30.33 8 29.68 8 29C8 28.32 8.13 27.67 8.39 27.05C8.64 26.45 9 25.92 9.46 25.46C9.92 25 10.45 24.64 11.05 24.39C11.67 24.13 12.32 24 13 24C13.68 24 14.33 24.13 14.95 24.39C15.55 24.64 16.08 25 16.54 25.46C17 25.92 17.36 26.45 17.61 27.05C17.87 27.67 18 28.32 18 29C18 29.68 17.87 30.33 17.61 30.95C17.36 31.55 17 32.08 16.54 32.54C16.08 33 15.55 33.36 14.95 33.61Z" fill-rule="evenodd"  fill="#000000" >
</path>
</svg>
