<svg xmlns="http://www.w3.org/2000/svg" xmlns:xlink="http://www.w3.org/1999/xlink" width="48" height="48" viewBox="0 0 48 48" fill="none">
<path d="M5.99764 24.1798C5.2685 25.0095 5.35003 26.2732 6.17974 27.0024L22.6798 41.5024C23.5095 42.2316 24.7732 42.15 25.5023 41.3203C26.2315 40.4906 26.15 39.2269 25.3202 38.4977L8.8202 23.9977C7.99049 23.2686 6.72678 23.3501 5.99764 24.1798Z" fill-rule="evenodd"  fill="#787878" >
</path>
<path d="M22.8483 39.0384L39.9886 38.9959L39.9985 42.9959L22.8583 43.0384L22.8483 39.0384Z" fill-rule="evenodd"  fill="#424242" >
</path>
<path d="M23.4119 6.19943L6.31894 23.2924C5.75632 23.855 5.32277 24.5039 5.0183 25.2389C4.71378 25.974 4.56153 26.7394 4.56154 27.5351L4.56158 39.9987C4.56157 40.404 4.64016 40.7928 4.79734 41.1652C4.94874 41.5239 5.16211 41.8413 5.43746 42.1173C5.7128 42.3934 6.02961 42.6076 6.38788 42.76C6.75982 42.9181 7.14842 42.9977 7.55369 42.9987L22.8481 43.0386C23.117 43.0388 23.3756 42.9872 23.6239 42.8841C23.8718 42.78 24.0902 42.6323 24.2791 42.4411L41.8549 24.5723C42.4217 23.996 42.8539 23.3345 43.1514 22.5877C43.4385 21.8672 43.5805 21.118 43.5773 20.34C43.5741 19.5621 43.4259 18.8141 43.1329 18.096C42.8292 17.3517 42.3915 16.6938 41.8199 16.1222L31.8972 6.19943C29.554 3.85628 25.755 3.85628 23.4119 6.19943ZM22.0173 39.0364L39.0032 21.7674C39.1929 21.5744 39.3371 21.3543 39.4356 21.1071C39.5311 20.8673 39.5784 20.6171 39.5773 20.3566C39.5763 20.0961 39.5269 19.8463 39.4294 19.6072C39.3288 19.3608 39.1829 19.142 38.9915 18.9506L29.0688 9.02785C28.2877 8.24681 27.0214 8.24681 26.2403 9.02785L9.14736 26.1208C8.95979 26.3084 8.81527 26.5247 8.7138 26.7697C8.61227 27.0147 8.56152 27.2699 8.56152 27.5351L8.5616 39.0013L22.0173 39.0364Z" fill-rule="evenodd"  fill="#424242" >
</path>
<path d="M42 41C42 42.1046 41.1046 43 40 43C38.8954 43 38 42.1046 38 41C38 39.8954 38.8954 39 40 39C41.1046 39 42 39.8954 42 41Z"   fill="#424242" >
</path>
</svg>
