<svg xmlns="http://www.w3.org/2000/svg" xmlns:xlink="http://www.w3.org/1999/xlink" width="48" height="48" viewBox="0 0 48 48" fill="none">
<path d="M31 23.55L31 26.5C31 27.6046 31.8954 28.5 33 28.5C34.1046 28.5 35 27.6046 35 26.5L35 23.55C35 23.4489 35.0171 23.2944 35.0514 23.0866C35.1232 22.6516 35.2452 22.2602 35.4174 21.9123C35.6251 21.4928 35.8948 21.1714 36.2264 20.948C36.67 20.6493 37.2612 20.5 38 20.5C38.7388 20.5 39.33 20.6493 39.7736 20.948C40.1052 21.1714 40.3749 21.4928 40.5826 21.9123C40.7548 22.2602 40.8768 22.6516 40.9486 23.0866C40.9829 23.2944 41 23.4489 41 23.55L41 26.5C41 27.1732 40.8849 27.7853 40.6547 28.3363C40.448 28.8311 40.1345 29.3095 39.714 29.7716C39.3265 30.1975 38.8174 30.6415 38.1866 31.1036C37.7792 31.4021 37.1297 31.8364 36.2381 32.4064C35.3893 32.9491 34.7612 33.3666 34.354 33.6588C33.6277 34.1799 33.0236 34.6902 32.5415 35.1896C31.1805 36.5997 30.5 38.2065 30.5 40.01L30.5 41.5C30.5077 42.0491 30.703 42.5205 31.0858 42.9142C31.4795 43.297 31.9509 43.4923 32.5 43.5L43 43.5C44.1046 43.5 45 42.6046 45 41.5C45 40.3954 44.1046 39.5 43 39.5L34.5465 39.5C34.5834 39.3048 34.6424 39.1187 34.7234 38.9416C34.87 38.6211 35.1021 38.2964 35.4196 37.9675C35.7338 37.6419 36.156 37.289 36.686 36.9087C37.0352 36.6581 37.6041 36.2807 38.3928 35.7765C39.3557 35.1609 40.075 34.6788 40.5507 34.3302C41.3976 33.7097 42.1048 33.0875 42.6726 32.4635C44.2242 30.7582 45 28.7704 45 26.5L45 23.55C45 23.2304 44.9651 22.8588 44.8952 22.4354C44.7587 21.6079 44.5161 20.842 44.1674 20.1377C43.6459 19.0843 42.926 18.2484 42.0077 17.6301C40.8888 16.8767 39.5529 16.5 38 16.5C36.4471 16.5 35.1112 16.8767 33.9923 17.6301C33.074 18.2484 32.3541 19.0843 31.8326 20.1377C31.484 20.842 31.2414 21.6079 31.1048 22.4354C31.0349 22.8588 31 23.2304 31 23.55Z" fill-rule="evenodd"  fill="#424242" >
</path>
<path d="M5.99994 43.5C7.10451 43.5 7.99994 42.6046 7.99994 41.5L7.99994 25.5L23.9999 25.5L23.9999 41.5C23.9999 42.6046 24.8953 43.5 25.9999 43.5C27.1045 43.5 27.9999 42.6046 27.9999 41.5L27.9999 6.5C27.9999 5.3954 27.1045 4.5 25.9999 4.5C24.8953 4.5 23.9999 5.3954 23.9999 6.5L23.9999 21.5L7.99994 21.5L7.99994 6.5C7.99994 5.3954 7.10451 4.5 5.99994 4.5C4.89537 4.5 3.99994 5.3954 3.99994 6.5L3.99994 41.5C3.99994 42.6046 4.89537 43.5 5.99994 43.5Z" fill-rule="evenodd"  fill="#787878" >
</path>
</svg>
