<svg xmlns="http://www.w3.org/2000/svg" xmlns:xlink="http://www.w3.org/1999/xlink" width="48" height="48" viewBox="0 0 48 48" fill="none">
<path d="M17.7494 25.9993L25.2629 26.0001L25.2631 26.0001C26.3677 26.0001 27.2631 25.1046 27.2631 24.0001C27.2631 22.8956 26.3678 22.0002 25.2633 22.0001L25.2631 22.0001L17.7498 21.9993C16.9351 21.9993 16.1568 21.8423 15.415 21.5284C14.6974 21.2249 14.0615 20.796 13.5073 20.2416C12.953 19.6874 12.5242 19.0514 12.2207 18.3338C11.9069 17.5919 11.75 16.8136 11.75 15.9989C11.75 15.1842 11.9069 14.4059 12.2207 13.6639C12.5243 12.9463 12.9532 12.3103 13.5075 11.756C14.0618 11.2017 14.6978 10.7728 15.4154 10.4693C16.1573 10.1554 16.9357 9.99854 17.7504 9.99854L35.75 9.99854C36.8546 9.99854 37.75 9.10311 37.75 7.99854C37.75 6.89397 36.8546 5.99854 35.75 5.99854L17.7504 5.99854C16.3949 5.99854 15.0972 6.26077 13.8572 6.78524C12.6605 7.29139 11.6011 8.0055 10.6791 8.92759C9.75697 9.84966 9.04285 10.909 8.5367 12.1057C8.01223 13.3457 7.75 14.6434 7.75 15.9989C7.75 17.3543 8.0122 18.652 8.5366 19.8919C9.04269 21.0885 9.75672 22.1479 10.6787 23.0699C11.6007 23.992 12.6599 24.7061 13.8565 25.2123C15.0964 25.7369 16.394 25.9992 17.7494 25.9993Z" fill-rule="evenodd"  fill="#787878" >
</path>
<path d="M35.909 30C36.1363 30.6407 36.25 31.3077 36.25 32.0012C36.25 35.3151 33.5635 38.0016 30.2496 38.0016L12.25 38.0016C11.1454 38.0016 10.25 38.897 10.25 40.0016C10.25 41.1061 11.1454 42.0016 12.25 42.0016L30.2496 42.0016C35.7727 42.0016 40.25 37.5242 40.25 32.0012C40.25 31.3195 40.1837 30.6524 40.051 30L35.909 30L35.909 30Z" fill-rule="evenodd"  fill="#787878" >
</path>
<path d="M2.99991 24.0017C3 25.1063 3.89549 26.0016 5.00006 26.0016L43.0001 25.9986C44.1047 25.9985 45 25.103 44.9999 23.9985C44.9998 22.8939 44.1044 21.9985 42.9998 21.9986L4.99976 22.0016C3.89519 22.0016 2.99983 22.8971 2.99991 24.0017Z" fill-rule="evenodd"  fill="#424242" >
</path>
</svg>
