<svg xmlns="http://www.w3.org/2000/svg" xmlns:xlink="http://www.w3.org/1999/xlink" width="48" height="48" viewBox="0 0 48 48" fill="none">
<path d="M22.8602 43.0396L23.6946 43.0396L39.8972 42.9974C39.9312 42.9992 39.9655 43.0001 40 43.0001C41.1 43.0001 42 42.1001 42 41.0001C42 39.9001 41.1 39.0001 40 39.0001L39.9864 39.0001L39.9864 38.9949L27.6332 39.0303L41.8531 24.57C42.4188 23.9901 42.8502 23.3325 43.1471 22.583C43.437 21.8688 43.5785 21.1193 43.5785 20.3415C43.5714 19.5566 43.4229 18.8141 43.133 18.0999C42.8219 17.3504 42.3905 16.6928 41.8178 16.12L31.8971 6.19937C31.3243 5.62662 30.6596 5.18821 29.9101 4.87708C29.1888 4.59424 28.4393 4.43868 27.6544 4.44575C26.8695 4.43868 26.12 4.59424 25.3988 4.87708C24.6492 5.18821 23.9845 5.62662 23.4118 6.19937L6.32102 23.2901C5.76241 23.8487 5.324 24.4993 5.02702 25.2346C4.71589 25.97 4.56033 26.7337 4.5674 27.5327L4.5674 40.0061C4.56032 40.4092 4.63811 40.7981 4.80074 41.1728C4.94923 41.5335 5.16137 41.8446 5.44421 42.1274C5.71998 42.4032 6.03111 42.6153 6.39174 42.7638C6.7665 42.9265 7.15541 43.0042 7.55139 43.0042L7.55846 42.9972L22.8602 43.0396ZM8.55644 29.0885L8.56255 39.0091L19.8725 39.0329L8.55644 29.0885ZM10.1229 25.1451L23.829 37.1898L38.9964 21.7698C39.1944 21.5718 39.3288 21.3526 39.4348 21.1051C39.5338 20.8647 39.5762 20.6102 39.5762 20.3556C39.5692 20.094 39.5268 19.8394 39.4348 19.6061C39.3288 19.3586 39.1803 19.1394 38.9893 18.9485L29.0686 9.0278C28.8777 8.83688 28.6585 8.68839 28.404 8.5894C28.1635 8.4904 27.9161 8.4409 27.6544 8.44797C27.3928 8.4409 27.1453 8.4904 26.9049 8.5894C26.6503 8.68839 26.4311 8.83688 26.2402 9.0278L10.1229 25.1451Z" fill-rule="evenodd"  fill="#000000" >
</path>
</svg>
