<svg xmlns="http://www.w3.org/2000/svg" xmlns:xlink="http://www.w3.org/1999/xlink" width="48" height="48" viewBox="0 0 48 48" fill="none">
<path d="M18.5 40C18.5 41.1046 19.3954 42 20.5 42L41 42C42.1046 42 43 41.1046 43 40C43 38.8954 42.1046 38 41 38L20.5 38C19.3954 38 18.5 38.8954 18.5 40Z" fill-rule="evenodd"  fill="#9C56F1" >
</path>
<path d="M17.6866 39.4382C20.6898 40.8386 24.2597 39.5393 25.6602 36.536L26.666 34.379L34.7338 17.0776C35.6674 15.0754 34.8011 12.6955 32.799 11.7619L21.9233 6.69047C19.9212 5.75685 17.5412 6.62307 16.6076 8.62523L8.71311 25.5551L7.53401 28.0837C6.13358 31.0869 7.4329 34.6568 10.4361 36.0572L17.6866 39.4382Z"   fill="#E2C2FB" >
</path>
<path d="M18.5319 37.6254L11.2815 34.2445C9.27932 33.3109 8.41311 30.9309 9.34672 28.9288L18.4203 9.47036C18.8871 8.46928 20.0771 8.03617 21.0782 8.50298L31.9539 13.5744C32.955 14.0412 33.3881 15.2312 32.9213 16.2323L23.8476 35.6907C22.914 37.6928 20.5341 38.559 18.5319 37.6254ZM5.72149 27.2383C3.85423 31.2427 5.58668 36.0025 9.591 37.8697L16.8415 41.2507C20.8458 43.1179 25.6056 41.3855 27.4729 37.3812L36.5465 17.9227C37.9469 14.9195 36.6476 11.3496 33.6444 9.94917L22.7687 4.87775C19.7654 3.47732 16.1955 4.77665 14.7951 7.77989L5.72149 27.2383Z" fill-rule="evenodd"  fill="#8134ED" >
</path>
<path d="M9.5953 23.7602L27.5482 32.5842L25.7838 36.174L7.83088 27.3501L9.5953 23.7602Z" fill-rule="evenodd"  fill="#8134ED" >
</path>
</svg>
