<svg xmlns="http://www.w3.org/2000/svg" xmlns:xlink="http://www.w3.org/1999/xlink" width="48" height="48" viewBox="0 0 48 48" fill="none">
<path d="M37.8148 28.9874C37.6978 29.2215 37.539 29.4283 37.3476 29.6043C37.1469 29.7838 36.9197 29.9197 36.6719 29.9993L23.9134 34.3876C23.6597 34.4799 23.3949 34.5125 23.1317 34.4912C22.872 34.4793 22.6362 34.4162 22.3926 34.3026C22.1619 34.195 21.9551 34.0362 21.7825 33.8542C21.603 33.6535 21.4705 33.4357 21.3782 33.182L16.0256 18.4758C15.9093 18.1563 15.7366 17.8573 15.5144 17.5977C15.3016 17.3346 15.0555 17.1262 14.7692 16.9537L9.93522 13.935L28.5317 7.16636C28.7854 7.07401 29.0375 7.03549 29.3066 7.04395C29.5791 7.06182 29.8244 7.12155 30.0645 7.22571C30.3114 7.34866 30.5182 7.50751 30.6943 7.69884C30.8737 7.89956 31.0097 8.12678 31.102 8.38049L37.8989 27.435L37.9023 27.4444C37.9947 27.6981 38.0238 27.9535 38.0119 28.2133C38.0034 28.4824 37.9343 28.731 37.8148 28.9874ZM25.2063 38.1737C24.4477 38.4285 23.6694 38.5415 22.874 38.4905C22.1102 38.4386 21.3711 38.25 20.6722 37.9085C19.9766 37.5764 19.3665 37.128 18.8417 36.5634C18.2973 35.9741 17.893 35.3018 17.6194 34.5501L12.3899 20.1822L6.88343 16.7484C6.30407 16.3846 5.89469 15.8738 5.65869 15.2255L5.40218 14.5207C5.26195 14.1354 5.20374 13.7416 5.22754 13.3392C5.24537 12.9495 5.33668 12.5864 5.50402 12.2275C5.67137 11.8686 5.89085 11.5653 6.17784 11.3012C6.4708 11.0243 6.80992 10.8157 7.19519 10.6755L27.1636 3.40758C27.9154 3.13397 28.6903 3.01157 29.4917 3.04978C30.2837 3.09141 31.045 3.28256 31.7755 3.62323C32.5027 3.95451 33.1325 4.42764 33.6641 5.01101C34.1991 5.60377 34.6068 6.28543 34.8676 7.03121L41.6679 26.0951L41.6714 26.1045C41.9356 26.8597 42.0486 27.6379 42.0069 28.4299C41.9593 29.2348 41.7682 29.996 41.4173 30.6984C41.0766 31.429 40.6035 32.0588 40.0107 32.5938C39.4051 33.1228 38.7294 33.5178 37.9649 33.7854L25.2063 38.1737ZM8.41999 44.9202C8.35999 44.9002 8.29999 44.8802 8.22999 44.8501C8.16999 44.8301 8.11999 44.8001 8.05999 44.7701C7.99999 44.7402 7.93999 44.7002 7.88999 44.6702C7.82999 44.6302 7.77999 44.5901 7.72999 44.5501C7.67999 44.5101 7.62999 44.4601 7.58999 44.4202C7.53999 44.3701 7.49999 44.3201 7.44999 44.2701C7.40999 44.2202 7.36999 44.1702 7.33999 44.1102C7.29999 44.0602 7.26999 44.0001 7.23999 43.9502L7.14999 43.7701C7.12999 43.7101 7.10999 43.6502 7.08999 43.5801C7.06999 43.5201 7.04999 43.4601 7.03999 43.3901C7.02999 43.3301 7.01999 43.2601 7.00999 43.2002C6.99999 43.1302 6.99999 43.0701 6.99999 43.0001C6.99999 42.9401 6.99999 42.8701 7.00999 42.8102C7.01999 42.7402 7.02999 42.6801 7.03999 42.6102C7.04999 42.5501 7.06999 42.4801 7.08999 42.4201L7.14999 42.2402L7.23999 42.0602C7.26999 42.0001 7.29999 41.9502 7.33999 41.8901C7.36999 41.8401 7.40999 41.7801 7.44999 41.7301C7.49999 41.6801 7.53999 41.6302 7.58999 41.5901C7.62999 41.5402 7.67999 41.5001 7.72999 41.4601C7.77999 41.4101 7.82999 41.3802 7.88999 41.3401C7.93999 41.3001 7.99999 41.2701 8.05999 41.2402C8.10999 41.2101 8.16999 41.1801 8.22999 41.1502C8.29999 41.1302 8.35999 41.1102 8.41999 41.0901C8.47999 41.0701 8.54999 41.0501 8.60999 41.0402C8.66999 41.0301 8.73999 41.0201 8.79999 41.0101C8.86999 41.0101 8.92999 41.0001 8.99999 41.0001L39 41.0001C39.07 41.0001 39.13 41.0001 39.2 41.0101C39.26 41.0201 39.33 41.0301 39.39 41.0402C39.45 41.0501 39.52 41.0701 39.58 41.0901C39.64 41.1102 39.7 41.1302 39.77 41.1502C39.83 41.1801 39.89 41.2101 39.94 41.2402C40 41.2701 40.06 41.3001 40.11 41.3401C40.17 41.3701 40.22 41.4101 40.27 41.4502C40.32 41.5001 40.37 41.5402 40.41 41.5901C40.46 41.6302 40.5 41.6801 40.55 41.7301C40.59 41.7801 40.63 41.8302 40.66 41.8901C40.7 41.9401 40.73 42.0001 40.76 42.0602C40.79 42.1102 40.82 42.1701 40.85 42.2301C40.87 42.3001 40.89 42.3602 40.91 42.4201C40.93 42.4801 40.95 42.5501 40.96 42.6102C40.97 42.6701 40.98 42.7402 40.99 42.8001C41 42.8701 41 42.9301 41 43.0001C41 43.0701 41 43.1302 40.99 43.2002C40.98 43.2601 40.97 43.3301 40.96 43.3901C40.95 43.4502 40.93 43.5201 40.91 43.5801C40.89 43.6401 40.87 43.7002 40.85 43.7701C40.82 43.8301 40.79 43.8802 40.76 43.9401C40.73 44.0001 40.7 44.0602 40.66 44.1102C40.63 44.1702 40.59 44.2202 40.55 44.2701C40.5 44.3201 40.46 44.3701 40.41 44.4101C40.37 44.4601 40.32 44.5001 40.27 44.5501C40.22 44.5901 40.17 44.6302 40.11 44.6601C40.06 44.7002 40 44.7301 39.94 44.7601C39.89 44.7902 39.83 44.8201 39.77 44.8501C39.7 44.8701 39.64 44.8901 39.58 44.9101C39.52 44.9301 39.45 44.9502 39.39 44.9601C39.33 44.9702 39.26 44.9801 39.2 44.9902C39.13 45.0001 39.07 45.0001 39 45.0001L8.99999 45.0001C8.92999 45.0001 8.86999 45.0001 8.79999 44.9902C8.73999 44.9902 8.66999 44.9801 8.60999 44.9601C8.54999 44.9502 8.47999 44.9401 8.41999 44.9202Z" fill-rule="evenodd"  fill="#000000" >
</path>
</svg>
