<svg xmlns="http://www.w3.org/2000/svg" xmlns:xlink="http://www.w3.org/1999/xlink" width="48" height="48" viewBox="0 0 48 48" fill="none">
<path d="M2.82501 24C2.82501 24.52 2.92501 25.02 3.11501 25.5C3.32501 26 3.61501 26.44 3.99501 26.82L12.585 35.41C12.635 35.46 12.685 35.5 12.735 35.55C12.785 35.59 12.835 35.63 12.885 35.66C12.945 35.7 12.995 35.73 13.055 35.76L13.235 35.85L13.415 35.91C13.485 35.93 13.545 35.95 13.605 35.96C13.675 35.97 13.735 35.98 13.805 35.99C13.865 36 13.935 36 14.005 36C14.065 36 14.135 36 14.195 35.99C14.265 35.98 14.325 35.97 14.395 35.96C14.455 35.95 14.515 35.93 14.585 35.91L14.765 35.85L14.945 35.76C15.005 35.73 15.055 35.7 15.115 35.66C15.165 35.63 15.215 35.59 15.265 35.55C15.315 35.5 15.365 35.46 15.415 35.41C15.505 35.32 15.585 35.22 15.665 35.11C15.735 35 15.795 34.89 15.845 34.77C15.895 34.64 15.935 34.52 15.965 34.39C15.985 34.26 16.005 34.13 16.005 34C16.005 33.87 15.985 33.74 15.965 33.61C15.935 33.48 15.895 33.36 15.845 33.23C15.795 33.11 15.735 33 15.665 32.89C15.585 32.78 15.505 32.68 15.415 32.59L6.82501 24L15.415 15.41C15.455 15.37 15.505 15.32 15.545 15.27C15.695 15.09 15.805 14.89 15.885 14.68C15.965 14.46 16.005 14.23 16.005 14C16.005 13.87 15.985 13.74 15.965 13.61C15.935 13.48 15.895 13.36 15.845 13.23C15.795 13.11 15.735 13 15.665 12.89C15.585 12.78 15.505 12.68 15.415 12.59C15.325 12.49 15.225 12.41 15.115 12.34C15.005 12.26 14.885 12.2 14.765 12.15C14.645 12.1 14.515 12.06 14.395 12.04C14.265 12.01 14.135 12 14.005 12C13.865 12 13.735 12.01 13.605 12.04C13.485 12.06 13.355 12.1 13.235 12.15C13.115 12.2 12.995 12.26 12.885 12.34C12.775 12.41 12.675 12.49 12.585 12.59L3.99501 21.18C3.61501 21.56 3.32501 22 3.11501 22.5C2.92501 22.98 2.82501 23.48 2.82501 24ZM34.58 12.09C34.52 12.07 34.45 12.05 34.39 12.04C34.33 12.03 34.26 12.02 34.2 12.01C34.13 12 34.07 12 34 12C33.93 12 33.87 12 33.8 12.01C33.74 12.02 33.67 12.03 33.61 12.04C33.55 12.05 33.48 12.07 33.42 12.09C33.36 12.11 33.3 12.13 33.23 12.15C33.17 12.18 33.11 12.21 33.06 12.24C33 12.27 32.94 12.3 32.89 12.34C32.83 12.37 32.78 12.41 32.73 12.45C32.68 12.5 32.63 12.54 32.59 12.59C32.54 12.63 32.5 12.68 32.45 12.73C32.41 12.78 32.37 12.83 32.34 12.89C32.3 12.94 32.27 13 32.24 13.06C32.21 13.11 32.18 13.17 32.15 13.23C32.13 13.3 32.11 13.36 32.09 13.42C32.07 13.48 32.05 13.55 32.04 13.61C32.03 13.67 32.02 13.74 32.01 13.8C32 13.87 32 13.93 32 14C32 14.07 32 14.13 32.01 14.2C32.02 14.26 32.03 14.33 32.04 14.39C32.05 14.45 32.07 14.52 32.09 14.58C32.11 14.64 32.13 14.7 32.15 14.77C32.18 14.83 32.21 14.89 32.24 14.94C32.27 15 32.3 15.06 32.34 15.11C32.37 15.17 32.41 15.22 32.45 15.27C32.5 15.32 32.54 15.37 32.59 15.41L41.17 24L32.59 32.59C32.54 32.63 32.5 32.68 32.45 32.73C32.41 32.78 32.37 32.83 32.34 32.89C32.3 32.94 32.27 33 32.24 33.06C32.21 33.12 32.18 33.17 32.15 33.23C32.13 33.3 32.11 33.36 32.09 33.42C32.07 33.48 32.05 33.55 32.04 33.61C32.03 33.67 32.02 33.74 32.01 33.8C32 33.87 32 33.93 32 34C32 34.07 32 34.13 32.01 34.2C32.02 34.26 32.03 34.33 32.04 34.39C32.05 34.45 32.07 34.52 32.09 34.58C32.11 34.64 32.13 34.7 32.15 34.77C32.18 34.83 32.21 34.89 32.24 34.94C32.27 35 32.3 35.06 32.34 35.11C32.37 35.17 32.41 35.22 32.45 35.27C32.5 35.32 32.54 35.37 32.59 35.41C32.63 35.46 32.68 35.5 32.73 35.55C32.78 35.59 32.83 35.63 32.89 35.66C32.94 35.7 33 35.73 33.06 35.76C33.11 35.79 33.17 35.82 33.23 35.85C33.3 35.87 33.36 35.89 33.42 35.91C33.48 35.93 33.55 35.95 33.61 35.96C33.67 35.97 33.74 35.98 33.8 35.99C33.87 36 33.93 36 34 36C34.07 36 34.13 36 34.2 35.99C34.26 35.98 34.33 35.97 34.39 35.96C34.45 35.95 34.52 35.93 34.58 35.91C34.64 35.89 34.7 35.87 34.77 35.85C34.83 35.82 34.89 35.79 34.94 35.76C35 35.73 35.06 35.7 35.11 35.66C35.17 35.63 35.22 35.59 35.27 35.55C35.32 35.5 35.37 35.46 35.41 35.41L44 26.82C44.39 26.44 44.68 26 44.88 25.5C45.08 25.02 45.18 24.52 45.18 24C45.18 23.48 45.08 22.98 44.88 22.5C44.68 22 44.39 21.56 44 21.18L35.41 12.59C35.37 12.54 35.32 12.5 35.27 12.45C35.22 12.41 35.17 12.37 35.11 12.34C35.06 12.3 35 12.27 34.94 12.24C34.89 12.21 34.83 12.18 34.77 12.15C34.7 12.13 34.64 12.11 34.58 12.09ZM21.94 40.49L29.94 8.49C29.96 8.42 29.97 8.36 29.98 8.29C29.99 8.23 29.99 8.16 30 8.1L30 7.9C29.99 7.84 29.99 7.77 29.98 7.71C29.97 7.64 29.96 7.58 29.94 7.51L29.88 7.33C29.86 7.26 29.84 7.2 29.81 7.14C29.78 7.08 29.75 7.03 29.71 6.97C29.68 6.91 29.64 6.86 29.61 6.81C29.57 6.76 29.53 6.7 29.48 6.66C29.44 6.61 29.39 6.56 29.34 6.52C29.29 6.47 29.24 6.43 29.19 6.39C29.14 6.35 29.08 6.32 29.03 6.28L28.85 6.19C28.8 6.16 28.73 6.14 28.67 6.12C28.61 6.09 28.55 6.08 28.49 6.06C28.42 6.04 28.36 6.03 28.29 6.02C28.23 6.01 28.16 6.01 28.1 6L27.9 6C27.84 6.01 27.77 6.01 27.71 6.02C27.64 6.03 27.58 6.04 27.51 6.06L27.33 6.12C27.26 6.14 27.2 6.16 27.14 6.19C27.08 6.22 27.03 6.25 26.97 6.29C26.91 6.32 26.86 6.36 26.81 6.39C26.76 6.43 26.7 6.47 26.66 6.52C26.61 6.56 26.56 6.61 26.52 6.66C26.47 6.71 26.43 6.76 26.39 6.81C26.35 6.86 26.32 6.92 26.28 6.97L26.19 7.15C26.16 7.2 26.14 7.27 26.12 7.33C26.09 7.39 26.08 7.45 26.06 7.51L18.06 39.51C18.04 39.58 18.03 39.64 18.02 39.71C18.01 39.77 18.01 39.84 18 39.9L18 40.1C18.01 40.16 18.01 40.23 18.02 40.29C18.03 40.36 18.04 40.42 18.06 40.49L18.12 40.67C18.14 40.74 18.16 40.8 18.19 40.86C18.22 40.92 18.25 40.97 18.29 41.03C18.32 41.09 18.36 41.14 18.39 41.19C18.43 41.24 18.47 41.3 18.52 41.34C18.56 41.39 18.61 41.44 18.66 41.48C18.71 41.53 18.76 41.57 18.81 41.61C18.86 41.65 18.92 41.68 18.97 41.72L19.15 41.81C19.2 41.84 19.27 41.86 19.33 41.88C19.39 41.91 19.45 41.92 19.51 41.94C19.58 41.96 19.64 41.97 19.71 41.98C19.77 41.99 19.84 41.99 19.9 42L20.1 42C20.16 41.99 20.23 41.99 20.29 41.98C20.36 41.97 20.42 41.96 20.49 41.94L20.67 41.88C20.74 41.86 20.8 41.84 20.86 41.81C20.92 41.78 20.97 41.75 21.03 41.72C21.09 41.68 21.14 41.64 21.19 41.61C21.24 41.57 21.3 41.53 21.34 41.48C21.39 41.44 21.44 41.39 21.48 41.34C21.53 41.29 21.57 41.24 21.61 41.19C21.65 41.14 21.68 41.08 21.72 41.03L21.81 40.85C21.84 40.8 21.86 40.73 21.88 40.67C21.91 40.61 21.92 40.55 21.94 40.49Z" fill-rule="evenodd"  fill="#000000" >
</path>
</svg>
