<svg xmlns="http://www.w3.org/2000/svg" xmlns:xlink="http://www.w3.org/1999/xlink" width="48" height="48" viewBox="0 0 48 48" fill="none">
<path d="M13.9999 9.49951C13.9999 10.6041 14.8953 11.4995 15.9999 11.4996L42.9999 11.5006C44.1045 11.5006 44.9999 10.6052 44.9999 9.50063C45 8.39606 44.1046 7.5006 43 7.50056L16 7.49958C14.8954 7.49954 14 8.39494 13.9999 9.49951Z" fill-rule="evenodd"  fill="#424242" >
</path>
<path d="M9 9.5C9 10.8807 7.88071 12 6.5 12C5.11929 12 4 10.8807 4 9.5C4 8.11929 5.11929 7 6.5 7C7.88071 7 9 8.11929 9 9.5Z"   fill="#424242" >
</path>
<path d="M18.9999 23.9995C18.9999 25.1041 19.8953 25.9996 20.9998 25.9996L42.9998 26.0006C44.1044 26.0006 44.9999 25.1052 44.9999 24.0007C45 22.8961 44.1046 22.0006 43 22.0006L21 21.9996C19.8954 21.9996 19 22.8949 18.9999 23.9995Z" fill-rule="evenodd"  fill="#787878" >
</path>
<path d="M14 24C14 25.3807 12.8807 26.5 11.5 26.5C10.1193 26.5 9 25.3807 9 24C9 22.6193 10.1193 21.5 11.5 21.5C12.8807 21.5 14 22.6193 14 24Z"   fill="#787878" >
</path>
<path d="M23.9999 38.4995C23.9998 39.6041 24.8952 40.4996 25.9998 40.4996L42.9998 40.5006C44.1044 40.5007 44.9998 39.6053 44.9999 38.5007C44.9999 37.3961 44.1046 36.5007 43 36.5006L26 36.4996C24.8954 36.4996 23.9999 37.3949 23.9999 38.4995Z" fill-rule="evenodd"  fill="#424242" >
</path>
<path d="M19 38.5C19 39.8807 17.8807 41 16.5 41C15.1193 41 14 39.8807 14 38.5C14 37.1193 15.1193 36 16.5 36C17.8807 36 19 37.1193 19 38.5Z"   fill="#424242" >
</path>
</svg>
