<svg xmlns="http://www.w3.org/2000/svg" xmlns:xlink="http://www.w3.org/1999/xlink" width="48" height="48" viewBox="0 0 48 48" fill="none">
<path d="M21.22 7.16C20.98 7.26 20.77 7.4 20.59 7.59C20.4 7.77 20.26 7.98 20.16 8.22C20.05 8.47 20 8.73 20 9L28 9C28 8.73 27.95 8.47 27.84 8.22C27.74 7.98 27.6 7.77 27.41 7.59C27.23 7.4 27.02 7.26 26.78 7.16C26.53 7.05 26.27 7 26 7L22 7C21.73 7 21.47 7.05 21.22 7.16ZM19.66 3.47C20.41 3.16 21.19 3 22 3L26 3C26.81 3 27.59 3.16 28.34 3.47C29.05 3.78 29.69 4.2 30.24 4.76C30.8 5.31 31.22 5.95 31.53 6.66C31.84 7.41 32 8.19 32 9L43 9C43.13 9 43.26 9.01 43.39 9.04C43.52 9.07 43.64 9.1 43.77 9.15C43.89 9.2 44 9.27 44.11 9.34C44.22 9.41 44.32 9.49 44.41 9.59C44.51 9.68 44.59 9.78 44.66 9.89C44.74 10 44.8 10.11 44.85 10.24C44.9 10.36 44.94 10.48 44.96 10.61C44.99 10.74 45 10.87 45 11C45 11.07 45 11.13 44.99 11.2C44.98 11.26 44.97 11.33 44.96 11.39C44.95 11.46 44.93 11.52 44.91 11.58C44.89 11.64 44.87 11.71 44.85 11.77C44.82 11.83 44.79 11.89 44.76 11.94C44.73 12 44.7 12.06 44.66 12.11C44.63 12.17 44.59 12.22 44.55 12.27C44.5 12.32 44.46 12.37 44.41 12.42C44.37 12.46 44.32 12.51 44.27 12.55C44.22 12.59 44.17 12.63 44.11 12.66C44.06 12.7 44 12.73 43.94 12.76C43.88 12.8 43.83 12.82 43.77 12.85C43.7 12.87 43.64 12.9 43.58 12.91C43.52 12.93 43.45 12.95 43.39 12.96C43.33 12.98 43.26 12.98 43.2 12.99C43.13 13 43.07 13 43 13L40 13L40 37C40 38.08 39.79 39.12 39.37 40.11C38.96 41.07 38.39 41.92 37.66 42.66C36.92 43.39 36.07 43.96 35.11 44.37C34.12 44.79 33.08 45 32 45L16 45C14.92 45 13.88 44.79 12.89 44.37C11.93 43.96 11.08 43.39 10.34 42.66C9.61 41.92 9.04 41.07 8.63 40.11C8.21 39.12 8 38.08 8 37L8 13L5 13C4.93 13 4.87 13 4.8 12.99C4.74 12.98 4.67 12.97 4.61 12.96C4.55 12.95 4.48 12.93 4.42 12.91C4.36 12.89 4.3 12.87 4.23 12.85C4.17 12.82 4.11 12.79 4.06 12.76C4 12.73 3.94 12.7 3.89 12.66C3.83 12.63 3.78 12.59 3.73 12.55C3.68 12.5 3.63 12.46 3.59 12.41C3.54 12.37 3.5 12.32 3.45 12.27C3.41 12.22 3.37 12.17 3.34 12.11C3.3 12.06 3.27 12 3.24 11.94C3.21 11.88 3.18 11.83 3.15 11.77C3.13 11.7 3.11 11.64 3.09 11.58C3.07 11.52 3.05 11.45 3.04 11.39C3.03 11.33 3.02 11.26 3.01 11.2C3 11.13 3 11.07 3 11C3 10.93 3 10.87 3.01 10.8C3.02 10.74 3.03 10.67 3.04 10.61C3.05 10.55 3.07 10.48 3.09 10.42C3.11 10.36 3.13 10.3 3.15 10.23C3.18 10.17 3.21 10.11 3.24 10.06C3.27 10 3.3 9.94 3.34 9.89C3.37 9.83 3.41 9.78 3.45 9.73C3.5 9.68 3.54 9.63 3.59 9.59C3.63 9.54 3.68 9.5 3.73 9.45C3.78 9.41 3.83 9.37 3.89 9.34C3.94 9.3 4 9.27 4.06 9.24C4.11 9.21 4.17 9.18 4.23 9.15C4.3 9.13 4.36 9.11 4.42 9.09C4.48 9.07 4.55 9.05 4.61 9.04C4.67 9.03 4.74 9.02 4.8 9.01C4.87 9 4.93 9 5 9L16 9C16 8.19 16.16 7.41 16.47 6.66C16.78 5.95 17.2 5.31 17.76 4.76C18.31 4.2 18.95 3.78 19.66 3.47ZM13.17 39.83C12.8 39.46 12.52 39.03 12.31 38.55C12.1 38.06 12 37.54 12 37L12 13L36 13L36 37C36 37.54 35.9 38.06 35.69 38.55C35.48 39.03 35.2 39.46 34.83 39.83C34.46 40.2 34.03 40.48 33.55 40.69C33.06 40.9 32.54 41 32 41L16 41C15.46 41 14.94 40.9 14.45 40.69C13.97 40.48 13.54 40.2 13.17 39.83Z" fill-rule="evenodd"  fill="#000000" >
</path>
</svg>
