<svg xmlns="http://www.w3.org/2000/svg" xmlns:xlink="http://www.w3.org/1999/xlink" width="48" height="48" viewBox="0 0 48 48" fill="none">
<path d="M16.5005 9.09853L7.93531 18.9869C7.2121 19.8218 7.30269 21.0849 8.1376 21.808C8.97251 22.5312 10.2356 22.4407 10.9588 21.6058L19.524 11.7174C23.2906 7.36893 29.8692 6.89723 34.2177 10.6639C35.2794 11.5835 36.1185 12.6666 36.7351 13.9134C37.3314 15.1189 37.681 16.3957 37.784 17.7438C37.887 19.092 37.7355 20.4071 37.3293 21.6893C36.9093 23.0152 36.2444 24.2132 35.3348 25.2835L21.4006 41.678L21.3991 41.6798C20.6892 42.5147 20.7834 43.7677 21.6136 44.4868C22.4485 45.21 23.7116 45.1194 24.4348 44.2845L24.447 44.2703L24.449 44.2679L38.3826 27.874C39.6403 26.3943 40.5603 24.7354 41.1426 22.8972C41.7048 21.1221 41.9148 19.3028 41.7724 17.4391C41.63 15.5754 41.146 13.8091 40.3206 12.1401C39.4658 10.4117 38.3044 8.91182 36.8366 7.64038C30.8183 2.42738 21.7135 3.08022 16.5005 9.09853Z" fill-rule="evenodd"  fill="#787878" >
</path>
<path d="M7.74023 6.98999C8.8448 6.98999 9.74023 7.88542 9.74023 8.98999L9.74023 16.9042L16.2824 9.35069C17.0056 8.51575 18.2687 8.42513 19.1036 9.14829C19.9385 9.87145 20.0292 11.1346 19.306 11.9695L12.2781 20.0838L20.8959 20.0838C22.0004 20.0838 22.8959 20.9792 22.8959 22.0838C22.8959 23.1884 22.0004 24.0838 20.8959 24.0838L9.74023 24.0838C7.53109 24.0838 5.74023 22.2929 5.74023 20.0838L5.74023 8.98999C5.74023 7.88542 6.63566 6.98999 7.74023 6.98999Z" fill-rule="evenodd"  fill="#424242" >
</path>
</svg>
