<svg xmlns="http://www.w3.org/2000/svg" xmlns:xlink="http://www.w3.org/1999/xlink" width="48" height="48" viewBox="0 0 48 48" fill="none">
<path d="M19.34 38.8899C19.28 38.8699 19.22 38.8399 19.16 38.8099C19.1 38.7899 19.04 38.7599 18.98 38.7199C18.93 38.6899 18.87 38.6499 18.82 38.6099C18.77 38.5799 18.72 38.5299 18.67 38.4899L9.17004 29.9899C9.07004 29.8999 8.98004 29.8099 8.90004 29.6999C8.82004 29.5999 8.75004 29.4899 8.70004 29.3699C8.64004 29.2499 8.60004 29.1299 8.56004 28.9999C8.53004 28.8699 8.51004 28.7399 8.50004 28.6099C8.50004 28.4799 8.50004 28.3499 8.52004 28.2199C8.54004 28.0899 8.57004 27.9599 8.61004 27.8399C8.66004 27.7099 8.71004 27.5999 8.78004 27.4799C8.84004 27.3699 8.92004 27.2599 9.01004 27.1699C9.10004 27.0699 9.19004 26.9799 9.30004 26.8999C9.40004 26.8199 9.51004 26.7499 9.63004 26.6999C9.75004 26.6399 9.87004 26.5999 10 26.5599C10.13 26.5299 10.26 26.5099 10.39 26.4999C10.52 26.4999 10.65 26.4999 10.78 26.5199C10.91 26.5399 11.04 26.5699 11.16 26.6099C11.29 26.6599 11.4 26.7099 11.52 26.7799C11.63 26.8399 11.74 26.9199 11.83 27.0099L21.33 35.5099C21.38 35.5499 21.43 35.5999 21.47 35.6499C21.52 35.6999 21.56 35.7499 21.6 35.7999C21.64 35.8499 21.67 35.8999 21.71 35.9599C21.74 36.0199 21.77 36.0699 21.8 36.1299C21.83 36.1899 21.86 36.2499 21.88 36.3099C21.9 36.3799 21.92 36.4399 21.94 36.4999C21.95 36.5699 21.97 36.6299 21.98 36.6899C21.99 36.7599 21.99 36.8199 22 36.8899L22 37.0899C22 37.1499 21.99 37.2199 21.98 37.2799C21.97 37.3499 21.96 37.4099 21.94 37.4699C21.93 37.5399 21.91 37.5999 21.89 37.6599C21.87 37.7199 21.84 37.7799 21.81 37.8399C21.79 37.8999 21.76 37.9599 21.72 38.0199C21.69 38.0699 21.65 38.1299 21.61 38.1799C21.58 38.2299 21.53 38.2799 21.49 38.3299C21.45 38.3799 21.4 38.4299 21.35 38.4699C21.3 38.5199 21.25 38.5599 21.2 38.5999C21.15 38.6399 21.1 38.6699 21.04 38.7099C20.98 38.7399 20.93 38.7699 20.87 38.7999C20.81 38.8299 20.75 38.8599 20.69 38.8799C20.62 38.8999 20.56 38.9199 20.5 38.9399C20.43 38.9499 20.37 38.9699 20.31 38.9799C20.24 38.9899 20.18 38.9899 20.11 38.9999L19.91 38.9999C19.85 38.9999 19.78 38.9899 19.72 38.9799C19.65 38.9699 19.59 38.9599 19.53 38.9399C19.46 38.9299 19.4 38.9099 19.34 38.8899ZM25.3988 4.87693C26.1201 4.59408 26.8696 4.43852 27.6545 4.44559C28.4394 4.43852 29.1889 4.59408 29.9102 4.87693C30.6597 5.18805 31.3244 5.62646 31.8971 6.19922L41.8178 16.1199C42.3906 16.6927 42.8219 17.3503 43.133 18.0998C43.423 18.814 43.5715 19.5565 43.5785 20.3413C43.5785 21.1192 43.4371 21.8687 43.1472 22.5829C42.8502 23.3324 42.4189 23.99 41.8532 24.5698L27.6333 39.0302L39.9864 38.9948L39.9864 39L40 38.9999C41.1 38.9999 42 39.8999 42 40.9999C42 42.0999 41.1 42.9999 40 42.9999C39.9656 42.9999 39.9313 42.9991 39.8972 42.9973L23.6947 43.0395L22.8603 43.0395L7.55853 42.997L7.55146 43.0041C7.15548 43.0041 6.76657 42.9263 6.3918 42.7637C6.03118 42.6152 5.72005 42.4031 5.44428 42.1273C5.16144 41.8445 4.94931 41.5333 4.80082 41.1727C4.63818 40.7979 4.5604 40.409 4.56747 40.006L4.56747 27.5326C4.5604 26.7336 4.71596 25.9699 5.02709 25.2345C5.32408 24.4991 5.76248 23.8486 6.32109 23.29L23.4118 6.19922C23.9846 5.62646 24.6493 5.18805 25.3988 4.87693Z" fill-rule="evenodd"  fill="#000000" >
</path>
</svg>
