<svg xmlns="http://www.w3.org/2000/svg" xmlns:xlink="http://www.w3.org/1999/xlink" width="48" height="48" viewBox="0 0 48 48" fill="none">
<path d="M19.5 9.5C19.5 5.35787 16.1421 2 12 2C10.9836 2 10.0103 2.19674 9.08005 2.59021C8.18252 2.96983 7.38807 3.50533 6.6967 4.1967C6.00533 4.88807 5.46983 5.68252 5.09021 6.58005C4.69674 7.51032 4.5 8.48364 4.5 9.5C4.5 9.61056 4.50239 9.72056 4.50713 9.82995C4.50241 9.88601 4.5 9.94272 4.5 10L4.5 12.25C4.5 13.6851 4.75459 15.0606 5.26376 16.3765C5.75917 17.6569 6.46056 18.7933 7.36794 19.7858C8.28708 20.7911 9.34673 21.5715 10.5469 22.127C11.8042 22.709 13.1219 23 14.5 23C15.6046 23 16.5 22.1046 16.5 21C16.5 19.8954 15.6046 19 14.5 19C13.7092 19 12.9515 18.8323 12.2271 18.497C11.5133 18.1666 10.8776 17.6965 10.3201 17.0867C10.2161 16.973 10.1164 16.8562 10.021 16.7361C10.6514 16.9082 11.315 17 12 17C16.1421 17 19.5 13.6421 19.5 9.5ZM36.5 9.5C36.5 5.35787 33.1421 2 29 2C27.9836 2 27.0103 2.19674 26.08 2.59021C25.1825 2.96983 24.3881 3.50533 23.6967 4.1967C23.0053 4.88807 22.4698 5.68252 22.0902 6.58005C21.6967 7.51032 21.5 8.48364 21.5 9.5C21.5 9.61056 21.5024 9.72056 21.5071 9.82995C21.5024 9.88601 21.5 9.94272 21.5 10L21.5 12.25C21.5 13.6851 21.7546 15.0606 22.2638 16.3765C22.7592 17.6569 23.4606 18.7933 24.3679 19.7858C25.2871 20.7911 26.3468 21.5715 27.5469 22.127C28.8042 22.709 30.1219 23 31.5 23C32.6046 23 33.5 22.1046 33.5 21C33.5 19.8954 32.6046 19 31.5 19C30.7091 19 29.9515 18.8323 29.2271 18.497C28.5133 18.1666 27.8776 17.6965 27.3201 17.0867C27.2161 16.973 27.1164 16.8562 27.021 16.7361C27.6514 16.9082 28.315 17 29 17C33.1421 17 36.5 13.6421 36.5 9.5ZM9.52513 7.02513C10.2085 6.34171 11.0335 6 12 6C13.933 6 15.5 7.567 15.5 9.5C15.5 11.433 13.933 13 12 13C10.067 13 8.5 11.433 8.5 9.5C8.5 8.5335 8.84171 7.70854 9.52513 7.02513ZM26.5251 7.02513C27.2086 6.34171 28.0335 6 29 6C30.933 6 32.5 7.567 32.5 9.5C32.5 11.433 30.933 13 29 13C27.067 13 25.5 11.433 25.5 9.5C25.5 8.5335 25.8417 7.70854 26.5251 7.02513Z" fill-rule="evenodd"  fill="#424242" >
</path>
<path d="M26.5 31.5C26.5 27.3579 23.1421 24 19 24C17.9836 24 17.0103 24.1967 16.08 24.5902C15.1825 24.9698 14.3881 25.5053 13.6967 26.1967C13.0053 26.8881 12.4698 27.6825 12.0902 28.58C11.6967 29.5103 11.5 30.4836 11.5 31.5C11.5 35.6421 14.8579 39 19 39C19.685 39 20.3485 38.9082 20.979 38.7361C20.8836 38.8562 20.7839 38.973 20.6799 39.0867C20.1224 39.6965 19.4867 40.1666 18.7729 40.497C18.0485 40.8323 17.2908 41 16.5 41C15.3954 41 14.5 41.8954 14.5 43C14.5 44.1046 15.3954 45 16.5 45C17.8781 45 19.1958 44.709 20.4531 44.127C21.6532 43.5715 22.7129 42.7911 23.6321 41.7858C24.5394 40.7933 25.2408 39.6569 25.7362 38.3765C26.2454 37.0606 26.5 35.6851 26.5 34.25L26.5 32C26.5 31.9427 26.4976 31.886 26.4929 31.83C26.4976 31.7206 26.5 31.6106 26.5 31.5ZM43.5 31.5C43.5 27.3579 40.1421 24 36 24C34.9836 24 34.0103 24.1967 33.08 24.5902C32.1825 24.9698 31.3881 25.5053 30.6967 26.1967C30.0053 26.8881 29.4698 27.6825 29.0902 28.58C28.6967 29.5103 28.5 30.4836 28.5 31.5C28.5 35.6421 31.8579 39 36 39C36.685 39 37.3486 38.9082 37.979 38.7361C37.8836 38.8562 37.7839 38.973 37.6799 39.0867C37.1224 39.6965 36.4867 40.1666 35.7729 40.497C35.0485 40.8323 34.2908 41 33.5 41C32.3954 41 31.5 41.8954 31.5 43C31.5 44.1046 32.3954 45 33.5 45C34.8781 45 36.1958 44.709 37.4531 44.127C38.6533 43.5715 39.713 42.7911 40.6321 41.7858C41.5394 40.7933 42.2408 39.6569 42.7362 38.3765C43.2454 37.0606 43.5 35.6851 43.5 34.25L43.5 32C43.5 31.9427 43.4976 31.886 43.4929 31.83C43.4976 31.7206 43.5 31.6106 43.5 31.5ZM16.5251 29.0251C17.2085 28.3417 18.0335 28 19 28C20.933 28 22.5 29.567 22.5 31.5C22.5 33.433 20.933 35 19 35C17.067 35 15.5 33.433 15.5 31.5C15.5 30.5335 15.8417 29.7085 16.5251 29.0251ZM33.5251 29.0251C34.2086 28.3417 35.0335 28 36 28C37.933 28 39.5 29.567 39.5 31.5C39.5 33.433 37.933 35 36 35C34.067 35 32.5 33.433 32.5 31.5C32.5 30.5335 32.8417 29.7085 33.5251 29.0251Z" fill-rule="evenodd"  fill="#787878" >
</path>
</svg>
