<svg xmlns="http://www.w3.org/2000/svg" xmlns:xlink="http://www.w3.org/1999/xlink" width="48" height="48" viewBox="0 0 48 48" fill="none">
<path d="M6 41C6 42.1046 6.89543 43 8 43L40 43C41.1046 43 42 42.1046 42 41C42 39.8954 41.1046 39 40 39L8 39C6.89543 39 6 39.8954 6 41Z" fill-rule="evenodd"  fill="#787878" >
</path>
<path d="M12.8124 46.6417L5.99568 43.2195C4.1552 42.2955 4.15862 39.6672 6.00151 38.7481L12.8059 35.3543C14.2671 34.6254 15.9852 35.6865 15.9878 37.3195L15.9995 44.672C16.0021 46.3106 14.2768 47.3768 12.8124 46.6417Z" fill-rule="evenodd"  fill="#424242" >
</path>
<path d="M35.1875 46.6417L42.0043 43.2195C43.8448 42.2955 43.8414 39.6672 41.9985 38.7481L35.1941 35.3543C33.7328 34.6254 32.0148 35.6865 32.0122 37.3195L32.0005 44.672C31.9979 46.3106 33.7232 47.3768 35.1875 46.6417Z" fill-rule="evenodd"  fill="#424242" >
</path>
<path d="M12 2L36 2C40.4183 2 44 5.58172 44 10L44 25C44 29.4183 40.4183 33 36 33L12 33C7.58172 33 4 29.4183 4 25L4 10C4 5.58172 7.58172 2 12 2ZM8 22.5743C8.1424 22.3964 8.31467 22.2272 8.51682 22.0669C8.88946 21.7713 9.33108 21.5356 9.84169 21.3599C10.539 21.12 11.3418 21 12.25 21C13.003 21 13.7943 21.2293 14.6239 21.6879C15.0029 21.8974 15.4262 22.1727 15.8938 22.514C16.1933 22.7326 16.6478 23.0836 17.2571 23.5669C17.9084 24.0835 18.4054 24.4669 18.7482 24.7171C19.3511 25.1571 19.9154 25.5224 20.441 25.8129C21.8727 26.6043 23.3091 27 24.75 27C26.0927 27 27.3448 26.811 28.5061 26.4331C29.4637 26.1214 30.3362 25.6897 31.1237 25.138C31.7007 24.7337 32.2067 24.2841 32.6418 23.789C32.8696 23.5298 33.0508 23.2926 33.1853 23.0774C33.3845 22.7664 33.5 22.3967 33.5 22C33.5 20.8954 32.6046 20 31.5 20C30.7841 20 30.1561 20.3761 29.8027 20.9415C29.7995 20.9461 29.7956 20.9516 29.791 20.9581C29.7493 21.0158 29.6981 21.0792 29.6372 21.1485C29.4131 21.4034 29.1436 21.6413 28.8285 21.862C27.7457 22.6207 26.3862 23 24.75 23C23.997 23 23.2057 22.7707 22.3761 22.3121C21.9971 22.1026 21.5738 21.8273 21.1062 21.486C20.8067 21.2674 20.3522 20.9165 19.7429 20.4331C19.0916 19.9165 18.5946 19.5331 18.2518 19.2829C17.6489 18.8429 17.0846 18.4776 16.559 18.1871C15.1273 17.3957 13.6909 17 12.25 17C10.8958 17 9.65915 17.1925 8.54016 17.5776C8.35606 17.6409 8.17601 17.7092 8 17.7822L8 10C8 7.79086 9.79086 6 12 6L36 6C38.2091 6 40 7.79086 40 10L40 25C40 27.2091 38.2091 29 36 29L12 29C9.79086 29 8 27.2091 8 25L8 22.5743Z" fill-rule="evenodd"  fill="#424242" >
</path>
<path d="M23.5 19C26.5376 19 29 16.5376 29 13.5C29 10.4624 26.5376 8 23.5 8C20.4624 8 18 10.4624 18 13.5C18 16.5376 20.4624 19 23.5 19ZM23.5 12C24.3284 12 25 12.6716 25 13.5C25 14.3284 24.3284 15 23.5 15C22.6716 15 22 14.3284 22 13.5C22 12.6716 22.6716 12 23.5 12Z" fill-rule="evenodd"  fill="#787878" >
</path>
</svg>
