<svg xmlns="http://www.w3.org/2000/svg" xmlns:xlink="http://www.w3.org/1999/xlink" width="48" height="48" viewBox="0 0 48 48" fill="none">
<path d="M32 17C30.8954 17 30 17.8954 30 19C30 20.1046 30.8954 21 32 21C33.1046 21 34 20.1046 34 19C34 17.8954 33.1046 17 32 17Z"   fill="#1764FF" >
</path>
<path d="M32 34.5C30.9 34.5 30 35.4 30 36.5C30 37.6 30.9 38.5 32 38.5C33.1 38.5 34 37.6 34 36.5C34 35.4 33.1 34.5 32 34.5Z"   fill="#1764FF" >
</path>
<path d="M5.99994 43.5001C7.10451 43.5001 7.99996 42.6047 8 41.5001L8.001 6.50011C8.00104 5.39552 7.10563 4.50009 6.00106 4.50006C4.89649 4.50003 4.00104 5.3954 4.001 6.5L4 41.5C3.99996 42.6046 4.89537 43.5 5.99994 43.5001Z" fill-rule="evenodd"  fill="#4187FF" >
</path>
<path d="M27.9981 23.5C27.9981 22.3954 27.1026 21.5 25.998 21.5001L5.99994 21.5011C4.89534 21.5011 3.99998 22.3966 4.00003 23.5012C4.00009 24.6057 4.89553 25.5011 6.00013 25.5011L25.9982 25.5001C27.1028 25.5 27.9982 24.6046 27.9981 23.5Z" fill-rule="evenodd"  fill="#4187FF" >
</path>
<path d="M25.9999 43.5C27.1045 43.5001 28 42.6047 28 41.5001L28.0008 6.5001C28.0009 5.3955 27.1055 4.50008 26.0009 4.50005C24.8963 4.50002 24.0009 5.3954 24.0008 6.5L24 41.5C24 42.6046 24.8954 43.5 25.9999 43.5Z" fill-rule="evenodd"  fill="#4187FF" >
</path>
<path d="M43 17L32 17L32 21L38.6716 21L32.2233 27.4483C31.4254 28.2462 31.3083 29.1354 31.872 30.1159C32.4621 31.1423 33.3198 31.477 34.4453 31.1201C36.8835 30.347 38.7793 30.2299 40.1327 30.7688C41.3776 31.2645 42 32.5082 42 34.5C42 36.1759 41.5839 37.3836 40.7518 38.1233C40.0943 38.7078 39.177 39 38 39C35.3333 39 34 38.1667 34 36.5L30 36.5C30 38.4236 30.8242 40.0157 32.4726 41.2762C33.9754 42.4254 35.8179 43 38 43C40.5075 43 42.5281 42.0415 44.0617 40.1244C45.3539 38.5092 46 36.6344 46 34.5C46 30.6998 44.5375 28.2173 41.6125 27.0526C40.7747 26.719 39.8594 26.5221 38.8664 26.462L44.4142 20.9142C44.7893 20.5391 45 20.0304 45 19.5L45 19C45 17.8954 44.1046 17 43 17Z" fill-rule="evenodd"  fill="#1764FF" >
</path>
</svg>
