<svg xmlns="http://www.w3.org/2000/svg" xmlns:xlink="http://www.w3.org/1999/xlink" width="48" height="48" viewBox="0 0 48 48" fill="none">
<path d="M24 3C30.6274 3 36 8.37258 36 15L36 25C36 31.6274 30.6274 37 24 37C17.3726 37 12 31.6274 12 25L12 15C12 8.37258 17.3726 3 24 3ZM8 25C8 23.8954 7.10457 23 6 23C4.89543 23 4 23.8954 4 25C4 36.0457 12.9543 45 24 45C35.0457 45 44 36.0457 44 25C44 23.8954 43.1046 23 42 23C40.8954 23 40 23.8954 40 25C40 33.8365 32.8366 41 24 41C15.1635 41 8 33.8365 8 25Z" fill-rule="evenodd"  fill="#000000" >
</path>
</svg>
