<svg xmlns="http://www.w3.org/2000/svg" xmlns:xlink="http://www.w3.org/1999/xlink" width="48" height="48" viewBox="0 0 48 48" fill="none">
<path d="M22.8714 38.4833C23.668 38.5348 24.4459 38.4302 25.2049 38.1696L37.9662 33.7884C41.1272 32.7032 42.7922 29.2445 41.6689 26.0969L34.8645 7.02981C33.7458 3.89499 30.2892 2.26987 27.1614 3.40828L7.1953 10.6754C5.63836 11.242 4.8356 12.9636 5.40228 14.5205L5.65979 15.228C5.89563 15.876 6.30607 16.3824 6.89111 16.7473L12.3819 20.1724L17.6191 34.5484C17.8938 35.3026 18.3016 35.9731 18.8426 36.5601C19.3647 37.1267 19.9745 37.5765 20.6719 37.9094C21.3693 38.2423 22.1025 38.4336 22.8714 38.4833ZM36.6674 30.0051L23.9061 34.3864C23.652 34.4736 23.3931 34.5087 23.1293 34.4916C22.8733 34.4751 22.6286 34.4111 22.3951 34.2996C22.1616 34.1882 21.9579 34.0381 21.7841 33.8495C21.6049 33.6551 21.4694 33.4317 21.3775 33.1793L16.0224 18.4794C15.7864 17.8319 15.3761 17.3257 14.7913 16.9609L9.93829 13.9337L28.5295 7.16705C29.5721 6.78758 30.7243 7.32926 31.0972 8.37422L37.9016 27.4413C38.276 28.4905 37.721 29.6434 36.6674 30.0051Z" fill-rule="evenodd"  fill="#424242" >
</path>
<path d="M6.99991 43.0024C7 44.107 7.89549 45.0024 9.00006 45.0023L39.0001 45C40.1047 44.9999 41 44.1044 40.9999 42.9998C40.9998 41.8952 40.1044 40.9999 38.9998 41L8.99976 41.0023C7.89519 41.0024 6.99983 41.8979 6.99991 43.0024Z" fill-rule="evenodd"  fill="#787878" >
</path>
</svg>
