<svg xmlns="http://www.w3.org/2000/svg" xmlns:xlink="http://www.w3.org/1999/xlink" width="48" height="48" viewBox="0 0 48 48" fill="none">
<path d="M37 3L11 3C6.58172 3 3 6.58172 3 11L3 37C3 41.4183 6.58172 45 11 45L37 45C41.4183 45 45 41.4183 45 37L45 11C45 6.58172 41.4183 3 37 3ZM7 11C7 8.79086 8.79086 7 11 7L37 7C39.2091 7 41 8.79086 41 11L41 37C41 39.2091 39.2091 41 37 41L11 41C8.79086 41 7 39.2091 7 37L7 11Z" fill-rule="evenodd"  fill="#787878" >
</path>
<path d="M19.5005 7L19.5005 15.4995L28.5005 15.4995L28.5005 7L32.5005 7L32.5005 15.4995L41 15.4995L41 19.4995L32.5005 19.4995L32.5005 28.4995L41 28.4995L41 32.4995L32.5005 32.4995L32.5005 41L28.5005 41L28.5005 32.4995L19.5005 32.4995L19.5005 41L15.5005 41L15.5005 32.4995L7 32.4995L7 28.4995L15.5005 28.4995L15.5005 19.4995L7 19.4995L7 15.4995L15.5005 15.4995L15.5005 7L19.5005 7ZM19.5005 28.4995L19.5005 19.4995L28.5005 19.4995L28.5005 28.4995L19.5005 28.4995Z" fill-rule="evenodd"  fill="#424242" >
</path>
</svg>
