<svg xmlns="http://www.w3.org/2000/svg" xmlns:xlink="http://www.w3.org/1999/xlink" width="48" height="48" viewBox="0 0 48 48" fill="none">
<path d="M10 38.001C10 39.1055 10.8954 40.001 12 40.001L36 40.001C37.1046 40.001 38 39.1055 38 38.001C38 36.8964 37.1046 36.001 36 36.001L12 36.001C10.8954 36.001 10 36.8964 10 38.001Z" fill-rule="evenodd"  fill="#787878" >
</path>
<path d="M40 37.9838L32.0127 34L32 42L40 37.9838Z"   fill="#424242" >
</path>
<path d="M30.0005 41.672C29.9979 43.3105 31.7232 44.3767 33.1875 43.6416L40.0043 40.2194C41.8448 39.2955 41.8414 36.6672 39.9985 35.748L33.1941 32.3542C31.7328 31.6254 30.0148 32.6865 30.0122 34.3194L30.0005 41.672ZM34.0051 38.7554L35.5307 37.9896L34.0076 37.2299L34.0051 38.7554Z" fill-rule="evenodd"  fill="#424242" >
</path>
<path d="M15.9873 34L8 37.9838L16 42L15.9873 34Z"   fill="#424242" >
</path>
<path d="M7.9957 40.2195L14.8125 43.6417C16.2768 44.3768 18.0021 43.3106 17.9995 41.6721L17.9878 34.3195C17.9852 32.6865 16.2672 31.6254 14.8059 32.3543L8.00153 35.7481C6.15865 36.6672 6.15523 39.2955 7.9957 40.2195ZM13.9949 38.7555L13.9924 37.2299L12.4693 37.9896L13.9949 38.7555Z" fill-rule="evenodd"  fill="#424242" >
</path>
<path d="M10 23C10 24.1046 10.8954 25 12 25L36 25C37.1046 25 38 24.1046 38 23C38 21.8954 37.1046 21 36 21L12 21C10.8954 21 10 21.8954 10 23Z" fill-rule="evenodd"  fill="#787878" >
</path>
<path d="M9.70253 30.3005C9.35018 30.8706 8.71945 31.2505 8 31.2505C6.89543 31.2505 6 30.3551 6 29.2505C6 28.8428 6.12197 28.4637 6.3314 28.1475L20.6309 5.80409C22.2043 3.34569 25.7957 3.34569 27.3691 5.80409L41.6686 28.1475C41.878 28.4636 42 28.8428 42 29.2505C42 30.3551 41.1046 31.2505 40 31.2505C39.2805 31.2505 38.6498 30.8706 38.2974 30.3004L24 7.96029L9.70253 30.3005Z" fill-rule="evenodd"  fill="#424242" >
</path>
</svg>
