<svg xmlns="http://www.w3.org/2000/svg" xmlns:xlink="http://www.w3.org/1999/xlink" width="48" height="48" viewBox="0 0 48 48" fill="none">
<path d="M36.5004 5.67662C36.8669 5.26168 37.4029 5 38 5C39.1046 5 40 5.89543 40 7C40 7.51359 39.8064 7.98197 39.4882 8.33614L19.6255 30.844C20.3949 32.0929 20.8385 33.5645 20.8385 35.14C20.8385 39.6577 17.1762 43.32 12.6585 43.32C8.14082 43.32 4.46851 39.6577 4.46851 35.14C4.46851 30.6168 8.1353 26.95 12.6585 26.95C14.1528 26.95 15.5525 27.3502 16.7571 28.0492L36.4945 5.68332L36.5004 5.67663L36.5004 5.67662ZM16.8385 35.14C16.8385 37.4486 14.9671 39.32 12.6585 39.32C10.35 39.32 8.46851 37.4486 8.46851 35.14C8.46851 32.8259 10.3444 30.95 12.6585 30.95C14.9726 30.95 16.8385 32.8259 16.8385 35.14Z" fill-rule="evenodd"  fill="#787878" >
</path>
<path d="M8 7C8 5.89543 8.89543 5 10 5C10.6227 5 11.1789 5.28455 11.5457 5.7307L31.2391 28.054C32.447 27.352 33.8507 26.95 35.3484 26.95C39.8716 26.95 43.5284 30.6168 43.5284 35.14C43.5284 39.6577 39.8661 43.32 35.3484 43.32C30.8307 43.32 27.1584 39.6577 27.1584 35.14C27.1584 33.5667 27.602 32.097 28.371 30.8492L8.49966 8.32422L8.5005 8.32348C8.18902 7.97085 8 7.5075 8 7ZM35.3484 39.32C33.0399 39.32 31.1584 37.4486 31.1584 35.14C31.1584 32.8259 33.0343 30.95 35.3484 30.95C37.6625 30.95 39.5284 32.8259 39.5284 35.14C39.5284 37.4486 37.6569 39.32 35.3484 39.32Z" fill-rule="evenodd"  fill="#424242" >
</path>
</svg>
