<svg xmlns="http://www.w3.org/2000/svg" xmlns:xlink="http://www.w3.org/1999/xlink" width="48" height="48" viewBox="0 0 48 48" fill="none">
<path d="M38.5 23.8015L38.5 41.5C38.5 42.6046 39.3954 43.5 40.5 43.5C41.6046 43.5 42.5 42.6046 42.5 41.5L42.5 18.785C42.5 17.523 41.477 16.5 40.215 16.5C39.72 16.5 39.2716 16.6453 38.8701 16.9358C38.4823 17.2163 38.2084 17.5824 38.0483 18.0341C37.9599 18.2834 37.8457 18.5394 37.7056 18.802C37.494 19.1986 37.254 19.5475 36.9854 19.8488C36.3012 20.6163 35.4728 21 34.5 21L34 21C32.8954 21 32 21.8954 32 23C32 24.1046 32.8954 25 34 25L34.5 25C35.6717 25 36.7592 24.7447 37.7626 24.2342C38.0164 24.1051 38.2622 23.9608 38.5 23.8015Z" fill-rule="evenodd"  fill="#424242" >
</path>
<path d="M5.99994 43.5C7.10451 43.5 7.99994 42.6046 7.99994 41.5L7.99994 25.5L23.9999 25.5L23.9999 41.5C23.9999 42.6046 24.8953 43.5 25.9999 43.5C27.1045 43.5 27.9999 42.6046 27.9999 41.5L27.9999 6.5C27.9999 5.3954 27.1045 4.5 25.9999 4.5C24.8953 4.5 23.9999 5.3954 23.9999 6.5L23.9999 21.5L7.99994 21.5L7.99994 6.5C7.99994 5.3954 7.10451 4.5 5.99994 4.5C4.89537 4.5 3.99994 5.3954 3.99994 6.5L3.99994 41.5C3.99994 42.6046 4.89537 43.5 5.99994 43.5Z" fill-rule="evenodd"  fill="#787878" >
</path>
</svg>
