<svg xmlns="http://www.w3.org/2000/svg" xmlns:xlink="http://www.w3.org/1999/xlink" width="48" height="48" viewBox="0 0 48 48" fill="none">
<g  clip-path="url(#clip-path-184_924)">
<path d="M38.8481 2.49633L25.7242 2.49634C24.9086 2.49634 24.1241 2.65238 23.3707 2.96448C22.6172 3.27658 21.9521 3.72096 21.3755 4.29763L3.56041 22.1127C1.1356 24.5375 1.16233 28.4771 3.61988 30.8687L16.6712 43.5703C17.2628 44.146 17.9405 44.5844 18.7043 44.8853C19.4416 45.1757 20.2075 45.3182 21.0021 45.3128C21.7968 45.3074 22.5607 45.1545 23.2939 44.8541C24.0536 44.5429 24.7254 44.0954 25.3091 43.5117L43.1968 25.624C43.7734 25.0473 44.2178 24.3822 44.53 23.6288C44.842 22.8753 44.9981 22.0908 44.9981 21.2753L44.9981 8.64632C44.9981 5.24979 42.2446 2.49631 38.8481 2.49633ZM24.9014 6.65998C25.1648 6.55087 25.4391 6.49632 25.7242 6.49632L38.8481 6.49632C40.0355 6.49629 40.9981 7.45895 40.9981 8.64634L40.9981 21.2753C40.9981 21.5604 40.9435 21.8346 40.8344 22.098C40.7253 22.3614 40.57 22.5939 40.3684 22.7955L22.4807 40.6832C22.2758 40.8881 22.0414 41.0446 21.7775 41.1527C21.5215 41.2576 21.254 41.311 20.975 41.3129C20.6961 41.3148 20.4278 41.265 20.1704 41.1636C19.9051 41.0591 19.6686 40.9058 19.4609 40.7037L6.40961 28.0022C5.55054 27.166 5.54115 25.7888 6.38883 24.9411L24.2039 7.12606C24.4055 6.92444 24.638 6.76908 24.9014 6.65998Z" fill-rule="evenodd"  fill="#787878" >
</path>
<path d="M30.4995 22.498C33.5371 22.498 35.9995 20.0356 35.9995 16.998C35.9995 13.9605 33.5371 11.498 30.4995 11.498C27.4619 11.498 24.9995 13.9605 24.9995 16.998C24.9995 20.0356 27.4619 22.498 30.4995 22.498ZM30.4995 15.498C31.3279 15.498 31.9995 16.1696 31.9995 16.998C31.9995 17.8265 31.3279 18.498 30.4995 18.498C29.6711 18.498 28.9995 17.8265 28.9995 16.998C28.9995 16.1696 29.6711 15.498 30.4995 15.498Z" fill-rule="evenodd"  fill="#424242" >
</path>
</g>
<defs>
<clipPath id="clip-path-184_924">
<path d="M0 48L48 48L48 0L0 0L0 48Z" fill="white"/>
</clipPath>
</defs>
</svg>
