<svg xmlns="http://www.w3.org/2000/svg" xmlns:xlink="http://www.w3.org/1999/xlink" width="48" height="48" viewBox="0 0 48 48" fill="none">
<path d="M37.3708 4.17234C36.7961 4.19836 36.3153 4.4242 35.9284 4.84986L27.0201 14.9679C27.0148 14.9739 27.0095 14.9799 27.0042 14.986C26.615 15.425 26.0531 16.0499 25.3185 16.8605C23.8268 18.5066 22.1987 20.2787 20.4344 22.1768C14.7845 28.255 8.83309 34.4507 2.58015 40.7638C1.99915 41.4038 1.8575 42.1295 2.1552 42.941C2.52225 43.7236 3.13756 44.1336 4.00112 44.1712C9.83246 44.1712 15.3451 43.3176 20.539 41.6102C24.707 40.2402 28.5737 38.3552 32.1392 35.9554C34.6932 34.2364 36.9708 32.3421 38.972 30.2724C39.6051 29.6176 40.1742 28.9817 40.6792 28.3649C40.9439 28.0415 41.1479 27.7787 41.291 27.5763C41.577 27.1623 41.6955 26.7049 41.6465 26.2042C41.5863 25.7046 41.3719 25.2836 41.0033 24.941L36.6839 21.0162L44.4219 13.2039C44.8004 12.8111 44.9934 12.3419 45.0009 11.7965C44.9934 11.251 44.8004 10.7819 44.4219 10.389L38.8504 4.76404C38.4392 4.36182 37.9459 4.16459 37.3708 4.17234ZM33.7208 18.3238L40.1859 11.7965L37.5155 9.10037L31.3175 16.14L33.7208 18.3238ZM19.2899 37.8103C16.0072 38.8893 12.5798 39.5985 9.00766 39.9378C13.9904 34.8488 18.7759 29.8363 23.3642 24.9001C25.1401 22.9896 26.7795 21.205 28.2825 19.5465C28.4134 19.4019 28.5392 19.263 28.6597 19.1297L36.9059 26.6225C36.652 26.9065 36.3822 27.1963 36.0964 27.4919C34.2903 29.3598 32.2268 31.0748 29.9057 32.637C26.6462 34.831 23.1076 36.5554 19.2899 37.8103Z" fill-rule="evenodd"  fill="#000000" >
</path>
</svg>
