<svg xmlns="http://www.w3.org/2000/svg" xmlns:xlink="http://www.w3.org/1999/xlink" width="48" height="48" viewBox="0 0 48 48" fill="none">
<path d="M24 3C30.6274 3 36 8.37258 36 15L36 25C36 31.6274 30.6274 37 24 37C17.3726 37 12 31.6274 12 25L12 15C12 8.37258 17.3726 3 24 3ZM24 7C19.5817 7 16 10.5817 16 15L16 25C16 29.4183 19.5817 33 24 33C28.4183 33 32 29.4183 32 25L32 15C32 10.5817 28.4183 7 24 7ZM6 23C7.10457 23 8 23.8954 8 25C8 33.8365 15.1635 41 24 41C32.8366 41 40 33.8365 40 25C40 23.8954 40.8954 23 42 23C43.1046 23 44 23.8954 44 25C44 36.0457 35.0457 45 24 45C12.9543 45 4 36.0457 4 25C4 23.8954 4.89543 23 6 23Z" fill-rule="evenodd"  fill="#000000" >
</path>
</svg>
