<svg xmlns="http://www.w3.org/2000/svg" xmlns:xlink="http://www.w3.org/1999/xlink" width="48" height="48" viewBox="0 0 48 48" fill="none">
<path d="M38.7803 16.4789C39.3257 15.67 40.0754 15.3674 41.0294 15.5713C41.9539 15.8831 42.4441 16.526 42.5 17.5L42.5 31.5L43.5 31.5C44.6046 31.5 45.5 32.3954 45.5 33.5C45.5 34.6046 44.6046 35.5 43.5 35.5L42.5 35.5L42.5 41.5C42.5 42.6046 41.6046 43.5 40.5 43.5C39.3955 43.5 38.5 42.6046 38.5 41.5L38.5 35.5L31.3514 35.5C29.6459 35.5 28.589 33.6433 29.4597 32.1768L38.7803 16.4789ZM38.5 24.7858L34.5135 31.5L38.5 31.5L38.5 24.7858Z" fill-rule="evenodd"  fill="#424242" >
</path>
<path d="M5.99994 43.5C7.10451 43.5 7.99994 42.6046 7.99994 41.5L7.99994 25.5L23.9999 25.5L23.9999 41.5C23.9999 42.6046 24.8953 43.5 25.9999 43.5C27.1045 43.5 27.9999 42.6046 27.9999 41.5L27.9999 6.5C27.9999 5.3954 27.1045 4.5 25.9999 4.5C24.8953 4.5 23.9999 5.3954 23.9999 6.5L23.9999 21.5L7.99994 21.5L7.99994 6.5C7.99994 5.3954 7.10451 4.5 5.99994 4.5C4.89537 4.5 3.99994 5.3954 3.99994 6.5L3.99994 41.5C3.99994 42.6046 4.89537 43.5 5.99994 43.5Z" fill-rule="evenodd"  fill="#787878" >
</path>
</svg>
