<svg xmlns="http://www.w3.org/2000/svg" xmlns:xlink="http://www.w3.org/1999/xlink" width="48" height="48" viewBox="0 0 48 48" fill="none">
<path d="M35.304 24.9754L44.8518 14.0636C45.1177 13.7597 45.3142 13.4167 45.4411 13.0345C45.5635 12.6662 45.6125 12.2881 45.5882 11.9003C45.5639 11.5124 45.468 11.1435 45.3005 10.7934C45.1268 10.43 44.889 10.1142 44.5871 9.84592L37.0843 3.17676C35.8364 2.06751 33.923 2.19053 32.8274 3.45045L23.7362 13.9054C23.4988 14.1783 23.3168 14.4842 23.1901 14.823C23.0634 15.1619 23 15.5122 23 15.8739L23 22.9999C23 24.6568 24.3431 25.9999 26 25.9999L33.0462 25.9999C33.4788 25.9999 33.892 25.9106 34.2859 25.7318C34.6798 25.5531 35.0191 25.301 35.304 24.9754ZM41.1881 12.1764L35.1825 6.83804L27 16.2478L27 21.9999L32.5925 21.9999L41.1881 12.1764Z" fill-rule="evenodd"  fill="#424242" >
</path>
<path d="M10.4995 26.0006L16.9367 26L16.9369 26C18.0414 25.9999 18.9367 25.1045 18.9367 24C18.9367 22.8954 18.0413 22 16.9367 22L16.9363 22L10.4991 22.0006C9.61848 22.0007 8.77501 22.1713 7.96871 22.5124C7.19092 22.8414 6.50252 23.3055 5.90351 23.9045C5.3045 24.5036 4.84051 25.192 4.51154 25.9699C4.17051 26.7762 4 27.6197 4 28.5003C4 32.09 6.91002 35 10.4997 35L37.5 35C38.8807 35 40 36.1193 40 37.5C40 38.8807 38.8807 40 37.5 40L19.6709 40C18.5663 40 17.6709 40.8954 17.6709 42C17.6709 43.1046 18.5663 44 19.6709 44L37.5 44C41.0899 44 44 41.0898 44 37.5C44 33.9101 41.0899 31 37.5 31L10.4997 31C9.11916 31 8 29.8808 8 28.5003C8 28.1604 8.0652 27.8363 8.1956 27.528C8.32197 27.2292 8.5008 26.9641 8.73207 26.7328C8.96334 26.5015 9.22837 26.3227 9.52717 26.1963C9.83547 26.0658 10.1596 26.0006 10.4995 26.0006Z" fill-rule="evenodd"  fill="#787878" >
</path>
</svg>
