<svg xmlns="http://www.w3.org/2000/svg" xmlns:xlink="http://www.w3.org/1999/xlink" width="48" height="48" viewBox="0 0 48 48" fill="none">
<path d="M16 4C11.5817 4 8 7.58172 8 12L8 36C8 40.4183 11.5817 44 16 44L31 44C37.0751 44 42 39.0751 42 33C42 28.2829 39.0308 24.2592 34.8594 22.6961C36.8022 20.7123 38 17.996 38 15C38 8.92487 33.0751 4 27 4L16 4ZM27 26L27 22C30.866 22 34 18.866 34 15C34 11.134 30.866 8 27 8L16 8C13.7909 8 12 9.79086 12 12L12 36C12 38.2091 13.7909 40 16 40L31 40C34.866 40 38 36.866 38 33C38 29.134 34.866 26 31 26L27 26Z" fill-rule="evenodd"  fill="#787878" >
</path>
<path d="M31 22L8 22L8 36C8 40.4183 11.5817 44 16 44L31 44C37.0751 44 42 39.0751 42 33C42 26.9249 37.0751 22 31 22ZM12 26L12 36C12 38.2091 13.7909 40 16 40L31 40C34.866 40 38 36.866 38 33C38 29.134 34.866 26 31 26L12 26Z" fill-rule="evenodd"  fill="#424242" >
</path>
</svg>
