<svg xmlns="http://www.w3.org/2000/svg" xmlns:xlink="http://www.w3.org/1999/xlink" width="48" height="48" viewBox="0 0 48 48" fill="none">
<path d="M5.8 3.01C5.87 3 5.93 3 6 3L42 3C42.07 3 42.13 3 42.2 3.01C42.26 3.02 42.33 3.03 42.39 3.04C42.45 3.05 42.52 3.07 42.58 3.09C42.64 3.11 42.7 3.13 42.77 3.15C42.83 3.18 42.88 3.21 42.94 3.24C43 3.27 43.06 3.3 43.11 3.34C43.17 3.37 43.22 3.41 43.27 3.45C43.32 3.5 43.37 3.54 43.41 3.59C43.46 3.63 43.5 3.68 43.55 3.73C43.59 3.78 43.63 3.83 43.66 3.89C43.7 3.94 43.73 4 43.76 4.06C43.79 4.11 43.82 4.17 43.85 4.23C43.87 4.3 43.89 4.36 43.91 4.42C43.93 4.48 43.95 4.55 43.96 4.61C43.97 4.67 43.98 4.74 43.99 4.8C44 4.87 44 4.93 44 5C44 5.07 44 5.13 43.99 5.2C43.98 5.26 43.97 5.33 43.96 5.39C43.95 5.45 43.93 5.52 43.91 5.58C43.89 5.64 43.87 5.7 43.85 5.77C43.82 5.83 43.79 5.89 43.76 5.94C43.73 6 43.7 6.06 43.66 6.11C43.63 6.17 43.59 6.22 43.55 6.27C43.5 6.32 43.46 6.37 43.41 6.41C43.37 6.46 43.32 6.5 43.27 6.55C43.22 6.59 43.17 6.63 43.11 6.66C43.06 6.7 43 6.73 42.94 6.76C42.88 6.79 42.83 6.82 42.77 6.85C42.7 6.87 42.64 6.89 42.58 6.91C42.52 6.93 42.45 6.95 42.39 6.96C42.33 6.97 42.26 6.98 42.2 6.99C42.13 7 42.07 7 42 7L6 7C5.93 7 5.87 7 5.8 6.99C5.74 6.98 5.67 6.97 5.61 6.96C5.55 6.95 5.48 6.93 5.42 6.91C5.36 6.89 5.3 6.87 5.23 6.85C5.17 6.82 5.11 6.79 5.06 6.76C5 6.73 4.94 6.7 4.89 6.66C4.83 6.63 4.78 6.59 4.73 6.55C4.68 6.5 4.63 6.46 4.59 6.41C4.54 6.37 4.5 6.32 4.45 6.27C4.41 6.22 4.37 6.17 4.34 6.11C4.3 6.06 4.27 6 4.24 5.94C4.21 5.89 4.18 5.83 4.15 5.77C4.13 5.7 4.11 5.64 4.09 5.58C4.07 5.52 4.05 5.45 4.04 5.39C4.03 5.33 4.02 5.26 4.01 5.2C4 5.13 4 5.07 4 5C4 4.93 4 4.87 4.01 4.8C4.02 4.74 4.03 4.67 4.04 4.61C4.05 4.55 4.07 4.48 4.09 4.42C4.11 4.36 4.13 4.3 4.15 4.23C4.18 4.17 4.21 4.11 4.24 4.06C4.27 4 4.3 3.94 4.34 3.89C4.37 3.83 4.41 3.78 4.45 3.73C4.5 3.68 4.54 3.63 4.59 3.59C4.63 3.54 4.68 3.5 4.73 3.45C4.78 3.41 4.83 3.37 4.89 3.34C4.94 3.3 5 3.27 5.06 3.24C5.11 3.21 5.17 3.18 5.23 3.15C5.3 3.13 5.36 3.11 5.42 3.09C5.48 3.07 5.55 3.05 5.61 3.04C5.67 3.03 5.74 3.02 5.8 3.01ZM10 37.0002C10 36.7402 10.05 36.4802 10.15 36.2402L13.0127 29.3217C13.0218 29.2657 13.0309 29.2029 13.04 29.1484C13.05 29.0884 13.07 29.0184 13.09 28.9584C13.11 28.8984 13.13 28.8384 13.15 28.7685C13.18 28.7085 13.21 28.6485 13.24 28.5985C13.27 28.5385 13.3 28.4785 13.34 28.4285C13.3692 28.3701 13.4079 28.3211 13.4469 28.2724L20.3 11.7102C20.63 10.9202 21.14 10.3002 21.85 9.8502C22.5 9.4402 23.22 9.2302 24 9.2302C24.78 9.2302 25.5 9.4402 26.15 9.8502C26.86 10.3002 27.37 10.9202 27.7 11.7102L34.5531 28.2724C34.5921 28.3211 34.6308 28.3701 34.66 28.4285C34.7 28.4785 34.73 28.5385 34.76 28.5985C34.79 28.6485 34.82 28.7085 34.85 28.7685C34.87 28.8384 34.89 28.8984 34.91 28.9584C34.93 29.0184 34.95 29.0884 34.96 29.1484C34.9691 29.2029 34.9782 29.2657 34.9873 29.3217L37.85 36.2402C37.95 36.4802 38 36.7402 38 37.0002C38 37.0702 38 37.1302 37.99 37.2002C37.98 37.2602 37.97 37.3302 37.96 37.3902C37.95 37.4502 37.93 37.5202 37.91 37.5802C37.89 37.6402 37.87 37.7002 37.85 37.7702C37.82 37.8302 37.79 37.8902 37.76 37.9402C37.73 38.0002 37.7 38.0602 37.66 38.1102C37.63 38.1702 37.59 38.2202 37.55 38.2702C37.5 38.3202 37.46 38.3702 37.41 38.4102C37.37 38.4602 37.32 38.5002 37.27 38.5502C37.22 38.5902 37.17 38.6302 37.11 38.6602C37.06 38.7002 37 38.7302 36.94 38.7602C36.89 38.7902 36.83 38.8202 36.77 38.8502C36.7 38.8702 36.64 38.8902 36.58 38.9102C36.52 38.9302 36.45 38.9502 36.39 38.9602C36.33 38.9702 36.26 38.9802 36.2 38.9902C36.13 39.0002 36.07 39.0002 36 39.0002C35.9 39.0002 35.8 38.9902 35.71 38.9802C35.61 38.9602 35.51 38.9402 35.42 38.9102C35.33 38.8902 35.23 38.8502 35.14 38.8102C35.06 38.7702 34.97 38.7202 34.89 38.6602C34.81 38.6102 34.73 38.5502 34.66 38.4802C34.58 38.4202 34.52 38.3402 34.45 38.2702C34.39 38.1902 34.33 38.1102 34.28 38.0302C34.23 37.9402 34.19 37.8602 34.15 37.7602L31.5753 31.5379L16.4247 31.5379L13.85 37.7602C13.81 37.8602 13.77 37.9402 13.72 38.0302C13.67 38.1102 13.61 38.1902 13.55 38.2702C13.48 38.3402 13.42 38.4202 13.34 38.4802C13.27 38.5502 13.19 38.6102 13.11 38.6602C13.03 38.7202 12.94 38.7702 12.86 38.8102C12.77 38.8502 12.67 38.8902 12.58 38.9102C12.49 38.9402 12.39 38.9602 12.29 38.9802C12.2 38.9902 12.1 39.0002 12 39.0002C11.93 39.0002 11.87 39.0002 11.8 38.9902C11.74 38.9802 11.67 38.9702 11.61 38.9602C11.55 38.9502 11.48 38.9302 11.42 38.9102C11.36 38.8902 11.3 38.8702 11.23 38.8502C11.17 38.8202 11.11 38.7902 11.06 38.7602C11 38.7302 10.94 38.7002 10.89 38.6602C10.83 38.6302 10.78 38.5902 10.73 38.5502C10.68 38.5002 10.63 38.4602 10.59 38.4102C10.54 38.3702 10.5 38.3202 10.45 38.2702C10.41 38.2202 10.37 38.1702 10.34 38.1102C10.3 38.0602 10.27 38.0002 10.24 37.9402C10.21 37.8902 10.18 37.8302 10.15 37.7702C10.13 37.7002 10.11 37.6402 10.09 37.5802C10.07 37.5202 10.05 37.4502 10.04 37.3902C10.03 37.3302 10.02 37.2602 10.01 37.2002C10 37.1302 10 37.0702 10 37.0002ZM24 13.2302L29.9206 27.5387L18.0794 27.5387L24 13.2302ZM5.8 41.01C5.87 41 5.93 41 6 41L42 41C42.07 41 42.13 41 42.2 41.01C42.26 41.02 42.33 41.03 42.39 41.04C42.45 41.05 42.52 41.07 42.58 41.09C42.64 41.11 42.7 41.13 42.77 41.15C42.83 41.18 42.88 41.21 42.94 41.24C43 41.27 43.06 41.3 43.11 41.34C43.17 41.37 43.22 41.41 43.27 41.45C43.32 41.5 43.37 41.54 43.41 41.59C43.46 41.63 43.5 41.68 43.55 41.73C43.59 41.78 43.63 41.83 43.66 41.89C43.7 41.94 43.73 42 43.76 42.06C43.79 42.11 43.82 42.17 43.85 42.23C43.87 42.3 43.89 42.36 43.91 42.42C43.93 42.48 43.95 42.55 43.96 42.61C43.97 42.67 43.98 42.74 43.99 42.8C44 42.87 44 42.93 44 43C44 43.07 44 43.13 43.99 43.2C43.98 43.26 43.97 43.33 43.96 43.39C43.95 43.45 43.93 43.52 43.91 43.58C43.89 43.64 43.87 43.7 43.85 43.77C43.82 43.83 43.79 43.89 43.76 43.94C43.73 44 43.7 44.06 43.66 44.11C43.63 44.17 43.59 44.22 43.55 44.27C43.5 44.32 43.46 44.37 43.41 44.41C43.37 44.46 43.32 44.5 43.27 44.55C43.22 44.59 43.17 44.63 43.11 44.66C43.06 44.7 43 44.73 42.94 44.76C42.88 44.79 42.83 44.82 42.77 44.85C42.7 44.87 42.64 44.89 42.58 44.91C42.52 44.93 42.45 44.95 42.39 44.96C42.33 44.97 42.26 44.98 42.2 44.99C42.13 45 42.07 45 42 45L6 45C5.93 45 5.87 45 5.8 44.99C5.74 44.98 5.67 44.97 5.61 44.96C5.55 44.95 5.48 44.93 5.42 44.91C5.36 44.89 5.3 44.87 5.23 44.85C5.17 44.82 5.11 44.79 5.06 44.76C5 44.73 4.94 44.7 4.89 44.66C4.83 44.63 4.78 44.59 4.73 44.55C4.68 44.5 4.63 44.46 4.59 44.41C4.54 44.37 4.5 44.32 4.45 44.27C4.41 44.22 4.37 44.17 4.34 44.11C4.3 44.06 4.27 44 4.24 43.94C4.21 43.89 4.18 43.83 4.15 43.77C4.13 43.7 4.11 43.64 4.09 43.58C4.07 43.52 4.05 43.45 4.04 43.39C4.03 43.33 4.02 43.26 4.01 43.2C4 43.13 4 43.07 4 43C4 42.93 4 42.87 4.01 42.8C4.02 42.74 4.03 42.67 4.04 42.61C4.05 42.55 4.07 42.48 4.09 42.42C4.11 42.36 4.13 42.3 4.15 42.23C4.18 42.17 4.21 42.11 4.24 42.06C4.27 42 4.3 41.94 4.34 41.89C4.37 41.83 4.41 41.78 4.45 41.73C4.5 41.68 4.54 41.63 4.59 41.59C4.63 41.54 4.68 41.5 4.73 41.45C4.78 41.41 4.83 41.37 4.89 41.34C4.94 41.3 5 41.27 5.06 41.24C5.11 41.21 5.17 41.18 5.23 41.15C5.3 41.13 5.36 41.11 5.42 41.09C5.48 41.07 5.55 41.05 5.61 41.04C5.67 41.03 5.74 41.02 5.8 41.01Z" fill-rule="evenodd"  fill="#000000" >
</path>
</svg>
