<svg xmlns="http://www.w3.org/2000/svg" xmlns:xlink="http://www.w3.org/1999/xlink" width="48" height="48" viewBox="0 0 48 48" fill="none">
<path d="M16.3223 43.1502C16.8717 42.7805 17.3542 42.3233 17.7699 41.7786L17.7709 41.7774L24.0109 33.5874C24.2015 33.3366 24.437 33.1419 24.7175 33.0032C24.998 32.8646 25.2955 32.7953 25.61 32.7953L35.85 32.7953C36.5383 32.7971 37.1988 32.6905 37.8315 32.4755C38.4397 32.2689 38.9981 31.97 39.5067 31.5789C39.9898 31.2075 40.4078 30.7686 40.7605 30.2622C41.101 29.7733 41.3652 29.2439 41.5531 28.6742C41.741 28.1044 41.8435 27.5217 41.8606 26.9261C41.8783 26.3092 41.8034 25.7077 41.6361 25.1216C41.4598 24.5046 41.1887 23.9321 40.8227 23.4041C40.442 22.8548 39.973 22.3751 39.4159 21.9648L16.5679 5.09631C15.6163 4.38982 14.5601 3.99876 13.3994 3.92313C12.3146 3.85246 11.281 4.06516 10.2985 4.56125C9.31682 5.05695 8.53184 5.76207 7.94356 6.67662C7.31452 7.65454 7 8.73744 7 9.92531L7 38.1453C7.00179 38.8333 7.10963 39.4905 7.32351 40.117C7.52919 40.7194 7.82518 41.273 8.21149 41.7779C8.57892 42.258 9.01274 42.6742 9.51295 43.0265C9.99653 43.367 10.5203 43.6325 11.0842 43.8228C11.6483 44.0132 12.2259 44.1194 12.8169 44.1414C13.4286 44.1641 14.0261 44.0956 14.6094 43.9357C15.2228 43.7676 15.7938 43.5058 16.3223 43.1502ZM14.5901 39.352L14.5891 39.3532C14.3052 39.7247 13.9596 39.9663 13.5522 40.078C13.164 40.1843 12.7677 40.1693 12.3633 40.0328C11.9585 39.8962 11.6334 39.6676 11.3882 39.3471C11.1306 39.0105 11.0012 38.6099 11 38.1453L11 9.92531C11 9.52104 11.1026 9.15945 11.3077 8.84056C11.5032 8.53658 11.7678 8.30035 12.1015 8.13187C12.4345 7.96369 12.7805 7.89129 13.1393 7.91467C13.5153 7.93916 13.8662 8.07238 14.1921 8.31431L37.0441 25.1858C37.4242 25.4657 37.6728 25.8105 37.7899 26.2202C37.9015 26.6109 37.8897 27.0113 37.7544 27.4214C37.6191 27.8315 37.3905 28.1604 37.0686 28.4079C36.7311 28.6674 36.3249 28.7965 35.85 28.7953L25.61 28.7953C24.6724 28.7953 23.7841 29.0027 22.945 29.4174C22.1025 29.8338 21.3972 30.4157 20.8291 31.1632L14.5901 39.352Z" fill-rule="evenodd"  fill="#000000" >
</path>
</svg>
