<svg xmlns="http://www.w3.org/2000/svg" xmlns:xlink="http://www.w3.org/1999/xlink" width="48" height="48" viewBox="0 0 48 48" fill="none">
<path d="M37.95 9.78C39.7 11.58 41.06 13.64 42.01 15.97C43 18.37 43.5 20.89 43.5 23.53C43.5 26.16 43 28.68 42.01 31.09C41.06 33.42 39.7 35.48 37.95 37.28C36.2 39.08 34.19 40.47 31.91 41.46C29.55 42.49 27.08 43 24.5 43C21.92 43 19.45 42.49 17.09 41.46C14.81 40.47 12.8 39.08 11.05 37.28C9.3 35.48 7.94 33.42 6.99 31.09C6 28.68 5.5 26.16 5.5 23.53C5.5 20.89 6 18.37 6.99 15.97C7.94 13.64 9.3 11.57 11.06 9.76C11.3189 9.49821 11.5828 9.24487 11.8519 9L6.5 9C6.43 9 6.37 9 6.3 8.99C6.24 8.98 6.17 8.97 6.11 8.96C6.05 8.95 5.98 8.93 5.92 8.91C5.86 8.89 5.8 8.87 5.73 8.85C5.67 8.82 5.61 8.79 5.56 8.76C5.5 8.73 5.44 8.7 5.39 8.66C5.33 8.63 5.28 8.59 5.23 8.55C5.18 8.5 5.13 8.46 5.09 8.41C5.04 8.37 5 8.32 4.95 8.27C4.91 8.22 4.87 8.17 4.84 8.11C4.8 8.06 4.77 8 4.74 7.94C4.71 7.89 4.68 7.83 4.65 7.77C4.63 7.7 4.61 7.64 4.59 7.58C4.57 7.52 4.55 7.45 4.54 7.39C4.53 7.33 4.52 7.26 4.51 7.2C4.5 7.13 4.5 7.07 4.5 7C4.5 6.93 4.5 6.87 4.51 6.8C4.52 6.74 4.53 6.67 4.54 6.61C4.55 6.55 4.57 6.48 4.59 6.42C4.61 6.36 4.63 6.3 4.65 6.23C4.68 6.17 4.71 6.11 4.74 6.06C4.77 6 4.8 5.94 4.84 5.89C4.87 5.83 4.91 5.78 4.95 5.73C5 5.68 5.04 5.63 5.09 5.59C5.13 5.54 5.18 5.5 5.23 5.45C5.28 5.41 5.33 5.37 5.39 5.34C5.44 5.3 5.5 5.27 5.56 5.24C5.61 5.21 5.67 5.18 5.73 5.15C5.8 5.13 5.86 5.11 5.92 5.09C5.98 5.07 6.05 5.05 6.11 5.04C6.17 5.03 6.24 5.02 6.3 5.01C6.37 5 6.43 5 6.5 5L14.5 5C15.04 5 15.56 5.11 16.06 5.32C16.54 5.52 16.96 5.81 17.33 6.17C17.69 6.54 17.98 6.96 18.18 7.44C18.39 7.94 18.5 8.46 18.5 9L18.5 17C18.5 17.07 18.5 17.13 18.49 17.2C18.48 17.26 18.47 17.33 18.46 17.39C18.45 17.45 18.43 17.52 18.41 17.58C18.39 17.64 18.37 17.7 18.35 17.77C18.32 17.83 18.29 17.89 18.26 17.94C18.23 18 18.2 18.06 18.16 18.11C18.13 18.17 18.09 18.22 18.05 18.27C18 18.32 17.96 18.37 17.91 18.41C17.87 18.46 17.82 18.5 17.77 18.55C17.72 18.59 17.67 18.63 17.61 18.66C17.56 18.7 17.5 18.73 17.44 18.76C17.39 18.79 17.33 18.82 17.27 18.85C17.2 18.87 17.14 18.89 17.08 18.91C17.02 18.93 16.95 18.95 16.89 18.96C16.83 18.97 16.76 18.98 16.7 18.99C16.63 19 16.57 19 16.5 19C16.43 19 16.37 19 16.3 18.99C16.24 18.98 16.17 18.97 16.11 18.96C16.05 18.95 15.98 18.93 15.92 18.91C15.86 18.89 15.8 18.87 15.73 18.85C15.67 18.82 15.61 18.79 15.56 18.76C15.5 18.73 15.44 18.7 15.39 18.66C15.33 18.63 15.28 18.59 15.23 18.55C15.18 18.5 15.13 18.46 15.09 18.41C15.04 18.37 15 18.32 14.95 18.27C14.91 18.22 14.87 18.17 14.84 18.11C14.8 18.06 14.77 18 14.74 17.94C14.71 17.89 14.68 17.83 14.65 17.77C14.63 17.7 14.61 17.64 14.59 17.58C14.57 17.52 14.55 17.45 14.54 17.39C14.53 17.33 14.52 17.26 14.51 17.2C14.5 17.13 14.5 17.07 14.5 17L14.5 12.001C14.2969 12.1874 14.0969 12.3803 13.9 12.58C12.52 14 11.45 15.64 10.68 17.49C9.89 19.41 9.5 21.42 9.5 23.53C9.5 25.64 9.9 27.65 10.69 29.57C11.45 31.42 12.52 33.06 13.91 34.49C15.3 35.91 16.89 37.01 18.68 37.79C20.53 38.6 22.47 39 24.5 39C26.53 39 28.47 38.6 30.32 37.79C32.11 37.01 33.7 35.91 35.09 34.49C36.48 33.06 37.55 31.42 38.31 29.57C39.1 27.65 39.5 25.64 39.5 23.53C39.5 21.42 39.11 19.41 38.32 17.49C37.55 15.64 36.48 14 35.09 12.56C34.38 11.85 33.62 11.21 32.81 10.65C32.7 10.57 32.6 10.49 32.51 10.39C32.42 10.3 32.34 10.2 32.27 10.09C32.2 9.98 32.14 9.86 32.09 9.74C32.04 9.62 32 9.49 31.98 9.36C31.95 9.23 31.94 9.1 31.95 8.97C31.95 8.84 31.96 8.71 31.99 8.58C32.02 8.45 32.06 8.33 32.11 8.21C32.16 8.09 32.22 7.97 32.3 7.87C32.33 7.81 32.37 7.76 32.42 7.71C32.46 7.66 32.5 7.61 32.55 7.57C32.6 7.52 32.65 7.48 32.7 7.44C32.75 7.4 32.8 7.36 32.86 7.32C32.91 7.29 32.97 7.25 33.03 7.22C33.08 7.19 33.14 7.17 33.21 7.14L33.39 7.08C33.45 7.06 33.52 7.05 33.58 7.03C33.65 7.02 33.71 7.01 33.78 7.01C33.84 7 33.91 7 33.97 7C34.04 7 34.1 7.01 34.17 7.01C34.23 7.02 34.3 7.03 34.36 7.04C34.43 7.06 34.49 7.07 34.55 7.09C34.61 7.11 34.68 7.14 34.74 7.16C34.8 7.19 34.85 7.22 34.91 7.25C34.97 7.28 35.03 7.32 35.08 7.35L33.53 9.61L35.09 7.36C36.1 8.06 37.06 8.87 37.95 9.78Z"   fill="#000000" >
</path>
</svg>
