<svg xmlns="http://www.w3.org/2000/svg" xmlns:xlink="http://www.w3.org/1999/xlink" width="48" height="48" viewBox="0 0 48 48" fill="none">
<path d="M28 37L11.5 37C10.3954 37 9.5 37.8954 9.5 39C9.5 40.1046 10.3954 41 11.5 41L28 41C36.0081 41 42.5 34.5081 42.5 26.5C42.5 18.4919 36.0081 12 28 12L9.5 12C8.3954 12 7.5 12.8954 7.5 14C7.5 15.1046 8.3954 16 9.5 16L28 16C33.799 16 38.5 20.701 38.5 26.5C38.5 32.299 33.799 37 28 37Z" fill-rule="evenodd"  fill="#787878" >
</path>
<path d="M38.5 26.5C38.5 27.6046 39.3954 28.5 40.5 28.5C41.6046 28.5 42.5 27.6046 42.5 26.5C42.5 18.4919 36.0081 12 28 12L9.5 12C8.3954 12 7.5 12.8954 7.5 14C7.5 15.1046 8.3954 16 9.5 16L28 16C33.799 16 38.5 20.701 38.5 26.5Z" fill-rule="evenodd"  fill="#424242" >
</path>
<path d="M15.4525 9.31263L10.0371 14.0511L15.4526 18.7896C15.8761 19.1563 16.144 19.698 16.144 20.3022C16.144 21.4067 15.2486 22.3022 14.144 22.3022C13.6361 22.3022 13.1725 22.1129 12.8198 21.801L7.40309 17.0614C5.58178 15.4678 5.58178 12.6345 7.40309 11.0408L12.8197 6.30125C13.1725 5.98936 13.6361 5.80005 14.144 5.80005C15.2486 5.80005 16.144 6.69548 16.144 7.80005C16.144 8.40427 15.8761 8.9459 15.4525 9.31263Z" fill-rule="evenodd"  fill="#424242" >
</path>
</svg>
