<svg xmlns="http://www.w3.org/2000/svg" xmlns:xlink="http://www.w3.org/1999/xlink" width="48" height="48" viewBox="0 0 48 48" fill="none">
<path d="M17 4L11 4C6.58172 4 3 7.58172 3 12L3 36C3 40.4183 6.58172 44 11 44L17 44C20.3137 44 23 41.3137 23 38L23 10C23 6.68629 20.3137 4 17 4ZM7 12C7 9.79086 8.79086 8 11 8L17 8C18.1046 8 19 8.89543 19 10L19 38C19 39.1046 18.1046 40 17 40L11 40C8.79086 40 7 38.2091 7 36L7 12Z" fill-rule="evenodd"  fill="#424242" >
</path>
<path d="M26 18C26 21.3137 28.6863 24 32 24L39 24C42.3137 24 45 21.3137 45 18L45 12C45 7.58172 41.4183 4 37 4L32 4C28.6863 4 26 6.68629 26 10L26 18ZM39 20L32 20C30.8954 20 30 19.1046 30 18L30 10C30 8.89543 30.8954 8 32 8L37 8C39.2091 8 41 9.79086 41 12L41 18C41 19.1046 40.1046 20 39 20Z" fill-rule="evenodd"  fill="#787878" >
</path>
<path d="M26 38C26 41.3137 28.6863 44 32 44L37 44C41.4183 44 45 40.4183 45 36L45 32C45 28.6863 42.3137 26 39 26L32 26C28.6863 26 26 28.6863 26 32L26 38ZM37 40L32 40C30.8954 40 30 39.1046 30 38L30 32C30 30.8954 30.8954 30 32 30L39 30C40.1046 30 41 30.8954 41 32L41 36C41 38.2091 39.2091 40 37 40Z" fill-rule="evenodd"  fill="#787878" >
</path>
</svg>
