<svg xmlns="http://www.w3.org/2000/svg" xmlns:xlink="http://www.w3.org/1999/xlink" width="48" height="48" viewBox="0 0 48 48" fill="none">
<path d="M5.99994 43.5C7.10451 43.5 7.99994 42.6046 7.99994 41.5L7.99994 25.5L23.9999 25.5L23.9999 41.5C23.9999 42.6046 24.8953 43.5 25.9999 43.5C27.1045 43.5 27.9999 42.6046 27.9999 41.5L27.9999 6.5C27.9999 5.3954 27.1045 4.5 25.9999 4.5C24.8953 4.5 23.9999 5.3954 23.9999 6.5L23.9999 21.5L7.99994 21.5L7.99994 6.5C7.99994 5.3954 7.10451 4.5 5.99994 4.5C4.89537 4.5 3.99994 5.3954 3.99994 6.5L3.99994 41.5C3.99994 42.6046 4.89537 43.5 5.99994 43.5Z" fill-rule="evenodd"  fill="#787878" >
</path>
<path d="M32 17C30.8954 17 30 17.8954 30 19C30 20.1046 30.8954 21 32 21L38.6716 21L32.2233 27.4483C31.8442 27.8274 31.6313 28.2829 31.5844 28.8149C31.5436 29.2778 31.6395 29.7115 31.872 30.1159C32.1116 30.5327 32.4496 30.8386 32.8859 31.0335C33.3932 31.2601 33.913 31.289 34.4453 31.1201C35.6425 30.7404 36.7393 30.5229 37.7356 30.4675C38.6951 30.414 39.4941 30.5145 40.1327 30.7688C40.7016 30.9953 41.1329 31.355 41.4268 31.8479C41.8089 32.489 42 33.373 42 34.5C42 35.0545 41.9092 35.6041 41.7276 36.1488C41.5409 36.7089 41.2778 37.2012 40.9383 37.6256C40.2053 38.5419 39.2258 39 38 39C37.3453 39 36.7391 38.913 36.1813 38.7391C35.6843 38.5841 35.2579 38.3707 34.9024 38.0988C34.3008 37.6387 34 37.1058 34 36.5C34 35.3954 33.1046 34.5 32 34.5C30.8954 34.5 30 35.3954 30 36.5C30 37.4531 30.2276 38.3541 30.6827 39.2029C31.1097 39.9991 31.7063 40.6902 32.4726 41.2762C33.2033 41.835 34.0426 42.2622 34.9905 42.5578C35.936 42.8526 36.9392 43 38 43C39.2731 43 40.4462 42.7317 41.5194 42.1951C42.5035 41.703 43.351 41.0128 44.0617 40.1244C44.6984 39.3286 45.1853 38.425 45.5224 37.4137C45.8408 36.4584 46 35.4872 46 34.5C46 32.6385 45.6209 31.0718 44.8626 29.7998C44.1055 28.5296 43.0221 27.6139 41.6125 27.0526C40.7826 26.7221 39.8641 26.5284 38.8569 26.4715L44.4142 20.9142C44.6013 20.7264 44.7458 20.5101 44.8478 20.2654C44.9488 20.0202 44.9995 19.7651 45 19.5L45 19C44.9923 18.4509 44.797 17.9795 44.4142 17.5858C44.0205 17.203 43.5491 17.0077 43 17L32 17Z" fill-rule="evenodd"  fill="#424242" >
</path>
</svg>
