<svg xmlns="http://www.w3.org/2000/svg" xmlns:xlink="http://www.w3.org/1999/xlink" width="48" height="48" viewBox="0 0 48 48" fill="none">
<path d="M13.9999 9.49951C13.9999 10.6041 14.8953 11.4995 15.9999 11.4996L42.9999 11.5006C44.1045 11.5006 44.9999 10.6052 44.9999 9.50063C45 8.39606 44.1046 7.5006 43 7.50056L16 7.49958C14.8954 7.49954 14 8.39494 13.9999 9.49951Z" fill-rule="evenodd"  fill="#424242" >
</path>
<path d="M9 9.5C9 10.8807 7.88071 12 6.5 12C5.11929 12 4 10.8807 4 9.5C4 8.11929 5.11929 7 6.5 7C7.88071 7 9 8.11929 9 9.5Z"   fill="#424242" >
</path>
<path d="M13.9999 23.9995C13.9999 25.1041 14.8953 25.9995 15.9999 25.9996L42.9999 26.0006C44.1045 26.0006 44.9999 25.1052 44.9999 24.0006C45 22.8961 44.1046 22.0006 43 22.0006L16 21.9996C14.8954 21.9995 14 22.8949 13.9999 23.9995Z" fill-rule="evenodd"  fill="#787878" >
</path>
<path d="M9 24C9 25.3807 7.88071 26.5 6.5 26.5C5.11929 26.5 4 25.3807 4 24C4 22.6193 5.11929 21.5 6.5 21.5C7.88071 21.5 9 22.6193 9 24Z"   fill="#787878" >
</path>
<path d="M13.9999 38.4995C13.9999 39.6041 14.8953 40.4995 15.9999 40.4996L42.9999 40.5006C44.1045 40.5006 44.9999 39.6052 44.9999 38.5006C45 37.3961 44.1046 36.5006 43 36.5006L16 36.4996C14.8954 36.4995 14 37.3949 13.9999 38.4995Z" fill-rule="evenodd"  fill="#424242" >
</path>
<path d="M9 38.5C9 39.8807 7.88071 41 6.5 41C5.11929 41 4 39.8807 4 38.5C4 37.1193 5.11929 36 6.5 36C7.88071 36 9 37.1193 9 38.5Z"   fill="#424242" >
</path>
</svg>
