<svg xmlns="http://www.w3.org/2000/svg" xmlns:xlink="http://www.w3.org/1999/xlink" width="48" height="48" viewBox="0 0 48 48" fill="none">
<path d="M12 6C12 4.89543 11.1046 4 10 4C8.89543 4 8 4.89543 8 6L8 32C8 36.4183 11.5817 40 16 40L42 40C43.1046 40 44 39.1046 44 38C44 36.8954 43.1046 36 42 36L16 36C13.7909 36 12 34.2091 12 32L12 6Z" fill-rule="evenodd"  fill="#000000" >
</path>
<path d="M12 8L6 8C4.8954 8 4 8.8954 4 10C4 11.1046 4.8954 12 6 12L12 12L12 8ZM16 8L32 8C36.4183 8 40 11.5817 40 16L40 32L36 32L36 16C36 15.6417 35.9529 15.2944 35.8645 14.9639L25.4142 25.4142L25.414 25.4144L25.4135 25.415L13.4142 37.4142C13.0523 37.7761 12.5523 38 12 38C10.8954 38 10 37.1046 10 36C10 35.4477 10.2239 34.9477 10.5858 34.5858L10.5865 34.585L22.585 22.5865L33.036 12.1355C32.7056 12.0471 32.3583 12 32 12L16 12L16 8ZM36 36L36 42C36 43.1046 36.8954 44 38 44C39.1046 44 40 43.1046 40 42L40 36L36 36Z" fill-rule="evenodd"  fill="#787878" >
</path>
<path d="M12 6C12 4.89543 11.1046 4 10 4C8.89543 4 8 4.89543 8 6L8 32C8 36.4183 11.5817 40 16 40L42 40C43.1046 40 44 39.1046 44 38C44 36.8954 43.1046 36 42 36L16 36C13.7909 36 12 34.2091 12 32L12 6Z" fill-rule="evenodd"  fill="#424242" >
</path>
</svg>
