<svg xmlns="http://www.w3.org/2000/svg" xmlns:xlink="http://www.w3.org/1999/xlink" width="48" height="48" viewBox="0 0 48 48" fill="none">
<path d="M16.9999 11.5C16.9999 12.6046 17.8953 13.5 18.9998 13.5001L43.9998 13.5011C45.1044 13.5011 45.9999 12.6057 45.9999 11.5011C46 10.3966 45.1046 9.5011 44 9.50105L19 9.50008C17.8954 9.50004 17 10.3954 16.9999 11.5Z" fill-rule="evenodd"  fill="#424242" >
</path>
<path d="M16.9999 36C16.9999 37.1046 17.8953 38 18.9998 38.0001L43.9998 38.0011C45.1044 38.0011 45.9999 37.1057 45.9999 36.0011C46 34.8966 45.1046 34.0011 44 34.0011L19 34.0001C17.8954 34 17 34.8954 16.9999 36Z" fill-rule="evenodd"  fill="#787878" >
</path>
<path d="M7 9.20886L7 19C7 20.1046 7.89543 21 9 21C10.1046 21 11 20.1046 11 19L11 5.31003C11 4.03424 9.96576 3 8.68997 3C8.15175 3 7.67064 3.1677 7.24665 3.50311C6.856 3.81214 6.58988 4.20594 6.44829 4.68451C6.38252 4.9068 6.28858 5.08215 6.16647 5.21055C6.11382 5.26591 6.0573 5.30622 5.99691 5.33147C5.89735 5.3731 5.7638 5.38987 5.59627 5.38179C5.58022 5.38101 5.56416 5.38043 5.54809 5.38004C5.53203 5.37966 5.51596 5.37946 5.4999 5.37946L5 5.37946C3.89543 5.37946 3 6.27489 3 7.37946C3 8.48403 3.89543 9.37946 5 9.37946L5.45674 9.37946C5.99974 9.40065 6.51416 9.34379 7 9.20886Z" fill-rule="evenodd"  fill="#424242" >
</path>
<path d="M3 32.2794L3 33.1738C3 34.2784 3.89543 35.1738 5 35.1738C6.10457 35.1738 7 34.2784 7 33.1738L7 32.3056C7.00025 32.3014 7.0006 32.2964 7.00105 32.2905C7.0051 32.2375 7.01267 32.1797 7.02378 32.1173C7.05971 31.9152 7.11912 31.7366 7.20199 31.5813C7.28945 31.4174 7.40083 31.2932 7.53614 31.2087C7.75885 31.0696 8.08013 31 8.5 31C8.91987 31 9.24115 31.0696 9.46386 31.2087C9.59917 31.2932 9.71055 31.4174 9.79801 31.5813C9.88088 31.7366 9.94029 31.9152 9.97622 32.1173C9.98733 32.1797 9.9949 32.2375 9.99895 32.2905C9.9994 32.2964 9.99975 32.3014 10 32.3056L10 33.1738C10 33.3185 9.97094 33.4488 9.91281 33.5647C9.84154 33.7067 9.71837 33.8597 9.5433 34.0236C9.34182 34.2123 9.06535 34.4192 8.71389 34.6443C8.47164 34.7995 8.07524 35.0331 7.52467 35.3451C6.90838 35.6944 6.44782 35.9668 6.143 36.1622C5.58261 36.5215 5.11135 36.8804 4.72923 37.239C3.57641 38.3207 3 39.5853 3 41.0327L3 42C3.00773 42.5491 3.20299 43.0205 3.58579 43.4142C3.97951 43.797 4.45092 43.9923 5 44L12 44C13.1046 44 14 43.1046 14 42C14 40.8954 13.1046 40 12 40L7.64429 40C7.82287 39.8529 8.04206 39.6961 8.30186 39.5296C8.54549 39.3734 8.94384 39.1386 9.4969 38.8251C10.1103 38.4775 10.5685 38.2066 10.8716 38.0125C11.4288 37.6555 11.8974 37.2991 12.2773 36.9434C13.4258 35.868 14 34.6115 14 33.1738L14 32.2794C14 32.0251 13.9715 31.7376 13.9144 31.4168C13.8045 30.7989 13.6087 30.226 13.327 29.6981C12.904 28.9055 12.3227 28.2782 11.583 27.8162C10.712 27.2721 9.6843 27 8.5 27C7.3157 27 6.28803 27.2721 5.41699 27.8162C4.67729 28.2782 4.09597 28.9055 3.67301 29.6981C3.3913 30.226 3.1955 30.7989 3.0856 31.4168C3.02853 31.7376 3 32.0251 3 32.2794Z" fill-rule="evenodd"  fill="#787878" >
</path>
</svg>
