<svg xmlns="http://www.w3.org/2000/svg" xmlns:xlink="http://www.w3.org/1999/xlink" width="48" height="48" viewBox="0 0 48 48" fill="none">
<path d="M16 17C16 18.1046 16.8954 19 18 19L30 19C31.1046 19 32 18.1046 32 17L32 8C32 4.68629 29.3137 2 26 2L22 2C18.6863 2 16 4.68629 16 8L16 17ZM20 15L28 15L28 8C28 6.89543 27.1046 6 26 6L22 6C20.8954 6 20 6.89543 20 8L20 15Z" fill-rule="evenodd"  fill="#FA9E14" >
</path>
<path d="M16 42L32 42C35.31 42 38 39.31 38 36L38 17C38 13.69 35.31 11 32 11L16 11C12.69 11 10 13.69 10 17L10 36C10 39.31 12.69 42 16 42Z"   fill="#FEEDBD" >
</path>
<path d="M8 36C8 40.4183 11.5817 44 16 44L32 44C36.4183 44 40 40.4183 40 36L40 17C40 12.5817 36.4183 9 32 9L16 9C11.5817 9 8 12.5817 8 17L8 36ZM32 40L16 40C13.7909 40 12 38.2091 12 36L12 17C12 14.7909 13.7909 13 16 13L32 13C34.2091 13 36 14.7909 36 17L36 36C36 38.2091 34.2091 40 32 40Z" fill-rule="evenodd"  fill="#FBB63E" >
</path>
<path d="M15 18.0012C15.0001 19.1058 15.8956 20.0011 17.0001 20.001L27.0001 20C28.1047 19.9999 29.0001 19.1044 29 17.9999C28.9998 16.8953 28.1044 15.9999 26.9998 16L16.9998 16.001C15.8952 16.0011 14.9998 16.8967 15 18.0012Z" fill-rule="evenodd"  fill="#FA9E14" >
</path>
<path d="M15.0001 24.0012C15.0003 25.1058 15.8958 26.0011 17.0004 26.0009L23.0004 25.9999C24.105 25.9997 25.0003 25.1042 25.0001 23.9996C24.9999 22.895 24.1043 21.9997 22.9998 21.9999L16.9998 22.0009C15.8952 22.0011 14.9999 22.8967 15.0001 24.0012Z" fill-rule="evenodd"  fill="#FA9E14" >
</path>
</svg>
