<svg xmlns="http://www.w3.org/2000/svg" xmlns:xlink="http://www.w3.org/1999/xlink" width="48" height="48" viewBox="0 0 48 48" fill="none">
<path d="M3.00982 40.001C3.00984 41.1055 3.9053 42.001 5.00987 42.0009L44.0099 42C45.1145 41.9999 46.0098 41.1045 46.0098 39.9999C46.0098 38.8953 45.1144 37.9999 44.0098 38L5.00977 38.0009C3.9052 38.001 3.00979 38.8964 3.00982 40.001Z" fill-rule="evenodd"  fill="#787878" >
</path>
<path d="M3.00982 30.001C3.00984 31.1055 3.9053 32.001 5.00987 32.0009L44.0099 32C45.1145 31.9999 46.0098 31.1045 46.0098 29.9999C46.0098 28.8953 45.1144 27.9999 44.0098 28L5.00977 28.0009C3.9052 28.001 3.00979 28.8964 3.00982 30.001Z" fill-rule="evenodd"  fill="#787878" >
</path>
<path d="M23.9999 20C23.9999 21.1046 24.8952 22 25.9998 22.0001L43.9998 22.0009C45.1044 22.001 45.9999 21.1056 45.9999 20.001C46 18.8965 45.1046 18.001 44 18.0009L26 18.0001C24.8954 18 24 18.8954 23.9999 20Z" fill-rule="evenodd"  fill="#424242" >
</path>
<path d="M16 6L9 6C5.68629 6 3 8.68629 3 12L3 19C3 22.3137 5.68629 25 9 25L16 25C19.3137 25 22 22.3137 22 19L22 12C22 8.68629 19.3137 6 16 6ZM7 12C7 10.8954 7.89543 10 9 10L16 10C17.1046 10 18 10.8954 18 12L18 19C18 20.1046 17.1046 21 16 21L9 21C7.89543 21 7 20.1046 7 19L7 12Z" fill-rule="evenodd"  fill="#424242" >
</path>
<path d="M24.0001 10.001C24.0001 11.1055 24.8956 12.0009 26.0002 12.0009L44.0002 12C45.1048 12 46.0001 11.1045 46.0001 9.99993C46 8.89536 45.1046 7.99997 44 8.00003L26 8.00088C24.8954 8.00093 24 8.89641 24.0001 10.001Z" fill-rule="evenodd"  fill="#424242" >
</path>
</svg>
