<svg xmlns="http://www.w3.org/2000/svg" xmlns:xlink="http://www.w3.org/1999/xlink" width="48" height="48" viewBox="0 0 48 48" fill="none">
<path d="M16.5643 5.09972C12.6034 2.17479 7 5.00255 7 9.92632L7 38.1475C7 43.891 14.2928 46.3521 17.773 41.7832L24.0154 33.5881C24.2045 33.3398 24.4389 33.1464 24.7186 33.0078C24.9983 32.8693 25.2943 32.8 25.6064 32.8L35.8498 32.8C41.6385 32.8 44.0707 25.4121 39.4141 21.9734L16.5643 5.09972ZM11 38.1475L11 9.92632C11 8.28506 12.8678 7.34248 14.1881 8.31745L37.0379 25.1911C38.5901 26.3374 37.7794 28.8 35.8498 28.8L25.6064 28.8C24.67 28.8 23.7822 29.0079 22.9431 29.4235C22.104 29.8391 21.4008 30.4194 20.8334 31.1643L14.591 39.3594C13.4309 40.8824 11 40.062 11 38.1475Z" fill-rule="evenodd"  fill="#787878" >
</path>
<path d="M27.2948 17.9962L14.1881 8.31745C12.8678 7.34248 11 8.28506 11 9.92632L11 26C11 27.1046 10.1046 28 9 28C7.89543 28 7 27.1046 7 26L7 9.92632C7 5.00255 12.6034 2.17479 16.5643 5.09972L29.6685 14.7766C30.1721 15.1398 30.5 15.7316 30.5 16.4C30.5 17.5046 29.6046 18.4 28.5 18.4C28.0474 18.4 27.6299 18.2497 27.2948 17.9962Z" fill-rule="evenodd"  fill="#424242" >
</path>
</svg>
