<svg xmlns="http://www.w3.org/2000/svg" xmlns:xlink="http://www.w3.org/1999/xlink" width="48" height="48" viewBox="0 0 48 48" fill="none">
<path d="M25.981 36.5876L21.5563 32.163C20.7753 31.3819 19.509 31.3819 18.7279 32.163C17.9468 32.944 17.9469 34.2103 18.7279 34.9914L23.1525 39.416C27.6435 43.907 34.925 43.9071 39.416 39.416C43.907 34.925 43.907 27.6436 39.416 23.1526L34.9914 18.7279C34.2103 17.9469 32.944 17.9469 32.1629 18.7279C31.3819 19.509 31.3819 20.7753 32.1629 21.5564L36.5876 25.981C39.5165 28.9099 39.5165 33.6587 36.5876 36.5876C33.6587 39.5165 28.9099 39.5165 25.981 36.5876Z" fill-rule="evenodd"  fill="#1764FF" >
</path>
<path d="M12.5801 28.9086L12.5816 28.9101L12.5857 28.9142C13.3668 29.6953 14.6331 29.6953 15.4141 28.9142C16.1938 28.1346 16.1952 26.8714 15.4183 26.09L15.4141 26.0858L11.1062 21.7524C9.6464 20.284 8.91801 18.5144 8.92104 16.4438C8.92412 14.3732 9.65772 12.6058 11.1219 11.1417C12.5891 9.67449 14.3601 8.94089 16.4351 8.94089C18.51 8.94089 20.2811 9.67449 21.7483 11.1417L26.163 15.5564C26.944 16.3374 28.2104 16.3375 28.9914 15.5564C29.7725 14.7754 29.7724 13.509 28.9914 12.728L24.5767 8.31326C22.3284 6.06501 19.6146 4.94089 16.4351 4.94088C13.2556 4.94089 10.5417 6.06501 8.29343 8.31326C6.04988 10.5568 4.92576 13.265 4.92108 16.4379C4.91641 19.6108 6.03252 22.3223 8.26943 24.5725L12.5801 28.9086Z" fill-rule="evenodd"  fill="#1764FF" >
</path>
<path d="M15.5148 18.3431L29.6568 32.4852C30.4379 33.2663 31.7042 33.2663 32.4853 32.4852C33.2663 31.7042 33.2663 30.4378 32.4853 29.6568L18.3432 15.5147C17.5621 14.7336 16.2958 14.7337 15.5148 15.5147C14.7337 16.2958 14.7337 17.5621 15.5148 18.3431Z" fill-rule="evenodd"  fill="#4187FF" >
</path>
</svg>
