<svg xmlns="http://www.w3.org/2000/svg" xmlns:xlink="http://www.w3.org/1999/xlink" width="48" height="48" viewBox="0 0 48 48" fill="none">
<path d="M3 37C3 41.4183 6.58172 45 11 45L15.5 45L15.5 32.5L3 32.5L3 37ZM3 28.5L15.5 28.5L15.5 19.5L3 19.5L3 28.5ZM3 15.5L3 11C3 6.58172 6.58172 3 11 3L15.5 3L15.5 15.5L3 15.5ZM19.5 3L19.5 15.5L28.5 15.5L28.5 3L19.5 3ZM32.5 3L32.5 15.5L45 15.5L45 11C45 6.58172 41.4183 3 37 3L32.5 3ZM45 19.5L32.5 19.5L32.5 28.5L45 28.5L45 19.5ZM45 32.5L32.5 32.5L32.5 45L37 45C41.4183 45 45 41.4183 45 37L45 32.5ZM28.5 45L28.5 32.5L19.5 32.5L19.5 45L28.5 45ZM19.5 28.5L19.5 19.5L28.5 19.5L28.5 28.5L19.5 28.5Z" fill-rule="evenodd"  fill="#000000" >
</path>
</svg>
