<svg xmlns="http://www.w3.org/2000/svg" xmlns:xlink="http://www.w3.org/1999/xlink" width="48" height="48" viewBox="0 0 48 48" fill="none">
<path d="M13 42.9922C13.0001 44.0968 13.8957 44.9921 15.0002 44.9919L25.0002 44.9907C26.1048 44.9906 27.0001 44.095 27 42.9905C26.9999 41.8859 26.1044 40.9906 24.9998 40.9907L14.9998 40.9919C13.8952 40.9921 12.9999 41.8876 13 42.9922Z" fill-rule="evenodd"  fill="#787878" >
</path>
<path d="M21 5.00732C21.0001 6.11189 21.8957 7.00722 23.0002 7.00708L33.0002 7.00586C34.1048 7.00572 35.0001 6.11019 35 5.00562C34.9999 3.90105 34.1044 3.00572 32.9998 3.00586L22.9998 3.00708C21.8952 3.00722 20.9999 3.90275 21 5.00732Z" fill-rule="evenodd"  fill="#787878" >
</path>
<path d="M18.379 40.99L22.469 40.99L29.629 7.01001L25.539 7.01001L18.379 40.99Z" fill-rule="evenodd"  fill="#424242" >
</path>
</svg>
