<svg xmlns="http://www.w3.org/2000/svg" xmlns:xlink="http://www.w3.org/1999/xlink" width="48" height="48" viewBox="0 0 48 48" fill="none">
<path d="M6 37C6 41.4183 9.58172 45 14 45L34 45C38.4183 45 42 41.4183 42 37L42 11C42 6.58172 38.4183 3 34 3L14 3C9.58172 3 6 6.58172 6 11L6 37ZM34 41L14 41C11.7909 41 10 39.2091 10 37L10 11C10 8.79086 11.7909 7 14 7L34 7C36.2091 7 38 8.79086 38 11L38 37C38 39.2091 36.2091 41 34 41Z" fill-rule="evenodd"  fill="#787878" >
</path>
<path d="M34.4135 30.415L27.357 37.4714C26.0553 38.7732 23.9447 38.7732 22.643 37.4714L19.5858 34.4142C19.2239 34.0523 19 33.5523 19 33C19 31.8954 19.8954 31 21 31C21.5523 31 22.0523 31.2239 22.4142 31.5858L25 34.1716L31.585 27.5865L31.5858 27.5858C31.9477 27.2239 32.4477 27 33 27C34.1046 27 35 27.8954 35 29C35 29.5523 34.7761 30.0523 34.4142 30.4142L34.4135 30.415Z" fill-rule="evenodd"  fill="#424242" >
</path>
<path d="M18 5L18 3L14 3L14 16.73C14 19.0619 16.5404 20.5097 18.54 19.31L21 17.83L23.46 19.31C25.4596 20.5097 28 19.0619 28 16.73L28 3L24 3L24 14.97L22.54 14.09C22.065 13.805 21.554 13.67 21 13.67C20.446 13.67 19.935 13.805 19.46 14.09L18 14.97L18 5Z" fill-rule="evenodd"  fill="#424242" >
</path>
</svg>
