<svg xmlns="http://www.w3.org/2000/svg" xmlns:xlink="http://www.w3.org/1999/xlink" width="48" height="48" viewBox="0 0 48 48" fill="none">
<path d="M40 36.7099L40 14.9399C40 14.4499 39.56 14.0899 39.08 14.1799C36.75 14.6099 30.38 15.6699 24 15.6699C17.62 15.6699 11.25 14.6099 8.92 14.1799C8.44 14.0899 8 14.4499 8 14.9399L8 35.8899C8 36.7799 8.48 37.5999 9.27 38.0199C20.37 43.8799 28.17 43.7699 39.44 37.6399C39.79 37.4499 40 37.0899 40 36.6999L40 36.7099Z"   fill="#6BA6FF" >
</path>
<path d="M6 15.2297L6 36.1563C6 37.6246 6.80315 38.9733 8.09873 39.6641C13.9432 42.7805 19.2499 44.3368 24.0189 44.3331C28.7866 44.3294 34.0948 42.7656 39.9435 39.6416C41.3145 38.9093 42 37.7475 42 36.1563L42 15.2297C42 13.35 40.2824 11.9285 38.4326 12.2629C33.2547 13.1987 28.4438 13.6666 24 13.6666C19.5524 13.6666 14.7383 13.1981 9.55768 12.2611C7.70421 11.9259 6 13.3462 6 15.2297ZM10 36.1448C15.2475 38.9402 19.9195 40.3363 24.0159 40.3331C28.1017 40.33 32.7631 38.9339 38 36.1448L38 16.3995C33.018 17.2443 28.3513 17.6666 24 17.6666C19.6477 17.6666 14.981 17.2443 10 16.3995L10 36.1448Z" fill-rule="evenodd"  fill="#4187FF" >
</path>
<path d="M23.2397 5.31992L5.47969 12.6499C3.82969 13.3299 3.82969 15.6699 5.47969 16.3499L23.2397 23.6799C23.7297 23.8799 24.2697 23.8799 24.7597 23.6799L42.5197 16.3499C44.1697 15.6699 44.1697 13.3299 42.5197 12.6499L24.7597 5.31992C24.2697 5.11992 23.7297 5.11992 23.2397 5.31992Z"   fill="#4187FF" >
</path>
<path d="M43.2885 18.1972C46.5858 16.8353 46.5858 12.1651 43.2885 10.8031L25.5275 3.46701C24.5495 3.06306 23.4513 3.06309 22.4734 3.46703L4.71222 10.8031C1.41494 12.1651 1.41494 16.8353 4.71222 18.1972L22.4734 25.5334C23.4513 25.9373 24.5495 25.9373 25.5274 25.5334L43.2885 18.1972ZM24.0004 7.16405L41.7615 14.5002L24.0004 21.8363L6.23926 14.5002L24.0004 7.16408L24.0004 7.16405Z" fill-rule="evenodd"  fill="#1764FF" >
</path>
</svg>
