<svg xmlns="http://www.w3.org/2000/svg" xmlns:xlink="http://www.w3.org/1999/xlink" width="48" height="48" viewBox="0 0 48 48" fill="none">
<path d="M6 16.5647L6 36.1564C6 36.887 6.18692 37.5665 6.56075 38.1948C6.938 38.8289 7.45066 39.3187 8.09874 39.6642C11.0359 41.2303 13.7586 42.39 16.267 43.1431C18.9163 43.9385 21.5003 44.3352 24.0189 44.3332C26.5372 44.3313 29.1214 43.9307 31.7717 43.1314C34.2804 42.3748 37.0044 41.2116 39.9435 39.6417C40.599 39.2916 41.1103 38.7955 41.4772 38.1536C41.8257 37.5439 42 36.8781 42 36.1564L42 16.5645L38 18.2154L38 36.1449C35.3171 37.5742 32.856 38.6265 30.6168 39.3018C28.3421 39.9878 26.1418 40.3316 24.0159 40.3332C21.89 40.3348 19.6904 39.9944 17.4172 39.312C15.1681 38.6367 12.6957 37.581 10 36.1449L10 18.2156L6 16.5647Z" fill-rule="evenodd"  fill="#787878" >
</path>
<path d="M25.5274 25.5331L43.2885 18.1969C46.5858 16.835 46.5858 12.1648 43.2885 10.8029L25.5274 3.46677C25.0384 3.2648 24.5294 3.16382 24.0004 3.16382C23.4713 3.16382 22.9623 3.2648 22.4734 3.46677L4.71222 10.8029C1.41494 12.1648 1.41494 16.835 4.71222 18.1969L22.4734 25.5331C22.9623 25.7351 23.4713 25.836 24.0004 25.836C24.5294 25.836 25.0384 25.7351 25.5274 25.5331ZM24.0004 7.16382L41.7615 14.4999L24.0004 21.836L6.23926 14.4999L24.0004 7.16382Z" fill-rule="evenodd"  fill="#424242" >
</path>
</svg>
