<svg xmlns="http://www.w3.org/2000/svg" xmlns:xlink="http://www.w3.org/1999/xlink" width="48" height="48" viewBox="0 0 48 48" fill="none">
<path d="M17.9998 6C17.9998 4.89543 17.1044 4 15.9998 4C14.8953 4 13.9998 4.89543 13.9998 6L13.9998 14.8859C13.9998 15.3811 13.911 15.8597 13.7332 16.3218L7.26924 33.1282C5.25385 38.3682 9.12177 44 14.736 44L33.2636 44C38.8779 44 42.7458 38.3682 40.7304 33.1282L34.2664 16.3218C34.0887 15.8597 33.9998 15.3811 33.9998 14.8859L33.9998 6C33.9998 4.89543 33.1044 4 31.9998 4C30.8952 4 29.9998 4.89543 29.9998 6L29.9998 14.8859C29.9998 15.8762 30.1776 16.8335 30.533 17.7578L36.997 34.5641C38.0047 37.1841 36.0707 40 33.2636 40L14.736 40C11.9289 40 9.99493 37.1841 11.0026 34.5641L17.4666 17.7578C17.8221 16.8335 17.9998 15.8762 17.9998 14.8859L17.9998 6Z" fill-rule="evenodd"  fill="#787878" >
</path>
<path d="M12.6865 30.19L14.9765 24.22C15.7091 24.0719 16.4828 24 17.2965 24C18.8172 24 20.3278 24.4607 21.8265 25.39C22.3712 25.7277 22.9622 26.1589 23.5865 26.67C23.9418 26.9608 24.4505 27.4084 25.1265 28.01C25.7615 28.5751 26.2338 28.984 26.5465 29.24C27.0356 29.6404 27.4804 29.9644 27.8765 30.21C28.7296 30.739 29.5355 31 30.2965 31C31.9282 31 33.2145 30.5894 34.1465 29.76C34.4169 29.5194 34.6388 29.25 34.8165 28.97L34.8365 28.95L36.4165 33.07C35.7558 33.5896 35.0152 34.004 34.1965 34.32C33.0203 34.7741 31.7215 35 30.2965 35C28.7759 35 27.2653 34.5393 25.7665 33.61C25.2218 33.2723 24.6408 32.8411 24.0165 32.33C23.6613 32.0392 23.1426 31.5916 22.4665 30.99C21.8316 30.4249 21.3593 30.016 21.0465 29.76C20.5575 29.3596 20.1126 29.0356 19.7165 28.79C18.8635 28.261 18.0575 28 17.2965 28C15.6648 28 14.3885 28.4106 13.4565 29.24C13.1862 29.4806 12.9643 29.75 12.7865 30.03C12.7491 30.089 12.714 30.1385 12.6865 30.19Z" fill-rule="evenodd"  fill="#424242" >
</path>
<path d="M10 6C10 7.10457 10.8954 8 12 8L36 8C37.1046 8 38 7.10457 38 6C38 4.89543 37.1046 4 36 4L12 4C10.8954 4 10 4.89543 10 6Z" fill-rule="evenodd"  fill="#424242" >
</path>
</svg>
