<svg xmlns="http://www.w3.org/2000/svg" xmlns:xlink="http://www.w3.org/1999/xlink" width="48" height="48" viewBox="0 0 48 48" fill="none">
<path d="M22.4822 3.46992L22.4722 3.46992L4.71219 10.7999C3.93219 11.1299 3.31219 11.6399 2.86219 12.3499C2.45219 12.9999 2.24219 13.7199 2.24219 14.4999C2.24219 15.2799 2.45219 15.9999 2.86219 16.6499C3.31219 17.3599 3.93219 17.8699 4.72219 18.1999L5.9997 18.7275L5.9997 35.885C5.9997 36.705 6.2097 37.455 6.6197 38.155C7.0397 38.855 7.6097 39.405 8.3297 39.785C11.2697 41.335 13.9997 42.485 16.5197 43.215C19.1797 43.985 21.7797 44.355 24.3197 44.325C26.8497 44.295 29.4497 43.855 32.1297 43.015C34.6597 42.225 37.4197 41.015 40.3997 39.395C40.8897 39.125 41.2797 38.745 41.5697 38.265C41.8597 37.785 41.9997 37.265 41.9997 36.705L41.9997 18.7289L43.2822 18.1999C44.0722 17.8699 44.6922 17.3599 45.1422 16.6499C45.5522 15.9999 45.7622 15.2799 45.7622 14.4999C45.7622 13.7199 45.5522 12.9999 45.1422 12.3499C44.6922 11.6399 44.0722 11.1299 43.2822 10.7999L25.5222 3.46992C25.0322 3.26992 24.5222 3.16992 24.0022 3.16992C23.4722 3.16992 22.9722 3.26992 22.4822 3.46992ZM37.9997 20.3789L25.5122 25.5299C25.0322 25.7299 24.5222 25.8299 24.0022 25.8299C23.4722 25.8299 22.9722 25.7299 22.4722 25.5299L9.9997 20.3793L9.9997 35.885C9.9997 36.055 10.0697 36.175 10.2097 36.255C12.8997 37.675 15.3797 38.715 17.6397 39.375C19.9197 40.035 22.1297 40.355 24.2697 40.325C26.4097 40.295 28.6297 39.925 30.9297 39.205C33.0797 38.525 35.4397 37.505 37.9997 36.145L37.9997 20.3789ZM6.24219 14.4999L24.0022 21.8299L41.7522 14.4999L41.7622 14.4999L24.0022 7.16992L23.9922 7.16992L6.24219 14.4999Z" fill-rule="evenodd"  fill="#000000" >
</path>
</svg>
