<svg xmlns="http://www.w3.org/2000/svg" xmlns:xlink="http://www.w3.org/1999/xlink" width="48" height="48" viewBox="0 0 48 48" fill="none">
<path d="M38 6L10 6C5.58172 6 2 9.58172 2 14L2 33C2 37.4183 5.58172 41 10 41L38 41C42.4183 41 46 37.4183 46 33L46 14C46 9.58172 42.4183 6 38 6Z" fill-rule="evenodd"  fill="#FEEDBD" >
</path>
<path d="M3.01276 10.1007L20.3767 23.2552C22.5194 24.8785 25.4802 24.8785 27.6229 23.2552L44.9868 10.1007C44.8973 9.94069 44.8025 9.78405 44.7025 9.63104C43.2746 7.44478 40.8059 6 37.9998 6L9.9998 6C7.23837 6 4.80373 7.39911 3.36607 9.52712C3.24055 9.71291 3.12263 9.90426 3.01276 10.1007Z" fill-rule="evenodd"  fill="#FBB63E" >
</path>
<path d="M38 6L10 6C7.89697 6 5.98348 6.81147 4.55555 8.13838C2.98352 9.5992 2 11.6847 2 14L2 33C2 37.4183 5.58172 41 10 41L38 41C42.4183 41 46 37.4183 46 33L46 14C46 12.5316 45.6044 11.1556 44.9139 9.97274C43.5268 7.59658 40.9499 6 38 6ZM41.5545 12.1637C40.8891 10.8784 39.5471 10 38 10L10 10C8.45284 10 7.11084 10.8784 6.44549 12.1637L21.8149 22.1872C23.1429 23.0533 24.8571 23.0533 26.1851 22.1872L41.5545 12.1637ZM6 16.6486L6 33C6 35.2091 7.79086 37 10 37L38 37C40.2091 37 42 35.2091 42 33L42 16.6486L28.3701 25.5377C25.7142 27.2698 22.2858 27.2698 19.6299 25.5377L6 16.6486Z" fill-rule="evenodd"  fill="#FA9E14" >
</path>
</svg>
