<svg xmlns="http://www.w3.org/2000/svg" xmlns:xlink="http://www.w3.org/1999/xlink" width="48" height="48" viewBox="0 0 48 48" fill="none">
<path d="M41 37L41 21L31.5 21C27.08 21 23.5 17.42 23.5 13L23.5 3L15 3C10.58 3 7 6.58 7 11L7 37C7 41.42 10.58 45 15 45L33 45C37.42 45 41 41.42 41 37ZM27.5 3.04206L27.5 13C27.5 15.21 29.29 17 31.5 17L40.9696 17C40.8353 15.6773 40.2603 14.4251 39.33 13.46L31.13 4.86C30.1644 3.84308 28.8774 3.20589 27.5 3.04206ZM15 21C12.79 21 11 22.79 11 25C11 26.4813 11.8042 27.7739 13 28.4653L13 33.5347C11.8042 34.2261 11 35.5187 11 37C11 39.21 12.79 41 15 41C16.4813 41 17.7739 40.1958 18.4653 39L23.5347 39C24.2261 40.1958 25.5187 41 27 41C29.21 41 31 39.21 31 37C31 34.79 29.21 33 27 33C25.5187 33 24.2261 33.8042 23.5347 35L18.4653 35C18.114 34.3924 17.6076 33.886 17 33.5347L17 28.4653C18.1958 27.7739 19 26.4813 19 25C19 22.79 17.21 21 15 21Z" fill-rule="evenodd"  fill="#000000" >
</path>
</svg>
