<svg xmlns="http://www.w3.org/2000/svg" xmlns:xlink="http://www.w3.org/1999/xlink" width="48" height="48" viewBox="0 0 48 48" fill="none">
<path d="M4 36C4 40.4183 7.58172 44 12 44L36 44C40.4183 44 44 40.4183 44 36L44 12C44 7.58172 40.4183 4 36 4L12 4C7.58172 4 4 7.58172 4 12L4 36ZM16 11.5C16 10.3954 16.8954 9.5 18 9.5C19.1046 9.5 20 10.3954 20 11.5L28 11.5C28 10.3954 28.8954 9.5 30 9.5C31.1046 9.5 32 10.3954 32 11.5L35 11.5C36.1046 11.5 37 12.3954 37 13.5C37 14.6046 36.1046 15.5 35 15.5L32 15.5C32 16.6046 31.1046 17.5 30 17.5C28.8954 17.5 28 16.6046 28 15.5L20 15.5C20 16.6046 19.1046 17.5 18 17.5C16.8954 17.5 16 16.6046 16 15.5L13 15.5C11.8954 15.5 11 14.6046 11 13.5C11 12.3954 11.8954 11.5 13 11.5L16 11.5ZM26 18.5C26 17.3954 25.1046 16.5 24 16.5C22.8954 16.5 22 17.3954 22 18.5L17 18.5C14.7909 18.5 13 20.2909 13 22.5L13 26.5L12 26.5C10.8954 26.5 10 27.3954 10 28.5C10 29.6046 10.8954 30.5 12 30.5L20.9308 30.5C20.3475 31.1219 19.5254 31.6947 18.4647 32.2184C17.4264 32.7309 16.2418 33.1529 14.9106 33.4842C13.8171 33.7564 12.8005 33.93 11.8606 34.0048C10.821 34.0764 10 34.9423 10 36C10 37.1046 10.8954 38 12 38C12.0607 38 12.1207 37.9973 12.18 37.992C13.3385 37.8997 14.5708 37.6909 15.8769 37.3658C17.4867 36.965 18.9395 36.4448 20.2353 35.8051C21.802 35.0317 23.0569 34.1186 24 33.0657C24.9431 34.1186 26.198 35.0317 27.7647 35.8051C29.0605 36.4448 30.5133 36.965 32.1231 37.3658C33.4292 37.6909 34.6615 37.8997 35.82 37.992C35.8793 37.9973 35.9393 38 36 38C37.1046 38 38 37.1046 38 36C38 34.9423 37.179 34.0764 36.1394 34.0048C35.1995 33.93 34.1829 33.7564 33.0894 33.4842C31.7582 33.1529 30.5736 32.7309 29.5353 32.2184C28.4746 31.6947 27.6525 31.1219 27.0692 30.5L36 30.5C37.1046 30.5 38 29.6046 38 28.5C38 27.3954 37.1046 26.5 36 26.5L35 26.5L35 22.5C35 20.2909 33.2091 18.5 31 18.5L26 18.5ZM22 22.5L17 22.5L17 26.5L22 26.5L22 22.5ZM26 22.5L31 22.5L31 26.5L26 26.5L26 22.5Z" fill-rule="evenodd"  fill="#000000" >
</path>
</svg>
