<svg xmlns="http://www.w3.org/2000/svg" xmlns:xlink="http://www.w3.org/1999/xlink" width="48" height="48" viewBox="0 0 48 48" fill="none">
<path d="M38 7L10 7C5.58172 7 2 10.5817 2 15L2 33C2 37.4183 5.58172 41 10 41L38 41C42.4183 41 46 37.4183 46 33L46 15C46 10.5817 42.4183 7 38 7ZM6 15C6 12.7909 7.79086 11 10 11L38 11C40.2091 11 42 12.7909 42 15L42 33C42 35.2091 40.2091 37 38 37L10 37C7.79086 37 6 35.2091 6 33L6 15Z" fill-rule="evenodd"  fill="#787878" >
</path>
<path d="M12 15C10.6193 15 9.5 16.1193 9.5 17.5C9.5 18.8807 10.6193 20 12 20C13.3807 20 14.5 18.8807 14.5 17.5C14.5 16.1193 13.3807 15 12 15Z"   fill="#424242" >
</path>
<path d="M12 22C10.6193 22 9.5 23.1193 9.5 24.5C9.5 25.8807 10.6193 27 12 27C13.3807 27 14.5 25.8807 14.5 24.5C14.5 23.1193 13.3807 22 12 22Z"   fill="#424242" >
</path>
<path d="M36 15C34.6193 15 33.5 16.1193 33.5 17.5C33.5 18.8807 34.6193 20 36 20C37.3807 20 38.5 18.8807 38.5 17.5C38.5 16.1193 37.3807 15 36 15Z"   fill="#424242" >
</path>
<path d="M36 22C34.6193 22 33.5 23.1193 33.5 24.5C33.5 25.8807 34.6193 27 36 27C37.3807 27 38.5 25.8807 38.5 24.5C38.5 23.1193 37.3807 22 36 22Z"   fill="#424242" >
</path>
<path d="M20 15C18.6193 15 17.5 16.1193 17.5 17.5C17.5 18.8807 18.6193 20 20 20C21.3807 20 22.5 18.8807 22.5 17.5C22.5 16.1193 21.3807 15 20 15Z"   fill="#424242" >
</path>
<path d="M20 22C18.6193 22 17.5 23.1193 17.5 24.5C17.5 25.8807 18.6193 27 20 27C21.3807 27 22.5 25.8807 22.5 24.5C22.5 23.1193 21.3807 22 20 22Z"   fill="#787878" >
</path>
<path d="M28 15C26.6193 15 25.5 16.1193 25.5 17.5C25.5 18.8807 26.6193 20 28 20C29.3807 20 30.5 18.8807 30.5 17.5C30.5 16.1193 29.3807 15 28 15Z"   fill="#424242" >
</path>
<path d="M28 22C26.6193 22 25.5 23.1193 25.5 24.5C25.5 25.8807 26.6193 27 28 27C29.3807 27 30.5 25.8807 30.5 24.5C30.5 23.1193 29.3807 22 28 22Z"   fill="#787878" >
</path>
<path d="M17 32.0002C17.0001 33.1048 17.8956 34.0002 19.0001 34L29.0001 33.9991C30.1047 33.999 31.0001 33.1034 31 31.9989C30.9998 30.8943 30.1044 29.999 28.9998 29.9991L18.9998 30C17.8952 30.0002 16.9998 30.8957 17 32.0002Z" fill-rule="evenodd"  fill="#424242" >
</path>
</svg>
