<svg xmlns="http://www.w3.org/2000/svg" xmlns:xlink="http://www.w3.org/1999/xlink" width="48" height="48" viewBox="0 0 48 48" fill="none">
<path     fill="#1764FF"  d="M11 35L37 35C40.31 35 43 32.31 43 29L43 13C43 9.69 40.31 7 37 7L11 7C7.69 7 5 9.69 5 13L5 29C5 32.31 7.69 35 11 35Z">
</path>
<path d="M3 29C3 33.4183 6.58172 37 11 37L37 37C41.4183 37 45 33.4183 45 29L45 13C45 8.58172 41.4183 5 37 5L11 5C6.58172 5 3 8.58172 3 13L3 29ZM37 33L11 33C8.79086 33 7 31.2091 7 29L7 13C7 10.7909 8.79086 9 11 9L37 9C39.2091 9 41 10.7909 41 13L41 29C41 31.2091 39.2091 33 37 33Z" fill-rule="evenodd"  fill="#1764FF" >
</path>
<path d="M17 41.0012C17.0001 42.1058 17.8956 43.0011 19.0002 43.001L29.0002 43C30.1048 42.9999 31.0001 42.1044 31 40.9999C30.9999 39.8953 30.1044 38.9999 28.9998 39L18.9998 39.001C17.8952 39.0011 16.9999 39.8967 17 41.0012Z" fill-rule="evenodd"  fill="#6BA6FF" >
</path>
</svg>
