<svg xmlns="http://www.w3.org/2000/svg" xmlns:xlink="http://www.w3.org/1999/xlink" width="48" height="48" viewBox="0 0 48 48" fill="none">
<path d="M13.89 2.63C12.93 3.04 12.08 3.61 11.34 4.34C10.61 5.08 10.04 5.93 9.63 6.89C9.21 7.88 9 8.92 9 10L9 38C9 39.08 9.21 40.12 9.63 41.11C10.04 42.07 10.61 42.92 11.34 43.66C12.08 44.39 12.93 44.96 13.89 45.37C14.88 45.79 15.92 46 17 46L31 46C32.08 46 33.12 45.79 34.11 45.37C35.07 44.96 35.92 44.39 36.66 43.66C37.39 42.92 37.96 42.07 38.37 41.11C38.79 40.12 39 39.08 39 38L39 10C39 8.92 38.79 7.88 38.37 6.89C37.96 5.93 37.39 5.08 36.66 4.34C35.92 3.61 35.07 3.04 34.11 2.63C33.12 2.21 32.08 2 31 2L17 2C15.92 2 14.88 2.21 13.89 2.63ZM26.34 7.97C27.05 8.28 27.69 8.7 28.24 9.26C28.8 9.81 29.22 10.45 29.53 11.16C29.84 11.91 30 12.69 30 13.5C30 14.31 29.84 15.09 29.53 15.84C29.22 16.55 28.8 17.19 28.24 17.74C27.69 18.3 27.05 18.72 26.34 19.03C25.59 19.34 24.81 19.5 24 19.5C23.19 19.5 22.41 19.34 21.66 19.03C20.95 18.72 20.31 18.3 19.76 17.74C19.2 17.19 18.78 16.55 18.47 15.84C18.16 15.09 18 14.31 18 13.5C18 12.69 18.16 11.91 18.47 11.16C18.78 10.45 19.2 9.81 19.76 9.26C20.31 8.7 20.95 8.28 21.66 7.97C22.41 7.66 23.19 7.5 24 7.5C24.81 7.5 25.59 7.66 26.34 7.97ZM25.95 26.89C26.55 27.14 27.08 27.5 27.54 27.96C28 28.42 28.36 28.95 28.61 29.55C28.87 30.17 29 30.82 29 31.5C29 32.18 28.87 32.83 28.61 33.45C28.36 34.05 28 34.58 27.54 35.04C27.08 35.5 26.55 35.86 25.95 36.11C25.33 36.37 24.68 36.5 24 36.5C23.32 36.5 22.67 36.37 22.05 36.11C21.45 35.86 20.92 35.5 20.46 35.04C20 34.58 19.64 34.05 19.39 33.45C19.13 32.83 19 32.18 19 31.5C19 30.82 19.13 30.17 19.39 29.55C19.64 28.95 20 28.42 20.46 27.96C20.92 27.5 21.45 27.14 22.05 26.89C22.67 26.63 23.32 26.5 24 26.5C24.68 26.5 25.33 26.63 25.95 26.89ZM23.22 15.34C22.98 15.24 22.77 15.1 22.59 14.91C22.4 14.73 22.26 14.52 22.16 14.28C22.05 14.03 22 13.77 22 13.5C22 13.23 22.05 12.97 22.16 12.72C22.26 12.48 22.4 12.27 22.59 12.09C22.77 11.9 22.98 11.76 23.22 11.66C23.47 11.55 23.73 11.5 24 11.5C24.27 11.5 24.53 11.55 24.78 11.66C25.02 11.76 25.23 11.9 25.41 12.09C25.6 12.27 25.74 12.48 25.84 12.72C25.95 12.97 26 13.23 26 13.5C26 13.77 25.95 14.03 25.84 14.28C25.74 14.52 25.6 14.73 25.41 14.91C25.23 15.1 25.02 15.24 24.78 15.34C24.53 15.45 24.27 15.5 24 15.5C23.73 15.5 23.47 15.45 23.22 15.34ZM30.37 37.87C29.54 38.7 28.58 39.34 27.5 39.79C26.39 40.26 25.22 40.5 24 40.5C22.78 40.5 21.61 40.26 20.5 39.79C19.42 39.34 18.46 38.7 17.63 37.87C16.8 37.04 16.16 36.08 15.71 35C15.24 33.89 15 32.72 15 31.5C15 30.28 15.24 29.11 15.71 28C16.16 26.92 16.8 25.96 17.63 25.13C18.46 24.3 19.42 23.66 20.5 23.21C21.61 22.74 22.78 22.5 24 22.5C25.22 22.5 26.39 22.74 27.5 23.21C28.58 23.66 29.54 24.3 30.37 25.13C31.2 25.96 31.84 26.92 32.29 28C32.76 29.11 33 30.28 33 31.5C33 32.72 32.76 33.89 32.29 35C31.84 36.08 31.2 37.04 30.37 37.87Z" fill-rule="evenodd"  fill="#000000" >
</path>
</svg>
