<svg xmlns="http://www.w3.org/2000/svg" xmlns:xlink="http://www.w3.org/1999/xlink" width="48" height="48" viewBox="0 0 48 48" fill="none">
<path d="M35 5L9 5C4.58172 5 1 8.58172 1 13L1 29C1 33.4183 4.58172 37 9 37L17.0283 37C17.0095 36.6738 17 36.3405 17 36L17 24C17 17 22 14 28 14L43 14L43 13C43 8.58172 39.4183 5 35 5Z" fill-rule="evenodd"  fill="#1764FF" >
</path>
<path d="M17.2776 39.0005C17.5837 40.544 18.1395 41.8827 18.9284 43.0003L13.0003 43.0009C11.8957 43.001 11.0002 42.1057 11.0001 41.0011C11 39.8965 11.8953 39.001 12.9999 39.0009L17.2776 39.0005Z" fill-rule="evenodd"  fill="#6BA6FF" >
</path>
<path     fill="#8134ED"  d="M29 41L39 41C42.31 41 45 38.31 45 35L45 26C45 22.69 42.31 20 39 20L29 20C25.69 20 23 22.69 23 26L23 35C23 38.31 25.69 41 29 41Z">
</path>
<path d="M21 35C21 39.4183 24.5817 43 29 43L39 43C43.4183 43 47 39.4183 47 35L47 26C47 21.5817 43.4183 18 39 18L29 18C24.5817 18 21 21.5817 21 26L21 35ZM39 39L29 39C26.7909 39 25 37.2091 25 35L25 26C25 23.7909 26.7909 22 29 22L39 22C41.2091 22 43 23.7909 43 26L43 35C43 37.2091 41.2091 39 39 39Z" fill-rule="evenodd"  fill="#8134ED" >
</path>
<path d="M29 35.0012C29.0002 36.1058 29.8957 37.0011 31.0003 37.0009L37.0003 36.9999C38.1049 36.9997 39.0002 36.1042 39 34.9996C38.9998 33.895 38.1042 32.9997 36.9997 32.9999L30.9997 33.0009C29.8951 33.0011 28.9998 33.8967 29 35.0012Z" fill-rule="evenodd"  fill="#F5E8FF" >
</path>
</svg>
