<svg xmlns="http://www.w3.org/2000/svg" xmlns:xlink="http://www.w3.org/1999/xlink" width="48" height="48" viewBox="0 0 48 48" fill="none">
<path d="M9 3L35 3C39.4183 3 43 6.58172 43 11L39 11C39 8.79086 37.2091 7 35 7L9 7C6.79086 7 5 8.79086 5 11L5 31C5 33.2091 6.79086 35 9 35L21 35L21 39L9 39C4.58172 39 1 35.4183 1 31L1 11C1 6.58172 4.58172 3 9 3Z" fill-rule="evenodd"  fill="#1764FF" >
</path>
<path d="M21 29.0006L16.9998 29.001C15.8952 29.0011 14.9999 29.8966 15 31.0012C15.0001 32.1058 15.8956 33.0011 17.0002 33.001L21 33.0006L21 29.0006Z" fill-rule="evenodd"  fill="#4187FF" >
</path>
<path d="M41 15L31 15C27.6863 15 25 17.6863 25 21L25 39C25 42.3137 27.6863 45 31 45L41 45C44.3137 45 47 42.3137 47 39L47 21C47 17.6863 44.3137 15 41 15ZM29 21C29 19.8954 29.8954 19 31 19L41 19C42.1046 19 43 19.8954 43 21L43 39C43 40.1046 42.1046 41 41 41L31 41C29.8954 41 29 40.1046 29 39L29 21Z" fill-rule="evenodd"  fill="#2CB197" >
</path>
<path d="M31 37.0013C31.0001 38.1059 31.8957 39.0012 33.0003 39.001L39.0003 39C40.1049 38.9999 41.0001 38.1043 41 36.9997C40.9998 35.8951 40.1042 34.9999 38.9996 35L32.9996 35.001C31.8951 35.0012 30.9998 35.8968 31 37.0013Z" fill-rule="evenodd"  fill="#51C5AA" >
</path>
</svg>
