<svg xmlns="http://www.w3.org/2000/svg" xmlns:xlink="http://www.w3.org/1999/xlink" width="48" height="48" viewBox="0 0 48 48" fill="none">
<path d="M7 11.8095L7 28C7.00773 28.5491 7.20299 29.0205 7.58579 29.4142C7.97951 29.797 8.45092 29.9923 9 30L39 30C39.5491 29.9923 40.0205 29.797 40.4142 29.4142C40.797 29.0205 40.9923 28.5491 41 28L41 11.8095C41 8.60101 38.399 6 35.1905 6L12.8095 6C9.60101 6 7 8.60101 7 11.8095ZM37 26L37 11.8095C37 10.8102 36.1898 10 35.1905 10L12.8095 10C11.8102 10 11 10.8102 11 11.8095L11 26L37 26Z" fill-rule="evenodd"  fill="#FF1A1A" >
</path>
<path d="M7.13333 27.282L3.92539 35.6227C2.5578 39.1784 5.18246 43 8.99212 43L39.0079 43C42.8176 43 45.4422 39.1784 44.0746 35.6227L40.8667 27.282C40.7159 26.8976 40.4711 26.5874 40.1323 26.3514C39.7904 26.1198 39.4129 26.0027 39 26L9.00002 26C8.58709 26.0027 8.20967 26.1198 7.86775 26.3514C7.52889 26.5874 7.28408 26.8976 7.13333 27.282ZM10.3736 30L7.65877 37.0586C7.29888 37.9943 7.98958 39 8.99212 39L39.0079 39C40.0104 39 40.7011 37.9943 40.3412 37.0586L37.6264 30L10.3736 30Z" fill-rule="evenodd"  fill="#FF4943" >
</path>
</svg>
