<svg xmlns="http://www.w3.org/2000/svg" xmlns:xlink="http://www.w3.org/1999/xlink" width="48" height="48" viewBox="0 0 48 48" fill="none">
<path d="M10 44C9.19 44 8.41 43.84 7.66 43.53C6.95 43.22 6.31 42.8 5.76 42.24C5.2 41.69 4.78 41.05 4.47 40.34C4.16 39.59 4 38.81 4 38L4 30.37C4 29.96 4.03 29.59 4.1 29.26L7.93 8.89C8.06 8.19 8.31 7.54 8.67 6.93C9.02 6.34 9.46 5.82 9.99 5.38C10.52 4.94 11.11 4.6 11.76 4.37C12.42 4.12 13.11 4 13.82 4L34.61 4C35.33 4 36.03 4.13 36.71 4.38C37.36 4.62 37.96 4.97 38.49 5.42C39.03 5.87 39.47 6.4 39.82 7.01C40.18 7.63 40.41 8.3 40.53 9.01L43.92 29.34C43.93 29.36 43.93 29.38 43.93 29.4C43.98 29.73 44 30.04 44 30.33L44 38C44 38.81 43.84 39.59 43.53 40.34C43.2588 40.9613 42.9033 41.5289 42.4435 42.0296C42.3778 42.1011 42.31 42.1712 42.24 42.24C41.69 42.8 41.05 43.22 40.34 43.53C39.59 43.84 38.81 44 38 44L10 44ZM11.85 9.63L8.37227 28.2235C8.90067 28.0756 9.44325 28 10 28L38 28C38.5757 28 39.1363 28.0808 39.6818 28.2389L36.59 9.67C36.51 9.19 36.28 8.79 35.91 8.47C35.54 8.16 35.1 8 34.61 8L13.82 8C13.34 8 12.92 8.15 12.55 8.46C12.18 8.77 11.95 9.16 11.85 9.63ZM8 38L8 34C8 33.73 8.05 33.47 8.16 33.22C8.26 32.98 8.4 32.77 8.59 32.59C8.77 32.4 8.98 32.26 9.22 32.16C9.47 32.05 9.73 32 10 32L38 32C38.27 32 38.53 32.05 38.78 32.16C39.02 32.26 39.23 32.4 39.41 32.59C39.6 32.77 39.74 32.98 39.84 33.22C39.95 33.47 40 33.73 40 34L40 38C40 38.27 39.95 38.53 39.84 38.78C39.74 39.02 39.6 39.23 39.41 39.41C39.23 39.6 39.02 39.74 38.78 39.84C38.53 39.95 38.27 40 38 40L10 40C9.73 40 9.47 39.95 9.22 39.84C8.98 39.74 8.77 39.6 8.59 39.41C8.4 39.23 8.26 39.02 8.16 38.78C8.05 38.53 8 38.27 8 38ZM31.5 36C31.5 34.62 32.62 33.5 34 33.5C35.38 33.5 36.5 34.62 36.5 36C36.5 37.38 35.38 38.5 34 38.5C32.62 38.5 31.5 37.38 31.5 36Z" fill-rule="evenodd"  fill="#000000" >
</path>
</svg>
