<svg xmlns="http://www.w3.org/2000/svg" xmlns:xlink="http://www.w3.org/1999/xlink" width="48" height="48" viewBox="0 0 48 48" fill="none">
<path d="M23 1L25 1C27.7614 1 30 3.23858 30 6L30 10L26 10L26 6C26 5.44772 25.5523 5 25 5L23 5C22.4477 5 22 5.44772 22 6L22 10L18 10L18 6C18 3.23858 20.2386 1 23 1ZM18 38L18 42C18 44.7614 20.2386 47 23 47L25 47C27.7614 47 30 44.7614 30 42L30 38L26 38L26 42C26 42.5523 25.5523 43 25 43L23 43C22.4477 43 22 42.5523 22 42L22 38L18 38Z" fill-rule="evenodd"  fill="#787878" >
</path>
<path d="M35 19C35 12.9249 30.0751 8 24 8C17.9249 8 13 12.9249 13 19L13 29C13 35.0751 17.9249 40 24 40C30.0751 40 35 35.0751 35 29L35 19ZM17 19C17 15.134 20.134 12 24 12C27.866 12 31 15.134 31 19L31 29C31 32.866 27.866 36 24 36C20.134 36 17 32.866 17 29L17 19Z" fill-rule="evenodd"  fill="#424242" >
</path>
</svg>
