<svg xmlns="http://www.w3.org/2000/svg" xmlns:xlink="http://www.w3.org/1999/xlink" width="48" height="48" viewBox="0 0 48 48" fill="none">
<path d="M9 5L35 5C37.9611 5 40.5465 6.60879 41.9297 9L9 9C6.79086 9 5 10.7909 5 13L5 29C5 31.2091 6.79086 33 9 33L20 33L20 34.33C20 35.2673 20.0541 36.1579 20.1607 37L9 37C4.58172 37 1 33.4183 1 29L1 13C1 8.58172 4.58172 5 9 5Z" fill-rule="evenodd"  fill="#1764FF" >
</path>
<path d="M20.535 39.0008C20.9271 40.5456 21.5306 41.884 22.3325 43.0006L18.0002 43.001C16.8956 43.0011 16.0001 42.1058 16 41.0012C15.9999 39.8967 16.8952 39.0011 17.9998 39.001L20.535 39.0008Z" fill-rule="evenodd"  fill="#6BA6FF" >
</path>
<path d="M41 13L31 13C27.6863 13 25 15.6863 25 19L25 37C25 40.3137 27.6863 43 31 43L41 43C44.3137 43 47 40.3137 47 37L47 19C47 15.6863 44.3137 13 41 13ZM29 19C29 17.8954 29.8954 17 31 17L41 17C42.1046 17 43 17.8954 43 19L43 37C43 38.1046 42.1046 39 41 39L31 39C29.8954 39 29 38.1046 29 37L29 19Z" fill-rule="evenodd"  fill="#0D9E86" >
</path>
<path d="M31 35.0013C31.0002 36.1059 31.8957 37.0012 33.0003 37.001L39.0003 37C40.1049 36.9999 41.0002 36.1043 41 34.9997C40.9998 33.8951 40.1042 32.9999 38.9997 33L32.9997 33.001C31.8951 33.0012 30.9998 33.8968 31 35.0013Z" fill-rule="evenodd"  fill="#2CB197" >
</path>
</svg>
