<svg xmlns="http://www.w3.org/2000/svg" xmlns:xlink="http://www.w3.org/1999/xlink" width="48" height="48" viewBox="0 0 48 48" fill="none">
<path d="M28 3L20 3C14.4771 3 10 7.47715 10 13L10 32C10 39.732 16.268 46 24 46C31.732 46 38 39.732 38 32L38 13C38 7.47715 33.5228 3 28 3ZM14 13C14 9.68629 16.6863 7 20 7L28 7C31.3137 7 34 9.68629 34 13L34 32C34 37.5228 29.5228 42 24 42C18.4771 42 14 37.5228 14 32L14 13Z" fill-rule="evenodd"  fill="#787878" >
</path>
<path d="M26 7L26 16C26 17.1046 25.1046 18 24 18C22.8954 18 22 17.1046 22 16L22 7L26 7Z" fill-rule="evenodd"  fill="#424242" >
</path>
</svg>
