<svg xmlns="http://www.w3.org/2000/svg" xmlns:xlink="http://www.w3.org/1999/xlink" width="48" height="48" viewBox="0 0 48 48" fill="none">
<path d="M20.48 6L27.52 6C29.6731 6 31.6617 7.15055 32.73 9.02L33.85 10.98C34.5622 12.2263 35.8846 13 37.32 13L38 13C41.3137 13 44 15.6863 44 19L44 35C44 38.3137 41.3137 41 38 41L10 41C6.68629 41 4 38.3137 4 35L4 19C4 15.6863 6.68629 13 10 13L10.68 13C12.1154 13 13.4378 12.2263 14.15 10.98L15.27 9.02C16.3383 7.15055 18.3269 6 20.48 6Z"   fill="#2A2A2A" >
</path>
<path d="M2 19L2 35C2 39.4183 5.58172 43 10 43L38 43C42.4183 43 46 39.4183 46 35L46 19C46 14.5817 42.4183 11 38 11L37.3213 11C36.9624 11 36.6278 10.9099 36.3174 10.7298C36.0071 10.5497 35.7629 10.3039 35.5848 9.99228L34.464 8.03089C33.7519 6.78459 32.775 5.8012 31.5335 5.08072C30.292 4.36024 28.9535 4 27.5181 4L20.4819 4C19.0465 4 17.708 4.36024 16.4665 5.08072C15.225 5.8012 14.2481 6.78459 13.536 8.03089L12.4152 9.99228C12.2372 10.3039 11.9929 10.5497 11.6826 10.7298C11.3722 10.9099 11.0376 11 10.6787 11L10 11C8.91582 11 7.87763 11.2098 6.88543 11.6295C5.92808 12.0344 5.08066 12.6056 4.34315 13.3432C3.60564 14.0807 3.03442 14.9281 2.6295 15.8854C2.20983 16.8776 2 17.9158 2 19ZM10 39C7.79086 39 6 37.2091 6 35L6 19C6 18.4566 6.10451 17.9378 6.31352 17.4436C6.51583 16.9653 6.80184 16.5413 7.17157 16.1716C7.5413 15.8019 7.96532 15.5158 8.44363 15.3135C8.93779 15.1045 9.45658 15 10 15L10.6787 15C11.7553 15 12.7591 14.7298 13.6903 14.1895C14.6214 13.6491 15.3541 12.9116 15.8882 11.9768L17.009 10.0154C17.3651 9.39229 17.8535 8.9006 18.4742 8.54036C19.095 8.18012 19.7642 8 20.4819 8L27.5181 8C28.2358 8 28.905 8.18012 29.5258 8.54036C30.1465 8.9006 30.6349 9.39229 30.991 10.0154L32.1118 11.9768C32.6459 12.9116 33.3786 13.6491 34.3097 14.1895C35.2408 14.7298 36.2447 15 37.3213 15L38 15C40.2091 15 42 16.7909 42 19L42 35C42 37.2091 40.2091 39 38 39L10 39Z" fill-rule="evenodd"  fill="#555555" >
</path>
<path d="M32 25C32 29.4183 28.4183 33 24 33C19.5817 33 16 29.4183 16 25C16 20.5817 19.5817 17 24 17C28.4183 17 32 20.5817 32 25Z"   fill="#555555" >
</path>
<path d="M24 35C29.5228 35 34 30.5228 34 25C34 19.4771 29.5228 15 24 15C18.4771 15 14 19.4771 14 25C14 30.5228 18.4771 35 24 35ZM24 19C27.3137 19 30 21.6863 30 25C30 28.3137 27.3137 31 24 31C20.6863 31 18 28.3137 18 25C18 21.6863 20.6863 19 24 19Z" fill-rule="evenodd"  fill="#D5D5D5" >
</path>
</svg>
