<svg xmlns="http://www.w3.org/2000/svg" xmlns:xlink="http://www.w3.org/1999/xlink" width="48" height="48" viewBox="0 0 48 48" fill="none">
<path d="M30 3L18 3C13.5817 3 10 6.58172 10 11L10 37C10 41.4183 13.5817 45 18 45L30 45C34.4183 45 38 41.4183 38 37L38 11C38 6.58172 34.4183 3 30 3ZM14 11C14 8.79086 15.7909 7 18 7L30 7C32.2091 7 34 8.79086 34 11L34 37C34 39.2091 32.2091 41 30 41L18 41C15.7909 41 14 39.2091 14 37L14 11Z" fill-rule="evenodd"  fill="#787878" >
</path>
<path d="M17 36.0002C17.0001 37.1048 17.8956 38.0002 19.0002 38L29.0002 37.9991C30.1048 37.999 31.0001 37.1034 31 35.9989C30.9999 34.8943 30.1044 33.999 28.9998 33.9991L18.9998 34C17.8952 34.0002 16.9999 34.8957 17 36.0002Z" fill-rule="evenodd"  fill="#424242" >
</path>
</svg>
