<svg xmlns="http://www.w3.org/2000/svg" xmlns:xlink="http://www.w3.org/1999/xlink" width="48" height="48" viewBox="0 0 48 48" fill="none">
<path d="M21 1L27 1C30.3137 1 33 3.68629 33 7L33 14.6191C31.849 13.5146 30.4952 12.6199 29 11.9963L29 7C29 5.89543 28.1046 5 27 5L21 5C19.8954 5 19 5.89543 19 7L19 11.9963C17.5048 12.6199 16.151 13.5146 15 14.6191L15 7C15 3.68629 17.6863 1 21 1ZM15 33.3809L15 41C15 44.3137 17.6863 47 21 47L27 47C30.3137 47 33 44.3137 33 41L33 33.3809C31.849 34.4854 30.4952 35.3801 29 36.0037L29 41C29 42.1046 28.1046 43 27 43L21 43C19.8954 43 19 42.1046 19 41L19 36.0037C17.5048 35.3801 16.151 34.4854 15 33.3809Z" fill-rule="evenodd"  fill="#787878" >
</path>
<path d="M24 39C32.2843 39 39 32.2843 39 24C39 15.7157 32.2843 9 24 9C21.9664 9 20.02 9.3932 18.1607 10.1796C16.3659 10.9387 14.7768 12.01 13.3934 13.3934C12.01 14.7768 10.9387 16.3659 10.1796 18.1607C9.3932 20.02 9 21.9664 9 24C9 32.2843 15.7157 39 24 39ZM19.7189 13.8636C21.0801 13.2879 22.5071 13 24 13C30.0751 13 35 17.9249 35 24C35 30.0751 30.0751 35 24 35C17.9249 35 13 30.0751 13 24C13 22.5071 13.2879 21.0801 13.8636 19.7189C14.4201 18.4031 15.2062 17.2374 16.2218 16.2218C17.2374 15.2062 18.4031 14.4201 19.7189 13.8636Z" fill-rule="evenodd"  fill="#424242" >
</path>
</svg>
