<svg xmlns="http://www.w3.org/2000/svg" xmlns:xlink="http://www.w3.org/1999/xlink" width="48" height="48" viewBox="0 0 48 48" fill="none">
<path d="M35 3L9 3C4.58172 3 1 6.58172 1 11L1 31C1 35.4183 4.58172 39 9 39L21.2518 39C21.0874 38.3608 21 37.6907 21 37L21 21C21 15.48 25.48 11 31 11L43 11C43 6.58172 39.4183 3 35 3Z" fill-rule="evenodd"  fill="#1764FF" >
</path>
<path d="M21 29.0006L21 33.0006L17.0002 33.001C15.8956 33.0011 15.0001 32.1058 15 31.0012C14.9999 29.8966 15.8952 29.0011 16.9998 29.001L21 29.0006Z" fill-rule="evenodd"  fill="#E8F4FF" >
</path>
<path     fill="#2CB197"  d="M31 17L41 17C43.2091 17 45 18.7909 45 21L45 39C45 41.2091 43.2091 43 41 43L31 43C28.7909 43 27 41.2091 27 39L27 21C27 18.7909 28.7909 17 31 17Z">
</path>
<path d="M41 15L31 15C27.6863 15 25 17.6863 25 21L25 39C25 42.3137 27.6863 45 31 45L41 45C44.3137 45 47 42.3137 47 39L47 21C47 17.6863 44.3137 15 41 15ZM29 21C29 19.8954 29.8954 19 31 19L41 19C42.1046 19 43 19.8954 43 21L43 39C43 40.1046 42.1046 41 41 41L31 41C29.8954 41 29 40.1046 29 39L29 21Z" fill-rule="evenodd"  fill="#2CB197" >
</path>
<path d="M31 37.0012C31.0001 38.1058 31.8957 39.0011 33.0003 39.0009L39.0003 38.9999C40.1049 38.9997 41.0001 38.1042 41 36.9996C40.9998 35.895 40.1042 34.9997 38.9996 34.9999L32.9996 35.0009C31.8951 35.0011 30.9998 35.8967 31 37.0012Z" fill-rule="evenodd"  fill="#E8FFF7" >
</path>
</svg>
