<svg xmlns="http://www.w3.org/2000/svg" xmlns:xlink="http://www.w3.org/1999/xlink" width="48" height="48" viewBox="0 0 48 48" fill="none">
<path     fill="#2A2A2A"  d="M17 19L15 19C12.7909 19 11 20.7909 11 23L11 38C11 41.3137 13.6863 44 17 44L31 44C34.3137 44 37 41.3137 37 38L37 23C37 20.7909 35.2091 19 33 19L31 19L17 19Z">
</path>
<path d="M31 17L15 17C11.6863 17 9 19.6863 9 23L9 38C9 42.4183 12.5817 46 17 46L31 46C35.4183 46 39 42.4183 39 38L39 23C39 19.6863 36.3137 17 33 17L31 17ZM15 21L33 21C34.1046 21 35 21.8954 35 23L35 38C35 40.2091 33.2091 42 31 42L17 42C14.7909 42 13 40.2091 13 38L13 23C13 21.8954 13.8954 21 15 21Z" fill-rule="evenodd"  fill="#555555" >
</path>
<path d="M29 5C30.1046 5 31 5.89543 31 7L31 19L17 19L17 7C17 5.89543 17.8954 5 19 5L29 5Z"   fill="#555555" >
</path>
<path d="M17 21C16.4509 20.9923 15.9795 20.797 15.5858 20.4142C15.203 20.0205 15.0077 19.5491 15 19L15 7C15 4.79086 16.7909 3 19 3L29 3C31.2091 3 33 4.79086 33 7L33 19C32.9923 19.5491 32.797 20.0205 32.4142 20.4142C32.0205 20.797 31.5491 20.9923 31 21L17 21ZM29 17L29 7L19 7L19 17L29 17Z" fill-rule="evenodd"  fill="#555555" >
</path>
<path d="M20 25C18.8954 25 18 25.8954 18 27L18 36C18 37.1046 18.8954 38 20 38C21.1046 38 22 37.1046 22 36L22 27C22 25.8954 21.1046 25 20 25Z" fill-rule="evenodd"  fill="#FDFDFD" >
</path>
<path d="M28 25C26.8954 25 26 25.8954 26 27L26 36C26 37.1046 26.8954 38 28 38C29.1046 38 30 37.1046 30 36L30 27C30 25.8954 29.1046 25 28 25Z" fill-rule="evenodd"  fill="#FDFDFD" >
</path>
</svg>
