<svg xmlns="http://www.w3.org/2000/svg" xmlns:xlink="http://www.w3.org/1999/xlink" width="48" height="48" viewBox="0 0 48 48" fill="none">
<path d="M37 6L11 6C6.58172 6 3 9.58172 3 14L3 34C3 38.4183 6.58172 42 11 42L37 42C41.4183 42 45 38.4183 45 34L45 14C45 9.58172 41.4183 6 37 6ZM7 14C7 11.7909 8.79086 10 11 10L37 10C39.2091 10 41 11.7909 41 14L41 34C41 36.2091 39.2091 38 37 38L11 38C8.79086 38 7 36.2091 7 34L7 14Z" fill-rule="evenodd"  fill="#787878" >
</path>
<path d="M17 34.0012C17.0001 35.1058 17.8956 36.0011 19.0002 36.001L29.0002 36C30.1048 35.9999 31.0001 35.1044 31 33.9999C30.9999 32.8953 30.1044 31.9999 28.9998 32L18.9998 32.001C17.8952 32.0011 16.9999 32.8967 17 34.0012Z" fill-rule="evenodd"  fill="#424242" >
</path>
</svg>
