<svg xmlns="http://www.w3.org/2000/svg" xmlns:xlink="http://www.w3.org/1999/xlink" width="48" height="48" viewBox="0 0 48 48" fill="none">
<path d="M12 27C12 33.6274 17.3726 39 24 39C30.6274 39 36 33.6274 36 27L36 15C36 8.37258 30.6274 3 24 3C17.3726 3 12 8.37258 12 15L12 27ZM32 27C32 31.4183 28.4183 35 24 35C19.5817 35 16 31.4183 16 27L16 15C16 10.5817 19.5817 7 24 7C28.4183 7 32 10.5817 32 15L32 27Z" fill-rule="evenodd"  fill="#424242" >
</path>
<path d="M6.01659 30.2588C6.00564 30.1741 6 30.0877 6 30C6 28.8954 6.89543 28 8 28C9.03577 28 9.88764 28.7873 9.98974 29.7962C10.0008 29.8876 10.0236 30.0258 10.0584 30.2109C10.1389 30.6396 10.2467 31.0867 10.3817 31.5521C10.8165 33.0508 11.4362 34.4209 12.2408 35.6622C13.3433 37.3633 14.7254 38.6962 16.3871 39.661C18.4985 40.887 21.0361 41.5 24 41.5C26.9639 41.5 29.5015 40.887 31.6129 39.661C33.2746 38.6962 34.6567 37.3633 35.7592 35.6622C36.5637 34.4209 37.1834 33.0508 37.6183 31.5521C37.7533 31.0867 37.8611 30.6396 37.9416 30.2109C37.9764 30.0258 37.9993 29.8875 38.0103 29.7961C38.1124 28.7873 38.9643 28 40 28C41.1046 28 42 28.8954 42 30C42 30.0878 41.9943 30.1743 41.9834 30.2591C41.9615 30.4434 41.9247 30.6734 41.8729 30.9493C41.7685 31.5049 41.6308 32.0773 41.4599 32.6666C40.9155 34.5429 40.1341 36.2666 39.1158 37.8378C37.6663 40.0742 35.8348 41.835 33.6215 43.1202C30.8891 44.7067 27.6819 45.5 24 45.5C20.3181 45.5 17.1109 44.7067 14.3785 43.1202C12.1652 41.835 10.3337 40.0742 8.8842 37.8378C7.86584 36.2666 7.08449 34.5429 6.54014 32.6666C6.36917 32.0773 6.2315 31.5049 6.12715 30.9493C6.07531 30.6733 6.03846 30.4431 6.01659 30.2588Z" fill-rule="evenodd"  fill="#787878" >
</path>
</svg>
