<svg xmlns="http://www.w3.org/2000/svg" xmlns:xlink="http://www.w3.org/1999/xlink" width="48" height="48" viewBox="0 0 48 48" fill="none">
<path d="M9 37C4.58172 37 1 33.4183 1 29L1 13C1 8.58172 4.58172 5 9 5L35 5C39.4183 5 43 8.58172 43 13L43 14L39 14L39 13C39 10.7909 37.2091 9 35 9L9 9C6.79086 9 5 10.7909 5 13L5 29C5 31.2091 6.79086 33 9 33L17 33L17 36C17 36.3405 17.0095 36.6738 17.0283 37L9 37Z" fill-rule="evenodd"  fill="#1764FF" >
</path>
<path d="M17.2777 39.0005C17.5837 40.5439 18.1395 41.8827 18.9285 43.0003L13.0003 43.0009C11.8957 43.001 11.0002 42.1057 11.0001 41.0011C11 39.8965 11.8953 39.001 12.9999 39.0009L17.2777 39.0005Z" fill-rule="evenodd"  fill="#6BA6FF" >
</path>
<path d="M39 18L29 18C24.5817 18 21 21.5817 21 26L21 35C21 39.4183 24.5817 43 29 43L39 43C43.4183 43 47 39.4183 47 35L47 26C47 21.5817 43.4183 18 39 18ZM25 26C25 23.7909 26.7909 22 29 22L39 22C41.2091 22 43 23.7909 43 26L43 35C43 37.2091 41.2091 39 39 39L29 39C26.7909 39 25 37.2091 25 35L25 26Z" fill-rule="evenodd"  fill="#8134ED" >
</path>
<path d="M29 35.0013C29.0002 36.1059 29.8957 37.0012 31.0003 37.001L37.0003 37C38.1049 36.9999 39.0002 36.1043 39 34.9997C38.9998 33.8951 38.1042 32.9999 36.9997 33L30.9997 33.001C29.8951 33.0012 28.9998 33.8968 29 35.0013Z" fill-rule="evenodd"  fill="#9C56F1" >
</path>
</svg>
