<svg xmlns="http://www.w3.org/2000/svg" xmlns:xlink="http://www.w3.org/1999/xlink" width="48" height="48" viewBox="0 0 48 48" fill="none">
<path d="M46.6626 27.591C46.8875 26.4313 47 25.2343 47 24C47 21.2668 46.336 18.9153 45.0081 16.9454C43.7834 15.1289 42.0154 13.6743 39.704 12.5816C37.7208 11.644 35.3087 10.9644 32.4677 10.5428C30.0294 10.1809 27.2068 10 24 10C20.7932 10 17.9706 10.1809 15.5323 10.5428C12.6913 10.9644 10.2792 11.644 8.29597 12.5816C5.98456 13.6743 4.21655 15.1289 2.99194 16.9454C1.66398 18.9153 1 21.2668 1 24C1 25.2268 1.11416 26.4217 1.34248 27.5847C1.58359 28.8128 1.94009 29.9416 2.41198 30.971C2.93367 32.109 3.57626 33.08 4.33974 33.8841C5.20422 34.7945 6.19022 35.4574 7.29774 35.8727C8.60451 36.3627 9.84472 36.6864 11.0184 36.8437C12.1054 36.9894 13.1646 36.996 14.1962 36.8634C15.0498 36.7537 15.9324 36.54 16.8441 36.2221C17.361 36.0418 18.0906 35.7459 19.0327 35.3344C19.5845 35.0933 19.9971 34.918 20.2706 34.8084C20.7036 34.6349 21.0999 34.4941 21.4596 34.3858C22.3141 34.1286 23.1609 34 24.0001 34C24.8393 34 25.6861 34.1286 26.5405 34.3858C26.9002 34.4941 27.2965 34.6349 27.7295 34.8084C28.0029 34.9179 28.4155 35.0933 28.9674 35.3344C29.9095 35.746 30.639 36.0419 31.1559 36.2221C32.0676 36.54 32.9502 36.7537 33.8038 36.8634C34.8353 36.996 35.8946 36.9894 36.9816 36.8437C38.1553 36.6864 39.3955 36.3627 40.7023 35.8727C41.8156 35.4552 42.8047 34.7932 43.6694 33.8869C44.4359 33.0836 45.0794 32.1135 45.5997 30.9765C46.0696 29.9496 46.4239 28.8211 46.6626 27.591ZM41.6914 19.1814C42.5638 20.4755 43 22.0817 43 24C43 24.9781 42.9119 25.9211 42.7358 26.8292C42.5577 27.7469 42.3 28.5745 41.9625 29.312C41.2936 30.7735 40.4054 31.712 39.2977 32.1273C38.2737 32.5114 37.3245 32.762 36.4502 32.8792C35.7102 32.9784 34.998 32.984 34.3137 32.8961C33.7357 32.8218 33.122 32.6714 32.4727 32.4451C32.052 32.2984 31.4174 32.0397 30.5688 31.6689C29.9792 31.4114 29.5286 31.2202 29.217 31.0953C28.6743 30.8778 28.1664 30.6979 27.6935 30.5556C26.4631 30.1852 25.232 30 24.0001 30C22.7682 30 21.5371 30.1852 20.3067 30.5556C19.8338 30.6979 19.3259 30.8778 18.7831 31.0953C18.4714 31.2202 18.0208 31.4114 17.4313 31.6689C16.5826 32.0397 15.948 32.2984 15.5273 32.445C14.878 32.6714 14.2643 32.8217 13.6863 32.896C13.002 32.984 12.2898 32.9784 11.5498 32.8792C10.6755 32.762 9.72627 32.5114 8.70226 32.1273C8.16947 31.9276 7.68218 31.595 7.24037 31.1297C6.78236 30.6474 6.38494 30.0388 6.04812 29.3041C5.70796 28.5621 5.44777 27.7321 5.26756 26.8141C5.08919 25.9056 5 24.9675 5 24C5 22.0817 5.43621 20.4755 6.30863 19.1814C7.1239 17.9721 8.3562 16.9776 10.0056 16.1978C11.6314 15.4292 13.6694 14.8631 16.1194 14.4995C18.3631 14.1665 20.99 14 24 14C27.01 14 29.6369 14.1665 31.8806 14.4995C34.3306 14.8631 36.3685 15.4292 37.9944 16.1978C39.6438 16.9776 40.8761 17.9721 41.6914 19.1814Z" fill-rule="evenodd"  fill="#424242" >
</path>
<path d="M16.2278 21.8635C16.0023 21.9516 15.7568 22 15.5 22C14.3954 22 13.5 21.1046 13.5 20C13.5 19.1198 14.0687 18.3724 14.8586 18.1051C15.807 17.7636 17.2773 17.4869 19.2695 17.275C20.9931 17.0917 22.57 17 24.0001 17C25.3819 17 26.954 17.0946 28.7165 17.2839C30.7224 17.4993 32.1929 17.7715 33.1279 18.1005C33.9249 18.3638 34.5001 19.1148 34.5001 20C34.5001 21.1046 33.6047 22 32.5001 22C32.2484 22 32.0075 21.9535 31.7857 21.8686C31.4937 21.767 31.0477 21.6632 30.4478 21.5573C29.8268 21.4476 29.1074 21.3488 28.2895 21.261C26.6689 21.087 25.2391 21 24.0001 21C22.7114 21 21.2755 21.0842 19.6926 21.2526C18.8833 21.3386 18.1719 21.4367 17.5585 21.5466C16.9663 21.6528 16.5228 21.7584 16.2278 21.8635Z" fill-rule="evenodd"  fill="#787878" >
</path>
</svg>
