<svg xmlns="http://www.w3.org/2000/svg" xmlns:xlink="http://www.w3.org/1999/xlink" width="48" height="48" viewBox="0 0 48 48" fill="none">
<path d="M26 7.5L26 4C26 2.89543 25.1046 2 24 2C22.8954 2 22 2.89543 22 4L22 7.5C22 8.60457 22.8954 9.5 24 9.5C25.1046 9.5 26 8.60457 26 7.5ZM12.3511 7.13215L14.3187 10.0836C14.6748 10.635 15.2948 11 16 11C17.1046 11 18 10.1046 18 9C18 8.57974 17.8704 8.18976 17.6489 7.86785L15.6813 4.91641C15.3252 4.36501 14.7052 4 14 4C12.8954 4 12 4.89543 12 6C12 6.42026 12.1296 6.81024 12.3511 7.13215ZM34 4C33.2948 4 32.6748 4.36501 32.3187 4.91641L30.3511 7.86785C30.1296 8.18976 30 8.57974 30 9C30 10.1046 30.8954 11 32 11C32.7052 11 33.3252 10.635 33.6813 10.0836L35.6489 7.13215C35.8704 6.81024 36 6.42026 36 6C36 4.89543 35.1046 4 34 4ZM33 13C36.3137 13 39 15.6863 39 19L39 21.5969C39 22.2781 38.8873 22.9401 38.6618 23.5829C38.4363 24.2257 38.1107 24.8131 37.6852 25.345L35 28.7016L35 40C35 43.3137 32.3137 46 29 46L19 46C15.6863 46 13 43.3137 13 40L13 28.7016L10.3148 25.345C9.88924 24.8131 9.56372 24.2257 9.33823 23.5829C9.11274 22.9401 9 22.2781 9 21.5969L9 19C9 15.6863 11.6863 13 15 13L33 13ZM15 17C13.8954 17 13 17.8954 13 19L13 21.5969C13 22.0646 13.1461 22.481 13.4383 22.8463L16.1235 26.2028C16.4072 26.5574 16.6242 26.949 16.7745 27.3775C16.9248 27.806 17 28.2474 17 28.7016L17 40C17 41.1046 17.8954 42 19 42L29 42C30.1046 42 31 41.1046 31 40L31 28.7016C31 28.2474 31.0752 27.806 31.2255 27.3775C31.3758 26.949 31.5928 26.5574 31.8765 26.2028L34.5617 22.8463C34.8539 22.481 35 22.0646 35 21.5969L35 19C35 17.8954 34.1046 17 33 17L15 17ZM24 24C25.1046 24 26 24.8954 26 26L26 32C26 33.1046 25.1046 34 24 34C22.8954 34 22 33.1046 22 32L22 26C22 24.8954 22.8954 24 24 24Z" fill-rule="evenodd"  fill="#000000" >
</path>
</svg>
