<svg xmlns="http://www.w3.org/2000/svg" xmlns:xlink="http://www.w3.org/1999/xlink" width="48" height="48" viewBox="0 0 48 48" fill="none">
<path d="M34 26L15 26C11.6863 26 9 28.6863 9 32L9 38C9 42.4183 12.5817 46 17 46L32 46C36.4183 46 40 42.4183 40 38L40 32C40 28.6863 37.3137 26 34 26ZM13 32C13 30.8954 13.8954 30 15 30L34 30C35.1046 30 36 30.8954 36 32L36 38C36 40.2091 34.2091 42 32 42L17 42C14.7909 42 13 40.2091 13 38L13 32Z" fill-rule="evenodd"  fill="#424242" >
</path>
<path d="M29 2L19 2C14.5817 2 11 5.58172 11 10L11 12L10 12C5.58172 12 2 15.5817 2 20L2 31C2 35.4183 5.58172 39 10 39L11.083 39C11.0284 38.6748 11 38.3407 11 38L11 35L10 35C7.79086 35 6 33.2091 6 31L6 20C6 17.7909 7.79086 16 10 16L38 16C40.2091 16 42 17.7909 42 20L42 31C42 33.2091 40.2091 35 38 35L38 38C38 38.3407 37.9716 38.6748 37.917 39L38 39C42.4183 39 46 35.4183 46 31L46 20C46 15.5817 42.4183 12 38 12L37 12L37 10C37 5.58172 33.4183 2 29 2ZM33 12L15 12L15 10C15 7.79086 16.7909 6 19 6L29 6C31.2091 6 33 7.79086 33 10L33 12ZM31.0004 23.0008C29.8958 23.001 29.0002 22.1058 29 21.0012C28.9998 19.8966 29.895 19.001 30.9996 19.0008L36.9996 18.9996C38.1042 18.9994 38.9998 19.8946 39 20.9992C39.0002 22.1038 38.105 22.9994 37.0004 22.9996L31.0004 23.0008Z" fill-rule="evenodd"  fill="#787878" >
</path>
</svg>
