<svg xmlns="http://www.w3.org/2000/svg" xmlns:xlink="http://www.w3.org/1999/xlink" width="48" height="48" viewBox="0 0 48 48" fill="none">
<path d="M35 5L9 5C4.58172 5 1 8.58172 1 13L1 29C1 33.4183 4.58172 37 9 37L20.1607 37C20.0541 36.1579 20 35.2673 20 34.33L20 17C20 12.58 23.58 9 28 9L41.9297 9C40.5465 6.60879 37.9611 5 35 5Z" fill-rule="evenodd"  fill="#1764FF" >
</path>
<path d="M20.535 39.0008C20.9271 40.5456 21.5306 41.884 22.3325 43.0006L18.0002 43.001C16.8956 43.0011 16.0001 42.1058 16 41.0012C15.9999 39.8967 16.8952 39.0011 17.9998 39.001L20.535 39.0008Z" fill-rule="evenodd"  fill="#6BA6FF" >
</path>
<path   fill-rule="evenodd"  fill="#2CB197"  d="M31 43C27.6863 43 25 40.3137 25 37L25 19C25 15.6863 27.6863 13 31 13L41 13C44.3137 13 47 15.6863 47 19L47 37C47 40.3137 44.3137 43 41 43L31 43Z">
</path>
<path d="M31 35.0012C31.0002 36.1058 31.8957 37.0011 33.0003 37.0009L39.0003 36.9999C40.1049 36.9997 41.0002 36.1042 41 34.9996C40.9998 33.895 40.1042 32.9997 38.9997 32.9999L32.9997 33.0009C31.8951 33.0011 30.9998 33.8967 31 35.0012Z" fill-rule="evenodd"  fill="#E8FFF7" >
</path>
</svg>
