<svg xmlns="http://www.w3.org/2000/svg" xmlns:xlink="http://www.w3.org/1999/xlink" width="48" height="48" viewBox="0 0 48 48" fill="none">
<path d="M13.9999 25C15.1044 25.0001 15.9999 24.1047 16 23.0001L16.001 7.00012C16.001 5.89552 15.1057 5.00007 14.0011 5C12.8965 4.99993 12.001 5.89528 12.001 6.99988L12 22.9999C11.9999 24.1044 12.8953 24.9999 13.9999 25Z" fill-rule="evenodd"  fill="#6BA6FF" >
</path>
<path d="M33.9999 25C35.1044 25.0001 35.9999 24.1047 36 23.0001L36.001 7.00012C36.001 5.89552 35.1057 5.00007 34.0011 5C32.8965 4.99993 32.001 5.89528 32.001 6.99988L32 22.9999C31.9999 24.1044 32.8953 24.9999 33.9999 25Z" fill-rule="evenodd"  fill="#6BA6FF" >
</path>
<path d="M38 21L10 21C5.58172 21 2 24.5817 2 29L2 33C2 37.4183 5.58172 41 10 41L38 41C42.4183 41 46 37.4183 46 33L46 29C46 24.5817 42.4183 21 38 21ZM6 29C6 26.7909 7.79086 25 10 25L38 25C40.2091 25 42 26.7909 42 29L42 33C42 35.2091 40.2091 37 38 37L10 37C7.79086 37 6 35.2091 6 33L6 29Z" fill-rule="evenodd"  fill="#1764FF" >
</path>
<path d="M28 31.0013C28.0002 32.1059 28.8958 33.0012 30.0003 33.001L36.0003 33C37.1049 32.9999 38.0002 32.1043 38 30.9997C37.9998 29.8951 37.1043 28.9999 35.9997 29L29.9997 29.001C28.8951 29.0012 27.9998 29.8968 28 31.0013Z" fill-rule="evenodd"  fill="#4187FF" >
</path>
</svg>
