<svg xmlns="http://www.w3.org/2000/svg" xmlns:xlink="http://www.w3.org/1999/xlink" width="48" height="48" viewBox="0 0 48 48" fill="none">
<path   fill-rule="evenodd"  fill="#2A2A2A"  d="M10 37L10 37C6.69 37 4 34.31 4 31L4 20C4 16.69 6.69 14 10 14L38 14C41.31 14 44 16.69 44 20L44 31C44 32.5491 43.4108 33.9624 42.4447 35.0277C40.5895 37.0732 38 34.7614 38 32L38 32C38 29.7909 36.2091 28 34 28L15 28C12.7909 28 11 29.7909 11 32L11 36C11 36.5523 10.5523 37 10 37Z">
</path>
<path d="M10 39C5.58172 39 2 35.4183 2 31L2 20C2 15.5817 5.58172 12 10 12L38 12C42.4183 12 46 15.5817 46 20L46 31C46 35.4183 42.4183 39 38 39L37.917 39C37.9716 38.6748 38 38.3407 38 38L38 35C40.2091 35 42 33.2091 42 31L42 20C42 17.7909 40.2091 16 38 16L10 16C7.79086 16 6 17.7909 6 20L6 31C6 33.2091 7.79086 35 10 35L11 35L11 38C11 38.3407 11.0284 38.6748 11.083 39L10 39Z" fill-rule="evenodd"  fill="#555555" >
</path>
<path d="M34 26L15 26C11.6863 26 9 28.6863 9 32L9 38C9 42.4183 12.5817 46 17 46L32 46C36.4183 46 40 42.4183 40 38L40 32C40 28.6863 37.3137 26 34 26ZM13 32C13 30.8954 13.8954 30 15 30L34 30C35.1046 30 36 30.8954 36 32L36 38C36 40.2091 34.2091 42 32 42L17 42C14.7909 42 13 40.2091 13 38L13 32Z" fill-rule="evenodd"  fill="#555555" >
</path>
<path d="M29 21.0013C29.0001 22.1059 29.8957 23.0012 31.0003 23.001L37.0003 23C38.1049 22.9999 39.0001 22.1043 39 20.9997C38.9998 19.8951 38.1042 18.9999 36.9996 19L30.9996 19.001C29.8951 19.0012 28.9998 19.8968 29 21.0013Z" fill-rule="evenodd"  fill="#FFFFFF" >
</path>
<path d="M29 2L19 2C15.2723 2 12.1401 4.54954 11.252 8L36.748 8C35.8599 4.54954 32.7277 2 29 2ZM37 12L11 12L11 14C11 15.1046 11.8954 16 13 16L35 16C36.1046 16 37 15.1046 37 14L37 12Z" fill-rule="evenodd"  fill="#555555" >
</path>
</svg>
