<svg xmlns="http://www.w3.org/2000/svg" xmlns:xlink="http://www.w3.org/1999/xlink" width="48" height="48" viewBox="0 0 48 48" fill="none">
<path d="M21 1L27 1C30.3137 1 33 3.68629 33 7L33 10.3414C32.3744 10.1203 31.7013 10 31 10L29 10L29 7C29 5.89543 28.1046 5 27 5L21 5C19.8954 5 19 5.89543 19 7L19 10L17 10C16.2987 10 15.6256 10.1203 15 10.3414L15 7C15 3.68629 17.6863 1 21 1ZM15 37.6586L15 41C15 44.3137 17.6863 47 21 47L27 47C30.3137 47 33 44.3137 33 41L33 37.6586C32.3744 37.8797 31.7013 38 31 38L29 38L29 41C29 42.1046 28.1046 43 27 43L21 43C19.8954 43 19 42.1046 19 41L19 38L17 38C16.2987 38 15.6256 37.8797 15 37.6586Z" fill-rule="evenodd"  fill="#787878" >
</path>
<path d="M31 8L17 8C12.5817 8 9 11.5817 9 16L9 32C9 36.4183 12.5817 40 17 40L31 40C35.4183 40 39 36.4183 39 32L39 16C39 11.5817 35.4183 8 31 8ZM13 16C13 13.7909 14.7909 12 17 12L31 12C33.2091 12 35 13.7909 35 16L35 32C35 34.2091 33.2091 36 31 36L17 36C14.7909 36 13 34.2091 13 32L13 16Z" fill-rule="evenodd"  fill="#424242" >
</path>
</svg>
