<svg xmlns="http://www.w3.org/2000/svg" xmlns:xlink="http://www.w3.org/1999/xlink" width="48" height="48" viewBox="0 0 48 48" fill="none">
<path d="M35 5C37.9626 5 40.5478 6.60836 41.9306 9L9 9C6.79 9 5 10.79 5 13L5 29C5 31.21 6.79 33 9 33L20 33L20 34.33C20 35.2673 20.0541 36.1579 20.1607 37L9 37C4.58 37 1 33.42 1 29L1 13C1 8.58 4.58 5 9 5L35 5ZM47 19L47 37C47 40.31 44.31 43 41 43L31 43C27.69 43 25 40.31 25 37L25 19C25 15.69 27.69 13 31 13L41 13C44.31 13 47 15.69 47 19ZM31 17L41 17C42.1 17 43 17.9 43 19L43 37C43 38.1 42.1 39 41 39L31 39C29.9 39 29 38.1 29 37L29 19C29 17.9 29.9 17 31 17ZM39.0005 36.9997L33.0005 37.0009C31.9005 37.0011 31.0003 36.1013 31.0001 35.0013C30.9999 33.9013 31.8997 33.0011 32.9997 33.0009L38.9997 32.9997C40.0997 32.9995 40.9999 33.8993 41.0001 34.9993C41.0003 36.0993 40.1005 36.9995 39.0005 36.9997ZM22.3325 43.0006C21.5307 41.884 20.9271 40.5456 20.5351 39.0007L17.9998 39.001C16.8998 39.0011 15.9999 39.9012 16 41.0012C16.0001 42.1012 16.9002 43.0011 18.0002 43.001L22.3325 43.0006Z" fill-rule="evenodd"  fill="#000000" >
</path>
</svg>
