<svg xmlns="http://www.w3.org/2000/svg" xmlns:xlink="http://www.w3.org/1999/xlink" width="48" height="48" viewBox="0 0 48 48" fill="none">
<path d="M8 26C6.77276 26 5.61006 26.2763 4.57073 26.7702L7.92247 8.89427C8.05354 8.19521 8.30033 7.54114 8.66282 6.93205C9.01513 6.34006 9.45682 5.82369 9.98789 5.38294C10.519 4.94219 11.1079 4.60323 11.7547 4.36605C12.4201 4.12202 13.1085 4 13.8197 4L34.6115 4C35.3337 4 36.0319 4.12565 36.7062 4.37696C37.361 4.62101 37.9555 4.96932 38.4897 5.42188C39.024 5.87444 39.4653 6.40361 39.8137 7.00938C40.1724 7.63315 40.4112 8.30123 40.5299 9.01361L43.4945 26.8016C42.4387 26.2881 41.253 26 40 26L8 26ZM4 38L4 34C4 31.7909 5.79086 30 8 30L40 30C42.2091 30 44 31.7909 44 34L44 38C44 41.3137 41.3137 44 38 44L10 44C6.68629 44 4 41.3137 4 38ZM34 39.5C35.3807 39.5 36.5 38.3807 36.5 37C36.5 35.6193 35.3807 34.5 34 34.5C32.6193 34.5 31.5 35.6193 31.5 37C31.5 38.3807 32.6193 39.5 34 39.5Z" fill-rule="evenodd"  fill="#000000" >
</path>
</svg>
