<svg xmlns="http://www.w3.org/2000/svg" xmlns:xlink="http://www.w3.org/1999/xlink" width="48" height="48" viewBox="0 0 48 48" fill="none">
<path d="M31 2L17 2C12.5817 2 9 5.58172 9 10L9 38C9 42.4183 12.5817 46 17 46L31 46C35.4183 46 39 42.4183 39 38L39 10C39 5.58172 35.4183 2 31 2ZM13 10C13 7.79086 14.7909 6 17 6L31 6C33.2091 6 35 7.79086 35 10L35 38C35 40.2091 33.2091 42 31 42L17 42C14.7909 42 13 40.2091 13 38L13 10Z" fill-rule="evenodd"  fill="#FF766C" >
</path>
<path d="M31 31.5C31 35.366 27.866 38.5 24 38.5C20.134 38.5 17 35.366 17 31.5C17 27.634 20.134 24.5 24 24.5C27.866 24.5 31 27.634 31 31.5Z"   fill="#FFC7BF" >
</path>
<path d="M24 40.5C28.9706 40.5 33 36.4706 33 31.5C33 26.5294 28.9706 22.5 24 22.5C19.0294 22.5 15 26.5294 15 31.5C15 36.4706 19.0294 40.5 24 40.5ZM24 26.5C26.7614 26.5 29 28.7386 29 31.5C29 34.2614 26.7614 36.5 24 36.5C21.2386 36.5 19 34.2614 19 31.5C19 28.7386 21.2386 26.5 24 26.5Z" fill-rule="evenodd"  fill="#FF1A1A" >
</path>
<path d="M28 13.5C28 15.7091 26.2091 17.5 24 17.5C21.7909 17.5 20 15.7091 20 13.5C20 11.2909 21.7909 9.5 24 9.5C26.2091 9.5 28 11.2909 28 13.5Z"   fill="#FFC7BF" >
</path>
<path d="M24 19.5C27.3137 19.5 30 16.8137 30 13.5C30 10.1863 27.3137 7.5 24 7.5C20.6863 7.5 18 10.1863 18 13.5C18 16.8137 20.6863 19.5 24 19.5ZM24 11.5C25.1046 11.5 26 12.3954 26 13.5C26 14.6046 25.1046 15.5 24 15.5C22.8954 15.5 22 14.6046 22 13.5C22 12.3954 22.8954 11.5 24 11.5Z" fill-rule="evenodd"  fill="#FF1A1A" >
</path>
</svg>
