<svg xmlns="http://www.w3.org/2000/svg" xmlns:xlink="http://www.w3.org/1999/xlink" width="48" height="48" viewBox="0 0 48 48" fill="none">
<path d="M3 24L3 39L7 39L7 24C7 14.6112 14.6112 7 24 7C33.3888 7 41 14.6112 41 24L41 39L45 39L45 24C45 12.402 35.598 3 24 3C12.402 3 3 12.402 3 24Z" fill-rule="evenodd"  fill="#787878" >
</path>
<path d="M3 26L3 39C3 42.3137 5.68629 45 9 45L11 45C15.4183 45 19 41.4183 19 37L19 32C19 27.5817 15.4183 24 11 24L3 24L3 26ZM7 28L7 39C7 40.1046 7.89543 41 9 41L11 41C13.2091 41 15 39.2091 15 37L15 32C15 29.7909 13.2091 28 11 28L7 28Z" fill-rule="evenodd"  fill="#424242" >
</path>
<path d="M29 32L29 37C29 41.4183 32.5817 45 37 45L39 45C42.3137 45 45 42.3137 45 39L45 24L37 24C32.5817 24 29 27.5817 29 32ZM41 28L37 28C34.7909 28 33 29.7909 33 32L33 37C33 39.2091 34.7909 41 37 41L39 41C40.1046 41 41 40.1046 41 39L41 28Z" fill-rule="evenodd"  fill="#424242" >
</path>
</svg>
