<svg xmlns="http://www.w3.org/2000/svg" xmlns:xlink="http://www.w3.org/1999/xlink" width="48" height="48" viewBox="0 0 48 48" fill="none">
<path d="M26 4L26 7.5C26 8.60457 25.1046 9.5 24 9.5C22.8954 9.5 22 8.60457 22 7.5L22 4C22 2.89543 22.8954 2 24 2C25.1046 2 26 2.89543 26 4ZM14.3187 10.0836L12.3511 7.13215C12.1296 6.81024 12 6.42026 12 6C12 4.89543 12.8954 4 14 4C14.7052 4 15.3252 4.36501 15.6813 4.91641L17.6489 7.86785C17.8704 8.18976 18 8.57974 18 9C18 10.1046 17.1046 11 16 11C15.2948 11 14.6748 10.635 14.3187 10.0836ZM32.3187 4.91641C32.6748 4.36501 33.2948 4 34 4C35.1046 4 36 4.89543 36 6C36 6.42026 35.8704 6.81024 35.6489 7.13215L33.6813 10.0836C33.3252 10.635 32.7052 11 32 11C30.8954 11 30 10.1046 30 9C30 8.57974 30.1296 8.18976 30.3511 7.86785L32.3187 4.91641ZM39 19C39 15.6863 36.3137 13 33 13L15 13C11.6863 13 9 15.6863 9 19L9 21.5969C9 22.2781 9.11274 22.9401 9.33823 23.5829C9.56372 24.2257 9.88924 24.8131 10.3148 25.345L13 28.7016L13 40C13 43.3137 15.6863 46 19 46L29 46C32.3137 46 35 43.3137 35 40L35 28.7016L37.6852 25.345C38.1107 24.8131 38.4363 24.2257 38.6618 23.5829C38.8873 22.9401 39 22.2781 39 21.5969L39 19ZM24 24C25.1046 24 26 24.8954 26 26L26 32C26 33.1046 25.1046 34 24 34C22.8954 34 22 33.1046 22 32L22 26C22 24.8954 22.8954 24 24 24Z" fill-rule="evenodd"  fill="#000000" >
</path>
</svg>
