<svg xmlns="http://www.w3.org/2000/svg" xmlns:xlink="http://www.w3.org/1999/xlink" width="48" height="48" viewBox="0 0 48 48" fill="none">
<path d="M8.5 31C8.22386 31 8 31.2239 8 31.5C8 31.7761 8.22386 32 8.5 32L39.5 32C39.7761 32 40 31.7761 40 31.5C40 31.2239 39.7761 31 39.5 31L8.5 31Z"   fill="#FFFFFF" >
</path>
<path d="M36.4118 6L11.5882 6C9.05422 6 7 8.05422 7 10.5882L7 29.4995C7.16157 29.3781 7.33699 29.2773 7.52627 29.1973C7.83723 29.0658 8.1618 29 8.5 29L39.5 29C40.0628 29 40.5822 29.186 41 29.4998L41 10.5882C41 8.05422 38.9458 6 36.4118 6Z" fill-rule="evenodd"  fill="#FF1A1A" >
</path>
<path d="M44 40.5L40 33.5L8 33.5L4 40.5L44 40.5Z"   fill="#FF1A1A" >
</path>
<path d="M6.26349 32.5077L3.97337 36.5154C2.44958 39.1821 4.37505 42.5 7.44634 42.5L40.5536 42.5C43.6249 42.5 45.5504 39.1821 44.0266 36.5154L41.7365 32.5077C41.5573 32.1973 41.3131 31.9515 41.0039 31.7702C40.6931 31.5916 40.3584 31.5016 40 31.5L7.99998 31.5C7.64155 31.5016 7.30693 31.5916 6.99613 31.7702C6.6869 31.9514 6.44269 32.1973 6.26349 32.5077ZM9.16063 35.5L7.44634 38.5L40.5536 38.5L38.8394 35.5L9.16063 35.5Z" fill-rule="evenodd"  fill="#FF1A1A" >
</path>
</svg>
