<svg xmlns="http://www.w3.org/2000/svg" xmlns:xlink="http://www.w3.org/1999/xlink" width="48" height="48" viewBox="0 0 48 48" fill="none">
<path d="M18.2442 36.0414C18.5838 35.4208 19.2427 35 20 35C21.1046 35 22 35.8954 22 37C22 37.3737 21.8975 37.7235 21.7191 38.0228L19.4464 42L28.5536 42L26.2809 38.0228C26.1025 37.7235 26 37.3737 26 37C26 35.8954 26.8954 35 28 35C28.7573 35 29.4162 35.4208 29.7557 36.0414L33.7365 43.0077C34.09 43.6743 34.0878 44.3397 33.7298 45.0038C33.3308 45.6442 32.7542 45.9763 32 46L16 46C15.2458 45.9763 14.6692 45.6442 14.2702 45.0038C13.9122 44.3397 13.91 43.6743 14.2635 43.0077L18.2442 36.0414Z" fill-rule="evenodd"  fill="#787878" >
</path>
<path d="M38 4L10 4C5.58172 4 2 7.58172 2 12L2 31C2 35.4183 5.58172 39 10 39L38 39C42.4183 39 46 35.4183 46 31L46 12C46 7.58172 42.4183 4 38 4ZM6 12C6 9.79086 7.79086 8 10 8L38 8C40.2091 8 42 9.79086 42 12L42 31C42 33.2091 40.2091 35 38 35L10 35C7.79086 35 6 33.2091 6 31L6 12Z" fill-rule="evenodd"  fill="#424242" >
</path>
</svg>
