<svg xmlns="http://www.w3.org/2000/svg" xmlns:xlink="http://www.w3.org/1999/xlink" width="48" height="48" viewBox="0 0 48 48" fill="none">
<path d="M13.9999 25.0001C15.1044 25.0002 15.9999 24.1048 16 23.0002L16.001 7.00024C16.001 5.89564 15.1057 5.00019 14.0011 5.00012C12.8965 5.00006 12.001 5.8954 12.001 7L12 23C11.9999 24.1046 12.8953 25.0001 13.9999 25.0001Z" fill-rule="evenodd"  fill="#787878" >
</path>
<path d="M33.9999 25.0001C35.1044 25.0002 35.9999 24.1048 36 23.0002L36.001 7.00024C36.001 5.89564 35.1057 5.00019 34.0011 5.00012C32.8965 5.00006 32.001 5.8954 32.001 7L32 23C31.9999 24.1046 32.8953 25.0001 33.9999 25.0001Z" fill-rule="evenodd"  fill="#787878" >
</path>
<path d="M38 21L10 21C5.58172 21 2 24.5817 2 29L2 33C2 37.4183 5.58172 41 10 41L38 41C42.4183 41 46 37.4183 46 33L46 29C46 24.5817 42.4183 21 38 21ZM6 29C6 26.7909 7.79086 25 10 25L38 25C40.2091 25 42 26.7909 42 29L42 33C42 35.2091 40.2091 37 38 37L10 37C7.79086 37 6 35.2091 6 33L6 29Z" fill-rule="evenodd"  fill="#424242" >
</path>
<path d="M28 31.0012C28.0002 32.1058 28.8958 33.0011 30.0003 33.0009L36.0003 32.9999C37.1049 32.9997 38.0002 32.1042 38 30.9996C37.9998 29.895 37.1043 28.9997 35.9997 28.9999L29.9997 29.0009C28.8951 29.0011 27.9998 29.8967 28 31.0012Z" fill-rule="evenodd"  fill="#787878" >
</path>
</svg>
