<svg xmlns="http://www.w3.org/2000/svg" xmlns:xlink="http://www.w3.org/1999/xlink" width="48" height="48" viewBox="0 0 48 48" fill="none">
<path d="M20 5C20 5.15592 19.9822 5.30767 19.9484 5.45332L11.965 43.3746C11.7896 44.3001 10.9765 45 10 45C8.89543 45 8 44.1046 8 43C8 42.8441 8.01784 42.6923 8.0516 42.5467L16.0351 4.62537C16.2104 3.69986 17.0235 3 18 3C19.1046 3 20 3.89543 20 5Z" fill-rule="evenodd"  fill="#424242" >
</path>
<path d="M40 5C40 5.15592 39.9822 5.30767 39.9484 5.45332L31.965 43.3746C31.7896 44.3001 30.9765 45 30 45C28.8954 45 28 44.1046 28 43C28 42.8441 28.0178 42.6923 28.0516 42.5467L36.0351 4.62537C36.2104 3.69986 37.0235 3 38 3C39.1046 3 40 3.89543 40 5Z" fill-rule="evenodd"  fill="#787878" >
</path>
<path d="M5 31.8943L39.9999 31.8945C41.1045 31.8945 41.9999 31.0463 41.9999 30.0001C41.9999 28.9538 41.1045 28.1057 40 28.1057L5.00001 28.1055L5 28.1055C3.89543 28.1055 3 28.9536 3 29.9999C3 31.0461 3.89542 31.8943 4.99999 31.8943L5 31.8943Z" fill-rule="evenodd"  fill="#424242" >
</path>
<path d="M44.0001 15.1055L8 15.1056C6.89543 15.1056 6 15.9538 6 17C6 18.0463 6.89543 18.8944 8 18.8944L8.00001 18.8944L44.0001 18.8943C45.1047 18.8943 46.0001 18.0461 46.0001 16.9999C46.0001 15.9536 45.1047 15.1055 44.0001 15.1055Z" fill-rule="evenodd"  fill="#787878" >
</path>
</svg>
