<svg xmlns="http://www.w3.org/2000/svg" xmlns:xlink="http://www.w3.org/1999/xlink" width="48" height="48" viewBox="0 0 48 48" fill="none">
<path d="M46.0999 21.99C46.0999 26.26 44.8499 30.03 42.3499 33.31L44.8299 35.9C46.6399 37.81 45.2899 40.97 42.6599 40.97L31.3312 40.97C33.3249 38.1417 34.4999 34.706 34.4999 31C34.4999 21.24 26.5899 13.5 16.8299 13.5C14.1247 13.5 11.5498 14.1148 9.2442 15.2123C11.9787 8.05842 18.9201 3 27.0499 3C37.5399 3 46.0999 11.5 46.0999 21.99ZM2.16992 31C2.16992 34.1 3.03992 36.87 4.78992 39.29L3.69992 40.42C1.87992 42.34 3.22992 45.5 5.85992 45.5L16.8299 45.5C24.8399 45.5 31.4999 39.01 31.4999 31C31.4999 22.9 24.9299 16.5 16.8299 16.5C8.81992 16.5 2.16992 22.99 2.16992 31Z" fill-rule="evenodd"  fill="#000000" >
</path>
</svg>
