<svg xmlns="http://www.w3.org/2000/svg" xmlns:xlink="http://www.w3.org/1999/xlink" width="48" height="48" viewBox="0 0 48 48" fill="none">
<path d="M27.0496 5C36.4696 5 44.0996 12.6 44.0996 21.99C44.0996 26.38 42.4296 30.39 39.6696 33.4L43.3796 37.28C43.9896 37.92 43.5396 38.97 42.6596 38.97L27.0496 38.97C17.6296 38.97 9.99961 31.37 9.99961 21.99C9.99961 12.6 17.6296 5 27.0496 5Z"   fill="#BEDCFF" >
</path>
<path d="M42.3537 33.3111C44.8529 30.0186 46.1025 26.2433 46.1025 21.9854C46.1025 11.5 37.5366 3 27.0513 3C16.5296 3 7.99998 11.4636 7.99998 21.9854C7.99998 32.4707 16.566 40.9707 27.0513 40.9707L42.6595 40.9707C45.3003 40.9707 46.6528 37.8052 44.8274 35.8969L42.3537 33.3111ZM38.2476 34.8053C37.9154 34.467 37.7025 34.011 37.6772 33.5057C37.6755 33.472 37.6747 33.4381 37.6747 33.404L37.6747 33.4038C37.6747 32.8754 37.8796 32.3949 38.2142 32.0373C40.8064 29.1869 42.1025 25.8363 42.1025 21.9854C42.1025 13.7092 35.3274 7 27.0513 7C18.7387 7 12 13.6728 12 21.9854C12 30.2615 18.7751 36.9707 27.0513 36.9707L40.3191 36.9707L38.2476 34.8053Z" fill-rule="evenodd"  fill="#6BA6FF" >
</path>
<path d="M16.8299 18.5C9.83992 18.5 4.16992 24.1 4.16992 31C4.16992 34.24 5.40992 37.18 7.45992 39.4L5.13992 41.81C4.52992 42.45 4.97992 43.5 5.85992 43.5L16.8299 43.5C23.8299 43.5 29.4999 37.9 29.4999 31C29.4999 24.1 23.8299 18.5 16.8299 18.5Z"   fill="#BEDCFF" >
</path>
<path d="M4.78559 39.2897C3.03986 36.8613 2.16699 34.0981 2.16699 31C2.16699 22.9919 8.82553 16.5 16.8336 16.5C24.9338 16.5 31.5003 22.8998 31.5003 31C31.5003 39.0081 24.8418 45.5 16.8336 45.5L5.85599 45.5C3.20858 45.5 1.85895 42.3207 3.6979 40.4162L4.78559 39.2897ZM8.87931 40.8086C9.21375 40.47 9.4282 40.0126 9.4537 39.5054C9.4554 39.4716 9.45626 39.4375 9.45627 39.4033L9.45627 39.4031C9.45627 38.8728 9.24986 38.3907 8.91301 38.0328C7.08233 36.0373 6.16699 33.6931 6.16699 31C6.16699 25.201 11.0347 20.5 16.8336 20.5C22.7247 20.5 27.5003 25.109 27.5003 31C27.5003 36.799 22.6326 41.5 16.8336 41.5L8.21174 41.5L8.87931 40.8086Z" fill-rule="evenodd"  fill="#1764FF" >
</path>
</svg>
