<svg xmlns="http://www.w3.org/2000/svg" xmlns:xlink="http://www.w3.org/1999/xlink" width="48" height="48" viewBox="0 0 48 48" fill="none">
<path d="M16.9567 4.62749C17.1313 3.70093 17.9448 3 18.9221 3C20.0267 3 20.9221 3.89543 20.9221 5C20.9221 5.15508 20.9045 5.30604 20.8711 5.45098L19.2918 12.9958L33.5977 12.9958L35.3493 4.62751C35.5239 3.70094 36.3374 3 37.3147 3C38.4193 3 39.3147 3.89543 39.3147 5C39.3147 5.15508 39.2971 5.30604 39.2637 5.45098L37.6844 12.9958L42 12.9958C43.1046 12.9958 44 13.8912 44 14.9958C44 16.1004 43.1046 16.9958 42 16.9958L36.8471 16.9958L34.032 30.4443L39.5371 30.4443C40.6417 30.4443 41.5371 31.3397 41.5371 32.4443C41.5371 33.5489 40.6417 34.4443 39.5371 34.4443L33.1947 34.4443L31.3258 43.3725C31.1512 44.2991 30.3377 45 29.3604 45C28.2558 45 27.3604 44.1046 27.3604 43C27.3604 42.8449 27.378 42.6939 27.4115 42.549L29.108 34.4443L14.8021 34.4443L12.9332 43.3725C12.7586 44.2991 11.9451 45 10.9678 45C9.86323 45 8.9678 44.1046 8.9678 43C8.9678 42.8449 8.98545 42.6939 9.01886 42.549L10.7154 34.4443L6 34.4443C4.89543 34.4443 4 33.5489 4 32.4443C4 31.3397 4.89543 30.4443 6 30.4443L11.5527 30.4443L14.3678 16.9958L8.4629 16.9958C7.35833 16.9958 6.4629 16.1004 6.4629 14.9958C6.4629 13.8912 7.35833 12.9958 8.4629 12.9958L15.2051 12.9958L16.9567 4.62749ZM18.4545 16.9958L15.6394 30.4443L29.9453 30.4443L32.7604 16.9958L18.4545 16.9958Z" fill-rule="evenodd"  fill="#000000" >
</path>
</svg>
