<svg xmlns="http://www.w3.org/2000/svg" xmlns:xlink="http://www.w3.org/1999/xlink" width="48" height="48" viewBox="0 0 48 48" fill="none">
<path d="M38.7499 9.00004C36.7899 7.04004 34.5299 5.53004 31.9799 4.46004C29.3499 3.35004 26.5799 2.79004 23.6999 2.79004C20.8199 2.79004 18.0599 3.35004 15.4199 4.46004C12.8799 5.53004 10.6199 7.04004 8.65992 9.00004C6.68992 10.96 5.16992 13.2 4.09992 15.74C2.97992 18.37 2.41992 21.12 2.41992 24C2.41992 26.87 2.97992 29.63 4.09992 32.25C5.16992 34.79 6.68992 37.04 8.65992 38.99C10.6199 40.95 12.8799 42.46 15.4199 43.53C18.0599 44.64 20.8199 45.2 23.6999 45.2L36.9799 45.2C38.0299 45.2 38.9799 44.91 39.8299 44.32C40.6099 43.77 41.1999 43.06 41.5799 42.17C41.9599 41.28 42.0699 40.36 41.9299 39.42C41.7699 38.43 41.3499 37.57 40.6599 36.82C41.8399 35.28 42.7899 33.6 43.5099 31.78C44.4999 29.29 44.9899 26.7 44.9899 24C44.9899 21.12 44.4299 18.37 43.3099 15.74C42.2399 13.2 40.7099 10.96 38.7499 9.00004ZM35.9299 11.83C34.3299 10.24 32.4999 9.01004 30.4299 8.14004C28.2899 7.24004 26.0499 6.79004 23.6999 6.79004C21.3599 6.79004 19.1099 7.24004 16.9799 8.14004C14.9099 9.01004 13.0799 10.24 11.4799 11.83C9.88992 13.42 8.64992 15.25 7.77992 17.3C6.86992 19.43 6.41992 21.67 6.41992 24C6.41992 26.33 6.86992 28.56 7.77992 30.69C8.64992 32.75 9.88992 34.57 11.4799 36.16C13.0799 37.75 14.9099 38.98 16.9799 39.85C19.1099 40.75 21.3599 41.2 23.6999 41.2L36.9799 41.2C37.1999 41.2 37.3899 41.14 37.5499 41.03C37.6999 40.93 37.8199 40.78 37.8999 40.59C37.9799 40.41 37.9999 40.22 37.9699 40.04C37.9399 39.84 37.8499 39.67 37.7099 39.51L35.2399 36.94L36.4299 35.64C36.4699 35.59 36.5199 35.54 36.5599 35.49L36.5699 35.49C37.9599 33.95 39.0299 32.22 39.7899 30.3C40.5899 28.29 40.9899 26.19 40.9899 24C40.9899 21.67 40.5399 19.43 39.6299 17.3C38.7599 15.25 37.5199 13.42 35.9299 11.83ZM31.0599 28.98L31.0599 19.96C31.0599 19.07 30.8699 18.22 30.4799 17.42C30.1099 16.65 29.5799 15.97 28.8999 15.37C28.2199 14.78 27.4599 14.32 26.5999 13.99C25.7399 13.66 24.8699 13.5 23.9999 13.5C23.1199 13.5 22.2499 13.66 21.3899 13.99C20.5299 14.32 19.7499 14.78 19.0699 15.38C18.3799 15.98 17.8499 16.66 17.4799 17.43C17.0899 18.22 16.8899 19.07 16.8899 19.96L16.8899 28C16.8899 28.41 16.8099 28.8 16.6499 29.17C16.4999 29.53 16.2899 29.84 16.0099 30.12C15.7299 30.4 15.4199 30.61 15.0599 30.76C14.6899 30.92 14.2999 31 13.8899 31L11.9999 31C11.5899 31 11.1999 30.92 10.8299 30.76C10.4699 30.61 10.1599 30.4 9.87993 30.12C9.59993 29.84 9.38993 29.53 9.23993 29.17C9.07993 28.8 8.99993 28.41 8.99993 28L8.99993 20.96C8.99993 20.55 9.07993 20.16 9.23993 19.79C9.38993 19.43 9.59993 19.12 9.87993 18.84C10.1599 18.56 10.4699 18.35 10.8299 18.2C11.1999 18.04 11.5899 17.96 11.9999 17.96L13.0899 17.96C13.2599 17.17 13.5199 16.41 13.8799 15.67C14.4999 14.42 15.3499 13.32 16.4399 12.36C17.4799 11.46 18.6599 10.75 19.9699 10.26C21.2899 9.75 22.6299 9.5 23.9999 9.5C25.3699 9.5 26.7099 9.75 28.0299 10.26C29.3299 10.76 30.4999 11.46 31.5399 12.37C32.6199 13.32 33.4699 14.42 34.0799 15.67C34.4399 16.42 34.6999 17.19 34.8599 17.98L36.0299 17.99L36.0499 17.99C36.4399 18 36.8299 18.08 37.1899 18.24C37.5399 18.39 37.8599 18.6 38.1299 18.88C38.3999 19.15 38.6199 19.47 38.7699 19.83C38.9199 20.2 38.9999 20.59 38.9999 20.99L38.9999 27.99C38.9999 28.4 38.9199 28.79 38.7599 29.16C38.6099 29.52 38.3899 29.85 38.1099 30.12C37.8299 30.4 37.5099 30.62 37.1399 30.77C36.7599 30.92 36.3799 31 35.9799 30.99L34.7999 30.99C34.6999 31.35 34.5799 31.7 34.4299 32.05C34.0199 33 33.4399 33.83 32.6999 34.56C31.9599 35.28 31.0999 35.85 30.1299 36.27C29.1399 36.69 28.0899 36.93 26.9699 36.99C26.7699 37 26.4799 37 26.1099 37L20.9999 37C19.8999 37 18.9999 36.1 18.9999 35C18.9999 33.9 19.8999 33 20.9999 33L26.1099 33C26.4299 33 26.6699 33 26.8099 32.99C27.4299 32.96 28.0099 32.83 28.5599 32.59C29.0699 32.37 29.5199 32.07 29.8999 31.7C30.2699 31.34 30.5599 30.93 30.7599 30.47C30.9599 30 31.0599 29.5 31.0599 28.98Z" fill-rule="evenodd"  fill="#000000" >
</path>
</svg>
