<svg xmlns="http://www.w3.org/2000/svg" xmlns:xlink="http://www.w3.org/1999/xlink" width="48" height="48" viewBox="0 0 48 48" fill="none">
<path d="M18.6 37.7L21.72 41.34C22.92 42.74 25.08 42.74 26.28 41.34L29.4 37.7C29.78 37.26 30.34 37 30.92 37L38 37C41.31 37 44 34.31 44 31L44 13C44 9.69 41.31 7 38 7L10 7C6.69 7 4 9.69 4 13L4 31C4 34.31 6.69 37 10 37L17.08 37C17.66 37 18.22 37.26 18.6 37.7Z"   fill="#FEEDBD" >
</path>
<path d="M2 13L2 31C2 35.4183 5.58172 39 10 39L17.0801 39L20.2037 42.6442C22.1992 44.9722 25.8008 44.9722 27.7963 42.6442L30.9199 39L38 39C42.4183 39 46 35.4183 46 31L46 13C46 8.58172 42.4183 5 38 5L10 5C5.58172 5 2 8.58172 2 13ZM10 35C7.79086 35 6 33.2091 6 31L6 13C6 10.7909 7.79086 9 10 9L38 9C40.2091 9 42 10.7909 42 13L42 31C42 33.2091 40.2091 35 38 35L30.9199 35C29.7522 35 28.6428 35.5103 27.8828 36.3968L24.7593 40.041C24.3602 40.5066 23.6398 40.5066 23.2407 40.041L20.1172 36.3968C19.3572 35.5103 18.2478 35 17.0801 35L10 35Z" fill-rule="evenodd"  fill="#FCCB68" >
</path>
<path d="M2 13L2 28C2 29.1046 2.89543 30 4 30C5.10457 30 6 29.1046 6 28L6 13C6 10.7909 7.79086 9 10 9L38 9C40.2091 9 42 10.7909 42 13L42 28C42 29.1046 42.8954 30 44 30C45.1046 30 46 29.1046 46 28L46 13C46 8.58172 42.4183 5 38 5L10 5C5.58172 5 2 8.58172 2 13Z" fill-rule="evenodd"  fill="#FBB63E" >
</path>
<path d="M10 5C5.58172 5 2 8.58172 2 13L2 17C2 18.1046 2.89543 19 4 19C5.10457 19 6 18.1046 6 17L6 13C6 10.7909 7.79086 9 10 9L38 9C40.2091 9 42 10.7909 42 13L42 17C42 18.1046 42.8954 19 44 19C45.1046 19 46 18.1046 46 17L46 13C46 8.58172 42.4183 5 38 5L10 5Z" fill-rule="evenodd"  fill="#FA9E14" >
</path>
<path d="M12 23C12 24.1046 12.8954 25 14 25L34 25C35.1046 25 36 24.1046 36 23C36 21.8954 35.1046 21 34 21L14 21C12.8954 21 12 21.8954 12 23Z" fill-rule="evenodd"  fill="#FA9E14" >
</path>
</svg>
