<svg xmlns="http://www.w3.org/2000/svg" xmlns:xlink="http://www.w3.org/1999/xlink" width="48" height="48" viewBox="0 0 48 48" fill="none">
<path d="M10 41L38 41C42.42 41 46 37.42 46 33L46 14C46 9.58 42.42 6 38 6L10 6C5.58 6 2 9.58 2 14L2 33C2 37.42 5.58 41 10 41ZM6.13951 12.9485C6.60094 11.249 8.15394 10 10 10L38 10C39.8461 10 41.3991 11.249 41.8605 12.9485L26.06 22.44C24.79 23.2 23.21 23.2 21.94 22.44L6.13951 12.9485ZM6 17.5304L19.88 25.86C22.42 27.39 25.58 27.39 28.12 25.87L42 17.5321L42 33C42 35.21 40.21 37 38 37L10 37C7.79 37 6 35.21 6 33L6 17.5304Z" fill-rule="evenodd"  fill="#000000" >
</path>
</svg>
