<svg xmlns="http://www.w3.org/2000/svg" xmlns:xlink="http://www.w3.org/1999/xlink" width="48" height="48" viewBox="0 0 48 48" fill="none">
<path d="M23.7002 4.79004C34.3502 4.79004 42.9902 13.39 42.9902 24C42.9902 28.97 41.0902 33.5 37.9802 36.91L39.1502 38.13C40.9702 40.04 39.6202 43.2 36.9802 43.2L23.7002 43.2C13.0602 43.2 4.42023 34.6 4.42023 24C4.42023 13.39 13.0602 4.79004 23.7002 4.79004Z"   fill="#AFECDA" >
</path>
<path d="M40.6633 36.822C43.5447 33.1032 44.9854 28.8279 44.9854 23.9961C44.9854 12.2843 35.4167 2.79004 23.7049 2.79004C11.952 2.79004 2.42441 12.2432 2.42441 23.9961C2.42441 35.7078 11.9931 45.2021 23.7049 45.2021L36.9788 45.2021C41.3451 45.2021 43.5983 40.0097 40.6633 36.822ZM36.5527 38.31C36.242 37.9942 36.0355 37.5756 35.9887 37.1099C35.9821 37.0434 35.9786 36.9759 35.9786 36.9076L35.9786 36.9073C35.9786 36.3783 36.184 35.8972 36.5194 35.5395C39.4967 32.2664 40.9854 28.4186 40.9854 23.9961C40.9854 14.4934 33.2075 6.79004 23.7049 6.79004C14.1612 6.79004 6.42441 14.4524 6.42441 23.9961C6.42441 33.4987 14.2023 41.2021 23.7049 41.2021L36.9788 41.2021C37.859 41.2021 38.3099 40.147 37.7014 39.5109L36.5527 38.31Z" fill-rule="evenodd"  fill="#0D9E86" >
</path>
<path d="M14 22.99C14 33.29 23.05 34.86 23.93 34.99C23.98 35 24.02 35 24.07 34.99C24.95 34.86 34 33.29 34 22.99L34 19.37C34 17.76 33.04 16.3 31.55 15.68L25.55 13.15C24.56 12.73 23.44 12.73 22.45 13.15L16.45 15.68C14.96 16.3 14 17.76 14 19.37L14 22.99Z"   fill="#51C5AA" >
</path>
<path d="M16 22.9921L16 19.3655C16 18.5608 16.4823 17.8344 17.2241 17.5222L23.224 14.9965C23.7203 14.7876 24.2797 14.7876 24.776 14.9965L30.7759 17.5222C31.5177 17.8344 32 18.5608 32 19.3655L32 22.9921C32 28.5839 29.3574 31.9065 24.0721 32.9599C24.0227 32.9697 23.9718 32.9686 23.9224 32.9588C18.6408 31.9023 16 28.5801 16 22.9921ZM15.6721 13.8356C13.447 14.7722 12 16.9513 12 19.3655L12 22.9921C12 27.6433 13.5841 31.2723 16.7524 33.879C18.5988 35.3982 20.7272 36.3989 23.1378 36.8811C23.7042 36.9944 24.2876 36.9956 24.8541 36.8827C27.263 36.4025 29.3913 35.4037 31.2389 33.8862C34.413 31.2792 36 27.6479 36 22.9921L36 19.3655C36 16.9513 34.553 14.7722 32.3279 13.8356L26.3279 11.3098C24.8392 10.6832 23.1608 10.6832 21.6721 11.3098L15.6721 13.8356Z" fill-rule="evenodd"  fill="#0D9E86" >
</path>
</svg>
