<svg xmlns="http://www.w3.org/2000/svg" xmlns:xlink="http://www.w3.org/1999/xlink" width="48" height="48" viewBox="0 0 48 48" fill="none">
<path d="M17.09 39.01L20.2 42.64C22.2 44.97 25.8 44.97 27.8 42.64L30.92 39L38 39C42.42 39 46 35.42 46 31L46 13C46 8.58 42.42 5 38 5L10 5C5.58 5 2 8.58 2 13L2 31C2 35.42 5.58 39 10 39L17.08 39L17.09 39.01ZM34 25L14 25C12.9 25 12 24.1 12 23C12 21.9 12.9 21 14 21L34 21C35.1 21 36 21.9 36 23C36 24.1 35.1 25 34 25Z" fill-rule="evenodd"  fill="#000000" >
</path>
</svg>
