<svg xmlns="http://www.w3.org/2000/svg" xmlns:xlink="http://www.w3.org/1999/xlink" width="48" height="48" viewBox="0 0 48 48" fill="none">
<path d="M23.7002 4.79004C34.3502 4.79004 42.9902 13.39 42.9902 24C42.9902 28.97 41.0902 33.5 37.9802 36.91L40.7602 39.82C41.9702 41.09 41.0802 43.19 39.3202 43.2L23.7002 43.2C13.0602 43.2 4.42023 34.6 4.42023 24C4.42023 13.39 13.0602 4.79004 23.7002 4.79004Z"   fill="#BEDCFF" >
</path>
<path d="M40.6639 36.8212C43.5449 33.1026 44.9854 28.8276 44.9854 23.9961C44.9854 12.2843 35.4167 2.79004 23.7049 2.79004C11.952 2.79004 2.42441 12.2432 2.42441 23.9961C2.42441 35.7078 11.9931 45.2021 23.7049 45.2021L39.3192 45.2021C42.8402 45.2021 44.6436 40.9815 42.2097 38.4371L40.6639 36.8212ZM36.5527 38.3101C36.2421 37.9942 36.0355 37.5756 35.9887 37.1099C35.9821 37.0434 35.9786 36.9759 35.9786 36.9076L35.9786 36.9073C35.9786 36.3783 36.184 35.8972 36.5194 35.5395C39.4967 32.2664 40.9854 28.4186 40.9854 23.9961C40.9854 14.4934 33.2075 6.79004 23.7049 6.79004C14.1612 6.79004 6.42441 14.4524 6.42441 23.9961C6.42441 33.4987 14.2023 41.2021 23.7049 41.2021L39.3192 41.2021L36.5527 38.3101Z" fill-rule="evenodd"  fill="#1764FF" >
</path>
<path d="M28.9 15.37C30.3403 16.6356 31.06 18.1672 31.06 19.96L31.06 28.98C31.06 31.8999 29.2616 33 26.5 33L21 33L21 37L26.5 37C28.8759 37 30.8841 36.243 32.53 34.72C33.6898 33.6468 34.4499 32.4012 34.81 30.99L35.98 30.99C37.6428 30.99 39 29.6528 39 27.99L39 20.99C39 19.345 37.6749 18.0067 36.03 17.99L34.87 17.98C34.4564 15.8307 33.3508 13.9612 31.54 12.37C29.3643 10.4583 26.8479 9.5 24 9.5C21.1513 9.5 18.6294 10.4518 16.44 12.36C14.6168 13.9491 13.5002 15.8173 13.08 17.96L12 17.96C10.3431 17.96 9 19.3032 9 20.96L9 28C9 29.6569 10.3431 31 12 31L13.89 31C15.5469 31 16.89 29.6569 16.89 28L16.89 19.96C16.89 18.1731 17.6153 16.6479 19.07 15.38C20.5062 14.1282 22.1503 13.5 24 13.5C25.8428 13.5 27.4794 14.1217 28.9 15.37Z" fill-rule="evenodd"  fill="#6BA6FF" >
</path>
<path d="M28.8976 15.3728C30.3391 16.6386 31.0598 18.1677 31.0598 19.96L31.0598 28.98C31.0598 31.66 29.5398 33 26.4998 33L20.9998 33L20.9998 37L26.4998 37C28.8756 37 30.887 36.2387 32.5339 34.7162C33.695 33.6427 34.4559 32.4003 34.8164 30.9889L35.9846 30.9949C37.6473 31.0033 38.9998 29.6577 38.9998 27.9949L38.9998 20.9899C38.9998 19.3449 37.6751 18.0068 36.0302 17.9901L34.8761 17.9783C34.4622 15.8289 33.3492 13.9585 31.537 12.3672C29.3602 10.4557 26.8478 9.5 23.9998 9.5C20.6734 9.5 17.8767 10.723 15.6096 13.1689C15.2486 13.5307 15.0254 14.03 15.0254 14.5815C15.0254 15.6861 15.9208 16.5815 17.0254 16.5815C17.609 16.5815 18.1342 16.3316 18.4998 15.9328L18.501 15.9339C19.9858 14.3113 21.8187 13.5 23.9998 13.5C25.8431 13.5 27.4757 14.1243 28.8976 15.3728Z" fill-rule="evenodd"  fill="#4187FF" >
</path>
<path d="M29.2844 15.7434C28.9146 15.3805 28.6852 14.875 28.6852 14.3159C28.6852 13.2113 29.5806 12.3159 30.6852 12.3159C31.2387 12.3159 31.7396 12.5407 32.1018 12.9041L32.102 12.9038C33.5768 14.395 34.5001 16.0866 34.872 17.9785L36.0305 17.9903C37.6753 18.007 39 19.3451 39 20.9901L39 27.9951C39 29.6579 37.6476 31.0035 35.9848 30.9951L34.8166 30.9891C34.4561 32.4005 33.6953 33.6429 32.5341 34.7164C30.8872 36.239 28.8758 37.0002 26.5 37.0002L21 37.0002L21 37C19.8954 37 19 36.1046 19 35C19 33.8954 19.8954 33 21 33C21.0093 33 21.0186 33.0001 21.0279 33.0002L26.5 33.0002C29.54 33.0002 31.06 31.6602 31.06 28.9802L31.06 19.9602C31.06 18.3577 30.4681 16.9521 29.2844 15.7434Z" fill-rule="evenodd"  fill="#1764FF" >
</path>
</svg>
