<svg xmlns="http://www.w3.org/2000/svg" xmlns:xlink="http://www.w3.org/1999/xlink" width="48" height="48" viewBox="0 0 48 48" fill="none">
<path d="M16.9567 4.62749C17.1313 3.70093 17.9448 3 18.9221 3C20.0267 3 20.9221 3.89543 20.9221 5C20.9221 5.15508 20.9044 5.30604 20.871 5.45098L12.9331 43.3725C12.7586 44.2991 11.945 45 10.9678 45C9.8632 45 8.96777 44.1046 8.96777 43C8.96777 42.8449 8.98542 42.6939 9.01883 42.549L16.9567 4.62749Z" fill-rule="evenodd"  fill="#1764FF" >
</path>
<path d="M35.3494 4.62748C35.5239 3.70093 36.3375 3 37.3147 3C38.4193 3 39.3147 3.89543 39.3147 5C39.3147 5.15508 39.2971 5.30604 39.2637 5.45098L37.6844 12.9958L42 12.9958C43.1046 12.9958 44 13.8912 44 14.9958C44 16.1004 43.1046 16.9958 42 16.9958L36.8471 16.9958L31.3258 43.3725C31.1512 44.2991 30.3377 45 29.3604 45C28.2558 45 27.3604 44.1046 27.3604 43C27.3604 42.8449 27.378 42.694 27.4115 42.549L32.7604 16.9958L8.46289 16.9958C7.35832 16.9958 6.46289 16.1004 6.46289 14.9958C6.46289 13.8912 7.35832 12.9958 8.46289 12.9958L33.5977 12.9958L35.3494 4.62748Z" fill-rule="evenodd"  fill="#4187FF" >
</path>
<path d="M4 32.4443C4 33.5489 4.89543 34.4443 6 34.4443L39.5371 34.4443C40.6417 34.4443 41.5371 33.5489 41.5371 32.4443C41.5371 31.3398 40.6417 30.4443 39.5371 30.4443L6 30.4443C4.89543 30.4443 4 31.3398 4 32.4443Z" fill-rule="evenodd"  fill="#1764FF" >
</path>
</svg>
