<svg xmlns="http://www.w3.org/2000/svg" xmlns:xlink="http://www.w3.org/1999/xlink" width="48" height="48" viewBox="0 0 48 48" fill="none">
<path d="M22.151 12.23C22.131 12.3 22.111 12.36 22.091 12.42C22.071 12.48 22.051 12.55 22.041 12.61C22.031 12.67 22.021 12.74 22.011 12.8C22.001 12.87 22.001 12.93 22.001 13L22.001 26C22.001 26.07 22.001 26.13 22.011 26.2C22.021 26.26 22.031 26.33 22.041 26.39C22.051 26.45 22.071 26.52 22.091 26.58C22.111 26.64 22.131 26.7 22.151 26.77C22.181 26.83 22.211 26.89 22.241 26.94C22.271 27 22.301 27.06 22.341 27.11C22.371 27.17 22.411 27.22 22.451 27.27C22.501 27.32 22.541 27.37 22.591 27.41C22.631 27.46 22.681 27.5 22.731 27.55C22.781 27.59 22.831 27.63 22.891 27.66C22.941 27.7 23.001 27.73 23.061 27.76C23.111 27.79 23.171 27.82 23.231 27.85C23.301 27.87 23.361 27.89 23.421 27.91C23.481 27.93 23.551 27.95 23.611 27.96C23.671 27.97 23.741 27.98 23.801 27.99C23.871 28 23.931 28 24.001 28C24.071 28 24.131 28 24.201 27.99C24.261 27.98 24.331 27.97 24.391 27.96C24.451 27.95 24.521 27.93 24.581 27.91C24.641 27.89 24.701 27.87 24.771 27.85C24.831 27.82 24.891 27.79 24.941 27.76C25.001 27.73 25.061 27.7 25.111 27.66C25.171 27.63 25.221 27.59 25.271 27.55C25.321 27.5 25.371 27.46 25.411 27.41C25.461 27.37 25.501 27.32 25.551 27.27C25.591 27.22 25.631 27.17 25.661 27.11C25.701 27.06 25.731 27 25.761 26.94C25.791 26.89 25.821 26.83 25.851 26.77C25.871 26.7 25.891 26.64 25.911 26.58C25.931 26.52 25.951 26.45 25.961 26.39C25.971 26.33 25.981 26.26 25.991 26.2C26.001 26.13 26.001 26.07 26.001 26L26.001 13C26.001 12.93 26.001 12.87 25.991 12.8C25.981 12.74 25.971 12.67 25.961 12.61C25.951 12.55 25.931 12.48 25.911 12.42C25.891 12.36 25.871 12.3 25.851 12.23C25.821 12.17 25.791 12.11 25.761 12.06C25.731 12 25.701 11.94 25.661 11.89C25.631 11.83 25.591 11.78 25.551 11.73C25.501 11.68 25.461 11.63 25.411 11.59C25.371 11.54 25.321 11.5 25.271 11.45C25.221 11.41 25.171 11.37 25.111 11.34C25.061 11.3 25.001 11.27 24.941 11.24C24.891 11.21 24.831 11.18 24.771 11.15C24.701 11.13 24.641 11.11 24.581 11.09C24.521 11.07 24.451 11.05 24.391 11.04C24.331 11.03 24.261 11.02 24.201 11.01C24.131 11 24.071 11 24.001 11C23.931 11 23.871 11 23.801 11.01C23.741 11.02 23.671 11.03 23.611 11.04C23.551 11.05 23.481 11.07 23.421 11.09C23.361 11.11 23.301 11.13 23.231 11.15C23.171 11.18 23.111 11.21 23.061 11.24C23.001 11.27 22.941 11.3 22.891 11.34C22.831 11.37 22.781 11.41 22.731 11.45C22.681 11.5 22.631 11.54 22.591 11.59C22.541 11.63 22.501 11.68 22.451 11.73C22.411 11.78 22.371 11.83 22.341 11.89C22.301 11.94 22.271 12 22.241 12.06C22.211 12.11 22.181 12.17 22.151 12.23ZM38.85 38.85C40.79 36.91 42.29 34.69 43.35 32.17C44.45 29.57 45 26.85 45 24C45 21.15 44.45 18.43 43.35 15.83C42.29 13.31 40.79 11.09 38.85 9.15C36.91 7.21 34.69 5.71 32.17 4.65C29.57 3.55 26.85 3 24 3C21.15 3 18.43 3.55 15.83 4.65C13.31 5.71 11.09 7.21 9.15 9.15C7.21 11.09 5.71 13.31 4.65 15.83C3.55 18.43 3 21.15 3 24C3 26.85 3.55 29.57 4.65 32.17C5.71 34.69 7.21 36.91 9.15 38.85C11.09 40.79 13.31 42.29 15.83 43.35C18.43 44.45 21.15 45 24 45C26.85 45 29.57 44.45 32.17 43.35C34.69 42.29 36.91 40.79 38.85 38.85ZM24 31C22.62 31 21.5 32.12 21.5 33.5C21.5 34.88 22.62 36 24 36C25.38 36 26.5 34.88 26.5 33.5C26.5 32.12 25.38 31 24 31Z" fill-rule="evenodd"  fill="#000000" >
</path>
</svg>
