<svg xmlns="http://www.w3.org/2000/svg" xmlns:xlink="http://www.w3.org/1999/xlink" width="48" height="48" viewBox="0 0 48 48" fill="none">
<path d="M24 45C35.598 45 45 35.598 45 24C45 12.402 35.598 3 24 3C12.402 3 3 12.402 3 24C3 35.598 12.402 45 24 45Z" fill-rule="evenodd"  fill="#FA9E14" >
</path>
<path d="M26.001 13L26.001 13.0002L26 26L26 26.0002C25.9999 27.1047 25.1045 28 24 28C22.8954 28 22 27.1046 22 26L22 25.9998L22.001 13L22.001 12.9998C22.0011 11.8953 22.8965 11 24.001 11C25.1055 11 26.001 11.8954 26.001 13Z" fill-rule="evenodd"  fill="#FFFAE8" >
</path>
<path d="M24 31C22.62 31 21.5 32.12 21.5 33.5C21.5 34.88 22.62 36 24 36C25.38 36 26.5 34.88 26.5 33.5C26.5 32.12 25.38 31 24 31Z"   fill="#FFFFE8" >
</path>
</svg>
