<svg xmlns="http://www.w3.org/2000/svg" xmlns:xlink="http://www.w3.org/1999/xlink" width="48" height="48" viewBox="0 0 48 48" fill="none">
<path d="M24 5C13.51 5 5 13.51 5 24C5 34.49 13.51 43 24 43C34.49 43 43 34.49 43 24C43 13.51 34.49 5 24 5Z"   fill="#FEEDBD" >
</path>
<path d="M24 45C35.598 45 45 35.598 45 24C45 12.402 35.598 3 24 3C12.402 3 3 12.402 3 24C3 35.598 12.402 45 24 45ZM24 7C33.3888 7 41 14.6112 41 24C41 33.3888 33.3888 41 24 41C14.6112 41 7 33.3888 7 24C7 14.6112 14.6112 7 24 7Z" fill-rule="evenodd"  fill="#FCCB68" >
</path>
<path d="M22.001 13C22.001 11.8954 22.8964 11 24.001 11C25.1056 11 26.001 11.8954 26.001 13L26.001 27C26.001 28.1046 25.1056 29 24.001 29C22.8964 29 22.001 28.1046 22.001 27L22.001 13ZM21.5 33.5C21.5 32.12 22.62 31 24 31C25.38 31 26.5 32.12 26.5 33.5C26.5 34.88 25.38 36 24 36C22.62 36 21.5 34.88 21.5 33.5Z" fill-rule="evenodd"  fill="#FA9E14" >
</path>
</svg>
