<svg xmlns="http://www.w3.org/2000/svg" xmlns:xlink="http://www.w3.org/1999/xlink" width="48" height="48" viewBox="0 0 48 48" fill="none">
<path d="M20.5 39.5C20.5 37.57 22.07 36 24 36C25.93 36 27.5 37.57 27.5 39.5C27.5 41.43 25.93 43 24 43C22.07 43 20.5 41.43 20.5 39.5ZM24.581 5.09C24.641 5.11 24.701 5.13 24.771 5.15C24.831 5.18 24.891 5.21 24.941 5.24C25.001 5.27 25.061 5.3 25.111 5.34C25.171 5.37 25.221 5.41 25.271 5.45C25.321 5.5 25.371 5.54 25.411 5.59C25.461 5.63 25.501 5.68 25.551 5.73C25.591 5.78 25.631 5.83 25.661 5.89C25.701 5.94 25.731 6 25.761 6.06C25.791 6.11 25.821 6.17 25.851 6.23C25.871 6.3 25.891 6.36 25.911 6.42C25.931 6.48 25.951 6.55 25.961 6.61C25.971 6.67 25.981 6.74 25.991 6.8C26.001 6.87 26.001 6.93 26.001 7L26.001 30C26.001 30.07 26.001 30.13 25.991 30.2C25.981 30.26 25.971 30.33 25.961 30.39C25.951 30.45 25.931 30.52 25.911 30.58C25.891 30.64 25.871 30.7 25.851 30.77C25.821 30.83 25.791 30.89 25.761 30.94C25.731 31 25.701 31.06 25.661 31.11C25.631 31.17 25.591 31.22 25.551 31.27C25.501 31.32 25.461 31.37 25.411 31.41C25.371 31.46 25.321 31.5 25.271 31.55C25.221 31.59 25.171 31.63 25.111 31.66C25.061 31.7 25.001 31.73 24.941 31.76C24.891 31.79 24.831 31.82 24.771 31.85C24.701 31.87 24.641 31.89 24.581 31.91C24.521 31.93 24.451 31.95 24.391 31.96C24.331 31.97 24.261 31.98 24.201 31.99C24.131 32 24.071 32 24.001 32C23.931 32 23.871 32 23.801 31.99C23.741 31.98 23.671 31.97 23.611 31.96C23.551 31.95 23.481 31.93 23.421 31.91C23.361 31.89 23.301 31.87 23.231 31.85C23.171 31.82 23.111 31.79 23.061 31.76C23.001 31.73 22.941 31.7 22.891 31.66C22.831 31.63 22.781 31.59 22.731 31.55C22.681 31.5 22.631 31.46 22.591 31.41C22.541 31.37 22.501 31.32 22.451 31.27C22.411 31.22 22.371 31.17 22.341 31.11C22.301 31.06 22.271 31 22.241 30.94C22.211 30.89 22.181 30.83 22.151 30.77C22.131 30.7 22.111 30.64 22.091 30.58C22.071 30.52 22.051 30.45 22.041 30.39C22.031 30.33 22.021 30.26 22.011 30.2C22.001 30.13 22.001 30.07 22.001 30L22.001 7C22.001 6.93 22.001 6.87 22.011 6.8C22.021 6.74 22.031 6.67 22.041 6.61C22.051 6.55 22.071 6.48 22.091 6.42C22.111 6.36 22.131 6.3 22.151 6.23C22.181 6.17 22.211 6.11 22.241 6.06C22.271 6 22.301 5.94 22.341 5.89C22.371 5.83 22.411 5.78 22.451 5.73C22.501 5.68 22.541 5.63 22.591 5.59C22.631 5.54 22.681 5.5 22.731 5.45C22.781 5.41 22.831 5.37 22.891 5.34C22.941 5.3 23.001 5.27 23.061 5.24C23.111 5.21 23.171 5.18 23.231 5.15C23.301 5.13 23.361 5.11 23.421 5.09C23.481 5.07 23.551 5.05 23.611 5.04C23.671 5.03 23.741 5.02 23.801 5.01C23.871 5 23.931 5 24.001 5C24.071 5 24.131 5 24.201 5.01C24.261 5.02 24.331 5.03 24.391 5.04C24.451 5.05 24.521 5.07 24.581 5.09Z" fill-rule="evenodd"  fill="#000000" >
</path>
</svg>
