<svg xmlns="http://www.w3.org/2000/svg" xmlns:xlink="http://www.w3.org/1999/xlink" width="48" height="48" viewBox="0 0 48 48" fill="none">
<path d="M13.7337 16.33C13.9037 15.87 14.0037 15.38 14.0037 14.89L14.0037 8L12.0003 8C10.9003 8 10.0003 7.1 10.0003 6C10.0003 4.9 10.9003 4 12.0003 4L36.0003 4C37.1003 4 38.0003 4.9 38.0003 6C38.0003 7.1 37.1003 8 36.0003 8L34.0037 8L34.0037 14.89C34.0037 15.38 34.0937 15.87 34.2637 16.32L40.7237 33.13C42.7437 38.37 38.8737 44 33.2637 44L14.7336 44C9.11363 44 5.25363 38.37 7.26363 33.13L8.93363 28.77C8.97578 28.664 9.02185 28.5586 9.07184 28.4538L13.7337 16.33ZM34.8444 28.9773C34.2051 30.3286 32.6944 31 30.3036 31C29.0936 31 27.3736 30 25.1336 28.01C22.1236 25.34 19.5136 24 17.3036 24C16.4857 24 15.7135 24.0714 14.987 24.2146L17.4737 17.75C17.8137 16.83 18.0037 15.87 18.0037 14.89L18.0037 8L30.0037 8L30.0037 14.89C30.0037 15.87 30.1837 16.83 30.5337 17.76L34.8444 28.9773Z" fill-rule="evenodd"  fill="#000000" >
</path>
</svg>
