<svg xmlns="http://www.w3.org/2000/svg" xmlns:xlink="http://www.w3.org/1999/xlink" width="48" height="48" viewBox="0 0 48 48" fill="none">
<path d="M9.13601 33.8461C7.62446 37.7761 10.5254 42 14.7361 42L33.2637 42C37.4744 42 40.3753 37.7761 38.8638 33.8461L32.3998 17.0398C32.1355 16.3525 31.9999 15.6223 31.9999 14.8859L31.9999 6L15.9999 6L15.9999 14.8859C15.9999 15.6223 15.8644 16.3525 15.6 17.0398L9.13601 33.8461Z"   fill="#94C3FF" >
</path>
<path d="M11.0026 34.5641L17.4666 17.7578C17.819 16.8413 17.9998 15.8678 17.9998 14.8859L17.9998 8L29.9998 8L29.9998 14.8859C29.9998 15.8678 30.1806 16.8413 30.533 17.7578L36.997 34.5641C38.0047 37.1841 36.0707 40 33.2636 40L14.736 40C11.9289 40 9.99492 37.1841 11.0026 34.5641ZM13.9998 14.8859C13.9998 15.3769 13.9095 15.8636 13.7332 16.3218L7.26924 33.1282C5.25384 38.3682 9.12177 44 14.736 44L33.2636 44C38.8779 44 42.7458 38.3682 40.7304 33.1282L34.2664 16.3218C34.0902 15.8636 33.9998 15.3769 33.9998 14.8859L33.9998 6C33.9998 4.89543 33.1044 4 31.9998 4L15.9998 4C14.8953 4 13.9998 4.89543 13.9998 6L13.9998 14.8859Z" fill-rule="evenodd"  fill="#4187FF" >
</path>
<path d="M10.7952 26.2559C9.90046 27.0521 9.28101 27.8911 8.93685 28.7728L10.7999 29.5L8.93685 28.7728C8.93551 28.7762 8.93418 28.7796 8.93286 28.783L7.2628 33.1322C5.25087 38.3716 9.11869 44 14.7311 44L33.2512 44C38.8736 44 42.742 38.353 40.711 33.1102L39.0249 28.7575C38.3951 27.1319 36.1318 27.0341 35.3642 28.5994C34.5794 30.1998 32.8913 31 30.2999 31C29.096 31 27.3725 30.002 25.1295 28.0059C22.1284 25.3353 19.5185 24 17.2999 24C14.6535 24 12.4853 24.752 10.7952 26.2559Z" fill-rule="evenodd"  fill="#1764FF" >
</path>
<path d="M10 6C10 7.10457 10.8954 8 12 8L36 8C37.1046 8 38 7.10457 38 6C38 4.89543 37.1046 4 36 4L12 4C10.8954 4 10 4.89543 10 6Z" fill-rule="evenodd"  fill="#1764FF" >
</path>
</svg>
