<svg xmlns="http://www.w3.org/2000/svg" xmlns:xlink="http://www.w3.org/1999/xlink" width="48" height="48" viewBox="0 0 48 48" fill="none">
<path d="M16.0031 4L11.9999 4C11.9299 4 11.8699 4 11.7999 4.01C11.7399 4.02 11.6699 4.03 11.6099 4.04C11.5499 4.05 11.4799 4.07 11.4199 4.09C11.3599 4.11 11.2999 4.13 11.2299 4.15C11.1699 4.18 11.1099 4.21 11.0599 4.24C10.9999 4.27 10.9399 4.3 10.8899 4.34C10.8299 4.37 10.7799 4.41 10.7299 4.45C10.6799 4.5 10.6299 4.54 10.5899 4.59C10.5399 4.63 10.4999 4.68 10.4499 4.73C10.4099 4.78 10.3699 4.83 10.3399 4.89C10.2999 4.94 10.2699 5 10.2399 5.06C10.2099 5.11 10.1799 5.17 10.1499 5.23C10.1299 5.3 10.1099 5.36 10.0899 5.42C10.0699 5.48 10.0499 5.55 10.0399 5.61C10.0299 5.67 10.0199 5.74 10.0099 5.8C9.99991 5.87 9.99991 5.93 9.99991 6C9.99991 6.07 9.99991 6.13 10.0099 6.2C10.0199 6.26 10.0299 6.33 10.0399 6.39C10.0499 6.45 10.0699 6.52 10.0899 6.58C10.1099 6.64 10.1299 6.7 10.1499 6.77C10.1799 6.83 10.2099 6.89 10.2399 6.94C10.2699 7 10.2999 7.06 10.3399 7.11C10.3699 7.17 10.4099 7.22 10.4499 7.27C10.4999 7.32 10.5399 7.37 10.5899 7.41C10.6299 7.46 10.6799 7.5 10.7299 7.55C10.7799 7.59 10.8299 7.63 10.8899 7.66C10.9399 7.7 10.9999 7.73 11.0599 7.76C11.1099 7.79 11.1699 7.82 11.2299 7.85C11.2999 7.87 11.3599 7.89 11.4199 7.91C11.4799 7.93 11.5499 7.95 11.6099 7.96C11.6699 7.97 11.7399 7.98 11.7999 7.99C11.8699 8 11.9299 8 11.9999 8L14.0031 8L14.0031 14.89C14.0031 15.37 13.9131 15.85 13.7331 16.33L9.04329 28.5264C9.00383 28.6097 8.96928 28.6907 8.93991 28.77C8.91703 28.831 8.89674 28.892 8.8792 28.9532L7.2731 33.13C6.7831 34.41 6.6231 35.71 6.8031 37.04C6.9731 38.31 7.4131 39.47 8.14311 40.53C8.87311 41.59 9.80311 42.43 10.9231 43.04C12.1031 43.68 13.3731 44 14.7431 44L33.2631 44C34.6231 44 35.8931 43.68 37.0831 43.04C38.2031 42.43 39.1231 41.59 39.8531 40.53C40.5831 39.47 41.0331 38.31 41.1931 37.04C41.3731 35.71 41.2131 34.41 40.7231 33.13L34.2631 16.32C34.0931 15.85 34.0031 15.37 34.0031 14.89L34.0031 8L35.9999 8C36.0699 8 36.1299 8 36.1999 7.99C36.2599 7.98 36.3299 7.97 36.3899 7.96C36.4499 7.95 36.5199 7.93 36.5799 7.91C36.6399 7.89 36.6999 7.87 36.7699 7.85C36.8299 7.82 36.8899 7.79 36.9399 7.76C36.9999 7.73 37.0599 7.7 37.1099 7.66C37.1699 7.63 37.2199 7.59 37.2699 7.55C37.3199 7.5 37.3699 7.46 37.4099 7.41C37.4599 7.37 37.4999 7.32 37.5499 7.27C37.5899 7.22 37.6299 7.17 37.6599 7.11C37.6999 7.06 37.7299 7 37.7599 6.94C37.7899 6.89 37.8199 6.83 37.8499 6.77C37.8699 6.7 37.8899 6.64 37.9099 6.58C37.9299 6.52 37.9499 6.45 37.9599 6.39C37.9699 6.33 37.9799 6.26 37.9899 6.2C37.9999 6.13 37.9999 6.07 37.9999 6C37.9999 5.93 37.9999 5.87 37.9899 5.8C37.9799 5.74 37.9699 5.67 37.9599 5.61C37.9499 5.55 37.9299 5.48 37.9099 5.42C37.8899 5.36 37.8699 5.3 37.8499 5.23C37.8199 5.17 37.7899 5.11 37.7599 5.06C37.7299 5 37.6999 4.94 37.6599 4.89C37.6299 4.83 37.5899 4.78 37.5499 4.73C37.4999 4.68 37.4599 4.63 37.4099 4.59C37.3699 4.54 37.3199 4.5 37.2699 4.45C37.2199 4.41 37.1699 4.37 37.1099 4.34C37.0599 4.3 36.9999 4.27 36.9399 4.24C36.8899 4.21 36.8299 4.18 36.7699 4.15C36.6999 4.13 36.6399 4.11 36.5799 4.09C36.5199 4.07 36.4499 4.05 36.3899 4.04C36.3299 4.03 36.2599 4.02 36.1999 4.01C36.1299 4 36.0699 4 35.9999 4L16.0031 4ZM30.0031 8L18.0031 8L18.0031 14.89C18.0031 15.86 17.8231 16.81 17.4731 17.75L14.983 24.2235C15.7161 24.0751 16.4884 24 17.2999 24C18.8199 24 20.3299 24.46 21.8299 25.39C22.3699 25.73 22.9599 26.16 23.5799 26.67C23.9399 26.96 24.4499 27.4 25.1299 28.01C25.7599 28.57 26.2399 28.98 26.5499 29.24C27.0399 29.64 27.4799 29.96 27.8799 30.21C28.7299 30.74 29.5399 31 30.2999 31C31.9299 31 33.2099 30.59 34.1399 29.76C34.4199 29.51 34.6399 29.25 34.8199 28.97C34.8245 28.9635 34.8291 28.957 34.8335 28.9505L30.5331 17.76C30.1731 16.81 30.0031 15.86 30.0031 14.89L30.0031 8ZM11.0031 34.57L12.7017 30.1542C12.7243 30.1128 12.7503 30.0714 12.7799 30.03C12.9599 29.75 13.1799 29.49 13.4599 29.24C14.3899 28.41 15.6699 28 17.2999 28C18.0599 28 18.8699 28.26 19.7199 28.79C20.1199 29.04 20.5599 29.36 21.0499 29.76C21.3599 30.02 21.8399 30.43 22.4699 30.99C23.1499 31.6 23.6599 32.04 24.0199 32.33C24.6399 32.84 25.2299 33.27 25.7699 33.61C27.2699 34.54 28.7799 35 30.2999 35C31.7199 35 33.0199 34.77 34.1999 34.32C35.0167 34.0033 35.7571 33.5893 36.4153 33.0665L36.9931 34.57C37.2431 35.21 37.3231 35.86 37.2331 36.52C37.1431 37.15 36.9231 37.73 36.5531 38.27C36.1931 38.8 35.7231 39.22 35.1631 39.52C34.5831 39.84 33.9431 40 33.2631 40L14.7431 40C14.0531 40 13.4131 39.84 12.8331 39.52C12.2731 39.22 11.8131 38.8 11.4431 38.27C11.0731 37.73 10.8531 37.15 10.7731 36.52C10.6831 35.86 10.7631 35.21 11.0031 34.57Z" fill-rule="evenodd"  fill="#000000" >
</path>
</svg>
