<svg xmlns="http://www.w3.org/2000/svg" xmlns:xlink="http://www.w3.org/1999/xlink" width="48" height="48" viewBox="0 0 48 48" fill="none">
<path d="M8 26C8 24.8954 7.10457 24 6 24C4.89543 24 4 24.8954 4 26L4 36C4 40.4183 7.58172 44 12 44L36 44C40.4183 44 44 40.4183 44 36L44 26C44 24.8954 43.1046 24 42 24C40.8954 24 40 24.8954 40 26L40 36C40 38.2091 38.2091 40 36 40L12 40C9.79086 40 8 38.2091 8 36L8 26Z" fill-rule="evenodd"  fill="#787878" >
</path>
<path d="M24.001 36C25.1055 36 26.0009 35.1045 26.0009 34L25.9999 6.49998C25.9999 5.39538 25.1044 4.50001 23.9999 4.50005C22.8953 4.50009 21.9999 5.39552 21.9999 6.50012L22.0009 34.0001C22.0009 35.1047 22.8964 36.0001 24.001 36Z" fill-rule="evenodd"  fill="#424242" >
</path>
<path d="M10.5862 15.8354L21.1716 5.25C22.7337 3.6879 25.2663 3.6879 26.8284 5.25L37.4132 15.8347L37.4142 15.8358C37.7761 16.1977 38 16.6977 38 17.25C38 18.3546 37.1046 19.25 36 19.25C35.4477 19.25 34.9477 19.0261 34.5858 18.6642L34.5847 18.6632L24 8.07843L13.4146 18.6639L13.4142 18.6642C13.0523 19.0261 12.5523 19.25 12 19.25C10.8954 19.25 10 18.3546 10 17.25C10 16.6977 10.2239 16.1977 10.5858 15.8358L10.5862 15.8354Z" fill-rule="evenodd"  fill="#424242" >
</path>
</svg>
