<svg xmlns="http://www.w3.org/2000/svg" xmlns:xlink="http://www.w3.org/1999/xlink" width="48" height="48" viewBox="0 0 48 48" fill="none">
<path d="M44.0005 19C44.0005 27.28 37.2805 34 29.0005 34C25.581 34 22.4276 32.8539 19.9036 30.9251L14.8246 36.0041L19.4105 40.59C19.7805 40.95 20.0005 41.45 20.0005 42C20.0005 43.1 19.1005 44 18.0005 44C17.4505 44 16.9505 43.78 16.5905 43.41L12.0027 38.826L7.41449 43.4142C6.63668 44.192 5.3639 44.192 4.58609 43.4142C3.80828 42.6364 3.80828 41.3636 4.58609 40.5858L9.1731 35.9988L4.59049 31.42L4.59049 31.41C4.22049 31.05 4.00049 30.55 4.00049 30C4.00049 28.9 4.90049 28 6.00049 28C6.55049 28 7.05049 28.22 7.41049 28.59L11.9962 33.1757L17.0753 28.0966C15.1466 25.5728 14.0005 22.4194 14.0005 19C14.0005 10.72 20.7205 4 29.0005 4C37.2805 4 44.0005 10.72 44.0005 19ZM18.0005 19C18.0005 12.92 22.9205 8 29.0005 8C35.0805 8 40.0005 12.92 40.0005 19C40.0005 25.08 35.0805 30 29.0005 30C22.9205 30 18.0005 25.08 18.0005 19Z" fill-rule="evenodd"  fill="#000000" >
</path>
</svg>
