<svg xmlns="http://www.w3.org/2000/svg" xmlns:xlink="http://www.w3.org/1999/xlink" width="48" height="48" viewBox="0 0 48 48" fill="none">
<path d="M25.5 3L15 3C10.5817 3 7 6.58172 7 11L7 37C7 41.4183 10.5817 45 15 45L33 45C37.4183 45 41 41.4183 41 37L41 17L40.9703 17C40.9147 16.442 40.7811 15.899 40.5696 15.3711C40.2827 14.655 39.8728 14.0178 39.3401 13.4598L31.1285 4.85714C31.04 4.76445 30.9493 4.67505 30.8562 4.58896C30.3911 4.15871 29.8687 3.81101 29.289 3.54585C29.2427 3.52463 29.1959 3.50395 29.1488 3.48379C28.9603 3.40316 28.7698 3.3326 28.5773 3.27213C28.2251 3.16153 27.866 3.08464 27.5 3.04147L27.5 3L25.5 3ZM36.9072 17C36.9065 16.998 36.9059 16.996 36.9053 16.9941C36.8907 16.9486 36.8744 16.9035 36.8565 16.8588C36.7609 16.6201 36.6243 16.4077 36.4467 16.2217L28.2351 7.61905C28.2115 7.59434 28.1874 7.57033 28.1629 7.54703C27.9909 7.38393 27.795 7.25533 27.5752 7.16126C27.5503 7.15058 27.5252 7.14043 27.5 7.13082L27.5 13C27.5 15.2091 29.2909 17 31.5 17L36.9072 17ZM23.5 13L23.5 7L15 7C12.7909 7 11 8.79086 11 11L11 37C11 39.2091 12.7909 41 15 41L33 41C35.2091 41 37 39.2091 37 37L37 21L31.5 21C27.0817 21 23.5 17.4183 23.5 13Z" fill-rule="evenodd"  fill="#787878" >
</path>
<path d="M20.52 27.97L20.53 22.72C20.53 22.3526 20.5972 21.9976 20.74 21.66C20.8775 21.3349 21.0701 21.0499 21.32 20.8C21.5699 20.5501 21.8549 20.3475 22.18 20.21C22.5176 20.0672 22.8726 20 23.24 20L23.5 20C23.9947 20 24.4628 20.1778 24.82 20.49C24.82 20.4784 24.8303 20.4868 24.85 20.5C24.9414 20.5616 25.197 20.8738 25.35 21.25C25.3847 21.3357 25.4514 21.466 25.55 21.64C25.7633 22.0166 26.0135 22.3592 26.29 22.67C27.0789 23.5564 27.9806 24 29 24C30.1042 24 31 24.8957 31 26C31 27.1043 30.1042 28 29 28C27.775 28 26.6306 27.7154 25.56 27.14C25.2018 26.9475 24.8498 26.7214 24.52 26.47L24.52 27.97L24.52 33.69C24.52 36.6207 22.1907 39 19.26 39C16.3538 39 14 36.5962 14 33.69C14 30.7593 16.3293 28.39 19.26 28.39C19.6951 28.39 20.1156 28.4388 20.52 28.54L20.52 27.97ZM19.26 32.39C19.9571 32.39 20.52 32.9929 20.52 33.69C20.52 34.4116 19.9816 35 19.26 35C18.5629 35 18 34.3871 18 33.69C18 32.9684 18.5384 32.39 19.26 32.39Z" fill-rule="evenodd"  fill="#424242" >
</path>
</svg>
