<svg xmlns="http://www.w3.org/2000/svg" xmlns:xlink="http://www.w3.org/1999/xlink" width="48" height="48" viewBox="0 0 48 48" fill="none">
<path d="M3 10.5C3 6.08172 6.58172 2.5 11 2.5L18.3056 2.5Q20.0194 2.5 21.5829 3.20208Q23.1463 3.90416 24.2849 5.18509L29.8981 11.5L37 11.5C41.4183 11.5 45 15.0817 45 19.5L45 36.5C45 40.9183 41.4183 44.5 37 44.5L11 44.5C6.58172 44.5 3 40.9183 3 36.5L3 10.5ZM7 11.5L24.5463 11.5L21.2952 7.84254C20.9157 7.41557 20.4653 7.08507 19.9442 6.85104C19.4231 6.61701 18.8769 6.5 18.3056 6.5L11 6.5C8.79086 6.5 7 8.29086 7 10.5L7 11.5ZM7 15.5L7 36.5C7 38.7091 8.79086 40.5 11 40.5L37 40.5C39.2091 40.5 41 38.7091 41 36.5L41 19.5C41 17.2909 39.2091 15.5 37 15.5L7 15.5Z" fill-rule="evenodd"  fill="#787878" >
</path>
<path d="M31 38C28.7909 38 27 36.2091 27 34L27 31C27 28.7909 28.7909 27 31 27L34 27C36.2091 27 38 28.7909 38 31L38 34C38 36.2091 36.2091 38 34 38L31 38ZM10.0002 30.0012C10.0003 31.1058 10.8958 32.0011 12.0004 32.001L19.3336 32.0003C20.4382 32.0002 21.3336 31.1046 21.3335 30.0001C21.3333 28.8955 20.4378 28.0002 19.3333 28.0003L12 28.001C10.8954 28.0011 10.0001 28.8966 10.0002 30.0012ZM31 34L34 34L34 31L31 31L31 34ZM10.0002 36.0012C10.0003 37.1058 10.8958 38.0011 12.0004 38.001L23.0004 37.9999C24.105 37.9998 25.0003 37.1043 25.0002 35.9997C25.0001 34.8951 24.1046 33.9998 23 33.9999L12 34.001C10.8954 34.0011 10.0001 34.8966 10.0002 36.0012Z" fill-rule="evenodd"  fill="#424242" >
</path>
</svg>
