<svg xmlns="http://www.w3.org/2000/svg" xmlns:xlink="http://www.w3.org/1999/xlink" width="48" height="48" viewBox="0 0 48 48" fill="none">
<path d="M17.3356 34.2263C17.3732 34.0863 17.4143 33.9465 17.459 33.8069L22.6366 17.6464C23.6179 14.5834 26.0858 12.4104 28.988 11.6692C28.8724 11.5322 28.738 11.4102 28.5875 11.3074L17.3989 3.66582C16.9475 3.35758 16.3898 3.24746 15.8551 3.3611L6.91121 5.26218C4.75045 5.72146 3.37113 7.84542 3.83041 10.0062L8.50816 32.0134C8.96743 34.1742 11.0914 35.5535 13.2522 35.0942L17.3356 34.2263Z" fill-rule="evenodd"  fill="#BEDCFF" >
</path>
<path d="M1.87453 10.4219L6.55228 32.4292C7.2412 35.6703 10.4271 37.7393 13.6683 37.0504L17.0315 36.3355C17.0521 35.4967 17.1913 34.6466 17.4603 33.807L18.0282 32.0345L12.8366 33.138C11.7563 33.3676 10.6943 32.678 10.4647 31.5976L5.78693 9.59028C5.55729 8.5099 6.24695 7.44792 7.32733 7.21828L12.2184 6.17865L13.8816 14.0035C14.5705 17.2446 17.7565 19.3136 20.9976 18.6247L22.4214 18.3221L22.6379 17.6465C23.1546 16.0336 24.0836 14.6674 25.2711 13.6272L20.166 14.7123C19.0856 14.9419 18.0236 14.2523 17.794 13.1719L16.1308 5.34705L16.2712 5.3172L26.8307 12.5291C28.1355 11.803 29.618 11.4007 31.146 11.3904C30.8559 10.6871 30.3791 10.1089 29.7157 9.65584L18.5271 2.01425C17.5849 1.37073 16.5558 1.16758 15.4396 1.4048L6.49573 3.30588C3.25459 3.9948 1.18561 7.18074 1.87453 10.4219Z" fill-rule="evenodd"  fill="#6BA6FF" >
</path>
<path d="M24.9376 39.5467L35.4128 42.9037C37.5165 43.5779 39.7684 42.4191 40.4426 40.3154L43.5855 30.509L44.2334 28.4876C44.3076 28.256 44.2949 28.0053 44.1977 27.7824L40.6931 19.7502C40.5781 19.4867 40.3554 19.2855 40.0817 19.1978L38.1315 18.5728L32.2622 16.6918C30.1585 16.0176 27.9065 17.1764 27.2323 19.2801L22.3492 34.5167C21.675 36.6205 22.8338 38.8725 24.9376 39.5467Z"   fill="#BEDCFF" >
</path>
<path d="M25.327 18.6698L20.4438 33.9065C19.4325 37.0621 21.1708 40.4402 24.3265 41.4515L34.8018 44.8085C36.3796 45.3142 37.9051 45.188 39.3783 44.4299C40.8515 43.6718 41.841 42.5038 42.3466 40.926L45.4897 31.1195L46.1375 29.098C46.3678 28.3794 46.3321 27.6743 46.0303 26.9827L42.5257 18.9504C42.164 18.1216 41.5527 17.5692 40.6916 17.2932L38.7413 16.6682L32.8719 14.7872C31.2942 14.2815 29.7686 14.4078 28.2954 15.1659C26.8222 15.924 25.8327 17.092 25.327 18.6698ZM35.6152 19.8668L31.6512 18.5964C30.3815 18.1895 29.5432 18.6209 29.1362 19.8906L24.253 35.1273C23.9159 36.1792 24.4954 37.3052 25.5473 37.6423L36.0225 40.9993C37.2923 41.4062 38.1306 40.9748 38.5375 39.7052L41.07 31.8035L38.3679 30.9375C35.2122 29.9262 33.4739 26.5482 34.4853 23.3926L35.6152 19.8668ZM39.2845 21.5242L38.2944 24.6133C37.9574 25.6652 38.5368 26.7912 39.5886 27.1283L42.0778 27.9261L39.2845 21.5242Z" fill-rule="evenodd"  fill="#1764FF" >
</path>
</svg>
