<svg xmlns="http://www.w3.org/2000/svg" xmlns:xlink="http://www.w3.org/1999/xlink" width="48" height="48" viewBox="0 0 48 48" fill="none">
<path d="M21.5755 33.395L21.5855 33.38C21.5805 33.385 21.578 33.39 21.5755 33.395ZM21.5755 33.395L21.5655 33.41C21.5705 33.405 21.573 33.4 21.5755 33.395ZM5.34 42.16C6.08 42.89 6.93 43.46 7.89 43.87C8.88 44.29 9.92 44.5 11 44.5L37 44.5C38.08 44.5 39.12 44.29 40.11 43.87C41.07 43.46 41.92 42.89 42.66 42.16C43.39 41.42 43.96 40.57 44.37 39.61C44.79 38.62 45 37.58 45 36.5L45 19.5C45 18.42 44.79 17.38 44.37 16.39C43.96 15.43 43.39 14.58 42.66 13.84C41.92 13.11 41.07 12.54 40.11 12.13C39.12 11.71 38.08 11.5 37 11.5L29.8996 11.5L24.29 5.18C23.52 4.33 22.62 3.67 21.58 3.2C20.54 2.73 19.45 2.5 18.31 2.5L11 2.5C9.92 2.5 8.88 2.71 7.89 3.13C6.93 3.54 6.08 4.11 5.34 4.84C4.61 5.58 4.04 6.43 3.63 7.39C3.21 8.38 3 9.42 3 10.5L3 36.5C3 37.58 3.21 38.62 3.63 39.61C4.04 40.57 4.61 41.42 5.34 42.16ZM24.55 11.5L7 11.5L7 10.5C7 9.96 7.1 9.44 7.31 8.95C7.52 8.47 7.8 8.04 8.17 7.67C8.54 7.3 8.97 7.02 9.45 6.81C9.94 6.6 10.46 6.5 11 6.5L18.31 6.5C18.88 6.5 19.43 6.62 19.95 6.85C20.47 7.08 20.92 7.41 21.29 7.84L24.55 11.5ZM22.3255 17.92C21.8455 17.54 21.2955 17.34 20.6855 17.3C20.0655 17.26 19.4955 17.4 18.9655 17.72C18.4555 18 18.0655 18.42 17.7955 18.97C17.5255 19.53 17.4255 20.11 17.5255 20.73L17.8155 22.82C15.6055 24.26 13.7655 26.13 12.2955 28.46C11.0855 30.37 10.1755 32.47 9.58553 34.78C9.39553 35.34 9.39553 35.91 9.58553 36.49C9.77553 37.08 10.1155 37.56 10.6155 37.92L10.6455 37.94L10.6755 37.97C11.1955 38.32 11.7655 38.48 12.3855 38.46C13.0455 38.43 13.6155 38.21 14.1155 37.79L14.1355 37.77L14.1655 37.74C15.5555 36.47 16.8355 35.4 17.9955 34.55C18.4655 34.2 18.9055 33.9 19.3155 33.64L19.4555 34.44C19.5655 35.05 19.8355 35.58 20.2655 36.02C20.6955 36.46 21.2055 36.74 21.8055 36.87C22.4155 37 23.0155 36.94 23.5855 36.7C24.1655 36.45 24.6155 36.06 24.9555 35.53L29.1755 29C29.5255 28.46 29.7655 27.88 29.8855 27.25C30.0055 26.65 30.0155 26.04 29.9055 25.43C29.8055 24.82 29.5955 24.25 29.2755 23.72C28.9555 23.17 28.5355 22.7 28.0255 22.31L22.3255 17.92ZM7.31 38.05C7.1 37.56 7 37.04 7 36.5L7 15.5L37 15.5C37.54 15.5 38.06 15.6 38.55 15.81C39.03 16.02 39.46 16.3 39.83 16.67C40.2 17.04 40.48 17.47 40.69 17.95C40.9 18.44 41 18.96 41 19.5L41 36.5C41 37.04 40.9 37.56 40.69 38.05C40.48 38.53 40.2 38.96 39.83 39.33C39.46 39.7 39.03 39.98 38.55 40.19C38.06 40.4 37.54 40.5 37 40.5L11 40.5C10.46 40.5 9.94 40.4 9.45 40.19C8.97 39.98 8.54 39.7 8.17 39.33C7.8 38.96 7.52 38.53 7.31 38.05ZM22.8155 30.42L22.9655 31.24L25.8155 26.82C25.9655 26.6 26.0155 26.37 25.9655 26.11C25.9255 25.85 25.7955 25.64 25.5955 25.49L21.8155 22.58L22.1555 24.95L20.9355 25.62C18.7955 26.78 17.0355 28.45 15.6755 30.6C15.4255 30.99 15.1955 31.4 14.9755 31.81C17.2055 30.1 19.0255 29.09 20.4455 28.8L22.4655 28.39L22.8155 30.42ZM21.4755 20.13L21.4855 20.16C21.4755 20.15 21.4755 20.14 21.4755 20.13Z" fill-rule="evenodd"  fill="#000000" >
</path>
</svg>
