<svg xmlns="http://www.w3.org/2000/svg" xmlns:xlink="http://www.w3.org/1999/xlink" width="48" height="48" viewBox="0 0 48 48" fill="none">
<path d="M2 36L2 12C2 7.58172 5.58172 4 10 4L17.31 4C19.7012 4 21.6924 4.89327 23.2835 6.67982L28.8985 13L36 13C40.4183 13 44 16.5817 44 21L44 21.5L40 21.5L40 21C40 18.7909 38.2091 17 36 17L28 17C27.4285 17 26.8844 16.7555 26.5048 16.3283L20.2965 9.34018C19.5008 8.44673 18.5053 8 17.31 8L10 8C7.79086 8 6 9.79086 6 12L6 28.9545L3.0473 39.9601C2.38083 38.7924 2 37.4407 2 36ZM4.70834 42C6.11861 43.2447 7.9711 44 10 44L36 44C40.4183 44 44 40.4183 44 36L44 31.75L41 42L4.70834 42Z" fill-rule="evenodd"  fill="#787878" >
</path>
<path d="M4.87651 25.427L2.59603 33.927C1.23268 39.0085 5.06149 44 10.3228 44L36.5052 44C37.3823 44 38.2351 43.8601 39.0636 43.5804C39.8721 43.3074 40.6183 42.9147 41.3022 42.4022C41.9862 41.8898 42.5727 41.284 43.0617 40.5847C43.5629 39.8681 43.9367 39.0889 44.1831 38.2472L46.6709 29.7472C48.1699 24.6256 44.3294 19.5 38.993 19.5L12.6032 19.5C11.71 19.5 10.8424 19.6449 10.0004 19.9347C9.17956 20.2173 8.42414 20.6232 7.73418 21.1524C7.04423 21.6816 6.45645 22.3061 5.97084 23.0257C5.47275 23.7638 5.10797 24.5643 4.87651 25.427ZM10.3228 40C7.69213 40 5.77772 37.5043 6.4594 34.9635L8.73988 26.4635C8.85576 26.0316 9.03797 25.6315 9.28653 25.2631C9.52925 24.9035 9.82331 24.5912 10.1687 24.3262C10.5141 24.0612 10.892 23.8582 11.3023 23.7169C11.7224 23.5723 12.1561 23.5 12.6032 23.5L38.993 23.5C41.6612 23.5 43.5814 26.0628 42.8319 28.6236L40.3441 37.1236C40.2209 37.5449 40.0341 37.9344 39.7839 38.2921C39.5395 38.6416 39.2461 38.9446 38.9037 39.2011C38.5614 39.4576 38.1882 39.6541 37.784 39.7906C37.3705 39.9302 36.9442 40 36.5052 40L10.3228 40Z" fill-rule="evenodd"  fill="#424242" >
</path>
</svg>
