<svg xmlns="http://www.w3.org/2000/svg" xmlns:xlink="http://www.w3.org/1999/xlink" width="48" height="48" viewBox="0 0 48 48" fill="none">
<path d="M22.5506 41.4739C22.867 41.9621 23.2898 42.3272 23.8188 42.569C24.3416 42.808 24.8872 42.8907 25.4554 42.8173C26.0317 42.7428 26.5435 42.5192 26.9907 42.1464L42.6806 28.8981C43.233 28.4295 43.6629 27.8718 43.9703 27.225C44.2819 26.5697 44.4418 25.879 44.4502 25.153C44.4667 24.4472 44.3312 23.7616 44.0436 23.0964C43.7578 22.435 43.3477 21.8622 42.8133 21.378L27.0877 7.04202C26.6418 6.64218 26.128 6.39572 25.5463 6.30265C24.9671 6.20997 24.4071 6.28053 23.8665 6.51431C23.3117 6.76083 22.8729 7.13403 22.5501 7.63392C22.2303 8.12932 22.0703 8.67136 22.0703 9.26003L22.0703 16.3289C19.5971 17.0379 17.2764 18.1461 15.108 19.6535C12.8954 21.1918 10.874 23.1233 9.04389 25.4479C7.57948 27.3081 6.26584 29.3824 5.10296 31.6709C4.25662 33.3365 3.52315 35.0466 2.90254 36.8012C2.69165 37.3636 2.65847 37.9359 2.80301 38.5181C2.95088 39.1139 3.25803 39.6128 3.72447 40.0148C4.1906 40.4167 4.73059 40.6471 5.34444 40.7059C5.95973 40.7649 6.53434 40.6407 7.06828 40.3332L7.11832 40.3044L7.16661 40.2728C9.94568 38.4516 12.6167 36.9345 15.1796 35.7215C16.902 34.9065 18.4835 34.2795 19.924 33.8405C20.689 33.6075 21.4045 33.4302 22.0703 33.3086L22.0703 39.85C22.0703 40.4384 22.2304 40.9797 22.5506 41.4739ZM13.4686 32.106C11.6555 32.964 9.79747 33.9612 7.89453 35.0974C8.13992 34.5542 8.39807 34.0161 8.66899 33.4829C9.71262 31.4291 10.8852 29.5755 12.1868 27.9221C13.7707 25.9103 15.5055 24.2488 17.3913 22.9378C19.5753 21.4195 21.9406 20.3889 24.4872 19.8461L26.0703 19.5086L26.0703 11.5272L40.1273 24.342C40.3499 24.5437 40.4576 24.7987 40.4504 25.107C40.4471 25.4016 40.3303 25.6466 40.1 25.8419L26.0703 37.6884L26.0703 29.11L24.0703 29.11C21.2229 29.11 17.689 30.1087 13.4686 32.106Z" fill-rule="evenodd"  fill="#000000" >
</path>
</svg>
