<svg xmlns="http://www.w3.org/2000/svg" xmlns:xlink="http://www.w3.org/1999/xlink" width="48" height="48" viewBox="0 0 48 48" fill="none">
<path d="M27.57 7.16C27.55 7.15 27.52 7.14 27.5 7.13L27.5 13C27.5 13.54 27.6 14.06 27.81 14.55C28.02 15.03 28.3 15.46 28.67 15.83C29.04 16.2 29.47 16.48 29.95 16.69C30.44 16.9 30.96 17 31.5 17L36.91 17C36.89 16.95 36.87 16.91 36.86 16.86C36.76 16.62 36.62 16.41 36.45 16.22L28.23 7.62C28.05 7.42 27.83 7.27 27.57 7.16ZM25.2785 24.98C25.6785 25.22 25.9885 25.56 26.2185 25.99L29.6385 32.82C29.8085 33.15 29.8885 33.51 29.8685 33.88C29.8585 34.25 29.7585 34.59 29.5685 34.9C29.3885 35.21 29.1485 35.47 28.8485 35.66C28.4885 35.89 28.0985 36 27.6785 36L26 35.9977L26 41L33 41C33.54 41 34.06 40.9 34.55 40.69C35.03 40.48 35.46 40.2 35.83 39.83C36.2 39.46 36.48 39.03 36.69 38.55C36.9 38.06 37 37.54 37 37L37 21L31.5 21C30.42 21 29.38 20.79 28.39 20.37C27.55 20.02 26.8 19.53 26.13 18.92C26.03 18.84 25.94 18.75 25.84 18.66C25.15 17.96 24.61 17.18 24.21 16.29C24.18 16.23 24.16 16.17 24.13 16.11C23.74 15.18 23.53 14.21 23.5 13.2L23.5 7L15 7C14.46 7 13.94 7.1 13.45 7.31C12.97 7.52 12.54 7.8 12.17 8.17C11.8 8.54 11.52 8.97 11.31 9.45C11.1 9.94 11 10.46 11 11L11 37C11 37.54 11.1 38.06 11.31 38.55C11.52 39.03 11.8 39.46 12.17 39.83C12.54 40.2 12.97 40.48 13.45 40.69C13.94 40.9 14.46 41 15 41L22 41L22 35.9923L20.3185 35.99C19.9385 35.99 19.5785 35.89 19.2385 35.7C18.9885 35.56 18.7685 35.38 18.5885 35.15L18.5385 35.08L18.4885 35.01C18.2585 34.67 18.1385 34.29 18.1185 33.87C18.1085 33.5 18.1785 33.14 18.3485 32.81L21.7485 26L21.7585 25.98L21.7685 25.95C21.9885 25.54 22.2985 25.21 22.6985 24.97C23.0985 24.74 23.5285 24.62 23.9885 24.62C24.4585 24.62 24.8885 24.74 25.2785 24.98ZM31.13 4.86C30.57 4.27 29.91 3.81 29.15 3.49C28.62 3.26 28.07 3.11 27.5 3.04L27.5 3L15 3C13.92 3 12.88 3.21 11.89 3.63C10.93 4.04 10.08 4.61 9.34 5.34C8.61 6.08 8.04 6.93 7.63 7.89C7.21 8.88 7 9.92 7 11L7 37C7 38.08 7.21 39.12 7.63 40.11C8.04 41.07 8.61 41.92 9.34 42.66C10.08 43.39 10.93 43.96 11.89 44.37C12.88 44.79 13.92 45 15 45L33 45C34.08 45 35.12 44.79 36.11 44.37C37.07 43.96 37.92 43.39 38.66 42.66C39.39 41.92 39.96 41.07 40.37 40.11C40.79 39.12 41 38.08 41 37L41 17L40.97 17C40.91 16.44 40.78 15.89 40.57 15.36C40.28 14.65 39.87 14.01 39.33 13.46L31.13 4.86Z" fill-rule="evenodd"  fill="#000000" >
</path>
</svg>
