<svg xmlns="http://www.w3.org/2000/svg" xmlns:xlink="http://www.w3.org/1999/xlink" width="48" height="48" viewBox="0 0 48 48" fill="none">
<path d="M28 15L21.7901 8.01382C20.6515 6.73289 19.0194 6 17.3056 6L10 6C6.68629 6 4 8.68629 4 12L4 36C4 39.31 6.69 42 10 42L36 42C39.31 42 42 39.31 42 36L42 21C42 17.69 39.31 15 36 15L28 15Z" fill-rule="evenodd"  fill="#FEEDBD" >
</path>
<path d="M28.8981 13L36 13C40.4183 13 44 16.5817 44 21L44 36C44 40.4183 40.4183 44 36 44L10 44C5.58172 44 2 40.4183 2 36L2 12C2 7.58172 5.58172 4 10 4L17.3056 4C19.7007 4 21.6938 4.89503 23.2849 6.6851L28.8981 13ZM20.2953 9.34254L26.5052 16.3287C26.8847 16.7557 27.4287 17 28 17L36 17C38.2091 17 40 18.7909 40 21L40 36C40 38.2091 38.2091 40 36 40L10 40C7.79086 40 6 38.2091 6 36L6 12C6 9.79086 7.79086 8 10 8L17.3056 8C18.5031 8 19.4997 8.44751 20.2953 9.34254Z" fill-rule="evenodd"  fill="#FA9E14" >
</path>
<path d="M10.3217 42L36.5041 42C39.1687 42 41.514 40.2427 42.2625 37.6854L44.7503 29.1854C45.8746 25.3442 42.9942 21.5 38.9919 21.5L12.6021 21.5C9.88724 21.5 7.51061 23.323 6.8071 25.9452L4.52661 34.4452C3.5041 38.2564 6.37571 42 10.3217 42Z"   fill="#FCCB68" >
</path>
<path d="M4.87651 25.427L2.59603 33.927C1.23268 39.0085 5.06149 44 10.3228 44L36.5052 44C40.5013 44 43.0606 42.0824 44.1831 38.2472L46.6709 29.7472C48.1699 24.6256 44.3294 19.5 38.993 19.5L12.6032 19.5C8.51219 19.5 5.93662 21.4757 4.87651 25.427ZM10.3228 40C7.69213 40 5.77772 37.5043 6.4594 34.9635L8.73988 26.4635C9.26994 24.4878 10.5577 23.5 12.6032 23.5L38.993 23.5C41.6612 23.5 43.5814 26.0628 42.8319 28.6236L40.3441 37.1236C39.7829 39.0412 38.5033 40 36.5052 40L10.3228 40Z" fill-rule="evenodd"  fill="#FA9E14" >
</path>
</svg>
