<svg xmlns="http://www.w3.org/2000/svg" xmlns:xlink="http://www.w3.org/1999/xlink" width="48" height="48" viewBox="0 0 48 48" fill="none">
<path d="M21.0002 43.0002C21.0001 44.1048 20.1046 45.0001 19 45C17.8954 44.9999 17.0001 44.1044 17.0002 42.9998L17.0016 28.9998C17.0017 27.8952 17.8972 26.9998 19.0018 27C20.1064 27.0001 21.0017 27.8956 21.0016 29.0002L21.0002 43.0002ZM31.0002 43.0002C31.0001 44.1048 30.1046 45.0001 29 45C27.8954 44.9999 27.0001 44.1044 27.0002 42.9998L27.0016 28.9998C27.0017 27.8952 27.8972 26.9998 29.0018 27C30.1064 27.0001 31.0017 27.8956 31.0016 29.0002L31.0002 43.0002Z" fill-rule="evenodd"  fill="#787878" >
</path>
<path d="M9 31.001C7.89543 31.001 7 30.1055 7 29.001C7 27.8964 7.89543 27.001 9 27.001L39 27.001C40.1046 27.001 41 27.8964 41 29.001C41 30.1055 40.1046 31.001 39 31.001L9 31.001ZM9 38.001C7.89543 38.001 7 37.1056 7 36.001C7 34.8964 7.89543 34.001 9 34.001L39 34.001C40.1046 34.001 41 34.8964 41 36.001C41 37.1056 40.1046 38.001 39 38.001L9 38.001Z" fill-rule="evenodd"  fill="#424242" >
</path>
<path d="M25.5 3L15 3C10.5817 3 7 6.58172 7 11L7 37C7 41.4183 10.5817 45 15 45L33 45C37.4183 45 41 41.4183 41 37L41 17L40.9703 17C40.9147 16.442 40.7811 15.899 40.5696 15.3711C40.2827 14.655 39.8728 14.0178 39.3401 13.4598L31.1285 4.85714C31.04 4.76445 30.9493 4.67505 30.8562 4.58896C30.3911 4.15871 29.8687 3.81101 29.289 3.54585C29.2427 3.52463 29.1959 3.50395 29.1488 3.48379C28.9603 3.40316 28.7698 3.3326 28.5773 3.27213C28.2251 3.16153 27.866 3.08464 27.5 3.04147L27.5 3L25.5 3ZM36.9072 17C36.9065 16.998 36.9059 16.996 36.9053 16.9941C36.8907 16.9486 36.8744 16.9035 36.8565 16.8588C36.7609 16.6201 36.6243 16.4077 36.4467 16.2217L28.2351 7.61905C28.2115 7.59434 28.1874 7.57033 28.1629 7.54703C27.9909 7.38393 27.795 7.25533 27.5752 7.16126C27.5503 7.15058 27.5252 7.14043 27.5 7.13082L27.5 13C27.5 15.2091 29.2909 17 31.5 17L36.9072 17ZM23.5 13L23.5 7L15 7C12.7909 7 11 8.79086 11 11L11 37C11 39.2091 12.7909 41 15 41L33 41C35.2091 41 37 39.2091 37 37L37 21L31.5 21C27.0817 21 23.5 17.4183 23.5 13Z" fill-rule="evenodd"  fill="#787878" >
</path>
</svg>
