<svg xmlns="http://www.w3.org/2000/svg" xmlns:xlink="http://www.w3.org/1999/xlink" width="48" height="48" viewBox="0 0 48 48" fill="none">
<path d="M39 37L39 19L39 17.6C39 16.57 38.6 15.58 37.89 14.84L29.68 6.24C28.93 5.45 27.88 5 26.79 5L25.5 5L15 5C11.69 5 9 7.69 9 11L9 37C9 40.31 11.69 43 15 43L33 43C36.31 43 39 40.31 39 37Z"   fill="#AFECDA" >
</path>
<path d="M7 11L7 37C7 41.4183 10.5817 45 15 45L33 45C37.4183 45 41 41.4183 41 37L41 17.6026C41 16 40.4467 14.6191 39.3401 13.4598L31.1285 4.85714C29.9467 3.61905 28.5 3 26.7884 3L15 3C10.5817 3 7 6.58172 7 11ZM15 41C12.7909 41 11 39.2091 11 37L11 11C11 8.79086 12.7909 7 15 7L26.7884 7C27.3589 7 27.8412 7.20635 28.2351 7.61905L36.4467 16.2217C36.8156 16.6081 37 17.0684 37 17.6026L37 37C37 39.2091 35.2091 41 33 41L15 41Z" fill-rule="evenodd"  fill="#51C5AA" >
</path>
<path d="M10.8457 33.7717C10.5437 34.4931 9.83104 35 9 35C7.89543 35 7 34.1046 7 33C7 32.6965 7.06761 32.4087 7.1886 32.151C8.4235 29.3837 11.1106 28 15.25 28C17.3601 28 19.8577 29.1444 22.7429 31.4331C24.9002 33.1444 26.5692 34 27.75 34C30.1486 34 31.6167 33.4094 32.1543 32.2283C32.4563 31.5069 33.169 31 34 31C35.1046 31 36 31.8954 36 33C36 33.3035 35.9324 33.5913 35.8114 33.849C34.5765 36.6163 31.8893 38 27.75 38C25.6399 38 23.1423 36.8556 20.2571 34.5669C18.0998 32.8556 16.4308 32 15.25 32C12.8514 32 11.3833 32.5906 10.8457 33.7717Z" fill-rule="evenodd"  fill="#51C5AA" >
</path>
<path d="M18.5 18C16.57 18 15 19.57 15 21.5C15 23.43 16.57 25 18.5 25C20.43 25 22 23.43 22 21.5C22 19.57 20.43 18 18.5 18Z"   fill="#51C5AA" >
</path>
<path d="M18.5 27C21.5376 27 24 24.5376 24 21.5C24 18.4624 21.5376 16 18.5 16C15.4624 16 13 18.4624 13 21.5C13 24.5376 15.4624 27 18.5 27ZM18.5 20C19.3284 20 20 20.6716 20 21.5C20 22.3284 19.3284 23 18.5 23C17.6716 23 17 22.3284 17 21.5C17 20.6716 17.6716 20 18.5 20Z" fill-rule="evenodd"  fill="#0D9E86" >
</path>
<path d="M25.5 13C25.5 16.3137 28.1863 19 31.5 19L36.6324 19C37.94 19 39 17.94 39 16.6324C39 16.2265 38.8436 15.8362 38.5633 15.5426L28.9598 5.48165C28.6661 5.17404 28.2594 5 27.8342 5C26.545 5 25.5 6.04503 25.5 7.33415L25.5 13Z"   fill="#51C5AA" >
</path>
<path d="M26.7884 3L25.5 3L25.5 7L26.7884 7C27.3589 7 27.8412 7.20635 28.2351 7.61905L36.4467 16.2217C36.8156 16.6081 37 17.0684 37 17.6026L37 19L41 19L41 17.6026C41 16 40.4467 14.6191 39.3401 13.4598L31.1285 4.85715C29.9467 3.61905 28.5 3 26.7884 3Z" fill-rule="evenodd"  fill="#51C5AA" >
</path>
<path d="M27.5 13L27.5 3L23.5 3L23.5 13C23.5 17.4183 27.0817 21 31.5 21L41 21L41 17L31.5 17C29.2909 17 27.5 15.2091 27.5 13Z" fill-rule="evenodd"  fill="#51C5AA" >
</path>
</svg>
