<svg xmlns="http://www.w3.org/2000/svg" xmlns:xlink="http://www.w3.org/1999/xlink" width="48" height="48" viewBox="0 0 48 48" fill="none">
<path d="M25.5 3L15 3C10.5817 3 7 6.58172 7 11L7 37C7 41.4183 10.5817 45 15 45L33 45C37.4183 45 41 41.4183 41 37L41 17L40.9703 17C40.9147 16.442 40.7811 15.899 40.5696 15.3711C40.2827 14.655 39.8728 14.0178 39.3401 13.4598L31.1285 4.85714C31.04 4.76445 30.9493 4.67505 30.8562 4.58896C30.3911 4.15871 29.8687 3.81101 29.289 3.54585C29.2427 3.52463 29.1959 3.50395 29.1488 3.48379C28.9603 3.40316 28.7698 3.3326 28.5773 3.27213C28.2251 3.16153 27.866 3.08464 27.5 3.04147L27.5 3L25.5 3ZM36.9072 17C36.9065 16.998 36.9059 16.996 36.9053 16.9941C36.8907 16.9486 36.8744 16.9035 36.8565 16.8588C36.7609 16.6201 36.6243 16.4077 36.4467 16.2217L28.2351 7.61905C28.2115 7.59434 28.1874 7.57033 28.1629 7.54703C27.9909 7.38393 27.795 7.25533 27.5752 7.16126C27.5503 7.15058 27.5252 7.14043 27.5 7.13082L27.5 13C27.5 15.2091 29.2909 17 31.5 17L36.9072 17ZM23.5 13L23.5 7L15 7C12.7909 7 11 8.79086 11 11L11 37C11 39.2091 12.7909 41 15 41L33 41C35.2091 41 37 39.2091 37 37L37 21L31.5 21C27.0817 21 23.5 17.4183 23.5 13Z" fill-rule="evenodd"  fill="#787878" >
</path>
<path d="M28 28L31 28C33.2091 28 35 29.7909 35 32L35 35C35 37.2091 33.2091 39 31 39L28 39C25.7909 39 24 37.2091 24 35L24 32C24 29.7909 25.7909 28 28 28ZM13.0004 31.0015C13.0006 32.1061 13.8962 33.0013 15.0008 33.0011L19.0008 33.0003C20.1054 33.0001 21.0006 32.1045 21.0004 30.9999C21.0002 29.8953 20.1046 29.0001 19 29.0003L15 29.0011C13.8954 29.0013 13.0002 29.8969 13.0004 31.0015ZM28 32L28 35L31 35L31 32L28 32ZM13.0004 37.0012C13.0006 38.1058 13.8962 39.001 15.0008 39.0008L21.0008 38.9996C22.1054 38.9994 23.0006 38.1038 23.0004 36.9992C23.0002 35.8946 22.1046 34.9994 21 34.9996L15 35.0008C13.8954 35.001 13.0002 35.8966 13.0004 37.0012Z" fill-rule="evenodd"  fill="#424242" >
</path>
</svg>
