<svg xmlns="http://www.w3.org/2000/svg" xmlns:xlink="http://www.w3.org/1999/xlink" width="48" height="48" viewBox="0 0 48 48" fill="none">
<path d="M39 37L39 19L39 17.6C39 16.57 38.6 15.58 37.89 14.84L29.68 6.24C28.93 5.45 27.88 5 26.79 5L25.5 5L15 5C11.69 5 9 7.69 9 11L9 37C9 40.31 11.69 43 15 43L33 43C36.31 43 39 40.31 39 37Z"   fill="#BEDCFF" >
</path>
<path d="M7 11L7 37C7 41.4183 10.5817 45 15 45L33 45C37.4183 45 41 41.4183 41 37L41 17.6026C41 16 40.4467 14.6191 39.3401 13.4598L31.1285 4.85714C29.9467 3.61905 28.5 3 26.7884 3L15 3C10.5817 3 7 6.58172 7 11ZM15 41C12.7909 41 11 39.2091 11 37L11 11C11 8.79086 12.7909 7 15 7L26.7884 7C27.3589 7 27.8412 7.20635 28.2351 7.61905L36.4467 16.2217C36.8156 16.6081 37 17.0684 37 17.6026L37 37C37 39.2091 35.2091 41 33 41L15 41Z" fill-rule="evenodd"  fill="#6BA6FF" >
</path>
<path d="M13.0005 31.0015C13.0008 32.106 13.8964 33.0012 15.001 33.001L19.001 33C20.1055 32.9997 21.0008 32.1041 21.0005 30.9995C21.0002 29.8949 20.1046 28.9997 19 29L15 29.001C13.8954 29.0012 13.0002 29.8969 13.0005 31.0015Z" fill-rule="evenodd"  fill="#1764FF" >
</path>
<path d="M13.0003 37.0013C13.0005 38.1059 13.8961 39.0012 15.0007 39.001L21.0007 39C22.1052 38.9999 23.0005 38.1043 23.0003 36.9997C23.0001 35.8951 22.1046 34.9999 21 35L15 35.001C13.8954 35.0012 13.0001 35.8968 13.0003 37.0013Z" fill-rule="evenodd"  fill="#1764FF" >
</path>
<path d="M28 37L31 37C32.1 37 33 36.1 33 35L33 32C33 30.9 32.1 30 31 30L28 30C26.9 30 26 30.9 26 32L26 35C26 36.1 26.9 37 28 37Z"   fill="#6BA6FF" >
</path>
<path d="M24 35C24 37.2091 25.7909 39 28 39L31 39C33.2091 39 35 37.2091 35 35L35 32C35 29.7909 33.2091 28 31 28L28 28C25.7909 28 24 29.7909 24 32L24 35ZM31 35L28 35L28 32L31 32L31 35Z" fill-rule="evenodd"  fill="#1764FF" >
</path>
<path d="M25.5 13C25.5 16.3137 28.1863 19 31.5 19L36.6324 19C37.94 19 39 17.94 39 16.6324C39 16.2265 38.8436 15.8362 38.5633 15.5426L28.9598 5.48165C28.6661 5.17404 28.2594 5 27.8342 5C26.545 5 25.5 6.04503 25.5 7.33415L25.5 13Z"   fill="#1764FF" >
</path>
<path d="M26.7884 3L25.5 3L25.5 7L26.7884 7C27.3589 7 27.8412 7.20635 28.2351 7.61905L36.4467 16.2217C36.8156 16.6081 37 17.0684 37 17.6026L37 19L41 19L41 17.6026C41 16 40.4467 14.6191 39.3401 13.4598L31.1285 4.85715C29.9467 3.61905 28.5 3 26.7884 3Z" fill-rule="evenodd"  fill="#1764FF" >
</path>
<path d="M27.5 13L27.5 3L23.5 3L23.5 13C23.5 17.4183 27.0817 21 31.5 21L41 21L41 17L31.5 17C29.2909 17 27.5 15.2091 27.5 13Z" fill-rule="evenodd"  fill="#1764FF" >
</path>
</svg>
