<svg xmlns="http://www.w3.org/2000/svg" xmlns:xlink="http://www.w3.org/1999/xlink" width="48" height="48" viewBox="0 0 48 48" fill="none">
<path d="M39 37L39 19L39 17.6C39 16.57 38.6 15.58 37.89 14.84L29.68 6.24C28.93 5.45 27.88 5 26.79 5L25.5 5L15 5C11.69 5 9 7.69 9 11L9 37C9 40.31 11.69 43 15 43L33 43C36.31 43 39 40.31 39 37Z"   fill="#FFC7BF" >
</path>
<path d="M7 11L7 37C7 41.4183 10.5817 45 15 45L33 45C37.4183 45 41 41.4183 41 37L41 17.6026C41 16 40.4467 14.6191 39.3401 13.4598L31.1285 4.85714C29.9467 3.61905 28.5 3 26.7884 3L15 3C10.5817 3 7 6.58172 7 11ZM15 41C12.7909 41 11 39.2091 11 37L11 11C11 8.79086 12.7909 7 15 7L26.7884 7C27.3589 7 27.8412 7.20635 28.2351 7.61905L36.4467 16.2217C36.8156 16.6081 37 17.0684 37 17.6026L37 37C37 39.2091 35.2091 41 33 41L15 41Z" fill-rule="evenodd"  fill="#FF766C" >
</path>
<path d="M21 39C22.1046 39.0001 23.0001 38.1047 23.0001 37.0002L23.0011 23.0002C23.0012 21.8956 22.1058 21.0001 21.0013 21C19.8967 20.9999 19.0012 21.8953 19.0011 22.9999L19.0001 36.9999C19.0001 38.1044 19.8954 38.9999 21 39Z" fill-rule="evenodd"  fill="#FF1A1A" >
</path>
<path d="M33 36.5C34.1046 36.5001 35.0001 35.6047 35.0001 34.5001L35.0007 25.5001C35.0008 24.3955 34.1055 23.5001 33.0009 23.5C31.8963 23.4999 31.0008 24.3953 31.0007 25.4999L31.0001 34.4999C31.0001 35.6044 31.8954 36.4999 33 36.5Z" fill-rule="evenodd"  fill="#FF766C" >
</path>
<path d="M15 36C16.1046 36.0001 17.0001 35.1048 17.0002 34.0002L17.0008 26.0002C17.0008 24.8956 16.1055 24.0001 15.0009 24C13.8963 23.9999 13.0008 24.8953 13.0008 25.9999L13.0002 33.9999C13.0001 35.1044 13.8954 35.9999 15 36Z" fill-rule="evenodd"  fill="#FF4943" >
</path>
<path d="M27 35C28.1046 35.0001 29.0001 34.1048 29.0002 33.0002L29.0007 27.0002C29.0007 25.8956 28.1054 25.0001 27.0008 25C25.8962 25 25.0007 25.8953 25.0007 26.9999L25.0002 32.9999C25.0001 34.1044 25.8954 35 27 35Z" fill-rule="evenodd"  fill="#FF4943" >
</path>
<path d="M25.5 13C25.5 16.3137 28.1863 19 31.5 19L36.6324 19C37.94 19 39 17.94 39 16.6324C39 16.2265 38.8436 15.8362 38.5633 15.5426L28.9598 5.48165C28.6661 5.17404 28.2594 5 27.8342 5C26.545 5 25.5 6.04503 25.5 7.33415L25.5 13Z"   fill="#FF766C" >
</path>
<path d="M26.7884 3L25.5 3L25.5 7L26.7884 7C27.3589 7 27.8412 7.20635 28.2351 7.61905L36.4467 16.2217C36.8156 16.6081 37 17.0684 37 17.6026L37 19L41 19L41 17.6026C41 16 40.4467 14.6191 39.3401 13.4598L31.1285 4.85715C29.9467 3.61905 28.5 3 26.7884 3Z" fill-rule="evenodd"  fill="#FF766C" >
</path>
<path d="M27.5 13L27.5 3L23.5 3L23.5 13C23.5 17.4183 27.0817 21 31.5 21L41 21L41 17L31.5 17C29.2909 17 27.5 15.2091 27.5 13Z" fill-rule="evenodd"  fill="#FF766C" >
</path>
</svg>
