<svg xmlns="http://www.w3.org/2000/svg" xmlns:xlink="http://www.w3.org/1999/xlink" width="48" height="48" viewBox="0 0 48 48" fill="none">
<path d="M39 37L39 19L39 17.6C39 16.57 38.6 15.58 37.89 14.84L29.68 6.24C28.93 5.45 27.88 5 26.79 5L25.5 5L15 5C11.69 5 9 7.69 9 11L9 37C9 40.31 11.69 43 15 43L33 43C36.31 43 39 40.31 39 37Z"   fill="#FEEDBD" >
</path>
<path d="M7 11L7 37C7 41.4183 10.5817 45 15 45L33 45C37.4183 45 41 41.4183 41 37L41 17.6026C41 16 40.4467 14.6191 39.3401 13.4598L31.1285 4.85714C29.9467 3.61905 28.5 3 26.7884 3L15 3C10.5817 3 7 6.58172 7 11ZM15 41C12.7909 41 11 39.2091 11 37L11 11C11 8.79086 12.7909 7 15 7L26.7884 7C27.3589 7 27.8412 7.20635 28.2351 7.61905L36.4467 16.2217C36.8156 16.6081 37 17.0684 37 17.6026L37 37C37 39.2091 35.2091 41 33 41L15 41Z" fill-rule="evenodd"  fill="#FCCB68" >
</path>
<path d="M24.5597 25L18.4397 25C17.7697 25 17.1397 25.34 16.7697 25.9L14.8797 28.78C14.3697 29.55 14.4597 30.57 15.0897 31.25L20.0497 36.47C20.8397 37.3 22.1597 37.3 22.9497 36.47L27.9097 31.25C28.5397 30.57 28.6297 29.55 28.1197 28.78L26.2297 25.9C25.8597 25.34 25.2297 25 24.5597 25Z"   fill="#FCCB68" >
</path>
<path d="M24.4003 37.8502L29.3558 32.6321C30.8148 31.0958 30.9609 29.4433 29.7942 27.6748L27.8958 24.7973C27.1053 23.5991 25.9924 23 24.557 23L18.4426 23C17.0072 23 15.8943 23.5991 15.1038 24.7973L13.2054 27.6748C12.0386 29.4433 12.1848 31.0958 13.6438 32.6321L18.5993 37.8502C20.1764 39.5109 22.8232 39.5109 24.4003 37.8502ZM26.4554 29.8776L26.4553 29.8776L27.9056 31.2548L26.4553 29.8776L21.4998 35.0957L21.4998 35.0957L21.4998 35.0957L16.5443 29.8776L16.5442 29.8776L18.4426 27L18.4426 27L24.557 27L24.5569 27L26.4554 29.8776Z" fill-rule="evenodd"  fill="#FA9E14" >
</path>
<path d="M25.5 13C25.5 16.3137 28.1863 19 31.5 19L36.6324 19C37.94 19 39 17.94 39 16.6324C39 16.2265 38.8436 15.8362 38.5633 15.5426L28.9598 5.48165C28.6661 5.17404 28.2594 5 27.8342 5C26.545 5 25.5 6.04503 25.5 7.33415L25.5 13Z"   fill="#FCCB68" >
</path>
<path d="M26.7884 3L25.5 3L25.5 7L26.7884 7C27.3589 7 27.8412 7.20635 28.2351 7.61905L36.4467 16.2217C36.8156 16.6081 37 17.0684 37 17.6026L37 19L41 19L41 17.6026C41 16 40.4467 14.6191 39.3401 13.4598L31.1285 4.85715C29.9467 3.61905 28.5 3 26.7884 3Z" fill-rule="evenodd"  fill="#FCCB68" >
</path>
<path d="M27.5 13L27.5 3L23.5 3L23.5 13C23.5 17.4183 27.0817 21 31.5 21L41 21L41 17L31.5 17C29.2909 17 27.5 15.2091 27.5 13Z" fill-rule="evenodd"  fill="#FCCB68" >
</path>
</svg>
