<svg xmlns="http://www.w3.org/2000/svg" xmlns:xlink="http://www.w3.org/1999/xlink" width="48" height="48" viewBox="0 0 48 48" fill="none">
<path d="M40.9696 17C40.8353 15.6773 40.2603 14.4251 39.33 13.46L31.13 4.86C30.1644 3.84308 28.8774 3.20589 27.5 3.04206L27.5 13C27.5 15.21 29.29 17 31.5 17L40.9696 17ZM23.5 3L15 3C10.58 3 7 6.58 7 11L7 37C7 41.42 10.58 45 15 45L33 45C37.42 45 41 41.42 41 37L41 21L31.5 21C27.08 21 23.5 17.42 23.5 13L23.5 3ZM13 41C11.9 41 11 40.1 11 39L11 28C11 26.34 12.34 25 14 25L17.5 25C20.54 25 23 27.46 23 30.5C23 33.54 20.54 36 17.5 36L15 36L15 39C15 40.1 14.1 41 13 41ZM33.5 29C33.5 30.1 32.6 31 31.5 31L28 31C27.72 31 27.5 31.22 27.5 31.5C27.5 31.78 27.72 32 28 32L28.98 32C28.9867 32 28.9934 32 29.0001 32.0001L29.02 32L29.5 32C31.99 32 34 34.01 34 36.5C34 38.99 31.99 41 29.5 41L26 41C24.9 41 24 40.1 24 39C24 37.9 24.9 37 26 37L29.5 37C29.78 37 30 36.78 30 36.5C30 36.22 29.78 36 29.5 36L29.02 36L29 35.9999L28.98 36L28 36C25.51 36 23.5 33.99 23.5 31.5C23.5 29.01 25.51 27 28 27L31.5 27C32.6 27 33.5 27.9 33.5 29ZM19 30.5C19 31.33 18.33 32 17.5 32L15 32L15 29L17.5 29C18.33 29 19 29.67 19 30.5Z" fill-rule="evenodd"  fill="#000000" >
</path>
</svg>
