<svg xmlns="http://www.w3.org/2000/svg" xmlns:xlink="http://www.w3.org/1999/xlink" width="48" height="48" viewBox="0 0 48 48" fill="none">
<path d="M11 42.5L37 42.5C40.3137 42.5 43 39.8137 43 36.5L43 19.5C43 16.1863 40.3137 13.5 37 13.5L5 13.5L5 36.5C5 39.8137 7.68629 42.5 11 42.5Z"   fill="#FFC7BF" >
</path>
<path d="M3 13.5L3 36.5C3 40.9183 6.58172 44.5 11 44.5L37 44.5C41.4183 44.5 45 40.9183 45 36.5L45 19.5C45 15.0817 41.4183 11.5 37 11.5L5 11.5C3.89543 11.5 3 12.3954 3 13.5ZM11 40.5C8.79086 40.5 7 38.7091 7 36.5L7 15.5L37 15.5C39.2091 15.5 41 17.2909 41 19.5L41 36.5C41 38.7091 39.2091 40.5 37 40.5L11 40.5Z" fill-rule="evenodd"  fill="#FF1A1A" >
</path>
<path d="M25 30.9641L18.25 34.8612C15.5833 36.4008 12.25 34.4763 12.25 31.3971L12.25 23.6029C12.25 20.5237 15.5833 18.5992 18.25 20.1388L25 24.0359C27.6667 25.5755 27.6667 29.4245 25 30.9641Z"   fill="#FF766C" >
</path>
<path d="M19.25 36.5934L26 32.6963C30 30.3869 30 24.6133 26 22.3039L19.25 18.4068C15.25 16.0974 10.25 18.9841 10.25 23.6029L10.25 31.3972C10.25 36.016 15.25 38.9028 19.25 36.5934ZM24 25.768C25.3333 26.5378 25.3333 28.4624 24 29.2322L17.25 33.1293C15.9167 33.8991 14.25 32.9368 14.25 31.3972L14.25 23.6029C14.25 22.0633 15.9167 21.1011 17.25 21.8709L24 25.768Z" fill-rule="evenodd"  fill="#FF1A1A" >
</path>
<path d="M5 13.5L29 13.5L22.7901 6.51382C21.6515 5.23289 20.0194 4.5 18.3056 4.5L11 4.5C7.68629 4.5 5 7.18629 5 10.5L5 13.5Z"   fill="#FF4943" >
</path>
<path d="M7 11.5L7 10.5C7 8.29086 8.79086 6.5 11 6.5L18.3056 6.5C19.5031 6.5 20.4997 6.94751 21.2952 7.84254L24.5463 11.5L7 11.5ZM11 2.5C6.58172 2.5 3 6.08172 3 10.5L3 13.5C3 14.6046 3.89543 15.5 5 15.5L29 15.5C30.7257 15.5 31.6413 13.4611 30.4948 12.1713L24.2849 5.18509C22.6937 3.39503 20.7006 2.5 18.3056 2.5L11 2.5Z" fill-rule="evenodd"  fill="#FF1A1A" >
</path>
</svg>
