<svg xmlns="http://www.w3.org/2000/svg" xmlns:xlink="http://www.w3.org/1999/xlink" width="48" height="48" viewBox="0 0 48 48" fill="none">
<path d="M31.141 11.3914C31.0428 11.1637 30.9231 10.9455 30.7838 10.739C30.4981 10.309 30.1467 9.95427 29.7274 9.66513L18.5323 2.01555C18.0775 1.7033 17.5847 1.50133 17.0401 1.39218C16.5074 1.29072 15.9759 1.29124 15.4379 1.40559L6.49765 3.3059C5.70535 3.47431 4.97566 3.79299 4.3065 4.25215C3.67647 4.70299 3.13778 5.24688 2.71623 5.90899C2.28282 6.5634 2.00506 7.27674 1.84945 8.03568C1.70216 8.83374 1.70782 9.62996 1.87623 10.4223L6.55425 32.4306C6.72266 33.2229 7.04133 33.9526 7.50049 34.6218C7.95133 35.2518 8.49522 35.7905 9.15734 36.2121C9.81175 36.6455 10.5251 36.9232 11.284 37.0788C12.082 37.2261 12.8783 37.2205 13.6706 37.052L17.0348 36.337C17.0538 35.4822 17.1938 34.6416 17.4605 33.8092L18.0285 32.0364L12.8389 33.1395C12.5748 33.1956 12.3101 33.2007 12.0427 33.1451C11.7872 33.0972 11.5527 33.0039 11.3371 32.8555C11.1138 32.7189 10.9332 32.5426 10.7855 32.3287C10.6259 32.107 10.523 31.8631 10.4668 31.599L5.78883 9.59062C5.73269 9.32652 5.72754 9.0618 5.78316 8.79439C5.83107 8.53885 5.92435 8.30433 6.07278 8.08876C6.20934 7.86549 6.38564 7.68488 6.59961 7.53717C6.82128 7.3776 7.0652 7.27463 7.3293 7.2185L12.22 6.17894L13.9145 14.1509C14.0921 14.8901 14.4003 15.5709 14.8295 16.1953C14.8574 16.2303 14.8874 16.275 14.9153 16.31C15.3459 16.8932 15.8696 17.3851 16.4864 17.7856C17.1408 18.219 17.8541 18.4967 18.6131 18.6524C18.7192 18.6707 18.8135 18.6813 18.9098 18.7017C19.6053 18.7993 20.3052 18.7732 20.9997 18.6256L22.4224 18.3232L22.6386 17.6485C23.0108 16.4867 23.5964 15.4457 24.3857 14.5226C24.6597 14.2026 24.9544 13.9045 25.2685 13.6288L20.168 14.713C19.9039 14.7691 19.6392 14.7743 19.3718 14.7186C19.362 14.7207 19.3404 14.7151 19.3285 14.7074C19.0925 14.6553 18.8699 14.5697 18.6662 14.429C18.4429 14.2925 18.2623 14.1162 18.1146 13.9022C17.955 13.6805 17.852 13.4366 17.7959 13.1725L16.1326 5.34729L16.2695 5.31818L26.8397 12.525C26.9243 12.4781 27.0099 12.4324 27.0963 12.3879C28.1305 11.8477 29.24 11.5311 30.4058 11.4321C30.6517 11.4079 30.8967 11.3944 31.141 11.3914Z" fill-rule="evenodd"  fill="#000000" >
</path>
<path d="M41.184 43.0065C41.7109 42.3937 42.0984 41.7001 42.3465 40.9258L46.1371 29.0984C46.2481 28.752 46.2943 28.396 46.2755 28.0304C46.2567 27.6614 46.1732 27.3092 46.0249 26.9741L42.5234 18.9501C42.3563 18.5573 42.1103 18.2144 41.7854 17.9213C41.4671 17.6343 41.102 17.4247 40.6902 17.2928L32.8719 14.7871C32.0977 14.539 31.3081 14.4512 30.5032 14.5237C29.7265 14.5937 28.9905 14.8076 28.2952 15.1654C27.5998 15.5232 26.998 15.9978 26.4896 16.589C25.9627 17.2019 25.5752 17.8954 25.327 18.6697L20.4439 33.9063C20.1957 34.6806 20.1079 35.4702 20.1804 36.2751C20.2504 37.0517 20.4643 37.7877 20.8221 38.4831C21.18 39.1784 21.6545 39.7803 22.2458 40.2887C22.8586 40.8156 23.5522 41.2031 24.3264 41.4512L34.8016 44.8084C35.5759 45.0565 36.3655 45.1444 37.1704 45.0718C37.9471 45.0018 38.683 44.788 39.3784 44.4302C40.0737 44.0723 40.6756 43.5978 41.184 43.0065ZM35.6127 19.8659L31.6512 18.5963C31.3917 18.5131 31.1286 18.4835 30.8621 18.5076C30.6037 18.5308 30.3581 18.6023 30.1254 18.7221C29.8927 18.8418 29.6918 19.0001 29.5227 19.1968C29.3482 19.3998 29.2193 19.631 29.1362 19.8905L24.253 35.1271C24.1699 35.3866 24.1403 35.6496 24.1643 35.9162C24.1876 36.1746 24.2591 36.4201 24.3789 36.6528C24.4986 36.8855 24.6568 37.0864 24.8535 37.2556C25.0565 37.4301 25.2877 37.5589 25.5472 37.6421L36.0224 40.9992C36.2819 41.0824 36.5449 41.112 36.8115 41.088C37.0699 41.0647 37.3155 40.9931 37.5481 40.8734C37.7808 40.7537 37.9818 40.5955 38.1509 40.3987C38.3254 40.1957 38.4542 39.9645 38.5374 39.7051L41.0705 31.801L38.366 30.9343C37.6886 30.7172 37.0729 30.3934 36.519 29.9628C36.4398 29.9013 36.362 29.8376 36.2854 29.7717C35.6941 29.2633 35.2196 28.6615 34.8617 27.9661C34.5263 27.3142 34.3173 26.6266 34.2348 25.9033C34.2293 25.8551 34.2244 25.8067 34.22 25.7582C34.1475 24.9532 34.2353 24.1636 34.4835 23.3894L35.6127 19.8659ZM39.2819 21.5232L38.2926 24.6102C38.2198 24.8372 38.1881 25.067 38.1974 25.2994C38.1987 25.3327 38.2009 25.3659 38.2039 25.3992C38.2272 25.6576 38.2987 25.9032 38.4185 26.1359C38.5307 26.354 38.6768 26.5443 38.8567 26.7066C38.8687 26.7174 38.8809 26.7281 38.8932 26.7387C39.0961 26.9131 39.3273 27.042 39.5868 27.1251L42.0745 27.9224L39.2819 21.5232Z" fill-rule="evenodd"  fill="#000000" >
</path>
</svg>
