<svg xmlns="http://www.w3.org/2000/svg" xmlns:xlink="http://www.w3.org/1999/xlink" width="48" height="48" viewBox="0 0 48 48" fill="none">
<path d="M39 37L39 19L39 17.6C39 16.57 38.6 15.58 37.89 14.84L29.68 6.24C28.93 5.45 27.88 5 26.79 5L25.5 5L15 5C11.69 5 9 7.69 9 11L9 37C9 40.31 11.69 43 15 43L33 43C36.31 43 39 40.31 39 37Z"   fill="#BEDCFF" >
</path>
<path d="M7 11L7 37C7 41.4183 10.5817 45 15 45L33 45C37.4183 45 41 41.4183 41 37L41 17.6026C41 16 40.4467 14.6191 39.3401 13.4598L31.1285 4.85714C29.9467 3.61905 28.5 3 26.7884 3L15 3C10.5817 3 7 6.58172 7 11ZM15 41C12.7909 41 11 39.2091 11 37L11 11C11 8.79086 12.7909 7 15 7L26.7884 7C27.3589 7 27.8412 7.20635 28.2351 7.61905L36.4467 16.2217C36.8156 16.6081 37 17.0684 37 17.6026L37 37C37 39.2091 35.2091 41 33 41L15 41Z" fill-rule="evenodd"  fill="#6BA6FF" >
</path>
<path d="M31.5008 30.0001L31.0174 30L31.0167 30C29.9121 30 29.0167 30.8954 29.0167 32C29.0167 33.1045 29.912 33.9998 31.0164 34L31.0167 34L31.5001 34.0001C31.8334 34.0001 32 34.1668 32 34.5C32 34.7762 31.7762 35 31.5 35L28 35C26.8954 35 26 35.8954 26 37C26 38.1046 26.8954 39 28 39L31.5 39C33.9853 39 36 36.9853 36 34.5C36 33.2575 35.5607 32.197 34.6823 31.3183C33.8038 30.4397 32.7433 30.0003 31.5008 30.0001Z" fill-rule="evenodd"  fill="#1764FF" >
</path>
<path d="M29.9998 34L30.9833 34C32.0879 34 32.9833 33.1046 32.9833 32C32.9833 30.8954 32.0879 30 30.9833 30L29.9998 30C29.7238 30 29.5 29.7762 29.5 29.5002C29.5 29.1671 29.6666 29.0005 29.9998 29.0005L33.5 29.0005C34.6046 29.0005 35.5 28.1051 35.5 27.0005C35.5 25.8959 34.6046 25.0005 33.5 25.0005L29.9998 25.0005C28.7572 25.0005 27.6966 25.4398 26.8179 26.3184C25.9393 27.1971 25.5 28.2577 25.5 29.5002C25.5 31.9854 27.5146 34 29.9998 34Z" fill-rule="evenodd"  fill="#1764FF" >
</path>
<path d="M15 32L19.5 32C21.43 32 23 30.43 23 28.5L23 28.5C23 26.57 21.43 25 19.5 25L16 25C15.45 25 15 25.45 15 26L15 32Z"   fill="#6BA6FF" >
</path>
<path d="M13.0009 25.9998L13.0004 31.9586C13.0001 31.9724 13 31.9862 13 32C13 32.0137 13.0001 32.0274 13.0004 32.0411L13 36.9998L13 37C13 38.1046 13.8954 39 15 39C16.1045 39 16.9999 38.1047 17 37.0002L17 37L17.0002 34L19.5 34C22.5376 34 25 31.5376 25 28.5C25 25.4624 22.5376 23 19.5 23L16.0009 23C14.0011 23 13.0011 23.9999 13.0009 25.9998ZM17.0006 30L19.5 30C20.3284 30 21 29.3284 21 28.5C21 27.6716 20.3284 27 19.5 27L17.0008 27L17.0006 30Z" fill-rule="evenodd"  fill="#1764FF" >
</path>
<path d="M25.5 13C25.5 16.3137 28.1863 19 31.5 19L36.6324 19C37.94 19 39 17.94 39 16.6324C39 16.2265 38.8436 15.8362 38.5633 15.5426L28.9598 5.48165C28.6661 5.17404 28.2594 5 27.8342 5C26.545 5 25.5 6.04503 25.5 7.33415L25.5 13Z"   fill="#1764FF" >
</path>
<path d="M26.7884 3L25.5 3L25.5 7L26.7884 7C27.3589 7 27.8412 7.20635 28.2351 7.61905L36.4467 16.2217C36.8156 16.6081 37 17.0684 37 17.6026L37 19L41 19L41 17.6026C41 16 40.4467 14.6191 39.3401 13.4598L31.1285 4.85715C29.9467 3.61905 28.5 3 26.7884 3Z" fill-rule="evenodd"  fill="#1764FF" >
</path>
<path d="M27.5 13L27.5 3L23.5 3L23.5 13C23.5 17.4183 27.0817 21 31.5 21L41 21L41 17L31.5 17C29.2909 17 27.5 15.2091 27.5 13Z" fill-rule="evenodd"  fill="#1764FF" >
</path>
</svg>
