<svg xmlns="http://www.w3.org/2000/svg" xmlns:xlink="http://www.w3.org/1999/xlink" width="48" height="48" viewBox="0 0 48 48" fill="none">
<path d="M11 42.5L37 42.5C40.3137 42.5 43 39.8137 43 36.5L43 19.5C43 16.1863 40.3137 13.5 37 13.5L5 13.5L5 36.5C5 39.8137 7.68629 42.5 11 42.5Z"   fill="#AFECDA" >
</path>
<path d="M3 13.5L3 36.5C3 40.9183 6.58172 44.5 11 44.5L37 44.5C41.4183 44.5 45 40.9183 45 36.5L45 19.5C45 15.0817 41.4183 11.5 37 11.5L5 11.5C3.89543 11.5 3 12.3954 3 13.5ZM11 40.5C8.79086 40.5 7 38.7091 7 36.5L7 15.5L37 15.5C39.2091 15.5 41 17.2909 41 19.5L41 36.5C41 38.7091 39.2091 40.5 37 40.5L11 40.5Z" fill-rule="evenodd"  fill="#0D9E86" >
</path>
<path d="M6.84569 34.7717C6.5437 35.4931 5.83104 36 5 36C3.89543 36 3 35.1046 3 34C3 33.6965 3.06761 33.4087 3.1886 33.151C4.4235 30.3837 7.11064 29 11.25 29C13.3601 29 15.8577 30.1444 18.7429 32.4331C20.9002 34.1444 22.5692 35 23.75 35C26.1486 35 27.6167 34.4094 28.1543 33.2283C28.4563 32.5069 29.169 32 30 32C31.1046 32 32 32.8954 32 34C32 34.3035 31.9324 34.5913 31.8114 34.849C30.5765 37.6163 27.8893 39 23.75 39C21.6399 39 19.1423 37.8556 16.2571 35.5669C14.0998 33.8556 12.4308 33 11.25 33C8.85141 33 7.38331 33.5906 6.84569 34.7717Z" fill-rule="evenodd"  fill="#0D9E86" >
</path>
<path d="M21 22.5C21 24.433 19.433 26 17.5 26C15.567 26 14 24.433 14 22.5C14 20.567 15.567 19 17.5 19C19.433 19 21 20.567 21 22.5Z"   fill="#2CB197" >
</path>
<path d="M17.5 28C20.5376 28 23 25.5376 23 22.5C23 19.4624 20.5376 17 17.5 17C14.4624 17 12 19.4624 12 22.5C12 25.5376 14.4624 28 17.5 28ZM17.5 21C18.3284 21 19 21.6716 19 22.5C19 23.3284 18.3284 24 17.5 24C16.6716 24 16 23.3284 16 22.5C16 21.6716 16.6716 21 17.5 21Z" fill-rule="evenodd"  fill="#0D9E86" >
</path>
<path d="M5 13.5L29 13.5L22.7901 6.51382C21.6515 5.23289 20.0194 4.5 18.3056 4.5L11 4.5C7.68629 4.5 5 7.18629 5 10.5L5 13.5Z"   fill="#2CB197" >
</path>
<path d="M7 11.5L7 10.5C7 8.29086 8.79086 6.5 11 6.5L18.3056 6.5C19.5031 6.5 20.4997 6.94751 21.2952 7.84254L24.5463 11.5L7 11.5ZM11 2.5C6.58172 2.5 3 6.08172 3 10.5L3 13.5C3 14.6046 3.89543 15.5 5 15.5L29 15.5C30.7257 15.5 31.6413 13.4611 30.4948 12.1713L24.2849 5.18509C22.6937 3.39503 20.7006 2.5 18.3056 2.5L11 2.5Z" fill-rule="evenodd"  fill="#0D9E86" >
</path>
</svg>
