<svg xmlns="http://www.w3.org/2000/svg" xmlns:xlink="http://www.w3.org/1999/xlink" width="48" height="48" viewBox="0 0 48 48" fill="none">
<path d="M3 10.5C3 6.08172 6.58172 2.5 11 2.5L18.3056 2.5C19.4481 2.5 20.5406 2.73403 21.5829 3.20208C22.6252 3.67013 23.5258 4.33114 24.2849 5.18509L29.8981 11.5L37 11.5C41.4183 11.5 45 15.0817 45 19.5L45 36.5C45 40.9183 41.4183 44.5 37 44.5L11 44.5C6.58172 44.5 3 40.9183 3 36.5L3 10.5ZM7 11.5L24.5463 11.5L21.2952 7.84254C20.9157 7.41557 20.4653 7.08507 19.9442 6.85104C19.4231 6.61701 18.8769 6.5 18.3056 6.5L11 6.5C8.79086 6.5 7 8.29086 7 10.5L7 11.5ZM7 15.5L7 36.5C7 38.7091 8.79086 40.5 11 40.5L37 40.5C39.2091 40.5 41 38.7091 41 36.5L41 19.5C41 17.2909 39.2091 15.5 37 15.5L7 15.5Z" fill-rule="evenodd"  fill="#787878" >
</path>
<path d="M12.3098 28.4402C11.0884 30.3608 10.1737 32.4861 9.56559 34.816C9.39114 35.4845 9.43894 36.1217 9.70899 36.7277C9.97103 37.3157 10.3895 37.7606 10.9645 38.0623C11.5047 38.3459 12.0802 38.4467 12.6909 38.3648C13.3081 38.2821 13.8535 38.0249 14.327 37.5932C15.7023 36.3395 16.9569 35.2999 18.0908 34.4745C18.529 34.1555 18.9384 33.877 19.3189 33.6388L19.459 34.4449C19.9266 37.1349 23.4522 37.8527 24.9342 35.5597L29.1795 28.9915C29.5266 28.4546 29.7619 27.8738 29.8855 27.2492C30.0052 26.6448 30.0127 26.0384 29.908 25.4298C29.8034 24.8213 29.5937 24.2522 29.2789 23.7225C28.9538 23.1751 28.538 22.7063 28.0314 22.3162L22.3158 17.9138C20.1848 16.2723 17.1371 18.0486 17.5149 20.7119L17.8149 22.826C15.6187 24.2512 13.7836 26.1226 12.3098 28.4402ZM20.9382 25.6186C18.8032 26.7809 17.0522 28.4369 15.6851 30.5866C15.4338 30.9818 15.1982 31.3883 14.9784 31.8061C17.2063 30.0918 19.0292 29.0895 20.4471 28.7992L22.4659 28.3859L22.8187 30.416L22.9622 31.2419L25.8202 26.8202C25.9614 26.6017 26.01 26.3643 25.9659 26.1079C25.9218 25.8515 25.7967 25.6439 25.5905 25.4851L21.8202 22.581L21.962 23.5811L22.157 24.955L20.9382 25.6186L20.9382 25.6186Z" fill-rule="evenodd"  fill="#424242" >
</path>
</svg>
