<svg xmlns="http://www.w3.org/2000/svg" xmlns:xlink="http://www.w3.org/1999/xlink" width="48" height="48" viewBox="0 0 48 48" fill="none">
<path d="M33 45C37.42 45 41 41.42 41 37L41 21L31.5 21C27.08 21 23.5 17.42 23.5 13L23.5 3L15 3C10.58 3 7 6.58 7 11L7 37C7 41.42 10.58 45 15 45L33 45ZM27.5 3.04206L27.5 13C27.5 15.21 29.29 17 31.5 17L40.9696 17C40.8353 15.6773 40.2603 14.4251 39.33 13.46L31.13 4.86C30.1644 3.84308 28.8774 3.20589 27.5 3.04206ZM22.5581 25L16.4381 25C15.0981 25 13.8381 25.68 13.0981 26.8L11.2081 29.68C10.1881 31.22 10.3681 33.25 11.6181 34.61L16.5981 39.85C18.1781 41.51 20.8181 41.51 22.3981 39.85L27.3581 34.63C28.6281 33.26 28.8081 31.21 27.7881 29.68L25.8981 26.8C25.1581 25.68 23.9081 25 22.5581 25ZM16.4381 29L14.5481 31.88C14.5481 31.89 14.5481 31.89 14.5581 31.89L19.4981 37.09L24.4481 31.88L22.5581 29L16.4381 29Z" fill-rule="evenodd"  fill="#000000" >
</path>
</svg>
