<svg xmlns="http://www.w3.org/2000/svg" xmlns:xlink="http://www.w3.org/1999/xlink" width="48" height="48" viewBox="0 0 48 48" fill="none">
<path d="M7 11C7 9.92 7.21 8.88 7.63 7.89C8.04 6.93 8.61 6.08 9.34 5.34C10.08 4.61 10.93 4.04 11.89 3.63C12.88 3.21 13.92 3 15 3L27.5 3L27.5 3.04C28.07 3.11 28.62 3.26 29.15 3.49C29.91 3.81 30.57 4.27 31.13 4.86L39.33 13.46C39.87 14.01 40.28 14.65 40.57 15.36C40.78 15.89 40.91 16.44 40.97 17L41 17L41 37C41 38.08 40.79 39.12 40.37 40.11C39.96 41.07 39.39 41.92 38.66 42.66C37.92 43.39 37.07 43.96 36.11 44.37C35.12 44.79 34.08 45 33 45L15 45C13.92 45 12.88 44.79 11.89 44.37C10.93 43.96 10.08 43.39 9.34 42.66C8.61 41.92 8.04 41.07 7.63 40.11C7.21 39.12 7 38.08 7 37L7 11ZM12.17 8.17C12.54 7.8 12.97 7.52 13.45 7.31C13.94 7.1 14.46 7 15 7L23.5 7L23.5 13.2C23.53 14.21 23.74 15.18 24.13 16.11C24.16 16.17 24.18 16.23 24.21 16.29C24.61 17.18 25.15 17.96 25.84 18.66C25.94 18.75 26.03 18.84 26.13 18.92C26.8 19.53 27.55 20.02 28.39 20.37C29.38 20.79 30.42 21 31.5 21L37 21L37 37C37 37.54 36.9 38.06 36.69 38.55C36.48 39.03 36.2 39.46 35.83 39.83C35.46 40.2 35.03 40.48 34.55 40.69C34.06 40.9 33.54 41 33 41L15 41C14.46 41 13.94 40.9 13.45 40.69C12.97 40.48 12.54 40.2 12.17 39.83C11.8 39.46 11.52 39.03 11.31 38.55C11.1 38.06 11 37.54 11 37L11 11C11 10.46 11.1 9.94 11.31 9.45C11.52 8.97 11.8 8.54 12.17 8.17ZM27.72 30.4975C27.55 30.8075 27.3 31.0475 27 31.2275L20.26 35.1275C19.94 35.3075 19.61 35.3875 19.25 35.3875C18.89 35.3875 18.56 35.3075 18.24 35.1275C17.94 34.9475 17.69 34.7075 17.52 34.3975C17.34 34.0875 17.25 33.7575 17.25 33.3975L17.25 25.5975C17.25 25.2375 17.34 24.9075 17.52 24.5975C17.69 24.2975 17.94 24.0475 18.24 23.8775C18.56 23.6975 18.89 23.6075 19.25 23.6075C19.61 23.6075 19.94 23.6975 20.25 23.8675L26.99 27.7675C27.3 27.9475 27.55 28.1975 27.72 28.5075C27.9 28.8075 27.99 29.1475 27.99 29.4975C27.99 29.8575 27.9 30.1875 27.72 30.4975ZM36.91 17L31.5 17C30.96 17 30.44 16.9 29.95 16.69C29.47 16.48 29.04 16.2 28.67 15.83C28.3 15.46 28.02 15.03 27.81 14.55C27.6 14.06 27.5 13.54 27.5 13L27.5 7.13C27.52 7.14 27.55 7.15 27.57 7.16C27.83 7.27 28.05 7.42 28.23 7.62L36.45 16.22C36.62 16.41 36.76 16.62 36.86 16.86C36.87 16.91 36.89 16.95 36.91 17ZM22.24 38.5975C21.32 39.1275 20.32 39.3875 19.25 39.3875C18.18 39.3875 17.18 39.1275 16.26 38.5975C15.32 38.0575 14.59 37.3275 14.05 36.3975C13.52 35.4775 13.25 34.4775 13.25 33.3975L13.25 25.5975C13.25 24.5275 13.52 23.5275 14.05 22.5975C14.59 21.6675 15.32 20.9375 16.26 20.4075C17.18 19.8775 18.18 19.6075 19.25 19.6075C20.32 19.6075 21.32 19.8775 22.25 20.4075L29.01 24.3175C29.93 24.8575 30.66 25.5875 31.19 26.5075C31.72 27.4275 31.99 28.4275 31.99 29.4975C31.99 30.5675 31.72 31.5675 31.19 32.4975C30.66 33.4175 29.93 34.1475 29 34.6875L22.24 38.5975Z" fill-rule="evenodd"  fill="#000000" >
</path>
</svg>
