<svg xmlns="http://www.w3.org/2000/svg" xmlns:xlink="http://www.w3.org/1999/xlink" width="48" height="48" viewBox="0 0 48 48" fill="none">
<path d="M18.4399 23L24.5599 23C25.2299 23 25.8599 23.16 26.4599 23.48C27.0499 23.8 27.5299 24.24 27.8999 24.8L29.7899 27.68C30.0399 28.06 30.2199 28.47 30.3299 28.91C30.4399 29.34 30.4699 29.78 30.4399 30.22C30.3999 30.66 30.2899 31.08 30.1099 31.49C29.9299 31.9 29.6799 32.28 29.3599 32.63L24.3999 37.85C24.0199 38.25 23.5799 38.55 23.0699 38.77C22.5699 38.98 22.0499 39.09 21.4999 39.09C20.9499 39.09 20.4299 38.98 19.9299 38.77C19.4199 38.55 18.9799 38.25 18.5999 37.85L13.6199 32.61C13.3099 32.28 13.0699 31.9 12.8899 31.49C12.7099 31.08 12.5999 30.66 12.5599 30.22C12.5299 29.78 12.5599 29.34 12.6699 28.91C12.7799 28.47 12.9599 28.06 13.2099 27.68L15.0999 24.8C15.4699 24.24 15.9499 23.8 16.5399 23.48C17.1399 23.16 17.7699 23 18.4399 23ZM33 45L15 45C13.92 45 12.88 44.79 11.89 44.37C10.93 43.96 10.08 43.39 9.34 42.66C8.61 41.92 8.04 41.07 7.63 40.11C7.21 39.12 7 38.08 7 37L7 11C7 9.92 7.21 8.88 7.63 7.89C8.04 6.93 8.61 6.08 9.34 5.34C10.08 4.61 10.93 4.04 11.89 3.63C12.88 3.21 13.92 3 15 3L27.5 3L27.5 3.04C28.07 3.11 28.62 3.26 29.15 3.49C29.91 3.81 30.57 4.27 31.13 4.86L39.33 13.46C39.87 14.01 40.28 14.65 40.57 15.36C40.78 15.89 40.91 16.44 40.97 17L41 17L41 37C41 38.08 40.79 39.12 40.37 40.11C39.96 41.07 39.39 41.92 38.66 42.66C37.92 43.39 37.07 43.96 36.11 44.37C35.12 44.79 34.08 45 33 45ZM16.5599 29.89C16.5499 29.89 16.5499 29.88 16.5499 29.88L18.4399 27L24.5599 27L26.4499 29.88L21.4999 35.09L16.5599 29.89ZM31.5 21L37 21L37 37C37 37.54 36.9 38.06 36.69 38.55C36.48 39.03 36.2 39.46 35.83 39.83C35.46 40.2 35.03 40.48 34.55 40.69C34.06 40.9 33.54 41 33 41L15 41C14.46 41 13.94 40.9 13.45 40.69C12.97 40.48 12.54 40.2 12.17 39.83C11.8 39.46 11.52 39.03 11.31 38.55C11.1 38.06 11 37.54 11 37L11 11C11 10.46 11.1 9.94 11.31 9.45C11.52 8.97 11.8 8.54 12.17 8.17C12.54 7.8 12.97 7.52 13.45 7.31C13.94 7.1 14.46 7 15 7L23.5 7L23.5 13.2C23.53 14.21 23.74 15.18 24.13 16.11C24.16 16.17 24.18 16.23 24.21 16.29C24.61 17.18 25.15 17.96 25.84 18.66C25.94 18.75 26.03 18.84 26.13 18.92C26.8 19.53 27.55 20.02 28.39 20.37C29.38 20.79 30.42 21 31.5 21ZM27.57 7.16C27.83 7.27 28.05 7.42 28.23 7.62L36.45 16.22C36.62 16.41 36.76 16.62 36.86 16.86C36.87 16.91 36.89 16.95 36.91 17L31.5 17C30.96 17 30.44 16.9 29.95 16.69C29.47 16.48 29.04 16.2 28.67 15.83C28.3 15.46 28.02 15.03 27.81 14.55C27.6 14.06 27.5 13.54 27.5 13L27.5 7.13C27.52 7.14 27.55 7.15 27.57 7.16Z" fill-rule="evenodd"  fill="#000000" >
</path>
</svg>
