<svg xmlns="http://www.w3.org/2000/svg" xmlns:xlink="http://www.w3.org/1999/xlink" width="48" height="48" viewBox="0 0 48 48" fill="none">
<path d="M11 2.5C6.58172 2.5 3 6.08172 3 10.5L3 13.5C3.00773 14.0491 3.20299 14.5205 3.58579 14.9142C3.97951 15.297 4.45092 15.4923 5 15.5L29 15.5C29.8406 15.4657 30.4488 15.0721 30.8245 14.3193C31.1375 13.5384 31.0276 12.8224 30.4948 12.1713L24.2849 5.18509C23.5258 4.33113 22.6252 3.67013 21.5829 3.20208C20.5406 2.73403 19.4481 2.5 18.3056 2.5L11 2.5ZM24.5463 11.5L21.2952 7.84254C20.9157 7.41557 20.4653 7.08507 19.9442 6.85104C19.4231 6.61701 18.8769 6.5 18.3056 6.5L11 6.5C8.79086 6.5 7 8.29086 7 10.5L7 11.5L24.5463 11.5Z" fill-rule="evenodd"  fill="#787878" >
</path>
<path d="M3 13.5L3 36.5C3 40.9183 6.58172 44.5 11 44.5L37 44.5C41.4183 44.5 45 40.9183 45 36.5L45 19.5C45 15.0817 41.4183 11.5 37 11.5L3 11.5L3 13.5ZM7 15.5L7 36.5C7 38.7091 8.79086 40.5 11 40.5L37 40.5C39.2091 40.5 41 38.7091 41 36.5L41 19.5C41 17.2909 39.2091 15.5 37 15.5L7 15.5Z" fill-rule="evenodd"  fill="#424242" >
</path>
</svg>
