<svg xmlns="http://www.w3.org/2000/svg" xmlns:xlink="http://www.w3.org/1999/xlink" width="48" height="48" viewBox="0 0 48 48" fill="none">
<path d="M11 42.5L37 42.5C40.3137 42.5 43 39.8137 43 36.5L43 19.5C43 16.1863 40.3137 13.5 37 13.5L5 13.5L5 36.5C5 39.8137 7.68629 42.5 11 42.5Z"   fill="#BEDCFF" >
</path>
<path d="M3 13.5L3 36.5C3 40.9183 6.58172 44.5 11 44.5L37 44.5C41.4183 44.5 45 40.9183 45 36.5L45 19.5C45 15.0817 41.4183 11.5 37 11.5L5 11.5C3.89543 11.5 3 12.3954 3 13.5ZM11 40.5C8.79086 40.5 7 38.7091 7 36.5L7 15.5L37 15.5C39.2091 15.5 41 17.2909 41 19.5L41 36.5C41 38.7091 39.2091 40.5 37 40.5L11 40.5Z" fill-rule="evenodd"  fill="#1764FF" >
</path>
<path d="M10.0003 30.0012C10.0004 31.1058 10.896 32.0011 12.0005 32.001L19.3338 32C20.4384 31.9998 21.3337 31.1043 21.3335 29.9997C21.3334 28.8951 20.4378 27.9998 19.3333 28L12 28.001C10.8954 28.0011 10.0001 28.8967 10.0003 30.0012Z" fill-rule="evenodd"  fill="#1764FF" >
</path>
<path d="M10.0002 36.0011C10.0003 37.1057 10.8958 38.001 12.0004 38.0009L23.0004 37.9999C24.105 37.9998 25.0003 37.1043 25.0002 35.9998C25.0001 34.8952 24.1046 33.9998 23 33.9999L12 34.0009C10.8954 34.001 10.0001 34.8965 10.0002 36.0011Z" fill-rule="evenodd"  fill="#1764FF" >
</path>
<path d="M31 36L34 36C35.1 36 36 35.1 36 34L36 31C36 29.9 35.1 29 34 29L31 29C29.9 29 29 29.9 29 31L29 34C29 35.1 29.9 36 31 36Z"   fill="#6BA6FF" >
</path>
<path d="M27 34C27 36.2091 28.7909 38 31 38L34 38C36.2091 38 38 36.2091 38 34L38 31C38 28.7909 36.2091 27 34 27L31 27C28.7909 27 27 28.7909 27 31L27 34ZM34 34L31 34L31 31L34 31L34 34Z" fill-rule="evenodd"  fill="#1764FF" >
</path>
<path d="M5 13.5L29 13.5L22.7901 6.51382C21.6515 5.23289 20.0194 4.5 18.3056 4.5L11 4.5C7.68629 4.5 5 7.18629 5 10.5L5 13.5Z"   fill="#4187FF" >
</path>
<path d="M7 11.5L7 10.5C7 8.29086 8.79086 6.5 11 6.5L18.3056 6.5C19.5031 6.5 20.4997 6.94751 21.2952 7.84254L24.5463 11.5L7 11.5ZM11 2.5C6.58172 2.5 3 6.08172 3 10.5L3 13.5C3 14.6046 3.89543 15.5 5 15.5L29 15.5C30.7257 15.5 31.6413 13.4611 30.4948 12.1713L24.2849 5.18509C22.6937 3.39503 20.7006 2.5 18.3056 2.5L11 2.5Z" fill-rule="evenodd"  fill="#1764FF" >
</path>
</svg>
