<svg xmlns="http://www.w3.org/2000/svg" xmlns:xlink="http://www.w3.org/1999/xlink" width="48" height="48" viewBox="0 0 48 48" fill="none">
<path d="M18.5 27C21.5376 27 24 24.5376 24 21.5C24 18.4624 21.5376 16 18.5 16C15.4624 16 13 18.4624 13 21.5C13 24.5376 15.4624 27 18.5 27ZM18.5 20C19.3284 20 20 20.6716 20 21.5C20 22.3284 19.3284 23 18.5 23C17.6716 23 17 22.3284 17 21.5C17 20.6716 17.6716 20 18.5 20Z" fill-rule="evenodd"  fill="#424242" >
</path>
<path d="M7 11L7 37C7 41.4183 10.5817 45 15 45L33 45C37.4183 45 41 41.4183 41 37L41 17L40.9703 17C40.9665 16.9624 40.9624 16.9249 40.958 16.8874C40.8963 16.3689 40.7669 15.8635 40.5696 15.3711C40.2827 14.655 39.8728 14.0178 39.3401 13.4598L31.1285 4.85714C30.987 4.70889 30.8396 4.56908 30.6864 4.43773C30.2267 4.04367 29.7141 3.72569 29.1488 3.48379C29.1017 3.46363 29.0544 3.4441 29.0071 3.42521C28.8414 3.3591 28.6741 3.30069 28.5052 3.25C28.1761 3.15121 27.8411 3.0817 27.5 3.04147L27.5 3.04147L27.5 3L15 3C10.5817 3 7 6.58172 7 11ZM23.5 7L15 7C12.7909 7 11 8.79086 11 11L11 28.7822C11.176 28.7092 11.3561 28.6409 11.5402 28.5776C12.6592 28.1925 13.8958 28 15.25 28C16.6909 28 18.1273 28.3957 19.559 29.1871C20.0846 29.4776 20.6489 29.8429 21.2518 30.2829C21.5946 30.5331 22.0916 30.9165 22.7429 31.4331C23.3522 31.9164 23.8067 32.2674 24.1062 32.486C24.5738 32.8273 24.9971 33.1026 25.3761 33.3121C26.2057 33.7707 26.997 34 27.75 34C28.6583 34 29.461 33.88 30.1583 33.6401C30.6689 33.4644 31.1105 33.2287 31.4832 32.9331C31.7292 32.738 31.931 32.5298 32.0885 32.3086C32.1285 32.2524 32.1607 32.2024 32.1852 32.1584C32.503 31.4743 33.1961 31 34 31C35.1046 31 36 31.8954 36 33C36 33.3111 35.929 33.6056 35.8022 33.8682C35.6935 34.1016 35.5417 34.3551 35.3467 34.6289C34.9702 35.1577 34.511 35.637 33.9691 36.0669C33.2387 36.6463 32.4023 37.0981 31.4598 37.4224C30.3408 37.8075 29.1042 38 27.75 38C26.3091 38 24.8727 37.6043 23.441 36.8129C22.9154 36.5224 22.3511 36.1571 21.7482 35.7171C21.4054 35.4669 20.9084 35.0835 20.2571 34.5669C19.6478 34.0836 19.1933 33.7326 18.8938 33.514C18.4262 33.1727 18.0029 32.8974 17.6239 32.6879C16.7943 32.2293 16.003 32 15.25 32C14.3417 32 13.539 32.12 12.8417 32.3599C12.3311 32.5356 11.8895 32.7713 11.5168 33.0669C11.3147 33.2272 11.1424 33.3964 11 33.5743L11 37C11 39.2091 12.7909 41 15 41L33 41C35.2091 41 37 39.2091 37 37L37 21L31.5 21C27.0817 21 23.5 17.4183 23.5 13L23.5 7ZM36.9072 17C36.8921 16.9526 36.8752 16.9055 36.8565 16.8588C36.7609 16.6201 36.6243 16.4077 36.4467 16.2217L28.2351 7.61905C28.0464 7.42137 27.8265 7.26877 27.5752 7.16126C27.5503 7.15059 27.5252 7.14044 27.5 7.13082L27.5 13C27.5 15.2091 29.2909 17 31.5 17L36.9072 17L36.9072 17Z" fill-rule="evenodd"  fill="#787878" >
</path>
</svg>
