<svg xmlns="http://www.w3.org/2000/svg" xmlns:xlink="http://www.w3.org/1999/xlink" width="48" height="48" viewBox="0 0 48 48" fill="none">
<path d="M41 37L41 21L31.5 21C27.08 21 23.5 17.42 23.5 13L23.5 3L15 3C10.58 3 7 6.58 7 11L7 33.0469C8.90694 31.6823 11.1569 31 13.75 31C15.85 31 18.38 32.14 21.34 34.41C23.59 36.14 25.31 37 26.5 37C28.9 37 30.37 36.41 30.9 35.23C31.21 34.51 31.92 34 32.75 34C33.85 34 34.75 34.9 34.75 36C34.75 36.3 34.68 36.59 34.56 36.85C33.33 39.62 30.64 41 26.5 41C24.4 41 21.87 39.86 18.91 37.59C16.66 35.86 14.94 35 13.75 35C10.97 35 8.78 36.2 7.18 38.59C7.1744 38.5985 7.16875 38.6071 7.16302 38.6155C7.90974 42.2604 11.1335 45 15 45L33 45C37.42 45 41 41.42 41 37ZM27.5 3.04206L27.5 13C27.5 15.21 29.29 17 31.5 17L40.9696 17C40.8353 15.6773 40.2603 14.4251 39.33 13.46L31.13 4.86C30.1644 3.84308 28.8774 3.20589 27.5 3.04206ZM11 22.5C11 19.46 13.46 17 16.5 17C19.54 17 22 19.46 22 22.5C22 25.54 19.54 28 16.5 28C13.46 28 11 25.54 11 22.5ZM18 22.5C18 23.33 17.33 24 16.5 24C15.67 24 15 23.33 15 22.5C15 21.67 15.67 21 16.5 21C17.33 21 18 21.67 18 22.5Z" fill-rule="evenodd"  fill="#000000" >
</path>
</svg>
