<svg xmlns="http://www.w3.org/2000/svg" xmlns:xlink="http://www.w3.org/1999/xlink" width="48" height="48" viewBox="0 0 48 48" fill="none">
<path d="M3 17L3 12C3 7.58 6.58 4 11 4L18.31 4C20.59 4 22.77 4.98 24.29 6.68L29.8996 13L37 13C41.42 13 45 16.58 45 21L45 36C45 40.42 41.42 44 37 44L11 44C6.58 44 3 40.42 3 36L3 17ZM28 29C29.1 29 30 28.1 30 27L30 24L34 24L34 27C34 28.1 34.9 29 36 29C37.1 29 38 28.1 38 27L38 24L39 24C40.1 24 41 24.9 41 26L41 31C41 32.1 40.1 33 39 33L34 33L34 30C34 28.9 33.1 28 32 28C30.9 28 30 28.9 30 30L30 33L26 33L26 30C26 28.9 25.1 28 24 28C22.9 28 22 28.9 22 30L22 33L18 33L18 30C18 28.9 17.1 28 16 28C14.9 28 14 28.9 14 30L14 33L9 33C7.9 33 7 32.1 7 31L7 26C7 24.9 7.9 24 9 24L10 24L10 27C10 28.1 10.9 29 12 29C13.1 29 14 28.1 14 27L14 24L18 24L18 27C18 28.1 18.9 29 20 29C21.1 29 22 28.1 22 27L22 24L26 24L26 27C26 28.1 26.9 29 28 29Z" fill-rule="evenodd"  fill="#000000" >
</path>
</svg>
