<svg xmlns="http://www.w3.org/2000/svg" xmlns:xlink="http://www.w3.org/1999/xlink" width="48" height="48" viewBox="0 0 48 48" fill="none">
<path d="M3 36.5L3 10.5C3 6.08 6.58 2.5 11 2.5L18.31 2.5C20.59 2.5 22.77 3.48 24.29 5.18L29.8996 11.5L37 11.5C41.42 11.5 45 15.08 45 19.5L45 36.5C45 40.92 41.42 44.5 37 44.5L11 44.5C6.58 44.5 3 40.92 3 36.5ZM8.2546 25.5972L8.2546 33.3972C8.2546 38.0172 13.2446 40.8972 17.2446 38.5972L24.0046 34.6872C27.9946 32.3772 27.9946 26.6172 24.0046 24.3072L17.2546 20.4072C13.2546 18.1072 8.2546 20.9872 8.2546 25.5972ZM15.2546 35.1272L21.9946 31.2272C23.3246 30.4572 23.3246 28.5372 21.9946 27.7672L15.2446 23.8672C13.9246 23.1072 12.2546 24.0672 12.2546 25.5972L12.2546 33.3972C12.2546 34.9472 13.9146 35.8972 15.2546 35.1272Z" fill-rule="evenodd"  fill="#000000" >
</path>
</svg>
