<svg xmlns="http://www.w3.org/2000/svg" xmlns:xlink="http://www.w3.org/1999/xlink" width="48" height="48" viewBox="0 0 48 48" fill="none">
<path d="M31.142 11.3923C28.9669 11.4084 26.8839 12.2187 25.2751 13.6267L20.1673 14.7124C19.0914 14.9411 18.024 14.2479 17.7953 13.172L15.3005 1.43477L11.3881 2.26637L13.8829 14.0036C14.571 17.2411 17.7614 19.3129 20.9989 18.6248L22.4229 18.3221L17.4613 33.8088C17.1925 34.6478 17.0533 35.4973 17.0326 36.3356L13.6697 37.0504C10.4323 37.7385 7.24194 35.6667 6.55379 32.4291L1.87604 10.4219C1.18789 7.18436 3.25973 3.99402 6.49724 3.30587L15.437 1.40566C16.5129 1.17698 17.6237 1.4009 18.5313 2.0156L29.7258 9.66482C30.3592 10.0951 30.8471 10.6987 31.142 11.3923ZM44.8804 33.0221L42.3472 40.9264C41.337 44.0785 37.9544 45.8193 34.8022 44.809L24.3269 41.4518C21.1748 40.4416 19.4341 37.0589 20.4443 33.9068L25.3275 18.67C26.3377 15.5179 29.7204 13.7772 32.8725 14.7874L36.8373 16.0581L34.4874 23.3906C33.4771 26.5427 35.2178 29.9254 38.37 30.9356L44.8804 33.0221ZM46.1013 29.2129L46.1378 29.0989C46.3606 28.4037 46.3202 27.6452 46.0214 26.9718L42.5223 18.9512C42.1969 18.1643 41.5194 17.5586 40.6909 17.2931L40.6465 17.2789L38.2966 24.6114C37.9608 25.6589 38.5432 26.7907 39.5908 27.1264L46.1013 29.2129Z" fill-rule="evenodd"  fill="#000000" >
</path>
</svg>
