<svg xmlns="http://www.w3.org/2000/svg" xmlns:xlink="http://www.w3.org/1999/xlink" width="48" height="48" viewBox="0 0 48 48" fill="none">
<path d="M29.6426 32.8125C30.3777 34.2768 29.3115 36.0021 27.673 35.9995L26 35.9968L26 42.5C26 43.6046 25.1046 44.5 24 44.5C22.8954 44.5 22 43.6046 22 42.5L22 35.9905L20.3204 35.9878C18.6875 35.9852 17.6264 34.2672 18.3552 32.8059L21.749 26.0016C22.6682 24.1587 25.2964 24.1552 26.2204 25.9957L29.6426 32.8125Z" fill-rule="evenodd"  fill="#424242" >
</path>
<path d="M7 11L7 37C7 41.4183 10.5817 45 15 45L33 45C37.4183 45 41 41.4183 41 37L41 17.6026C41 16.8311 40.8565 16.0873 40.5696 15.3711C40.2827 14.655 39.8728 14.0178 39.3401 13.4598L31.1285 4.85714C30.5624 4.2641 29.9025 3.80632 29.1488 3.48379C28.3951 3.16126 27.6083 3 26.7884 3L15 3C10.5817 3 7 6.58172 7 11ZM15 41C12.7909 41 11 39.2091 11 37L11 11C11 8.79086 12.7909 7 15 7L26.7884 7C27.0617 7 27.3239 7.05375 27.5752 7.16126C27.8265 7.26877 28.0464 7.42137 28.2351 7.61905L36.4467 16.2217C36.6243 16.4077 36.7609 16.6201 36.8565 16.8588C36.9522 17.0975 37 17.3455 37 17.6026L37 37C37 39.2091 35.2091 41 33 41L15 41Z" fill-rule="evenodd"  fill="#787878" >
</path>
<path d="M25.5 3L27.5 3L27.5 3.04147C28.0661 3.10825 28.6157 3.25569 29.1488 3.48379C29.9025 3.80632 30.5624 4.2641 31.1285 4.85715L39.3401 13.4598C39.8728 14.0179 40.2827 14.655 40.5696 15.3711C40.7811 15.899 40.9147 16.442 40.9703 17L41 17L41 21L31.5 21C27.0817 21 23.5 17.4183 23.5 13L23.5 3L25.5 3ZM27.5 7.13082L27.5 13C27.5 15.2091 29.2909 17 31.5 17L36.9072 17C36.8921 16.9526 36.8752 16.9055 36.8565 16.8588C36.7609 16.6201 36.6243 16.4077 36.4467 16.2217L28.2351 7.61905C28.0464 7.42137 27.8264 7.26877 27.5752 7.16126C27.5502 7.15059 27.5252 7.14044 27.5 7.13082Z" fill-rule="evenodd"  fill="#424242" >
</path>
</svg>
