<svg xmlns="http://www.w3.org/2000/svg" xmlns:xlink="http://www.w3.org/1999/xlink" width="48" height="48" viewBox="0 0 48 48" fill="none">
<path d="M33 45L15 45C10.58 45 7 41.42 7 37L7 11C7 6.58 10.58 3 15 3L26.79 3C28.43 3 30 3.67 31.13 4.86L39.33 13.46C40.4 14.57 41 16.06 41 17.6L41 37C41 41.42 37.42 45 33 45ZM11 11C11 8.79 12.79 7 15 7L23.5 7L23.5 13C23.5 17.42 27.08 21 31.5 21L37 21L37 37C37 39.21 35.21 41 33 41L15 41C12.79 41 11 39.21 11 37L11 11ZM28.23 7.62L36.45 16.22C36.66 16.45 36.82 16.71 36.91 17L31.5 17C29.29 17 27.5 15.21 27.5 13L27.5 7.13C27.77 7.24 28.03 7.4 28.23 7.62ZM15 39C13.9 39 13 38.1 13 37L13 26C13 24.34 14.34 23 16 23L19.5 23C22.54 23 25 25.46 25 28.5C25 31.54 22.54 34 19.5 34L17 34L17 37C17 38.1 16.1 39 15 39ZM35.5 27.0005C35.5 28.1005 34.6 29.0005 33.5 29.0005L30 29.0005C29.72 29.0005 29.5 29.2205 29.5 29.5005C29.5 29.7805 29.72 30.0005 30 30.0005L30.9747 30.0005C30.9898 30.0002 31.0049 30 31.02 30L31.5 30C33.99 30 36 32.01 36 34.5C36 36.99 33.99 39 31.5 39L28 39C26.9 39 26 38.1 26 37C26 35.9 26.9 35 28 35L31.5 35C31.78 35 32 34.78 32 34.5C32 34.22 31.78 34 31.5 34L31.0253 34C31.0102 34.0003 30.9951 34.0005 30.98 34.0005L30 34.0005C27.51 34.0005 25.5 31.9905 25.5 29.5005C25.5 27.0105 27.51 25.0005 30 25.0005L33.5 25.0005C34.6 25.0005 35.5 25.9005 35.5 27.0005ZM21 28.5C21 29.33 20.33 30 19.5 30L17 30L17 27L19.5 27C20.33 27 21 27.67 21 28.5Z" fill-rule="evenodd"  fill="#000000" >
</path>
</svg>
