<svg xmlns="http://www.w3.org/2000/svg" xmlns:xlink="http://www.w3.org/1999/xlink" width="48" height="48" viewBox="0 0 48 48" fill="none">
<path d="M40.9696 17C40.8353 15.6773 40.2603 14.4251 39.33 13.46L31.13 4.86C30.1644 3.84308 28.8774 3.20589 27.5 3.04206L27.5 13C27.5 15.21 29.29 17 31.5 17L40.9696 17ZM23.5 3L15 3C10.58 3 7 6.58 7 11L7 37C7 41.42 10.58 45 15 45L33 45C37.42 45 41 41.42 41 37L41 21L31.5 21C27.08 21 23.5 17.42 23.5 13L23.5 3ZM11 32C11 27.03 15.03 23 20 23C20.1141 23 20.2276 23.0021 20.3407 23.0063C20.3933 23.0021 20.4464 23 20.5 23C20.6494 23 20.795 23.0166 20.9353 23.048C25.1585 23.4842 28.5158 26.8415 28.952 31.0647C28.9834 31.205 29 31.3506 29 31.5C29 31.5536 28.9979 31.6067 28.9937 31.6593C28.9979 31.7724 29 31.8859 29 32C29 36.97 24.97 41 20 41C15.03 41 11 36.97 11 32ZM15 32C15 29.7625 16.4721 27.8668 18.5 27.2292L18.5 31C18.5 32.38 19.62 33.5 21 33.5L24.7708 33.5C24.1332 35.5279 22.2375 37 20 37C17.24 37 15 34.76 15 32Z" fill-rule="evenodd"  fill="#000000" >
</path>
</svg>
