<svg xmlns="http://www.w3.org/2000/svg" xmlns:xlink="http://www.w3.org/1999/xlink" width="48" height="48" viewBox="0 0 48 48" fill="none">
<path d="M39 37L39 19L39 17.6C39 16.57 38.6 15.58 37.89 14.84L29.68 6.24C28.93 5.45 27.88 5 26.79 5L25.5 5L15 5C11.69 5 9 7.69 9 11L9 37C9 40.31 11.69 43 15 43L33 43C36.31 43 39 40.31 39 37Z"   fill="#FFC7BF" >
</path>
<path d="M7 11L7 37C7 41.4183 10.5817 45 15 45L33 45C37.4183 45 41 41.4183 41 37L41 17.6026C41 16 40.4467 14.6191 39.3401 13.4598L31.1285 4.85714C29.9467 3.61905 28.5 3 26.7884 3L15 3C10.5817 3 7 6.58172 7 11ZM15 41C12.7909 41 11 39.2091 11 37L11 11C11 8.79086 12.7909 7 15 7L26.7884 7C27.3589 7 27.8412 7.20635 28.2351 7.61905L36.4467 16.2217C36.8156 16.6081 37 17.0684 37 17.6026L37 37C37 39.2091 35.2091 41 33 41L15 41Z" fill-rule="evenodd"  fill="#FF766C" >
</path>
<path d="M23 29L28 29L28 24L23 24L23 29Z"   fill="#FF4943" >
</path>
<path d="M20.5 23L20.5 29C20.5 30.3807 21.6193 31.5 23 31.5L29 31.5C30.1046 31.5 31 30.6046 31 29.5C31 28.3954 30.1046 27.5 29 27.5L24.5 27.5L24.5 23C24.5 21.8954 23.6046 21 22.5 21C21.3954 21 20.5 21.8954 20.5 23Z" fill-rule="evenodd"  fill="#FF4943" >
</path>
<path d="M22 39C26.9706 39 31 34.9706 31 30C31 25.0294 26.9706 21 22 21C17.0294 21 13 25.0294 13 30C13 34.9706 17.0294 39 22 39ZM22 25C24.7614 25 27 27.2386 27 30C27 32.7614 24.7614 35 22 35C19.2386 35 17 32.7614 17 30C17 27.2386 19.2386 25 22 25Z" fill-rule="evenodd"  fill="#FF1A1A" >
</path>
<path d="M25.5 13C25.5 16.3137 28.1863 19 31.5 19L36.6324 19C37.94 19 39 17.94 39 16.6324C39 16.2265 38.8436 15.8362 38.5633 15.5426L28.9598 5.48165C28.6661 5.17404 28.2594 5 27.8342 5C26.545 5 25.5 6.04503 25.5 7.33415L25.5 13Z"   fill="#FF766C" >
</path>
<path d="M26.7884 3L25.5 3L25.5 7L26.7884 7C27.3589 7 27.8412 7.20635 28.2351 7.61905L36.4467 16.2217C36.8156 16.6081 37 17.0684 37 17.6026L37 19L41 19L41 17.6026C41 16 40.4467 14.6191 39.3401 13.4598L31.1285 4.85715C29.9467 3.61905 28.5 3 26.7884 3Z" fill-rule="evenodd"  fill="#FF766C" >
</path>
<path d="M27.5 13L27.5 3L23.5 3L23.5 13C23.5 17.4183 27.0817 21 31.5 21L41 21L41 17L31.5 17C29.2909 17 27.5 15.2091 27.5 13Z" fill-rule="evenodd"  fill="#FF766C" >
</path>
</svg>
