<svg xmlns="http://www.w3.org/2000/svg" xmlns:xlink="http://www.w3.org/1999/xlink" width="48" height="48" viewBox="0 0 48 48" fill="none">
<path d="M11 42L37 42C40.3137 42 43 39.3137 43 36L43 21C43 17.6863 40.3137 15 37 15L5 15L5 36C5 39.3137 7.68629 42 11 42Z"   fill="#4187FF" >
</path>
<path d="M3 15L3 36C3 40.4183 6.58172 44 11 44L37 44C41.4183 44 45 40.4183 45 36L45 21C45 16.5817 41.4183 13 37 13L5 13C3.89543 13 3 13.8954 3 15ZM11 40C8.79086 40 7 38.2091 7 36L7 17L37 17C39.2091 17 41 18.7909 41 21L41 36C41 38.2091 39.2091 40 37 40L11 40Z" fill-rule="evenodd"  fill="#1764FF" >
</path>
<path d="M5 22L43 22L43 35L5 35L5 22Z"   fill="#E8F4FF" >
</path>
<path d="M45 20L3 20L3 37L45 37L45 20ZM7 33L7 24L41 24L41 33L7 33Z" fill-rule="evenodd"  fill="#1764FF" >
</path>
<path d="M10 27L10 22.5C10 21.3954 10.8954 20.5 12 20.5C13.1046 20.5 14 21.3954 14 22.5L14 27C14 28.1046 13.1046 29 12 29C10.8954 29 10 28.1046 10 27Z" fill-rule="evenodd"  fill="#1764FF" >
</path>
<path d="M18 27L18 22.5C18 21.3954 18.8954 20.5 20 20.5C21.1046 20.5 22 21.3954 22 22.5L22 27C22 28.1046 21.1046 29 20 29C18.8954 29 18 28.1046 18 27Z" fill-rule="evenodd"  fill="#1764FF" >
</path>
<path d="M26 27L26 22.5C26 21.3954 26.8954 20.5 28 20.5C29.1046 20.5 30 21.3954 30 22.5L30 27C30 28.1046 29.1046 29 28 29C26.8954 29 26 28.1046 26 27Z" fill-rule="evenodd"  fill="#1764FF" >
</path>
<path d="M34 27L34 22.5C34 21.3954 34.8954 20.5 36 20.5C37.1046 20.5 38 21.3954 38 22.5L38 27C38 28.1046 37.1046 29 36 29C34.8954 29 34 28.1046 34 27Z" fill-rule="evenodd"  fill="#1764FF" >
</path>
<path d="M14 34.5L14 30C14 28.8954 14.8954 28 16 28C17.1046 28 18 28.8954 18 30L18 34.5C18 35.6046 17.1046 36.5 16 36.5C14.8954 36.5 14 35.6046 14 34.5Z" fill-rule="evenodd"  fill="#1764FF" >
</path>
<path d="M22 34.5L22 30C22 28.8954 22.8954 28 24 28C25.1046 28 26 28.8954 26 30L26 34.5C26 35.6046 25.1046 36.5 24 36.5C22.8954 36.5 22 35.6046 22 34.5Z" fill-rule="evenodd"  fill="#1764FF" >
</path>
<path d="M30 34.5L30 30C30 28.8954 30.8954 28 32 28C33.1046 28 34 28.8954 34 30L34 34.5C34 35.6046 33.1046 36.5 32 36.5C30.8954 36.5 30 35.6046 30 34.5Z" fill-rule="evenodd"  fill="#1764FF" >
</path>
<path d="M5 15L29 15L22.7901 8.01382C21.6515 6.73289 20.0194 6 18.3056 6L11 6C7.68629 6 5 8.68629 5 12L5 15Z"   fill="#4187FF" >
</path>
<path d="M7 13L7 12C7 9.79086 8.79086 8 11 8L18.3056 8C19.5031 8 20.4997 8.44751 21.2952 9.34254L24.5463 13L7 13ZM11 4C6.58172 4 3 7.58172 3 12L3 15C3 16.1046 3.89543 17 5 17L29 17C30.7257 17 31.6413 14.9611 30.4948 13.6713L24.2849 6.68509C22.6937 4.89503 20.7006 4 18.3056 4L11 4Z" fill-rule="evenodd"  fill="#1764FF" >
</path>
</svg>
