<svg xmlns="http://www.w3.org/2000/svg" xmlns:xlink="http://www.w3.org/1999/xlink" width="48" height="48" viewBox="0 0 48 48" fill="none">
<path d="M10 44C5.58 44 2 40.42 2 36L2 12C2 7.58 5.58 4 10 4L17.31 4C19.59 4 21.77 4.98 23.28 6.68L28.9 13L36 13C40.42 13 44 16.58 44 21L44 21.2554C46.4094 23.1931 47.6381 26.4736 46.6718 29.75L44.1818 38.25C43.1818 41.66 40.0518 44 36.5018 44L10 44ZM39.7224 19.5324C39.4823 19.511 39.2387 19.5 38.9918 19.5L12.6018 19.5C9.90457 19.5 7.45716 20.849 6 22.9846L6 12C6 9.79 7.79 8 10 8L17.31 8C18.45 8 19.54 8.49 20.3 9.34L26.5 16.33C26.88 16.76 27.43 17 28 17L36 17C37.6918 17 39.1375 18.049 39.7224 19.5324Z" fill-rule="evenodd"  fill="#000000" >
</path>
</svg>
