<svg xmlns="http://www.w3.org/2000/svg" xmlns:xlink="http://www.w3.org/1999/xlink" width="48" height="48" viewBox="0 0 48 48" fill="none">
<path d="M17.0308 36.3355L13.6682 37.0503C10.427 37.7392 7.24106 35.6702 6.55214 32.429L1.87439 10.4218C1.18547 7.18067 3.25445 3.99473 6.49559 3.30581L15.4395 1.40473C15.9741 1.2911 16.5095 1.28721 17.0457 1.39304C17.5819 1.49888 18.0756 1.70593 18.527 2.01417L29.7156 9.65577C30.1403 9.94584 30.4958 10.3045 30.7822 10.7316C30.9236 10.9426 31.0432 11.1628 31.1408 11.3923C29.6152 11.4034 28.135 11.8052 26.8319 12.5299L16.2711 5.31713L16.1301 5.34711L17.7933 13.1719C18.0229 14.2523 19.0849 14.9419 20.1653 14.7123L25.2732 13.6266C24.0843 14.6671 23.1543 16.0342 22.6371 17.6484L22.4213 18.3219L20.9969 18.6247C17.7558 19.3136 14.5698 17.2446 13.8809 14.0035L12.2177 6.17871L7.32719 7.21821C6.24681 7.44785 5.55715 8.50983 5.78679 9.59021L10.4645 31.5974C10.6942 32.6779 11.7562 33.3675 12.8365 33.1378L18.0281 32.0344L17.4596 33.8089C17.1908 34.6479 17.0516 35.4973 17.0308 36.3355Z" fill-rule="evenodd"  fill="#787878" >
</path>
<path d="M39.2848 21.5253L38.2951 24.6134C37.958 25.6653 38.5375 26.7913 39.5893 27.1284L42.0774 27.9258L39.2848 21.5253ZM41.0698 31.8033L38.3685 30.9375C35.2129 29.9262 33.4746 26.5482 34.4859 23.3926L35.6158 19.867L31.6511 18.5964C31.392 18.5134 31.1291 18.4839 30.8626 18.5079C30.6042 18.5312 30.3585 18.6028 30.1256 18.7227C29.8927 18.8425 29.6917 19.0008 29.5225 19.1976C29.348 19.4004 29.2192 19.6315 29.1362 19.8906L24.253 35.1272C23.9159 36.179 24.4954 37.3051 25.5472 37.6422L36.0223 40.9992C36.2816 41.0823 36.5444 41.1118 36.8109 41.0877C37.0694 41.0644 37.315 40.9929 37.5479 40.873C37.7807 40.7532 37.9818 40.5949 38.1511 40.3981C38.3255 40.1952 38.4543 39.9642 38.5373 39.7051L41.0698 31.8033ZM42.3465 40.9258L45.4894 31.1195L46.1372 29.098C46.2486 28.7507 46.295 28.3949 46.2766 28.0306C46.2581 27.6663 46.1759 27.317 46.03 26.9827L42.5254 18.9504C42.3531 18.5553 42.1069 18.2132 41.787 17.9242C41.4672 17.6351 41.102 17.4249 40.6914 17.2933L38.7412 16.6683L32.8719 14.7873C32.0978 14.5392 31.3082 14.4515 30.5031 14.5241C29.7266 14.5942 28.9907 14.8081 28.2953 15.166C27.6 15.5238 26.9981 15.9983 26.4898 16.5894C25.9627 17.2022 25.5751 17.8957 25.327 18.6698L20.4439 33.9064C19.4325 37.062 21.1708 40.44 24.3265 41.4514L34.8016 44.8084C35.5757 45.0565 36.3653 45.1442 37.1704 45.0715C37.9469 45.0015 38.6828 44.7875 39.3782 44.4297C40.0735 44.0719 40.6753 43.5974 41.1837 43.0063C41.7108 42.3935 42.0984 41.7 42.3465 40.9258Z" fill-rule="evenodd"  fill="#424242" >
</path>
</svg>
