<svg xmlns="http://www.w3.org/2000/svg" xmlns:xlink="http://www.w3.org/1999/xlink" width="48" height="48" viewBox="0 0 48 48" fill="none">
<path d="M18 18C18.54 18 19.06 18.11 19.56 18.32C20.04 18.52 20.46 18.81 20.83 19.17C21.19 19.54 21.48 19.96 21.68 20.44C21.89 20.94 22 21.46 22 22C22 22.54 21.89 23.06 21.68 23.56C21.48 24.04 21.19 24.46 20.83 24.83C20.5776 25.0755 20.302 25.2885 20 25.4626L20 30.5374C20.302 30.7115 20.5776 30.9245 20.83 31.17C21.0755 31.4224 21.2885 31.698 21.4626 32L26.5374 32C26.7115 31.698 26.9245 31.4224 27.17 31.17C27.54 30.81 27.96 30.52 28.44 30.32C28.94 30.11 29.46 30 30 30C30.54 30 31.06 30.11 31.56 30.32C32.04 30.52 32.46 30.81 32.83 31.17C33.19 31.54 33.48 31.96 33.68 32.44C33.89 32.94 34 33.46 34 34C34 34.54 33.89 35.06 33.68 35.56C33.48 36.04 33.19 36.46 32.83 36.83C32.46 37.19 32.04 37.48 31.56 37.68C31.06 37.89 30.54 38 30 38C29.46 38 28.94 37.89 28.44 37.68C27.96 37.48 27.54 37.19 27.17 36.83C26.9245 36.5776 26.7115 36.302 26.5374 36L21.4626 36C21.2885 36.302 21.0755 36.5776 20.83 36.83C20.46 37.19 20.04 37.48 19.56 37.68C19.06 37.89 18.54 38 18 38C17.46 38 16.94 37.89 16.44 37.68C15.96 37.48 15.54 37.19 15.17 36.83C14.81 36.46 14.52 36.04 14.32 35.56C14.11 35.06 14 34.54 14 34C14 33.46 14.11 32.94 14.32 32.44C14.52 31.96 14.81 31.54 15.17 31.17C15.4223 30.9245 15.698 30.7115 16 30.5374L16 25.4626C15.698 25.2885 15.4223 25.0755 15.17 24.83C14.81 24.46 14.52 24.04 14.32 23.56C14.11 23.06 14 22.54 14 22C14 21.46 14.11 20.94 14.32 20.44C14.52 19.96 14.81 19.54 15.17 19.17C15.54 18.81 15.96 18.52 16.44 18.32C16.94 18.11 17.46 18 18 18ZM27.5 3L27.5 3.04C28.07 3.11 28.62 3.26 29.15 3.49C29.91 3.81 30.57 4.27 31.13 4.86L39.33 13.46C39.87 14.01 40.28 14.65 40.57 15.36C40.78 15.89 40.91 16.44 40.97 17L41 17L41 37C41 38.08 40.79 39.12 40.37 40.11C39.96 41.07 39.39 41.92 38.66 42.66C37.92 43.39 37.07 43.96 36.11 44.37C35.12 44.79 34.08 45 33 45L15 45C13.92 45 12.88 44.79 11.89 44.37C10.93 43.96 10.08 43.39 9.34 42.66C8.61 41.92 8.04 41.07 7.63 40.11C7.21 39.12 7 38.08 7 37L7 11C7 9.92 7.21 8.88 7.63 7.89C8.04 6.93 8.61 6.08 9.34 5.34C10.08 4.61 10.93 4.04 11.89 3.63C12.88 3.21 13.92 3 15 3L27.5 3ZM13.45 7.31C13.94 7.1 14.46 7 15 7L23.5 7L23.5 13.2C23.53 14.21 23.74 15.18 24.13 16.11C24.16 16.17 24.18 16.23 24.21 16.29C24.61 17.18 25.15 17.96 25.84 18.66C25.94 18.75 26.03 18.84 26.13 18.92C26.8 19.53 27.55 20.02 28.39 20.37C29.38 20.79 30.42 21 31.5 21L37 21L37 37C37 37.54 36.9 38.06 36.69 38.55C36.48 39.03 36.2 39.46 35.83 39.83C35.46 40.2 35.03 40.48 34.55 40.69C34.06 40.9 33.54 41 33 41L15 41C14.46 41 13.94 40.9 13.45 40.69C12.97 40.48 12.54 40.2 12.17 39.83C11.8 39.46 11.52 39.03 11.31 38.55C11.1 38.06 11 37.54 11 37L11 11C11 10.46 11.1 9.94 11.31 9.45C11.52 8.97 11.8 8.54 12.17 8.17C12.54 7.8 12.97 7.52 13.45 7.31ZM31.5 17C30.96 17 30.44 16.9 29.95 16.69C29.47 16.48 29.04 16.2 28.67 15.83C28.3 15.46 28.02 15.03 27.81 14.55C27.6 14.06 27.5 13.54 27.5 13L27.5 7.13C27.52 7.14 27.55 7.15 27.57 7.16C27.83 7.27 28.05 7.42 28.23 7.62L36.45 16.22C36.62 16.41 36.76 16.62 36.86 16.86C36.87 16.91 36.89 16.95 36.91 17L31.5 17Z" fill-rule="evenodd"  fill="#000000" >
</path>
</svg>
