<svg xmlns="http://www.w3.org/2000/svg" xmlns:xlink="http://www.w3.org/1999/xlink" width="48" height="48" viewBox="0 0 48 48" fill="none">
<path d="M41 37L41 21L31.5 21C27.08 21 23.5 17.42 23.5 13L23.5 3L15 3C10.58 3 7 6.58 7 11L7 37C7 41.42 10.58 45 15 45L33 45C37.42 45 41 41.42 41 37ZM27.5 3.04206L27.5 13C27.5 15.21 29.29 17 31.5 17L40.9696 17C40.8353 15.6773 40.2603 14.4251 39.33 13.46L31.13 4.86C30.1644 3.84308 28.8774 3.20589 27.5 3.04206Z" fill-rule="evenodd"  fill="#000000" >
</path>
</svg>
