<svg xmlns="http://www.w3.org/2000/svg" xmlns:xlink="http://www.w3.org/1999/xlink" width="48" height="48" viewBox="0 0 48 48" fill="none">
<path d="M41 37L41 21L31.5 21C27.08 21 23.5 17.42 23.5 13L23.5 3L15 3C10.58 3 7 6.58 7 11L7 37C7 41.42 10.58 45 15 45L33 45C37.42 45 41 41.42 41 37ZM27.5 3.04206L27.5 13C27.5 15.21 29.29 17 31.5 17L40.9696 17C40.8353 15.6773 40.2603 14.4251 39.33 13.46L31.13 4.86C30.1644 3.84308 28.8774 3.20589 27.5 3.04206ZM27 27C27 25.62 28.12 24.5 29.5 24.5C30.88 24.5 32 25.62 32 27C32 28.38 30.88 29.5 29.5 29.5C28.12 29.5 27 28.38 27 27ZM22.09 39.59L21.2267 37L15.7725 37L14.91 39.59C14.66 40.41 13.9 41 13 41C11.9 41 11 40.1 11 39C11 38.76 11.04 38.53 11.12 38.32L14.7 27.57C15.9 23.9 21.1 23.9 22.3 27.56L25.88 38.32C25.96 38.53 26 38.76 26 39C26 40.1 25.1 41 24 41C23.1 41 22.34 40.41 22.09 39.59ZM18.5 28.82L19.8933 33L17.1046 33L18.5 28.81L18.5 28.82ZM31.5 33L31.5 39C31.5 40.1 30.6 41 29.5 41C28.4 41 27.5 40.1 27.5 39L27.5 33C27.5 31.9 28.4 31 29.5 31C30.6 31 31.5 31.9 31.5 33Z" fill-rule="evenodd"  fill="#000000" >
</path>
</svg>
