<svg xmlns="http://www.w3.org/2000/svg" xmlns:xlink="http://www.w3.org/1999/xlink" width="48" height="48" viewBox="0 0 48 48" fill="none">
<path d="M33 45L15 45C10.58 45 7 41.42 7 37L7 11C7 6.58 10.58 3 15 3L26.79 3C28.43 3 30 3.67 31.13 4.86L39.33 13.46C40.4 14.57 41 16.06 41 17.6L41 37C41 41.42 37.42 45 33 45ZM11 11C11 8.79 12.79 7 15 7L23.5 7L23.5 13C23.5 17.42 27.08 21 31.5 21L37 21L37 37C37 39.21 35.21 41 33 41L15 41C12.79 41 11 39.21 11 37L11 11ZM28.23 7.62L36.45 16.22C36.66 16.45 36.82 16.71 36.91 17L31.5 17C29.29 17 27.5 15.21 27.5 13L27.5 7.13C27.77 7.24 28.03 7.4 28.23 7.62ZM13 30C13 25.03 17.03 21 22 21C22.1141 21 22.2276 21.0021 22.3407 21.0063C22.3933 21.0021 22.4464 21 22.5 21C22.6494 21 22.795 21.0166 22.9353 21.048C27.1585 21.4842 30.5158 24.8415 30.952 29.0647C30.9834 29.205 31 29.3506 31 29.5C31 29.5536 30.9979 29.6067 30.9937 29.6593C30.9979 29.7724 31 29.8859 31 30C31 34.97 26.97 39 22 39C17.03 39 13 34.97 13 30ZM20.5 25.2292L20.5 29C20.5 30.38 21.62 31.5 23 31.5L26.7708 31.5C26.1332 33.5279 24.2375 35 22 35C19.24 35 17 32.76 17 30C17 27.7625 18.4721 25.8668 20.5 25.2292Z" fill-rule="evenodd"  fill="#000000" >
</path>
</svg>
