<svg xmlns="http://www.w3.org/2000/svg" xmlns:xlink="http://www.w3.org/1999/xlink" width="48" height="48" viewBox="0 0 48 48" fill="none">
<path d="M40.96 43.3901C40.97 43.3301 40.98 43.2601 40.99 43.2001C41 43.1301 41 43.0701 41 43.0001C41 42.9301 41 42.8701 40.99 42.8001C40.98 42.7401 40.97 42.6701 40.96 42.6101C40.95 42.5501 40.93 42.4801 40.91 42.4201C40.89 42.3601 40.87 42.3001 40.85 42.2301C40.82 42.1701 40.79 42.1101 40.76 42.0601C40.73 42.0001 40.7 41.9401 40.66 41.8901C40.63 41.8301 40.59 41.7801 40.55 41.7301C40.5 41.6801 40.46 41.6301 40.41 41.5901C40.37 41.5401 40.32 41.5001 40.27 41.4501C40.22 41.4101 40.17 41.3701 40.11 41.3401C40.06 41.3001 40 41.2701 39.94 41.2401C39.89 41.2101 39.83 41.1801 39.77 41.1501C39.7 41.1301 39.64 41.1101 39.58 41.0901C39.52 41.0701 39.45 41.0501 39.39 41.0401C39.33 41.0301 39.26 41.0201 39.2 41.0101C39.13 41.0001 39.07 41.0001 39 41.0001L9.00002 41.0001C8.93002 41.0001 8.87002 41.0101 8.80002 41.0101C8.74002 41.0201 8.67002 41.0301 8.61002 41.0401C8.55002 41.0501 8.48002 41.0701 8.42002 41.0901C8.36002 41.1101 8.30002 41.1301 8.23002 41.1501C8.17002 41.1801 8.11002 41.2101 8.06002 41.2401C8.00002 41.2701 7.94002 41.3001 7.89002 41.3401C7.83002 41.3801 7.78002 41.4101 7.73002 41.4601C7.68002 41.5001 7.63002 41.5401 7.59002 41.5901C7.54002 41.6301 7.50002 41.6801 7.45002 41.7301C7.41002 41.7801 7.37002 41.8401 7.34002 41.8901C7.30002 41.9501 7.27002 42.0001 7.24002 42.0601L7.15002 42.2401L7.09002 42.4201C7.07002 42.4801 7.05002 42.5501 7.04002 42.6101C7.03002 42.6801 7.02002 42.7401 7.01002 42.8101C7.00002 42.8701 7.00002 42.9401 7.00002 43.0001C7.00002 43.0701 7.00002 43.1301 7.01002 43.2001C7.02002 43.2601 7.03002 43.3301 7.04002 43.3901C7.05002 43.4601 7.07002 43.5201 7.09002 43.5801C7.11002 43.6501 7.13002 43.7101 7.15002 43.7701L7.24002 43.9501C7.27002 44.0001 7.30002 44.0601 7.34002 44.1101C7.37002 44.1701 7.41002 44.2201 7.45002 44.2701C7.50002 44.3201 7.54002 44.3701 7.59002 44.4201C7.63002 44.4601 7.68002 44.5101 7.73002 44.5501C7.78002 44.5901 7.83002 44.6301 7.89002 44.6701C7.94002 44.7001 8.00002 44.7401 8.06002 44.7701C8.12002 44.8001 8.17002 44.8301 8.23002 44.8501C8.30002 44.8801 8.36002 44.9001 8.42002 44.9201C8.48002 44.9401 8.55002 44.9501 8.61002 44.9601C8.67002 44.9801 8.74002 44.9901 8.80002 44.9901C8.87002 45.0001 8.93002 45.0001 9.00002 45.0001L39 45.0001C39.07 45.0001 39.13 45.0001 39.2 44.9901C39.26 44.9801 39.33 44.9701 39.39 44.9601C39.45 44.9501 39.52 44.9301 39.58 44.9101C39.64 44.8901 39.7 44.8701 39.77 44.8501C39.83 44.8201 39.89 44.7901 39.94 44.7601C40 44.7301 40.06 44.7001 40.11 44.6601C40.17 44.6301 40.22 44.5901 40.27 44.5501C40.32 44.5001 40.37 44.4601 40.41 44.4101C40.46 44.3701 40.5 44.3201 40.55 44.2701C40.59 44.2201 40.63 44.1701 40.66 44.1101C40.7 44.0601 40.73 44.0001 40.76 43.9401C40.79 43.8801 40.82 43.8301 40.85 43.7701C40.87 43.7001 40.89 43.6401 40.91 43.5801C40.93 43.5201 40.95 43.4501 40.96 43.3901ZM5.22756 13.3391C5.20376 13.7415 5.26197 14.1353 5.4022 14.5206L5.65871 15.2254C5.89471 15.8738 6.3041 16.3846 6.88346 16.7483L12.39 20.1821L17.6194 34.55C17.893 35.3018 18.2973 35.974 18.8417 36.5634C19.3665 37.1279 19.9766 37.5763 20.6722 37.9084C21.3711 38.25 22.1102 38.4386 22.874 38.4905C23.6694 38.5415 24.4477 38.4285 25.2063 38.1737L37.9649 33.7853C38.7294 33.5177 39.4051 33.1228 40.0107 32.5938C40.6035 32.0587 41.0766 31.4289 41.4173 30.6984C41.7682 29.996 41.9593 29.2347 42.0069 28.4299C42.0486 27.6379 41.9356 26.8596 41.6714 26.1044L41.6679 26.095L34.8676 7.03118C34.6068 6.2854 34.1991 5.60374 33.6641 5.01098C33.1325 4.42761 32.5027 3.95448 31.7755 3.6232C31.045 3.28253 30.2837 3.09137 29.4917 3.04974C28.6903 3.01153 27.9154 3.13394 27.1636 3.40755L7.19522 10.6755C6.80994 10.8157 6.47082 11.0243 6.17786 11.3012C5.89087 11.5652 5.67139 11.8686 5.50405 12.2275C5.3367 12.5864 5.24539 12.9495 5.22756 13.3391Z" fill-rule="evenodd"  fill="#000000" >
</path>
</svg>
