<svg xmlns="http://www.w3.org/2000/svg" xmlns:xlink="http://www.w3.org/1999/xlink" width="48" height="48" viewBox="0 0 48 48" fill="none">
<path d="M39.7851 26.7695L32.9847 7.70566C32.2442 5.6127 29.9337 4.5275 27.8476 5.28678L7.87915 12.5547C7.36231 12.7428 7.09336 13.3196 7.28147 13.8364L7.53799 14.5412C7.61323 14.7479 7.75426 14.9307 7.94738 15.052L13.7307 18.6616C13.9204 18.7735 14.0709 18.9529 14.1461 19.1596L19.4987 33.8658C20.2443 35.9143 22.4976 36.9884 24.5598 36.2804L37.3183 31.8921C39.4181 31.1704 40.529 28.8719 39.7851 26.7695Z"   fill="#E2C2FB" >
</path>
<path d="M36.6674 30.0051L23.9061 34.3864C22.6683 34.8113 21.8254 34.4089 21.3774 33.1793L16.0224 18.4794C15.7865 17.8318 15.3761 17.3256 14.7913 16.9608L9.93825 13.9337L28.5295 7.16705C29.5721 6.78758 30.7243 7.32925 31.0972 8.37421L37.9016 27.4413C38.276 28.4905 37.7211 29.6434 36.6674 30.0051ZM20.6719 37.9094C22.1475 38.6138 23.6585 38.7005 25.2049 38.1696L37.9663 33.7885C41.1272 32.7032 42.7922 29.2445 41.6689 26.0969L34.8645 7.02982C33.7459 3.89494 30.2892 2.26987 27.1614 3.40828L7.1953 10.6754C5.63836 11.242 4.8356 12.9636 5.40228 14.5205L5.65979 15.228C5.89565 15.876 6.30609 16.3825 6.8911 16.7474L12.3819 20.1723L17.6191 34.5484C18.1787 36.0847 19.1963 37.2051 20.6719 37.9094Z" fill-rule="evenodd"  fill="#8134ED" >
</path>
<path d="M6.99991 43.0024C7 44.107 7.89549 45.0024 9.00006 45.0023L39.0001 45C40.1047 44.9999 41 44.1044 40.9999 42.9998C40.9998 41.8952 40.1044 40.9999 38.9998 41L8.99976 41.0023C7.89519 41.0024 6.99983 41.8979 6.99991 43.0024Z" fill-rule="evenodd"  fill="#9C56F1" >
</path>
</svg>
