<svg xmlns="http://www.w3.org/2000/svg" xmlns:xlink="http://www.w3.org/1999/xlink" width="48" height="48" viewBox="0 0 48 48" fill="none">
<path d="M35.5812 26.7598L19.7981 41.4207L23.9042 30.1243C24.0408 29.7484 24.0954 29.364 24.0809 28.965C24.0594 28.5848 23.9774 28.2252 23.8159 27.8792C23.6637 27.5366 23.457 27.2274 23.1793 26.9669C22.899 26.6841 22.582 26.4732 22.2283 26.3339L12.0511 22.1346L12.0417 22.1312L28.1213 6.81356L23.7693 18.7867C23.6361 19.1532 23.5721 19.5342 23.5901 19.9238C23.6115 20.304 23.6936 20.6636 23.8457 21.0062C23.9944 21.3581 24.2046 21.658 24.4601 21.9211C24.7403 22.2038 25.0667 22.4182 25.4418 22.5865L35.5754 26.7593C35.5777 26.7601 35.5796 26.7602 35.5812 26.7598ZM35.5812 26.7598C35.5863 26.7587 35.5883 26.7533 35.5883 26.7533L35.5812 26.7598ZM9.28528 19.2355C8.79496 19.7062 8.44477 20.2598 8.23469 20.8964C8.02718 21.5551 7.98114 22.2087 8.11792 22.8861C8.23334 23.5345 8.50852 24.124 8.94344 24.6545C9.36896 25.1815 9.89613 25.5753 10.5155 25.8323L19.817 29.6601L16.039 40.0543C15.8852 40.4772 15.8007 40.9147 15.7948 41.37C15.7923 41.816 15.8599 42.2448 15.994 42.666C16.1376 43.0906 16.3359 43.4818 16.6016 43.8338C16.8768 44.1891 17.2006 44.4984 17.5859 44.7555C17.9619 45.0091 18.3745 45.1911 18.8145 45.2978C19.2417 45.4105 19.6868 45.4446 20.1242 45.4121C20.565 45.3702 20.9853 45.2676 21.3885 45.095C21.808 44.9069 22.1847 44.6608 22.5187 44.3567L38.3088 29.6892C38.8085 29.2218 39.1715 28.6622 39.3816 28.0257C39.5951 27.3798 39.6412 26.7263 39.5232 26.0556C39.3992 25.3722 39.118 24.7699 38.6925 24.2429C38.267 23.7158 37.7398 23.322 37.111 23.0616L27.8565 19.2509L31.8805 8.17996C32.0377 7.74765 32.1162 7.29741 32.1221 6.84206C32.1246 6.3961 32.0571 5.96724 31.9135 5.54266C31.7793 5.1215 31.5682 4.73623 31.3025 4.38429C31.0179 4.02551 30.6941 3.7163 30.3054 3.4686C29.9388 3.21833 29.5262 3.03642 29.0768 2.92627C28.6462 2.82296 28.2011 2.78884 27.7603 2.83077C27.31 2.86927 26.8863 2.98125 26.4797 3.16327C26.0696 3.3547 25.6929 3.60079 25.3649 3.91779L9.28528 19.2355Z" fill-rule="evenodd"  fill="#000000" >
</path>
</svg>
