<svg xmlns="http://www.w3.org/2000/svg" xmlns:xlink="http://www.w3.org/1999/xlink" width="48" height="48" viewBox="0 0 48 48" fill="none">
<path d="M17.08 44.58L22.93 40.84C23.58 40.42 24.42 40.42 25.07 40.83L30.92 44.58C35.71 47.64 42 44.19 42 38.51L42 9C42 5.69 39.31 3 36 3L12 3C8.69 3 6 5.69 6 9L6 38.51C6 44.2 12.28 47.64 17.08 44.58ZM22 20L22 14C22 12.9 22.9 12 24 12C25.1 12 26 12.9 26 14L26 20L32 20C33.1 20 34 20.9 34 22C34 23.1 33.1 24 32 24L26 24L26 30C26 31.1 25.1 32 24 32C22.9 32 22 31.1 22 30L22 24L16 24C14.9 24 14 23.1 14 22C14 20.9 14.9 20 16 20L22 20Z" fill-rule="evenodd"  fill="#000000" >
</path>
</svg>
