<svg xmlns="http://www.w3.org/2000/svg" xmlns:xlink="http://www.w3.org/1999/xlink" width="48" height="48" viewBox="0 0 48 48" fill="none">
<path d="M45 36C45 37.08 44.79 38.12 44.37 39.11C43.96 40.07 43.39 40.92 42.66 41.66C41.92 42.39 41.07 42.96 40.11 43.37C39.12 43.79 38.08 44 37 44L11 44C9.92 44 8.88 43.79 7.89 43.37C6.93 42.96 6.08 42.39 5.34 41.66C4.61 40.92 4.04 40.07 3.63 39.11C3.21 38.12 3 37.08 3 36L3 13L3 12C3 10.92 3.21 9.88 3.63 8.89C4.04 7.93 4.61 7.08 5.34 6.34C6.08 5.61 6.93 5.04 7.89 4.63C8.88 4.21 9.92 4 11 4L18.31 4C19.45 4 20.54 4.23 21.58 4.7C22.62 5.17 23.52 5.83 24.29 6.68L29.8996 13L37 13C38.08 13 39.12 13.21 40.11 13.63C41.07 14.04 41.92 14.61 42.66 15.34C43.39 16.08 43.96 16.93 44.37 17.89C44.79 18.88 45 19.92 45 21L45 36Z"   fill="#000000" >
</path>
</svg>
