<svg xmlns="http://www.w3.org/2000/svg" xmlns:xlink="http://www.w3.org/1999/xlink" width="48" height="48" viewBox="0 0 48 48" fill="none">
<path d="M41 17.6026L41 37C41 41.4183 37.4183 45 33 45L15 45C10.5818 45 7.00003 41.4183 7.00003 37L7.00003 11C7.00003 6.58172 10.5818 3 15 3L26.7884 3C27.6083 3 28.3951 3.16126 29.1488 3.48379C29.9026 3.80632 30.5625 4.2641 31.1285 4.85714L39.3401 13.4598C39.8728 14.0178 40.2827 14.655 40.5696 15.3711C40.8566 16.0873 41 16.8311 41 17.6026ZM15 7L23.5 7L23.5 13C23.5 17.4183 27.0817 21 31.5 21L37 21L37 37C37 39.2091 35.2091 41 33 41L15 41C12.7909 41 11 39.2091 11 37L11 11C11 8.79086 12.7909 7 15 7ZM36.8565 16.8588C36.8752 16.9055 36.8921 16.9526 36.9072 17L31.5 17C29.2909 17 27.5 15.2091 27.5 13L27.5 7.13082C27.5252 7.14044 27.5503 7.15059 27.5752 7.16126C27.8265 7.26877 28.0464 7.42137 28.2351 7.61905L36.4467 16.2217C36.6243 16.4077 36.7609 16.6201 36.8565 16.8588ZM31.4354 33.8806C30.9567 34.9071 30.314 35.8055 29.5073 36.5757C28.7215 37.326 27.8345 37.9037 26.8463 38.3087C25.8439 38.7197 24.8142 38.9217 23.7573 38.9146C22.6489 38.9073 21.5941 38.6702 20.5929 38.2033C19.5917 37.7364 18.732 37.0809 18.0139 36.2365C17.3291 35.4315 16.822 34.5129 16.4924 33.4808C16.1675 32.4635 16.0399 31.4126 16.1095 30.3283C16.1809 29.2153 16.456 28.1455 16.9346 27.1189C17.4133 26.0924 18.056 25.194 18.8627 24.4238C19.6486 23.6735 20.5356 23.0959 21.5236 22.6908C22.5262 22.2798 23.5559 22.0778 24.6127 22.0848C25.7211 22.0922 26.7759 22.3293 27.7771 22.7962C28.7783 23.2631 29.638 23.9186 30.3561 24.7629C31.0409 25.568 31.5481 26.4866 31.8776 27.5187C32.2025 28.5361 32.3301 29.5869 32.2605 30.6711C32.1891 31.7842 31.9141 32.854 31.4354 33.8806ZM27.8102 32.1901C28.0767 31.6187 28.2295 31.027 28.2688 30.415C28.3062 29.8331 28.239 29.2733 28.0673 28.7356C27.9003 28.2127 27.6476 27.7523 27.3092 27.3545C26.9681 26.9534 26.5606 26.6424 26.0867 26.4214C25.6128 26.2004 25.1126 26.0882 24.5861 26.0847C24.0638 26.0812 23.5487 26.1836 23.0409 26.3918C22.5186 26.6059 22.0466 26.9143 21.6248 27.3169C21.1813 27.7404 20.8263 28.2379 20.5598 28.8093C20.2933 29.3808 20.1405 29.9726 20.1012 30.5845C20.0638 31.1664 20.131 31.7262 20.3027 32.2639C20.4697 32.7868 20.7224 33.2472 21.0608 33.645C21.4019 34.0461 21.8094 34.3571 22.2833 34.5781C22.7572 34.799 23.2574 34.9113 23.7839 34.9148C24.3062 34.9183 24.8213 34.8159 25.3291 34.6077C25.8514 34.3936 26.3234 34.0852 26.7452 33.6826C27.1887 33.2591 27.5437 32.7616 27.8102 32.1901Z" fill-rule="evenodd"  fill="#000000" >
</path>
</svg>
