<svg xmlns="http://www.w3.org/2000/svg" xmlns:xlink="http://www.w3.org/1999/xlink" width="48" height="48" viewBox="0 0 48 48" fill="none">
<path d="M41 17.6026L41 37C41 41.4183 37.4183 45 33 45L15 45C10.5817 45 7 41.4183 7 37L7 11C7 6.58172 10.5817 3 15 3L26.7884 3C27.6083 3 28.3951 3.16126 29.1488 3.48379C29.9025 3.80632 30.5624 4.2641 31.1285 4.85714L39.3401 13.4598C39.8728 14.0178 40.2827 14.655 40.5696 15.3711C40.8565 16.0873 41 16.8311 41 17.6026ZM15 7L23.5 7L23.5 13C23.5 17.4183 27.0817 21 31.5 21L37 21L37 37C37 39.2091 35.2091 41 33 41L15 41C12.7909 41 11 39.2091 11 37L11 11C11 8.79086 12.7909 7 15 7ZM36.8565 16.8588C36.8752 16.9055 36.8921 16.9526 36.9072 17L31.5 17C29.2909 17 27.5 15.2091 27.5 13L27.5 7.13082C27.5252 7.14044 27.5503 7.15059 27.5752 7.16126C27.8265 7.26877 28.0464 7.42137 28.2351 7.61905L36.4467 16.2217C36.6243 16.4077 36.7609 16.6201 36.8565 16.8588ZM15 23C16.1046 23 17 23.8954 17 25L17 31.9424L18.0409 30.8321C18.8311 29.9893 20.1689 29.9893 20.9591 30.8321L22 31.9424L22 25C22 23.8954 22.8954 23 24 23C25.1046 23 26 23.8954 26 25L26 37C26 38.8131 23.781 39.6906 22.5409 38.3679L19.5 35.1242L16.4591 38.3679C15.219 39.6906 13 38.8131 13 37L13 25C13 23.8954 13.8954 23 15 23ZM33.5 23L29 23C27.8954 23 27 23.8954 27 25L27 37C27 38.1046 27.8954 39 29 39C30.1046 39 31 38.1046 31 37L31 33L33.5 33C34.6046 33 35.5 32.1046 35.5 31C35.5 29.8954 34.6046 29 33.5 29L31 29L31 27L33.5 27C34.6046 27 35.5 26.1046 35.5 25C35.5 23.8954 34.6046 23 33.5 23Z" fill-rule="evenodd"  fill="#000000" >
</path>
</svg>
