<svg xmlns="http://www.w3.org/2000/svg" xmlns:xlink="http://www.w3.org/1999/xlink" width="48" height="48" viewBox="0 0 48 48" fill="none">
<path d="M25.42 26.03L17.015 26.03C10.9316 26.03 6 21.0984 6 15.015C6 13.5219 6.28881 12.0925 6.86643 10.7269C7.42392 9.4088 8.21052 8.24192 9.22622 7.22622C10.2419 6.21052 11.4088 5.42392 12.7269 4.86643C14.0925 4.28881 15.5219 4 17.015 4L37.19 4C38.2946 4 39.19 4.89543 39.19 6C39.19 7.10457 38.2946 8 37.19 8L17.015 8C16.0627 8 15.1527 8.18348 14.2851 8.55045C13.446 8.90533 12.7026 9.40673 12.0546 10.0546C11.4067 10.7026 10.9053 11.446 10.5504 12.2851C10.1835 13.1527 10 14.0626 10 15.015C10 18.8893 13.1407 22.03 17.015 22.03L22.5566 22.03C22.5633 22.0299 22.5701 22.0299 22.5769 22.0299L31.0119 22.0299C37.0787 22.0299 41.9969 26.948 41.9969 33.0149C41.9969 39.0817 37.0787 43.9999 31.0119 43.9999L10.4969 43.9999C9.39233 43.9999 8.4969 43.1045 8.4969 41.9999C8.4969 40.8953 9.39233 39.9999 10.4969 39.9999L31.0119 39.9999C34.8696 39.9999 37.9969 36.8726 37.9969 33.0149C37.9969 29.1572 34.8696 26.0299 31.0119 26.0299L25.4403 26.0299C25.4336 26.03 25.4268 26.03 25.42 26.03Z" fill-rule="evenodd"  fill="#000000" >
</path>
</svg>
