<svg xmlns="http://www.w3.org/2000/svg" xmlns:xlink="http://www.w3.org/1999/xlink" width="48" height="48" viewBox="0 0 48 48" fill="none">
<path d="M41 37L41 17.6026C41 16.8311 40.8565 16.0873 40.5696 15.3711C40.2827 14.655 39.8728 14.0178 39.3401 13.4598L31.1285 4.85714C30.5624 4.2641 29.9025 3.80632 29.1488 3.48379C28.3951 3.16126 27.6083 3 26.7884 3L15 3C10.5817 3 7 6.58172 7 11L7 37C7 41.4183 10.5817 45 15 45L33 45C37.4183 45 41 41.4183 41 37ZM23.5 7L15 7C12.7909 7 11 8.79086 11 11L11 37C11 39.2091 12.7909 41 15 41L33 41C35.2091 41 37 39.2091 37 37L37 21L31.5 21C27.0817 21 23.5 17.4183 23.5 13L23.5 7ZM36.9072 17C36.8921 16.9526 36.8752 16.9055 36.8565 16.8588C36.7609 16.6201 36.6243 16.4077 36.4467 16.2217L28.2351 7.61905C28.0464 7.42137 27.8265 7.26877 27.5752 7.16126C27.5503 7.15059 27.5252 7.14044 27.5 7.13082L27.5 13C27.5 15.2091 29.2909 17 31.5 17L36.9072 17ZM15 25C15 26.1046 15.8954 27 17 27L22 27L22 35C20.8954 35 20 35.8954 20 37C20 38.1046 20.8954 39 22 39L26 39C27.1046 39 28 38.1046 28 37C28 35.8954 27.1046 35 26 35L26 27L31 27C32.1046 27 33 26.1046 33 25C33 23.8954 32.1046 23 31 23L17 23C15.8954 23 15 23.8954 15 25Z" fill-rule="evenodd"  fill="#000000" >
</path>
</svg>
