<svg xmlns="http://www.w3.org/2000/svg" xmlns:xlink="http://www.w3.org/1999/xlink" width="48" height="48" viewBox="0 0 48 48" fill="none">
<path d="M29.0001 4.99991C30.1047 4.99991 31.0001 5.89534 31.0001 6.99991C31.0001 8.10448 30.1047 8.99991 29.0001 8.99991L19 8.99991L19 39L19.5 39C20.6046 39 21.5 39.8954 21.5 41C21.5 42.1046 20.6046 43 19.5 43L14.5 43C13.3954 43 12.5 42.1046 12.5 41C12.5 39.8954 13.3954 39 14.5 39L15 39L15 8.99991L5.00012 8.99991C3.89552 8.99991 3.00012 8.10448 3.00012 6.99991C3.00012 5.89534 3.89552 4.99991 5.00012 4.99991L29.0001 4.99991ZM25 24C25 25.1046 25.8954 26 27 26L33 26L33 39.063C32.1374 39.285 31.5 40.0681 31.5 41C31.5 42.1046 32.3954 43 33.5 43L36.5 43C37.6046 43 38.5 42.1046 38.5 41C38.5 40.0681 37.8626 39.285 37 39.063L37 26L43 26C44.1046 26 45 25.1046 45 24C45 22.8954 44.1046 22 43 22L27 22C25.8954 22 25 22.8954 25 24Z" fill-rule="evenodd"  fill="#000000" >
</path>
</svg>
