<svg xmlns="http://www.w3.org/2000/svg" xmlns:xlink="http://www.w3.org/1999/xlink" width="48" height="48" viewBox="0 0 48 48" fill="none">
<path d="M25.6744 25.9741L13.9252 24.7974C12.6421 24.6569 11.4446 24.2947 10.3328 23.711C9.25273 23.144 8.30966 22.4006 7.50354 21.4808C6.7031 20.5675 6.0878 19.5374 5.65763 18.3907C5.21919 17.2219 4.99997 16.0019 4.99997 14.7308C4.99997 13.2758 5.28143 11.8828 5.84433 10.552C6.38761 9.26753 7.15413 8.13042 8.14391 7.14064C9.13369 6.15086 10.2708 5.38434 11.5552 4.84106C12.8861 4.27816 14.279 3.9967 15.7341 3.9967L35 3.9967C36.1815 3.9967 37.2563 4.24467 38.2244 4.74059C39.2085 5.24478 39.9891 5.95382 40.5661 6.86772C41.1421 7.78 41.4529 8.79914 41.4984 9.92514C41.5432 11.0344 41.3231 12.1544 40.838 13.2852L37.162 11.7082C37.4089 11.1328 37.5221 10.5922 37.5016 10.0867C37.4849 9.67342 37.379 9.31225 37.1838 9.00316C36.9964 8.70628 36.7353 8.4721 36.4006 8.30061C36.0051 8.098 35.5383 7.9967 35 7.9967L15.7341 7.9967C14.8198 7.9967 13.9463 8.17283 13.1135 8.52508C12.308 8.86574 11.5943 9.34707 10.9723 9.96906C10.3503 10.5911 9.86901 11.3048 9.52835 12.1102C9.1761 12.943 8.99997 13.8165 8.99997 14.7308C8.99997 15.5182 9.13424 16.2699 9.40279 16.9858C9.66217 17.6773 10.0318 18.2968 10.5118 18.8444C10.991 19.3913 11.5511 19.8329 12.192 20.1694C12.8568 20.5184 13.5674 20.7344 14.3238 20.8173L26.1773 22.0045C26.2269 22.0089 26.276 22.015 26.3245 22.0229L33.4136 22.7318C34.7523 22.8657 36.0173 23.2376 37.2086 23.8473C38.3632 24.4383 39.3772 25.2156 40.2507 26.1791C41.1243 27.1426 41.7988 28.2278 42.2741 29.4345C42.7646 30.6796 43.0111 31.9749 43.0135 33.3203C43.0242 39.2156 38.2481 44.0004 32.3528 44.0004L5.49929 44.0004L4.60628 40.2108C4.56701 40.2304 4.53854 40.2458 4.52087 40.257C4.54207 40.2436 4.57176 40.2219 4.60994 40.192C4.79911 40.0437 5.00759 39.837 5.23539 39.5719C6.09389 38.5727 6.89977 37.134 7.65302 35.2559L11.5093 36.0004C11.5093 36.8551 11.2192 38.099 10.6389 39.7323C10.6068 39.8226 10.5747 39.9119 10.5426 40.0004L32.3528 40.0004C36.0362 40.0004 39.0202 37.0109 39.0135 33.3276C39.012 32.4859 38.8583 31.6769 38.5525 30.9005C38.2555 30.1468 37.8338 29.4686 37.2874 28.8658C36.7409 28.263 36.1071 27.7771 35.386 27.408C34.6431 27.0277 33.853 26.7957 33.0156 26.712L25.8223 25.9927C25.7725 25.9883 25.7231 25.9821 25.6744 25.9741Z" fill-rule="evenodd"  fill="#000000" >
</path>
</svg>
