<svg xmlns="http://www.w3.org/2000/svg" xmlns:xlink="http://www.w3.org/1999/xlink" width="48" height="48" viewBox="0 0 48 48" fill="none">
<path d="M28.1326 8.15683C27.7679 8.64441 27.1858 8.96 26.5301 8.96C25.4255 8.96 24.5301 8.06457 24.5301 6.96C24.5301 6.49674 24.6876 6.07027 24.952 5.73122C25.8334 4.57911 26.9199 3.67583 28.2116 3.0214C29.5556 2.34047 30.9851 2 32.5001 2C33.4521 2 34.3853 2.14244 35.2999 2.42733C36.1904 2.70474 37.0244 3.10494 37.8019 3.62793C38.5788 4.15053 39.2632 4.77153 39.8551 5.49094C40.4516 6.21588 40.9278 7.00873 41.2835 7.8695C41.3906 8.11461 41.4501 8.38536 41.4501 8.67C41.4501 9.77457 40.5547 10.67 39.4501 10.67C38.5983 10.67 37.8709 10.1375 37.5826 9.38732C37.3794 8.89849 37.1073 8.4469 36.7664 8.03255C36.4219 7.61392 36.0228 7.25202 35.5692 6.94684C35.1151 6.64135 34.6288 6.40785 34.1103 6.24633C33.5831 6.08211 33.0464 6 32.5001 6C31.6221 6 30.7952 6.19652 30.0194 6.58956C29.2726 6.96794 28.6437 7.49036 28.1326 8.15683ZM33.7655 20.0648C35.367 20.6057 36.9548 19.2134 36.6278 17.5549L35.1517 10.0684C34.758 8.07198 32.2715 7.35707 30.8776 8.83958L25.9094 14.1238C24.8119 15.291 25.2903 17.2023 26.8082 17.715L28.0561 18.1365C27.8836 18.5736 27.708 18.9715 27.5292 19.3302C26.9911 20.4092 26.3422 21.298 25.5825 21.9966C24.8071 22.7097 23.789 23.3444 22.5283 23.9007C21.2753 24.4536 19.5955 25.0089 17.4886 25.5666C15.2787 26.1516 13.4086 26.9382 11.8785 27.9264C10.1336 29.0533 8.8479 30.4269 8.02157 32.047C7.13454 33.7862 6.80835 35.7428 7.04299 37.9168C7.27303 40.0482 8.04883 42.3736 9.3704 44.8931C9.69847 45.5494 10.3768 46 11.1604 46C12.265 46 13.1604 45.1046 13.1604 44C13.1604 43.6503 13.0706 43.3216 12.9129 43.0356C11.8266 40.9647 11.1956 39.1154 11.0199 37.4875C10.8705 36.1035 11.0588 34.8958 11.5849 33.8644C12.0852 32.8835 12.9064 32.0242 14.0486 31.2865C15.2233 30.5278 16.7112 29.9101 18.5122 29.4334C20.8216 28.8221 22.6986 28.1977 24.1432 27.5602C25.8076 26.8257 27.1899 25.9526 28.2901 24.9409C29.4117 23.9095 30.3513 22.6342 31.1088 21.1152C31.3636 20.6041 31.6104 20.0382 31.849 19.4175L33.7655 20.0648Z" fill-rule="evenodd"  fill="#000000" >
</path>
</svg>
