<svg xmlns="http://www.w3.org/2000/svg" xmlns:xlink="http://www.w3.org/1999/xlink" width="48" height="48" viewBox="0 0 48 48" fill="none">
<path d="M43.3205 31.6906L43.3205 16.3094C43.3205 15.2376 43.0526 14.2376 42.5167 13.3094C41.9808 12.3812 41.2487 11.6492 40.3205 11.1133L27 3.42265C26.0718 2.88675 25.0718 2.6188 24 2.6188C22.9282 2.6188 21.9282 2.88675 21 3.42265L7.6795 11.1133C6.7513 11.6492 6.01925 12.3812 5.48335 13.3094C4.94745 14.2376 4.6795 15.2376 4.6795 16.3094L4.6795 31.6906C4.6795 32.7624 4.94745 33.7624 5.48335 34.6906C6.01925 35.6188 6.7513 36.3509 7.6795 36.8868L21 44.5774C21.9282 45.1133 22.9282 45.3812 24 45.3812C25.0718 45.3812 26.0718 45.1133 27 44.5774L40.3205 36.8868C41.2487 36.3509 41.9808 35.6188 42.5167 34.6906C43.0526 33.7624 43.3205 32.7624 43.3205 31.6906ZM39.0526 15.3094C39.2312 15.6188 39.3205 15.9521 39.3205 16.3094L39.3205 31.6906C39.3205 32.0479 39.2312 32.3812 39.0526 32.6906C38.8739 33 38.6299 33.244 38.3205 33.4226L25 41.1132C24.6906 41.2919 24.3573 41.3812 24 41.3812C23.6427 41.3812 23.3094 41.2919 23 41.1132L9.6795 33.4226C9.3701 33.244 9.12608 33 8.94745 32.6906C8.76881 32.3812 8.6795 32.0479 8.6795 31.6906L8.6795 16.3094C8.6795 15.9521 8.76882 15.6188 8.94745 15.3094C9.12608 15 9.3701 14.756 9.6795 14.5774L23 6.88675C23.3094 6.70813 23.6427 6.6188 24 6.6188C24.3573 6.6188 24.6906 6.70813 25 6.88675L38.3205 14.5774C38.6299 14.756 38.8739 15 39.0526 15.3094ZM33.6417 19.8124L30.2195 12.9957C29.2955 11.1552 26.6673 11.1586 25.7481 13.0015L22.3543 19.8059C21.6255 21.2671 22.6866 22.9852 24.3195 22.9878L25.9654 22.9904C25.8894 24.04 25.6879 24.9607 25.3611 25.7527C24.9756 26.6867 24.4036 27.4565 23.6451 28.0619C22.0265 29.354 19.4781 30 16 30C14.8954 30 14 30.8954 14 32C14 33.1046 14.8954 34 16 34C20.4119 34 23.7921 33.0627 26.1406 31.1881C27.4375 30.1528 28.4102 28.8496 29.0586 27.2786C29.5797 26.0159 29.8845 24.5887 29.9729 22.9968L31.6721 22.9995C33.3106 23.0021 34.3768 21.2768 33.6417 19.8124Z" fill-rule="evenodd"  fill="#000000" >
</path>
</svg>
