<svg xmlns="http://www.w3.org/2000/svg" xmlns:xlink="http://www.w3.org/1999/xlink" width="48" height="48" viewBox="0 0 48 48" fill="none">
<path d="M24 45C35.598 45 45 35.598 45 24C45 12.402 35.598 3 24 3C12.402 3 3 12.402 3 24C3 35.598 12.402 45 24 45ZM24 7C33.3888 7 41 14.6112 41 24C41 33.3888 33.3888 41 24 41C14.6112 41 7 33.3888 7 24C7 14.6112 14.6112 7 24 7ZM25.5652 9.29845C27.4093 9.98437 29.0536 10.9795 30.498 12.284C31.8085 13.4675 32.9148 14.8689 33.817 16.4883C34.6331 17.9531 35.2499 19.5358 35.6675 21.2364C36.0558 22.818 36.25 24.4059 36.25 26C36.25 27.7153 35.9284 29.3381 35.2851 30.8682C34.6632 32.3476 33.781 33.6479 32.6385 34.7691C31.5097 35.877 30.2074 36.7315 28.7315 37.3326C27.2297 37.9442 25.6525 38.25 24 38.25C22.3854 38.25 20.8293 37.9711 19.3317 37.4131C17.8895 36.8758 16.6017 36.1187 15.4684 35.1417C14.3203 34.1519 13.424 33.0177 12.7797 31.739C12.0932 30.3766 11.75 28.9636 11.75 27.5C11.75 26.0897 11.9115 24.8458 12.2346 23.7683C12.5514 22.7119 13.0304 21.7871 13.6717 20.9939C14.201 20.3392 14.8633 19.7525 15.6587 19.2338C16.0858 18.9552 16.721 18.6021 17.5644 18.1743C18.2816 17.8105 18.793 17.5286 19.0986 17.3286C19.5295 17.0465 19.8756 16.745 20.1369 16.424C20.8386 15.5621 21.2139 14.1939 21.2626 12.3195C21.2755 11.8207 21.3934 11.3485 21.6162 10.9029C21.8357 10.4641 22.1354 10.0935 22.5154 9.79122C22.9301 9.46127 23.3941 9.24857 23.9072 9.15313C24.4704 9.04837 25.0231 9.09681 25.5652 9.29845Z" fill-rule="evenodd"  fill="#000000" >
</path>
</svg>
