<svg xmlns="http://www.w3.org/2000/svg" xmlns:xlink="http://www.w3.org/1999/xlink" width="48" height="48" viewBox="0 0 48 48" fill="none">
<path d="M9 26L14.5 26C16.1569 26 17.5 27.3432 17.5 29L17.5 35C17.5 36.6569 16.1569 38 14.5 38L4.25 38C3.14543 38 2.25 38.8954 2.25 40C2.25 41.1046 3.14543 42 4.25 42L14.5 42C18.366 42 21.5 38.866 21.5 35L21.5 29C21.5 25.134 18.366 22 14.5 22L9 22C7.3431 22 6 20.6568 6 19L6 13C6 11.3431 7.3431 10 9 10L19.25 10C20.3546 10 21.25 9.1046 21.25 8C21.25 6.8954 20.3546 6 19.25 6L9 6C5.134 6 2 9.134 2 13L2 19C2 22.866 5.134 26 9 26ZM28 8C28 6.89543 27.1046 6 26 6C24.8954 6 24 6.89543 24 8L24 40C24 41.1046 24.8954 42 26 42C27.1046 42 28 41.1046 28 40L28 8ZM35 8C35 6.89543 34.1046 6 33 6C31.8954 6 31 6.89543 31 8L31 38C31 40.2091 32.7909 42 35 42L44 42C45.1046 42 46 41.1046 46 40C46 38.8954 45.1046 38 44 38L35 38L35 8Z" fill-rule="evenodd"  fill="#000000" >
</path>
</svg>
