<svg xmlns="http://www.w3.org/2000/svg" xmlns:xlink="http://www.w3.org/1999/xlink" width="48" height="48" viewBox="0 0 48 48" fill="none">
<path d="M5.64967 5.2441L21.1041 1.1033C24.3048 0.245712 27.5947 2.14519 28.4523 5.3459L30.659 13.5816L26.3066 12.7929L24.5887 6.3811C24.3028 5.3142 23.2062 4.68104 22.1393 4.9669L6.68487 9.1077C5.61794 9.39357 4.98481 10.4902 5.27067 11.5571L9.41147 27.0115C9.69734 28.0784 10.7939 28.7116 11.8609 28.4257L14.2356 27.7894L13.2003 32.2078L12.8961 32.2893C9.69537 33.1469 6.40545 31.2474 5.54787 28.0467L1.40707 12.5923C0.549482 9.39159 2.44897 6.10169 5.64967 5.2441ZM18.1555 13.281L18.6134 14.99C17.4324 16.1073 16.6463 17.5006 16.2552 19.17L15.946 20.4896L14.2919 14.3162L11.3942 15.0926C10.3272 15.3785 9.23064 14.7453 8.94477 13.6784C8.65891 12.6115 9.29203 11.5149 10.359 11.229L20.018 8.641C21.0849 8.35514 22.1815 8.9883 22.4674 10.0552C22.7533 11.1221 22.1201 12.2187 21.0532 12.5046L18.1555 13.281ZM25.5259 14.5495L42.1536 18.0838C45.3947 18.7727 47.4637 21.9587 46.7748 25.1998L43.2405 41.8275C42.5516 45.0686 39.3656 47.1376 36.1245 46.4487L19.4968 42.9144C16.2557 42.2255 14.1867 39.0395 14.8756 35.7984L18.4099 19.1707C19.0988 15.9296 22.2848 13.8606 25.5259 14.5495ZM24.6943 18.4619C23.6139 18.2323 22.5519 18.9219 22.3223 20.0023L18.788 36.63C18.5584 37.7104 19.248 38.7724 20.3284 39.002L36.9561 42.5363C38.0365 42.7659 39.0985 42.0763 39.3281 40.9959L42.8624 24.3682C43.092 23.2878 42.4024 22.2258 41.322 21.9962L24.6943 18.4619ZM25.4033 24.7467C24.3229 24.5171 23.6333 23.4551 23.8629 22.3747C24.0925 21.2943 25.1545 20.6047 26.2349 20.8343L32.5834 22.1837L32.5929 22.1857L32.6024 22.1877L38.9502 23.537C40.0306 23.7666 40.7202 24.8286 40.4906 25.909C40.261 26.9894 39.199 27.679 38.1186 27.4494L33.7175 26.5139L31.8463 35.3175L32.3352 35.4214C33.4156 35.651 34.1052 36.713 33.8756 37.7934C33.646 38.8738 32.584 39.5634 31.5036 39.3338L26.6131 38.2943C25.5327 38.0647 24.8431 37.0027 25.0727 35.9223C25.3023 34.8419 26.3643 34.1523 27.4447 34.3819L27.9339 34.4859L29.8051 25.6823L25.4033 24.7467Z" fill-rule="evenodd"  fill="#000000" >
</path>
</svg>
