<svg xmlns="http://www.w3.org/2000/svg" xmlns:xlink="http://www.w3.org/1999/xlink" width="48" height="48" viewBox="0 0 48 48" fill="none">
<path d="M41 17.6026L41 37C41 41.4183 37.4183 45 33 45L15 45C10.5817 45 7 41.4183 7 37L7 11C7 6.58172 10.5817 3 15 3L26.7884 3C27.6083 3 28.3951 3.16126 29.1488 3.48379C29.9025 3.80632 30.5624 4.2641 31.1285 4.85714L39.3401 13.4598C39.8728 14.0178 40.2827 14.655 40.5696 15.3711C40.8565 16.0873 41 16.8311 41 17.6026ZM15 7L23.5 7L23.5 13C23.5 17.4183 27.0817 21 31.5 21L37 21L37 37C37 39.2091 35.2091 41 33 41L15 41C12.7909 41 11 39.2091 11 37L11 11C11 8.79086 12.7909 7 15 7ZM36.8565 16.8588C36.8752 16.9055 36.8921 16.9526 36.9072 17L31.5 17C29.2909 17 27.5 15.2091 27.5 13L27.5 7.13082C27.5252 7.14044 27.5503 7.15059 27.5752 7.16126C27.8265 7.26877 28.0464 7.42137 28.2351 7.61905L36.4467 16.2217C36.6243 16.4077 36.7609 16.6201 36.8565 16.8588ZM19.5 23L15 23C13.8954 23 13 23.8954 13 25L13 37C13 38.1046 13.8954 39 15 39L19.5 39C20.6046 39 21.5 38.1046 21.5 37C21.5 35.8954 20.6046 35 19.5 35L17 35L17 33L19.5 33C20.6046 33 21.5 32.1046 21.5 31C21.5 29.8954 20.6046 29 19.5 29L17 29L17 27L19.5 27C20.6046 27 21.5 26.1046 21.5 25C21.5 23.8954 20.6046 23 19.5 23ZM33.8583 36.2404C34.6194 34.9181 35 33.1713 35 31C35 28.8287 34.6194 27.0819 33.8583 25.7596C33.3582 24.8907 32.7072 24.2202 31.9054 23.7481C31.0584 23.2494 30.09 23 29 23C27.91 23 26.9415 23.2494 26.0946 23.7481C25.2928 24.2202 24.6418 24.8907 24.1417 25.7596C23.3806 27.0819 23 28.8287 23 31C23 33.1713 23.3806 34.9181 24.1417 36.2404C24.6418 37.1093 25.2928 37.7798 26.0946 38.2519C26.9415 38.7506 27.91 39 29 39C30.09 39 31.0584 38.7506 31.9054 38.2519C32.7072 37.7798 33.3582 37.1093 33.8583 36.2404ZM30.8342 29.049C30.9447 29.6133 31 30.2637 31 31C31 31.7363 30.9447 32.3867 30.8342 32.951C30.7302 33.4817 30.5827 33.913 30.3917 34.2449C30.2428 34.5035 30.0708 34.6902 29.8758 34.8051C29.6551 34.935 29.3632 35 29 35C28.6368 35 28.3449 34.935 28.1242 34.8051C27.9292 34.6902 27.7572 34.5035 27.6083 34.2449C27.4173 33.913 27.2698 33.4817 27.1658 32.951C27.0553 32.3867 27 31.7363 27 31C27 30.2637 27.0553 29.6133 27.1658 29.049C27.2698 28.5183 27.4173 28.087 27.6083 27.7551C27.7572 27.4965 27.9292 27.3098 28.1242 27.1949C28.3449 27.065 28.6368 27 29 27C29.3632 27 29.6551 27.065 29.8758 27.1949C30.0708 27.3098 30.2428 27.4965 30.3917 27.7551C30.5827 28.087 30.7302 28.5183 30.8342 29.049Z" fill-rule="evenodd"  fill="#000000" >
</path>
</svg>
