<svg xmlns="http://www.w3.org/2000/svg" xmlns:xlink="http://www.w3.org/1999/xlink" width="48" height="48" viewBox="0 0 48 48" fill="none">
<path d="M37 3L11 3C6.58172 3 3 6.58172 3 11L3 37C3 41.4183 6.58172 45 11 45L37 45C41.4183 45 45 41.4183 45 37L45 11C45 6.58172 41.4183 3 37 3ZM7 11C7 8.79086 8.79086 7 11 7L37 7C39.2091 7 41 8.79086 41 11L41 37C41 39.2091 39.2091 41 37 41L11 41C8.79086 41 7 39.2091 7 37L7 11ZM10 12C10 13.1046 10.8954 14 12 14L22 14L22 34L21.5 34C20.3954 34 19.5 34.8954 19.5 36C19.5 37.1046 20.3954 38 21.5 38L26.5 38C27.6046 38 28.5 37.1046 28.5 36C28.5 34.8954 27.6046 34 26.5 34L26 34L26 14L36 14C37.1046 14 38 13.1046 38 12C38 10.8954 37.1046 10 36 10L12 10C10.8954 10 10 10.8954 10 12Z" fill-rule="evenodd"  fill="#000000" >
</path>
</svg>
