<svg xmlns="http://www.w3.org/2000/svg" xmlns:xlink="http://www.w3.org/1999/xlink" width="48" height="48" viewBox="0 0 48 48" fill="none">
<path d="M3 17L3 8.78947C3 5.59204 5.59204 3 8.78947 3L17 3C18.1046 3 19 3.89543 19 5C19 6.10457 18.1046 7 17 7L8.78947 7C7.80117 7 7 7.80117 7 8.78947L7 17C7 18.1046 6.10457 19 5 19C3.89543 19 3 18.1046 3 17ZM27 7C25.8954 7 25 6.10457 25 5C25 3.89543 25.8954 3 27 3L34 3C35.1046 3 36 3.89543 36 5C36 6.10457 35.1046 7 34 7L32.5748 7L19.8815 41L21 41C22.1046 41 23 41.8954 23 43C23 44.1046 22.1046 45 21 45L14 45C12.8954 45 12 44.1046 12 43C12 41.8954 12.8954 41 14 41L15.6118 41L28.3052 7L27 7ZM43 29C44.1046 29 45 29.8954 45 31L45 39.2105C45 42.408 42.408 45 39.2105 45L31 45C29.8954 45 29 44.1046 29 43C29 41.8954 29.8954 41 31 41L39.2105 41C40.1988 41 41 40.1988 41 39.2105L41 31C41 29.8954 41.8954 29 43 29Z" fill-rule="evenodd"  fill="#000000" >
</path>
</svg>
