<svg xmlns="http://www.w3.org/2000/svg" xmlns:xlink="http://www.w3.org/1999/xlink" width="48" height="48" viewBox="0 0 48 48" fill="none">
<path d="M7 41C7 42.1046 6.10457 43 5 43C3.89543 43 3 42.1046 3 41L3 7C3 5.8954 3.89543 5 5 5C6.10457 5 7 5.8954 7 7L7 41ZM13 41C13 42.1046 12.1046 43 11 43C9.89543 43 9 42.1046 9 41L9 7C9 5.8954 9.89543 5 11 5C12.1046 5 13 5.8954 13 7L13 41ZM39 41C39 42.1046 38.1046 43 37 43C35.8954 43 35 42.1046 35 41L35 7C35 5.8954 35.8954 5 37 5C38.1046 5 39 5.8954 39 7L39 41ZM45 41C45 42.1046 44.1046 43 43 43C41.8954 43 41 42.1046 41 41L41 7C41 5.8954 41.8954 5 43 5C44.1046 5 45 5.8954 45 7L45 41ZM32.9246 23.9868C32.9255 24.5299 32.7524 25.0103 32.4054 25.4281L30.0562 28.2565C28.854 29.7039 26.5 28.8539 26.5 26.9723L26.5 26L21.5 26L21.5 26.9723C21.5 28.8539 19.146 29.704 17.9438 28.2565L15.5946 25.4281C15.2476 25.0103 15.0745 24.5299 15.0754 23.9868C15.0763 23.4438 15.2509 22.9639 15.5993 22.5473L17.948 19.7382C19.1528 18.2972 21.5 19.1492 21.5 21.0275L21.5 22L26.5 22L26.5 21.0275C26.5 19.1492 28.8472 18.2972 30.052 19.7382L32.4007 22.5472C32.7491 22.9639 32.9237 23.4437 32.9246 23.9868ZM27.3105 25.976L27.3105 25.976L28.5177 26.9787L27.3105 25.976Z" fill-rule="evenodd"  fill="#000000" >
</path>
</svg>
