<svg xmlns="http://www.w3.org/2000/svg" xmlns:xlink="http://www.w3.org/1999/xlink" width="48" height="48" viewBox="0 0 48 48" fill="none">
<path d="M20.3608 22.3431C20.104 22.4631 19.8175 22.5301 19.5153 22.5301C18.4108 22.5301 17.5153 21.6346 17.5153 20.5301C17.5153 19.6961 18.0257 18.9814 18.7512 18.6812C19.5146 18.3427 20.2076 17.8965 20.8303 17.3428C21.4307 16.809 21.9464 16.1934 22.3773 15.4961C22.7926 14.8242 23.1094 14.1096 23.3277 13.3523C23.54 12.6162 23.6466 11.8844 23.6477 11.1569C23.6487 10.4475 23.5492 9.78758 23.349 9.1771C23.1532 8.57994 22.8704 8.0619 22.5008 7.62298C21.6833 6.65234 20.4914 6.12368 18.9249 6.037C17.4704 5.95653 16.1427 6.00602 14.9419 6.18548C13.7255 6.36728 12.6868 6.6755 11.8259 7.11015C10.9911 7.53166 10.3446 8.06503 9.88641 8.71025C9.3976 9.39861 9.10782 10.2392 9.01706 11.2321C8.94477 12.0231 9.08899 12.639 9.44972 13.0797C9.76644 13.4666 10.2246 13.6852 10.8243 13.7355C11.1802 13.7653 11.558 13.73 11.9577 13.6294C12.414 13.5146 12.8736 13.3209 13.3364 13.0482C14.4491 12.3927 15.4529 11.3741 16.3476 9.99242C16.7008 9.42655 17.3291 9.05007 18.0453 9.05007C19.1499 9.05007 20.0453 9.94549 20.0453 11.0501C20.0453 11.4605 19.9217 11.842 19.7097 12.1594C18.4717 14.0732 17.024 15.5183 15.3667 16.4946C14.5732 16.9621 13.7623 17.3 12.9338 17.5085C12.1033 17.7174 11.2888 17.7884 10.4902 17.7215C9.66984 17.6528 8.90901 17.4428 8.20775 17.0915C7.48066 16.7272 6.86284 16.2344 6.35431 15.6131C5.83857 14.983 5.46793 14.2598 5.24239 13.4437C5.01989 12.6385 4.95032 11.7799 5.03367 10.868C5.18982 9.15967 5.72029 7.66844 6.62506 6.39431C7.46579 5.21038 8.59847 4.25876 10.0231 3.53946C11.2672 2.91134 12.7097 2.47466 14.3506 2.22942C15.8209 2.00969 17.4193 1.94759 19.1458 2.04311C20.4991 2.11799 21.7264 2.41781 22.8276 2.94257C23.8978 3.45256 24.8087 4.15382 25.5603 5.04635C26.263 5.88078 26.7929 6.84224 27.1498 7.93073C27.4834 8.94798 27.6494 10.0253 27.6477 11.1627C27.6461 12.2649 27.4872 13.3641 27.1711 14.4604C26.8514 15.5695 26.3877 16.6157 25.7799 17.599C25.1439 18.6281 24.38 19.5392 23.4882 20.3321C22.5514 21.1651 21.5089 21.8354 20.3608 22.3431ZM32.2112 21.8943C31.7172 20.9064 32.1177 19.7051 33.1056 19.2111C34.0935 18.7171 35.2948 19.1176 35.7888 20.1055L37.236 23L45 23C46.1046 23 47 23.8954 47 25C47 26.1046 46.1046 27 45 27L43.9307 27C43.8056 28.7657 43.5114 30.4282 43.048 31.9874C42.3941 34.1873 41.4144 36.1475 40.1089 37.868C39.7794 38.3023 39.4306 38.7193 39.0626 39.119C41.0439 40.373 42.8564 41 44.5 41C45.6046 41 46.5 41.8954 46.5 43C46.5 44.1046 45.6046 45 44.5 45C42.0572 45 39.5028 44.1479 36.8369 42.4438C36.5255 42.2448 36.2154 42.0357 35.9065 41.8166C35.6699 41.9755 35.4283 42.13 35.1817 42.2799C33.2356 43.4633 31.0076 44.3492 28.4977 44.9376C28.3386 44.9783 28.1718 45 28 45C26.8954 45 26 44.1046 26 43C26 42.0379 26.6794 41.2344 27.5846 41.0432C29.5015 40.5939 31.1991 39.9515 32.6776 39.1162C32.2484 38.6991 31.8351 38.2713 31.4378 37.8328C30.3173 36.5959 29.4417 35.3763 28.8111 34.1741C28.5602 33.6958 28.3338 33.1938 28.1318 32.6681C28.0166 32.3682 27.8734 31.957 27.7021 31.4344C27.6663 31.325 27.6378 31.2385 27.6168 31.175C27.5412 30.9641 27.5 30.7369 27.5 30.5C27.5 29.3954 28.3954 28.5 29.5 28.5C30.4003 28.5 31.1617 29.0949 31.4125 29.913C31.4353 29.9818 31.4655 30.0736 31.5032 30.1887C31.6537 30.6478 31.7745 30.996 31.8657 31.2335C32.0121 31.6143 32.1746 31.9752 32.3534 32.3161C32.8265 33.218 33.5094 34.1617 34.4022 35.1472C34.8719 35.6657 35.3684 36.1673 35.8916 36.652C36.2589 36.2723 36.6025 35.8716 36.9224 35.4501C37.9345 34.1163 38.6982 32.5822 39.2137 30.8478C39.5695 29.6507 39.8046 28.3681 39.9189 27L36.0267 27C36.0099 27.0002 35.9931 27.0002 35.9763 27L26.5 27C25.3954 27 24.5 26.1046 24.5 25C24.5 23.8954 25.3954 23 26.5 23L32.764 23L32.2112 21.8943ZM10.2 30L19 30C20.1046 30 21 29.1046 21 28C21 26.8954 20.1046 26 19 26L10.2 26C6.77584 26 4 28.7758 4 32.2L4 37.8C4 41.2242 6.77584 44 10.2 44L19 44C20.1046 44 21 43.1046 21 42C21 40.8954 20.1046 40 19 40L10.2 40C8.98497 40 8 39.015 8 37.8L8 32.2C8 30.985 8.98497 30 10.2 30Z" fill-rule="evenodd"  fill="#000000" >
</path>
</svg>
