<svg xmlns="http://www.w3.org/2000/svg" xmlns:xlink="http://www.w3.org/1999/xlink" width="48" height="48" viewBox="0 0 48 48" fill="none">
<path d="M31.1266 16.91L22.7366 36.39L16.4666 9.64C16.4379 9.38513 16.4555 9.16927 16.5166 8.99C16.565 8.84813 16.6479 8.71533 16.7666 8.59C16.8864 8.4636 17.046 8.34373 17.2366 8.23C17.3634 8.15434 17.5352 8.0692 17.7566 7.97C17.8549 7.926 17.9282 7.894 17.9766 7.87C18.2936 7.71267 18.5506 7.49673 18.7466 7.24C19.004 6.90307 19.1392 6.5324 19.1566 6.11C19.1694 5.8006 19.121 5.5036 18.9966 5.22C18.8918 4.98107 18.7436 4.76227 18.5566 4.58C18.2647 4.29547 17.9145 4.11706 17.5066 4.04C17.3597 4.01227 17.1862 4 16.9966 4L6.99665 4C4.94572 4 4.22595 6.7224 6.00665 7.74L8.84665 9.36L20.1066 42.64C20.4468 43.4993 21.0737 43.9531 21.9966 44L22.4966 44C22.9819 44 23.4418 43.8222 23.7966 43.52C23.7966 43.5314 23.8072 43.5328 23.8266 43.52C23.9169 43.4606 24.1786 43.1569 24.3366 42.79L34.7966 18.49L39.3166 8L40.4966 8C41.6012 8 42.4966 7.1046 42.4966 6C42.4966 4.8954 41.6012 4 40.4966 4L34.4966 4C33.392 4 32.4966 4.8954 32.4966 6C32.4966 7.1046 33.392 8 34.4966 8L34.9566 8L31.1266 16.91Z" fill-rule="evenodd"  fill="#000000" >
</path>
</svg>
