<svg xmlns="http://www.w3.org/2000/svg" xmlns:xlink="http://www.w3.org/1999/xlink" width="48" height="48" viewBox="0 0 48 48" fill="none">
<path d="M3 7C4.10457 7 5 7.89543 5 9L5 30C5 31.0512 5.07663 31.9596 5.22989 32.7253C5.42902 33.7202 5.76522 34.5609 6.23847 35.2474C7.50336 37.0825 9.92387 38 13.5 38C17.0761 38 19.4966 37.0825 20.7615 35.2474C21.2348 34.5609 21.571 33.7202 21.7701 32.7253C21.9234 31.9596 22 31.0512 22 30L22 9.5C22 7.53928 24.5283 6.74948 25.6444 8.36155L42.5 32.7077L42.5 16C42.5 14.8954 43.3954 14 44.5 14C45.6046 14 46.5 14.8954 46.5 16L46.5 39.11C46.5 41.0707 43.9717 41.8605 42.8556 40.2484L26 15.9023L26 30C26 31.3154 25.8974 32.4855 25.6923 33.5103C25.3854 35.0434 24.8396 36.3791 24.0549 37.5175C23.0751 38.939 21.7493 40.0263 20.0776 40.7794C18.2714 41.5931 16.0789 42 13.5 42C10.9211 42 8.72856 41.5931 6.92236 40.7794C5.25062 40.0263 3.92485 38.939 2.94506 37.5176C2.16033 36.3791 1.61454 35.0434 1.30769 33.5103C1.10256 32.4856 1 31.3155 1 30L1 9C1 7.89543 1.89543 7 3 7ZM42 9.5C42 8.11929 43.1193 7 44.5 7C45.8807 7 47 8.11929 47 9.5C47 10.8807 45.8807 12 44.5 12C43.1193 12 42 10.8807 42 9.5Z" fill-rule="evenodd"  fill="#000000" >
</path>
</svg>
