<svg xmlns="http://www.w3.org/2000/svg" xmlns:xlink="http://www.w3.org/1999/xlink" width="48" height="48" viewBox="0 0 48 48" fill="none">
<path d="M15 4C11.13 4 8 7.13 8 11C8 14.1748 10.1065 16.8517 13 17.7109L13 30.2891C10.1065 31.1483 8 33.8252 8 37C8 40.87 11.13 44 15 44C18.87 44 22 40.87 22 37C22 33.8252 19.8935 31.1483 17 30.2891L17 26L30 26C33.31 26 36 23.31 36 20L36 17.7109C38.8935 16.8517 41 14.1748 41 11C41 7.13 37.87 4 34 4C30.13 4 27 7.13 27 11C27 14.1748 29.1065 16.8517 32 17.7109L32 20C32 21.1 31.1 22 30 22L17 22L17 17.7109C19.8935 16.8517 22 14.1748 22 11C22 7.13 18.87 4 15 4Z" fill-rule="evenodd"  fill="#000000" >
</path>
</svg>
