<svg xmlns="http://www.w3.org/2000/svg" xmlns:xlink="http://www.w3.org/1999/xlink" width="48" height="48" viewBox="0 0 48 48" fill="none">
<path d="M42.9206 42.9205C43.7016 42.1395 43.7016 40.8731 42.9206 40.0921L30.9181 28.0896C30.1371 27.3086 28.8708 27.3086 28.0897 28.0896C27.3087 28.8707 27.3086 30.137 28.0897 30.9181L40.0921 42.9205C40.8732 43.7016 42.1395 43.7016 42.9206 42.9205Z" fill-rule="evenodd"  fill="#787878" >
</path>
<path d="M19.4937 34.4938C27.778 34.4938 34.4937 27.7781 34.4937 19.4938C34.4937 11.2095 27.778 4.49377 19.4937 4.49377C11.2094 4.49377 4.49365 11.2095 4.49365 19.4938C4.49365 27.7781 11.2094 34.4938 19.4937 34.4938ZM19.4937 8.49377C25.5688 8.49377 30.4937 13.4186 30.4937 19.4938C30.4937 25.5689 25.5688 30.4938 19.4937 30.4938C13.4185 30.4938 8.49365 25.5689 8.49365 19.4938C8.49365 13.4186 13.4185 8.49377 19.4937 8.49377Z" fill-rule="evenodd"  fill="#424242" >
</path>
</svg>
