<svg xmlns="http://www.w3.org/2000/svg" xmlns:xlink="http://www.w3.org/1999/xlink" width="48" height="48" viewBox="0 0 48 48" fill="none">
<path d="M24 45C28.4183 45 32 41.4183 32 37C31.9923 36.4509 31.797 35.9795 31.4142 35.5858C31.0205 35.203 30.5491 35.0077 30 35L18 35C17.4509 35.0077 16.9795 35.203 16.5858 35.5858C16.203 35.9795 16.0077 36.4509 16 37C16 41.4183 19.5817 45 24 45ZM20.5351 39C21.2267 40.1956 22.5194 41 24 41C25.4806 41 26.7733 40.1956 27.4649 39L20.5351 39Z" fill-rule="evenodd"  fill="#787878" >
</path>
<path d="M40 35L43 35C44.1046 35 45 35.8954 45 37C45 38.1046 44.1046 39 43 39L5 39C3.89543 39 3 38.1046 3 37C3 35.8954 3.89543 35 5 35L8 35L8 19C8 10.1635 15.1634 3 24 3C26.1693 3 28.2454 3.41939 30.2285 4.25818C32.143 5.06793 33.838 6.21063 35.3137 7.68629C36.7894 9.16196 37.9321 10.857 38.7418 12.7715C39.5806 14.7546 40 16.8307 40 19L40 35ZM36 35L36 19C36 17.3715 35.6859 15.8148 35.0578 14.3297C34.4507 12.8943 33.5932 11.6226 32.4853 10.5147C31.3774 9.40684 30.1058 8.54933 28.6703 7.9422C27.1852 7.31407 25.6285 7 24 7C17.3726 7 12 12.3726 12 19L12 35L36 35Z" fill-rule="evenodd"  fill="#424242" >
</path>
</svg>
