<svg xmlns="http://www.w3.org/2000/svg" xmlns:xlink="http://www.w3.org/1999/xlink" width="48" height="48" viewBox="0 0 48 48" fill="none">
<path d="M30.8238 31.6413L30.8288 31.6313C30.8288 31.6363 30.8263 31.6388 30.8238 31.6413ZM30.8238 31.6413C30.8213 31.6438 30.8188 31.6463 30.8188 31.6513L30.8238 31.6413ZM28.6988 32.7213C29.1488 35.3913 32.6588 36.1313 34.1588 33.8513L43.0588 20.6413C44.5588 18.4213 44.0388 15.4113 41.8788 13.8213L29.7088 4.82132C27.5588 3.24132 24.5688 5.04132 24.9588 7.67132L25.7888 13.3013C18.2588 17.6713 13.4888 24.5613 11.4788 33.9813C11.1388 35.3013 11.5488 36.3313 12.7088 37.0713C13.8688 37.8213 14.9888 37.7513 16.0688 36.8813L16.1088 36.8413L16.1488 36.8113C21.1588 32.2513 25.0688 29.3213 27.8588 28.0413L28.6988 32.7213ZM39.7388 18.4013C40.0488 17.9513 39.9388 17.3613 39.5088 17.0413L29.2688 9.47132L30.1588 15.4913L28.8988 16.1513C22.7488 19.3713 18.5588 24.4213 16.3188 31.3213C21.7788 26.6713 26.0188 24.0413 29.0288 23.4513L31.0288 23.0513L31.3888 25.0613L32.1988 29.5913L39.7388 18.4013ZM6 12C4.9 12 4 12.9 4 14L4 36C4 40.42 7.58 44 12 44L34 44C35.1 44 36 43.1 36 42C36 40.9 35.1 40 34 40L12 40C9.79 40 8 38.21 8 36L8 14C8 12.9 7.1 12 6 12Z" fill-rule="evenodd"  fill="#000000" >
</path>
</svg>
