<svg xmlns="http://www.w3.org/2000/svg" xmlns:xlink="http://www.w3.org/1999/xlink" width="48" height="48" viewBox="0 0 48 48" fill="none">
<path d="M9 36C9 37.1046 9.89543 38 11 38L20 38C21.1046 38 22 37.1046 22 36C22 34.8954 21.1046 34 20 34L11 34C9.89543 34 9 34.8954 9 36Z" fill-rule="evenodd"  fill="#424242" >
</path>
<path d="M31.5 36C31.5 37.1046 32.3954 38 33.5 38L37 38C38.1046 38 39 37.1046 39 36C39 34.8954 38.1046 34 37 34L33.5 34C32.3954 34 31.5 34.8954 31.5 36Z" fill-rule="evenodd"  fill="#424242" >
</path>
<path d="M24 36C24 37.1046 24.8954 38 26 38L27.5 38C28.6046 38 29.5 37.1046 29.5 36C29.5 34.8954 28.6046 34 27.5 34L26 34C24.8954 34 24 34.8954 24 36Z" fill-rule="evenodd"  fill="#424242" >
</path>
<path d="M38 3L10 3C5.58172 3 2 6.58172 2 11L2 37C2 41.4183 5.58172 45 10 45L38 45C42.4183 45 46 41.4183 46 37L46 11C46 6.58172 42.4183 3 38 3ZM6 11C6 8.79086 7.79086 7 10 7L38 7C40.2091 7 42 8.79086 42 11L42 37C42 39.2091 40.2091 41 38 41L10 41C7.79086 41 6 39.2091 6 37L6 11Z" fill-rule="evenodd"  fill="#787878" >
</path>
<path d="M6 31L6 27L42 27L42 31L6 31Z" fill-rule="evenodd"  fill="#424242" >
</path>
</svg>
