<svg xmlns="http://www.w3.org/2000/svg" xmlns:xlink="http://www.w3.org/1999/xlink" width="48" height="48" viewBox="0 0 48 48" fill="none">
<path d="M8 14C8 12.8954 7.10457 12 6 12C4.89543 12 4 12.8954 4 14L4 36C4 40.4183 7.58172 44 12 44L34 44C35.1046 44 36 43.1046 36 42C36 40.8954 35.1046 40 34 40L12 40C9.79086 40 8 38.2091 8 36L8 14Z" fill-rule="evenodd"  fill="#787878" >
</path>
<path d="M12.8146 29.3296C12.2571 30.8583 11.8104 32.4012 11.4747 33.9582C11.3316 34.6218 11.4023 35.2493 11.6868 35.8407C11.9589 36.406 12.3754 36.8348 12.9365 37.1272C13.4731 37.4068 14.0433 37.5085 14.6469 37.4325C15.268 37.3542 15.8165 37.0997 16.2925 36.6691C18.7148 34.4773 20.9763 32.6124 23.0773 31.0745C24.4793 30.0481 25.7389 29.224 26.8563 28.6024C27.2116 28.4046 27.5478 28.2296 27.865 28.0773L28.7068 32.7269C29.1865 35.3765 32.6436 36.1015 34.1474 33.8679L43.0561 20.636C43.423 20.091 43.6727 19.4984 43.8052 18.858C43.9332 18.2393 43.9434 17.6179 43.8358 16.9938C43.7282 16.3697 43.5105 15.7876 43.1827 15.2476C42.8433 14.6886 42.4095 14.2138 41.8813 13.8232L29.71 4.82326C27.5633 3.23588 24.5682 5.03286 24.9586 7.67405L25.7904 13.302C23.7126 14.5212 21.8216 15.9799 20.1174 17.6781C18.3703 19.4189 16.8413 21.3894 15.5302 23.5894C14.4612 25.3832 13.556 27.2966 12.8146 29.3296ZM28.8977 16.1518C26.6802 17.3107 24.6946 18.764 22.9408 20.5116C21.4308 22.0162 20.106 23.7247 18.9663 25.6371C18.0258 27.2152 17.2279 28.9028 16.5725 30.7C16.5009 30.8962 16.4314 31.0927 16.364 31.2894C17.8757 30.0109 19.3258 28.8634 20.7145 27.8469C24.1521 25.3304 26.9238 23.8652 29.0296 23.4513L31.0216 23.0598L31.3833 25.0575L32.2042 29.5918L39.7381 18.402C39.8875 18.18 39.9394 17.9372 39.894 17.6736C39.8485 17.4099 39.7182 17.1985 39.5031 17.0394L29.2676 9.4709L29.9498 14.0869L30.1577 15.4933L28.8977 16.1518L28.8977 16.1518Z" fill-rule="evenodd"  fill="#424242" >
</path>
</svg>
