<svg xmlns="http://www.w3.org/2000/svg" xmlns:xlink="http://www.w3.org/1999/xlink" width="48" height="48" viewBox="0 0 48 48" fill="none">
<path d="M8.99789 24.7829L4.63532 20.2344C3.87074 19.4372 2.60465 19.4107 1.80747 20.1753C1.0103 20.9399 0.98392 22.206 1.74851 23.0032L6.11107 27.5517C7.64024 29.146 10.1724 29.1988 11.7667 27.6697L16.3152 23.3071C17.1124 22.5425 17.1388 21.2764 16.3742 20.4793C15.6097 19.6821 14.3436 19.6557 13.5464 20.4203L8.99789 24.7829Z" fill-rule="evenodd"  fill="#787878" >
</path>
<path d="M26 4C15.5066 4 7 12.5066 7 23C7 24.1046 7.89543 25 9 25C10.1046 25 11 24.1046 11 23C11 14.7157 17.7157 8 26 8C34.2843 8 41 14.7157 41 23C41 31.2843 34.2843 38 26 38C24.4261 38 22.8979 37.7623 21.4152 37.287C19.9883 36.8295 18.6581 36.1701 17.4245 35.3088C17.0962 35.0727 16.6934 34.9336 16.2581 34.9336C15.1535 34.9336 14.2581 35.829 14.2581 36.9336C14.2581 37.6217 14.6056 38.2287 15.1348 38.5886C16.6979 39.68 18.3843 40.5158 20.194 41.096C22.0738 41.6987 24.0091 42 26 42C36.4934 42 45 33.4934 45 23C45 12.5066 36.4934 4 26 4Z" fill-rule="evenodd"  fill="#787878" >
</path>
<path d="M24.0009 12.9999C24.001 11.8953 24.8964 11 26.0009 11C27.1055 11 28.0009 11.8954 28.0009 13L28.0009 13.0001L28.0002 23.153L30.1424 22.1927C30.4023 22.0691 30.6931 22 31 22C32.1045 22 33 22.8954 33 24C33 24.8292 32.4954 25.5405 31.7765 25.8436L27.4431 27.7862L27.4431 27.7862C27.1252 27.9287 26.792 28 26.4436 28C25.094 28 23.9999 26.9059 24 25.5563L24.0009 13L24.0009 12.9999Z" fill-rule="evenodd"  fill="#424242" >
</path>
</svg>
