<svg xmlns="http://www.w3.org/2000/svg" xmlns:xlink="http://www.w3.org/1999/xlink" width="48" height="48" viewBox="0 0 48 48" fill="none">
<path d="M20.89 44.37C19.93 43.96 19.08 43.39 18.34 42.66C17.61 41.92 17.04 41.07 16.63 40.11C16.4758 39.7466 16.3499 39.3764 16.2524 39L5 39C3.9 39 3 38.1 3 37C3 35.9 3.9 35 5 35L8 35L8 19C8 16.88 8.41 14.84 9.22 12.88C10.03 10.92 11.18 9.19 12.69 7.69C14.19 6.18 15.92 5.03 17.88 4.22C19.84 3.41 21.88 3 24 3C26.12 3 28.16 3.41 30.12 4.22C32.08 5.03 33.81 6.18 35.31 7.69C36.82 9.19 37.97 10.92 38.78 12.88C39.59 14.84 40 16.88 40 19L40 35L43 35C44.1 35 45 35.9 45 37C45 38.1 44.1 39 43 39L31.7476 39C31.6501 39.3764 31.5242 39.7466 31.37 40.11C30.96 41.07 30.39 41.92 29.66 42.66C28.92 43.39 28.07 43.96 27.11 44.37C26.12 44.79 25.08 45 24 45C22.92 45 21.88 44.79 20.89 44.37ZM20.54 39C20.71 39.3 20.92 39.58 21.17 39.83C21.54 40.2 21.97 40.48 22.45 40.69C22.94 40.9 23.46 41 24 41C24.54 41 25.06 40.9 25.55 40.69C26.03 40.48 26.46 40.2 26.83 39.83C27.08 39.58 27.29 39.3 27.46 39L20.54 39Z" fill-rule="evenodd"  fill="#000000" >
</path>
</svg>
