<svg xmlns="http://www.w3.org/2000/svg" xmlns:xlink="http://www.w3.org/1999/xlink" width="48" height="48" viewBox="0 0 48 48" fill="none">
<path d="M20.2327 3.62927C19.3276 2.54309 18.1666 2 16.7498 2C13.6527 2 11.4657 5.03668 12.4446 7.97354L15.4498 17L13.3322 17L9.41475 13.2594C8.53696 12.4198 7.49533 12 6.28986 12C3.78422 12 1.81944 14.1568 2.04615 16.6506L2.68629 23.7221C2.87348 25.7812 3.72935 27.5084 5.25389 28.9035C6.7812 30.3012 8.57985 31 10.6499 31L15.4504 31L12.4456 40.0251C11.4657 42.9649 13.6515 46 16.7503 46C17.4158 46 18.0497 45.8612 18.6518 45.5835C19.2698 45.2986 19.7969 44.8943 20.2332 44.3707L20.2337 44.3702L31.3714 31L37.9998 31C41.8658 31 44.9998 27.866 44.9998 24C44.9998 20.134 41.8658 17 37.9998 17L31.3708 17L20.2327 3.62927ZM26.1654 31L19.6662 31L18.8054 33.5857L16.2404 41.29C16.1241 41.6389 16.3826 42 16.7503 42C16.9103 42 17.058 41.9329 17.1604 41.81L19.3525 39.1785L26.1654 31ZM29.4969 21L22.3615 12.4343L19.3526 8.8224L17.1598 6.19C17.0574 6.06715 16.9097 6 16.7498 6C16.382 6 16.1235 6.36108 16.2398 6.71L17.3199 9.95407L18.8048 14.4143L19.6657 17L20.9974 21L11.7292 21L10.3537 19.6866L9.21223 18.5967L6.64986 16.15C6.55178 16.0562 6.42557 16 6.28986 16C6.13491 16 6.01583 16.1357 6.02986 16.29L6.50534 21.5426L6.66986 23.36C6.85716 25.4203 8.58105 27 10.6499 27L37.9998 27C39.6567 27 40.9998 25.6569 40.9998 24C40.9998 22.3431 39.6567 21 37.9998 21L29.4969 21Z" fill-rule="evenodd"  fill="#000000" >
</path>
</svg>
