<svg xmlns="http://www.w3.org/2000/svg" xmlns:xlink="http://www.w3.org/1999/xlink" width="48" height="48" viewBox="0 0 48 48" fill="none">
<path d="M16.991 4.3C16.981 4.24 16.971 4.17 16.961 4.11C16.951 4.05 16.931 3.98 16.911 3.92C16.891 3.86 16.871 3.8 16.851 3.73C16.821 3.67 16.791 3.61 16.761 3.56C16.731 3.5 16.701 3.44 16.661 3.39C16.631 3.33 16.591 3.28 16.551 3.23C16.501 3.18 16.461 3.13 16.411 3.09C16.371 3.04 16.321 3 16.271 2.95C16.221 2.91 16.161 2.87 16.111 2.84C16.061 2.8 16.001 2.77 15.941 2.74C15.881 2.71 15.831 2.68 15.761 2.65L15.581 2.59C15.521 2.57 15.451 2.55 15.391 2.54C15.331 2.53 15.261 2.52 15.201 2.51C15.131 2.5 15.061 2.5 15.001 2.5C14.931 2.5 14.871 2.5 14.801 2.51C14.741 2.52 14.671 2.53 14.611 2.54C14.541 2.55 14.481 2.57 14.421 2.59C14.361 2.61 14.291 2.63 14.231 2.65C14.171 2.68 14.111 2.71 14.061 2.74C14.001 2.77 13.941 2.8 13.891 2.84C13.831 2.87 13.781 2.91 13.731 2.95C13.681 3 13.631 3.04 13.581 3.09C13.541 3.13 13.491 3.18 13.451 3.23C13.411 3.28 13.371 3.33 13.341 3.39C13.301 3.44 13.271 3.5 13.241 3.56C13.201 3.61 13.181 3.67 13.151 3.73C13.131 3.8 13.101 3.86 13.091 3.92C13.071 3.98 13.051 4.05 13.041 4.11C13.021 4.17 13.021 4.24 13.011 4.3C13.001 4.37 13.001 4.43 13.001 4.5L13.001 39.51L8.30098 35.48C8.21098 35.4 8.12098 35.34 8.01098 35.28C7.91098 35.22 7.80098 35.17 7.69098 35.12C7.58098 35.08 7.47098 35.05 7.35098 35.03C7.24098 35.01 7.12098 35 7.00098 35C6.93098 35 6.87098 35 6.80098 35.01C6.74098 35.02 6.67098 35.03 6.61098 35.04C6.55098 35.05 6.48098 35.07 6.42098 35.09C6.36098 35.11 6.30098 35.13 6.23098 35.15C6.17098 35.18 6.11098 35.21 6.06098 35.24C6.00098 35.27 5.94098 35.3 5.89098 35.34C5.83098 35.37 5.78098 35.41 5.73098 35.45C5.68098 35.5 5.63098 35.54 5.59098 35.59C5.54098 35.63 5.50098 35.68 5.45098 35.73C5.41098 35.78 5.37098 35.83 5.34098 35.89C5.30098 35.94 5.27098 36 5.24098 36.06C5.21098 36.11 5.18098 36.17 5.15098 36.23C5.13098 36.3 5.11098 36.36 5.09098 36.42C5.07098 36.48 5.05098 36.55 5.04098 36.61C5.03098 36.67 5.02098 36.74 5.01098 36.8C5.00098 36.87 5.00098 36.93 5.00098 37C5.00098 37.14 5.02098 37.29 5.05098 37.43C5.08098 37.57 5.12098 37.7 5.18098 37.84C5.24098 37.97 5.32098 38.09 5.40098 38.2C5.49098 38.32 5.59098 38.42 5.70098 38.52L12.441 44.3C12.701 44.52 13.001 44.69 13.321 44.81C13.661 44.94 14.011 45 14.371 45L14.501 45C14.841 45 15.161 44.94 15.471 44.81C15.771 44.68 16.041 44.5 16.271 44.27C16.501 44.04 16.681 43.77 16.811 43.47C16.941 43.16 17.001 42.84 17.001 42.5L17.001 4.5C17.001 4.43 17.001 4.37 16.991 4.3ZM21.0001 5C21.0001 3.9 21.9001 3 23.0001 3C23.1342 3 23.2653 3.01336 23.3921 3.03883L23.3921 3L38.7021 3C39.4121 3.01 40.0321 3.22 40.5621 3.65C41.0521 4.04 41.3821 4.53 41.5621 5.13C41.7521 5.74 41.7421 6.33 41.5521 6.93C41.3421 7.58 40.9421 8.1 40.3621 8.49L27.6121 17L39.6121 17L39.6121 17.038C39.7377 17.0131 39.8675 17 40.0001 17C41.1001 17 42.0001 17.9 42.0001 19C42.0001 20.1 41.1001 21 40.0001 21C39.8675 21 39.7377 20.9869 39.6121 20.962L39.6121 21L24.2821 21C23.5821 20.99 22.9721 20.78 22.4421 20.35C21.9521 19.96 21.6221 19.47 21.4321 18.87C21.2521 18.26 21.2621 17.67 21.4521 17.07C21.6621 16.42 22.0521 15.9 22.6421 15.51L35.3921 7L23.3921 7L23.3921 6.96117C23.2653 6.98664 23.1342 7 23.0001 7C21.9001 7 21.0001 6.1 21.0001 5ZM20.2101 42.2C20.0701 42.48 20.0001 42.78 20.0001 43.09C20.0001 43.16 20.0001 43.22 20.0101 43.29C20.0201 43.35 20.0301 43.42 20.0401 43.48C20.0501 43.54 20.0701 43.61 20.0901 43.67C20.1101 43.73 20.1301 43.79 20.1501 43.86C20.1801 43.92 20.2101 43.98 20.2401 44.03C20.2701 44.09 20.3001 44.15 20.3401 44.2C20.3701 44.26 20.4101 44.31 20.4501 44.36C20.5001 44.41 20.5401 44.46 20.5901 44.5C20.6301 44.55 20.6801 44.59 20.7301 44.64C20.7801 44.68 20.8301 44.72 20.8901 44.75C20.9401 44.79 21.0001 44.82 21.0601 44.85C21.1101 44.88 21.1701 44.91 21.2301 44.94C21.3001 44.96 21.3601 44.98 21.4201 45C21.4801 45.02 21.5501 45.04 21.6101 45.05C21.6701 45.06 21.7401 45.07 21.8001 45.08C21.8701 45.09 21.9301 45.09 22.0001 45.09C22.0901 45.09 22.1901 45.08 22.2801 45.07C22.3701 45.06 22.4601 45.04 22.5501 45.01C22.6401 44.99 22.7201 44.96 22.8101 44.92C22.8901 44.88 22.9801 44.84 23.0501 44.79C23.1301 44.74 23.2101 44.69 23.2801 44.63C23.3501 44.57 23.4201 44.5 23.4801 44.43C23.5401 44.37 23.6001 44.29 23.6501 44.22C23.7001 44.14 23.7501 44.06 23.7901 43.98L25.8055 39.91L37.1898 39.91L39.2001 43.97C39.2401 44.05 39.2901 44.13 39.3401 44.21C39.3901 44.29 39.4501 44.36 39.5101 44.43C39.5801 44.5 39.6401 44.56 39.7101 44.62C39.7901 44.68 39.8601 44.74 39.9401 44.79C40.0201 44.84 40.1001 44.88 40.1901 44.92C40.2701 44.96 40.3601 44.99 40.4501 45.01C40.5401 45.04 40.6301 45.06 40.7201 45.07C40.8101 45.08 40.9101 45.09 41.0001 45.09C41.0701 45.09 41.1301 45.09 41.2001 45.08C41.2601 45.07 41.3301 45.06 41.3901 45.05C41.4501 45.04 41.5201 45.02 41.5801 45C41.6401 44.98 41.7001 44.96 41.7701 44.94C41.8301 44.91 41.8801 44.88 41.9401 44.85C42.0001 44.82 42.0601 44.79 42.1101 44.75C42.1701 44.72 42.2201 44.68 42.2701 44.64C42.3201 44.59 42.3701 44.55 42.4101 44.5C42.4601 44.46 42.5001 44.41 42.5501 44.36C42.5901 44.31 42.6301 44.26 42.6601 44.2C42.7001 44.15 42.7301 44.09 42.7601 44.03C42.7901 43.98 42.8201 43.92 42.8501 43.86C42.8701 43.79 42.8901 43.73 42.9101 43.67C42.9301 43.61 42.9501 43.54 42.9601 43.48C42.9701 43.42 42.9801 43.35 42.9901 43.29C43.0001 43.22 43.0001 43.16 43.0001 43.09C43.0001 42.78 42.9301 42.48 42.7901 42.2L35.0801 26.64C34.7301 25.93 34.2201 25.37 33.5401 24.97C32.9201 24.6 32.2301 24.41 31.4901 24.41C30.7601 24.41 30.0701 24.6 29.4501 24.97C28.7701 25.37 28.2601 25.93 27.9001 26.65L20.2101 42.2ZM35.2091 35.91L31.5001 28.42L31.4968 28.4167L27.7862 35.91L35.2091 35.91Z" fill-rule="evenodd"  fill="#000000" >
</path>
</svg>
