<svg xmlns="http://www.w3.org/2000/svg" xmlns:xlink="http://www.w3.org/1999/xlink" width="48" height="48" viewBox="0 0 48 48" fill="none">
<path d="M19.9991 6L20 42.7694C20 44.2775 18.7775 45.5 17.2694 45.5C16.9435 45.5 16.6277 45.4435 16.322 45.3304C16.0163 45.2173 15.7397 45.0546 15.4923 44.8425L8.70833 39.027L8.69833 39.0184C8.27082 38.6517 8 38.1075 8 37.5C8 36.3954 8.89543 35.5 10 35.5C10.5011 35.5 10.9592 35.6843 11.3102 35.9888L15.9999 40.0091L15.9991 6.00005L15.9991 6C15.9991 4.89543 16.8946 4 17.9991 4C19.1037 4 19.9991 4.89541 19.9991 5.99995L19.9991 6Z" fill-rule="evenodd"  fill="#787878" >
</path>
<path d="M28 6.22754L28.0008 43C28.0008 44.1046 28.8963 45 30.0008 45C31.1054 45 32.0008 44.1046 32.0008 43L32.0001 9.03207L37.6756 13.9987C38.0283 14.3106 38.492 14.5 39 14.5C40.1046 14.5 41 13.6046 41 12.5C41 11.8958 40.7321 11.3542 40.3086 10.9875L32.5236 4.17494C32.275 3.95739 31.9961 3.79051 31.6869 3.6743C31.3776 3.5581 31.0578 3.5 30.7275 3.5C29.2211 3.5 28 4.72117 28 6.22754Z" fill-rule="evenodd"  fill="#424242" >
</path>
</svg>
