<svg xmlns="http://www.w3.org/2000/svg" xmlns:xlink="http://www.w3.org/1999/xlink" width="48" height="48" viewBox="0 0 48 48" fill="none">
<path d="M28.6988 32.7213C29.1488 35.3913 32.6588 36.1313 34.1588 33.8513L43.0588 20.6413C44.5588 18.4213 44.0388 15.4113 41.8788 13.8213L29.7088 4.82132C27.5588 3.24132 24.5688 5.04132 24.9588 7.67132L25.7888 13.3013C18.2588 17.6713 13.4888 24.5613 11.4788 33.9813C11.1388 35.3013 11.5488 36.3313 12.7088 37.0713C13.8688 37.8213 14.9888 37.7513 16.0688 36.8813L16.1088 36.8413L16.1488 36.8113C21.1588 32.2513 25.0688 29.3213 27.8588 28.0413L28.6988 32.7213ZM4 14C4 12.9 4.9 12 6 12C7.1 12 8 12.9 8 14L8 36C8 38.21 9.79 40 12 40L34 40C35.1 40 36 40.9 36 42C36 43.1 35.1 44 34 44L12 44C7.58 44 4 40.42 4 36L4 14Z" fill-rule="evenodd"  fill="#000000" >
</path>
</svg>
