<svg xmlns="http://www.w3.org/2000/svg" xmlns:xlink="http://www.w3.org/1999/xlink" width="48" height="48" viewBox="0 0 48 48" fill="none">
<g  clip-path="url(#clip-path-178_8)">
<path d="M31.9498 30.2021C30.846 30.1619 29.9185 31.0241 29.8783 32.128C29.838 33.2318 30.7002 34.1593 31.8041 34.1995L38.1023 34.4291L37.8727 40.7274C37.8325 41.8312 38.6947 42.7587 39.7985 42.7989C40.9024 42.8392 41.8299 41.9769 41.8701 40.8731L42.0997 34.5748C42.1802 32.3672 40.4557 30.5122 38.2481 30.4317L31.9498 30.2021Z" fill-rule="evenodd"  fill="#424242" >
</path>
<path d="M38.2129 37.1044C30.6783 44.4079 18.6496 44.2205 11.3461 36.6859C9.43413 34.7134 8.01859 32.4431 7.09951 29.8751C6.21286 27.3977 5.85641 24.8415 6.03016 22.2065C6.06014 21.7268 6.26196 21.2564 6.63426 20.8955C7.4274 20.1267 8.69355 20.1465 9.46234 20.9396C9.87422 21.3645 10.0598 21.9252 10.0213 22.4724C9.88444 24.5539 10.1659 26.5722 10.8656 28.5273C11.5902 30.5521 12.7078 32.3436 14.2183 33.9018C19.9842 39.8503 29.4805 39.9982 35.4289 34.2323C36.222 33.4635 37.4882 33.4832 38.257 34.2763C39.0258 35.0695 39.006 36.3356 38.2129 37.1044Z" fill-rule="evenodd"  fill="#424242" >
</path>
<path d="M10.7183 13.5599L10.9479 7.26161C10.9881 6.15778 10.1259 5.23027 9.02206 5.19003C7.91822 5.14979 6.99076 6.01205 6.95052 7.11589L6.72092 13.4142C6.64044 15.6218 8.36487 17.4767 10.5725 17.5572L16.8708 17.7868C17.9746 17.8271 18.9021 16.9649 18.9424 15.861C18.9826 14.7572 18.1204 13.8297 17.0165 13.7895L10.7183 13.5599Z" fill-rule="evenodd"  fill="#787878" >
</path>
<path d="M37.4751 11.3031C30.1716 3.76843 18.1429 3.58105 10.6083 10.8845C9.81517 11.6533 9.79547 12.9195 10.5643 13.7126C11.333 14.5057 12.5992 14.5255 13.3923 13.7567C19.3407 7.99076 28.8371 8.1387 34.603 14.0871C36.1817 15.7158 37.33 17.5957 38.0478 19.7268C38.7407 21.7841 38.976 23.8967 38.7538 26.0646C38.691 26.6365 38.8741 27.2308 39.3057 27.6762C40.0746 28.4693 41.3407 28.489 42.1338 27.7202C42.4887 27.3762 42.6888 26.9326 42.7326 26.4763C42.871 25.1281 42.866 23.7806 42.7175 22.4338C42.5675 21.0724 42.2745 19.7445 41.8385 18.45C40.9282 15.7472 39.4737 13.3649 37.4751 11.3031Z" fill-rule="evenodd"  fill="#787878" >
</path>
</g>
<defs>
<clipPath id="clip-path-178_8">
<path d="M0 48L48 48L48 0L0 0L0 48Z" fill="white"/>
</clipPath>
</defs>
</svg>
