<svg xmlns="http://www.w3.org/2000/svg" xmlns:xlink="http://www.w3.org/1999/xlink" width="48" height="48" viewBox="0 0 48 48" fill="none">
<path d="M8.07724 17.1812C7.93276 16.9047 7.85107 16.5901 7.85107 16.2565C7.85107 15.1519 8.7465 14.2565 9.85107 14.2565C10.6519 14.2565 11.3427 14.7271 11.6622 15.4068C11.7844 15.6525 11.9511 15.9749 12.1624 16.3739C12.6108 17.2207 13.0752 18.0549 13.5556 18.8767C15.0659 21.4601 16.4325 23.4175 17.6555 24.7488L17.67 24.7646L17.6843 24.7808C18.3093 25.4913 18.9594 26.1239 19.6347 26.6786C20.3069 27.2308 21.0423 27.7371 21.8408 28.1975C22.6344 28.6551 23.5359 29.0936 24.5453 29.513C25.5171 29.9167 26.6539 30.3292 27.9557 30.7506C29.9851 31.4074 32.4709 31.8415 35.4133 32.0528C36.3445 32.1196 37.2636 32.1592 38.1705 32.1716C38.6116 32.1776 38.9578 32.1773 39.209 32.1708C39.2295 32.1701 39.25 32.1698 39.2705 32.1698C40.3751 32.1698 41.2705 33.0653 41.2705 34.1698C41.2705 35.2591 40.3998 36.145 39.3164 36.1693C39.0115 36.1773 38.6114 36.1779 38.116 36.1712C37.1317 36.1578 36.1353 36.1149 35.1269 36.0425C31.8619 35.8081 29.0609 35.3126 26.7239 34.5562C25.3197 34.1017 24.0819 33.6519 23.0107 33.2069C21.8419 32.7213 20.7859 32.2065 19.8427 31.6627C18.8537 31.0924 17.938 30.4614 17.0958 29.7696C16.2587 29.082 15.4585 28.3051 14.6951 27.4389C13.2825 25.8975 11.7516 23.7164 10.1024 20.8955C9.59371 20.0253 9.10206 19.1421 8.62746 18.2459C8.39867 17.8138 8.21526 17.4589 8.07724 17.1812Z" fill-rule="evenodd"  fill="#424242" >
</path>
<path d="M25.948 11.7551C25.8743 12.0997 25.7586 12.5423 25.601 13.0831C25.2813 14.1806 24.889 15.3005 24.4243 16.443C23.7752 18.0387 23.026 19.5711 22.1766 21.0402C21.1104 22.8844 19.9151 24.5771 18.5906 26.1183C17.2681 27.6574 15.8417 29.0454 14.3114 30.2822C13.0814 31.2763 11.8116 32.1514 10.5021 32.9075C9.55616 33.4538 8.63369 33.9137 7.73469 34.2872C7.28805 34.4728 6.91731 34.6108 6.62246 34.7012C6.42655 34.7654 6.21732 34.8 6 34.8C4.89543 34.8 4 33.9046 4 32.8C4 31.8808 4.62011 31.1064 5.46481 30.8724C5.632 30.8206 5.87697 30.7277 6.1997 30.5935C6.93865 30.2865 7.70605 29.9031 8.50189 29.4435C9.63086 28.7917 10.7293 28.0342 11.7971 27.1712C13.139 26.0867 14.3922 24.8668 15.5568 23.5114C16.7195 22.1584 17.7718 20.6673 18.7137 19.0381C19.471 17.7284 20.1394 16.361 20.7191 14.9358C21.1322 13.9205 21.4794 12.93 21.7607 11.9643C21.8907 11.5181 21.9822 11.1713 22.0353 10.9241C22.2112 9.99923 23.024 9.30005 24 9.30005C25.1046 9.30005 26 10.1955 26 11.3C26 11.4566 25.982 11.6089 25.948 11.7551Z" fill-rule="evenodd"  fill="#424242" >
</path>
<path d="M18.75 5.34998C18.75 6.73069 17.6307 7.84998 16.25 7.84998C14.8693 7.84998 13.75 6.73069 13.75 5.34998C13.75 3.96926 14.8693 2.84998 16.25 2.84998C17.6307 2.84998 18.75 3.96926 18.75 5.34998Z"   fill="#424242" >
</path>
<path d="M3.7998 11.2C3.7998 12.3045 4.69523 13.2 5.7998 13.2L26.7998 13.2C27.9044 13.2 28.7998 12.3045 28.7998 11.2C28.7998 10.0954 27.9044 9.19995 26.7998 9.19995L5.7998 9.19995C4.69523 9.19995 3.7998 10.0954 3.7998 11.2Z" fill-rule="evenodd"  fill="#424242" >
</path>
<path d="M44.0777 41.8491C44.1569 42.0644 44.2002 42.2972 44.2002 42.54C44.2002 43.6446 43.3048 44.54 42.2002 44.54C41.3058 44.54 40.5486 43.953 40.2928 43.1431L37.4612 34.8594C37.4601 34.856 37.4589 34.8525 37.4577 34.849C37.4566 34.8456 37.4554 34.8421 37.4543 34.8386L33.6848 23.4023C33.5685 23.3415 33.4176 23.311 33.232 23.311C33.0644 23.311 32.9286 23.3354 32.8247 23.3841L28.8147 34.8717L28.8141 34.8732L28.8136 34.8748L25.9065 43.1585C25.646 43.9604 24.8926 44.54 24.0039 44.54C22.8993 44.54 22.0039 43.6446 22.0039 42.54C22.0039 42.2914 22.0493 42.0534 22.1322 41.8338L25.0382 33.5534L25.0393 33.5502L29.0603 22.0311C29.2139 21.5578 29.4563 21.1322 29.7876 20.7544C30.0862 20.4138 30.4431 20.1288 30.8584 19.8992C31.5679 19.5071 32.3591 19.311 33.232 19.311C34.1 19.311 34.8905 19.5049 35.6036 19.8925C36.0173 20.1174 36.3751 20.3963 36.6771 20.7293C37.0208 21.1083 37.2749 21.5372 37.4393 22.0159C37.4407 22.0198 37.442 22.0237 37.4433 22.0276C37.4446 22.0316 37.446 22.0355 37.4473 22.0394L41.2498 33.576L44.0777 41.8491Z" fill-rule="evenodd"  fill="#787878" >
</path>
</svg>
