<svg xmlns="http://www.w3.org/2000/svg" xmlns:xlink="http://www.w3.org/1999/xlink" width="48" height="48" viewBox="0 0 48 48" fill="none">
<path d="M18.6512 2.41646C18.0491 2.13882 17.4153 2 16.7498 2C13.6527 2 11.4658 5.03662 12.4446 7.97354L15.4498 17L13.3322 17L9.41461 13.2593C9.01204 12.8743 8.55573 12.5736 8.04571 12.3573C7.48404 12.1191 6.89876 12 6.28986 12C3.78421 12 1.81942 14.1568 2.04615 16.6506L2.68629 23.7221C2.77824 24.7336 3.05168 25.6915 3.50659 26.5957C3.9472 27.4715 4.52964 28.2408 5.25389 28.9035C5.97892 29.567 6.79741 30.0792 7.70935 30.4402C8.65216 30.8134 9.63233 31 10.6499 31L37.9998 31C41.8658 31 44.9998 27.866 44.9998 24C44.9998 20.134 41.8658 17 37.9998 17L31.3708 17L20.2324 3.62895C19.7962 3.10549 19.2691 2.70133 18.6512 2.41646ZM10.65 27L10.6499 27C8.58105 27 6.85716 25.4203 6.66986 23.36L6.50534 21.5426L6.36563 19.9993L6.02986 16.29C6.01583 16.1357 6.13491 16 6.28986 16C6.13499 16.0001 6.016 16.1358 6.03002 16.29L6.67002 23.36C6.85732 25.4203 8.58121 27 10.65 27ZM20.9974 21L19.6657 17L18.8048 14.4143L16.2398 6.71C16.1235 6.36108 16.382 6 16.7498 6C16.3821 6.00011 16.1237 6.36113 16.24 6.71L20.9976 21L20.9974 21ZM14.7948 33L29.7148 33L20.2348 44.37C19.7985 44.8936 19.2728 45.2951 18.6548 45.58C18.0527 45.8577 17.4203 46 16.7548 46C13.656 46 11.4749 42.9698 12.4548 40.03L14.7948 33Z" fill-rule="evenodd"  fill="#000000" >
</path>
</svg>
