<svg xmlns="http://www.w3.org/2000/svg" xmlns:xlink="http://www.w3.org/1999/xlink" width="48" height="48" viewBox="0 0 48 48" fill="none">
<path d="M45 37C45 35.8954 44.1046 35 43 35L40 35L40 19C40 18.188 39.9412 17.3891 39.8237 16.6032L36 20.5483L36 35L21.9929 35L16.7572 40.4019C18.0357 43.1191 20.7982 45 24 45C27.7277 45 30.8599 42.4505 31.748 39L43 39C44.1046 39 45 38.1046 45 37ZM12.5455 39L16.4224 35L12 35L12 19C12 12.3726 17.3726 7 24 7C25.6285 7 27.1852 7.31407 28.6703 7.9422C30.1058 8.54933 31.3774 9.40684 32.4853 10.5147C33.5932 11.6226 34.4507 12.8943 35.0578 14.3297C35.2035 14.6741 35.3322 15.0223 35.4441 15.3744L38.4981 12.2235C37.7085 10.532 36.647 9.01959 35.3137 7.68629C33.838 6.21063 32.143 5.06793 30.2285 4.25818C28.2454 3.41939 26.1693 3 24 3C15.1634 3 8 10.1635 8 19L8 35L5 35C3.89543 35 3 35.8954 3 37C3 38.1046 3.89543 39 5 39L12.5455 39ZM20.5351 39C21.2267 40.1956 22.5194 41 24 41C25.4806 41 26.7733 40.1956 27.4649 39L20.5351 39Z" fill-rule="evenodd"  fill="#787878" >
</path>
<path d="M40.9343 10.3939L9.43847 42.8895L9.43614 42.8919C9.07261 43.2669 8.56352 43.5 8 43.5C6.89543 43.5 6 42.6046 6 41.5C6 40.959 6.21484 40.4681 6.56386 40.1081L6.56553 40.1063L38.0615 7.61048L38.0639 7.60805C38.4274 7.23306 38.9365 7 39.5 7C40.6046 7 41.5 7.89543 41.5 9C41.5 9.54105 41.2852 10.0319 40.9361 10.3919L40.9343 10.3939Z" fill-rule="evenodd"  fill="#424242" >
</path>
</svg>
