<svg xmlns="http://www.w3.org/2000/svg" xmlns:xlink="http://www.w3.org/1999/xlink" width="48" height="48" viewBox="0 0 48 48" fill="none">
<path d="M18.784 42.9685C21.6588 45.8403 26.3097 45.6927 29.0453 42.688C32.146 39.2822 34.6823 35.9621 36.6544 32.7276C39.5515 27.9761 41 23.7335 41 20C41 17.8306 40.6162 15.7369 39.8487 13.7188C39.0688 11.6682 37.9522 9.8543 36.4991 8.27695C34.9721 6.61934 33.1774 5.33908 31.1151 4.43616C28.9282 3.47872 26.5565 3 24 3C21.4404 3 19.0835 3.44095 16.9293 4.32285C14.8431 5.17695 13.0405 6.40355 11.5217 8.00267C10.0485 9.55369 8.92371 11.3682 8.14721 13.4462C7.3824 15.4929 7 17.6775 7 20C7 24.3247 8.40655 28.8193 11.2197 33.4837C12.297 35.27 13.5661 37.0534 15.027 38.8337C16.1853 40.2452 17.4376 41.6235 18.784 42.9685ZM33.2392 30.6453C31.4001 33.6616 29.0162 36.7782 26.0875 39.9951C24.8881 41.3126 22.8714 41.3977 21.611 40.1386C20.3578 38.8867 19.1939 37.606 18.1192 36.2964C16.7807 34.6652 15.6226 33.039 14.6449 31.4179C12.215 27.3888 11 23.5829 11 20C11 18.1595 11.2981 16.4416 11.8942 14.8463C12.4804 13.2774 13.3231 11.9144 14.422 10.7573C15.5469 9.57294 16.8879 8.66204 18.4448 8.02465C20.1134 7.34155 21.9651 7 24 7C25.9983 7 27.8353 7.36679 29.5108 8.10037C31.0605 8.77886 32.4093 9.74111 33.5572 10.9871C34.6619 12.1863 35.5129 13.5709 36.11 15.1408C36.7033 16.7009 37 18.3206 37 20C37 21.5504 36.6533 23.2699 35.9599 25.1584C35.3294 26.8754 34.4225 28.7044 33.2392 30.6453Z" fill-rule="evenodd"  fill="#787878" >
</path>
<path d="M24 27C28.4183 27 32 23.4183 32 19C32 14.5817 28.4183 11 24 11C19.5817 11 16 14.5817 16 19C16 23.4183 19.5817 27 24 27ZM24 15C26.2091 15 28 16.7909 28 19C28 21.2091 26.2091 23 24 23C21.7909 23 20 21.2091 20 19C20 16.7909 21.7909 15 24 15Z" fill-rule="evenodd"  fill="#424242" >
</path>
</svg>
