<svg xmlns="http://www.w3.org/2000/svg" xmlns:xlink="http://www.w3.org/1999/xlink" width="48" height="48" viewBox="0 0 48 48" fill="none">
<path d="M19.5484 35.6578C22.0097 38.1165 25.9938 37.9922 28.3359 35.4197C30.8336 32.6762 32.878 29.9997 34.469 27.3903C36.8256 23.5252 38.0039 20.0617 38.0039 17C38.0039 15.2155 37.6882 13.4931 37.0567 11.8328C36.4145 10.1443 35.4947 8.65023 34.2974 7.35054C33.0379 5.9833 31.5575 4.92729 29.8564 4.18251C28.0557 3.39417 26.1049 3 24.0039 3C21.9038 3 19.9677 3.3627 18.1958 4.0881C16.4739 4.79305 14.9857 5.8059 13.7312 7.12667C12.5153 8.40688 11.5872 9.90364 10.947 11.6169C10.3183 13.2994 10.0039 15.0938 10.0039 17C10.0039 20.534 11.1483 24.1985 13.4371 27.9935C15.0142 30.6086 17.0513 33.1633 19.5484 35.6578ZM31.0537 25.308C29.5957 27.6993 27.7038 30.1722 25.3781 32.7268C24.5722 33.612 23.2223 33.6739 22.3754 32.8279C20.1089 30.5638 18.2712 28.2637 16.8624 25.9277C14.9567 22.768 14.0039 19.7921 14.0039 17C14.0039 15.5758 14.2339 14.2482 14.6939 13.0171C15.1439 11.8128 15.7898 10.7676 16.6315 9.88135C17.4921 8.9753 18.5187 8.27815 19.7113 7.7899C20.9976 7.2633 22.4285 7 24.0039 7C25.5468 7 26.9628 7.28224 28.2521 7.84672C29.4406 8.36706 30.4751 9.10507 31.3555 10.0607C32.2044 10.9822 32.8586 12.047 33.318 13.2549C33.7753 14.4571 34.0039 15.7055 34.0039 17C34.0039 18.1929 33.7347 19.5225 33.1963 20.9888C32.701 22.3379 31.9868 23.7776 31.0537 25.308ZM24 22C27.3137 22 30 19.3137 30 16C30 12.6863 27.3137 10 24 10C20.6863 10 18 12.6863 18 16C18 19.3137 20.6863 22 24 22ZM24 14C25.1046 14 26 14.8954 26 16C26 17.1046 25.1046 18 24 18C22.8954 18 22 17.1046 22 16C22 14.8954 22.8954 14 24 14ZM7.32933 36.5697C7.75854 36.1556 8.42434 35.7483 9.32674 35.3478C10.0508 35.047 10.56 34.3329 10.56 33.5C10.56 32.3954 9.66457 31.5 8.56 31.5C8.25674 31.5 7.96924 31.5675 7.71171 31.6883C6.37451 32.2813 5.32125 32.9489 4.55193 33.6912C4.0823 34.1443 3.71797 34.6254 3.45895 35.1345C3.15298 35.7359 3 36.3577 3 37C3 37.8032 3.23586 38.5688 3.70759 39.2968C4.08827 39.8843 4.61794 40.4314 5.29659 40.9381C6.43894 41.791 7.99432 42.5282 9.96271 43.1498C11.8261 43.7383 13.9518 44.192 16.3396 44.5109C18.7809 44.837 21.3343 45 24 45C26.6657 45 29.2191 44.837 31.6604 44.5109C34.0482 44.192 36.1738 43.7383 38.0373 43.1498C40.0057 42.5282 41.5611 41.791 42.7034 40.9381C43.3821 40.4314 43.9117 39.8843 44.2924 39.2968C44.7641 38.5688 45 37.8032 45 37C45 36.3581 44.8474 35.7368 44.5422 35.136C44.2836 34.6268 43.9197 34.1456 43.4505 33.6925C42.6819 32.9503 41.629 32.2827 40.2919 31.6898C40.0344 31.569 39.7469 31.5015 39.4436 31.5015C38.339 31.5015 37.4436 32.3969 37.4436 33.5015C37.4436 34.3344 37.9528 35.0484 38.6768 35.3492C39.5787 35.7495 40.2437 36.1564 40.6719 36.5699C40.8188 36.7118 40.9202 36.8376 40.9759 36.9474C40.9869 36.969 40.9945 36.9868 40.9986 37.0008L40.9979 37.0012C40.9876 37.0332 40.9669 37.0733 40.9356 37.1216C40.8147 37.3082 40.6063 37.512 40.3104 37.7329C39.5298 38.3156 38.3706 38.8498 36.8328 39.3355C35.19 39.8542 33.2894 40.2578 31.1309 40.5461C28.8654 40.8487 26.4884 41 24 41C21.5116 41 19.1346 40.8487 16.8691 40.5461C14.7107 40.2578 12.81 39.8542 11.1672 39.3355C9.62939 38.8498 8.47019 38.3156 7.68963 37.7329C7.39375 37.512 7.18535 37.3082 7.06444 37.1216C7.03315 37.0733 7.01235 37.0332 7.00206 37.0012L7.00156 37.0009C7.00577 36.9871 7.01326 36.9696 7.02402 36.9484C7.08005 36.8383 7.18182 36.7121 7.32933 36.5697Z" fill-rule="evenodd"  fill="#000000" >
</path>
</svg>
