<svg xmlns="http://www.w3.org/2000/svg" xmlns:xlink="http://www.w3.org/1999/xlink" width="48" height="48" viewBox="0 0 48 48" fill="none">
<path d="M9 12C9 13.1046 9.89543 14 11 14L16 14C17.1046 14 18 13.1046 18 12C18 10.8954 17.1046 10 16 10L11 10C9.89543 10 9 10.8954 9 12Z" fill-rule="evenodd"  fill="#424242" >
</path>
<path d="M9 18C9 19.1046 9.89543 20 11 20L14 20C15.1046 20 16 19.1046 16 18C16 16.8954 15.1046 16 14 16L11 16C9.89543 16 9 16.8954 9 18Z" fill-rule="evenodd"  fill="#424242" >
</path>
<path d="M38 3L10 3C5.58172 3 2 6.58172 2 11L2 37C2 41.4183 5.58172 45 10 45L38 45C42.4183 45 46 41.4183 46 37L46 11C46 6.58172 42.4183 3 38 3ZM6 11C6 8.79086 7.79086 7 10 7L38 7C40.2091 7 42 8.79086 42 11L42 37C42 39.2091 40.2091 41 38 41L10 41C7.79086 41 6 39.2091 6 37L6 11Z" fill-rule="evenodd"  fill="#787878" >
</path>
<path d="M21 41L21 7L25 7L25 41L21 41Z" fill-rule="evenodd"  fill="#424242" >
</path>
</svg>
