<svg xmlns="http://www.w3.org/2000/svg" xmlns:xlink="http://www.w3.org/1999/xlink" width="48" height="48" viewBox="0 0 48 48" fill="none">
<path d="M24 44C35.0457 44 44 35.0457 44 24C44 12.9543 35.0457 4 24 4C12.9543 4 4 12.9543 4 24C4 35.0457 12.9543 44 24 44Z" fill-rule="evenodd"  fill="#1764FF" >
</path>
<path d="M32.2264 40.9923C34.0755 36.267 35 30.6029 35 24C35 17.3972 34.0755 11.7331 32.2264 7.00778C32.0175 6.474 31.8021 5.96691 31.5802 5.4865C29.8549 4.77933 28.0088 4.30633 26.0814 4.10704C26.9107 5.00884 27.7174 6.46162 28.5015 8.46537C30.1672 12.7221 31 17.9004 31 24C31 30.0997 30.1672 35.2779 28.5015 39.5347C27.7174 41.5385 26.9107 42.9912 26.0814 43.893C28.0088 43.6937 29.8549 43.2207 31.5802 42.5135C31.8021 42.0331 32.0175 41.5261 32.2264 40.9923ZM16.4197 5.48652C16.1978 5.96692 15.9824 6.47401 15.7736 7.00777C13.9245 11.7331 13 17.3972 13 24C13 30.6029 13.9245 36.267 15.7736 40.9923C15.9824 41.5261 16.1978 42.0331 16.4197 42.5135C18.1451 43.2207 19.9912 43.6937 21.9186 43.893C21.0893 42.9912 20.2826 41.5385 19.4985 39.5347C17.8328 35.2779 17 30.0997 17 24C17 17.9004 17.8328 12.7221 19.4985 8.46537C20.2826 6.46161 21.0893 5.00883 21.9186 4.10704C19.9912 4.30633 18.1451 4.77934 16.4197 5.48652Z" fill-rule="evenodd"  fill="#BEDCFF" >
</path>
<path d="M4.09875 26L43.9012 26C43.9666 25.3422 44 24.675 44 24C44 23.325 43.9666 22.6578 43.9012 22L4.09875 22C4.03344 22.6578 4 23.325 4 24C4 24.675 4.03344 25.3422 4.09875 26Z" fill-rule="evenodd"  fill="#E8F4FF" >
</path>
</svg>
