<svg xmlns="http://www.w3.org/2000/svg" xmlns:xlink="http://www.w3.org/1999/xlink" width="48" height="48" viewBox="0 0 48 48" fill="none">
<path d="M44.7091 24.4863C44.7091 23.0588 44.596 21.6206 44.3491 20.2163L24.5391 20.2163L24.5391 28.3063L35.8791 28.3063C35.4084 30.9144 33.9036 33.2202 31.6891 34.6863C31.6891 34.6863 38.4491 39.9263 38.4491 39.9263C42.4229 36.2688 44.7091 30.8753 44.7091 24.4863Z"   fill="#1764FF" >
</path>
<path d="M24.5434 45.0044C30.2071 45.0044 34.9835 43.1443 38.4634 39.9344L31.6934 34.6844C29.8107 35.9653 27.3753 36.6944 24.5434 36.6944C19.065 36.6944 14.4201 32.9936 12.7534 28.0244L5.77344 33.4344C9.33829 40.5256 16.6035 45.0044 24.5434 45.0044Z"   fill="#0D9E86" >
</path>
<path d="M12.75 28.0262C11.8703 25.4181 11.8703 22.5942 12.75 19.9862C12.75 19.9862 5.76995 14.5762 5.76995 14.5762C2.79153 20.5099 2.79153 27.5024 5.76995 33.4362L12.75 28.0262Z"   fill="#FA9E14" >
</path>
<path d="M24.5391 11.3117C27.5329 11.2654 30.4265 12.392 32.5947 14.4599L38.5902 8.46445C34.7938 4.89959 29.7552 2.93969 24.5391 3.00142C16.5992 3.00142 9.33829 7.47678 5.77344 14.5756L12.7488 19.9847C14.4078 15.0077 19.0606 11.3117 24.5391 11.3117Z"   fill="#FF1A1A" >
</path>
</svg>
