<svg xmlns="http://www.w3.org/2000/svg" xmlns:xlink="http://www.w3.org/1999/xlink" width="48" height="48" viewBox="0 0 48 48" fill="none">
<path d="M7.37152 7.13838L8.84602 15.9028C7.04482 18.7058 6 22.0409 6 25.6197C6 35.5597 14.06 43.6197 24 43.6197C33.94 43.6197 42 35.5597 42 25.6197C42 22.0787 40.9772 18.7763 39.2108 15.9919L40.6285 7.56548C40.884 6.04688 39.3964 4.82318 37.9572 5.36183L29.5524 8.49256C27.8035 7.92588 25.9375 7.61966 24 7.61966C22.2939 7.61966 20.6433 7.8571 19.0792 8.30073L10.0428 4.93473C8.60355 4.39608 7.11603 5.61979 7.37152 7.13838Z" fill-rule="evenodd"  fill="#FFC7BF" >
</path>
<path d="M10.7409 3.06044C7.85876 1.98176 4.88816 4.43229 5.39924 7.4701L5.39924 7.47011L6.74905 15.4934C4.91635 18.593 4 21.9684 4 25.6196C4 36.6653 12.9543 45.6196 24 45.6196C35.0457 45.6196 44 36.6653 44 25.6196C44 22.0082 43.1022 18.6646 41.3067 15.5889L42.6008 7.89722C43.1118 4.85983 40.1408 2.40899 37.2561 3.48863L29.4877 6.38234C27.7056 5.87382 25.8763 5.61957 24 5.61957C22.3606 5.61957 20.7544 5.81452 19.1813 6.20442L10.7409 3.06044ZM9.34416 6.8086L10.9466 16.3334L10.5286 16.9839C8.84286 19.6071 8 22.4857 8 25.6196C8 34.4562 15.1635 41.6196 24 41.6196C32.8366 41.6196 40 34.4562 40 25.6196C40 22.5194 39.174 19.6672 37.522 17.0632L37.1113 16.4159L38.6559 7.23573L29.5982 10.6097L28.9359 10.3951C27.3403 9.87807 25.695 9.61957 24 9.61957C22.5057 9.61957 21.0474 9.82129 19.6249 10.2247L18.9948 10.4035L9.34468 6.80883L9.34416 6.8086Z" fill-rule="evenodd"  fill="#FF766C" >
</path>
<path d="M15.9521 23L15.9522 18C15.9522 16.8954 16.869 16 18 16C19.131 16 20.0478 16.8954 20.0478 18L20.0478 23C20.0478 24.1046 19.131 25 18 25C16.869 25 15.9521 24.1046 15.9521 23Z" fill-rule="evenodd"  fill="#FF1A1A" >
</path>
<path d="M27.9521 18L27.9521 18C27.9521 16.8954 28.869 16 30 16C31.131 16 32.0478 16.8954 32.0478 18L32.0478 18L32.0478 23C32.0478 24.1046 31.131 25 30 25C28.869 25 27.9522 24.1046 27.9522 23L27.9521 18Z" fill-rule="evenodd"  fill="#FF1A1A" >
</path>
<path d="M16.5 31C15.3954 31 14.5 30.1046 14.5 29C14.5 27.8954 15.3954 27 16.5 27L22.0801 27C23.3066 27 24.319 27.4656 25.1172 28.3968L26 29.4268L26.8828 28.3968C27.681 27.4656 28.6934 27 29.9199 27L31.5 27C32.6046 27 33.5 27.8954 33.5 29C33.5 30.1046 32.6046 31 31.5 31L29.9199 31L28.2778 32.9158C27.0805 34.3126 24.9195 34.3126 23.7222 32.9158L22.0801 31L16.5 31Z" fill-rule="evenodd"  fill="#FF1A1A" >
</path>
</svg>
