<svg xmlns="http://www.w3.org/2000/svg" xmlns:xlink="http://www.w3.org/1999/xlink" width="48" height="48" viewBox="0 0 48 48" fill="none">
<path d="M45 24L45 39C45 42.31 42.31 45 39 45L37 45C32.58 45 29 41.42 29 37L29 32C29 27.58 32.58 24 37 24L41 24C41 14.61 33.39 7 24 7C14.61 7 7 14.61 7 24L11 24C15.42 24 19 27.58 19 32L19 37C19 41.42 15.42 45 11 45L9 45C5.69 45 3 42.31 3 39L3 24C3 12.4 12.4 3 24 3C35.6 3 45 12.4 45 24ZM41 28L37 28C34.79 28 33 29.79 33 32L33 37C33 39.21 34.79 41 37 41L39 41C40.1 41 41 40.1 41 39L41 28ZM7 39L7 28L11 28C13.21 28 15 29.79 15 32L15 37C15 39.21 13.21 41 11 41L9 41C7.9 41 7 40.1 7 39Z" fill-rule="evenodd"  fill="#000000" >
</path>
</svg>
