<svg xmlns="http://www.w3.org/2000/svg" xmlns:xlink="http://www.w3.org/1999/xlink" width="48" height="48" viewBox="0 0 48 48" fill="none">
<path d="M42.5 35.5L43.5 35.5C44.6046 35.5 45.5 34.6046 45.5 33.5C45.5 32.3954 44.6046 31.5 43.5 31.5L42.5 31.5L42.5 17.5C42.5 15.4667 39.8183 14.7306 38.7803 16.4789L29.4596 32.1768C28.5889 33.6433 29.6458 35.5 31.3513 35.5L38.5 35.5L38.5 41.5C38.5 42.6046 39.3954 43.5 40.5 43.5C41.6046 43.5 42.5 42.6046 42.5 41.5L42.5 35.5ZM38.5 31.5L38.5 24.7859L34.5134 31.5L38.5 31.5Z" fill-rule="evenodd"  fill="#1764FF" >
</path>
<path d="M5.99994 43.5001C7.10451 43.5001 7.99996 42.6047 8 41.5001L8.001 6.50011C8.00104 5.39552 7.10563 4.50009 6.00106 4.50006C4.89649 4.50003 4.00104 5.3954 4.001 6.5L4 41.5C3.99996 42.6046 4.89537 43.5 5.99994 43.5001Z" fill-rule="evenodd"  fill="#4187FF" >
</path>
<path d="M27.9981 23.5C27.9981 22.3954 27.1026 21.5 25.998 21.5001L5.99994 21.5011C4.89534 21.5011 3.99998 22.3966 4.00003 23.5012C4.00009 24.6057 4.89553 25.5011 6.00013 25.5011L25.9982 25.5001C27.1028 25.5 27.9982 24.6046 27.9981 23.5Z" fill-rule="evenodd"  fill="#4187FF" >
</path>
<path d="M25.9999 43.5C27.1045 43.5001 28 42.6047 28 41.5001L28.0008 6.5001C28.0009 5.3955 27.1055 4.50008 26.0009 4.50005C24.8963 4.50002 24.0009 5.3954 24.0008 6.5L24 41.5C24 42.6046 24.8954 43.5 25.9999 43.5Z" fill-rule="evenodd"  fill="#4187FF" >
</path>
</svg>
