<svg xmlns="http://www.w3.org/2000/svg" xmlns:xlink="http://www.w3.org/1999/xlink" width="48" height="48" viewBox="0 0 48 48" fill="none">
<path d="M24 5C13.51 5 5 13.51 5 24C5 34.49 13.51 43 24 43C34.49 43 43 34.49 43 24C43 13.51 34.49 5 24 5Z"   fill="#E2C2FB" >
</path>
<path d="M24 45C35.598 45 45 35.598 45 24C45 12.402 35.598 3 24 3C12.402 3 3 12.402 3 24C3 35.598 12.402 45 24 45ZM24 7C33.3888 7 41 14.6112 41 24C41 33.3888 33.3888 41 24 41C14.6112 41 7 33.3888 7 24C7 14.6112 14.6112 7 24 7Z" fill-rule="evenodd"  fill="#8134ED" >
</path>
<path d="M17.2285 32.6292C19.7938 33.7445 22.9089 33.9783 26.5739 33.3308C30.2388 32.6833 33.0853 31.3962 35.1131 29.4694C35.5956 29.0228 35.8483 28.3477 35.7254 27.652C35.5333 26.5643 34.4957 25.8383 33.408 26.0305C32.9952 26.1034 32.6344 26.2981 32.3563 26.5711C30.9106 27.944 28.7511 28.8842 25.8779 29.3918C23.0048 29.8995 20.6539 29.7561 18.8253 28.9617C18.4704 28.8006 18.0648 28.7412 17.652 28.8142C16.5643 29.0064 15.8383 30.0439 16.0305 31.1316C16.1534 31.8273 16.6221 32.375 17.2285 32.6292Z" fill-rule="evenodd"  fill="#8134ED" >
</path>
<path d="M15.9521 22L15.9521 16C15.9521 14.8954 16.869 14 18 14C19.131 14 20.0478 14.8954 20.0478 16L20.0478 22C20.0478 23.1046 19.131 24 18 24C16.869 24 15.9521 23.1046 15.9521 22Z" fill-rule="evenodd"  fill="#8134ED" >
</path>
<path d="M27.9521 22L27.9521 16C27.9521 14.8954 28.869 14 30 14C31.131 14 32.0478 14.8954 32.0478 16L32.0478 22C32.0478 23.1046 31.131 24 30 24C28.869 24 27.9521 23.1046 27.9521 22Z" fill-rule="evenodd"  fill="#8134ED" >
</path>
</svg>
