<svg xmlns="http://www.w3.org/2000/svg" xmlns:xlink="http://www.w3.org/1999/xlink" width="48" height="48" viewBox="0 0 48 48" fill="none">
<path d="M7.71256 6.9795C10.5804 7.44433 13.3619 8.20904 16.0569 9.27363C16.2961 9.37474 16.559 9.43065 16.835 9.43065C17.9396 9.43065 18.835 8.53522 18.835 7.43065C18.835 6.5695 18.2908 5.83548 17.5275 5.55377C14.5649 4.3834 11.5077 3.54266 8.3559 3.03157C8.24041 3.01083 8.12147 3 8.00001 3C6.89544 3 6.00001 3.89543 6.00001 5C6.00001 6.00696 6.74418 6.84011 7.71256 6.9795ZM39.5318 3L24.5455 3C23.4409 3 22.5455 3.89543 22.5455 5C22.5455 6.10457 23.4409 7 24.5455 7L38.1648 7L23.5276 16.3678C20.4981 18.3067 21.8714 23 25.4682 23L41.5909 23C42.6955 23 43.5909 22.1046 43.5909 21C43.5909 19.8954 42.6955 19 41.5909 19L26.8352 19L41.4724 9.63218C44.5019 7.69333 43.1286 3 39.5318 3ZM7.70606 22.9259C12.5032 23.7222 16.5995 25.8994 19.9952 29.4573C23.4043 33.0292 25.4097 37.2649 26.0116 42.1643C26.1198 43.1669 26.9687 43.9474 28 43.9474C29.1046 43.9474 30 43.052 30 41.9474C30 41.8546 29.9937 41.7632 29.9814 41.6737C29.2715 35.8988 26.9073 30.9061 22.8889 26.6957C18.8791 22.4943 14.0373 19.9225 8.36333 18.9803C8.24551 18.9587 8.12408 18.9474 8.00001 18.9474C6.89544 18.9474 6.00001 19.8428 6.00001 20.9474C6.00001 21.9521 6.74085 22.7838 7.70606 22.9259ZM40.4516 26.1855C40.1249 25.5254 39.4445 25.0715 38.6581 25.0715C37.5535 25.0715 36.6581 25.9669 36.6581 27.0715C36.6581 27.4186 36.7465 27.745 36.902 28.0295C39.0619 32.1838 40.432 36.5811 41.0121 41.2212C41.1221 42.2217 41.9702 43 43 43C44.1045 43 45 42.1046 45 41C45 40.9054 44.9934 40.8123 44.9807 40.7212C44.341 35.6081 42.8313 30.7628 40.4516 26.1855ZM16.7903 31L6.19087 31C5.0863 31 4.19087 31.8954 4.19087 33C4.19087 34.1046 5.0863 35 6.19087 35L12.7882 35L5.3249 39.1197C2.63925 40.6022 3.69192 44.6875 6.75957 44.6875L18.1568 44.6875C19.2613 44.6875 20.1568 43.7921 20.1568 42.6875C20.1568 41.5829 19.2613 40.6875 18.1568 40.6875L10.7618 40.6875L18.225 36.5678C20.9107 35.0853 19.858 31 16.7903 31Z" fill-rule="evenodd"  fill="#000000" >
</path>
</svg>
