<svg xmlns="http://www.w3.org/2000/svg" xmlns:xlink="http://www.w3.org/1999/xlink" width="48" height="48" viewBox="0 0 48 48" fill="none">
<path d="M24 45C35.598 45 45 35.598 45 24C45 12.402 35.598 3 24 3C12.402 3 3 12.402 3 24C3 35.598 12.402 45 24 45ZM24 7C33.3888 7 41 14.6112 41 24C41 33.3888 33.3888 41 24 41C14.6112 41 7 33.3888 7 24C7 14.6112 14.6112 7 24 7ZM15.9521 16L15.9521 22C15.9521 23.1046 16.8689 24 17.9999 24C19.1309 24 20.0477 23.1046 20.0477 22L20.0477 16C20.0477 14.8954 19.1309 14 17.9999 14C16.8689 14 15.9521 14.8954 15.9521 16ZM27.9512 16L27.9512 22C27.9512 23.1046 28.868 24 29.999 24C31.13 24 32.0468 23.1046 32.0468 22L32.0468 16C32.0468 14.8954 31.13 14 29.999 14C28.868 14 27.9512 14.8954 27.9512 16ZM31.7304 25.9965C31.3841 25.4007 30.7389 25 30 25C28.8954 25 28 25.8954 28 27C28 27.3895 28.1114 27.7531 28.304 28.0605C28.5136 28.4068 28.738 28.7269 28.9773 29.021C27.5751 30.007 25.916 30.5 24 30.5C21.5521 30.5 19.5236 29.6953 17.9143 28.0858C17.5523 27.7239 17.0523 27.5 16.5 27.5C15.3954 27.5 14.5 28.3954 14.5 29.5C14.5 30.0523 14.7238 30.5522 15.0857 30.9142C17.4761 33.3047 20.4475 34.5 24 34.5C27.3631 34.5 30.2055 33.4287 32.5272 31.2862C33.1163 31.4287 33.7457 31.5 34.4155 31.5L34.5 31.5C35.6046 31.5 36.5 30.6046 36.5 29.5C36.5 28.3954 35.6046 27.5 34.5 27.5L34.4155 27.5C33.2367 27.5 32.3417 26.9988 31.7304 25.9965Z" fill-rule="evenodd"  fill="#000000" >
</path>
</svg>
