<svg xmlns="http://www.w3.org/2000/svg" xmlns:xlink="http://www.w3.org/1999/xlink" width="48" height="48" viewBox="0 0 48 48" fill="none">
<path d="M32 16C28.134 16 25 12.866 25 9C25 5.13401 28.134 2 32 2C35.866 2 39 5.13401 39 9C39 12.866 35.866 16 32 16ZM32 12C33.6568 12 35 10.6568 35 9C35 7.34315 33.6568 6 32 6C30.3432 6 29 7.34315 29 9C29 10.6568 30.3432 12 32 12ZM10 26C10.6568 26 11.2396 25.6834 11.6043 25.1945L18.4971 16.1476L24.2192 19.6445L19.2907 27.3894C18.0198 29.3865 19.4544 32 21.8217 32L29.8742 32L25.2019 42.1232C25.0726 42.388 25 42.6855 25 43C25 44.1046 25.8954 45 27 45C27.8212 45 28.5269 44.505 28.8348 43.7971L33.506 33.6762C34.7293 31.0257 32.7933 28 29.8742 28L23.6433 28L28.1406 20.9329C29.0416 19.517 28.6059 17.6375 27.174 16.7624L20.5829 12.7345C18.5296 11.4797 16.7737 11.8094 15.3154 13.7235L8.42076 22.7726C8.15706 23.1114 8 23.5374 8 24C8 25.1046 8.89543 26 10 26ZM41.8826 17.6767C41.9586 17.4654 42 17.2375 42 17C42 15.8954 41.1046 15 40 15C39.1003 15 38.3394 15.5941 38.088 16.4113L36.1127 22.3372L33.8031 20.0809L33.8019 20.0797C33.4414 19.7274 32.9482 19.5103 32.4043 19.5103C31.2997 19.5103 30.4043 20.4058 30.4043 21.5103C30.4043 22.071 30.635 22.5778 31.0067 22.9409L31.0081 22.9423L33.3175 25.1985C35.4299 27.2622 38.9736 26.4038 39.9075 23.6021L41.8826 17.6767ZM17.9827 34.1261C18.1468 33.8359 18.2405 33.5005 18.2405 33.1432C18.2405 32.0386 17.345 31.1432 16.2405 31.1432C15.4652 31.1432 14.7929 31.5844 14.461 32.2294L10.9023 38.8228L5.31691 38.0249C5.21369 38.0085 5.10784 37.9999 5 37.9999C3.89543 37.9999 3 38.8954 3 39.9999C3 41.0185 3.76148 41.8593 4.74624 41.984L10.3366 42.7826C12.1773 43.0455 13.5392 42.3589 14.4223 40.7227L17.9827 34.1261Z" fill-rule="evenodd"  fill="#000000" >
</path>
</svg>
