<svg xmlns="http://www.w3.org/2000/svg" xmlns:xlink="http://www.w3.org/1999/xlink" width="48" height="48" viewBox="0 0 48 48" fill="none">
<path d="M28 10C28 11.6568 26.6568 13 25 13C23.3431 13 22 11.6568 22 10C22 8.34315 23.3431 7 25 7C26.6568 7 28 8.34315 28 10ZM18 10C18 13.866 21.134 17 25 17C28.866 17 32 13.866 32 10C32 6.13401 28.866 3 25 3C21.134 3 18 6.13401 18 10Z" fill-rule="evenodd"  fill="#0D9E86" >
</path>
<path d="M41.5 21.5C41.5 22.1626 41.1777 22.75 40.6814 23.114L37.5077 25.4942C36.4308 26.3019 35.2476 26.5123 33.9583 26.1255L29.9683 24.9286C29.1218 24.6957 28.5 23.9205 28.5 23C28.5 21.8954 29.3954 21 30.5 21C30.7161 21 30.9242 21.0343 31.1192 21.0977L35.1077 22.2942L38.2838 19.9121C38.6208 19.6536 39.0425 19.5 39.5 19.5C40.6046 19.5 41.5 20.3954 41.5 21.5Z" fill-rule="evenodd"  fill="#2CB197" >
</path>
<path d="M23.5862 36.4146L23.5858 36.4142C23.2239 36.0523 23 35.5523 23 35C23 33.8954 23.8954 33 25 33C25.5523 33 26.0523 33.2239 26.4142 33.5858L26.4146 33.5862L30.2532 37.4247C30.4679 37.6395 30.6558 37.8756 30.8167 38.1332L33.1797 41.9138C33.3823 42.2266 33.5 42.5996 33.5 43C33.5 44.1046 32.6046 45 31.5 45C30.7724 45 30.1356 44.6115 29.7856 44.0306L27.4247 40.2531L23.5862 36.4146Z" fill-rule="evenodd"  fill="#2CB197" >
</path>
<path d="M11.4183 18.5439L6.76528 27.004C6.59652 27.2973 6.5 27.6374 6.5 28C6.5 29.1046 7.39543 30 8.5 30C9.26942 30 9.93737 29.5655 10.2719 28.9285L14.9232 20.4716L21.044 22.7266L18.7549 30.3567L13.5935 34.7241L9.22703 33.1362C9.00169 33.0483 8.75648 33 8.5 33C7.39543 33 6.5 33.8954 6.5 35C6.5 35.8809 7.06947 36.6287 7.86033 36.8955L12.2265 38.4832C13.6798 39.0117 14.9968 38.7765 16.1773 37.7776L21.5653 33.2185C22.0185 32.835 22.3304 32.359 22.5009 31.7904L25.1455 22.9753C25.6858 21.1741 25.0737 19.9484 23.3091 19.2983L16.306 16.7182C14.1532 15.925 12.524 16.5336 11.4183 18.5439Z" fill-rule="evenodd"  fill="#0D9E86" >
</path>
<path d="M38.5 36C37.12 36 36 37.12 36 38.5C36 39.88 37.12 41 38.5 41C39.88 41 41 39.88 41 38.5C41 37.12 39.88 36 38.5 36Z"   fill="#1764FF" >
</path>
</svg>
