<svg xmlns="http://www.w3.org/2000/svg" xmlns:xlink="http://www.w3.org/1999/xlink" width="48" height="48" viewBox="0 0 48 48" fill="none">
<path d="M32 16C28.134 16 25 12.866 25 9C25 5.13401 28.134 2 32 2C35.866 2 39 5.13401 39 9C39 12.866 35.866 16 32 16ZM32 12C33.6568 12 35 10.6568 35 9C35 7.34315 33.6568 6 32 6C30.3432 6 29 7.34315 29 9C29 10.6568 30.3432 12 32 12ZM10 26C10.6627 26 11.25 25.6777 11.614 25.1813L16.7847 18.287L23.8558 20.2155L19.2907 27.3894C18.0198 29.3865 19.4544 32 21.8217 32L28.6516 32L19.4888 42.6898C19.1843 43.0408 19 43.4989 19 44C19 45.1046 19.8954 46 21 46C21.6122 46 22.1602 45.7249 22.5271 45.2916L31.6886 34.6032C33.9126 32.0085 32.069 28 28.6516 28L23.6433 28L27.9589 21.2184C29.0439 19.5134 28.167 17.2452 26.2173 16.7135L17.8372 14.428C16.0893 13.9513 14.6718 14.4376 13.5847 15.887L8.41213 22.7838C8.15363 23.1208 8 23.5424 8 24C8 25.1045 8.89543 26 10 26ZM40.6438 16.03L40.6486 16.0257C41.0045 15.6992 41.479 15.5 42 15.5C43.1046 15.5 44 16.3954 44 17.5C44 18.0835 43.7501 18.6087 43.3515 18.9743L43.3459 18.9794L38.291 23.6131C37.0383 24.7614 35.6269 25.0103 34.057 24.3599L31.6816 23.3758C30.9342 23.086 30.4043 22.3601 30.4043 21.5103C30.4043 20.4058 31.2997 19.5103 32.4043 19.5103C32.6914 19.5103 32.9644 19.5708 33.2112 19.6798L35.5881 20.6645L40.6438 16.03ZM14.8685 31.688L14.8718 31.6849C15.2296 31.3489 15.711 31.1432 16.2405 31.1432C17.345 31.1432 18.2405 32.0386 18.2405 33.1432C18.2405 33.7183 17.9977 34.2367 17.6091 34.6016L17.6052 34.6053L11.7851 40.0674C11.2298 40.5885 10.5788 40.9238 9.83223 41.0731L5.43272 41.953C5.29338 41.9837 5.14858 41.9999 5 41.9999C3.89543 41.9999 3 41.1045 3 39.9999C3 39.0168 3.70932 38.1994 4.64409 38.0315L9.04776 37.1508L14.8685 31.688Z" fill-rule="evenodd"  fill="#000000" >
</path>
</svg>
