<svg xmlns="http://www.w3.org/2000/svg" xmlns:xlink="http://www.w3.org/1999/xlink" width="48" height="48" viewBox="0 0 48 48" fill="none">
<path d="M35.1617 24.6676C34.6577 26.0129 34.268 26.9011 33.9925 27.3324C33.3394 28.3549 32.5037 28.766 31.4853 28.5656C30.5442 28.3804 29.908 27.7083 29.5769 26.5494L29.5459 26.4408L29.5273 26.3294C28.5232 20.3169 26.6792 14.8441 23.9955 9.91103C22.4692 12.2348 20.4887 14.7724 18.054 17.5239C15.8333 20.0336 14.3688 21.9671 13.6606 23.3241C12.5535 25.4454 12 28.004 12 31C12 34.6937 13.3426 37.7524 16.0277 40.1763C16.0092 39.938 16 39.7126 16 39.5C16 36.7296 16.7078 34.3417 18.1234 32.3362C19.6934 30.1121 21.6523 29 24 29C26.3477 29 28.3066 30.1121 29.8766 32.3362C31.2922 34.3417 32 36.7296 32 39.5C32 39.713 31.9907 39.9388 31.9722 40.1775C34.6574 37.7548 36 34.6957 36 31C36 28.8587 35.7206 26.7479 35.1617 24.6676ZM38.068 20.6915C39.356 24.0505 40 27.4867 40 31C40 37.0688 37.2994 41.8095 31.8983 45.2221C30.7293 45.9607 29.6195 45.8947 28.569 45.0244C27.6212 44.2393 27.2982 43.2352 27.5999 42.0122C27.8666 40.9313 28 40.0939 28 39.5C28 37.576 27.5362 35.9569 26.6087 34.6429C25.8356 33.5476 24.966 33 24 33C23.034 33 22.1644 33.5476 21.3913 34.6429C20.4638 35.9569 20 37.576 20 39.5C20 40.0947 20.1337 40.9337 20.4012 42.017C20.7065 43.2532 20.3731 44.2616 19.4008 45.0422C18.3474 45.8881 17.2424 45.9446 16.0857 45.2119C10.6952 41.7972 8 37.0599 8 31C8 27.35 8.70481 24.1745 10.1144 21.4734C10.9735 19.8272 12.6215 17.6272 15.0584 14.8732C17.9899 11.5604 20.2022 8.61228 21.6952 6.02902C22.0689 5.19878 22.7216 4.71497 23.6533 4.57761C24.6337 4.43306 25.4332 4.74738 26.0517 5.52058L26.1301 5.61855L26.1956 5.72555C28.9909 10.2904 31.0745 15.2976 32.4466 20.7472C32.7052 20.1986 32.9364 19.7868 33.1402 19.5121C33.9817 18.3781 34.9755 18.0067 36.1216 18.3978C36.9848 18.6924 37.6336 19.457 38.068 20.6915Z" fill-rule="evenodd"  fill="#000000" >
</path>
</svg>
