<svg xmlns="http://www.w3.org/2000/svg" xmlns:xlink="http://www.w3.org/1999/xlink" width="48" height="48" viewBox="0 0 48 48" fill="none">
<path d="M25.3746 31.3892C25.9904 31.7762 26.7191 32 27.5 32L38.694 32C41.3805 32 43.0092 30.6874 43.5799 28.0622L43.878 26.6911C44.5629 27.2521 45 28.1044 45 29.0588L45 41.9412C45 43.6305 43.6305 45 41.9412 45L33.6743 45C32.3756 45 31.4517 44.4115 30.9025 43.2347L25.3746 31.3892Z" fill-rule="evenodd"  fill="#6BA6FF" >
</path>
<path d="M19 10C19 11.6568 17.6568 13 16 13C14.3431 13 13 11.6568 13 10C13 8.34315 14.3431 7 16 7C17.6568 7 19 8.34315 19 10ZM9 10C9 13.866 12.134 17 16 17C19.866 17 23 13.866 23 10C23 6.13401 19.866 3 16 3C12.134 3 9 6.13401 9 10Z" fill-rule="evenodd"  fill="#1764FF" >
</path>
<path d="M44 16.5C44 16.6607 43.981 16.8169 43.9453 16.9666L41.6256 27.6373C41.2831 29.2124 40.3059 30 38.694 30L27.5 30C26.3954 30 25.5 29.1046 25.5 28C25.5 26.8954 26.3954 26 27.5 26L37.8881 26L40.0374 16.1132C40.2176 15.1937 41.0278 14.5 42 14.5C43.1046 14.5 44 15.3954 44 16.5Z" fill-rule="evenodd"  fill="#1764FF" >
</path>
<path d="M22.1652 24.5L27.5 24.5C28.6046 24.5 29.5 23.6046 29.5 22.5C29.5 21.3954 28.6046 20.5 27.5 20.5L22.4544 20.5L21.0569 19.6177C20.4047 19.2059 19.6929 19 18.9215 19L13.3471 19C11.6529 19 10.6665 19.8356 10.3879 21.5068L9.22128 28.5068C8.91651 30.3354 10.3266 32 12.1805 32L17.9005 32C18.767 32 19.3762 32.3959 19.7281 33.1877L24.6538 44.2706C24.9556 44.9926 25.6685 45.5 26.5 45.5C27.6046 45.5 28.5 44.6046 28.5 43.5C28.5 43.1953 28.4319 42.9065 28.31 42.648L23.3834 31.5632C22.3276 29.1877 20.5 28 17.9005 28L13.3609 28L14.1943 23L18.9215 23L18.9215 23L20.5636 24.0368C21.0528 24.3456 21.5867 24.5 22.1652 24.5Z" fill-rule="evenodd"  fill="#1764FF" >
</path>
<path d="M7.99065 18.6946C7.99684 18.6306 8 18.5657 8 18.5C8 17.3954 7.10457 16.5 6 16.5C4.9464 16.5 4.08308 17.3147 4.00566 18.3485L3.06551 29.3168C2.66517 33.9875 6.34844 38 11.0363 38L14.7263 38L17.6687 44.3051C17.9785 45.0087 18.6819 45.5 19.5 45.5C20.6046 45.5 21.5 44.6046 21.5 43.5C21.5 43.1826 21.4261 42.8825 21.2945 42.6159L18.351 36.3085C17.6328 34.7695 16.4246 34 14.7263 34L11.0363 34C8.69237 34 6.85073 31.9938 7.0509 29.6584L7.99065 18.6946Z" fill-rule="evenodd"  fill="#6BA6FF" >
</path>
</svg>
