<svg xmlns="http://www.w3.org/2000/svg" xmlns:xlink="http://www.w3.org/1999/xlink" width="48" height="48" viewBox="0 0 48 48" fill="none">
<path d="M28 23C24.134 23 21 19.866 21 16C21 12.134 24.134 9 28 9C31.866 9 35 12.134 35 16C35 19.866 31.866 23 28 23ZM28 19C29.6568 19 31 17.6568 31 16C31 14.3432 29.6568 13 28 13C26.3432 13 25 14.3432 25 16C25 17.6568 26.3432 19 28 19ZM20.5 22C20.5 22.7984 20.0322 23.4875 19.3557 23.8082L19.1131 23.9295L28.4209 27.0321L38.177 28.0077C39.1987 28.0973 40 28.9551 40 30C40 31.1046 39.1046 32 38 32C37.9237 32 37.8483 31.9957 37.7742 31.9874L27.9119 31.0012C27.69 30.979 27.4733 30.9326 27.2618 30.8621L14.0535 26.4593L11.858 27.5571L7.79176 33.5L43 33.5C44.1046 33.5 45 34.3954 45 35.5C45 36.6046 44.1046 37.5 43 37.5L7.79176 37.5C4.57512 37.5 2.67414 33.896 4.49054 31.2413L8.70306 25.0845C8.99571 24.6568 9.3738 24.327 9.83734 24.0953L17.5696 20.2291C17.8475 20.0828 18.1641 20 18.5 20C19.6046 20 20.5 20.8954 20.5 22ZM17.1733 30.9257L15.6902 29.1131L25.4322 32.3604L19.3287 32.0214C18.4494 31.9725 17.7309 31.6073 17.1733 30.9257Z" fill-rule="evenodd"  fill="#000000" >
</path>
</svg>
