<svg xmlns="http://www.w3.org/2000/svg" xmlns:xlink="http://www.w3.org/1999/xlink" width="48" height="48" viewBox="0 0 48 48" fill="none">
<g  clip-path="url(#clip-path-1_80)">
<path d="M17.3289 38.7289C16.3043 38.5518 15.3024 38.2899 14.3233 37.9432C10.6842 36.6545 7.73313 34.4364 5.47016 31.2889C3.15672 28.0712 2 24.4749 2 20.5C2 10.2827 10.2827 2 20.5 2C26.4647 2 31.3002 4.33933 35.0065 9.01799C35.2831 9.36106 35.4487 9.79739 35.4487 10.2724C35.4487 11.377 34.5532 12.2724 33.4487 12.2724C32.8062 12.2724 32.2346 11.9695 31.8687 11.4987C28.9632 7.83291 25.1736 6 20.5 6C12.4919 6 6 12.4919 6 20.5C6 23.6157 6.90596 26.4337 8.71789 28.9539C10.4932 31.4232 12.8068 33.1628 15.6585 34.1726C16.4246 34.4439 17.2086 34.6488 18.0105 34.7874C18.9702 34.9345 19.7052 35.7635 19.7052 36.7643C19.7052 37.8688 18.8097 38.7643 17.7052 38.7643C17.5765 38.7643 17.4507 38.7521 17.3289 38.7289ZM18.5008 10.9483L18.5008 10.9482C18.5008 9.84366 19.3962 8.9483 20.5008 8.9483C21.6053 8.9483 22.5008 9.84373 22.5008 10.9483L22.5008 10.9486L22.5003 19.2187L25.2143 17.8617C25.4923 17.7153 25.8089 17.6325 26.1448 17.6325C27.2493 17.6325 28.1448 18.5279 28.1448 19.6325C28.1448 20.4309 27.677 21.12 27.0005 21.4407L21.9029 23.9896C21.572 24.1551 21.2214 24.2378 20.8513 24.2378C19.5527 24.2378 18.5 23.185 18.5001 21.8864L18.5008 10.9483ZM32 22C32 24.7614 34.2386 27 37 27C39.7614 27 42 24.7614 42 22C42 19.2386 39.7614 17 37 17C34.2386 17 32 19.2386 32 22ZM38 22C38 22.5523 37.5523 23 37 23C36.4477 23 36 22.5523 36 22C36 21.4477 36.4477 21 37 21C37.5523 21 38 21.4477 38 22ZM46.5 28.5C46.5 29.1122 46.225 29.6601 45.7917 30.027L42.7918 32.5983C41.9421 33.3266 40.9743 33.5551 39.8885 33.2837L38.5555 32.9504C37.6649 32.7483 37 31.9518 37 31C37 29.8954 37.8954 29 39 29C39.183 29 39.3602 29.0246 39.5286 29.0706L40.4828 29.3091L43.1899 26.9887C43.5409 26.6843 43.9989 26.5 44.5 26.5C45.6046 26.5 46.5 27.3954 46.5 28.5ZM23.11 35.64C23.7747 35.64 24.3636 35.3158 24.7273 34.8169L27.6269 30.9297L30.5422 31.7291L28.2434 35.3611C27.1371 37.1089 28.393 39.39 30.4615 39.39L33.0742 39.39L28.4333 44.8338C28.1308 45.1842 27.9478 45.6407 27.9478 46.14C27.9478 47.2446 28.8433 48.14 29.9478 48.14C30.5621 48.14 31.1116 47.8631 31.4785 47.4273L37.1723 40.7485C38.971 38.6386 37.4716 35.39 34.6991 35.39L32.959 35.39L34.9159 32.2983C35.8593 30.8077 35.0932 28.8294 33.3919 28.3629L28.1912 26.9368C26.7654 26.5458 25.6105 26.9428 24.7266 28.1278L21.5192 32.4277C21.2625 32.7641 21.11 33.1842 21.11 33.64C21.11 34.7446 22.0054 35.64 23.11 35.64ZM26.028 41.2905C26.3225 40.9422 26.5 40.4918 26.5 40C26.5 38.8954 25.6046 38 24.5 38C23.877 38 23.3206 38.2848 22.9538 38.7314L20.8278 41.2825L18.4113 42.088C17.5941 42.3394 17 43.1003 17 44C17 45.1045 17.8954 46 19 46C19.2375 46 19.4654 45.9586 19.6767 45.8826L22.2951 45.0098C22.8798 44.8149 23.3695 44.4807 23.7641 44.0072L26.028 41.2905Z" fill-rule="evenodd"  fill="#000000" >
</path>
</g>
<defs>
<clipPath id="clip-path-1_80">
<path d="M0 48L48 48L48 0L0 0L0 48Z" fill="white"/>
</clipPath>
</defs>
</svg>
