<svg xmlns="http://www.w3.org/2000/svg" xmlns:xlink="http://www.w3.org/1999/xlink" width="48" height="48" viewBox="0 0 48 48" fill="none">
<path d="M39.6699 35.7001C40.5566 33.5422 41 31.2255 41 28.75C41 24.7924 39.7036 20.6023 37.1109 16.1795C35.647 13.6824 33.1423 10.2629 29.5967 5.92085C29.4768 5.77398 29.3856 5.66233 29.3232 5.58589C27.9765 3.93597 26.1959 3.11578 23.9813 3.12533C21.7762 3.13483 20.0013 3.96305 18.6566 5.60998C18.5988 5.6808 18.5132 5.78562 18.3998 5.92443C14.8547 10.2646 12.3506 13.6829 10.8872 16.1793C8.29574 20.6003 7 24.7905 7 28.75C7 31.203 7.44354 33.5068 8.33062 35.6614C9.18204 37.7294 10.3945 39.5478 11.9679 41.1164C13.5284 42.6722 15.3287 43.8699 17.3688 44.7095C19.4593 45.5698 21.6697 46 24 46C26.3365 46 28.5484 45.5738 30.6359 44.7216C32.6812 43.8866 34.4824 42.6957 36.0396 41.1488C37.6069 39.5917 38.817 37.7755 39.6699 35.7001ZM33.6602 18.2025C35.8867 22.0006 37 25.5164 37 28.75C37 30.699 36.6567 32.5089 35.9701 34.1799C35.3221 35.7567 34.4055 37.1338 33.2204 38.3112C32.0414 39.4824 30.676 40.3848 29.1241 41.0184C27.5211 41.6728 25.8131 42 24 42C22.1969 42 20.494 41.6701 18.8912 41.0105C17.3426 40.3731 15.9762 39.4641 14.7921 38.2836C13.5978 37.093 12.6769 35.7113 12.0294 34.1386C11.3431 32.4718 11 30.6756 11 28.75C11 25.5144 12.1127 21.9985 14.338 18.2021C15.6969 15.8841 18.0834 12.635 21.4977 8.45481C21.6119 8.31502 21.6977 8.21 21.755 8.13975C22.3039 7.46752 23.0517 7.12936 23.9986 7.12528C24.9405 7.12122 25.6825 7.45119 26.2244 8.11519C26.2845 8.18885 26.3759 8.30072 26.4984 8.45082C29.9135 12.633 32.3007 15.8835 33.6602 18.2025ZM27 21C27 22.1046 26.1046 23 25 23C23.8954 23 23 22.1046 23 21C23 19.8954 23.8954 19 25 19C26.1046 19 27 19.8954 27 21ZM34 27C34 28.6569 32.6568 30 31 30C29.3431 30 28 28.6569 28 27C28 25.3431 29.3431 24 31 24C32.6568 24 34 25.3431 34 27ZM20 37C23.3137 37 26 34.3137 26 31C26 27.6863 23.3137 25 20 25C16.6863 25 14 27.6863 14 31C14 34.3137 16.6863 37 20 37Z" fill-rule="evenodd"  fill="#000000" >
</path>
</svg>
