<svg xmlns="http://www.w3.org/2000/svg" xmlns:xlink="http://www.w3.org/1999/xlink" width="48" height="48" viewBox="0 0 48 48" fill="none">
<path d="M41.8465 42.2499L26.8608 42.2499C26.0209 42.2499 25.2523 42.0157 24.5552 41.5471L4.41908 28.0134C3.01941 27.0727 2.1424 25.7779 1.78804 24.1291L1.44861 22.5499C1.05305 20.7094 1.41364 19.0313 2.53038 17.5157L8.92502 8.83733C10.3101 6.95752 12.9763 6.59742 14.8105 8.04242L23.3898 14.8014C23.4438 14.8439 23.4982 14.8445 23.5529 14.803L28.1547 11.3134C30.4112 9.60223 33.6811 10.6157 34.5744 13.303L39.5307 28.2113C39.5383 28.2343 39.5512 28.2537 39.5694 28.2696L45.2186 33.2123C46.6373 34.4536 47.0253 35.9603 46.3826 37.7323L45.7322 39.5259C45.0735 41.3419 43.7783 42.2499 41.8465 42.2499ZM41.8465 38.2499C41.9088 38.2499 41.9506 38.2206 41.9718 38.162L42.6223 36.3685C42.643 36.3114 42.6305 36.2628 42.5847 36.2227L36.9355 31.28C36.3715 30.7866 35.9713 30.1844 35.7349 29.4732L30.7787 14.5649C30.7499 14.4781 30.6444 14.4454 30.5716 14.5006L25.9698 17.9902C24.2727 19.2771 22.5875 19.2615 20.9144 17.9434L12.3351 11.1845C12.2759 11.1379 12.1899 11.1495 12.1452 11.2101L5.7506 19.8885C5.34666 20.4367 5.21623 21.0437 5.3593 21.7093L5.69873 23.2886C5.82691 23.885 6.14413 24.3534 6.65038 24.6936L26.7865 38.2272C26.809 38.2424 26.8337 38.2499 26.8608 38.2499L41.8465 38.2499ZM27.8557 24.8082C28.5322 24.4875 29 23.7984 29 23C29 21.8954 28.1046 21 27 21C26.6641 21 26.3475 21.0828 26.0696 21.2291L22.1443 23.1918C21.4678 23.5125 21 24.2016 21 25C21 26.1046 21.8954 27 23 27C23.3359 27 23.6525 26.9172 23.9304 26.7709L27.8557 24.8082ZM31 29C31 29.7984 30.5322 30.4875 29.8557 30.8082L27.9304 31.7709C27.6525 31.9172 27.3359 32 27 32C25.8954 32 25 31.1046 25 30C25 29.2016 25.4678 28.5125 26.1443 28.1918L28.0696 27.2291C28.3475 27.0828 28.6641 27 29 27C30.1046 27 31 27.8954 31 29Z" fill-rule="evenodd"  fill="#000000" >
</path>
</svg>
