<svg xmlns="http://www.w3.org/2000/svg" xmlns:xlink="http://www.w3.org/1999/xlink" width="48" height="48" viewBox="0 0 48 48" fill="none">
<path d="M40.7929 9L35.2071 9C34.7616 9 34.5386 9.53857 34.8535 9.85355L37.6464 12.6465C37.8417 12.8417 38.1583 12.8417 38.3535 12.6465L41.1464 9.85355C41.4614 9.53857 41.2383 9 40.7929 9Z"   fill="#FF1A1A" >
</path>
<path d="M39.7678 14.0607L42.5607 11.2678C44.1356 9.69285 43.0202 7 40.7929 7L35.2071 7C32.9798 7 31.8644 9.69285 33.4393 11.2678L36.2322 14.0607C37.2085 15.037 38.7915 15.037 39.7678 14.0607Z" fill-rule="evenodd"  fill="#FF1A1A" >
</path>
<path d="M24.7738 6.85056C22.8829 4.53388 19.0971 4.5585 17.2058 6.87489C12.1932 13.0142 6 20.4528 6 28.75C6 30.9363 6.39243 32.9871 7.18 34.9C7.93075 36.7234 9.00054 38.3248 10.38 39.7C11.7471 41.063 13.3302 42.1192 15.13 42.86C16.9812 43.6219 18.9362 44 21 44C23.0692 44 25.0298 43.6253 26.88 42.87C28.6808 42.1348 30.2661 41.0849 31.63 39.73C33.0083 38.3607 34.0707 36.7634 34.82 34.94C35.6082 33.0217 36 30.9585 36 28.75C36 20.448 29.7892 12.9953 24.7738 6.85056Z"   fill="#FFC7BF" >
</path>
<path d="M36.6699 35.7001C37.5566 33.5422 38 31.2255 38 28.75C38 24.7924 36.7036 20.6022 34.1109 16.1795C32.647 13.6824 30.1423 10.2629 26.5967 5.92086C26.4768 5.77398 26.3856 5.66233 26.3232 5.5859C24.9765 3.93597 23.1959 3.11578 20.9813 3.12533C18.7762 3.13483 17.0013 3.96305 15.6566 5.60999C15.5988 5.68081 15.5132 5.78562 15.3998 5.92444C11.8547 10.2646 9.35055 13.6829 7.88722 16.1793C5.29574 20.6002 4 24.7905 4 28.75C4 31.203 4.44354 33.5068 5.33062 35.6614C6.18204 37.7294 7.39448 39.5477 8.96793 41.1164C10.5284 42.6721 12.3287 43.8698 14.3688 44.7095C16.4593 45.5698 18.6697 46 21 46C23.3365 46 25.5484 45.5739 27.6359 44.7216C29.6812 43.8867 31.4824 42.6957 33.0396 41.1488C34.6069 39.5917 35.817 37.7754 36.6699 35.7001ZM30.6602 18.2025C32.8867 22.0006 34 25.5164 34 28.75C34 30.6989 33.6567 32.5089 32.9701 34.1799C32.3221 35.7567 31.4055 37.1338 30.2204 38.3112C29.0414 39.4824 27.676 40.3848 26.1241 41.0184C24.5211 41.6728 22.8131 42 21 42C19.1969 42 17.494 41.6702 15.8912 41.0105C14.3426 40.3731 12.9762 39.4641 11.7921 38.2836C10.5978 37.093 9.67693 35.7113 9.02938 34.1386C8.34313 32.4717 8 30.6755 8 28.75C8 25.5144 9.11268 21.9984 11.338 18.2021C12.6969 15.884 15.0834 12.6349 18.4977 8.45482C18.6119 8.31502 18.6977 8.21 18.755 8.13976C19.3039 7.46752 20.0517 7.12937 20.9986 7.12529C21.9405 7.12123 22.6825 7.4512 23.2244 8.1152C23.2845 8.18885 23.3759 8.30073 23.4984 8.45083C26.9135 12.6329 29.3007 15.8835 30.6602 18.2025Z" fill-rule="evenodd"  fill="#FF4943" >
</path>
<path d="M21 31C21 33.2091 19.2091 35 17 35C14.7909 35 13 33.2091 13 31C13 28.7909 14.7909 27 17 27C19.2091 27 21 28.7909 21 31Z"   fill="#FF1A1A" >
</path>
<path d="M17 37C20.3137 37 23 34.3137 23 31C23 27.6863 20.3137 25 17 25C13.6863 25 11 27.6863 11 31C11 34.3137 13.6863 37 17 37ZM17 29C18.1046 29 19 29.8954 19 31C19 32.1046 18.1046 33 17 33C15.8954 33 15 32.1046 15 31C15 29.8954 15.8954 29 17 29Z" fill-rule="evenodd"  fill="#FF1A1A" >
</path>
<path d="M29 27C29 27.5523 28.5523 28 28 28C27.4477 28 27 27.5523 27 27C27 26.4477 27.4477 26 28 26C28.5523 26 29 26.4477 29 27Z"   fill="#FF4943" >
</path>
<path d="M28 30C29.6568 30 31 28.6568 31 27C31 25.3431 29.6568 24 28 24C26.3431 24 25 25.3431 25 27C25 28.6568 26.3431 30 28 30ZM28 28C27.4477 28 27 27.5523 27 27C27 26.4477 27.4477 26 28 26C28.5523 26 29 26.4477 29 27C29 27.5523 28.5523 28 28 28Z" fill-rule="evenodd"  fill="#FF4943" >
</path>
<path d="M24 21C24 22.1046 23.1046 23 22 23C20.8954 23 20 22.1046 20 21C20 19.8954 20.8954 19 22 19C23.1046 19 24 19.8954 24 21Z"   fill="#FF766C" >
</path>
</svg>
