<svg xmlns="http://www.w3.org/2000/svg" xmlns:xlink="http://www.w3.org/1999/xlink" width="48" height="48" viewBox="0 0 48 48" fill="none">
<path d="M24.0002 7.86302C21.5016 5.28767 18.5265 4 15.075 4C11.9289 4 9.03152 5.09788 6.38292 7.29365C2.79431 10.2687 1 14.5469 1 20.1282C0.999853 29.7797 8.21005 38.2537 22.6306 45.55C23.5431 46.0117 24.4439 46.0178 25.333 45.5684C39.7778 38.2665 47.0001 29.7864 47 20.1281C47 14.5469 45.2057 10.2687 41.6171 7.29365C38.9685 5.09788 36.0711 4 32.925 4C29.4743 4 26.4993 5.28767 24.0002 7.86302ZM8.93583 10.373C10.8441 8.79101 12.8905 8 15.075 8C17.7708 8 20.0762 9.21188 21.9911 11.6356C22.5034 12.2841 23.1788 12.605 24.0175 12.5985C24.8424 12.5921 25.5074 12.2698 26.0123 11.6314C27.9272 9.21048 30.2315 8 32.925 8C35.1095 8 37.1559 8.79101 39.0642 10.373C41.6881 12.5483 43 15.8 43 20.1282C43 21.0961 42.9054 22.0533 42.7163 23L36.6504 23C35.7832 23 34.999 23.255 34.2977 23.765L26.2906 29.5884L23.3476 16.3444C22.834 14.0335 19.9716 13.2 18.2977 14.8739L10.1716 23L5.2836 23C5.09452 22.0533 4.99999 21.0961 5 20.1282C5 15.8 6.31194 12.5483 8.93583 10.373ZM6.67682 27C9.32189 32.2711 15.0963 37.1905 24 41.7584C32.9033 37.1899 38.6776 32.2705 41.3228 27L36.6504 27L27.4098 33.7204C25.6626 34.9911 23.1854 34.054 22.7168 31.945L19.838 18.9904L13 25.8284C12.2189 26.6095 11.2761 27 10.1716 27L6.67682 27Z" fill-rule="evenodd"  fill="#000000" >
</path>
</svg>
