<svg xmlns="http://www.w3.org/2000/svg" xmlns:xlink="http://www.w3.org/1999/xlink" width="48" height="48" viewBox="0 0 48 48" fill="none">
<path d="M29 9C29 10.6568 27.6568 12 26 12C24.3431 12 23 10.6568 23 9C23 7.34315 24.3431 6 26 6C27.6568 6 29 7.34315 29 9ZM19 9C19 12.866 22.134 16 26 16C29.866 16 33 12.866 33 9C33 5.13401 29.866 2 26 2C22.134 2 19 5.13401 19 9Z" fill-rule="evenodd"  fill="#0D9E86" >
</path>
<path d="M32.3313 18.6949C32.0216 17.9913 31.3181 17.5 30.5 17.5C29.3954 17.5 28.5 18.3954 28.5 19.5C28.5 19.8174 28.5739 20.1175 28.7055 20.3841L31.5353 26.4478C32.4051 28.3117 33.8518 29.0597 35.8755 28.6918L39.8235 27.974C40.7742 27.8194 41.5 26.9944 41.5 26C41.5 24.8954 40.6046 24 39.5 24C39.3642 24 39.2316 24.0135 39.1034 24.0393L35.16 24.7563L32.3313 18.6949Z" fill-rule="evenodd"  fill="#2CB197" >
</path>
<path d="M21 33.5C21 33.8145 20.9274 34.112 20.7981 34.3767L18.0957 40.2319C17.7226 41.0402 17.1442 41.6554 16.3603 42.0775L10.4813 45.2431C10.1914 45.4067 9.85659 45.5 9.5 45.5C8.39543 45.5 7.5 44.6046 7.5 43.5C7.5 42.724 7.94199 42.0512 8.58796 41.7196L14.4639 38.5556L17.1652 32.7028C17.4732 31.9949 18.1788 31.5 19 31.5C20.1046 31.5 21 32.3954 21 33.5Z" fill-rule="evenodd"  fill="#2CB197" >
</path>
<path d="M15.3287 30.8111C15.0175 31.5115 14.3158 32 13.5 32C12.3954 32 11.5 31.1046 11.5 30C11.5 29.6804 11.575 29.3783 11.7083 29.1104L15.3549 21.3612C15.8022 20.4108 16.5134 19.7406 17.4886 19.3505L22.5936 17.3085C24.774 16.4363 27.0658 18.2943 26.6634 20.6079L25.3778 28L27.2745 28C29.5752 28 30.8941 29.1379 31.2313 31.4138L32.9732 43.1721C32.9908 43.2788 33 43.3883 33 43.5C33 44.6046 32.1046 45.5 31 45.5C29.9846 45.5 29.146 44.7434 29.0172 43.7632L27.2745 32L24.1889 32C22.3265 32 20.9142 30.3208 21.2333 28.486L22.4156 21.6878L18.9742 23.0644L15.3287 30.8111Z" fill-rule="evenodd"  fill="#0D9E86" >
</path>
</svg>
