<svg xmlns="http://www.w3.org/2000/svg" xmlns:xlink="http://www.w3.org/1999/xlink" width="48" height="48" viewBox="0 0 48 48" fill="none">
<path d="M20.5 39C10.2827 39 2 30.7173 2 20.5C2 10.2827 10.2827 2 20.5 2C24.7895 2 28.6128 3.32803 31.9701 5.9841C35.2601 8.58693 37.4156 11.9099 38.4366 15.9531C38.483 16.1222 38.5079 16.3002 38.5079 16.4841C38.5079 17.5887 37.6124 18.4841 36.5079 18.4841C35.5569 18.4841 34.761 17.8204 34.558 16.931C33.7581 13.7654 32.0682 11.1621 29.4883 9.1211C26.8582 7.04037 23.8621 6 20.5 6C12.4919 6 6 12.4919 6 20.5C6 28.5081 12.4919 35 20.5 35C21.6046 35 22.5 35.8954 22.5 37C22.5 38.1046 21.6046 39 20.5 39ZM18.5005 12.9999L18.5005 13L18.5 21.7561C18.4999 22.9953 19.5045 24 20.7438 24C21.1356 24 21.5023 23.9039 21.8438 23.7118L25.4461 21.6856C26.0735 21.3481 26.5 20.6854 26.5 19.9231C26.5 18.8185 25.6045 17.9231 24.5 17.9231C24.1308 17.9231 23.785 18.0231 23.4882 18.1975L22.5002 18.7533L22.5005 13.0002L22.5005 13C22.5005 11.8954 21.6051 11 20.5005 11C19.396 11 18.5005 11.8954 18.5005 12.9999ZM32 21L39 21C42.3137 21 45 23.6863 45 27L45 39C45 42.3137 42.3137 45 39 45L32 45C28.6863 45 26 42.3137 26 39L26 27C26 23.6863 28.6863 21 32 21ZM32 25C30.8954 25 30 25.8954 30 27L30 39C30 40.1046 30.8954 41 32 41L39 41C40.1046 41 41 40.1046 41 39L41 27C41 25.8954 40.1046 25 39 25L32 25ZM34.0002 35L33.9998 35C32.8952 35.0001 31.9999 35.8956 32 37.0002C32.0001 38.1047 32.8955 39 34 39L34.0002 39L36.9998 39L37.0002 39C38.1048 38.9999 39.0001 38.1044 39 36.9998C38.9999 35.8953 38.1045 35 37 35L36.9998 35L34.0002 35Z" fill-rule="evenodd"  fill="#000000" >
</path>
</svg>
