<svg xmlns="http://www.w3.org/2000/svg" xmlns:xlink="http://www.w3.org/1999/xlink" width="48" height="48" viewBox="0 0 48 48" fill="none">
<path d="M35 9C35 10.6568 33.6568 12 32 12C30.3431 12 29 10.6568 29 9C29 7.34315 30.3431 6 32 6C33.6568 6 35 7.34315 35 9ZM25 9C25 12.866 28.134 16 32 16C35.866 16 39 12.866 39 9C39 5.13401 35.866 2 32 2C28.134 2 25 5.13401 25 9Z" fill-rule="evenodd"  fill="#0D9E86" >
</path>
<path d="M42 17C42 17.2375 41.9586 17.4654 41.8826 17.6767L39.9075 23.6021C38.9736 26.4037 35.4299 27.2622 33.3175 25.1984L31.0081 22.9423L31.0067 22.9409C30.635 22.5778 30.4043 22.071 30.4043 21.5103C30.4043 20.4057 31.2997 19.5103 32.4043 19.5103C32.9482 19.5103 33.4414 19.7274 33.8019 20.0797L33.8031 20.0809L36.1127 22.3372L36.1127 22.3372L38.088 16.4113C38.3394 15.594 39.1003 15 40 15C41.1046 15 42 15.8954 42 17Z" fill-rule="evenodd"  fill="#2CB197" >
</path>
<path d="M18.2405 33.1432C18.2405 33.5005 18.1468 33.8359 17.9827 34.1262L14.4223 40.7227C13.5392 42.3589 12.1773 43.0456 10.3366 42.7827L4.74624 41.984C3.76148 41.8593 3 41.0186 3 40C3 38.8954 3.89543 38 5 38C5.10784 38 5.21369 38.0085 5.31691 38.0249L10.9023 38.8229L10.9023 38.8229L14.461 32.2294C14.7929 31.5844 15.4652 31.1432 16.2405 31.1432C17.345 31.1432 18.2405 32.0387 18.2405 33.1432Z" fill-rule="evenodd"  fill="#2CB197" >
</path>
<path d="M11.6043 25.1945C11.2396 25.6834 10.6568 26 10 26C8.89543 26 8 25.1046 8 24C8 23.5374 8.15706 23.1115 8.42076 22.7727L15.3154 13.7235C16.7737 11.8094 18.5296 11.4797 20.5829 12.7345L27.174 16.7624C28.6059 17.6375 29.0416 19.5171 28.1406 20.9329L23.6433 28L29.8742 28C32.7933 28 34.7293 31.0257 33.506 33.6762L28.8348 43.7971C28.5269 44.505 27.8212 45 27 45C25.8954 45 25 44.1046 25 43C25 42.6855 25.0726 42.388 25.2019 42.1232L29.8742 32L21.8217 32C19.4544 32 18.0198 29.3865 19.2907 27.3894L24.2192 19.6445L18.4971 16.1477L11.6043 25.1945Z" fill-rule="evenodd"  fill="#0D9E86" >
</path>
</svg>
