<svg xmlns="http://www.w3.org/2000/svg" xmlns:xlink="http://www.w3.org/1999/xlink" width="48" height="48" viewBox="0 0 48 48" fill="none">
<path d="M24 17C20.134 17 17 13.866 17 10C17 6.13401 20.134 3 24 3C27.866 3 31 6.13401 31 10C31 13.866 27.866 17 24 17ZM24 13C25.6568 13 27 11.6568 27 10C27 8.34315 25.6568 7 24 7C22.3432 7 21 8.34315 21 10C21 11.6568 22.3432 13 24 13ZM34.5985 18.8782C34.86 18.0781 35.6125 17.5 36.5 17.5C37.6046 17.5 38.5 18.3954 38.5 19.5C38.5 19.7498 38.4542 19.989 38.3705 20.2095L35.9914 26.9502C35.2041 29.181 32.265 29.6654 30.8035 27.8053L27.0279 23L26 23L26 28.7181C26 30 25.6275 31.1625 24.8824 32.2056L15.643 45.1407C15.2818 45.66 14.6806 46 14 46C12.8954 46 12 45.1046 12 44C12 43.558 12.1434 43.1495 12.3861 42.8185L21.6275 29.8806C21.8758 29.5329 22 29.1454 22 28.7181L22 23L20.8284 23L15.4142 28.4142C15.0523 28.7761 14.5523 29 14 29C12.8954 29 12 28.1046 12 27C12 26.4477 12.2239 25.9477 12.5858 25.5858L18 20.1716C18.781 19.3905 19.7239 19 20.8284 19L27.0279 19C28.324 19 29.3725 19.5096 30.1732 20.5287L32.8249 23.9036L34.5985 18.8782ZM29.6813 33.9164C29.3252 33.365 28.7052 33 28 33C26.8954 33 26 33.8954 26 35C26 35.4203 26.1296 35.8102 26.3511 36.1322L32.3187 45.0836C32.6748 45.635 33.2948 46 34 46C35.1046 46 36 45.1046 36 44C36 43.5797 35.8704 43.1897 35.6489 42.8678L29.6813 33.9164Z" fill-rule="evenodd"  fill="#000000" >
</path>
</svg>
