<svg xmlns="http://www.w3.org/2000/svg" xmlns:xlink="http://www.w3.org/1999/xlink" width="48" height="48" viewBox="0 0 48 48" fill="none">
<path d="M24 5C13.51 5 5 13.51 5 24C5 34.49 13.51 43 24 43C34.49 43 43 34.49 43 24C43 13.51 34.49 5 24 5Z"   fill="#BEDCFF" >
</path>
<path d="M24 45C35.598 45 45 35.598 45 24C45 12.402 35.598 3 24 3C12.402 3 3 12.402 3 24C3 35.598 12.402 45 24 45ZM24 7C33.3888 7 41 14.6112 41 24C41 33.3888 33.3888 41 24 41C14.6112 41 7 33.3888 7 24C7 14.6112 14.6112 7 24 7Z" fill-rule="evenodd"  fill="#1764FF" >
</path>
<path d="M15.0857 30.9142C14.7238 30.5522 14.5 30.0523 14.5 29.5C14.5 28.3954 15.3954 27.5 16.5 27.5C17.0523 27.5 17.5523 27.7239 17.9143 28.0858C19.5236 29.6953 21.5522 30.5 24 30.5C26.4479 30.5 28.4764 29.6953 30.0857 28.0858C30.4477 27.7239 30.9477 27.5 31.5 27.5C32.6046 27.5 33.5 28.3954 33.5 29.5C33.5 30.0523 33.2762 30.5522 32.9143 30.9142C30.5239 33.3047 27.5525 34.5 24 34.5C20.4475 34.5 17.4761 33.3047 15.0857 30.9142Z" fill-rule="evenodd"  fill="#1764FF" >
</path>
<path d="M21.0478 16C21.0478 16.1222 21.0366 16.2419 21.0151 16.358L20.0265 22.2894C19.883 23.2568 19.0303 24 18 24C16.869 24 15.9521 23.1046 15.9521 22C15.9521 21.8778 15.9634 21.7581 15.9849 21.642L16.9734 15.7106C17.117 14.7432 17.9696 14 19 14C20.131 14 21.0478 14.8954 21.0478 16Z" fill-rule="evenodd"  fill="#1764FF" >
</path>
<path d="M30.5618 17.7936C30.8649 17.4449 31.0478 16.9933 31.0478 16.5C31.0478 15.3954 30.1309 14.5 29 14.5C28.3638 14.5 27.7955 14.7832 27.4199 15.2276L24.4297 18.7162C23.522 19.7751 23.9603 21.3924 25.2854 21.8743L30.7411 23.8582C30.9757 23.9497 31.2318 24 31.4999 24C32.6309 24 33.5477 23.1046 33.5477 22C33.5477 21.1245 32.9717 20.3804 32.1697 20.1094L29.4306 19.1134L30.5618 17.7936Z" fill-rule="evenodd"  fill="#1764FF" >
</path>
</svg>
