<svg xmlns="http://www.w3.org/2000/svg" xmlns:xlink="http://www.w3.org/1999/xlink" width="48" height="48" viewBox="0 0 48 48" fill="none">
<path d="M21.9159 9.82173C22.2093 9.53395 21.9858 9.00731 21.5751 9.02241C8.92955 9.48749 4 17.134 4 26.4996C4 36.1648 11.835 44 21.5 44C29.7104 44 36.6001 37.7143 38.488 29.8972C38.5891 29.479 38.6758 28.9236 38.7476 28.3522C38.854 27.5066 37.7789 27.0694 37.1809 27.6766C36.8584 28.004 36.5385 28.3024 36.2648 28.5086C33.7376 30.4129 30.6039 31.2724 27.8636 31.2724C21.7132 31.2724 16.7273 26.2864 16.7273 20.1358C16.7273 15.4736 20.2236 11.4811 21.9159 9.82173Z"   fill="#E2C2FB" >
</path>
<path d="M27.8636 29.2724C22.8178 29.2724 18.7273 25.1816 18.7273 20.1358C18.7273 17.2116 20.2569 14.2496 23.3161 11.2498C24.1126 10.4688 24.2905 9.56063 23.8498 8.52526C23.4062 7.48299 22.6235 6.98249 21.5016 7.02375C14.9435 7.26495 9.96158 9.28665 6.55573 13.0889C3.51858 16.4795 2 20.9497 2 26.4996C2 37.2694 10.7302 46 21.5 46C26.0183 46 30.0729 44.467 33.6636 41.401C37.1101 38.4582 39.3662 34.7801 40.4321 30.3667C40.5405 29.9179 40.6404 29.3296 40.7319 28.6019C40.911 27.1788 40.3353 26.187 39.0048 25.6265C37.7742 25.1081 36.6912 25.3237 35.7559 26.2732C35.4639 26.5697 35.2323 26.7824 35.0612 26.9113C32.9723 28.4854 30.5731 29.2724 27.8636 29.2724ZM17.8698 11.4083C15.7748 14.2468 14.7273 17.156 14.7273 20.1358C14.7273 27.3908 20.6086 33.2724 27.8636 33.2724C30.8803 33.2724 33.6163 32.5319 36.0716 31.051C35.09 33.9119 33.4215 36.348 31.0662 38.3591C28.2235 40.7864 25.0348 42 21.5 42C12.9394 42 6 35.0602 6 26.4996C6 17.8466 9.9566 12.8161 17.8698 11.4083Z" fill-rule="evenodd"  fill="#8134ED" >
</path>
<path d="M41.5399 2.69L35 2.69C33.8954 2.69 33 3.58543 33 4.69C33 5.79457 33.8954 6.69 35 6.69L37.8496 6.69L33.8133 9.62554C31.6202 11.2205 32.7484 14.69 35.4602 14.69L42.5 14.69C43.6046 14.69 44.5 13.7946 44.5 12.69C44.5 11.5854 43.6046 10.69 42.5 10.69L39.1504 10.69L43.1867 7.75446C45.3798 6.15949 44.2516 2.69 41.5399 2.69Z" fill-rule="evenodd"  fill="#8134ED" >
</path>
<path d="M30.7194 13.5L24.8182 13.5C23.7136 13.5 22.8182 14.3954 22.8182 15.5C22.8182 16.6046 23.7136 17.5 24.8182 17.5L27.2984 17.5L23.5315 20.5136C21.4647 22.167 22.6339 25.5 25.2806 25.5L31.6364 25.5C32.7409 25.5 33.6364 24.6046 33.6364 23.5C33.6364 22.3954 32.7409 21.5 31.6364 21.5L28.7016 21.5L32.4685 18.4864C34.5353 16.833 33.3662 13.5 30.7194 13.5Z" fill-rule="evenodd"  fill="#8134ED" >
</path>
</svg>
