<svg xmlns="http://www.w3.org/2000/svg" xmlns:xlink="http://www.w3.org/1999/xlink" width="48" height="48" viewBox="0 0 48 48" fill="none">
<path d="M43.852 38.844L44.5025 37.0505C44.8024 36.2234 44.5638 35.297 43.9017 34.7176L38.2524 29.7749C37.9665 29.5247 37.7526 29.2028 37.6328 28.8423L32.6766 13.9339C32.2155 12.547 30.5277 12.0238 29.3631 12.907L24.7614 16.3966C23.9875 16.9834 22.9149 16.9734 22.1521 16.3724L13.5728 9.61345C12.6261 8.86765 11.25 9.05351 10.5351 10.0237L4.14049 18.7022C3.41529 19.6864 3.14708 20.9344 3.40396 22.1297L3.74339 23.709C3.97556 24.7892 4.6177 25.7373 5.53474 26.3536L25.6708 39.8872C26.0226 40.1237 26.4369 40.25 26.8608 40.25L41.8465 40.25C42.7442 40.25 43.5459 39.688 43.852 38.844Z"   fill="#BEDCFF" >
</path>
<path d="M26.8608 42.25L41.8465 42.25C43.7783 42.25 45.0735 41.342 45.7322 39.5259L46.3826 37.7324C47.0253 35.9603 46.6373 34.4537 45.2186 33.2124L39.5694 28.2697C39.5512 28.2538 39.5383 28.2343 39.5307 28.2114L34.5744 13.303C33.6811 10.6157 30.4112 9.60223 28.1547 11.3134L23.5529 14.803C23.4982 14.8445 23.4438 14.8439 23.3898 14.8014L14.8105 8.04242C12.9763 6.59742 10.3101 6.95752 8.92502 8.83733L2.53038 17.5158C1.41364 19.0314 1.05305 20.7095 1.44861 22.55L1.78804 24.1292C2.1424 25.778 3.01942 27.0728 4.41909 28.0135L24.5552 41.5472C25.2523 42.0157 26.0209 42.25 26.8608 42.25ZM41.9718 38.1621C41.9506 38.2207 41.9088 38.25 41.8465 38.25L26.8608 38.25C26.8337 38.25 26.809 38.2424 26.7865 38.2273L6.65038 24.6937C6.14413 24.3534 5.82692 23.8851 5.69874 23.2887L5.3593 21.7094C5.21623 21.0437 5.34667 20.4368 5.75061 19.8886L12.1452 11.2101C12.1899 11.1495 12.2759 11.1379 12.3351 11.1845L20.9144 17.9434C22.5875 19.2615 24.2727 19.2771 25.9698 17.9902L30.5716 14.5006C30.6444 14.4454 30.7499 14.4781 30.7787 14.5649L35.7349 29.4733C35.9713 30.1844 36.3715 30.7867 36.9355 31.2801L42.5847 36.2228C42.6305 36.2629 42.643 36.3115 42.6223 36.3686L41.9718 38.1621Z" fill-rule="evenodd"  fill="#1764FF" >
</path>
<path d="M29 23C29 23.7984 28.5322 24.4875 27.8557 24.8082L23.9304 26.7709C23.6525 26.9172 23.3359 27 23 27C21.8954 27 21 26.1046 21 25C21 24.2016 21.4678 23.5125 22.1443 23.1918L26.0696 21.2291C26.3475 21.0828 26.6641 21 27 21C28.1046 21 29 21.8954 29 23Z" fill-rule="evenodd"  fill="#1764FF" >
</path>
<path d="M31 29C31 29.7984 30.5322 30.4875 29.8557 30.8082L27.9304 31.7709C27.6525 31.9172 27.3359 32 27 32C25.8954 32 25 31.1046 25 30C25 29.2016 25.4678 28.5125 26.1443 28.1918L28.0696 27.2291C28.3475 27.0828 28.6641 27 29 27C30.1046 27 31 27.8954 31 29Z" fill-rule="evenodd"  fill="#6BA6FF" >
</path>
</svg>
