<svg xmlns="http://www.w3.org/2000/svg" xmlns:xlink="http://www.w3.org/1999/xlink" width="48" height="48" viewBox="0 0 48 48" fill="none">
<path d="M18.8109 16.6881L11.6664 18.0277C10.7206 18.1865 10 19.0091 10 20C10 21.1046 10.8954 22 12 22C12.1398 22 12.2762 21.9857 12.4079 21.9584L19.548 20.6196L22.0361 22.3421L11.2912 25.8184C11.615 26.018 11.9357 26.2606 12.2533 26.5464L14.0153 28.1323L18.3041 25.7929C20.1194 24.8028 21.8621 24.8925 23.5322 26.0622L25.1915 25.5254C27.5553 24.7607 28.0183 21.6186 25.9757 20.2045L21.8248 17.3308C20.9096 16.6972 19.9049 16.483 18.8109 16.6881Z" fill-rule="evenodd"  fill="#0D9E86" >
</path>
<path d="M30.5026 22C30.9895 22.0006 31.4356 22.1752 31.7822 22.465L35.175 25.2591C34.0728 24.9624 32.9215 25.1184 31.721 25.7271L30.3161 26.4394L29.2411 25.5542C28.789 25.1875 28.5 24.6275 28.5 24L28.5 23.9974C28.5014 22.894 29.3963 22 30.5 22L30.5026 22Z" fill-rule="evenodd"  fill="#2CB197" >
</path>
<path d="M47 29C47 29.7052 46.635 30.3252 46.0836 30.6813L40.7249 34.2538C39.494 35.0744 38.306 35.0163 37.161 34.0795L33.8533 31.3731L27.6753 34.5056C26.5781 35.062 25.5338 34.9759 24.5424 34.2476L20.6188 31.3649L15.0237 34.4168C13.7806 35.0948 12.6327 34.9602 11.5802 34.013L8.81681 31.5258L4.13215 34.6489C3.81024 34.8704 3.42026 35 3 35C1.89543 35 1 34.1046 1 33C1 32.2948 1.36501 31.6748 1.91641 31.3187L7.24428 27.7668C8.53692 26.905 9.7606 26.9938 10.9153 28.033L13.7298 30.5662L19.2618 27.5488C20.3785 26.9396 21.4494 27.0117 22.4745 27.7648L26.415 30.6598L32.6255 27.5109C33.7878 26.9215 34.8733 27.0395 35.8819 27.8647L39.1215 30.5153L43.8679 27.351C44.1898 27.1296 44.5798 27 45 27C46.1046 27 47 27.8954 47 29Z" fill-rule="evenodd"  fill="#1764FF" >
</path>
<path d="M47 37C47 37.7052 46.635 38.3252 46.0836 38.6813L40.7249 42.2538C39.494 43.0744 38.306 43.0163 37.161 42.0795L33.8533 39.3731L27.6753 42.5056C26.5781 43.062 25.5338 42.9759 24.5424 42.2476L20.6188 39.3649L15.0237 42.4168C13.7806 43.0948 12.6327 42.9602 11.5802 42.013L8.81681 39.5258L4.13215 42.6489C3.81024 42.8704 3.42026 43 3 43C1.89543 43 1 42.1046 1 41C1 40.2948 1.36501 39.6748 1.91641 39.3187L7.24428 35.7668C8.53692 34.905 9.7606 34.9938 10.9153 36.033L13.7298 38.5662L19.2618 35.5488C20.3785 34.9397 21.4494 35.0117 22.4745 35.7648L26.415 38.6599L32.6255 35.5109C33.7878 34.9215 34.8733 35.0395 35.8819 35.8647L39.1215 38.5153L43.8679 35.351C44.1898 35.1296 44.5798 35 45 35C46.1046 35 47 35.8954 47 37Z" fill-rule="evenodd"  fill="#6BA6FF" >
</path>
<path d="M36 13C36 14.6568 34.6568 16 33 16C31.3431 16 30 14.6568 30 13C30 11.3431 31.3431 10 33 10C34.6568 10 36 11.3431 36 13ZM26 13C26 16.866 29.134 20 33 20C36.866 20 40 16.866 40 13C40 9.13401 36.866 6 33 6C29.134 6 26 9.13401 26 13Z" fill-rule="evenodd"  fill="#0D9E86" >
</path>
</svg>
