<svg xmlns="http://www.w3.org/2000/svg" xmlns:xlink="http://www.w3.org/1999/xlink" width="48" height="48" viewBox="0 0 48 48" fill="none">
<path d="M35 2.69L41.5399 2.69C44.2516 2.69 45.3798 6.15949 43.1867 7.75446L39.1504 10.69L42.5 10.69C43.6046 10.69 44.5 11.5854 44.5 12.69C44.5 13.7946 43.6046 14.69 42.5 14.69L35.4602 14.69C32.7484 14.69 31.6202 11.2205 33.8133 9.62554L37.8497 6.69L35 6.69C33.8955 6.69 33 5.79457 33 4.69C33 3.58543 33.8955 2.69 35 2.69ZM18.7273 20.1358C18.7273 25.1816 22.8178 29.2724 27.8636 29.2724C30.5731 29.2724 32.9723 28.4854 35.0612 26.9113C35.2323 26.7824 35.4639 26.5697 35.7559 26.2732C36.6912 25.3237 37.7742 25.1081 39.0048 25.6265C40.3353 26.187 40.911 27.1788 40.7319 28.6019C40.6404 29.3296 40.5405 29.9179 40.4321 30.3667C39.3662 34.7801 37.1101 38.4582 33.6636 41.401C30.0729 44.467 26.0183 46 21.5 46C10.7302 46 2 37.2694 2 26.4996C2 20.9497 3.51858 16.4795 6.55573 13.0889C9.96158 9.28668 14.9435 7.26496 21.5016 7.02376C22.6235 6.9825 23.4062 7.48301 23.8498 8.52527C24.2905 9.56064 24.1126 10.4688 23.3161 11.2498C20.2569 14.2496 18.7273 17.2116 18.7273 20.1358ZM14.7273 20.1358C14.7273 17.156 15.7748 14.2468 17.8698 11.4083C9.9566 12.8162 6 17.8466 6 26.4996C6 35.0602 12.9394 42 21.5 42C25.0348 42 28.2235 40.7864 31.0662 38.3591C33.4215 36.348 35.09 33.9119 36.0716 31.051C33.6163 32.5319 30.8803 33.2724 27.8636 33.2724C20.6086 33.2724 14.7273 27.3908 14.7273 20.1358ZM30.7194 13.5L24.8182 13.5C23.7136 13.5 22.8182 14.3954 22.8182 15.5C22.8182 16.6046 23.7136 17.5 24.8182 17.5L27.2985 17.5L23.5315 20.5136C21.4647 22.167 22.6339 25.5 25.2806 25.5L31.6364 25.5C32.7409 25.5 33.6364 24.6046 33.6364 23.5C33.6364 22.3954 32.7409 21.5 31.6364 21.5L28.7016 21.5L32.4685 18.4864C34.5353 16.833 33.3662 13.5 30.7194 13.5Z" fill-rule="evenodd"  fill="#000000" >
</path>
</svg>
