<svg xmlns="http://www.w3.org/2000/svg" xmlns:xlink="http://www.w3.org/1999/xlink" width="48" height="48" viewBox="0 0 48 48" fill="none">
<path d="M33 11C33 12.6568 31.6568 14 30 14C28.3431 14 27 12.6568 27 11C27 9.34315 28.3431 8 30 8C31.6568 8 33 9.34315 33 11ZM23 11C23 14.866 26.134 18 30 18C33.866 18 37 14.866 37 11C37 7.13401 33.866 4 30 4C26.134 4 23 7.13401 23 11Z" fill-rule="evenodd"  fill="#0D9E86" >
</path>
<path d="M13.8152 10.9892C13.6497 12.6276 13.0043 13.39 11.8788 13.2764C10.7533 13.1627 10.2733 12.2867 10.4387 10.6483C10.6041 9.00997 11.2496 8.24759 12.3751 8.36123C13.5005 8.47486 13.9806 9.35086 13.8152 10.9892ZM7.54717 14.8144C8.52702 16.2766 9.83697 17.0905 11.477 17.2561C13.1171 17.4217 14.5633 16.886 15.8156 15.6492C16.963 14.516 17.6227 13.0966 17.7949 11.391C17.9671 9.68543 17.6044 8.16282 16.7067 6.82321C15.7269 5.36096 14.4169 4.54704 12.7769 4.38146C11.1368 4.21588 9.69063 4.75152 8.43826 5.9884C7.29093 7.12154 6.63116 8.54092 6.45896 10.2465C6.28676 11.9521 6.64949 13.4747 7.54717 14.8144Z" fill-rule="evenodd"  fill="#1764FF" >
</path>
<path d="M43 24.5C43 25.4518 42.3351 26.2483 41.4445 26.4504L36.2888 27.7394C35.2172 28.0073 34.2078 27.8571 33.2606 27.2888L31.5024 26.2338C30.9033 25.8884 30.5 25.2413 30.5 24.5C30.5 23.3954 31.3954 22.5 32.5 22.5C32.8881 22.5 33.2505 22.6106 33.5572 22.8019L35.3186 23.8588L40.4714 22.5706C40.6398 22.5246 40.817 22.5 41 22.5C42.1046 22.5 43 23.3954 43 24.5Z" fill-rule="evenodd"  fill="#2CB197" >
</path>
<path d="M13.4998 15.4142C13.4998 15.522 13.4912 15.6278 13.4748 15.7311L12.4838 22.6679C12.3591 23.6526 11.5184 24.4141 10.4998 24.4141C9.39519 24.4141 8.49976 23.5187 8.49976 22.4141C8.49976 22.3063 8.5083 22.2005 8.52473 22.0972L9.51569 15.1604C9.64037 14.1757 10.4811 13.4142 11.4998 13.4142C12.6043 13.4142 13.4998 14.3096 13.4998 15.4142Z" fill-rule="evenodd"  fill="#1764FF" >
</path>
<path d="M20.5 34.5C20.5 35.1171 20.2205 35.669 19.7812 36.0359L14.2099 40.7499C12.9859 41.7857 11.6294 42.0058 10.1406 41.4103L6.30046 39.8742C5.54089 39.5906 5 38.8585 5 38C5 36.8954 5.89543 36 7 36C7.27861 36 7.54391 36.057 7.78489 36.1599L11.6262 37.6964L17.1989 32.981C17.5487 32.6812 18.0032 32.5 18.5 32.5C19.6046 32.5 20.5 33.3954 20.5 34.5Z" fill-rule="evenodd"  fill="#2CB197" >
</path>
<path d="M7.24038 23.8507C6.51252 23.5516 6 22.8357 6 22C6 20.8954 6.89543 20 8 20C8.3007 20 8.58591 20.0664 8.84176 20.1852L15.981 23.3086L24.1076 19.5839C26.8205 18.3406 29.4876 21.39 27.8941 23.9131L24.9844 28.5201L31.5466 31.0879C34.1444 32.1045 34.9301 35.4011 33.0699 37.4801L26.4969 44.8264L26.4905 44.8336C26.1243 45.2426 25.5922 45.5 25 45.5C23.8954 45.5 23 44.6046 23 43.5C23 42.9876 23.1927 42.5203 23.5095 42.1664L30.089 34.8129L22.399 31.8038C20.6441 31.1171 19.9494 29.0014 20.9557 27.4081L22.7152 24.6223L17.6476 26.9449C16.5619 27.4425 15.4719 27.452 14.3777 26.9733L7.24038 23.8507Z" fill-rule="evenodd"  fill="#0D9E86" >
</path>
</svg>
