<svg xmlns="http://www.w3.org/2000/svg" xmlns:xlink="http://www.w3.org/1999/xlink" width="48" height="48" viewBox="0 0 48 48" fill="none">
<path d="M24 5C13.51 5 5 13.51 5 24C5 34.49 13.51 43 24 43C34.49 43 43 34.49 43 24C43 13.51 34.49 5 24 5Z"   fill="#FFC7BF" >
</path>
<path d="M24 45C35.598 45 45 35.598 45 24C45 12.402 35.598 3 24 3C12.402 3 3 12.402 3 24C3 35.598 12.402 45 24 45ZM24 7C33.3888 7 41 14.6112 41 24C41 33.3888 33.3888 41 24 41C14.6112 41 7 33.3888 7 24C7 14.6112 14.6112 7 24 7Z" fill-rule="evenodd"  fill="#FF1A1A" >
</path>
<path d="M14.5 30.5C14.5 31.6046 15.3954 32.5 16.5 32.5L31.5 32.5C32.6046 32.5 33.5 31.6046 33.5 30.5C33.5 29.3954 32.6046 28.5 31.5 28.5L16.5 28.5C15.3954 28.5 14.5 29.3954 14.5 30.5Z" fill-rule="evenodd"  fill="#FF1A1A" >
</path>
<path d="M13.5482 17.4105L13.5477 17.4101C13.1796 17.0485 12.9521 16.5502 12.9521 16C12.9521 14.8954 13.869 14 15 14C15.5676 14 16.0814 14.2256 16.4523 14.5899L16.4528 14.5904L19.5671 17.6499C21.1619 19.2166 21.1619 20.7834 19.5671 22.3501L16.4523 25.4101C16.0814 25.7744 15.5677 26 15 26C13.869 26 12.9522 25.1046 12.9522 24C12.9522 23.4498 13.1796 22.9515 13.5477 22.5899L16.1841 20L13.5482 17.4105Z" fill-rule="evenodd"  fill="#FF1A1A" >
</path>
<path d="M31.8159 20L34.452 17.4103L34.4522 17.4101C34.8203 17.0485 35.0478 16.5502 35.0478 16C35.0478 14.8954 34.1309 14 32.9999 14C32.4323 14 31.9186 14.2256 31.5477 14.5899L28.4328 17.6499C26.838 19.2167 26.838 20.7834 28.4328 22.3501L31.5468 25.4091L31.5478 25.4101C31.9187 25.7744 32.4324 26 33 26C34.131 26 35.0479 25.1046 35.0479 24C35.0479 23.4498 34.8204 22.9515 34.4523 22.5899L34.4519 22.5896L31.8159 20Z" fill-rule="evenodd"  fill="#FF1A1A" >
</path>
</svg>
