<svg xmlns="http://www.w3.org/2000/svg" xmlns:xlink="http://www.w3.org/1999/xlink" width="48" height="48" viewBox="0 0 48 48" fill="none">
<path d="M24 5C13.51 5 5 13.51 5 24C5 34.49 13.51 43 24 43C34.49 43 43 34.49 43 24C43 13.51 34.49 5 24 5Z"   fill="#AFECDA" >
</path>
<path d="M24 45C35.598 45 45 35.598 45 24C45 12.402 35.598 3 24 3C12.402 3 3 12.402 3 24C3 35.598 12.402 45 24 45ZM24 7C33.3888 7 41 14.6112 41 24C41 33.3888 33.3888 41 24 41C14.6112 41 7 33.3888 7 24C7 14.6112 14.6112 7 24 7Z" fill-rule="evenodd"  fill="#0D9E86" >
</path>
<path d="M15.0857 30.9142C14.7238 30.5522 14.5 30.0523 14.5 29.5C14.5 28.3954 15.3954 27.5 16.5 27.5C17.0523 27.5 17.5523 27.7239 17.9143 28.0858C19.5236 29.6953 21.5522 30.5 24 30.5C26.4479 30.5 28.4764 29.6953 30.0857 28.0858C30.4477 27.7239 30.9477 27.5 31.5 27.5C32.6046 27.5 33.5 28.3954 33.5 29.5C33.5 30.0523 33.2762 30.5522 32.9143 30.9142C30.5239 33.3047 27.5525 34.5 24 34.5C20.4475 34.5 17.4761 33.3047 15.0857 30.9142Z" fill-rule="evenodd"  fill="#0D9E86" >
</path>
<path d="M31.7304 25.9965C31.3841 25.4007 30.7389 25 30 25C28.8954 25 28 25.8954 28 27C28 27.3895 28.1114 27.7531 28.304 28.0605C29.692 30.3535 31.7292 31.5 34.4155 31.5L34.5 31.5C35.6046 31.5 36.5 30.6046 36.5 29.5C36.5 28.3954 35.6046 27.5 34.5 27.5L34.4155 27.5C33.2367 27.5 32.3417 26.9988 31.7304 25.9965Z" fill-rule="evenodd"  fill="#0D9E86" >
</path>
<path d="M15.9521 22L15.9521 16C15.9521 14.8954 16.869 14 18 14C19.131 14 20.0478 14.8954 20.0478 16L20.0478 22C20.0478 23.1046 19.131 24 18 24C16.869 24 15.9521 23.1046 15.9521 22Z" fill-rule="evenodd"  fill="#0D9E86" >
</path>
<path d="M27.9512 22L27.9512 16C27.9512 14.8954 28.868 14 29.999 14C31.13 14 32.0468 14.8954 32.0468 16L32.0468 22C32.0468 23.1046 31.13 24 29.999 24C28.868 24 27.9512 23.1046 27.9512 22Z" fill-rule="evenodd"  fill="#0D9E86" >
</path>
</svg>
