<svg xmlns="http://www.w3.org/2000/svg" xmlns:xlink="http://www.w3.org/1999/xlink" width="48" height="48" viewBox="0 0 48 48" fill="none">
<path d="M45 24C45 35.598 35.598 45 24 45C12.402 45 3 35.598 3 24C3 12.402 12.402 3 24 3C35.598 3 45 12.402 45 24ZM41 24C41 14.6112 33.3888 7 24 7C14.6112 7 7 14.6112 7 24C7 33.3888 14.6112 41 24 41C33.3888 41 41 33.3888 41 24ZM15.9521 22L15.9521 16C15.9521 14.8954 16.8689 14 17.9999 14C19.1309 14 20.0477 14.8954 20.0477 16L20.0477 22C20.0477 23.1046 19.1309 24 17.9999 24C16.8689 24 15.9521 23.1046 15.9521 22ZM27.9521 22L27.9521 16C27.9521 14.8954 28.8689 14 29.9999 14C31.1309 14 32.0477 14.8954 32.0477 16L32.0477 22C32.0477 23.1046 31.1309 24 29.9999 24C28.8689 24 27.9521 23.1046 27.9521 22ZM26.5735 33.3303C22.9087 33.9779 19.7937 33.7441 17.2285 32.6289C16.6221 32.3748 16.1534 31.8271 16.0305 31.1315C15.8383 30.0438 16.5642 29.0063 17.6519 28.8141C18.0647 28.7412 18.4703 28.8005 18.8252 28.9616C20.6537 29.7559 23.0044 29.8992 25.8775 29.3915C28.7505 28.8838 30.9098 27.9436 32.3555 26.5707C32.6336 26.2978 32.9943 26.103 33.4071 26.0301C34.4948 25.8379 35.5323 26.5638 35.7245 27.6515C35.8474 28.3471 35.5948 29.0222 35.1122 29.4688C33.0845 31.3955 30.2383 32.6827 26.5735 33.3303Z" fill-rule="evenodd"  fill="#000000" >
</path>
</svg>
