<svg xmlns="http://www.w3.org/2000/svg" xmlns:xlink="http://www.w3.org/1999/xlink" width="48" height="48" viewBox="0 0 48 48" fill="none">
<path d="M35.99 20.3973C34.8646 17.8624 33.2925 15.2316 31.26 12.5073L26.06 5.53731C23.5375 2.15423 18.4624 2.15423 15.94 5.53731L10.74 12.5073C8.70763 15.2313 7.13533 17.8625 6.01 20.3973C4.67374 23.4072 4 26.2242 4 28.8473L4 28.8573C4 31.3073 4.44205 33.6106 5.33 35.7673C6.18269 37.8383 7.40093 39.653 8.97 41.2173C10.5253 42.7679 12.3244 43.9654 14.37 44.8073C16.465 45.6695 18.6725 46.0973 21 46.0973C23.3309 46.0973 25.5376 45.6716 27.63 44.8173C29.6775 43.9814 31.487 42.79 33.04 41.2473C34.6095 39.6881 35.8183 37.87 36.67 35.7973C37.5583 33.6355 38 31.3191 38 28.8473C38 26.2236 37.3267 23.4081 35.99 20.3973ZM13.95 14.8973L13.95 14.9073C12.0961 17.392 10.6642 19.7554 9.66 22.0173C8.55305 24.5106 8 26.7898 8 28.8473L8 28.8573C8 30.78 8.34281 32.5682 9.03 34.2373C9.67881 35.8132 10.6002 37.2011 11.79 38.3873C12.9689 39.5627 14.3359 40.4677 15.89 41.1073C17.4973 41.7688 19.1998 42.0973 21 42.0973C22.8075 42.0973 24.5121 41.7738 26.12 41.1173C27.6741 40.4828 29.0451 39.5744 30.22 38.4073C31.4072 37.2278 32.3231 35.8515 32.97 34.2773C33.6582 32.6025 34 30.7926 34 28.8473C34 26.789 33.4473 24.5114 32.34 22.0173C30.0201 16.7919 26.0663 12.2384 22.85 7.92731C21.9272 6.68959 20.0729 6.68959 19.15 7.92731L13.95 14.8973ZM39.7678 14.0607L42.5607 11.2678C44.1356 9.69285 43.0202 7 40.7929 7L35.2071 7C32.9798 7 31.8644 9.69285 33.4393 11.2678L36.2322 14.0607C37.2085 15.037 38.7915 15.037 39.7678 14.0607ZM22 23C23.1046 23 24 22.1046 24 21C24 19.8954 23.1046 19 22 19C20.8954 19 20 19.8954 20 21C20 22.1046 20.8954 23 22 23ZM28 30C29.6568 30 31 28.6568 31 27C31 25.3431 29.6568 24 28 24C26.3431 24 25 25.3431 25 27C25 28.6568 26.3431 30 28 30ZM17 37C20.3137 37 23 34.3137 23 31C23 27.6863 20.3137 25 17 25C13.6863 25 11 27.6863 11 31C11 34.3137 13.6863 37 17 37Z" fill-rule="evenodd"  fill="#000000" >
</path>
</svg>
