<svg xmlns="http://www.w3.org/2000/svg" xmlns:xlink="http://www.w3.org/1999/xlink" width="48" height="48" viewBox="0 0 48 48" fill="none">
<path d="M26 11C26 14.866 29.134 18 33 18C36.866 18 40 14.866 40 11C40 7.13401 36.866 4 33 4C29.134 4 26 7.13401 26 11ZM36 11C36 12.6568 34.6568 14 33 14C31.3432 14 30 12.6568 30 11C30 9.34315 31.3432 8 33 8C34.6568 8 36 9.34315 36 11ZM16 10.5C16 10.664 15.9803 10.8234 15.943 10.976L15.861 11.3451L24.3144 13.3666C24.8608 15.3767 26.0863 17.107 27.7294 18.296L14.9931 15.2504L14.9609 15.3954C14.7774 16.3106 13.9692 17 13 17C11.8954 17 11 16.1046 11 15C11 14.836 11.0197 14.6766 11.057 14.524L11.1023 14.32L9.57468 13.9547C8.67443 13.7597 8 12.9586 8 12C8 10.8954 8.89543 10 10 10C10.1756 10 10.3459 10.0226 10.5082 10.0651L11.9702 10.4147L12.0391 10.1046C12.2226 9.18941 13.0308 8.5 14 8.5C15.1046 8.5 16 9.39543 16 10.5ZM39.0858 16.5858L39.0848 16.5868L34.0433 21.6283L28.8837 19.4171C27.692 18.9064 26.6198 19.0907 25.6671 19.9701L20.943 24.3308C19.2284 25.9135 19.8977 28.7618 22.1378 29.4152L29.9512 31.6941L26.8019 36.9428C26.6106 37.2495 26.5 37.6119 26.5 38C26.5 39.1046 27.3954 40 28.5 40C29.2413 40 29.8884 39.5967 30.2338 38.9976L33.3811 33.7521C34.7299 31.5041 33.5878 28.5881 31.0712 27.8541L24.9557 26.0704L27.9039 23.349L32.4676 25.3049C34.127 26.0161 35.595 25.7334 36.8717 24.4567L41.9132 19.4152L41.9142 19.4142C42.2761 19.0523 42.5 18.5523 42.5 18C42.5 16.8954 41.6046 16 40.5 16C39.9477 16 39.4477 16.2239 39.0858 16.5858ZM4.00836 38.4391L34.4694 46.8745C36.4663 47.4274 38.2665 47.0479 39.8701 45.7359L43.7536 42.5585C44.2088 42.1919 44.5 41.63 44.5 41C44.5 39.8954 43.6046 39 42.5 39C42.0142 39 41.5689 39.1732 41.2224 39.4612L37.3372 42.64C36.8026 43.0774 36.2025 43.2039 35.5369 43.0196L5.07804 34.5848C4.89504 34.5296 4.70098 34.5 4.5 34.5C3.39543 34.5 2.5 35.3954 2.5 36.5C2.5 37.4349 3.14151 38.22 4.00836 38.4391Z" fill-rule="evenodd"  fill="#000000" >
</path>
</svg>
