<svg xmlns="http://www.w3.org/2000/svg" xmlns:xlink="http://www.w3.org/1999/xlink" width="48" height="48" viewBox="0 0 48 48" fill="none">
<path d="M45 24C45 35.598 35.598 45 24 45C12.402 45 3 35.598 3 24C3 12.402 12.402 3 24 3C35.598 3 45 12.402 45 24ZM41 24C41 14.6112 33.3888 7 24 7C14.6112 7 7 14.6112 7 24C7 33.3888 14.6112 41 24 41C33.3888 41 41 33.3888 41 24ZM21.015 16.358C21.0365 16.2419 21.0477 16.1222 21.0477 16C21.0477 14.8954 20.1309 14 18.9999 14C17.9695 14 17.1169 14.7432 16.9734 15.7106L15.9848 21.642C15.9633 21.7581 15.9521 21.8778 15.9521 22C15.9521 23.1046 16.8689 24 17.9999 24C19.0302 24 19.8828 23.2568 20.0264 22.2894L21.015 16.358ZM31.0477 16.5C31.0477 16.9933 30.8648 17.4449 30.5617 17.7936L29.4305 19.1134L32.1695 20.1094C32.9716 20.3804 33.5476 21.1245 33.5476 22C33.5476 23.1046 32.6308 24 31.4998 24C31.2317 24 30.9756 23.9497 30.741 23.8582L25.2854 21.8743C23.9603 21.3924 23.5221 19.7751 24.4297 18.7162L27.4198 15.2276C27.7954 14.7832 28.3638 14.5 28.9999 14.5C30.1308 14.5 31.0477 15.3954 31.0477 16.5ZM14.5 29.5C14.5 30.0523 14.7238 30.5522 15.0857 30.9142C17.4761 33.3047 20.4475 34.5 24 34.5C27.5525 34.5 30.5239 33.3047 32.9143 30.9142C33.2762 30.5522 33.5 30.0523 33.5 29.5C33.5 28.3954 32.6046 27.5 31.5 27.5C30.9477 27.5 30.4477 27.7239 30.0857 28.0858C28.4764 29.6953 26.4479 30.5 24 30.5C21.5521 30.5 19.5236 29.6953 17.9143 28.0858C17.5523 27.7239 17.0523 27.5 16.5 27.5C15.3954 27.5 14.5 28.3954 14.5 29.5Z" fill-rule="evenodd"  fill="#000000" >
</path>
</svg>
