<svg xmlns="http://www.w3.org/2000/svg" xmlns:xlink="http://www.w3.org/1999/xlink" width="48" height="48" viewBox="0 0 48 48" fill="none">
<path   fill-rule="evenodd"  fill="#FFC7BF"  d="M36.19 20.38C35.2565 17.6845 34.2284 20.4442 33.3265 22.8652C32.5956 24.8272 31.9476 26.5667 31.5 25C29.86 15.18 25.88 8.03996 24.49 5.76996C24.21 5.41996 23.65 5.49996 23.49 5.91996C17.11 17.06 10 18.32 10 30C10 35.0318 13.0654 39.9311 17.156 42.5224C17.8639 42.9708 18.6605 42.3102 18.4596 41.4966C18.2124 40.4957 18 39.4105 18 38.5C18 33.8056 20.6863 30 24 30C27.3137 30 30 33.8056 30 38.5C30 39.4089 29.7883 40.4919 29.5417 41.4913C29.3409 42.305 30.1215 42.9789 30.83 42.5313C34.9276 39.9423 38 35.0375 38 30C38 26.46 37.29 23.24 36.19 20.38Z">
</path>
<path d="M35.1617 23.6676C34.6577 25.0129 34.268 25.9011 33.9925 26.3324C33.3394 27.3549 32.5037 27.766 31.4853 27.5656C30.5442 27.3804 29.908 26.7083 29.5769 25.5494L29.5459 25.4408L29.5273 25.3294C28.5232 19.3169 26.6792 13.8441 23.9955 8.911C22.4692 11.2348 20.4887 13.7724 18.054 16.5239C15.8333 19.0336 14.3688 20.967 13.6606 22.3241C12.5535 24.4454 12 27.004 12 30C12 33.6937 13.3426 36.7524 16.0277 39.1763C16.0092 38.938 16 38.7126 16 38.5C16 35.7296 16.7078 33.3417 18.1234 31.3362C19.6934 29.1121 21.6523 28 24 28C26.3477 28 28.3066 29.1121 29.8766 31.3362C31.2922 33.3417 32 35.7296 32 38.5C32 38.7129 31.9907 38.9388 31.9722 39.1775C34.6574 36.7548 36 33.6957 36 30C36 27.8587 35.7206 25.7479 35.1617 23.6676ZM38.068 19.6915C39.356 23.0505 40 26.4867 40 30C40 36.0688 37.2994 40.8095 31.8983 44.2221C30.7293 44.9606 29.6195 44.8947 28.569 44.0244C27.6212 43.2393 27.2982 42.2352 27.5999 41.0122C27.8666 39.9313 28 39.0939 28 38.5C28 36.5759 27.5362 34.9569 26.6087 33.6429C25.8356 32.5476 24.966 32 24 32C23.034 32 22.1644 32.5476 21.3913 33.6429C20.4638 34.9569 20 36.5759 20 38.5C20 39.0947 20.1337 39.9337 20.4012 41.017C20.7065 42.2531 20.3731 43.2615 19.4008 44.0422C18.3474 44.8881 17.2424 44.9446 16.0857 44.2119C10.6952 40.7972 8 36.0599 8 30C8 26.35 8.70481 23.1745 10.1144 20.4734C10.9735 18.8272 12.6215 16.6271 15.0584 13.8732C17.9899 10.5603 20.2022 7.61225 21.6952 5.02899C22.0689 4.19875 22.7216 3.71494 23.6533 3.57758C24.6337 3.43303 25.4332 3.74735 26.0517 4.52055L26.1301 4.61852L26.1956 4.72552C28.9909 9.29036 31.0745 14.2976 32.4466 19.7472C32.7052 19.1985 32.9364 18.7868 33.1402 18.5121C33.9817 17.3781 34.9755 17.0067 36.1216 17.3978C36.9848 17.6924 37.6336 18.457 38.068 19.6915Z" fill-rule="evenodd"  fill="#FF1A1A" >
</path>
</svg>
