<svg xmlns="http://www.w3.org/2000/svg" xmlns:xlink="http://www.w3.org/1999/xlink" width="48" height="48" viewBox="0 0 48 48" fill="none">
<path d="M17.3289 38.7289C16.3043 38.5518 15.3024 38.2899 14.3233 37.9432C10.6842 36.6545 7.73313 34.4364 5.47016 31.2889C3.15672 28.0712 2 24.4749 2 20.5C2 10.2827 10.2827 2 20.5 2C26.4647 2 31.3002 4.33933 35.0065 9.01799C35.2831 9.36106 35.4487 9.79739 35.4487 10.2724C35.4487 11.377 34.5532 12.2724 33.4487 12.2724C32.8062 12.2724 32.2346 11.9695 31.8687 11.4987C28.9632 7.83291 25.1736 6 20.5 6C12.4919 6 6 12.4919 6 20.5C6 23.6157 6.90596 26.4337 8.71789 28.9539C10.4932 31.4232 12.8068 33.1628 15.6585 34.1726C16.4246 34.4439 17.2086 34.6488 18.0105 34.7874C18.9702 34.9345 19.7052 35.7635 19.7052 36.7643C19.7052 37.8688 18.8097 38.7643 17.7052 38.7643C17.5765 38.7643 17.4507 38.7521 17.3289 38.7289Z" fill-rule="evenodd"  fill="#2CB197" >
</path>
<path d="M18.5007 10.9483L18.5007 10.9482C18.5008 9.84369 19.3962 8.94833 20.5007 8.94833C21.6053 8.94833 22.5007 9.84376 22.5007 10.9483L22.5007 10.9486L22.5002 19.2188L25.2143 17.8617C25.4922 17.7154 25.8088 17.6325 26.1447 17.6325C27.2493 17.6325 28.1447 18.528 28.1447 19.6325C28.1447 20.4309 27.6769 21.12 27.0004 21.4407L21.9028 23.9896C21.5719 24.1551 21.2214 24.2378 20.8513 24.2378C19.5527 24.2378 18.5 23.185 18.5001 21.8864L18.5007 10.9483Z" fill-rule="evenodd"  fill="#2CB197" >
</path>
<path d="M38 22C38 22.5523 37.5523 23 37 23C36.4477 23 36 22.5523 36 22C36 21.4477 36.4477 21 37 21C37.5523 21 38 21.4477 38 22ZM32 22C32 24.7614 34.2386 27 37 27C39.7614 27 42 24.7614 42 22C42 19.2386 39.7614 17 37 17C34.2386 17 32 19.2386 32 22Z" fill-rule="evenodd"  fill="#0D9E86" >
</path>
<path d="M39.0024 29C39.1845 29.0002 39.3609 29.0248 39.5286 29.0706L40.4828 29.3091L43.1899 26.9887C43.5403 26.6848 43.9973 26.5006 44.4974 26.5L44.4998 26.5L44.5 26.5C45.6045 26.5 46.5 27.3954 46.5 28.5C46.5 29.0523 46.2761 29.5523 45.9142 29.9142C45.9027 29.9257 45.8911 29.937 45.8793 29.9483C45.8509 29.9753 45.8217 30.0016 45.7917 30.027L42.7918 32.5983C41.9421 33.3267 40.9743 33.5551 39.8885 33.2837L38.5555 32.9504C37.6656 32.7485 37.0011 31.9531 37 31.0024L37 31.0002L37 30.9998L37 30.9976C37.0013 29.8949 37.8949 29.0013 38.9976 29L38.9998 29L39.0002 29L39.0024 29Z" fill-rule="evenodd"  fill="#2CB197" >
</path>
<path d="M23.7641 44.0072L26.028 41.2905C26.3225 40.9422 26.5 40.4918 26.5 40C26.5 38.8954 25.6046 38 24.5 38C23.877 38 23.3206 38.2848 22.9538 38.7314L20.8278 41.2825L18.4113 42.088C17.5942 42.3393 17.0003 43.0999 17 43.9993L17 43.9999L17 44L17 44.0007C17.0004 45.1049 17.8956 46 19 46C19.2375 46 19.4654 45.9586 19.6767 45.8826L22.2951 45.0098C22.8798 44.8149 23.3695 44.4807 23.7641 44.0072Z" fill-rule="evenodd"  fill="#2CB197" >
</path>
<path d="M24.7273 33.8169C24.3636 34.3158 23.7746 34.64 23.11 34.64C22.0054 34.64 21.11 33.7446 21.11 32.64C21.11 32.1842 21.2624 31.764 21.5192 31.4277L24.7266 27.1278C25.6105 25.9428 26.7654 25.5458 28.1911 25.9368L33.3919 27.3628C35.0932 27.8294 35.8593 29.8077 34.9159 31.2983L32.959 34.39L34.6991 34.39C37.4716 34.39 38.971 37.6386 37.1723 39.7485L31.4785 46.4273C31.1116 46.8631 30.562 47.14 29.9478 47.14C28.8433 47.14 27.9478 46.2446 27.9478 45.14C27.9478 44.6407 28.1308 44.1842 28.4333 43.8338L33.0742 38.39L30.4615 38.39C28.393 38.39 27.1371 36.1089 28.2434 34.3611L30.5422 30.7291L27.6269 29.9297L24.7273 33.8169Z" fill-rule="evenodd"  fill="#0D9E86" >
</path>
</svg>
