<svg xmlns="http://www.w3.org/2000/svg" xmlns:xlink="http://www.w3.org/1999/xlink" width="48" height="48" viewBox="0 0 48 48" fill="none">
<path d="M14.3233 37.9432C15.3024 38.2899 16.3043 38.5518 17.3289 38.7289C17.4507 38.7521 17.5765 38.7643 17.7052 38.7643C18.8097 38.7643 19.7052 37.8688 19.7052 36.7643C19.7052 35.7635 18.9702 34.9345 18.0105 34.7874C17.2086 34.6488 16.4246 34.4439 15.6585 34.1726C12.8068 33.1628 10.4932 31.4232 8.71789 28.9539C6.90596 26.4337 6 23.6157 6 20.5C6 12.4919 12.4919 6 20.5 6C25.1736 6 28.9632 7.83291 31.8687 11.4987C32.2346 11.9695 32.8062 12.2724 33.4487 12.2724C34.5532 12.2724 35.4487 11.377 35.4487 10.2724C35.4487 9.79739 35.2831 9.36106 35.0065 9.01799C31.3002 4.33933 26.4647 2 20.5 2C10.2827 2 2 10.2827 2 20.5C2 24.4749 3.15672 28.0712 5.47016 31.2889C7.73313 34.4364 10.6842 36.6545 14.3233 37.9432ZM18.5008 10.9483L18.5008 10.9484L18.5001 21.8865C18.5 23.1851 19.5527 24.2379 20.8513 24.2379C21.2214 24.2379 21.572 24.1552 21.9029 23.9897L27.0005 21.4408C27.677 21.1201 28.1448 20.431 28.1448 19.6326C28.1448 18.528 27.2493 17.6326 26.1448 17.6326C25.8089 17.6326 25.4923 17.7154 25.2143 17.8618L22.5003 19.2188L22.5008 10.9487L22.5008 10.9484C22.5008 9.84383 21.6053 8.9484 20.5008 8.9484C19.3962 8.9484 18.5008 9.84376 18.5008 10.9483ZM37 27C34.2386 27 32 24.7614 32 22C32 19.2386 34.2386 17 37 17C39.7614 17 42 19.2386 42 22C42 24.7614 39.7614 27 37 27ZM37 23C37.5523 23 38 22.5523 38 22C38 21.4477 37.5523 21 37 21C36.4477 21 36 21.4477 36 22C36 22.5523 36.4477 23 37 23ZM24.7273 33.8169C24.3636 34.3158 23.7747 34.64 23.11 34.64C22.0054 34.64 21.11 33.7446 21.11 32.64C21.11 32.1842 21.2625 31.7641 21.5192 31.4277L24.7266 27.1278C25.6105 25.9428 26.7654 25.5458 28.1912 25.9368L33.3919 27.3629C35.0932 27.8294 35.8593 29.8077 34.9159 31.2983L32.959 34.39L34.6991 34.39C37.4716 34.39 38.971 37.6386 37.1723 39.7485L31.4785 46.4273C31.1116 46.8631 30.5621 47.14 29.9478 47.14C28.8433 47.14 27.9478 46.2446 27.9478 45.14C27.9478 44.6407 28.1308 44.1842 28.4333 43.8338L33.0742 38.39L30.4615 38.39C28.393 38.39 27.1371 36.1089 28.2434 34.3611L30.5422 30.7291L27.6269 29.9297L24.7273 33.8169ZM39.5286 29.0706C39.361 29.0248 39.1845 29.0002 39.0024 29L39.0002 29L38.9998 29L38.9976 29C37.8949 29.0013 37.0013 29.8949 37 30.9976L37 31.0024C37.0011 31.9531 37.6656 32.7485 38.5555 32.9504L39.8885 33.2837C40.9743 33.5551 41.9421 33.3267 42.7918 32.5983L45.7917 30.027C45.8217 30.0016 45.8509 29.9753 45.8793 29.9483C45.8911 29.9371 45.9027 29.9257 45.9142 29.9142C46.2761 29.5523 46.5 29.0523 46.5 28.5C46.5 27.3954 45.6046 26.5 44.5 26.5L44.4974 26.5C43.9973 26.5006 43.5403 26.6848 43.1899 26.9887L40.4828 29.3091L39.5286 29.0706ZM23.7641 44.0072L26.028 41.2905C26.3225 40.9422 26.5 40.4918 26.5 40C26.5 38.8954 25.6046 38 24.5 38C23.877 38 23.3206 38.2848 22.9538 38.7314L20.8278 41.2825L18.4113 42.088C17.5942 42.3393 17.0003 43.0999 17 43.9993L17 44.0006C17.0004 45.1049 17.8956 46 19 46C19.2375 46 19.4654 45.9586 19.6767 45.8826L22.2951 45.0098C22.8799 44.8149 23.3695 44.4807 23.7641 44.0072Z" fill-rule="evenodd"  fill="#000000" >
</path>
</svg>
