<svg xmlns="http://www.w3.org/2000/svg" xmlns:xlink="http://www.w3.org/1999/xlink" width="48" height="48" viewBox="0 0 48 48" fill="none">
<path d="M23 11C23 14.866 26.134 18 30 18C33.866 18 37 14.866 37 11C37 7.13401 33.866 4 30 4C26.134 4 23 7.13401 23 11ZM7.54659 14.814C8.04962 15.5647 8.63966 16.1446 9.31673 16.5536L8.80057 20.1667C8.55543 20.0595 8.28466 20 8 20C6.89543 20 6 20.8955 6 22C6 22.8357 6.51252 23.5517 7.24038 23.8507L14.3777 26.9733C15.4719 27.452 16.5619 27.4426 17.6476 26.945L22.7152 24.6223L20.9557 27.4081C19.9494 29.0014 20.6441 31.1171 22.399 31.8038L30.089 34.8129L23.5095 42.1664C23.1927 42.5203 23 42.9876 23 43.5C23 44.6046 23.8954 45.5 25 45.5C25.5922 45.5 26.1243 45.2426 26.4905 44.8336L26.4969 44.8264L33.0699 37.4801C34.9301 35.4011 34.1444 32.1045 31.5466 31.0879L24.9844 28.5202L27.8941 23.9132C29.4876 21.3901 26.8205 18.3406 24.1076 19.584L15.981 23.3087L12.6034 21.831L13.2739 17.1379C14.1947 16.9089 15.0416 16.4127 15.8147 15.6492C16.962 14.5161 17.6219 13.0969 17.7942 11.3913C17.9665 9.68577 17.6038 8.1632 16.7062 6.82359C15.7265 5.36134 14.4166 4.54739 12.7766 4.38173C11.1367 4.21607 9.6905 4.75162 8.43811 5.98839C7.29076 7.12143 6.63095 8.54072 6.45866 10.2463C6.28637 11.9518 6.64902 13.4744 7.54659 14.814ZM33 11C33 12.6568 31.6568 14 30 14C28.3432 14 27 12.6568 27 11C27 9.34315 28.3432 8 30 8C31.6568 8 33 9.34315 33 11ZM13.8146 10.9893C13.7021 12.1024 13.3681 12.8111 12.8126 13.1155C12.5505 13.2591 12.239 13.3127 11.8782 13.2762C11.5173 13.2398 11.2229 13.125 10.9948 12.9318C10.5113 12.5225 10.3258 11.7613 10.4383 10.6483C10.5507 9.5352 10.8847 8.82648 11.4402 8.52211C11.7023 8.37848 12.0138 8.32488 12.3747 8.36133C13.5001 8.47502 13.98 9.35101 13.8146 10.9893ZM43 24.5C43 25.4518 42.3351 26.2483 41.4445 26.4504L36.2888 27.7394C35.2172 28.0073 34.2078 27.8571 33.2606 27.2888L31.5024 26.2339C30.9033 25.8884 30.5 25.2413 30.5 24.5C30.5 23.3954 31.3954 22.5 32.5 22.5C32.8881 22.5 33.2505 22.6106 33.5572 22.8019L35.3186 23.8588L40.4714 22.5706C40.6398 22.5246 40.817 22.5 41 22.5C42.1046 22.5 43 23.3954 43 24.5ZM19.7812 36.0359C20.2205 35.669 20.5 35.1171 20.5 34.5C20.5 33.3954 19.6046 32.5 18.5 32.5C18.0032 32.5 17.5487 32.6812 17.1989 32.981L11.6262 37.6964L7.78489 36.1599C7.54391 36.057 7.27861 36 7 36C5.89543 36 5 36.8954 5 38C5 38.8585 5.54089 39.5906 6.30046 39.8742L10.1406 41.4103C11.6294 42.0058 12.9859 41.7857 14.2099 40.75L19.7812 36.0359Z" fill-rule="evenodd"  fill="#000000" >
</path>
</svg>
