<svg xmlns="http://www.w3.org/2000/svg" xmlns:xlink="http://www.w3.org/1999/xlink" width="48" height="48" viewBox="0 0 48 48" fill="none">
<path d="M27.7738 6.85056C25.8829 4.53388 22.0971 4.5585 20.2058 6.87489C15.1932 13.0142 9 20.4528 9 28.75C9 30.9363 9.39243 32.9871 10.18 34.9C10.9307 36.7234 12.0005 38.3248 13.38 39.7C14.7471 41.063 16.3302 42.1192 18.13 42.86C19.9812 43.6219 21.9362 44 24 44C26.0692 44 28.0298 43.6253 29.88 42.87C31.6808 42.1348 33.2661 41.0849 34.63 39.73C36.0083 38.3607 37.0707 36.7634 37.82 34.94C38.6082 33.0217 39 30.9585 39 28.75C39 20.448 32.7892 12.9953 27.7738 6.85056Z"   fill="#FFC7BF" >
</path>
<path d="M39.6699 35.7001C40.5566 33.5422 41 31.2255 41 28.75C41 24.7924 39.7036 20.6022 37.1109 16.1795C35.647 13.6824 33.1423 10.2629 29.5967 5.92086C29.4768 5.77398 29.3856 5.66233 29.3232 5.5859C27.9765 3.93597 26.1959 3.11578 23.9813 3.12533C21.7762 3.13483 20.0013 3.96305 18.6566 5.60999C18.5988 5.68081 18.5132 5.78562 18.3998 5.92444C14.8547 10.2646 12.3506 13.6829 10.8872 16.1793C8.29574 20.6002 7 24.7905 7 28.75C7 31.203 7.44354 33.5068 8.33062 35.6614C9.18204 37.7294 10.3945 39.5477 11.9679 41.1164C13.5284 42.6721 15.3287 43.8698 17.3688 44.7095C19.4593 45.5698 21.6697 46 24 46C26.3365 46 28.5484 45.5739 30.6359 44.7216C32.6812 43.8867 34.4824 42.6957 36.0396 41.1488C37.6069 39.5917 38.817 37.7754 39.6699 35.7001ZM33.6602 18.2025C35.8867 22.0006 37 25.5164 37 28.75C37 30.6989 36.6567 32.5089 35.9701 34.1799C35.3221 35.7567 34.4055 37.1338 33.2204 38.3112C32.0414 39.4824 30.676 40.3848 29.1241 41.0184C27.5211 41.6728 25.8131 42 24 42C22.1969 42 20.494 41.6702 18.8912 41.0105C17.3426 40.3731 15.9762 39.4641 14.7921 38.2836C13.5978 37.093 12.6769 35.7113 12.0294 34.1386C11.3431 32.4717 11 30.6755 11 28.75C11 25.5144 12.1127 21.9984 14.338 18.2021C15.6969 15.884 18.0834 12.6349 21.4977 8.45482C21.6119 8.31502 21.6977 8.21 21.755 8.13976C22.3039 7.46752 23.0517 7.12937 23.9986 7.12529C24.9405 7.12123 25.6825 7.4512 26.2244 8.1152C26.2845 8.18885 26.3759 8.30073 26.4984 8.45083C29.9135 12.6329 32.3007 15.8835 33.6602 18.2025Z" fill-rule="evenodd"  fill="#FF4943" >
</path>
<path d="M24 31C24 33.2091 22.2091 35 20 35C17.7909 35 16 33.2091 16 31C16 28.7909 17.7909 27 20 27C22.2091 27 24 28.7909 24 31Z"   fill="#FF1A1A" >
</path>
<path d="M20 37C23.3137 37 26 34.3137 26 31C26 27.6863 23.3137 25 20 25C16.6863 25 14 27.6863 14 31C14 34.3137 16.6863 37 20 37ZM20 29C21.1046 29 22 29.8954 22 31C22 32.1046 21.1046 33 20 33C18.8954 33 18 32.1046 18 31C18 29.8954 18.8954 29 20 29Z" fill-rule="evenodd"  fill="#FF1A1A" >
</path>
<path d="M32 27C32 27.5523 31.5523 28 31 28C30.4477 28 30 27.5523 30 27C30 26.4477 30.4477 26 31 26C31.5523 26 32 26.4477 32 27Z"   fill="#FF4943" >
</path>
<path d="M31 30C32.6568 30 34 28.6568 34 27C34 25.3431 32.6568 24 31 24C29.3431 24 28 25.3431 28 27C28 28.6568 29.3431 30 31 30ZM31 28C30.4477 28 30 27.5523 30 27C30 26.4477 30.4477 26 31 26C31.5523 26 32 26.4477 32 27C32 27.5523 31.5523 28 31 28Z" fill-rule="evenodd"  fill="#FF4943" >
</path>
<path d="M27 21C27 22.1046 26.1046 23 25 23C23.8954 23 23 22.1046 23 21C23 19.8954 23.8954 19 25 19C26.1046 19 27 19.8954 27 21Z"   fill="#FF766C" >
</path>
</svg>
