<svg xmlns="http://www.w3.org/2000/svg" xmlns:xlink="http://www.w3.org/1999/xlink" width="48" height="48" viewBox="0 0 48 48" fill="none">
<path d="M15.6902 29.1131L17.1732 30.9257C17.7309 31.6073 18.4494 31.9725 19.3287 32.0214L25.4322 32.3605L15.6902 29.1131Z" fill-rule="evenodd"  fill="#2CB197" >
</path>
<path d="M31 16C31 17.6568 29.6568 19 28 19C26.3431 19 25 17.6568 25 16C25 14.3431 26.3431 13 28 13C29.6568 13 31 14.3431 31 16ZM21 16C21 19.866 24.134 23 28 23C31.866 23 35 19.866 35 16C35 12.134 31.866 9 28 9C24.134 9 21 12.134 21 16Z" fill-rule="evenodd"  fill="#0D9E86" >
</path>
<path d="M15.1767 22.6174C14.9654 22.5414 14.7375 22.5 14.5 22.5C13.3954 22.5 12.5 23.3954 12.5 24.5C12.5 25.3997 13.0941 26.1606 13.9113 26.4119L27.2618 30.8621C27.4733 30.9326 27.69 30.979 27.9119 31.0012L37.7742 31.9874C37.8483 31.9957 37.9237 32 38 32C39.1046 32 40 31.1046 40 30C40 28.9551 39.1987 28.0973 38.177 28.0077L28.4209 27.0321L15.1767 22.6174Z" fill-rule="evenodd"  fill="#2CB197" >
</path>
<path d="M19.3557 23.8082C20.0322 23.4875 20.5 22.7984 20.5 22C20.5 20.8954 19.6046 20 18.5 20C18.1641 20 17.8475 20.0828 17.5696 20.2291L9.83734 24.0953C9.3738 24.327 8.99571 24.6568 8.70306 25.0845L4.49054 31.2413C2.67414 33.896 4.57512 37.5 7.79176 37.5L43 37.5C44.1046 37.5 45 36.6046 45 35.5C45 34.3954 44.1046 33.5 43 33.5L7.79176 33.5L11.858 27.5571L19.3557 23.8082Z" fill-rule="evenodd"  fill="#0D9E86" >
</path>
</svg>
