<svg xmlns="http://www.w3.org/2000/svg" xmlns:xlink="http://www.w3.org/1999/xlink" width="48" height="48" viewBox="0 0 48 48" fill="none">
<path d="M34 18C30.134 18 27 14.866 27 11C27 7.13401 30.134 4 34 4C37.866 4 41 7.13401 41 11C41 14.866 37.866 18 34 18ZM34 14C35.6568 14 37 12.6568 37 11C37 9.34315 35.6568 8 34 8C32.3432 8 31 9.34315 31 11C31 12.6568 32.3432 14 34 14ZM39 29L34.7883 29C33.7372 29 32.8275 28.6414 32.0591 27.9242L25.5507 21.8498L19.3958 20.6188L13.2391 24.5367L23.8066 26.7124C25.9355 27.1507 27 28.4566 27 30.6302L27 40.5C27 41.6046 26.1046 42.5 25 42.5C23.8954 42.5 23 41.6046 23 40.5L23 30.6302L10.0146 27.9567C7.3746 27.4132 6.73495 23.9344 9.00893 22.4874L17.5873 17.0284C18.2652 16.597 18.9982 16.4601 19.7862 16.6177L26.3352 17.9274C27.078 18.076 27.7262 18.4087 28.28 18.9255L34.7883 25L39 25C40.1046 25 41 25.8954 41 27C41 28.1046 40.1046 29 39 29ZM18 38C18 41.866 14.866 45 11 45C7.13401 45 4 41.866 4 38C4 34.134 7.13401 31 11 31C14.866 31 18 34.134 18 38ZM44 38C44 41.866 40.866 45 37 45C33.134 45 30 41.866 30 38C30 34.134 33.134 31 37 31C40.866 31 44 34.134 44 38ZM14 38C14 36.3432 12.6568 35 11 35C9.34315 35 8 36.3432 8 38C8 39.6568 9.34315 41 11 41C12.6568 41 14 39.6568 14 38ZM40 38C40 36.3432 38.6568 35 37 35C35.3432 35 34 36.3432 34 38C34 39.6568 35.3432 41 37 41C38.6568 41 40 39.6568 40 38Z" fill-rule="evenodd"  fill="#000000" >
</path>
</svg>
