<svg xmlns="http://www.w3.org/2000/svg" xmlns:xlink="http://www.w3.org/1999/xlink" width="48" height="48" viewBox="0 0 48 48" fill="none">
<path d="M24 5C13.51 5 5 13.51 5 24C5 34.49 13.51 43 24 43C34.49 43 43 34.49 43 24C43 13.51 34.49 5 24 5Z"   fill="#FEEDBD" >
</path>
<path d="M24 45C35.598 45 45 35.598 45 24C45 12.402 35.598 3 24 3C12.402 3 3 12.402 3 24C3 35.598 12.402 45 24 45ZM24 7C33.3888 7 41 14.6112 41 24C41 33.3888 33.3888 41 24 41C14.6112 41 7 33.3888 7 24C7 14.6112 14.6112 7 24 7Z" fill-rule="evenodd"  fill="#FA9E14" >
</path>
<path d="M15.9521 22L15.9521 16C15.9521 14.8954 16.869 14 18 14C19.131 14 20.0478 14.8954 20.0478 16L20.0478 22C20.0478 23.1046 19.131 24 18 24C16.869 24 15.9521 23.1046 15.9521 22Z" fill-rule="evenodd"  fill="#FA9E14" >
</path>
<path d="M27.9521 22L27.9521 16C27.9521 14.8954 28.869 14 30 14C31.131 14 32.0478 14.8954 32.0478 16L32.0478 22C32.0478 23.1046 31.131 24 30 24C28.869 24 27.9521 23.1046 27.9521 22Z" fill-rule="evenodd"  fill="#FA9E14" >
</path>
<path d="M19.7955 29.9897L26.4487 30.7574C27.3423 30.8605 27.7218 31.9498 27.0858 32.5858C26.7239 32.9477 26.5 33.4477 26.5 34C26.5 35.1046 27.3954 36 28.5 36C29.0523 36 29.5523 35.7761 29.9142 35.4142L29.9149 35.4135C32.9161 32.4113 31.1246 27.2703 26.9072 26.7837L20.2589 26.0166C20.1741 26.0056 20.0877 26 20 26C18.8954 26 18 26.8954 18 28C18 29.0355 18.787 29.8872 19.7955 29.9897Z" fill-rule="evenodd"  fill="#FA9E14" >
</path>
</svg>
