<svg xmlns="http://www.w3.org/2000/svg" xmlns:xlink="http://www.w3.org/1999/xlink" width="48" height="48" viewBox="0 0 48 48" fill="none">
<path d="M2 20.5C2 30.7173 10.2827 39 20.5 39C21.6046 39 22.5 38.1046 22.5 37C22.5 35.8954 21.6046 35 20.5 35C12.4919 35 6 28.5081 6 20.5C6 12.4919 12.4919 6 20.5 6C23.8621 6 26.8582 7.04037 29.4883 9.1211C32.0682 11.1621 33.7581 13.7654 34.558 16.931C34.761 17.8204 35.5569 18.4841 36.5079 18.4841C37.6124 18.4841 38.5079 17.5887 38.5079 16.4841C38.5079 16.3002 38.483 16.1222 38.4366 15.9531C37.4156 11.9099 35.2601 8.58693 31.9701 5.9841C28.6128 3.32803 24.7895 2 20.5 2C10.2827 2 2 10.2827 2 20.5Z" fill-rule="evenodd"  fill="#2CB197" >
</path>
<path d="M32 23L39 23C41.2091 23 43 24.7909 43 27L43 39C43 41.2091 41.2091 43 39 43L32 43C29.7909 43 28 41.2091 28 39L28 27C28 24.7909 29.7909 23 32 23Z"   fill="#AFECDA" >
</path>
<path d="M39 21L32 21C28.6863 21 26 23.6863 26 27L26 39C26 42.3137 28.6863 45 32 45L39 45C42.3137 45 45 42.3137 45 39L45 27C45 23.6863 42.3137 21 39 21ZM30 27C30 25.8954 30.8954 25 32 25L39 25C40.1046 25 41 25.8954 41 27L41 39C41 40.1046 40.1046 41 39 41L32 41C30.8954 41 30 40.1046 30 39L30 27Z" fill-rule="evenodd"  fill="#0D9E86" >
</path>
<path d="M33.9998 35L34.0002 35L36.9998 35L37 35C38.1044 35 38.9998 35.8953 39 36.9998C39.0001 38.1044 38.1047 38.9999 37.0001 39L36.9997 39L34.0001 39L34 39C32.8955 39 32.0001 38.1047 32 37.0002C31.9998 35.8956 32.8952 35.0001 33.9998 35Z" fill-rule="evenodd"  fill="#2CB197" >
</path>
<path d="M18.5005 13L18.5005 12.9999C18.5005 11.8954 19.3959 11 20.5005 11C21.6051 11 22.5005 11.8955 22.5005 13L22.5005 13.0003L22.5002 18.7533L23.4882 18.1975C23.785 18.0231 24.1308 17.9231 24.5 17.9231C25.6045 17.9231 26.4999 18.8185 26.4999 19.9231C26.4999 20.6854 26.0735 21.3481 25.4461 21.6856L21.8438 23.7118C21.5023 23.904 21.1356 24 20.7438 24C19.5045 24 18.4999 22.9953 18.5 21.7561L18.5005 13Z" fill-rule="evenodd"  fill="#2CB197" >
</path>
</svg>
