<svg xmlns="http://www.w3.org/2000/svg" xmlns:xlink="http://www.w3.org/1999/xlink" width="48" height="48" viewBox="0 0 48 48" fill="none">
<path d="M37 11C37 12.6568 35.6568 14 34 14C32.3432 14 31 12.6568 31 11C31 9.34315 32.3432 8 34 8C35.6568 8 37 9.34315 37 11ZM27 11C27 14.866 30.134 18 34 18C37.866 18 41 14.866 41 11C41 7.13401 37.866 4 34 4C30.134 4 27 7.13401 27 11Z" fill-rule="evenodd"  fill="#0D9E86" >
</path>
<path d="M34.7884 29L39.0001 29C40.1047 29 41.0001 28.1046 41.0001 27C41.0001 25.8954 40.1047 25 39.0001 25L34.7884 25L28.2801 18.9255C27.7263 18.4087 27.078 18.076 26.3353 17.9274L19.7863 16.6176C18.9983 16.46 18.2653 16.597 17.5873 17.0284L9.00895 22.4874C6.73497 23.9344 7.37462 27.4132 10.0146 27.9567L23.0001 30.6302L23.0001 40.5C23.0001 41.6046 23.8955 42.5 25.0001 42.5C26.1047 42.5 27.0001 41.6046 27.0001 40.5L27.0001 30.6302C27.0001 28.4566 25.9356 27.1507 23.8067 26.7123L13.2391 24.5367L19.3959 20.6188L25.5508 21.8497L32.0592 27.9242C32.8276 28.6414 33.7373 29 34.7884 29Z" fill-rule="evenodd"  fill="#0D9E86" >
</path>
<path d="M37 45C40.866 45 44 41.866 44 38C44 34.134 40.866 31 37 31C33.134 31 30 34.134 30 38C30 41.866 33.134 45 37 45ZM37 35C38.6568 35 40 36.3432 40 38C40 39.6568 38.6568 41 37 41C35.3432 41 34 39.6568 34 38C34 36.3432 35.3432 35 37 35Z" fill-rule="evenodd"  fill="#1764FF" >
</path>
<path d="M11 45C14.866 45 18 41.866 18 38C18 34.134 14.866 31 11 31C7.13401 31 4 34.134 4 38C4 41.866 7.13401 45 11 45ZM11 35C12.6568 35 14 36.3432 14 38C14 39.6568 12.6568 41 11 41C9.34315 41 8 39.6568 8 38C8 36.3432 9.34315 35 11 35Z" fill-rule="evenodd"  fill="#1764FF" >
</path>
</svg>
