<svg xmlns="http://www.w3.org/2000/svg" xmlns:xlink="http://www.w3.org/1999/xlink" width="48" height="48" viewBox="0 0 48 48" fill="none">
<path d="M26 16C22.134 16 19 12.866 19 9C19 5.13401 22.134 2 26 2C29.866 2 33 5.13401 33 9C33 12.866 29.866 16 26 16ZM26 12C27.6568 12 29 10.6568 29 9C29 7.34315 27.6568 6 26 6C24.3432 6 23 7.34315 23 9C23 10.6568 24.3432 12 26 12ZM13.5 32C14.3158 32 15.0175 31.5115 15.3287 30.8111L18.9742 23.0644L22.4156 21.6879L21.2333 28.486C20.9142 30.3208 22.3265 32 24.1889 32L27.2745 32L29.0172 43.7632C29.146 44.7434 29.9846 45.5 31 45.5C32.1046 45.5 33 44.6046 33 43.5C33 43.3883 32.9908 43.2788 32.9732 43.1721L31.2313 31.4138C30.8941 29.1379 29.5752 28 27.2745 28L25.3778 28L26.6634 20.608C27.0658 18.2943 24.774 16.4363 22.5936 17.3085L17.4886 19.3505C16.5134 19.7406 15.8022 20.4108 15.3549 21.3612L11.7083 29.1104C11.575 29.3783 11.5 29.6804 11.5 30C11.5 31.1046 12.3954 32 13.5 32ZM30.5 17.5C31.3181 17.5 32.0216 17.9913 32.3313 18.6949L35.16 24.7563L39.1034 24.0393C39.2316 24.0135 39.3642 24 39.5 24C40.6046 24 41.5 24.8954 41.5 26C41.5 26.9944 40.7742 27.8194 39.8235 27.974L35.8755 28.6918C33.8518 29.0597 32.4051 28.3118 31.5353 26.4479L28.7055 20.3841C28.5739 20.1175 28.5 19.8174 28.5 19.5C28.5 18.3954 29.3954 17.5 30.5 17.5ZM20.7981 34.3767C20.9274 34.112 21 33.8145 21 33.5C21 32.3954 20.1046 31.5 19 31.5C18.1788 31.5 17.4732 31.9949 17.1652 32.7028L14.4639 38.5556L8.58796 41.7196C7.94199 42.0512 7.5 42.724 7.5 43.5C7.5 44.6046 8.39543 45.5 9.5 45.5C9.85659 45.5 10.1914 45.4067 10.4813 45.2431L16.3603 42.0775C17.1442 41.6554 17.7226 41.0402 18.0957 40.2319L20.7981 34.3767Z" fill-rule="evenodd"  fill="#000000" >
</path>
</svg>
