<svg xmlns="http://www.w3.org/2000/svg" xmlns:xlink="http://www.w3.org/1999/xlink" width="48" height="48" viewBox="0 0 48 48" fill="none">
<path d="M15.075 4C18.5265 4 21.5016 5.28767 24.0002 7.86302C26.4993 5.28767 29.4743 4 32.925 4C36.0711 4 38.9685 5.09788 41.6171 7.29365C45.2057 10.2687 47 14.5469 47 20.1281C47.0001 29.7864 39.7778 38.2665 25.333 45.5684C24.4439 46.0178 23.5431 46.0117 22.6306 45.55C8.21005 38.2537 0.999853 29.7797 1 20.1282C1 14.5469 2.79431 10.2687 6.38292 7.29365C9.03152 5.09788 11.9289 4 15.075 4ZM15.075 8C12.8905 8 10.8441 8.79101 8.93583 10.373C6.31194 12.5483 5 15.8 5 20.1282C4.99988 28.0499 11.3332 35.26 24 41.7584C36.6668 35.2589 43.0001 28.0488 43 20.1282C43 15.8 41.6881 12.5483 39.0642 10.373C37.1559 8.79101 35.1095 8 32.925 8C30.2315 8 27.9272 9.21048 26.0123 11.6314C25.5074 12.2698 24.8424 12.5921 24.0175 12.5985C23.1788 12.605 22.5034 12.2841 21.9911 11.6356C20.0762 9.21188 17.7708 8 15.075 8ZM22 26L22 17C22 15.8954 22.8954 15 24 15C25.1046 15 26 15.8954 26 17L26 26C26 27.1046 25.1046 28 24 28C22.8954 28 22 27.1046 22 26ZM21.5 32.5C21.5 31.12 22.62 30 24 30C25.38 30 26.5 31.12 26.5 32.5C26.5 33.88 25.38 35 24 35C22.62 35 21.5 33.88 21.5 32.5Z" fill-rule="evenodd"  fill="#000000" >
</path>
</svg>
