<svg xmlns="http://www.w3.org/2000/svg" xmlns:xlink="http://www.w3.org/1999/xlink" width="48" height="48" viewBox="0 0 48 48" fill="none">
<path d="M35 9C35 10.6568 33.6568 12 32 12C30.3431 12 29 10.6568 29 9C29 7.34315 30.3431 6 32 6C33.6568 6 35 7.34315 35 9ZM25 9C25 12.866 28.134 16 32 16C35.866 16 39 12.866 39 9C39 5.13401 35.866 2 32 2C28.134 2 25 5.13401 25 9Z" fill-rule="evenodd"  fill="#0D9E86" >
</path>
<path d="M40.6486 16.0257L40.6438 16.03L35.5881 20.6645L35.5881 20.6645L33.2112 19.6798C32.9644 19.5708 32.6914 19.5103 32.4043 19.5103C31.2997 19.5103 30.4043 20.4057 30.4043 21.5103C30.4043 22.3601 30.9342 23.086 31.6816 23.3758L34.057 24.3599C35.627 25.0103 37.0383 24.7614 38.291 23.6131L43.3459 18.9794L43.3515 18.9743C43.7501 18.6087 44 18.0835 44 17.5C44 16.3954 43.1046 15.5 42 15.5C41.479 15.5 41.0045 15.6992 40.6486 16.0257Z" fill-rule="evenodd"  fill="#2CB197" >
</path>
<path d="M14.8718 31.6849L14.8684 31.6881L9.04773 37.1508L9.04776 37.1508L4.64409 38.0316C3.70932 38.1995 3 39.0169 3 40C3 41.1045 3.89543 42 5 42C5.14858 42 5.29338 41.9838 5.43272 41.953L9.83223 41.0731C10.5788 40.9238 11.2298 40.5886 11.785 40.0675L17.6052 34.6053L17.6091 34.6016C17.9977 34.2367 18.2405 33.7183 18.2405 33.1432C18.2405 32.0387 17.345 31.1432 16.2405 31.1432C15.711 31.1432 15.2296 31.349 14.8718 31.6849Z" fill-rule="evenodd"  fill="#2CB197" >
</path>
<path d="M11.614 25.1814C11.25 25.6777 10.6627 26 10 26C8.89543 26 8 25.1046 8 24C8 23.5425 8.15363 23.1208 8.41213 22.7838L13.5847 15.8871C14.6718 14.4377 16.0893 13.9513 17.8372 14.428L26.2173 16.7135C28.167 17.2452 29.0439 19.5135 27.9589 21.2184L23.6433 28L28.6516 28C32.069 28 33.9126 32.0085 31.6886 34.6032L22.5271 45.2916C22.1602 45.7249 21.6122 46 21 46C19.8954 46 19 45.1046 19 44C19 43.4989 19.1843 43.0408 19.4888 42.6898L28.6516 32L21.8217 32C19.4544 32 18.0198 29.3865 19.2907 27.3894L23.8558 20.2156L16.7847 18.2871L11.614 25.1814Z" fill-rule="evenodd"  fill="#0D9E86" >
</path>
</svg>
