<svg xmlns="http://www.w3.org/2000/svg" xmlns:xlink="http://www.w3.org/1999/xlink" width="48" height="48" viewBox="0 0 48 48" fill="none">
<path d="M45 24C45 35.598 35.598 45 24 45C12.402 45 3 35.598 3 24C3 12.402 12.402 3 24 3C35.598 3 45 12.402 45 24ZM41 24C41 14.6112 33.3888 7 24 7C14.6112 7 7 14.6112 7 24C7 33.3888 14.6112 41 24 41C33.3888 41 41 33.3888 41 24ZM15.9521 22L15.9521 16C15.9521 14.8954 16.8689 14 17.9999 14C19.1309 14 20.0477 14.8954 20.0477 16L20.0477 22C20.0477 23.1046 19.1309 24 17.9999 24C16.8689 24 15.9521 23.1046 15.9521 22ZM27.9521 22L27.9521 16C27.9521 14.8954 28.8689 14 29.9999 14C31.1309 14 32.0477 14.8954 32.0477 16L32.0477 22C32.0477 23.1046 31.1309 24 29.9999 24C28.8689 24 27.9521 23.1046 27.9521 22ZM26.4487 30.7574L19.7955 29.9897C18.787 29.8872 18 29.0355 18 28C18 26.8954 18.8954 26 20 26C20.0877 26 20.1741 26.0056 20.2589 26.0166L26.9072 26.7837C31.1246 27.2703 32.9161 32.4113 29.9149 35.4135L29.9142 35.4142C29.5523 35.7761 29.0523 36 28.5 36C27.3954 36 26.5 35.1046 26.5 34C26.5 33.4477 26.7239 32.9477 27.0858 32.5858C27.7218 31.9498 27.3423 30.8605 26.4487 30.7574Z" fill-rule="evenodd"  fill="#000000" >
</path>
</svg>
