<svg xmlns="http://www.w3.org/2000/svg" xmlns:xlink="http://www.w3.org/1999/xlink" width="48" height="48" viewBox="0 0 48 48" fill="none">
<path   fill-rule="evenodd"  fill="#FFC7BF"  d="M15.075 6C11.4 6 3 8.84619 3 20.1282C2.99984 30.6603 11.7675 37.8122 23.5335 43.7654C23.8144 43.9075 24.1498 43.9255 24.4307 43.7835C36.2147 37.8267 45.0002 30.671 45 20.1282C45 8.84619 36.6 6 32.925 6C28.409 6 25.4981 9.05757 24.4437 10.3907C24.2271 10.6644 23.7768 10.6697 23.5604 10.3958C22.5093 9.06539 19.5968 6 15.075 6Z">
</path>
<path d="M10.1716 23L4 23L4 27L10.1716 27C11.2761 27 12.219 26.6095 13 25.8284L19.838 18.9905L22.7168 31.945C23.1854 34.054 25.6626 34.9911 27.4098 33.7204L36.6504 27L44 27L44 23L36.6504 23C35.7832 23 34.999 23.255 34.2977 23.7651L26.2906 29.5884L23.3476 16.3444C22.834 14.0335 19.9716 13.2 18.2977 14.8739L10.1716 23Z" fill-rule="evenodd"  fill="#FF766C" >
</path>
<path d="M23 22C23.9692 22 24.7774 22.6894 24.9609 23.6046L26.2906 29.5884L34.2977 23.7651C34.999 23.255 35.7832 23 36.6504 23L44 23L44 27L36.6504 27L27.4098 33.7204C25.6626 34.9911 23.1854 34.054 22.7168 31.945L21.057 24.476C21.0197 24.3234 21 24.164 21 24C21 22.8954 21.8954 22 23 22Z" fill-rule="evenodd"  fill="#FF1A1A" >
</path>
<path d="M8.93583 10.373C10.8441 8.79101 12.8905 8 15.075 8C17.7708 8 20.0762 9.21188 21.9911 11.6356C22.5034 12.2841 23.1788 12.605 24.0175 12.5985C24.8424 12.5921 25.5074 12.2698 26.0123 11.6314C27.9272 9.21048 30.2315 8 32.925 8C35.1095 8 37.1559 8.79101 39.0642 10.373C41.6881 12.5483 43 15.8 43 20.1282C43.0001 28.0488 36.6668 35.2589 24 41.7584C11.3332 35.26 4.99988 28.0499 5 20.1282C5 15.8 6.31194 12.5483 8.93583 10.373ZM24.0002 7.86302C21.5016 5.28767 18.5265 4 15.075 4C11.9289 4 9.03152 5.09788 6.38292 7.29365C2.79431 10.2687 1 14.5469 1 20.1282C0.999853 29.7797 8.21005 38.2537 22.6306 45.55C23.5431 46.0117 24.4439 46.0178 25.333 45.5684C39.7778 38.2665 47.0001 29.7864 47 20.1281C47 14.5469 45.2057 10.2687 41.6171 7.29365C38.9685 5.09788 36.0711 4 32.925 4C29.4743 4 26.4993 5.28767 24.0002 7.86302Z" fill-rule="evenodd"  fill="#FF1A1A" >
</path>
</svg>
