<svg xmlns="http://www.w3.org/2000/svg" xmlns:xlink="http://www.w3.org/1999/xlink" width="48" height="48" viewBox="0 0 48 48" fill="none">
<path d="M23.6434 37.4564L24.9412 35.0463C25.2103 34.5465 25.3891 34.0163 25.4776 33.4556L25.6068 32.6377L28.0282 37.178C29.0102 39.0191 28.7257 40.6376 27.1747 42.0335L23.3436 45.4815C22.9886 45.8037 22.5172 46 22 46C20.8954 46 20 45.1046 20 44C20 43.4067 20.2584 42.8737 20.6687 42.5074L24.4988 39.0603L23.6434 37.4564Z" fill-rule="evenodd"  fill="#2CB197" >
</path>
<path d="M32.9606 10.6003C35.7323 13.8597 36.7528 18.2268 36.022 23.7016C36.0074 23.7989 35.9999 23.8986 35.9999 24C35.9999 25.1046 36.8953 26 37.9999 26C39.0239 26 39.8681 25.2305 39.9859 24.2382C40.8758 17.5839 39.5497 12.1742 36.0078 8.00908C32.8119 4.25082 28.7312 2.35198 23.7657 2.31257C18.7444 2.27272 14.7598 4.14717 11.812 7.93593C8.56123 12.1141 7.63509 17.5913 9.03359 24.3675C9.20611 25.2965 10.0209 26 10.9999 26C12.1045 26 12.9999 25.1046 12.9999 24C12.9999 23.8469 12.9827 23.6979 12.9501 23.5546C11.8017 17.9857 12.4746 13.5982 14.969 10.3922C17.108 7.64296 20.0297 6.28304 23.734 6.31244C27.4795 6.34217 30.5551 7.77146 32.9606 10.6003Z" fill-rule="evenodd"  fill="#1764FF" >
</path>
<path d="M27 16C27 17.6568 25.6568 19 24 19C22.3431 19 21 17.6568 21 16C21 14.3431 22.3431 13 24 13C25.6568 13 27 14.3431 27 16ZM17 16C17 19.866 20.134 23 24 23C27.866 23 31 19.866 31 16C31 12.134 27.866 9 24 9C20.134 9 17 12.134 17 16Z" fill-rule="evenodd"  fill="#0D9E86" >
</path>
<path d="M28.9793 23.654C28.6135 23.2522 28.0862 23 27.5 23C26.3954 23 25.5 23.8954 25.5 25C25.5 25.5233 25.701 25.9997 26.03 26.3561L30.6493 31.3954C31.8178 32.6701 33.2223 33.0341 34.8628 32.4872L38.0887 31.4119C38.9059 31.1606 39.5 30.3997 39.5 29.5C39.5 28.3954 38.6046 27.5 37.5 27.5C37.2625 27.5 37.0346 27.5414 36.8232 27.6174L33.5979 28.6925L28.9793 23.654Z" fill-rule="evenodd"  fill="#2CB197" >
</path>
<path d="M13.7899 28.5L9.5 28.5C8.39543 28.5 7.5 29.3954 7.5 30.5C7.5 31.6046 8.39543 32.5 9.5 32.5L13.7899 32.5C14.7367 32.5 15.5775 32.2015 16.3123 31.6045L19.9733 28.6299L19.5551 32.3935L16.8054 37.5L12 37.5C10.8954 37.5 10 38.3954 10 39.5C10 40.6046 10.8954 41.5 12 41.5L16.8054 41.5C18.3982 41.5 19.5722 40.7988 20.3273 39.3964L23.169 34.119C23.3529 33.7774 23.4663 33.4137 23.5092 33.028L24.2183 26.6463C24.5146 23.979 21.4277 22.2943 19.3448 23.9866L13.7899 28.5Z" fill-rule="evenodd"  fill="#0D9E86" >
</path>
</svg>
