<svg xmlns="http://www.w3.org/2000/svg" xmlns:xlink="http://www.w3.org/1999/xlink" width="48" height="48" viewBox="0 0 48 48" fill="none">
<path d="M30 10C30 11.6568 28.6568 13 27 13C25.3431 13 24 11.6568 24 10C24 8.34315 25.3431 7 27 7C28.6568 7 30 8.34315 30 10ZM20 10C20 13.866 23.134 17 27 17C30.866 17 34 13.866 34 10C34 6.13401 30.866 3 27 3C23.134 3 20 6.13401 20 10Z" fill-rule="evenodd"  fill="#0D9E86" >
</path>
<path d="M40.5 14C40.5 14.4203 40.3704 14.8102 40.1489 15.1321L36.6236 20.4201C36.0109 21.3392 35.163 21.907 34.0799 22.1236L29.9328 22.9531C29.7934 22.9838 29.6486 23 29.5 23C28.3954 23 27.5 22.1046 27.5 21C27.5 20.0169 28.2093 19.1995 29.1441 19.0316L33.2954 18.2013L33.2954 18.2013L36.8187 12.9164C37.1748 12.365 37.7948 12 38.5 12C39.6046 12 40.5 12.8954 40.5 14Z" fill-rule="evenodd"  fill="#2CB197" >
</path>
<path d="M18.5 35C18.5 35.4004 18.3823 35.7734 18.1796 36.0862L15.8766 39.7711C15.6358 40.1563 15.3381 40.4908 14.9833 40.7746L10.2619 44.5518C9.91767 44.832 9.47845 45 9 45C7.89543 45 7 44.1046 7 43C7 42.3615 7.2992 41.7929 7.76504 41.4267L12.4846 37.6511L12.4846 37.6511L14.7856 33.9694C15.1356 33.3885 15.7724 33 16.5 33C17.6046 33 18.5 33.8954 18.5 35Z" fill-rule="evenodd"  fill="#2CB197" >
</path>
<path d="M16.4585 14.408C16.4858 14.2762 16.5001 14.1398 16.5001 14C16.5001 12.8954 15.6047 12 14.5001 12C13.5092 12 12.6866 12.7206 12.5278 13.6664L11.5655 18.7986C11.0512 21.5415 13.4329 23.9548 16.1824 23.4766L20.7415 22.6837L18.0627 27.5542C16.9631 29.5536 18.4095 32 20.6914 32L24.7744 32L23.5145 43.7588C23.505 43.8378 23.5001 43.9184 23.5001 44C23.5001 45.1046 24.3955 46 25.5001 46C26.5407 46 27.3956 45.2053 27.4912 44.1897L28.7516 32.4261C29.0049 30.0619 27.1521 28 24.7744 28L22.3826 28L25.2495 22.7876C26.4619 20.5831 24.5855 17.9551 22.1068 18.3862L15.497 19.5357L16.4585 14.408Z" fill-rule="evenodd"  fill="#0D9E86" >
</path>
<path d="M38.5 5C37.12 5 36 6.12 36 7.5C36 8.88 37.12 10 38.5 10C39.88 10 41 8.88 41 7.5C41 6.12 39.88 5 38.5 5Z"   fill="#1764FF" >
</path>
</svg>
