<svg xmlns="http://www.w3.org/2000/svg" xmlns:xlink="http://www.w3.org/1999/xlink" width="48" height="48" viewBox="0 0 48 48" fill="none">
<path d="M16 5.5C16 4.12 17.12 3 18.5 3C19.88 3 21 4.12 21 5.5C21 6.88 19.88 8 18.5 8C17.12 8 16 6.88 16 5.5ZM23 11C23 14.866 26.134 18 30 18C33.866 18 37 14.866 37 11C37 7.13401 33.866 4 30 4C26.134 4 23 7.13401 23 11ZM33 11C33 12.6568 31.6568 14 30 14C28.3432 14 27 12.6568 27 11C27 9.34315 28.3432 8 30 8C31.6568 8 33 9.34315 33 11ZM14.3348 9.7028C14.0268 8.99494 13.3212 8.5 12.5 8.5C11.3954 8.5 10.5 9.39543 10.5 10.5C10.5 10.8145 10.5726 11.112 10.7019 11.3767L13.3726 17.1631C13.7879 18.0631 14.4468 18.7182 15.3492 19.1284L23.6317 22.8932L20.8938 27.4564C19.9385 29.0484 20.6441 31.1171 22.373 31.7936L30.089 34.8129L23.515 42.1603L23.5095 42.1664C23.1927 42.5203 23 42.9876 23 43.5C23 44.6046 23.8954 45.5 25 45.5C25.5922 45.5 26.1243 45.2426 26.4905 44.8336L26.4966 44.8268L33.0699 37.4801C34.9301 35.4011 34.1444 32.1045 31.5466 31.0879L24.9325 28.4998L27.6383 23.9901C28.5602 22.4536 27.9385 20.4569 26.3073 19.7155L17.0044 15.4869L14.3348 9.7028ZM31.5024 26.2338L35.9291 28.8898L37.6538 32.7706C37.9556 33.4926 38.6685 34 39.5 34C40.6046 34 41.5 33.1046 41.5 32C41.5 31.6953 41.4319 31.4065 41.31 31.148L39.5843 27.2653C39.242 26.4952 38.7096 25.8934 37.987 25.4598L33.5572 22.8019C33.2505 22.6106 32.8881 22.5 32.5 22.5C31.3954 22.5 30.5 23.3954 30.5 24.5C30.5 25.2413 30.9033 25.8884 31.5024 26.2338ZM20.5 34.5C20.5 35.1171 20.2205 35.669 19.7812 36.0359L14.2099 40.75C12.9859 41.7857 11.6294 42.0058 10.1406 41.4103L6.30046 39.8742C5.54089 39.5906 5 38.8585 5 38C5 36.8954 5.89543 36 7 36C7.27861 36 7.54391 36.057 7.78489 36.1599L11.6262 37.6964L17.1989 32.981C17.5487 32.6812 18.0032 32.5 18.5 32.5C19.6046 32.5 20.5 33.3954 20.5 34.5Z" fill-rule="evenodd"  fill="#000000" >
</path>
</svg>
