<svg xmlns="http://www.w3.org/2000/svg" xmlns:xlink="http://www.w3.org/1999/xlink" width="48" height="48" viewBox="0 0 48 48" fill="none">
<path d="M45 24C45 35.598 35.598 45 24 45C12.402 45 3 35.598 3 24C3 12.402 12.402 3 24 3C35.598 3 45 12.402 45 24ZM41 24C41 14.6112 33.3888 7 24 7C14.6112 7 7 14.6112 7 24C7 33.3888 14.6112 41 24 41C33.3888 41 41 33.3888 41 24ZM13.5476 17.4101L13.5481 17.4105L16.184 20L13.5477 22.5899C13.1796 22.9515 12.9521 23.4498 12.9521 24C12.9521 25.1046 13.869 26 14.9999 26C15.5676 26 16.0813 25.7744 16.4522 25.4101L19.5669 22.3501C20.3643 21.5668 20.763 20.7834 20.763 20C20.763 19.2167 20.3643 18.4333 19.5669 17.6499L16.4527 14.5904L16.4522 14.5899C16.0813 14.2256 15.5675 14 14.9999 14C13.8689 14 12.9521 14.8954 12.9521 16C12.9521 16.5502 13.1796 17.0485 13.5476 17.4101ZM34.4521 17.4103L31.816 20L34.452 22.5896L34.4523 22.5899C34.8204 22.9515 35.0479 23.4498 35.0479 24C35.0479 25.1046 34.1311 26 33.0001 26C32.4325 26 31.9188 25.7744 31.5479 25.4101L31.5469 25.4091L28.433 22.3501C27.6356 21.5668 27.2369 20.7834 27.2369 20C27.2369 19.2167 27.6356 18.4333 28.433 17.6499L31.5478 14.5899C31.9187 14.2256 32.4324 14 33 14C34.131 14 35.0478 14.8954 35.0478 16C35.0478 16.5502 34.8204 17.0485 34.4523 17.4101L34.4521 17.4103ZM14.5 30.5C14.5 31.6046 15.3954 32.5 16.5 32.5L31.5 32.5C32.6046 32.5 33.5 31.6046 33.5 30.5C33.5 29.3954 32.6046 28.5 31.5 28.5L16.5 28.5C15.3954 28.5 14.5 29.3954 14.5 30.5Z" fill-rule="evenodd"  fill="#000000" >
</path>
</svg>
