<svg xmlns="http://www.w3.org/2000/svg" xmlns:xlink="http://www.w3.org/1999/xlink" width="48" height="48" viewBox="0 0 48 48" fill="none">
<path d="M16 43.9999C18.2091 43.9999 20 42.209 20 39.9999L20 32.9999C20 30.7908 21.7909 28.9999 24 28.9999C26.2091 28.9999 28 30.7908 28 32.9999L28 39.9999C28 42.209 29.7909 43.9999 32 43.9999L36.5 43.9999C39.8137 43.9999 42.5 41.3136 42.5 37.9999L42.5 19.9099C42.5 17.4596 41.3726 15.1527 39.4514 13.6319L27.7184 4.37949C25.5422 2.65353 22.4578 2.65353 20.2772 4.38295L8.55158 13.6295C6.63018 15.1506 5.5 17.4631 5.5 19.9099L5.5 37.9999C5.5 41.3136 8.18629 43.9999 11.5 43.9999L16 43.9999ZM16 32.9999L16 39.9999L11.5 39.9999C10.3954 39.9999 9.5 39.1045 9.5 37.9999L9.5 19.9099C9.5 18.6854 10.0713 17.5281 11.0284 16.7704L22.7628 7.51695C23.4875 6.94219 24.5125 6.94219 25.2416 7.5204L36.9686 16.768C37.9314 17.5302 38.5 18.6819 38.5 19.9099L38.5 37.9999C38.5 39.1045 37.6046 39.9999 36.5 39.9999L32 39.9999L32 32.9999C32 28.5816 28.4183 24.9999 24 24.9999C19.5817 24.9999 16 28.5816 16 32.9999Z" fill-rule="evenodd"  fill="#000000" >
</path>
</svg>
