<svg xmlns="http://www.w3.org/2000/svg" xmlns:xlink="http://www.w3.org/1999/xlink" width="48" height="48" viewBox="0 0 48 48" fill="none">
<path d="M30 15C30 18.3137 27.3137 21 24 21C20.6863 21 18 18.3137 18 15C18 11.6863 20.6863 9 24 9C27.3137 9 30 11.6863 30 15Z"   fill="#BEDCFF" >
</path>
<path d="M40 3C40.7044 3 41.3237 3.36413 41.68 3.91442C42.4038 4.99935 43.0149 6.14277 43.5133 7.34468C44.5254 9.78543 45.0315 12.3372 45.0315 15C45.0315 17.6628 44.5254 20.2146 43.5133 22.6553C43.0149 23.8572 42.4038 25.0007 41.68 26.0856C41.3237 26.6359 40.7044 27 40 27C38.8954 27 38 26.1046 38 25C38 24.5789 38.1301 24.1883 38.3523 23.866C38.9313 22.9982 39.42 22.0839 39.8184 21.1232C40.6271 19.1729 41.0315 17.1318 41.0315 15C41.0315 12.8682 40.6271 10.8271 39.8184 8.87684C39.42 7.91605 38.9313 7.00176 38.3523 6.13396C38.1301 5.8117 38 5.42104 38 5C38 3.89543 38.8954 3 40 3Z" fill-rule="evenodd"  fill="#6BA6FF" >
</path>
<path d="M10.0315 5C10.0315 5.42105 9.90136 5.81171 9.67915 6.13397C9.10017 7.00177 8.61148 7.91606 8.21307 8.87684C7.40436 10.8271 7 12.8682 7 15C7 17.1318 7.40436 19.1729 8.21307 21.1232C8.61148 22.0839 9.10017 22.9982 9.67915 23.866C9.90135 24.1883 10.0315 24.5789 10.0315 25C10.0315 26.1046 9.13604 27 8.03147 27C7.32709 27 6.70776 26.6359 6.35145 26.0856C5.62764 25.0007 5.01654 23.8572 4.51815 22.6553C3.50605 20.2146 3 17.6628 3 15C3 12.3372 3.50605 9.78543 4.51815 7.34468C5.01654 6.14277 5.62764 4.99934 6.35145 3.91441C6.70776 3.36413 7.32709 3 8.03147 3C9.13604 3 10.0315 3.89543 10.0315 5Z" fill-rule="evenodd"  fill="#6BA6FF" >
</path>
<path d="M34 6C34.7253 6 35.3604 6.38608 35.7111 6.96393C36.2048 7.75076 36.6217 8.57929 36.9618 9.44952C37.6539 11.2204 38 13.0706 38 15C38 16.9294 37.6539 18.7796 36.9618 20.5505C36.6217 21.4207 36.2048 22.2492 35.7111 23.0361C35.3604 23.6139 34.7253 24 34 24C32.8954 24 32 23.1046 32 22C32 21.5975 32.1189 21.2228 32.3235 20.909C32.6835 20.3352 32.9877 19.7303 33.2363 19.0944C33.7454 17.7916 34 16.4268 34 15C34 13.5732 33.7454 12.2084 33.2363 10.9056C32.9877 10.2696 32.6835 9.66479 32.3235 9.09096C32.1189 8.77721 32 8.40249 32 8C32 6.89543 32.8954 6 34 6Z" fill-rule="evenodd"  fill="#4187FF" >
</path>
<path d="M16 8C16 8.40249 15.8811 8.77721 15.6765 9.09096C15.3165 9.66479 15.0123 10.2696 14.7638 10.9056C14.2546 12.2084 14 13.5732 14 15C14 16.4268 14.2546 17.7916 14.7638 19.0944C15.0123 19.7303 15.3165 20.3352 15.6765 20.909C15.8811 21.2228 16 21.5975 16 22C16 23.1046 15.1046 24 14 24C13.2747 24 12.6396 23.6139 12.2889 23.0361C11.7952 22.2492 11.3783 21.4207 11.0382 20.5505C10.3461 18.7796 10 16.9294 10 15C10 13.0706 10.3461 11.2204 11.0382 9.44952C11.3783 8.57929 11.7952 7.75076 12.2889 6.96393C12.6396 6.38608 13.2747 6 14 6C15.1046 6 16 6.89543 16 8Z" fill-rule="evenodd"  fill="#4187FF" >
</path>
<path d="M40.4998 38.5L39.1398 36.06C38.4398 34.79 37.0998 34 35.6498 34L12.3498 34C10.8998 34 9.55985 34.79 8.85985 36.06L7.49985 38.5C6.37985 40.52 7.83985 43 10.1498 43L37.8498 43C40.1598 43 41.6198 40.52 40.4998 38.5Z"   fill="#BEDCFF" >
</path>
<path d="M32.0002 15C32.0002 18.7277 29.4507 21.8599 26.0002 22.748L26.0002 32L35.6466 32C37.8256 32 39.8333 33.1814 40.8914 35.0861L41.4471 36.0862C43.6688 40.0853 40.777 45 36.202 45L11.7982 45C7.22327 45 4.33147 40.0853 6.55324 36.0861L8.30522 37.0595L6.55325 36.0861L7.10881 35.0861C8.16704 33.1814 10.1748 32 12.3537 32L22.0002 32L22.0002 22.748C18.5497 21.8599 16.0002 18.7277 16.0002 15C16.0002 10.5817 19.5819 7 24.0002 7C28.4185 7 32.0002 10.5817 32.0002 15ZM24.0002 36L12.3537 36C11.6274 36 10.9582 36.3938 10.6054 37.0287L10.0499 38.0287C9.30928 39.3618 10.2732 41 11.7982 41L36.202 41C37.7271 41 38.691 39.3618 37.9505 38.0287L37.3949 37.0287C37.0422 36.3938 36.3728 36 35.6466 36L24.0002 36ZM28.0002 15C28.0002 12.7909 26.2093 11 24.0002 11C21.791 11 20.0002 12.7909 20.0002 15C20.0002 17.2091 21.791 19 24.0002 19C26.2093 19 28.0002 17.2091 28.0002 15Z" fill-rule="evenodd"  fill="#1764FF" >
</path>
</svg>
