<svg xmlns="http://www.w3.org/2000/svg" xmlns:xlink="http://www.w3.org/1999/xlink" width="48" height="48" viewBox="0 0 48 48" fill="none">
<path d="M11.0296 6L37.0596 6C37.5883 6 38.0101 6.41288 37.9696 6.94C37.8379 8.65313 37.1692 12.5067 33.9096 16.76C29.5195 22.49 27.4796 23 27.4796 24C27.4796 25 30.1295 25.51 34.5196 31.24C37.8452 35.5794 38.1291 39.5115 38.0696 41.17C38.0523 41.6522 37.6521 42 37.1696 42L10.9796 42C10.4369 42 10.0003 41.5694 10.0596 41.03C10.2498 39.2998 11.042 35.4646 14.2796 31.24C18.608 25.59 20.6896 25 20.6896 24C20.6896 23 18.868 22.41 14.5396 16.76C11.3372 12.5813 10.387 8.78648 10.1096 7.03C10.0217 6.47366 10.4664 6 11.0296 6Z"   fill="#BEDCFF" >
</path>
<path d="M35.4942 17.9766L35.4944 17.9764C37.0538 15.9415 38.2234 13.7995 39.0032 11.5504C39.5364 10.0128 39.8581 8.52562 39.9685 7.08883C40.0013 6.66332 39.9427 6.25304 39.7929 5.85798C39.6492 5.47881 39.4332 5.145 39.145 4.85654C38.87 4.58125 38.551 4.36935 38.1878 4.22086C37.8278 4.07362 37.4515 4 37.059 4L11.0283 4C10.607 4 10.2053 4.0849 9.82325 4.25471C9.44523 4.42271 9.11831 4.65947 8.84249 4.96499C8.55756 5.2806 8.35298 5.64068 8.22874 6.04523C8.099 6.46765 8.06892 6.89912 8.1385 7.33965C8.36216 8.75594 8.77295 10.2172 9.37085 11.7234C10.2385 13.9092 11.4321 15.9935 12.9516 17.9763L12.9518 17.9766C14.0135 19.3625 15.047 20.6055 16.0521 21.7058C16.6247 22.3325 17.3045 23.0304 18.0917 23.7993C18.1466 23.853 18.1987 23.904 18.2479 23.9524C18.2192 23.9786 18.1898 24.0054 18.1597 24.0328C17.3146 24.8011 16.5855 25.5069 15.9723 26.15C14.896 27.2788 13.8011 28.5699 12.6876 30.0234L12.6874 30.0237C11.1439 32.0378 9.96382 34.1568 9.14716 36.3807C8.58716 37.9056 8.22864 39.3824 8.07158 40.8109C8.02402 41.2434 8.0714 41.663 8.21371 42.0695C8.35027 42.4596 8.56261 42.8044 8.85073 43.1038C9.12665 43.3905 9.44935 43.6117 9.81882 43.7674C10.187 43.9225 10.5726 44 10.9756 44L37.1671 44C37.5319 44 37.8836 43.9354 38.2224 43.8063C38.5625 43.6766 38.8667 43.4907 39.135 43.2485C39.4151 42.9958 39.636 42.7001 39.7977 42.3616C39.967 42.0072 40.0587 41.6325 40.0728 41.2375C40.1253 39.7747 39.9331 38.2538 39.4961 36.6749C38.8507 34.3427 37.7226 32.1256 36.1117 30.0236L36.1116 30.0234C34.8907 28.4299 33.6598 27.0436 32.419 25.8643C31.9528 25.4212 31.4728 24.9957 30.9788 24.5877C30.7448 24.3944 30.4541 24.163 30.1068 23.8934C30.8923 23.1795 31.5777 22.5163 32.1629 21.9037C33.2483 20.7678 34.3587 19.4587 35.4942 17.9766ZM32.3193 15.5434L32.3192 15.5436C31.2719 16.9105 30.2557 18.1095 29.2707 19.1406C28.7203 19.7167 28.0606 20.352 27.2917 21.0463C26.7742 21.5137 26.4227 21.8572 26.2372 22.0768C25.7328 22.6742 25.4806 23.3153 25.4806 24C25.4806 24.7261 25.773 25.3864 26.3576 25.9811C26.5553 26.182 26.9177 26.4854 27.4448 26.8913C27.8556 27.2076 28.1845 27.4678 28.4316 27.6719C28.854 28.0207 29.2646 28.3846 29.6634 28.7637C30.7522 29.7984 31.8433 31.0293 32.9365 32.4564L32.9367 32.4566C34.2324 34.1472 35.1338 35.9089 35.641 37.7417C35.8572 38.523 35.9938 39.2757 36.0507 40L12.249 40C12.4017 39.2759 12.6194 38.5291 12.902 37.7596C13.5788 35.9165 14.5657 34.1488 15.8625 32.4566L15.8627 32.4563C16.8888 31.117 17.8903 29.935 18.8673 28.9103C19.4148 28.336 20.0759 27.6967 20.8506 26.9923C21.3786 26.5123 21.7366 26.1609 21.9248 25.9382C22.4366 25.3325 22.6924 24.6865 22.6924 24C22.6924 23.3268 22.4512 22.685 21.9686 22.0746C21.7836 21.8406 21.423 21.4617 20.8867 20.9379C20.1539 20.222 19.5267 19.5787 19.0053 19.008C18.078 17.9929 17.1185 16.8381 16.1269 15.5437L16.1267 15.5434C14.8324 13.8546 13.8197 12.0893 13.0886 10.2476C12.7829 9.47741 12.5381 8.72821 12.3542 8L35.8217 8C35.6904 8.72265 35.4911 9.46932 35.2239 10.24C34.5851 12.0825 33.6169 13.8503 32.3193 15.5434Z" fill-rule="evenodd"  fill="#4187FF" >
</path>
<path d="M3.75005 6.00098C3.75008 7.10555 4.64554 8.00095 5.75011 8.00092L42.2501 7.99995C43.3547 7.99992 44.2501 7.10446 44.2501 5.99989C44.25 4.89532 43.3546 3.99992 42.25 3.99995L5.75 4.00092C4.64543 4.00095 3.75002 4.89641 3.75005 6.00098Z" fill-rule="evenodd"  fill="#1764FF" >
</path>
<path d="M3.75005 42.001C3.75008 43.1055 4.64554 44.001 5.75011 44.0009L42.2501 43.9999C43.3547 43.9999 44.2501 43.1045 44.2501 41.9999C44.25 40.8953 43.3546 39.9999 42.25 39.9999L5.75 40.0009C4.64543 40.001 3.75002 40.8964 3.75005 42.001Z" fill-rule="evenodd"  fill="#1764FF" >
</path>
</svg>
