<svg xmlns="http://www.w3.org/2000/svg" xmlns:xlink="http://www.w3.org/1999/xlink" width="48" height="48" viewBox="0 0 48 48" fill="none">
<path d="M43.39 7.5395C43.26 7.5095 43.13 7.4995 43 7.4995L16 7.4995C15.87 7.4995 15.74 7.5095 15.61 7.5395C15.48 7.5595 15.36 7.5995 15.23 7.6495C15.11 7.6995 15 7.7595 14.89 7.8395C14.78 7.9095 14.68 7.9895 14.59 8.0895C14.49 8.1795 14.41 8.2795 14.34 8.3895C14.26 8.4995 14.2 8.6095 14.15 8.7295C14.1 8.8595 14.06 8.9795 14.04 9.1095C14.01 9.2395 14 9.3695 14 9.4995C14 9.6295 14.01 9.7595 14.04 9.8895C14.06 10.0195 14.1 10.1395 14.15 10.2695C14.2 10.3895 14.26 10.4995 14.34 10.6095C14.41 10.7195 14.49 10.8195 14.59 10.9095C14.68 11.0095 14.78 11.0895 14.89 11.1595C15 11.2395 15.11 11.2995 15.23 11.3495C15.36 11.3995 15.48 11.4395 15.61 11.4595C15.74 11.4895 15.87 11.4995 16 11.4995L43 11.4995C43.07 11.4995 43.13 11.4995 43.2 11.4895C43.26 11.4795 43.33 11.4795 43.39 11.4595C43.45 11.4495 43.52 11.4295 43.58 11.4095C43.64 11.3995 43.7 11.3695 43.77 11.3495C43.83 11.3195 43.88 11.2995 43.94 11.2595C44 11.2295 44.06 11.1995 44.11 11.1595C44.17 11.1295 44.22 11.0895 44.27 11.0495C44.32 11.0095 44.37 10.9595 44.41 10.9195C44.46 10.8695 44.5 10.8195 44.55 10.7695C44.59 10.7195 44.63 10.6695 44.66 10.6095C44.7 10.5595 44.73 10.4995 44.76 10.4395C44.79 10.3895 44.82 10.3295 44.85 10.2695C44.87 10.2095 44.89 10.1395 44.91 10.0795C44.93 10.0195 44.95 9.9595 44.96 9.8895C44.97 9.8295 44.98 9.7595 44.99 9.6995C45 9.6295 45 9.5695 45 9.4995C45 9.3695 44.99 9.2395 44.96 9.1095C44.94 8.9795 44.9 8.8595 44.85 8.7395C44.8 8.6095 44.74 8.4995 44.66 8.3895C44.59 8.2795 44.51 8.1795 44.41 8.0895C44.32 7.9895 44.22 7.9095 44.11 7.8395C44 7.7695 43.89 7.6995 43.77 7.6495C43.64 7.5995 43.52 7.5695 43.39 7.5395ZM44.41 39.9195C44.46 39.8695 44.5 39.8195 44.55 39.7695C44.59 39.7195 44.63 39.6695 44.66 39.6095C44.7 39.5595 44.73 39.4995 44.76 39.4395C44.79 39.3895 44.82 39.3295 44.85 39.2695C44.87 39.2095 44.89 39.1395 44.91 39.0795C44.93 39.0195 44.95 38.9595 44.96 38.8895C44.97 38.8295 44.98 38.7595 44.99 38.6995C45 38.6295 45 38.5695 45 38.4995C45 38.3695 44.99 38.2395 44.96 38.1095C44.94 37.9795 44.9 37.8595 44.85 37.7395C44.8 37.6095 44.74 37.4995 44.66 37.3895C44.59 37.2795 44.51 37.1795 44.41 37.0895C44.32 36.9895 44.22 36.9095 44.11 36.8395C44 36.7695 43.89 36.6995 43.77 36.6495C43.64 36.5995 43.52 36.5695 43.39 36.5395C43.26 36.5095 43.13 36.4995 43 36.4995L26 36.4995C25.93 36.4995 25.87 36.4995 25.8 36.5095C25.74 36.5195 25.67 36.5295 25.61 36.5395C25.55 36.5495 25.48 36.5695 25.42 36.5895C25.36 36.6095 25.3 36.6295 25.23 36.6495C25.17 36.6795 25.12 36.7095 25.06 36.7395C25 36.7695 24.94 36.7995 24.89 36.8395C24.83 36.8695 24.78 36.9095 24.73 36.9495C24.68 36.9995 24.63 37.0395 24.59 37.0895C24.54 37.1295 24.5 37.1795 24.45 37.2295C24.41 37.2795 24.37 37.3295 24.34 37.3895C24.3 37.4395 24.27 37.4995 24.24 37.5595C24.21 37.6095 24.18 37.6695 24.15 37.7295C24.13 37.7995 24.11 37.8595 24.09 37.9195C24.07 37.9795 24.05 38.0495 24.04 38.1095C24.03 38.1695 24.02 38.2395 24.01 38.2995C24 38.3695 24 38.4295 24 38.4995C24 38.5695 24 38.6295 24.01 38.6995C24.02 38.7595 24.03 38.8295 24.04 38.8895C24.05 38.9495 24.07 39.0195 24.09 39.0795C24.11 39.1395 24.13 39.1995 24.15 39.2695C24.18 39.3295 24.21 39.3795 24.24 39.4395C24.27 39.4995 24.3 39.5595 24.34 39.6095C24.37 39.6695 24.41 39.7195 24.45 39.7695C24.5 39.8195 24.54 39.8695 24.59 39.9095C24.63 39.9595 24.68 39.9995 24.73 40.0495C24.78 40.0895 24.83 40.1295 24.89 40.1595C24.94 40.1995 25 40.2295 25.06 40.2595C25.11 40.2895 25.17 40.3195 25.23 40.3495C25.3 40.3695 25.36 40.3895 25.42 40.4095C25.48 40.4295 25.55 40.4495 25.61 40.4595C25.67 40.4695 25.74 40.4795 25.8 40.4895C25.87 40.4995 25.93 40.4995 26 40.4995L43 40.4995C43.07 40.4995 43.13 40.4995 43.2 40.4895C43.26 40.4795 43.33 40.4795 43.39 40.4595C43.45 40.4495 43.52 40.4295 43.58 40.4095C43.64 40.3995 43.7 40.3695 43.77 40.3495C43.83 40.3195 43.88 40.2995 43.94 40.2595C44 40.2295 44.06 40.1995 44.11 40.1595C44.17 40.1295 44.22 40.0895 44.27 40.0495C44.32 40.0095 44.37 39.9595 44.41 39.9195ZM19.59 22.5895C19.54 22.6295 19.5 22.6795 19.45 22.7295C19.41 22.7795 19.37 22.8295 19.34 22.8895C19.3 22.9395 19.27 22.9995 19.24 23.0595C19.21 23.1095 19.18 23.1695 19.15 23.2295C19.13 23.2995 19.11 23.3595 19.09 23.4195C19.07 23.4795 19.05 23.5495 19.04 23.6095C19.03 23.6695 19.02 23.7395 19.01 23.7995C19 23.8695 19 23.9295 19 23.9995C19 24.0695 19 24.1295 19.01 24.1995C19.02 24.2595 19.03 24.3295 19.04 24.3895C19.05 24.4495 19.07 24.5195 19.09 24.5795C19.11 24.6395 19.13 24.6995 19.15 24.7695C19.18 24.8295 19.21 24.8795 19.24 24.9395C19.27 24.9995 19.3 25.0595 19.34 25.1095C19.37 25.1695 19.41 25.2195 19.45 25.2695C19.5 25.3195 19.54 25.3695 19.59 25.4095C19.63 25.4595 19.68 25.4995 19.73 25.5495C19.78 25.5895 19.83 25.6295 19.89 25.6595C19.94 25.6995 20 25.7295 20.06 25.7595C20.11 25.7895 20.17 25.8195 20.23 25.8495C20.3 25.8695 20.36 25.8895 20.42 25.9095C20.48 25.9295 20.55 25.9495 20.61 25.9595C20.67 25.9695 20.74 25.9795 20.8 25.9895C20.87 25.9995 20.93 25.9995 21 25.9995L43 25.9995C43.07 25.9995 43.13 25.9995 43.2 25.9895C43.26 25.9795 43.33 25.9795 43.39 25.9595C43.45 25.9495 43.52 25.9295 43.58 25.9095C43.64 25.8995 43.7 25.8695 43.77 25.8495C43.83 25.8195 43.88 25.7995 43.94 25.7595C44 25.7295 44.06 25.6995 44.11 25.6595C44.17 25.6295 44.22 25.5895 44.27 25.5495C44.32 25.5095 44.37 25.4595 44.41 25.4195C44.46 25.3695 44.5 25.3195 44.55 25.2695C44.59 25.2195 44.63 25.1695 44.66 25.1095C44.7 25.0595 44.73 24.9995 44.76 24.9395C44.79 24.8895 44.82 24.8295 44.85 24.7695C44.87 24.7095 44.89 24.6395 44.91 24.5795C44.93 24.5195 44.95 24.4595 44.96 24.3895C44.97 24.3295 44.98 24.2595 44.99 24.1995C45 24.1295 45 24.0695 45 23.9995C45 23.8695 44.99 23.7395 44.96 23.6095C44.94 23.4795 44.9 23.3595 44.85 23.2395C44.8 23.1095 44.74 22.9995 44.66 22.8895C44.59 22.7795 44.51 22.6795 44.41 22.5895C44.32 22.4895 44.22 22.4095 44.11 22.3395C44 22.2695 43.89 22.1995 43.77 22.1495C43.64 22.0995 43.52 22.0695 43.39 22.0395C43.26 22.0095 43.13 21.9995 43 21.9995L21 21.9995C20.93 21.9995 20.87 21.9995 20.8 22.0095C20.74 22.0195 20.67 22.0295 20.61 22.0395C20.55 22.0495 20.48 22.0695 20.42 22.0895C20.36 22.1095 20.3 22.1295 20.23 22.1495C20.17 22.1795 20.11 22.2095 20.06 22.2395C20 22.2695 19.94 22.2995 19.89 22.3395C19.83 22.3695 19.78 22.4095 19.73 22.4495C19.68 22.4995 19.63 22.5395 19.59 22.5895ZM6.5 7C5.12 7 4 8.12 4 9.5C4 10.88 5.12 12 6.5 12C7.88 12 9 10.88 9 9.5C9 8.12 7.88 7 6.5 7ZM9 24C9 25.38 10.12 26.5 11.5 26.5C12.88 26.5 14 25.38 14 24C14 22.62 12.88 21.5 11.5 21.5C10.12 21.5 9 22.62 9 24ZM14 38.5C14 37.12 15.12 36 16.5 36C17.88 36 19 37.12 19 38.5C19 39.88 17.88 41 16.5 41C15.12 41 14 39.88 14 38.5Z" fill-rule="evenodd"  fill="#000000" >
</path>
</svg>
