<svg xmlns="http://www.w3.org/2000/svg" xmlns:xlink="http://www.w3.org/1999/xlink" width="48" height="48" viewBox="0 0 48 48" fill="none">
<path d="M24 45C35.598 45 45 35.598 45 24C45 12.402 35.598 3 24 3C12.402 3 3 12.402 3 24C3 35.598 12.402 45 24 45Z" fill-rule="evenodd"  fill="#1764FF" >
</path>
<path d="M21.5 13.5C21.5 12.12 22.62 11 24 11C25.38 11 26.5 12.12 26.5 13.5C26.5 14.88 25.38 16 24 16C22.62 16 21.5 14.88 21.5 13.5ZM18.5 20C18.5 18.9 19.4 18 20.5 18L24.5 18C25.6046 18 26.5 18.8954 26.5 20L26.5 33L28 33C29.1 33 30 33.9 30 35C30 36.1 29.1 37 28 37L20 37C18.9 37 18 36.1 18 35C18 33.9 18.9 33 20 33L22.5 33L22.5 22L20.5 22C19.4 22 18.5 21.1 18.5 20Z" fill-rule="evenodd"  fill="#E8F4FF" >
</path>
</svg>
