<svg xmlns="http://www.w3.org/2000/svg" xmlns:xlink="http://www.w3.org/1999/xlink" width="48" height="48" viewBox="0 0 48 48" fill="none">
<path d="M24 5C13.51 5 5 13.51 5 24C5 34.49 13.51 43 24 43C34.49 43 43 34.49 43 24C43 13.51 34.49 5 24 5Z"   fill="#BEDCFF" >
</path>
<path d="M24 45C35.598 45 45 35.598 45 24C45 12.402 35.598 3 24 3C12.402 3 3 12.402 3 24C3 35.598 12.402 45 24 45ZM24 7C33.3888 7 41 14.6112 41 24C41 33.3888 33.3888 41 24 41C14.6112 41 7 33.3888 7 24C7 14.6112 14.6112 7 24 7Z" fill-rule="evenodd"  fill="#6BA6FF" >
</path>
<path d="M21.5 13.5C21.5 12.12 22.62 11 24 11C25.38 11 26.5 12.12 26.5 13.5C26.5 14.88 25.38 16 24 16C22.62 16 21.5 14.88 21.5 13.5ZM18.5 20C18.5 18.9 19.4 18 20.5 18L22.5 18C24.7091 18 26.5 19.7909 26.5 22L26.5 33L28 33C29.1 33 30 33.9 30 35C30 36.1 29.1 37 28 37L20 37C18.9 37 18 36.1 18 35C18 33.9 18.9 33 20 33L22.5 33L22.5 22L20.5 22C19.4 22 18.5 21.1 18.5 20Z" fill-rule="evenodd"  fill="#1764FF" >
</path>
</svg>
