<svg xmlns="http://www.w3.org/2000/svg" xmlns:xlink="http://www.w3.org/1999/xlink" width="48" height="48" viewBox="0 0 48 48" fill="none">
<path d="M24 45C35.598 45 45 35.598 45 24C45 12.402 35.598 3 24 3C12.402 3 3 12.402 3 24C3 35.598 12.402 45 24 45ZM24 7C33.3888 7 41 14.6112 41 24C41 33.3888 33.3888 41 24 41C14.6112 41 7 33.3888 7 24C7 14.6112 14.6112 7 24 7Z" fill-rule="evenodd"  fill="#787878" >
</path>
<path d="M15.0857 30.9142C14.7238 30.5522 14.5 30.0523 14.5 29.5C14.5 28.3954 15.3954 27.5 16.5 27.5C17.0523 27.5 17.5523 27.7239 17.9143 28.0858C18.1109 28.2825 18.3847 28.5016 18.7357 28.7433C19.1811 29.05 19.66 29.3253 20.1723 29.5693C21.4754 30.1898 22.7513 30.5 24 30.5C25.2487 30.5 26.5246 30.1898 27.8277 29.5693C28.34 29.3253 28.8189 29.05 29.2643 28.7433C29.6153 28.5016 29.8891 28.2825 30.0857 28.0858C30.4477 27.7239 30.9477 27.5 31.5 27.5C32.6046 27.5 33.5 28.3954 33.5 29.5C33.5 30.0523 33.2762 30.5522 32.9143 30.9142C32.5452 31.2833 32.0846 31.6579 31.5327 32.0379C30.9128 32.4647 30.2511 32.8456 29.5474 33.1807C27.7003 34.0602 25.8512 34.5 24 34.5C22.1488 34.5 20.2996 34.0602 18.4526 33.1807C17.749 32.8456 17.0872 32.4647 16.4673 32.0379C15.9154 31.6579 15.4548 31.2833 15.0857 30.9142Z" fill-rule="evenodd"  fill="#424242" >
</path>
<path d="M20.0478 16C20.0478 14.8954 19.131 14 18 14C16.869 14 15.9521 14.8954 15.9521 16L15.9521 22C15.9521 23.1046 16.869 24 18 24C19.131 24 20.0478 23.1046 20.0478 22L20.0478 16Z" fill-rule="evenodd"  fill="#424242" >
</path>
<path d="M32.0468 16C32.0468 14.8954 31.13 14 29.999 14C28.868 14 27.9512 14.8954 27.9512 16L27.9512 22C27.9512 23.1046 28.868 24 29.999 24C31.13 24 32.0468 23.1046 32.0468 22L32.0468 16Z" fill-rule="evenodd"  fill="#424242" >
</path>
</svg>
