<svg xmlns="http://www.w3.org/2000/svg" xmlns:xlink="http://www.w3.org/1999/xlink" width="48" height="48" viewBox="0 0 48 48" fill="none">
<path d="M40.1138 3.63036C39.1215 3.21012 38.0835 3 37 3L11 3C9.9165 3 8.87857 3.21012 7.8862 3.63036C6.92935 4.03556 6.08213 4.60695 5.34454 5.34454C4.60695 6.08213 4.03556 6.92935 3.63036 7.8862C3.21012 8.87857 3 9.9165 3 11L3 37C3 38.0835 3.21012 39.1215 3.63036 40.1138C4.03556 41.0707 4.60695 41.9179 5.34454 42.6555C6.08212 43.393 6.92934 43.9644 7.8862 44.3696C8.87856 44.7899 9.91649 45 11 45L37 45C38.0835 45 39.1215 44.7899 40.1138 44.3696C41.0707 43.9644 41.9179 43.393 42.6555 42.6555C43.393 41.9179 43.9644 41.0707 44.3696 40.1138C44.7899 39.1215 45 38.0835 45 37L45 11C45 9.91649 44.7899 8.87856 44.3696 7.8862C43.9644 6.92934 43.393 6.08212 42.6555 5.34454C41.9179 4.60695 41.0707 4.03556 40.1138 3.63036ZM9.44599 40.6863C8.96754 40.4837 8.54319 40.1973 8.17296 39.827C7.80273 39.4568 7.51632 39.0325 7.31371 38.554C7.10457 38.0601 7 37.5421 7 37L7 11C7 10.4579 7.10457 9.93986 7.3137 9.44599C7.51631 8.96753 7.80273 8.54319 8.17296 8.17296C8.54319 7.80273 8.96753 7.51632 9.44599 7.31371C9.93985 7.10457 10.4579 7 11 7L37 7C37.5421 7 38.0601 7.10457 38.554 7.3137C39.0325 7.51631 39.4568 7.80273 39.827 8.17296C40.1973 8.54319 40.4837 8.96754 40.6863 9.44599C40.8954 9.93985 41 10.4579 41 11L41 37C41 37.5421 40.8954 38.0601 40.6863 38.554C40.4837 39.0325 40.1973 39.4568 39.827 39.827C39.4568 40.1973 39.0325 40.4837 38.554 40.6863C38.0601 40.8954 37.5421 41 37 41L11 41C10.4579 41 9.93985 40.8954 9.44599 40.6863Z" fill-rule="evenodd"  fill="#000000" >
</path>
</svg>
