<svg xmlns="http://www.w3.org/2000/svg" xmlns:xlink="http://www.w3.org/1999/xlink" width="48" height="48" viewBox="0 0 48 48" fill="none">
<path d="M12 3C8.68629 3 6 5.68629 6 9L6 37.0467C6 43.3659 12.982 47.1904 18.3071 43.7882L22.9232 40.8391C23.2515 40.6293 23.6105 40.5244 24 40.5244C24.3895 40.5244 24.7485 40.6293 25.0768 40.8391L29.6929 43.7882C35.018 47.1904 42 43.3659 42 37.0467L42 9C42 5.68629 39.3137 3 36 3L12 3ZM10 37.0467L10 9C10 7.89543 10.8954 7 12 7L36 7C37.1046 7 38 7.89543 38 9L38 37.0467C38 40.2063 34.509 42.1185 31.8464 40.4174L27.2303 37.4683C26.2454 36.839 25.1687 36.5244 24 36.5244C22.8313 36.5244 21.7546 36.839 20.7697 37.4683L16.1536 40.4174C13.491 42.1185 10 40.2063 10 37.0467Z" fill-rule="evenodd"  fill="#787878" >
</path>
<path d="M33.4838 18.341L24.2054 28.6885C22.6246 30.4514 19.8671 30.4629 18.2717 28.7133L14.5267 24.6065L14.5222 24.6016C14.1978 24.2461 14 23.7731 14 23.254C14 22.1494 14.8954 21.254 16 21.254C16.5882 21.254 17.1171 21.5079 17.4831 21.9121L21.2273 26.0181L30.5048 15.6717L30.511 15.6648C30.8771 15.2567 31.4086 15 32 15C33.1046 15 34 15.8954 34 17C34 17.5131 33.8067 17.9812 33.4891 18.3352L33.4838 18.341Z" fill-rule="evenodd"  fill="#424242" >
</path>
</svg>
