<svg xmlns="http://www.w3.org/2000/svg" xmlns:xlink="http://www.w3.org/1999/xlink" width="48" height="48" viewBox="0 0 48 48" fill="none">
<path d="M5 19C3.9 19 3 18.1 3 17L3 11C3 6.58 6.58 3 11 3L17 3C18.1 3 19 3.9 19 5C19 6.1 18.1 7 17 7L11 7C8.79 7 7 8.79 7 11L7 17C7 18.1 6.1 19 5 19ZM43 19C44.1 19 45 18.1 45 17L45 11C45 6.58 41.42 3 37 3L31 3C29.9 3 29 3.9 29 5C29 6.1 29.9 7 31 7L37 7C39.21 7 41 8.79 41 11L41 17C41 18.1 41.9 19 43 19ZM15 12C13.9 12 13 12.9 13 14C13 14.5247 13.2047 15.0038 13.5383 15.3615L13.5373 15.3624L21.2649 23.6427L18.9563 26.1164C18.3109 25.8731 17.6111 25.74 16.88 25.74C13.63 25.74 11 28.37 11 31.62C11 34.87 13.63 37.5 16.88 37.5C20.13 37.5 22.76 34.87 22.76 31.62C22.76 30.5652 22.483 29.5758 21.9977 28.7203L24.0006 26.5741L26.0028 28.7195C25.5172 29.5751 25.24 30.5649 25.24 31.62C25.24 34.87 27.87 37.5 31.12 37.5C34.37 37.5 37 34.87 37 31.62C37 28.37 34.37 25.74 31.12 25.74C30.3892 25.74 29.6898 25.873 29.0446 26.1161L26.7363 23.6427L34.4619 15.3646L34.4603 15.3631C34.7947 15.0052 35 14.5254 35 14C35 12.9 34.1 12 33 12C32.4253 12 31.9051 12.2457 31.5394 12.6372L31.5375 12.6354L24.0006 20.7113L16.4617 12.6332L16.4591 12.6357C16.0935 12.245 15.574 12 15 12ZM5 29C3.9 29 3 29.9 3 31L3 37C3 41.42 6.58 45 11 45L17 45C18.1 45 19 44.1 19 43C19 41.9 18.1 41 17 41L11 41C8.79 41 7 39.21 7 37L7 31C7 29.9 6.1 29 5 29ZM45 31C45 29.9 44.1 29 43 29C41.9 29 41 29.9 41 31L41 37C41 39.21 39.21 41 37 41L31 41C29.9 41 29 41.9 29 43C29 44.1 29.9 45 31 45L37 45C41.42 45 45 41.42 45 37L45 31ZM16.88 33.5C15.84 33.5 15 32.66 15 31.62C15 30.58 15.84 29.74 16.88 29.74C17.92 29.74 18.76 30.58 18.76 31.62C18.76 32.66 17.92 33.5 16.88 33.5ZM29.24 31.62C29.24 30.58 30.08 29.74 31.12 29.74C32.16 29.74 33 30.58 33 31.62C33 32.66 32.16 33.5 31.12 33.5C30.08 33.5 29.24 32.66 29.24 31.62Z" fill-rule="evenodd"  fill="#000000" >
</path>
</svg>
