<svg xmlns="http://www.w3.org/2000/svg" xmlns:xlink="http://www.w3.org/1999/xlink" width="48" height="48" viewBox="0 0 48 48" fill="none">
<path d="M12.0118 12.2904L17.8118 7.02042C21.6518 3.54042 27.7918 6.26042 27.7918 11.4404L27.7918 36.5304C27.8118 41.7104 21.6418 44.4404 17.8018 40.9604L12.0018 35.7104C11.8218 35.5504 11.5918 35.4504 11.3418 35.4504L8.73179 35.4504C5.54179 35.4504 2.96179 32.8704 2.96179 29.6804L2.96179 18.4104C2.96179 15.2304 5.52179 12.6404 8.70179 12.5904L11.3418 12.5504C11.5918 12.5504 11.8218 12.4604 12.0118 12.2904ZM35 12.5C35 11.4 35.9 10.5 37 10.5C37.42 10.5 37.8 10.63 38.12 10.84C39.3 11.59 40.45 12.68 41.57 14.11C43.86 17.01 45 20.31 45 24C45 27.69 43.86 30.99 41.57 33.89C40.44 35.33 39.28 36.43 38.09 37.18C37.78 37.38 37.4 37.5 37 37.5C35.9 37.5 35 36.6 35 35.5C35 34.77 35.39 34.14 35.97 33.79C36.76 33.29 37.58 32.5 38.43 31.42C40.14 29.24 41 26.77 41 24C41 21.23 40.14 18.76 38.43 16.58C37.57 15.49 36.74 14.7 35.94 14.2C35.38 13.84 35 13.21 35 12.5ZM33 24C33 22.48 32.47 21.37 31.41 20.68C30.86 20.32 30.5 19.7 30.5 19C30.5 17.9 31.4 17 32.5 17C32.92 17 33.32 17.13 33.64 17.35C35.88 18.84 37 21.05 37 24C37 26.96 35.87 29.18 33.62 30.66C33.3 30.87 32.91 31 32.5 31C31.4 31 30.5 30.1 30.5 29C30.5 28.29 30.87 27.67 31.43 27.31C32.48 26.62 33 25.51 33 24Z" fill-rule="evenodd"  fill="#000000" >
</path>
</svg>
