<svg xmlns="http://www.w3.org/2000/svg" xmlns:xlink="http://www.w3.org/1999/xlink" width="48" height="48" viewBox="0 0 48 48" fill="none">
<path d="M13.495 3.87744C14.915 3.87744 16.255 4.23744 17.495 4.94744L38.495 17.0674L38.495 6.74994C38.495 6.67994 38.495 6.61994 38.505 6.54994C38.515 6.48994 38.525 6.41994 38.535 6.35994C38.545 6.29994 38.565 6.22994 38.585 6.16994C38.605 6.10994 38.625 6.04994 38.645 5.97994C38.675 5.91994 38.705 5.85994 38.735 5.80994C38.765 5.74994 38.795 5.68994 38.835 5.63994C38.865 5.57994 38.905 5.52994 38.945 5.47994C38.995 5.42994 39.035 5.37994 39.085 5.33994C39.125 5.28994 39.175 5.24994 39.225 5.19994C39.275 5.15994 39.325 5.11994 39.385 5.08994C39.435 5.04994 39.495 5.01994 39.555 4.98994C39.605 4.95994 39.665 4.92994 39.725 4.89994C39.795 4.87994 39.855 4.85994 39.915 4.83994C39.975 4.81994 40.045 4.79994 40.105 4.78994C40.165 4.77994 40.235 4.76994 40.295 4.75994C40.365 4.74994 40.425 4.74994 40.495 4.74994C40.565 4.74994 40.625 4.74994 40.695 4.75994C40.755 4.76994 40.825 4.77994 40.885 4.78994C40.945 4.79994 41.015 4.81994 41.075 4.83994C41.135 4.85994 41.195 4.87994 41.265 4.89994C41.325 4.92994 41.375 4.95994 41.435 4.98994C41.495 5.01994 41.555 5.04994 41.605 5.08994C41.665 5.11994 41.715 5.15994 41.765 5.19994C41.815 5.24994 41.865 5.28994 41.905 5.33994C41.955 5.37994 41.995 5.42994 42.045 5.47994C42.085 5.52994 42.125 5.57994 42.155 5.63994C42.195 5.68994 42.225 5.74994 42.255 5.80994C42.285 5.85994 42.315 5.91994 42.345 5.97994C42.365 6.04994 42.385 6.10994 42.405 6.16994C42.425 6.22994 42.445 6.29994 42.455 6.35994C42.465 6.41994 42.475 6.48994 42.485 6.54994C42.495 6.61994 42.495 6.67994 42.495 6.74994L42.495 23.5871C42.5017 23.7231 42.505 23.8598 42.505 23.9974C42.505 24.136 42.5017 24.2735 42.495 24.41L42.495 41.2499C42.495 41.3199 42.495 41.3799 42.485 41.4499C42.475 41.5099 42.475 41.5799 42.455 41.6399C42.445 41.6999 42.425 41.7699 42.405 41.8299C42.395 41.8899 42.365 41.9499 42.345 42.0199C42.315 42.0799 42.295 42.1299 42.255 42.1899C42.225 42.2499 42.195 42.3099 42.155 42.3599C42.125 42.4199 42.085 42.4699 42.045 42.5199C42.005 42.5699 41.955 42.6199 41.915 42.6599C41.865 42.7099 41.815 42.7499 41.765 42.7999C41.715 42.8399 41.665 42.8799 41.605 42.9099C41.555 42.9499 41.495 42.9799 41.435 43.0099C41.385 43.0399 41.325 43.0699 41.265 43.0999C41.205 43.1199 41.135 43.1399 41.075 43.1599C41.015 43.1799 40.955 43.1999 40.885 43.2099C40.825 43.2199 40.755 43.2299 40.695 43.2399C40.625 43.2499 40.565 43.2499 40.495 43.2499C40.435 43.2499 40.365 43.2499 40.305 43.2399C40.235 43.2299 40.175 43.2199 40.105 43.2099C40.045 43.1999 39.975 43.1799 39.915 43.1599L39.735 43.0999L39.555 43.0099C39.495 42.9799 39.435 42.9499 39.385 42.9099C39.335 42.8799 39.275 42.8399 39.225 42.7999C39.175 42.7499 39.125 42.7099 39.085 42.6599C39.035 42.6199 38.995 42.5699 38.955 42.5199C38.905 42.4699 38.865 42.4199 38.835 42.3599C38.795 42.3099 38.765 42.2499 38.735 42.1899C38.705 42.1399 38.675 42.0799 38.645 42.0199C38.625 41.9499 38.605 41.8899 38.585 41.8299C38.565 41.7699 38.545 41.6999 38.535 41.6399C38.525 41.5799 38.515 41.5099 38.505 41.4499C38.495 41.3799 38.495 41.3199 38.495 41.2499L38.495 30.9274L17.495 43.0574C16.255 43.7674 14.915 44.1274 13.495 44.1274C12.065 44.1274 10.725 43.7674 9.495 43.0574C8.255 42.3374 7.27499 41.3574 6.565 40.1174C5.85499 38.8774 5.495 37.5474 5.495 36.1174L5.495 11.8774C5.495 10.4474 5.85499 9.11744 6.565 7.87744C7.27499 6.63744 8.255 5.65744 9.495 4.94744C10.725 4.23744 12.065 3.87744 13.495 3.87744ZM38.495 23.7098C38.4527 23.106 38.276 22.533 37.965 21.9974C37.605 21.3774 37.115 20.8874 36.495 20.5374L15.495 8.40744C14.875 8.05744 14.205 7.87744 13.495 7.87744C12.775 7.87744 12.115 8.05744 11.495 8.40744C10.875 8.76744 10.385 9.25744 10.035 9.87744C9.675 10.4974 9.495 11.1674 9.495 11.8774L9.495 36.1174C9.495 36.8374 9.675 37.5074 10.035 38.1274C10.385 38.7474 10.875 39.2274 11.495 39.5874C12.115 39.9474 12.775 40.1174 13.495 40.1174C14.205 40.1174 14.875 39.9474 15.495 39.5874L36.495 27.4674C37.115 27.1074 37.605 26.6174 37.965 25.9974C38.276 25.4704 38.4527 24.8986 38.495 24.2885L38.495 23.7098Z" fill-rule="evenodd"  fill="#000000" >
</path>
</svg>
