<svg xmlns="http://www.w3.org/2000/svg" xmlns:xlink="http://www.w3.org/1999/xlink" width="48" height="48" viewBox="0 0 48 48" fill="none">
<path d="M4 16.51C4 15.83 4.16281 15.1915 4.48842 14.5946L9.10716 6.12689C9.63286 5.1631 10.3677 4.40101 11.3118 3.84061C12.2558 3.2802 13.2767 3 14.3745 3L33.6255 3C34.7233 3 35.7442 3.2802 36.6883 3.84061C37.6323 4.40101 38.3671 5.1631 38.8928 6.12689L43.5116 14.5946C43.8372 15.1915 44 15.83 44 16.51L44 39C44 42.3137 41.3137 45 38 45L10 45C6.68629 45 4 42.3137 4 39L4 16.51ZM8 18L8 39C8 40.1046 8.89543 41 10 41L38 41C39.1046 41 40 40.1046 40 39L40 18L8 18ZM9.36909 14L38.6309 14L35.3813 8.0423C35.206 7.72103 34.9611 7.467 34.6464 7.2802C34.3317 7.0934 33.9914 7 33.6255 7L14.3745 7C14.0086 7 13.6683 7.0934 13.3536 7.2802C13.0389 7.46701 12.794 7.72104 12.6187 8.0423L9.36909 14Z" fill-rule="evenodd"  fill="#787878" >
</path>
<path d="M26 25C26 26.1046 25.1046 27 24 27C22.8954 27 22 26.1046 22 25C22 23.8954 22.8954 23 24 23C25.1046 23 26 23.8954 26 25Z"   fill="#424242" >
</path>
<path d="M26.0001 30L28.0001 30C29.7819 30 30.6742 32.1543 29.4143 33.4142L25.8857 36.9428C25.6306 37.1979 25.3362 37.3931 25.0026 37.5284C24.6813 37.6587 24.3472 37.7239 24.0001 37.7239C23.653 37.7239 23.3189 37.6587 22.9977 37.5284C22.664 37.3931 22.3696 37.1979 22.1145 36.9428L18.5859 33.4142C17.326 32.1543 18.2183 30 20.0001 30L22.0001 30L22.0001 25L26.0001 25L26.0001 30Z" fill-rule="evenodd"  fill="#424242" >
</path>
</svg>
