<svg xmlns="http://www.w3.org/2000/svg" xmlns:xlink="http://www.w3.org/1999/xlink" width="48" height="48" viewBox="0 0 48 48" fill="none">
<path d="M9.1152 6.49L6.1452 12.9C6.13324 12.9259 6.12668 12.954 6.1152 12.98C6.86505 12.054 8.00355 11.5 9.2252 11.5L38.7752 11.5C39.9963 11.5 41.1354 12.0548 41.8852 12.98C41.8739 12.9544 41.867 12.9255 41.8552 12.9L38.8852 6.49C38.3949 5.42755 37.6609 4.58066 36.6752 3.95C35.6895 3.31934 34.6153 3 33.4452 3L14.5552 3C13.385 3 12.3109 3.31934 11.3252 3.95C10.3395 4.58066 9.60557 5.42755 9.1152 6.49ZM42.5077 14.9707C43.202 15.74 44.0001 16.87 44 18L44 39C44 42.3137 41.3137 45 38 45L10 45C6.68629 45 4 42.3137 4 39L4 18C3.99999 17.206 4.2364 16.412 4.52152 15.7432C5.01525 14.5849 6.241 14 7.50006 14L40.0969 14C41.0052 14 41.8991 14.2965 42.5077 14.9707ZM22 25L22 30L20 30C19.1344 30.0379 18.5185 30.4494 18.1522 31.2346C17.856 32.0488 18.0005 32.7754 18.5858 33.4142L22.1144 36.9428C22.3695 37.1979 22.6639 37.3931 22.9976 37.5284C23.3188 37.6587 23.653 37.7239 24 37.7239C24.3471 37.7239 24.6812 37.6587 25.0024 37.5284C25.3361 37.3931 25.6305 37.1979 25.8856 36.9428L29.4142 33.4142C29.9995 32.7754 30.1441 32.0488 29.8478 31.2346C29.4815 30.4494 28.8656 30.0379 28 30L26 30L26 25C26 23.8954 25.1046 23 24 23C22.8954 23 22 23.8954 22 25Z" fill-rule="evenodd"  fill="#000000" >
</path>
</svg>
