<svg xmlns="http://www.w3.org/2000/svg" xmlns:xlink="http://www.w3.org/1999/xlink" width="48" height="48" viewBox="0 0 48 48" fill="none">
<path d="M41.06 30.98C41.06 32.5302 40.9164 33.9075 40.6291 35.1119C40.2956 36.5101 39.7638 37.702 39.0337 38.6878C38.2185 39.7885 37.1731 40.6178 35.8976 41.1758C34.6415 41.7252 33.1756 42 31.5 42L24 42C22.8954 42 22 41.1046 22 40C22 38.8954 22.8954 38 24 38L31.5 38C32.6179 38 33.5494 37.837 34.2945 37.5111C34.9188 37.2379 35.4271 36.8366 35.8193 36.3071C36.6464 35.1903 37.06 33.4146 37.06 30.98L41.06 30.98Z" fill-rule="evenodd"  fill="#787878" >
</path>
<path d="M24 9C31.2128 9 37.06 14.7472 37.06 21.96L37.06 32.9733L39.0533 32.98L42.9865 32.9932C45.2009 33.0007 47 31.2077 47 28.9933L47 23.9866C47 23.4474 46.8959 22.9304 46.6876 22.4355C46.4868 21.9584 46.2036 21.5358 45.8379 21.1677C45.4723 20.7996 45.0516 20.5136 44.5759 20.3095C44.0824 20.0979 43.5661 19.9903 43.0269 19.9867L40.9453 19.9726C39.9602 11.5 32.7492 5 24 5C15.3099 5 8.01722 11.5358 7.00892 19.96L5 19.96C4.45835 19.96 3.93916 20.0651 3.44241 20.2752C2.96361 20.4777 2.54 20.7631 2.17157 21.1316C1.80314 21.5 1.51767 21.9236 1.31516 22.4024C1.10505 22.8991 1 23.4183 1 23.96L1 27.88C1 30.0891 2.79086 31.88 5 31.88L6.89 31.88C9.09914 31.88 10.89 30.0891 10.89 27.88L10.89 21.96C10.89 14.8024 16.8424 9 24 9ZM6.89 23.96L5 23.96L5 27.88L6.89 27.88L6.89 23.96ZM41.06 23.9735L41.06 28.9867L43 28.9933L43 23.9866L41.06 23.9735Z" fill-rule="evenodd"  fill="#424242" >
</path>
</svg>
