<svg xmlns="http://www.w3.org/2000/svg" xmlns:xlink="http://www.w3.org/1999/xlink" width="48" height="48" viewBox="0 0 48 48" fill="none">
<path d="M39 10.5L39 30.5C39 34.92 35.42 38.5 31 38.5L11 38.5C6.58 38.5 3 34.92 3 30.5L3 10.5C3 6.08 6.58 2.5 11 2.5L31 2.5C35.42 2.5 39 6.08 39 10.5ZM28.08 13.59L17.5 24.17L12.91 19.59C12.55 19.22 12.05 19 11.5 19C10.4 19 9.5 19.9 9.5 21C9.5 21.55 9.72 22.05 10.09 22.41L14.68 27C16.24 28.56 18.76 28.56 20.32 27L30.91 16.42L30.91 16.41C31.28 16.05 31.5 15.55 31.5 15C31.5 13.9 30.6 13 29.5 13C28.95 13 28.45 13.22 28.09 13.59L28.08 13.59ZM41 14.0694L41 31C41 36.52 36.52 41 31 41L14.0694 41C15.4522 43.3916 18.0374 45 21 45L33 45C39.63 45 45 39.63 45 33L45 21C45 18.0374 43.3916 15.4522 41 14.0694Z" fill-rule="evenodd"  fill="#000000" >
</path>
</svg>
