<svg xmlns="http://www.w3.org/2000/svg" xmlns:xlink="http://www.w3.org/1999/xlink" width="48" height="48" viewBox="0 0 48 48" fill="none">
<path d="M41.06 30.98C41.06 32.5302 40.9164 33.9075 40.6291 35.1119C40.2956 36.5101 39.7638 37.702 39.0337 38.6878C38.2185 39.7885 37.1731 40.6178 35.8976 41.1758C34.6415 41.7252 33.1756 42 31.5 42L24 42C22.8954 42 22 41.1046 22 40C22 38.8954 22.8954 38 24 38L31.5 38C32.6179 38 33.5494 37.837 34.2945 37.5111C34.9188 37.2379 35.4271 36.8366 35.8193 36.3071C36.6464 35.1903 37.06 33.4146 37.06 30.98L41.06 30.98Z" fill-rule="evenodd"  fill="#787878" >
</path>
<path d="M37.06 21.96C37.06 14.7472 31.2128 9 24 9C16.8424 9 10.89 14.8024 10.89 21.96L10.89 27.88C10.89 30.0891 9.09914 31.88 6.89 31.88L5 31.88C2.79086 31.88 1 30.0891 1 27.88L1 23.96C1 23.4183 1.10505 22.8991 1.31516 22.4024C1.51767 21.9236 1.80314 21.5 2.17157 21.1316C2.54 20.7631 2.96361 20.4777 3.44241 20.2752C3.93916 20.0651 4.45835 19.96 5 19.96L7.00892 19.96C8.01722 11.5358 15.3099 5 24 5C32.7492 5 39.9602 11.5 40.9453 19.9726L43.0269 19.9867C43.5661 19.9903 44.0824 20.0979 44.5759 20.3095C45.0516 20.5136 45.4723 20.7996 45.8379 21.1677C46.2036 21.5358 46.4868 21.9584 46.6876 22.4355C46.8959 22.9304 47 23.4474 47 23.9866L47 28.9933C47 31.2077 45.2009 33.0007 42.9865 32.9932L39.0533 32.98L37.06 32.9733L37.06 21.96Z" fill-rule="evenodd"  fill="#424242" >
</path>
</svg>
