<svg xmlns="http://www.w3.org/2000/svg" xmlns:xlink="http://www.w3.org/1999/xlink" width="48" height="48" viewBox="0 0 48 48" fill="none">
<path d="M24 45C35.598 45 45 35.598 45 24C45 12.402 35.598 3 24 3C12.402 3 3 12.402 3 24C3 35.598 12.402 45 24 45ZM9.5 24C9.5 22.067 11.067 20.5 13 20.5C14.933 20.5 16.5 22.067 16.5 24C16.5 25.933 14.933 27.5 13 27.5C11.067 27.5 9.5 25.933 9.5 24ZM20.5 24C20.5 22.067 22.067 20.5 24 20.5C25.933 20.5 27.5 22.067 27.5 24C27.5 25.933 25.933 27.5 24 27.5C22.067 27.5 20.5 25.933 20.5 24ZM35 20.5C33.067 20.5 31.5 22.067 31.5 24C31.5 25.933 33.067 27.5 35 27.5C36.933 27.5 38.5 25.933 38.5 24C38.5 22.067 36.933 20.5 35 20.5Z" fill-rule="evenodd"  fill="#000000" >
</path>
</svg>
