<svg xmlns="http://www.w3.org/2000/svg" xmlns:xlink="http://www.w3.org/1999/xlink" width="48" height="48" viewBox="0 0 48 48" fill="none">
<path d="M41.7092 28.3618C42.8655 30.1126 43.9405 31.9781 44.9342 33.9583C45.1088 34.3062 45.2115 34.6694 45.2423 35.048C45.2724 35.418 45.2322 35.7811 45.1217 36.1372C44.928 36.7619 44.5596 37.2774 44.0167 37.6837C43.5123 38.0613 42.9482 38.2748 42.3246 38.3242C41.6107 38.3808 40.9555 38.2131 40.3588 37.8211C39.1658 37.0375 37.8611 36.3283 36.4445 35.6937C35.0224 35.0566 33.5295 34.5135 31.9659 34.0643C29.381 33.3217 26.7815 32.875 24.1674 32.7242L24.1674 39.8132C24.1674 42.3824 21.1484 43.7629 19.2051 42.0824L3.23547 28.2723C0.976574 26.3188 0.922672 22.8336 3.12017 20.8113L19.1359 6.07191C21.0587 4.30235 24.1674 5.66623 24.1674 8.27936L24.1674 15.4497C26.3035 15.6999 28.3916 16.3536 30.4317 17.411C32.6805 18.5766 34.8407 20.2188 36.9122 22.3375C38.5935 24.0572 40.1925 26.0653 41.7092 28.3618ZM22.1674 19.3333C26.3098 19.3334 30.2714 21.2669 34.052 25.1338C35.5553 26.6714 36.9951 28.4822 38.3714 30.5661C38.8637 31.3115 39.3405 32.0803 39.8017 32.8723C39.2438 32.584 38.6699 32.3077 38.0798 32.0433C36.4853 31.329 34.8155 30.7212 33.0704 30.2198C29.4664 29.1844 25.832 28.6667 22.1674 28.6667L20.1674 28.6667L20.1674 37.6263L5.85197 25.2467C5.40017 24.856 5.38937 24.159 5.82887 23.7545L20.1674 10.5587L20.1674 19.3333L22.1674 19.3333L22.1674 19.3333Z" fill-rule="evenodd"  fill="#787878" >
</path>
<path d="M18.4788 12.1167C18.8789 11.751 19.1299 11.2248 19.1299 10.64C19.1299 9.53544 18.2345 8.64001 17.1299 8.64001C16.6054 8.64001 16.128 8.84193 15.7713 9.17229L3.12118 20.8107C0.922882 22.8332 0.976784 26.3193 3.23648 28.2728L15.8138 39.146C16.1655 39.4536 16.6259 39.64 17.1299 39.64C18.2345 39.64 19.1299 38.7446 19.1299 37.64C19.1299 37.0311 18.8577 36.4857 18.4285 36.1189L5.85248 25.2468C5.40058 24.8561 5.38978 24.1589 5.82938 23.7544L18.4788 12.1167Z" fill-rule="evenodd"  fill="#424242" >
</path>
</svg>
