<svg xmlns="http://www.w3.org/2000/svg" xmlns:xlink="http://www.w3.org/1999/xlink" width="48" height="48" viewBox="0 0 48 48" fill="none">
<path d="M40.7438 29.406C45.3134 27.236 45.3115 20.7324 40.7408 18.5649L12.4253 5.13721C7.04438 2.58552 1.63428 8.58509 4.72688 13.6743L10.9919 23.9843L4.71788 34.324C1.62868 39.4151 7.04208 45.411 12.4213 42.8564L40.7438 29.406ZM10.7114 8.75142L39.0269 22.1791C40.5505 22.9016 40.5511 25.0694 39.0279 25.7928L10.7054 39.2432C8.91228 40.0947 7.10778 38.0961 8.13758 36.399L14.4116 26.0593C14.7987 25.4214 14.9921 24.7293 14.9919 23.983C14.9917 23.2368 14.7978 22.5449 14.4103 21.9071L8.14518 11.5971C7.11438 9.90071 8.91768 7.90086 10.7114 8.75142Z" fill-rule="evenodd"  fill="#787878" >
</path>
<path d="M14.4578 25.9812C14.8141 25.365 14.9921 24.6989 14.9919 23.983C14.9917 23.2656 14.8125 22.5983 14.4543 21.9812L25.2202 21.9812L25.2202 22.0121C26.2209 22.122 26.9995 22.9701 26.9995 24.0001C26.9995 25.1047 26.1041 26.0001 24.9995 26.0001C24.9058 26.0001 24.8137 25.9937 24.7234 25.9812L14.4578 25.9812Z" fill-rule="evenodd"  fill="#424242" >
</path>
</svg>
