<svg xmlns="http://www.w3.org/2000/svg" xmlns:xlink="http://www.w3.org/1999/xlink" width="48" height="48" viewBox="0 0 48 48" fill="none">
<path d="M40.59 20.41C40.95 20.78 41.45 21 42 21C43.1 21 44 20.1 44 19C44 18.45 43.78 17.95 43.41 17.59L43.41 17.58L30.41 4.59C30.05 4.22 29.55 4 29 4C27.9 4 27 4.9 27 6C27 6.55 27.22 7.05 27.59 7.41L29.4172 9.23722L21.4804 16.28C21.4804 16.28 21.4804 16.2727 21.4867 16.2706L7.6304 18.35C4.3804 18.83 3.0604 22.81 5.3904 25.13L12.7202 32.4598L4.59 40.59C4.22 40.95 4 41.45 4 42C4 43.1 4.9 44 6 44C6.55 44 7.05 43.78 7.41 43.41L15.5402 35.2798L22.8704 42.61C25.1904 44.94 29.1704 43.62 29.6504 40.38L31.7304 26.52L31.7204 26.52C31.7204 26.52 31.7204 26.51 31.7304 26.51L38.7632 18.5832L40.59 20.41ZM35.9264 15.7464L32.2536 12.0736L24.1504 19.26C23.5804 19.77 22.8604 20.11 22.0904 20.23L8.2204 22.31L25.6904 39.78L27.7704 25.9C27.8904 25.13 28.2204 24.42 28.7304 23.85L35.9264 15.7464Z" fill-rule="evenodd"  fill="#000000" >
</path>
</svg>
