<svg xmlns="http://www.w3.org/2000/svg" xmlns:xlink="http://www.w3.org/1999/xlink" width="48" height="48" viewBox="0 0 48 48" fill="none">
<path d="M15.83 4.65C18.43 3.55 21.15 3 24 3C26.85 3 29.57 3.55 32.17 4.65C34.69 5.71 36.91 7.21 38.85 9.15C40.79 11.09 42.29 13.31 43.35 15.83C44.45 18.43 45 21.15 45 24C45 26.85 44.45 29.57 43.35 32.17C42.29 34.69 40.79 36.91 38.85 38.85C36.91 40.79 34.69 42.29 32.17 43.35C29.57 44.45 26.85 45 24 45C21.15 45 18.43 44.45 15.83 43.35C13.31 42.29 11.09 40.79 9.15 38.85C7.21 36.91 5.71 34.69 4.65 32.17C3.55 29.57 3 26.85 3 24C3 21.15 3.55 18.43 4.65 15.83C5.71 13.31 7.21 11.09 9.15 9.15C11.09 7.21 13.31 5.71 15.83 4.65ZM8.34 17.39C9.2 15.35 10.41 13.55 11.98 11.98C13.55 10.41 15.35 9.2 17.39 8.34C19.49 7.45 21.69 7 24 7C26.31 7 28.51 7.45 30.61 8.34C32.65 9.2 34.45 10.41 36.02 11.98C37.59 13.55 38.8 15.35 39.66 17.39C40.55 19.49 41 21.69 41 24C41 26.31 40.55 28.51 39.66 30.61C38.8 32.65 37.59 34.45 36.02 36.02C34.45 37.59 32.65 38.8 30.61 39.66C28.51 40.55 26.31 41 24 41C21.69 41 19.49 40.55 17.39 39.66C15.35 38.8 13.55 37.59 11.98 36.02C10.41 34.45 9.2 32.65 8.34 30.61C7.45 28.51 7 26.31 7 24C7 21.69 7.45 19.49 8.34 17.39ZM20.0069 15.61C20.0171 15.67 20.0273 15.74 20.0376 15.8C20.0478 15.87 20.0478 15.93 20.0478 16L20.0478 22C20.0478 22.07 20.0478 22.13 20.0376 22.2C20.0273 22.26 20.0171 22.33 20.0069 22.39C19.9966 22.45 19.9761 22.52 19.9557 22.58C19.9352 22.64 19.9147 22.7 19.8942 22.77C19.8635 22.83 19.8328 22.88 19.8021 22.94C19.7714 23 19.7406 23.06 19.6997 23.11C19.669 23.17 19.628 23.22 19.5871 23.27C19.5359 23.32 19.4949 23.37 19.4437 23.41C19.4027 23.46 19.3516 23.5 19.3004 23.55C19.2492 23.59 19.198 23.63 19.1365 23.66C19.0853 23.7 19.0239 23.73 18.9625 23.76C18.9113 23.79 18.8498 23.82 18.7884 23.85C18.7167 23.87 18.6553 23.89 18.5939 23.91C18.5324 23.93 18.4607 23.95 18.3993 23.96C18.3379 23.97 18.2662 23.98 18.2048 23.99C18.1331 24 18.0717 24 18 24C17.9283 24 17.8669 24 17.7952 23.99C17.7338 23.98 17.6621 23.97 17.6007 23.96C17.5392 23.95 17.4675 23.93 17.4061 23.91C17.3447 23.89 17.2832 23.87 17.2116 23.85C17.1501 23.82 17.0887 23.79 17.0375 23.76C16.9761 23.73 16.9146 23.7 16.8634 23.66C16.802 23.63 16.7508 23.59 16.6996 23.55C16.6484 23.5 16.5972 23.46 16.5563 23.41C16.5051 23.37 16.4641 23.32 16.4129 23.27C16.372 23.22 16.331 23.17 16.3003 23.11C16.2593 23.06 16.2286 23 16.1979 22.94C16.1672 22.88 16.1365 22.83 16.1057 22.77C16.0853 22.7 16.0648 22.64 16.0443 22.58C16.0238 22.52 16.0033 22.45 15.9931 22.39C15.9829 22.33 15.9726 22.26 15.9624 22.2C15.9521 22.13 15.9521 22.07 15.9521 22L15.9521 16C15.9521 15.93 15.9521 15.87 15.9624 15.8C15.9726 15.74 15.9829 15.67 15.9931 15.61C16.0033 15.55 16.0238 15.48 16.0443 15.42C16.0648 15.36 16.0853 15.3 16.1057 15.23C16.1365 15.17 16.1672 15.11 16.1979 15.06C16.2286 15 16.2593 14.94 16.3003 14.89C16.331 14.83 16.372 14.78 16.4129 14.73C16.4641 14.68 16.5051 14.63 16.5563 14.59C16.5972 14.54 16.6484 14.5 16.6996 14.45C16.7508 14.41 16.802 14.37 16.8634 14.34C16.9146 14.3 16.9761 14.27 17.0375 14.24C17.0887 14.21 17.1501 14.18 17.2116 14.15C17.2832 14.13 17.3447 14.11 17.4061 14.09C17.4675 14.07 17.5392 14.05 17.6007 14.04C17.6621 14.03 17.7338 14.02 17.7952 14.01C17.8669 14 17.9283 14 18 14C18.0717 14 18.1331 14 18.2048 14.01C18.2662 14.02 18.3379 14.03 18.3993 14.04C18.4607 14.05 18.5324 14.07 18.5939 14.09C18.6553 14.11 18.7167 14.13 18.7884 14.15C18.8498 14.18 18.9113 14.21 18.9625 14.24C19.0239 14.27 19.0853 14.3 19.1365 14.34C19.198 14.37 19.2492 14.41 19.3004 14.45C19.3516 14.5 19.4027 14.54 19.4437 14.59C19.4949 14.63 19.5359 14.68 19.5871 14.73C19.628 14.78 19.669 14.83 19.6997 14.89C19.7406 14.94 19.7714 15 19.8021 15.06C19.8328 15.11 19.8635 15.17 19.8942 15.23C19.9147 15.3 19.9352 15.36 19.9557 15.42C19.9761 15.48 19.9966 15.55 20.0069 15.61ZM32.0059 15.61C32.0161 15.67 32.0264 15.74 32.0366 15.8C32.0468 15.87 32.0468 15.93 32.0468 16L32.0468 22C32.0468 22.07 32.0468 22.13 32.0366 22.2C32.0264 22.26 32.0161 22.33 32.0059 22.39C31.9956 22.45 31.9752 22.52 31.9547 22.58C31.9342 22.64 31.9137 22.7 31.8933 22.77C31.8625 22.83 31.8318 22.88 31.8011 22.94C31.7704 23 31.7397 23.06 31.6987 23.11C31.668 23.17 31.627 23.22 31.5861 23.27C31.5349 23.32 31.4939 23.37 31.4427 23.41C31.4018 23.46 31.3506 23.5 31.2994 23.55C31.2482 23.59 31.197 23.63 31.1356 23.66C31.0844 23.7 31.0229 23.73 30.9615 23.76C30.9103 23.79 30.8489 23.82 30.7874 23.85C30.7157 23.87 30.6543 23.89 30.5929 23.91C30.5314 23.93 30.4598 23.95 30.3983 23.96C30.3369 23.97 30.2652 23.98 30.2038 23.99C30.1321 24 30.0707 24 29.999 24C29.9273 24 29.8659 24 29.7942 23.99C29.7328 23.98 29.6611 23.97 29.5997 23.96C29.5382 23.95 29.4666 23.93 29.4051 23.91C29.3437 23.89 29.2823 23.87 29.2106 23.85C29.1492 23.82 29.0877 23.79 29.0365 23.76C28.9751 23.73 28.9137 23.7 28.8625 23.66C28.801 23.63 28.7498 23.59 28.6986 23.55C28.6474 23.5 28.5962 23.46 28.5553 23.41C28.5041 23.37 28.4631 23.32 28.4119 23.27C28.371 23.22 28.33 23.17 28.2993 23.11C28.2583 23.06 28.2276 23 28.1969 22.94C28.1662 22.88 28.1355 22.83 28.1048 22.77C28.0843 22.7 28.0638 22.64 28.0433 22.58C28.0228 22.52 28.0024 22.45 27.9921 22.39C27.9819 22.33 27.9717 22.26 27.9614 22.2C27.9512 22.13 27.9512 22.07 27.9512 22L27.9512 16C27.9512 15.93 27.9512 15.87 27.9614 15.8C27.9717 15.74 27.9819 15.67 27.9921 15.61C28.0024 15.55 28.0228 15.48 28.0433 15.42C28.0638 15.36 28.0843 15.3 28.1048 15.23C28.1355 15.17 28.1662 15.11 28.1969 15.06C28.2276 15 28.2583 14.94 28.2993 14.89C28.33 14.83 28.371 14.78 28.4119 14.73C28.4631 14.68 28.5041 14.63 28.5553 14.59C28.5962 14.54 28.6474 14.5 28.6986 14.45C28.7498 14.41 28.801 14.37 28.8625 14.34C28.9137 14.3 28.9751 14.27 29.0365 14.24C29.0877 14.21 29.1492 14.18 29.2106 14.15C29.2823 14.13 29.3437 14.11 29.4051 14.09C29.4666 14.07 29.5382 14.05 29.5997 14.04C29.6611 14.03 29.7328 14.02 29.7942 14.01C29.8659 14 29.9273 14 29.999 14C30.0707 14 30.1321 14 30.2038 14.01C30.2652 14.02 30.3369 14.03 30.3983 14.04C30.4598 14.05 30.5314 14.07 30.5929 14.09C30.6543 14.11 30.7157 14.13 30.7874 14.15C30.8489 14.18 30.9103 14.21 30.9615 14.24C31.0229 14.27 31.0844 14.3 31.1356 14.34C31.197 14.37 31.2482 14.41 31.2994 14.45C31.3506 14.5 31.4018 14.54 31.4427 14.59C31.4939 14.63 31.5349 14.68 31.5861 14.73C31.627 14.78 31.668 14.83 31.6987 14.89C31.7397 14.94 31.7704 15 31.8011 15.06C31.8318 15.11 31.8625 15.17 31.8933 15.23C31.9137 15.3 31.9342 15.36 31.9547 15.42C31.9752 15.48 31.9956 15.55 32.0059 15.61ZM14.65 30.27C14.6 30.14 14.56 30.02 14.54 29.89C14.51 29.76 14.5 29.63 14.5 29.5C14.5 29.43 14.5 29.37 14.51 29.3C14.52 29.24 14.53 29.17 14.54 29.11C14.55 29.05 14.57 28.98 14.59 28.92C14.61 28.86 14.63 28.8 14.65 28.73C14.68 28.67 14.71 28.61 14.74 28.56C14.77 28.5 14.8 28.44 14.84 28.39C14.87 28.33 14.91 28.28 14.95 28.23C15 28.18 15.04 28.13 15.09 28.09C15.13 28.04 15.18 28 15.23 27.95C15.28 27.91 15.33 27.87 15.39 27.84C15.44 27.8 15.5 27.77 15.56 27.74C15.61 27.71 15.67 27.68 15.73 27.65C15.8 27.63 15.86 27.61 15.92 27.59C15.98 27.57 16.05 27.55 16.11 27.54C16.17 27.53 16.24 27.52 16.3 27.51C16.37 27.5 16.43 27.5 16.5 27.5C16.63 27.5 16.76 27.51 16.89 27.54C17.02 27.56 17.14 27.6 17.27 27.65C17.39 27.7 17.5 27.76 17.61 27.84C17.72 27.91 17.82 27.99 17.91 28.09C18.11 28.28 18.38 28.5 18.74 28.74C19.18 29.05 19.66 29.33 20.17 29.57C21.48 30.19 22.75 30.5 24 30.5C25.25 30.5 26.52 30.19 27.83 29.57C28.34 29.33 28.82 29.05 29.26 28.74C29.62 28.5 29.89 28.28 30.09 28.09C30.18 27.99 30.28 27.91 30.39 27.84C30.5 27.76 30.61 27.7 30.73 27.65C30.86 27.6 30.98 27.56 31.11 27.54C31.24 27.51 31.37 27.5 31.5 27.5C31.57 27.5 31.63 27.5 31.7 27.51C31.76 27.52 31.83 27.53 31.89 27.54C31.95 27.55 32.02 27.57 32.08 27.59C32.14 27.61 32.2 27.63 32.27 27.65C32.33 27.68 32.38 27.71 32.44 27.74C32.5 27.77 32.56 27.8 32.61 27.84C32.67 27.87 32.72 27.91 32.77 27.95C32.82 28 32.87 28.04 32.91 28.09C32.96 28.13 33 28.18 33.05 28.23C33.09 28.28 33.13 28.33 33.16 28.39C33.2 28.44 33.23 28.5 33.26 28.56C33.29 28.61 33.32 28.67 33.35 28.73C33.37 28.8 33.39 28.86 33.41 28.92C33.43 28.98 33.45 29.05 33.46 29.11C33.47 29.17 33.48 29.24 33.49 29.3C33.5 29.37 33.5 29.43 33.5 29.5C33.5 29.63 33.49 29.76 33.46 29.89C33.44 30.02 33.4 30.14 33.35 30.27C33.3 30.39 33.24 30.5 33.16 30.61C33.09 30.72 33.01 30.82 32.91 30.91C32.55 31.28 32.08 31.66 31.53 32.04C30.91 32.46 30.25 32.85 29.55 33.18C27.7 34.06 25.85 34.5 24 34.5C22.15 34.5 20.3 34.06 18.45 33.18C17.75 32.85 17.09 32.46 16.47 32.04C15.92 31.66 15.45 31.28 15.09 30.91C14.99 30.82 14.91 30.72 14.84 30.61C14.76 30.5 14.7 30.39 14.65 30.27Z" fill-rule="evenodd"  fill="#000000" >
</path>
</svg>
