<svg xmlns="http://www.w3.org/2000/svg" xmlns:xlink="http://www.w3.org/1999/xlink" width="48" height="48" viewBox="0 0 48 48" fill="none">
<path d="M43.03 20.49C43.57 20.49 44.08 20.6 44.57 20.81C45.05 21.02 45.47 21.3 45.83 21.67C46.2 22.04 46.48 22.46 46.69 22.94C46.9 23.43 47 23.95 47 24.49L47 29.49C47 30.02 46.9 30.53 46.7 31.02C46.49 31.51 46.19 31.95 45.81 32.34C45.43 32.71 45 32.99 44.51 33.19C44.02 33.39 43.52 33.49 42.98 33.49L40.97 33.48C40.9 34.24 40.79 34.95 40.63 35.61C40.29 37.01 39.76 38.2 39.03 39.19C38.22 40.29 37.17 41.12 35.9 41.68C34.64 42.23 33.17 42.5 31.5 42.5L24 42.5C22.9 42.5 22 41.6 22 40.5C22 39.4 22.9 38.5 24 38.5L31.5 38.5C32.62 38.5 33.55 38.34 34.29 38.01C34.92 37.74 35.43 37.34 35.82 36.81C36.65 35.69 37.06 33.91 37.06 31.48L37.06 22.46C37.06 20.7 36.72 19.02 36.04 17.42C35.38 15.87 34.45 14.5 33.25 13.3C32.05 12.1 30.66 11.18 29.1 10.52C27.48 9.84 25.78 9.5 24 9.5C22.22 9.5 20.51 9.84 18.89 10.52C17.32 11.18 15.93 12.11 14.72 13.3C13.51 14.5 12.58 15.87 11.92 17.42C11.23 19.02 10.89 20.7 10.89 22.45L10.89 28.38C10.89 28.92 10.78 29.44 10.57 29.94C10.37 30.42 10.08 30.84 9.72 31.21C9.35 31.57 8.93 31.86 8.45 32.06C7.95 32.27 7.43 32.38 6.89 32.38L5 32.38C4.46 32.38 3.94 32.27 3.44 32.06C2.96 31.86 2.54 31.57 2.17 31.21C1.81 30.84 1.52 30.42 1.32 29.94C1.11 29.44 1 28.92 1 28.38L1 24.46C1 23.92 1.11 23.4 1.32 22.9C1.52 22.42 1.81 22 2.17 21.63C2.54 21.27 2.96 20.98 3.44 20.78C3.94 20.57 4.46 20.46 5 20.46L7.01 20.46C7.19 18.87 7.6 17.34 8.24 15.85C9.1 13.82 10.33 12.03 11.91 10.46C13.48 8.9 15.3 7.69 17.34 6.83C19.46 5.94 21.68 5.5 24 5.5C26.32 5.5 28.54 5.94 30.65 6.83C32.69 7.69 34.5 8.9 36.07 10.46C37.64 12.03 38.86 13.83 39.72 15.86C40.35 17.35 40.76 18.89 40.95 20.47L43.03 20.49Z"   fill="#000000" >
</path>
</svg>
