<svg xmlns="http://www.w3.org/2000/svg" xmlns:xlink="http://www.w3.org/1999/xlink" width="48" height="48" viewBox="0 0 48 48" fill="none">
<path d="M11.9937 19.4938C11.9937 20.5983 12.8891 21.4938 13.9937 21.4938L24.9937 21.4938C26.0983 21.4938 26.9937 20.5983 26.9937 19.4938C26.9937 18.3892 26.0983 17.4938 24.9937 17.4938L13.9937 17.4938C12.8891 17.4938 11.9937 18.3892 11.9937 19.4938Z" fill-rule="evenodd"  fill="#424242" >
</path>
<path d="M28.5921 31.4203C26.0685 33.3485 22.9149 34.4938 19.4937 34.4938C11.2094 34.4938 4.49365 27.7781 4.49365 19.4938C4.49365 11.2095 11.2094 4.49377 19.4937 4.49377C27.778 4.49377 34.4937 11.2095 34.4937 19.4938C34.4937 22.9148 33.3484 26.0683 31.4205 28.5919L42.9206 40.092C43.7016 40.873 43.7016 42.1394 42.9206 42.9204C42.1396 43.7014 40.8732 43.7014 40.0922 42.9204L28.5921 31.4203ZM30.4937 19.4938C30.4937 13.4186 25.5688 8.49377 19.4937 8.49377C13.4185 8.49377 8.49365 13.4186 8.49365 19.4938C8.49365 25.5689 13.4185 30.4938 19.4937 30.4938C25.5688 30.4938 30.4937 25.5689 30.4937 19.4938Z" fill-rule="evenodd"  fill="#787878" >
</path>
</svg>
