<svg xmlns="http://www.w3.org/2000/svg" xmlns:xlink="http://www.w3.org/1999/xlink" width="48" height="48" viewBox="0 0 48 48" fill="none">
<path d="M12 24C12 28.4183 15.5817 32 20 32L36 32C40.4183 32 44 28.4183 44 24L44 14C44 9.58172 40.4183 6 36 6L20 6C15.5817 6 12 9.58172 12 14L12 24ZM36 28L20 28C17.7909 28 16 26.2091 16 24L16 14C16 11.7909 17.7909 10 20 10L36 10C38.2091 10 40 11.7909 40 14L40 24C40 26.2091 38.2091 28 36 28Z" fill-rule="evenodd"  fill="#787878" >
</path>
<path d="M4 34C4 38.4183 7.58172 42 12 42L28 42C32.4183 42 36 38.4183 36 34L36 24C36 19.5817 32.4183 16 28 16L12 16C7.58172 16 4 19.5817 4 24L4 34ZM28 38L12 38C9.79086 38 8 36.2091 8 34L8 24C8 21.7909 9.79086 20 12 20L28 20C30.2091 20 32 21.7909 32 24L32 34C32 36.2091 30.2091 38 28 38Z" fill-rule="evenodd"  fill="#424242" >
</path>
</svg>
