<svg xmlns="http://www.w3.org/2000/svg" xmlns:xlink="http://www.w3.org/1999/xlink" width="48" height="48" viewBox="0 0 48 48" fill="none">
<path d="M22 6C18.69 6 16 8.69 16 12L16 16L38 16C41.31 16 44 18.69 44 22L44 38.84C44 42.15 41.31 44.84 38 44.84L10 44.84C6.69 44.84 4 42.15 4 38.84L4 22C4 18.69 6.69 16 10 16L12 16L12 12C12 6.48 16.48 2 22 2L24 2C26.9 2 29.2 2.42 30.89 3.27C31.74 3.7 32.5 4.25 33.16 4.92C33.71 5.48 34.23 6.16 34.72 6.97L34.7145 6.97333C34.8956 7.27391 35 7.62536 35 8C35 9.1 34.1 10 33 10C32.2484 10 31.5902 9.57982 31.2486 8.96275C30.9332 8.45415 30.6262 8.04576 30.31 7.72C29.96 7.37 29.56 7.08 29.11 6.85C27.97 6.28 26.27 6 24 6L22 6ZM10 40.84C8.9 40.84 8 39.94 8 38.84L8 22C8 20.9 8.9 20 10 20L38 20C39.1 20 40 20.9 40 22L40 38.84C40 39.94 39.1 40.84 38 40.84L10 40.84ZM26 34C26 35.1 25.1 36 24 36C22.9 36 22 35.1 22 34L22 26C22 24.9 22.9 24 24 24C25.1 24 26 24.9 26 26L26 34Z" fill-rule="evenodd"  fill="#000000" >
</path>
</svg>
