<svg xmlns="http://www.w3.org/2000/svg" xmlns:xlink="http://www.w3.org/1999/xlink" width="48" height="48" viewBox="0 0 48 48" fill="none">
<path d="M40 20L43.5286 23.5286C43.7889 23.7889 43.7889 24.2111 43.5286 24.4714L40 28L40 24L40 20Z"   fill="#424242" >
</path>
<path d="M38 26L38 28C38 29.7818 40.1543 30.6741 41.4142 29.4142L44.9428 25.8856C45.1979 25.6305 45.3931 25.3361 45.5284 25.0024C45.6587 24.6812 45.7239 24.347 45.7239 24C45.7239 23.6529 45.6587 23.3188 45.5284 22.9975C45.3931 22.6639 45.1979 22.3695 44.9428 22.1144L41.4142 18.5858C40.1543 17.3258 38 18.2182 38 20L38 22L30 22L30 26L38 26Z" fill-rule="evenodd"  fill="#424242" >
</path>
<path d="M22.4213 3.44846L8.4213 7.26664C7.77721 7.4423 7.17978 7.71718 6.62903 8.09129C6.09208 8.45601 5.62633 8.89667 5.23176 9.41326C4.83719 9.92984 4.53461 10.4951 4.32402 11.1091C4.10801 11.7389 4 12.3876 4 13.0552L4 34.9448C4 35.6124 4.10801 36.2611 4.32402 36.8909C4.53461 37.5049 4.83719 38.0702 5.23176 38.5868C5.62633 39.1034 6.09208 39.5441 6.62903 39.9087C7.17978 40.2829 7.77721 40.5578 8.4213 40.7334L22.4213 44.5516C26.2381 45.5925 30 42.7192 30 38.763L30 9.23704C30 5.2808 26.2381 2.4075 22.4213 3.44846ZM8.41059 11.8412C8.68431 11.4829 9.0387 11.2443 9.47377 11.1257L23.4738 7.30751C24.746 6.96053 26 7.91829 26 9.23704L26 38.763C26 40.0817 24.746 41.0395 23.4738 40.6925L9.47377 36.8743C9.0387 36.7557 8.68431 36.5172 8.41059 36.1588C8.13686 35.8004 8 35.3958 8 34.9448L8 13.0552C8 12.6043 8.13686 12.1996 8.41059 11.8412Z" fill-rule="evenodd"  fill="#787878" >
</path>
<path d="M29.9998 12L29.9998 9.23699C29.9998 8.81092 29.9562 8.39741 29.8735 8L29.9999 8C33.3136 8 35.9999 10.6863 35.9999 14L35.9999 19L31.9999 19L31.9999 14C31.9999 12.8954 31.1045 12 29.9999 12L29.9998 12ZM29.8735 40C29.9562 39.6026 29.9998 39.1891 29.9998 38.763L29.9998 36L29.9999 36C31.1045 36 31.9999 35.1046 31.9999 34L31.9999 29L35.9999 29L35.9999 34C35.9999 37.3137 33.3136 40 29.9999 40L29.8735 40Z" fill-rule="evenodd"  fill="#424242" >
</path>
<path d="M23 24C23 25.3807 21.8807 26.5 20.5 26.5C19.1193 26.5 18 25.3807 18 24C18 22.6193 19.1193 21.5 20.5 21.5C21.8807 21.5 23 22.6193 23 24Z"   fill="#787878" >
</path>
</svg>
