<svg xmlns="http://www.w3.org/2000/svg" xmlns:xlink="http://www.w3.org/1999/xlink" width="48" height="48" viewBox="0 0 48 48" fill="none">
<path d="M13 14C13 12.9 13.9 12 15 12C15.5746 12 16.0946 12.2456 16.4603 12.6369L16.4629 12.6345L29.0451 26.1166C29.6904 25.8732 30.3897 25.74 31.1202 25.74C34.3676 25.74 37.0002 28.3726 37.0002 31.62C37.0002 34.8674 34.3676 37.5 31.1202 37.5C27.8728 37.5 25.2402 34.8674 25.2402 31.62C25.2402 30.5656 25.5177 29.5761 26.0037 28.7204L13.5385 15.3637L13.5394 15.3628C13.2052 15.0049 13 14.5253 13 14ZM31.1202 33.5C30.0819 33.5 29.2402 32.6583 29.2402 31.62C29.2402 30.5817 30.0819 29.74 31.1202 29.74C32.1585 29.74 33.0002 30.5817 33.0002 31.62C33.0002 32.6583 32.1585 33.5 31.1202 33.5Z" fill-rule="evenodd"  fill="#787878" >
</path>
<path d="M11 7L17 7C18.1046 7 19 6.10457 19 5C19 3.89543 18.1046 3 17 3L11 3C6.58172 3 3 6.58172 3 11L3 17C3 18.1046 3.89543 19 5 19C6.10457 19 7 18.1046 7 17L7 11C7 8.79086 8.79086 7 11 7Z" fill-rule="evenodd"  fill="#787878" >
</path>
<path d="M11 41L17 41C18.1046 41 19 41.8954 19 43C19 44.1046 18.1046 45 17 45L11 45C6.58172 45 3 41.4183 3 37L3 31C3 29.8954 3.89543 29 5 29C6.10457 29 7 29.8954 7 31L7 37C7 39.2091 8.79086 41 11 41Z" fill-rule="evenodd"  fill="#787878" >
</path>
<path d="M37 7L31 7C29.8954 7 29 6.10457 29 5C29 3.89543 29.8954 3 31 3L37 3C41.4183 3 45 6.58172 45 11L45 17C45 18.1046 44.1046 19 43 19C41.8954 19 41 18.1046 41 17L41 11C41 8.79086 39.2091 7 37 7Z" fill-rule="evenodd"  fill="#787878" >
</path>
<path d="M37 41L31 41C29.8954 41 29 41.8954 29 43C29 44.1046 29.8954 45 31 45L37 45C41.4183 45 45 41.4183 45 37L45 31C45 29.8954 44.1046 29 43 29C41.8954 29 41 29.8954 41 31L41 37C41 39.2091 39.2091 41 37 41Z" fill-rule="evenodd"  fill="#787878" >
</path>
<path d="M31.5394 12.6372C31.9051 12.2457 32.4253 12 33 12C34.1 12 35 12.9 35 14C35 14.5254 34.7947 15.0052 34.4603 15.3631L34.4619 15.3646L21.9969 28.7211C22.4826 29.5766 22.76 30.5659 22.76 31.62C22.76 34.8674 20.1274 37.5 16.88 37.5C13.6326 37.5 11 34.8674 11 31.62C11 28.3726 13.6326 25.74 16.88 25.74C17.6108 25.74 18.3104 25.8733 18.9559 26.1169L31.5375 12.6354L31.5394 12.6372ZM18.76 31.62C18.76 32.6583 17.9183 33.5 16.88 33.5C15.8417 33.5 15 32.6583 15 31.62C15 30.5817 15.8417 29.74 16.88 29.74C17.9183 29.74 18.76 30.5817 18.76 31.62Z" fill-rule="evenodd"  fill="#424242" >
</path>
</svg>
