<svg xmlns="http://www.w3.org/2000/svg" xmlns:xlink="http://www.w3.org/1999/xlink" width="48" height="48" viewBox="0 0 48 48" fill="none">
<path d="M23.5 21L23.5 7L27.5 7L27.5 21L23.5 21ZM23.5 3C21.2909 3 19.5 4.79086 19.5 7L19.5 25L31.5 25L31.5 7C31.5 4.79086 29.7091 3 27.5 3L23.5 3Z" fill-rule="evenodd"  fill="#787878" >
</path>
<path d="M31.8713 31.5C31.8714 30.3954 32.7668 29.5 33.8713 29.5C34.9759 29.5 35.8713 30.3954 35.8713 31.5L35.8713 31.5C35.8713 32.9859 35.6937 34.4786 35.3384 35.9783C34.9729 37.5214 34.4547 38.9184 33.7838 40.169C33.0276 41.5789 32.1326 42.693 31.099 43.5113C29.8455 44.5038 28.4791 45 27 45L27 45C25.8954 45 25 44.1046 25 43C25 41.8954 25.8954 41 27 41C27.5513 41 28.09 40.7917 28.6161 40.3752C29.2163 39.9 29.7639 39.201 30.2589 38.2783C30.7651 37.3345 31.1609 36.2605 31.4461 35.0562C31.7296 33.8597 31.8713 32.6743 31.8713 31.5Z" fill-rule="evenodd"  fill="#787878" >
</path>
<path d="M35.1288 41L11.499 41C11.0902 41 10.7072 40.8793 10.3498 40.6379C9.96963 40.381 9.65351 40.021 9.40149 39.5579C9.13946 39.0764 8.9907 38.5654 8.9552 38.0251C8.92 37.4895 9.00413 37.001 9.20758 36.5596C10.314 34.1591 11.1354 31.7635 11.6719 29.3729C11.8099 28.758 12.034 28.177 12.3441 27.6299C12.6499 27.0906 13.0182 26.6213 13.4491 26.2219C13.8753 25.8269 14.3368 25.5254 14.8335 25.3172C15.338 25.1057 15.8602 25 16.4 25L37.0001 25C37.751 25 38.3151 25.1412 38.6923 25.4235C39.0197 25.6686 39.2826 26.0837 39.4812 26.6689C39.7033 27.3236 39.8517 28.2168 39.9264 29.3488C39.9756 30.0945 40.0001 31.3115 40.0001 33C40.0001 34.1432 39.8626 35.2334 39.5878 36.2705C39.322 37.2733 38.9493 38.1461 38.4698 38.8889C38.0165 39.591 37.5021 40.1218 36.9266 40.4815C36.3732 40.8272 35.774 41 35.1288 41ZM8.11055 43.9523C9.14433 44.6508 10.2738 45 11.499 45L35.1288 45C36.5386 45 37.8443 44.6246 39.0461 43.8738C40.1263 43.1989 41.0544 42.2604 41.8304 41.0584C42.539 39.9607 43.0803 38.7063 43.4543 37.2952C43.8181 35.9224 44 34.4907 44.0001 33C44.0001 32.1181 43.9967 31.4609 43.9901 31.0284C43.9788 30.2936 43.9547 29.646 43.9177 29.0855C43.8199 27.604 43.6037 26.3701 43.2691 25.3838C42.805 24.0158 42.0784 22.9616 41.0893 22.2213C40.0016 21.4071 38.6385 21 37.0001 21L16.4 21C15.324 21 14.2864 21.2094 13.2873 21.6281C12.3552 22.0188 11.5028 22.5721 10.7303 23.288C9.99601 23.9685 9.37405 24.7582 8.8644 25.6572C8.35888 26.549 7.99375 27.4955 7.76901 28.497C7.29437 30.6119 6.56299 32.7414 5.57486 34.8853C5.08788 35.9419 4.8842 37.0759 4.9638 38.2874C5.03774 39.4126 5.34581 40.4734 5.88802 41.4698C6.45079 42.504 7.19163 43.3315 8.11055 43.9523Z" fill-rule="evenodd"  fill="#424242" >
</path>
</svg>
