<svg xmlns="http://www.w3.org/2000/svg" xmlns:xlink="http://www.w3.org/1999/xlink" width="48" height="48" viewBox="0 0 48 48" fill="none">
<path d="M43.3205 30.5359L43.3205 17.4641C43.3205 16.0351 42.9632 14.7017 42.2487 13.4641C41.5342 12.2265 40.5581 11.2504 39.3205 10.5359L28 4.00002C26.7624 3.28549 25.4291 2.92822 24 2.92822C22.5709 2.92822 21.2376 3.28549 20 4.00002L8.67949 10.5359C7.44189 11.2504 6.46582 12.2265 5.75129 13.4641C5.03676 14.7017 4.67949 16.0351 4.67949 17.4641L4.67949 30.5359C4.67949 31.965 5.03676 33.2983 5.75129 34.5359C6.46581 35.7735 7.44188 36.7496 8.67949 37.4641L20 44C21.2376 44.7146 22.5709 45.0718 24 45.0718C25.4291 45.0718 26.7624 44.7146 28 44L39.3205 37.4641C40.5581 36.7496 41.5342 35.7735 42.2487 34.5359C42.9632 33.2983 43.3205 31.965 43.3205 30.5359ZM38.7846 15.4641C39.1419 16.0829 39.3205 16.7496 39.3205 17.4641L39.3205 30.5359C39.3205 31.2505 39.1419 31.9171 38.7846 32.5359C38.4273 33.1547 37.9393 33.6428 37.3205 34L26 40.5359C25.3812 40.8932 24.7145 41.0718 24 41.0718C23.2855 41.0718 22.6188 40.8932 22 40.5359L10.6795 34C10.0607 33.6428 9.57265 33.1547 9.21539 32.5359C8.85812 31.9171 8.67949 31.2505 8.67949 30.5359L8.67949 17.4641C8.67949 16.7496 8.85812 16.0829 9.21539 15.4641C9.57265 14.8453 10.0607 14.3573 10.6795 14L22 7.46412C22.6188 7.10686 23.2855 6.92822 24 6.92822C24.7145 6.92822 25.3812 7.10686 26 7.46412L37.3205 14C37.9393 14.3573 38.4273 14.8453 38.7846 15.4641Z" fill-rule="evenodd"  fill="#787878" >
</path>
<path d="M24 33C28.9706 33 33 28.9706 33 24C33 19.0294 28.9706 15 24 15C19.0294 15 15 19.0294 15 24C15 28.9706 19.0294 33 24 33ZM24 19C26.7614 19 29 21.2386 29 24C29 26.7614 26.7614 29 24 29C21.2386 29 19 26.7614 19 24C19 21.2386 21.2386 19 24 19Z" fill-rule="evenodd"  fill="#424242" >
</path>
</svg>
