<svg xmlns="http://www.w3.org/2000/svg" xmlns:xlink="http://www.w3.org/1999/xlink" width="48" height="48" viewBox="0 0 48 48" fill="none">
<path d="M40.9999 4.75006C39.8954 4.75009 39 5.64554 39 6.75011L39.001 41.2501C39.001 42.3547 39.8965 43.2501 41.001 43.2501C42.1056 43.25 43.001 42.3546 43.001 41.25L43 6.75C43 5.64543 42.1045 4.75003 40.9999 4.75006Z" fill-rule="evenodd"  fill="#787878" >
</path>
<path d="M18 43.0525L39 30.9281C44.3333 27.8489 44.3333 20.1509 39 17.0717L18 4.94738C12.6667 1.86818 6 5.71718 6 11.8755L6 36.1243C6 42.2827 12.6667 46.1317 18 43.0525ZM37 20.5358C39.6667 22.0754 39.6667 25.9244 37 27.464L16 39.5884C13.3333 41.128 10 39.2035 10 36.1243L10 11.8755C10 8.79634 13.3333 6.87188 16 8.41144L37 20.5358Z" fill-rule="evenodd"  fill="#424242" >
</path>
</svg>
