<svg xmlns="http://www.w3.org/2000/svg" xmlns:xlink="http://www.w3.org/1999/xlink" width="48" height="48" viewBox="0 0 48 48" fill="none">
<path d="M25.15 21.7624L25.24 21.9424C25.27 22.0024 25.3 22.0524 25.34 22.1124C25.37 22.1624 25.41 22.2224 25.45 22.2724C25.5 22.3224 25.54 22.3724 25.59 22.4124C25.63 22.4624 25.68 22.5024 25.73 22.5424C25.78 22.5924 25.83 22.6224 25.89 22.6624C25.94 22.7024 26 22.7324 26.06 22.7624C26.11 22.7924 26.17 22.8224 26.23 22.8524C26.29 22.8724 26.36 22.8924 26.42 22.9124C26.48 22.9324 26.55 22.9524 26.61 22.9624C26.67 22.9724 26.74 22.9824 26.8 22.9924C26.87 22.9924 26.93 23.0024 27 23.0024C27.06 23.0024 27.13 22.9924 27.2 22.9924C27.26 22.9824 27.32 22.9724 27.39 22.9624C27.45 22.9524 27.52 22.9324 27.58 22.9124L27.76 22.8524L27.94 22.7624C28 22.7324 28.06 22.7024 28.11 22.6624C28.16 22.6324 28.22 22.5924 28.27 22.5424C28.32 22.5024 28.37 22.4624 28.41 22.4124L41.0012 9.82117L41.0012 20.06C41.0012 20.12 41.0012 20.19 41.0112 20.25C41.0112 20.32 41.0212 20.38 41.0412 20.45C41.0512 20.51 41.0712 20.58 41.0812 20.64C41.1012 20.7 41.1312 20.76 41.1512 20.82C41.1812 20.88 41.2012 20.94 41.2312 21C41.2712 21.06 41.3012 21.12 41.3412 21.17C41.3712 21.22 41.4112 21.28 41.4512 21.33C41.4912 21.38 41.5412 21.43 41.5812 21.47C41.6312 21.52 41.6812 21.56 41.7312 21.6C41.7812 21.65 41.8312 21.69 41.8912 21.72C41.9412 21.76 42.0012 21.79 42.0612 21.82C42.1112 21.85 42.1712 21.88 42.2312 21.91C42.2912 21.93 42.3612 21.95 42.4212 21.97C42.4812 21.99 42.5412 22.01 42.6112 22.02C42.6712 22.03 42.7412 22.04 42.8012 22.05C42.8712 22.06 42.9312 22.06 43.0012 22.06C43.0612 22.06 43.1312 22.06 43.1912 22.05C43.2612 22.04 43.3212 22.03 43.3912 22.02C43.4512 22.01 43.5212 21.99 43.5812 21.97L43.7612 21.91L43.9412 21.82C44.0012 21.79 44.0612 21.76 44.1112 21.72C44.1612 21.69 44.2212 21.65 44.2712 21.61C44.3212 21.56 44.3712 21.52 44.4112 21.47C44.4612 21.43 44.5012 21.38 44.5412 21.33C44.5912 21.28 44.6212 21.22 44.6612 21.17C44.7012 21.12 44.7312 21.06 44.7612 21C44.7912 20.94 44.8212 20.89 44.8512 20.83C44.8712 20.76 44.8912 20.7 44.9112 20.64C44.9312 20.58 44.9512 20.51 44.9612 20.45C44.9712 20.39 44.9812 20.32 44.9912 20.26C45.0012 20.19 45.0012 20.13 45.0012 20.06L45.0012 8C45.0012 7.32 44.8712 6.67 44.6112 6.05C44.3512 5.45 44.0012 4.92 43.5412 4.46C43.0812 4 42.5512 3.65 41.9512 3.39C41.3312 3.13 40.6812 3 40.0012 3L27.9412 3C27.8712 3 27.8112 3 27.7412 3.01C27.6812 3.02 27.6112 3.03 27.5512 3.04C27.4912 3.05 27.4212 3.07 27.3612 3.09C27.3012 3.11 27.2412 3.13 27.1712 3.15C27.1112 3.18 27.0512 3.21 27.0012 3.24C26.9412 3.27 26.8812 3.3 26.8312 3.34C26.7712 3.37 26.7212 3.41 26.6712 3.45C26.6212 3.5 26.5712 3.54 26.5312 3.59C26.4812 3.63 26.4412 3.68 26.3912 3.73C26.3512 3.78 26.3112 3.83 26.2812 3.89C26.2412 3.94 26.2112 4 26.1812 4.06C26.1512 4.11 26.1212 4.17 26.0912 4.23C26.0712 4.3 26.0512 4.36 26.0312 4.42C26.0112 4.48 25.9912 4.55 25.9812 4.61C25.9712 4.67 25.9612 4.74 25.9512 4.8C25.9412 4.87 25.9412 4.93 25.9412 5C25.9412 5.07 25.9412 5.13 25.9512 5.2C25.9612 5.26 25.9712 5.33 25.9812 5.39C25.9912 5.45 26.0112 5.52 26.0312 5.58C26.0512 5.64 26.0712 5.7 26.0912 5.77C26.1212 5.83 26.1512 5.89 26.1812 5.94C26.2112 6 26.2412 6.06 26.2812 6.11C26.3112 6.17 26.3512 6.22 26.3912 6.27C26.4412 6.32 26.4812 6.37 26.5312 6.41C26.5712 6.46 26.6212 6.5 26.6712 6.55C26.7212 6.59 26.7712 6.63 26.8312 6.66C26.8812 6.7 26.9412 6.73 27.0012 6.76C27.0512 6.79 27.1112 6.82 27.1712 6.85C27.2412 6.87 27.3012 6.89 27.3612 6.91C27.4212 6.93 27.4912 6.95 27.5512 6.96C27.6112 6.97 27.6812 6.98 27.7412 6.99C27.8112 7 27.8712 7 27.9412 7L38.174 7L30.3 14.8824L25.59 19.5824C25.54 19.6324 25.5 19.6824 25.45 19.7324C25.41 19.7824 25.37 19.8324 25.34 19.8924C25.3 19.9424 25.27 20.0024 25.24 20.0524L25.15 20.2324C25.13 20.2924 25.11 20.3524 25.09 20.4224C25.07 20.4824 25.05 20.5424 25.04 20.6124C25.03 20.6724 25.02 20.7424 25.01 20.8024C25 20.8724 25 20.9324 25 21.0024C25 21.0624 25 21.1324 25.01 21.1924C25.02 21.2624 25.03 21.3224 25.04 21.3924C25.05 21.4524 25.07 21.5224 25.09 21.5824L25.15 21.7624ZM20.4224 25.09C20.3524 25.11 20.2924 25.13 20.2324 25.15L20.0524 25.24C20.0024 25.27 19.9424 25.3 19.8924 25.34C19.8324 25.37 19.7824 25.41 19.7324 25.45C19.6824 25.5 19.6324 25.54 19.5824 25.59L14.8824 30.3L7 38.174L7 27.9412C7 27.8712 7 27.8112 6.99 27.7412C6.98 27.6812 6.97 27.6112 6.96 27.5512C6.95 27.4912 6.93 27.4212 6.91 27.3612C6.89 27.3012 6.87 27.2412 6.85 27.1712C6.82 27.1112 6.79 27.0512 6.76 27.0012C6.73 26.9412 6.7 26.8812 6.66 26.8312C6.63 26.7712 6.59 26.7212 6.55 26.6712C6.5 26.6212 6.46 26.5712 6.41 26.5312C6.37 26.4812 6.32 26.4412 6.27 26.3912C6.22 26.3512 6.17 26.3112 6.11 26.2812C6.06 26.2412 6 26.2112 5.94 26.1812C5.89 26.1512 5.83 26.1212 5.77 26.0912C5.7 26.0712 5.64 26.0512 5.58 26.0312C5.52 26.0112 5.45 25.9912 5.39 25.9812C5.33 25.9712 5.26 25.9612 5.2 25.9512C5.13 25.9412 5.07 25.9412 5 25.9412C4.93 25.9412 4.87 25.9412 4.8 25.9512C4.74 25.9612 4.67 25.9712 4.61 25.9812C4.55 25.9912 4.48 26.0112 4.42 26.0312C4.36 26.0512 4.3 26.0712 4.23 26.0912C4.17 26.1212 4.11 26.1512 4.06 26.1812C4 26.2112 3.94 26.2412 3.89 26.2812C3.83 26.3112 3.78 26.3512 3.73 26.3912C3.68 26.4412 3.63 26.4812 3.59 26.5312C3.54 26.5712 3.5 26.6212 3.45 26.6712C3.41 26.7212 3.37 26.7712 3.34 26.8312C3.3 26.8812 3.27 26.9412 3.24 27.0012C3.21 27.0512 3.18 27.1112 3.15 27.1712C3.13 27.2412 3.11 27.3012 3.09 27.3612C3.07 27.4212 3.05 27.4912 3.04 27.5512C3.03 27.6112 3.02 27.6812 3.01 27.7412C3 27.8112 3 27.8712 3 27.9412L3 40.0012C3 40.6812 3.13 41.3312 3.39 41.9512C3.65 42.5512 4 43.0812 4.46 43.5412C4.92 44.0012 5.45 44.3512 6.05 44.6112C6.67 44.8712 7.32 45.0012 8 45.0012L20.06 45.0012C20.13 45.0012 20.19 45.0012 20.26 44.9912C20.32 44.9812 20.39 44.9712 20.45 44.9612C20.51 44.9512 20.58 44.9312 20.64 44.9112C20.7 44.8912 20.76 44.8712 20.83 44.8512C20.89 44.8212 20.94 44.7912 21 44.7612C21.06 44.7312 21.12 44.7012 21.17 44.6612C21.22 44.6212 21.28 44.5912 21.33 44.5412C21.38 44.5012 21.43 44.4612 21.47 44.4112C21.52 44.3712 21.56 44.3212 21.61 44.2712C21.65 44.2212 21.69 44.1612 21.72 44.1112C21.76 44.0612 21.79 44.0012 21.82 43.9412L21.91 43.7612L21.97 43.5812C21.99 43.5212 22.01 43.4512 22.02 43.3912C22.03 43.3212 22.04 43.2612 22.05 43.1912C22.06 43.1312 22.06 43.0612 22.06 43.0012C22.06 42.9312 22.06 42.8712 22.05 42.8012C22.04 42.7412 22.03 42.6712 22.02 42.6112C22.01 42.5412 21.99 42.4812 21.97 42.4212C21.95 42.3612 21.93 42.2912 21.91 42.2312C21.88 42.1712 21.85 42.1112 21.82 42.0612C21.79 42.0012 21.76 41.9412 21.72 41.8912C21.69 41.8312 21.65 41.7812 21.6 41.7312C21.56 41.6812 21.52 41.6312 21.47 41.5812C21.43 41.5412 21.38 41.4912 21.33 41.4512C21.28 41.4112 21.22 41.3712 21.17 41.3412C21.12 41.3012 21.06 41.2712 21 41.2312C20.94 41.2012 20.88 41.1812 20.82 41.1512C20.76 41.1312 20.7 41.1012 20.64 41.0812C20.58 41.0712 20.51 41.0512 20.45 41.0412C20.38 41.0212 20.32 41.0112 20.25 41.0112C20.19 41.0012 20.12 41.0012 20.06 41.0012L9.82117 41.0012L22.4124 28.41C22.4624 28.37 22.5024 28.32 22.5424 28.27C22.5924 28.22 22.6324 28.16 22.6624 28.11C22.7024 28.06 22.7324 28 22.7624 27.94L22.8524 27.76L22.9124 27.58C22.9324 27.52 22.9524 27.45 22.9624 27.39C22.9724 27.32 22.9824 27.26 22.9924 27.2C22.9924 27.13 23.0024 27.06 23.0024 27C23.0024 26.93 22.9924 26.87 22.9924 26.8C22.9824 26.74 22.9724 26.67 22.9624 26.61C22.9524 26.55 22.9324 26.48 22.9124 26.42C22.8924 26.36 22.8724 26.29 22.8524 26.23C22.8224 26.17 22.7924 26.11 22.7624 26.06C22.7324 26 22.7024 25.94 22.6624 25.89C22.6224 25.83 22.5924 25.78 22.5424 25.73C22.5024 25.68 22.4624 25.63 22.4124 25.59C22.3724 25.54 22.3224 25.5 22.2724 25.45C22.2224 25.41 22.1624 25.37 22.1124 25.34C22.0524 25.3 22.0024 25.27 21.9424 25.24L21.7624 25.15L21.5824 25.09C21.5224 25.07 21.4524 25.05 21.3924 25.04C21.3224 25.03 21.2624 25.02 21.1924 25.01C21.1324 25 21.0624 25 21.0024 25C20.9324 25 20.8724 25 20.8024 25.01C20.7424 25.02 20.6724 25.03 20.6124 25.04C20.5424 25.05 20.4824 25.07 20.4224 25.09Z" fill-rule="evenodd"  fill="#000000" >
</path>
</svg>
