<svg xmlns="http://www.w3.org/2000/svg" xmlns:xlink="http://www.w3.org/1999/xlink" width="48" height="48" viewBox="0 0 48 48" fill="none">
<path d="M22.001 10.0771L13.41 18.66C13.05 19.03 12.55 19.25 12 19.25C10.9 19.25 10 18.35 10 17.25C10 16.7 10.22 16.2 10.59 15.84L21.18 5.25003C22.74 3.69003 25.26 3.69003 26.82 5.25003L37.41 15.83L37.41 15.84C37.78 16.2 38 16.7 38 17.25C38 18.35 37.1 19.25 36 19.25C35.45 19.25 34.95 19.03 34.59 18.66L34.58 18.66L26.001 10.081L26.001 34.0001C26.001 35.1001 25.101 36.0001 24.001 36.0001C22.901 36.0001 22.001 35.1001 22.001 34.0001L22.001 10.0771ZM12 44C7.58 44 4 40.42 4 36L4 26C4 24.9 4.9 24 6 24C7.1 24 8 24.9 8 26L8 36C8 38.21 9.79 40 12 40L36 40C38.21 40 40 38.21 40 36L40 26C40 24.9 40.9 24 42 24C43.1 24 44 24.9 44 26L44 36C44 40.42 40.42 44 36 44L12 44Z" fill-rule="evenodd"  fill="#000000" >
</path>
</svg>
