<svg xmlns="http://www.w3.org/2000/svg" xmlns:xlink="http://www.w3.org/1999/xlink" width="48" height="48" viewBox="0 0 48 48" fill="none">
<path d="M8 39L8 16.51L12.6187 8.0423C12.794 7.72104 13.0389 7.46701 13.3536 7.2802C13.6683 7.0934 14.0086 7 14.3745 7L33.6255 7C33.9914 7 34.3317 7.0934 34.6464 7.2802C34.9611 7.467 35.206 7.72103 35.3813 8.0423L40 16.51L40 39C40 40.1046 39.1046 41 38 41L10 41C8.89543 41 8 40.1046 8 39ZM4.48842 14.5946C4.16281 15.1915 4 15.83 4 16.51L4 39C4 42.3137 6.68629 45 10 45L38 45C41.3137 45 44 42.3137 44 39L44 16.51C44 15.83 43.8372 15.1915 43.5116 14.5946L38.8928 6.12689C38.3671 5.16311 37.6323 4.40101 36.6883 3.84061C35.7442 3.2802 34.7233 3 33.6255 3L14.3745 3C13.2767 3 12.2558 3.2802 11.3118 3.84061C10.3677 4.40101 9.63286 5.16311 9.10716 6.12689L4.48842 14.5946Z" fill-rule="evenodd"  fill="#787878" >
</path>
<path d="M6 14L42 14L42 18L6 18L6 14Z" fill-rule="evenodd"  fill="#787878" >
</path>
<path d="M26 25C26 26.1046 25.1046 27 24 27C22.8954 27 22 26.1046 22 25C22 23.8954 22.8954 23 24 23C25.1046 23 26 23.8954 26 25Z"   fill="#424242" >
</path>
<path d="M26.0001 30L28.0001 30C29.7819 30 30.6742 32.1543 29.4143 33.4142L25.8857 36.9428C25.6306 37.1979 25.3362 37.3931 25.0026 37.5284C24.6813 37.6587 24.3472 37.7239 24.0001 37.7239C23.653 37.7239 23.3189 37.6587 22.9977 37.5284C22.664 37.3931 22.3696 37.1979 22.1145 36.9428L18.5859 33.4142C17.326 32.1543 18.2183 30 20.0001 30L22.0001 30L22.0001 25L26.0001 25L26.0001 30Z" fill-rule="evenodd"  fill="#424242" >
</path>
</svg>
