<svg xmlns="http://www.w3.org/2000/svg" xmlns:xlink="http://www.w3.org/1999/xlink" width="48" height="48" viewBox="0 0 48 48" fill="none">
<path d="M12 3C8.68629 3 6 5.68629 6 9L6 37.0467C6 43.3659 12.982 47.1904 18.3071 43.7882L22.9232 40.8391C23.2515 40.6293 23.6105 40.5244 24 40.5244C24.3895 40.5244 24.7485 40.6293 25.0768 40.8391L29.6929 43.7882C35.018 47.1904 42 43.3659 42 37.0467L42 9C42 5.68629 39.3137 3 36 3L12 3ZM10 37.0467L10 9C10 7.89543 10.8954 7 12 7L36 7C37.1046 7 38 7.89543 38 9L38 37.0467C38 40.2063 34.509 42.1185 31.8464 40.4174L27.2303 37.4683C26.2454 36.839 25.1687 36.5244 24 36.5244C22.8313 36.5244 21.7546 36.839 20.7697 37.4683L16.1536 40.4174C13.491 42.1185 10 40.2063 10 37.0467Z" fill-rule="evenodd"  fill="#787878" >
</path>
<path d="M14 22C14 23.1046 14.8954 24 16 24L32 24C33.1046 24 34 23.1046 34 22C34 20.8954 33.1046 20 32 20L16 20C14.8954 20 14 20.8954 14 22Z" fill-rule="evenodd"  fill="#424242" >
</path>
<path d="M24 12C22.8954 12 22 12.8954 22 14L22 30C22 31.1046 22.8954 32 24 32C25.1046 32 26 31.1046 26 30L26 14C26 12.8954 25.1046 12 24 12Z" fill-rule="evenodd"  fill="#424242" >
</path>
</svg>
