<svg xmlns="http://www.w3.org/2000/svg" xmlns:xlink="http://www.w3.org/1999/xlink" width="48" height="48" viewBox="0 0 48 48" fill="none">
<path d="M19.5878 44.9566C20.6687 45.1842 21.7294 44.4926 21.957 43.4117L29.9607 5.4094C30.1884 4.32851 29.4967 3.2678 28.4158 3.04016C27.335 2.81252 26.2742 3.50416 26.0466 4.58505L18.0429 42.5874C17.8153 43.6682 18.5069 44.729 19.5878 44.9566Z" fill-rule="evenodd"  fill="#4187FF" >
</path>
<path d="M29.9571 5.40925L25.965 24.3718C25.7896 25.2973 24.9765 25.9972 24 25.9972C22.8954 25.9972 22 25.1018 22 23.9972C22 23.8413 22.0178 23.6895 22.0516 23.5439L26.0429 4.58521L29.9571 5.40925Z" fill-rule="evenodd"  fill="#1764FF" >
</path>
<path d="M13 42.9922C13.0001 44.0968 13.8957 44.9921 15.0002 44.9919L25.0002 44.9907C26.1048 44.9906 27.0001 44.095 27 42.9905C26.9999 41.8859 26.1044 40.9906 24.9998 40.9907L14.9998 40.9919C13.8952 40.9921 12.9999 41.8876 13 42.9922Z" fill-rule="evenodd"  fill="#4187FF" >
</path>
<path d="M21 5.00732C21.0001 6.11189 21.8957 7.00722 23.0002 7.00708L33.0002 7.00586C34.1048 7.00572 35.0001 6.11019 35 5.00562C34.9999 3.90105 34.1044 3.00572 32.9998 3.00586L22.9998 3.00708C21.8952 3.00722 20.9999 3.90275 21 5.00732Z" fill-rule="evenodd"  fill="#1764FF" >
</path>
</svg>
