<svg xmlns="http://www.w3.org/2000/svg" xmlns:xlink="http://www.w3.org/1999/xlink" width="48" height="48" viewBox="0 0 48 48" fill="none">
<path d="M7.47 32.66C7.77 31.95 8.2 31.31 8.76 30.76C9.31 30.2 9.95 29.77 10.66 29.47C11.41 29.16 12.18 29 13 29C13.82 29 14.59 29.16 15.34 29.47C16.05 29.77 16.69 30.2 17.24 30.76C17.8 31.31 18.23 31.95 18.53 32.66C18.84 33.41 19 34.18 19 35C19 35.82 18.84 36.59 18.53 37.34C18.23 38.05 17.8 38.69 17.24 39.24C16.69 39.8 16.05 40.23 15.34 40.53C14.59 40.84 13.82 41 13 41C12.18 41 11.41 40.84 10.66 40.53C9.95 40.23 9.31 39.8 8.76 39.24C8.2 38.69 7.77 38.05 7.47 37.34C7.16 36.59 7 35.82 7 35C7 34.18 7.16 33.41 7.47 32.66ZM36.2186 17.2448C36.1186 16.9948 35.9686 16.7748 35.7786 16.5848L35.0186 15.8048L29.8386 20.9848L30.6086 21.7548C30.7886 21.9448 31.0086 22.0848 31.2586 22.1848C31.4986 22.2848 31.7586 22.3448 32.0286 22.3448C32.2886 22.3448 32.5386 22.2848 32.7786 22.1848C33.0286 22.0848 33.2486 21.9348 33.4386 21.7448L35.7786 19.3948C35.9686 19.2048 36.1086 18.9848 36.2086 18.7448C36.3086 18.5048 36.3586 18.2548 36.3586 17.9948C36.3586 17.7348 36.3086 17.4848 36.2186 17.2448ZM16.89 25.79C15.65 25.26 14.36 25 13 25C11.64 25 10.35 25.26 9.11 25.79C7.91 26.29 6.85 27.01 5.93 27.93C5.01 28.85 4.29 29.91 3.79 31.11C3.26 32.35 3 33.64 3 35C3 36.36 3.26 37.65 3.79 38.89C4.29 40.09 5.01 41.15 5.93 42.07C6.85 42.99 7.91 43.71 9.11 44.21C10.35 44.74 11.64 45 13 45C14.36 45 15.65 44.74 16.89 44.21C18.09 43.71 19.15 42.99 20.07 42.07C20.99 41.15 21.71 40.09 22.21 38.89C22.74 37.65 23 36.36 23 35C23 33.64 22.74 32.35 22.21 31.11C21.9713 30.5371 21.6824 29.9961 21.3456 29.487L27.0086 23.8148L27.7786 24.5848C28.3386 25.1448 28.9886 25.5848 29.7286 25.8848C30.4686 26.1848 31.2286 26.3448 32.0286 26.3448C32.8186 26.3448 33.5886 26.1848 34.3286 25.8748C35.0586 25.5748 35.7086 25.1348 36.2686 24.5748L38.6086 22.2248C39.1786 21.6448 39.6186 20.9848 39.9186 20.2448C40.2086 19.5248 40.3586 18.7748 40.3586 17.9948C40.3586 17.2248 40.2186 16.4748 39.9286 15.7548C39.6286 15.0048 39.1986 14.3448 38.6286 13.7748L37.8386 12.9848L43.4186 7.41477L43.4144 7.41058C43.7758 7.04823 44 6.54903 44 6C44 4.9 43.1 4 42 4C41.451 4 40.9518 4.22421 40.5894 4.58558L40.5886 4.58477L35.0386 10.1348L35.0286 10.1348L25.5886 19.5748L24.1686 20.9948L18.5162 26.6565C18.0062 26.3188 17.4641 26.0292 16.89 25.79Z" fill-rule="evenodd"  fill="#000000" >
</path>
</svg>
