<svg xmlns="http://www.w3.org/2000/svg" xmlns:xlink="http://www.w3.org/1999/xlink" width="48" height="48" viewBox="0 0 48 48" fill="none">
<path d="M14.2 5.34998C14.2 4.10998 15.21 3.09998 16.45 3.09998C17.69 3.09998 18.7 4.10998 18.7 5.34998C18.7 6.58998 17.69 7.59998 16.45 7.59998C15.21 7.59998 14.2 6.58998 14.2 5.34998ZM6 9.19998C5.93 9.19998 5.87 9.19998 5.8 9.20998C5.74 9.21998 5.67 9.22998 5.61 9.23997C5.55 9.24998 5.48 9.26998 5.42 9.28998C5.36 9.30998 5.3 9.32998 5.23 9.34998C5.17 9.37998 5.11 9.40998 5.06 9.43998C5 9.46998 4.94 9.49998 4.89 9.53998C4.83 9.56997 4.78 9.60998 4.73 9.64998C4.68 9.69998 4.63 9.73997 4.59 9.78998C4.54 9.82998 4.5 9.87998 4.45 9.92998C4.41 9.97998 4.37 10.03 4.34 10.09C4.3 10.14 4.27 10.2 4.24 10.26C4.21 10.31 4.18 10.37 4.15 10.43C4.13 10.5 4.11 10.56 4.09 10.62C4.07 10.68 4.05 10.75 4.04 10.81C4.03 10.87 4.02 10.94 4.01 11C4 11.07 4 11.13 4 11.2C4 11.27 4 11.33 4.01 11.4C4.02 11.46 4.03 11.53 4.04 11.59C4.05 11.65 4.07 11.72 4.09 11.78C4.11 11.84 4.13 11.9 4.15 11.97C4.18 12.03 4.21 12.09 4.24 12.14C4.27 12.2 4.3 12.26 4.34 12.31C4.37 12.37 4.41 12.42 4.45 12.47C4.5 12.52 4.54 12.57 4.59 12.61C4.63 12.66 4.68 12.7 4.73 12.75C4.78 12.79 4.83 12.83 4.89 12.86C4.94 12.9 5 12.93 5.06 12.96C5.11 12.99 5.17 13.02 5.23 13.05C5.3 13.07 5.36 13.09 5.42 13.11C5.48 13.13 5.55 13.15 5.61 13.16C5.67 13.17 5.74 13.18 5.8 13.19C5.87 13.2 5.93 13.2 6 13.2L21.5685 13.2C21.3736 13.77 21.1568 14.3467 20.92 14.9301C20.34 16.3601 19.67 17.7301 18.91 19.0401C18.1212 20.3996 17.2549 21.6675 16.3052 22.8438C15.5052 21.7462 14.6531 20.4238 13.751 18.8765C13.271 18.0565 12.811 17.2265 12.361 16.3765C12.141 15.9565 11.971 15.6265 11.841 15.3765L11.841 15.3665C11.801 15.2865 11.761 15.2065 11.701 15.1265C11.651 15.0565 11.591 14.9865 11.531 14.9165C11.471 14.8465 11.401 14.7765 11.331 14.7165C11.261 14.6565 11.181 14.6065 11.111 14.5565C11.031 14.5065 10.951 14.4665 10.861 14.4265C10.781 14.3865 10.691 14.3565 10.601 14.3365C10.511 14.3065 10.421 14.2865 10.331 14.2765C10.241 14.2665 10.141 14.2565 10.051 14.2565C9.981 14.2565 9.921 14.2565 9.851 14.2665C9.791 14.2765 9.721 14.2865 9.661 14.2965C9.601 14.3065 9.531 14.3265 9.471 14.3465C9.411 14.3665 9.351 14.3865 9.281 14.4065C9.221 14.4365 9.161 14.4665 9.111 14.4965C9.051 14.5265 8.991 14.5565 8.941 14.5965C8.881 14.6265 8.831 14.6665 8.781 14.7065C8.731 14.7565 8.681 14.7965 8.641 14.8465C8.591 14.8865 8.551 14.9365 8.501 14.9865C8.461 15.0365 8.421 15.0865 8.391 15.1465C8.351 15.1965 8.321 15.2565 8.291 15.3165C8.261 15.3665 8.231 15.4265 8.201 15.4865C8.181 15.5565 8.161 15.6165 8.141 15.6765C8.121 15.7365 8.101 15.8065 8.091 15.8665C8.081 15.9265 8.071 15.9965 8.061 16.0565C8.051 16.1265 8.051 16.1865 8.051 16.2565C8.051 16.5665 8.121 16.8665 8.261 17.1465C8.401 17.4265 8.591 17.7965 8.831 18.2465C9.301 19.1465 9.791 20.0265 10.301 20.8965C11.4347 22.8409 12.5164 24.4833 13.543 25.8202C13.0427 26.2904 12.5283 26.7403 12 27.1701C10.93 28.0301 9.83 28.7901 8.7 29.4401C7.91 29.9001 7.14 30.2901 6.4 30.5901C6.06 30.7401 5.8 30.8301 5.63 30.8801C5.53 30.9101 5.43 30.9501 5.33 31.0001C5.24 31.0401 5.15 31.1001 5.06 31.1601C4.97 31.2201 4.89 31.2901 4.81 31.3601C4.73 31.4401 4.66 31.5201 4.6 31.6001C4.53 31.6901 4.48 31.7801 4.43 31.8701C4.38 31.9701 4.34 32.0701 4.3 32.1701C4.27 32.2701 4.24 32.3701 4.23 32.4801C4.21 32.5901 4.2 32.6901 4.2 32.8001C4.2 32.8701 4.2 32.9301 4.21 33.0001C4.22 33.0601 4.23 33.1301 4.24 33.1901C4.25 33.2501 4.27 33.3201 4.29 33.3801C4.31 33.4401 4.33 33.5001 4.35 33.5701C4.38 33.6301 4.41 33.6901 4.44 33.7401C4.47 33.8001 4.5 33.8601 4.54 33.9101C4.57 33.9701 4.61 34.0201 4.65 34.0701C4.7 34.1201 4.74 34.1701 4.79 34.2101C4.83 34.2601 4.88 34.3001 4.93 34.3501C4.98 34.3901 5.03 34.4301 5.09 34.4601C5.14 34.5001 5.2 34.5301 5.26 34.5601C5.31 34.5901 5.37 34.6201 5.43 34.6501C5.5 34.6701 5.56 34.6901 5.62 34.7101C5.68 34.7301 5.75 34.7501 5.81 34.7601C5.87 34.7701 5.94 34.7801 6 34.7901C6.07 34.8001 6.13 34.8001 6.2 34.8001C6.39 34.8001 6.58 34.7701 6.77 34.7201C7.07 34.6301 7.46 34.4801 7.94 34.2901C8.84 33.9101 9.76 33.4501 10.7 32.9101C12.01 32.1501 13.28 31.2701 14.51 30.2801C15.0903 29.8098 15.6562 29.3179 16.2071 28.8045C16.5612 29.1408 16.9252 29.4615 17.301 29.7665C18.141 30.4565 19.051 31.0965 20.041 31.6665C20.991 32.2065 22.041 32.7165 23.211 33.2065C23.7907 33.4503 24.4203 33.6941 25.0981 33.9379L22.3239 41.8411C22.2439 42.0711 22.2039 42.3011 22.2039 42.5411C22.2039 42.6011 22.2039 42.6711 22.2139 42.7411C22.2239 42.8011 22.2339 42.8611 22.2439 42.9311C22.2539 42.9911 22.2739 43.0611 22.2939 43.1211L22.3539 43.3011L22.4439 43.4811C22.4739 43.5411 22.5039 43.6011 22.5439 43.6511C22.5739 43.7011 22.6139 43.7611 22.6539 43.8111C22.7039 43.8611 22.7439 43.9111 22.7939 43.9511C22.8339 44.0011 22.8839 44.0411 22.9339 44.0911C22.9839 44.1311 23.0339 44.1711 23.0939 44.2011C23.1439 44.2411 23.2039 44.2711 23.2639 44.3011C23.3139 44.3311 23.3739 44.3611 23.4339 44.3911C23.5039 44.4111 23.5639 44.4311 23.6239 44.4511C23.6839 44.4711 23.7539 44.4911 23.8139 44.5011C23.8739 44.5111 23.9439 44.5211 24.0039 44.5311C24.0739 44.5411 24.1339 44.5411 24.2039 44.5411C24.3039 44.5411 24.4139 44.5311 24.5139 44.5211C24.6139 44.5011 24.7139 44.4811 24.8139 44.4411C24.9039 44.4111 25.0039 44.3711 25.0939 44.3311C25.1839 44.2811 25.2739 44.2311 25.3639 44.1711C25.4439 44.1111 25.5239 44.0511 25.5939 43.9711C25.6739 43.9011 25.7439 43.8311 25.8039 43.7411C25.8639 43.6611 25.9139 43.5711 25.9639 43.4811C26.0139 43.3911 26.0539 43.3011 26.0939 43.2011L28.9281 35.1158C30.8155 35.5633 32.9485 35.8689 35.331 36.0365C36.269 36.1108 37.1897 36.1506 38.1093 36.1639L40.4739 43.0811C40.5039 43.1811 40.5439 43.2811 40.5839 43.3811C40.6339 43.4811 40.6839 43.5711 40.7439 43.6611C40.8039 43.7511 40.8739 43.8411 40.9539 43.9211C41.0239 44.0011 41.1039 44.0711 41.1939 44.1311C41.2739 44.2011 41.3739 44.2611 41.4639 44.3111C41.5639 44.3611 41.6639 44.4011 41.7639 44.4311C41.8639 44.4711 41.9739 44.5011 42.0739 44.5111C42.1839 44.5311 42.2939 44.5411 42.4039 44.5411C42.4639 44.5411 42.5339 44.5411 42.5939 44.5311C42.6639 44.5211 42.7239 44.5111 42.7939 44.5011C42.8539 44.4911 42.9139 44.4711 42.9839 44.4511L43.1639 44.3911L43.3439 44.3011C43.4039 44.2711 43.4539 44.2411 43.5139 44.2011C43.5639 44.1711 43.6139 44.1311 43.6739 44.0911L43.8139 43.9511C43.8639 43.9111 43.9039 43.8611 43.9439 43.8111C43.9839 43.7611 44.0239 43.7011 44.0639 43.6511C44.1039 43.6011 44.1339 43.5411 44.1639 43.4811C44.1939 43.4211 44.2239 43.3611 44.2439 43.3011C44.2739 43.2411 44.2939 43.1811 44.3139 43.1211C44.3339 43.0611 44.3539 42.9911 44.3639 42.9311C44.3739 42.8611 44.3839 42.8011 44.3939 42.7411C44.3939 42.6711 44.4039 42.6011 44.4039 42.5411C44.4039 42.3211 44.3639 42.1011 44.2939 41.8911L41.4439 33.5611L37.6439 22.0311C37.4739 21.5411 37.2139 21.1011 36.8739 20.7211C36.5739 20.3911 36.2139 20.1111 35.7939 19.8911C35.0839 19.5011 34.2939 19.3111 33.4339 19.3111C32.5539 19.3111 31.7639 19.5111 31.0639 19.9011C30.6439 20.1211 30.2839 20.4111 29.9939 20.7511C29.6539 21.1211 29.4139 21.5511 29.2539 22.0211L26.4164 30.1596C25.8154 29.9417 25.2598 29.7263 24.751 29.5165C23.741 29.0965 22.831 28.6565 22.041 28.1965C21.241 27.7365 20.511 27.2265 19.831 26.6765C19.5395 26.4372 19.2499 26.1809 18.9622 25.9075C20.2145 24.4222 21.3563 22.7998 22.37 21.0401C23.22 19.5701 23.97 18.0401 24.62 16.4401C25.0729 15.3415 25.4516 14.2615 25.7649 13.2L27 13.2C27.07 13.2 27.13 13.2 27.2 13.19C27.26 13.18 27.33 13.17 27.39 13.16C27.45 13.15 27.52 13.13 27.58 13.11C27.64 13.09 27.7 13.07 27.77 13.05C27.83 13.02 27.89 12.99 27.94 12.96C28 12.93 28.06 12.9 28.11 12.86C28.17 12.83 28.22 12.79 28.27 12.75C28.32 12.7 28.37 12.66 28.41 12.61C28.46 12.57 28.5 12.52 28.55 12.47C28.59 12.42 28.63 12.37 28.66 12.31C28.7 12.26 28.73 12.2 28.76 12.14C28.79 12.09 28.82 12.03 28.85 11.97C28.87 11.9 28.89 11.84 28.91 11.78C28.93 11.72 28.95 11.65 28.96 11.59C28.97 11.53 28.98 11.46 28.99 11.4C29 11.33 29 11.27 29 11.2C29 11.13 29 11.07 28.99 11C28.98 10.94 28.97 10.87 28.96 10.81C28.95 10.75 28.93 10.68 28.91 10.62C28.89 10.56 28.87 10.5 28.85 10.43C28.82 10.37 28.79 10.31 28.76 10.26C28.73 10.2 28.7 10.14 28.66 10.09C28.63 10.03 28.59 9.97998 28.55 9.92998C28.5 9.87998 28.46 9.82998 28.41 9.78998C28.37 9.73997 28.32 9.69998 28.27 9.64998C28.22 9.60998 28.17 9.56997 28.11 9.53998C28.06 9.49998 28 9.46998 27.94 9.43998C27.89 9.40998 27.83 9.37998 27.77 9.34998C27.7 9.32998 27.64 9.30998 27.58 9.28998C27.52 9.26998 27.45 9.24998 27.39 9.23997C27.33 9.22998 27.26 9.21998 27.2 9.20998C27.13 9.19998 27.07 9.19998 27 9.19998L6 9.19998ZM30.2549 31.3153C31.829 31.6603 33.6164 31.904 35.611 32.0465C35.9954 32.0754 36.3781 32.0992 36.7591 32.1179L33.8839 23.4011C33.7639 23.3411 33.6139 23.3111 33.4339 23.3111C33.2639 23.3111 33.1239 23.3311 33.0239 23.3811L30.2549 31.3153Z" fill-rule="evenodd"  fill="#000000" >
</path>
</svg>
