<svg xmlns="http://www.w3.org/2000/svg" xmlns:xlink="http://www.w3.org/1999/xlink" width="88" height="88" viewBox="0 0 88 88" fill="none">
<path     fill="#309EF2"  d="M19 6L54 6L55 7L55 16L64.5 25L74 25L75 26L75 77C75 80.3137 72.3137 83 69 83L19 83C15.6863 83 13 80.3137 13 77L13 12C13 8.68629 15.6863 6 19 6Z">
</path>
<path     fill="#FFFFFF"  d="M33.0621 70.4759L26.3225 59.5241C26.1247 59.2027 26.1247 58.7973 26.3225 58.4759L33.0621 47.5241C33.4721 46.8578 32.9928 46 32.2104 46L28.5588 46C28.2115 46 27.8891 46.1802 27.7071 46.4759L20.645 57.9518C20.2495 58.5946 20.2495 59.4054 20.645 60.0482L27.7071 71.5241C27.8891 71.8198 28.2115 72 28.5588 72L32.2104 72C32.9928 72 33.4721 71.1422 33.0621 70.4759Z">
</path>
<path     fill="#FFFFFF"  d="M54.9379 70.4759L61.6775 59.5241C61.8753 59.2027 61.8753 58.7973 61.6775 58.4759L54.9379 47.5241C54.5279 46.8578 55.0072 46 55.7896 46L59.4412 46C59.7885 46 60.1109 46.1802 60.2929 46.4759L67.355 57.9518C67.7505 58.5946 67.7505 59.4054 67.355 60.0482L60.2929 71.5241C60.1109 71.8198 59.7885 72 59.4412 72L55.7896 72C55.0072 72 54.5279 71.1422 54.9379 70.4759Z">
</path>
<path     fill="#FFFFFF"  d="M42.7042 75.2691L51.6454 43.2691C51.8235 42.6316 51.3442 42 50.6823 42L46.2589 42C45.8102 42 45.4165 42.2988 45.2958 42.7309L36.3546 74.7309C36.1765 75.3684 36.6558 76 37.3177 76L41.7411 76C42.1898 76 42.5835 75.7012 42.7042 75.2691Z">
</path>
<path     fill="#77C8F7"  d="M54.4061 6L54 6L54 6C54.3201 6.32014 54.5 6.75435 54.5 7.20711L54.5 19.5C54.5 22.8137 57.1863 25.5 60.5 25.5L73.7929 25.5C74.2456 25.5 74.6799 25.6799 75 26L75 26L75 25.7205C75 24.6222 74.5483 23.5721 73.751 22.8167L57.1571 7.09619C56.4141 6.39231 55.4296 6 54.4061 6Z">
</path>
</svg>
