<svg xmlns="http://www.w3.org/2000/svg" xmlns:xlink="http://www.w3.org/1999/xlink" width="88" height="88" viewBox="0 0 88 88" fill="none">
<path     fill="#309EF2"  d="M10.3495 24.5L77.6505 24.5C80.0527 24.5 82 26.4473 82 28.8495L82 73.4757C82 77.079 79.079 80 75.4757 80L12.5243 80C8.92102 80 6 77.079 6 73.4757L6 28.8495C6 26.4473 7.94734 24.5 10.3495 24.5Z">
</path>
<path     fill="#77C8F7"  d="M15 8L31.1554 8C33.9626 8 36.681 8.98419 38.8376 10.7813L48.3781 18.7318C49.0966 19.3305 48.6732 20.5 47.7379 20.5L10 20.5C9.44771 20.5 9 20.0523 9 19.5L9 14C9 10.6863 11.6863 8 15 8Z">
</path>
</svg>
