<svg xmlns="http://www.w3.org/2000/svg" xmlns:xlink="http://www.w3.org/1999/xlink" width="88" height="88" viewBox="0 0 88 88" fill="none">
<path     fill="#309EF2"  d="M19 6L54 6L55 7L55 16L64.5 25L74 25L75 26L75 77C75 80.3137 72.3137 83 69 83L19 83C15.6863 83 13 80.3137 13 77L13 12C13 8.68629 15.6863 6 19 6Z">
</path>
<path     fill="#77C8F7"  d="M54.4061 6L54 6L54 6C54.3201 6.32014 54.5 6.75435 54.5 7.20711L54.5 19.5C54.5 22.8137 57.1863 25.5 60.5 25.5L73.7929 25.5C74.2456 25.5 74.6799 25.6799 75 26L75 26L75 25.7205C75 24.6222 74.5483 23.5721 73.751 22.8167L57.1571 7.09619C56.4141 6.39231 55.4296 6 54.4061 6Z">
</path>
<path d="M50.8762 59L43.9612 59C43.7546 53.7407 42.7453 49.5829 41.4738 46.3638C46.5034 48.5918 50.17 53.3362 50.8762 59ZM50.8762 63L43.9612 63C43.7546 68.2593 42.7453 72.4172 41.4738 75.6362C46.5034 73.4083 50.17 68.6638 50.8762 63ZM36.4611 76.9342C35.9799 76.9777 35.4925 77 35 77C34.5075 77 34.0201 76.9777 33.5389 76.9342C32.598 75.2187 31.8399 73.3092 31.2645 71.2056C30.5749 68.6846 30.1673 65.9494 30.0419 63L39.9581 63C39.8326 65.9494 39.4251 68.6846 38.7355 71.2056C38.1601 73.3092 37.4019 75.2187 36.4611 76.9342ZM28.5262 75.6362C23.4966 73.4083 19.83 68.6638 19.1238 63L26.0388 63C26.2454 68.2593 27.2547 72.4172 28.5262 75.6362ZM19.1238 59L26.0388 59C26.2454 53.7407 27.2547 49.5829 28.5262 46.3638C23.4966 48.5918 19.83 53.3362 19.1238 59ZM33.5389 45.0658C32.5977 46.7821 31.8393 48.6924 31.2638 50.7969C30.5746 53.3173 30.1673 56.0517 30.0419 59L39.9581 59C39.8326 56.0507 39.4251 53.3155 38.7355 50.7944C38.1601 48.6909 37.4019 46.7813 36.4611 45.0658C35.9799 45.0223 35.4926 45 35 45C34.5075 45 34.0201 45.0223 33.5389 45.0658Z" fill-rule="evenodd"  fill="#FFFFFF" >
</path>
</svg>
