<svg xmlns="http://www.w3.org/2000/svg" xmlns:xlink="http://www.w3.org/1999/xlink" width="88" height="88" viewBox="0 0 88 88" fill="none">
<path     fill="#309EF2"  d="M19 6L54 6L55 7L55 16L64.5 25L74 25L75 26L75 77C75 80.3137 72.3137 83 69 83L19 83C15.6863 83 13 80.3137 13 77L13 12C13 8.68629 15.6863 6 19 6Z">
</path>
<path     fill="#77C8F7"  d="M54.4061 6L54 6L54 6C54.3201 6.32014 54.5 6.75435 54.5 7.20711L54.5 19.5C54.5 22.8137 57.1863 25.5 60.5 25.5L73.7929 25.5C74.2456 25.5 74.6799 25.6799 75 26L75 26L75 25.7205C75 24.6222 74.5483 23.5721 73.751 22.8167L57.1571 7.09619C56.4141 6.39231 55.4296 6 54.4061 6Z">
</path>
<path     fill="#FFFFFF"  d="M29.45 55.77L26.65 64.9L32.38 64.9L29.45 55.77ZM27.9605 50L31.1076 50C31.5388 50 31.9215 50.2764 32.0569 50.6858L39.5651 73.3758C39.7793 74.023 39.2974 74.69 38.6158 74.69L36.3257 74.69C35.8881 74.69 35.5013 74.4055 35.371 73.9877L33.9 69.27L25.21 69.27L23.6374 74.0052C23.5016 74.4141 23.1192 74.69 22.6884 74.69L20.388 74.69C19.7052 74.69 19.2233 74.021 19.4394 73.3734L27.0119 50.6834C27.1481 50.2753 27.5302 50 27.9605 50Z">
</path>
<path     fill="#FFFFFF"  d="M48.11 51L48.11 58.84C48.8341 57.7211 50.14 57.06 50.14 57.06C51.4503 56.3957 53.07 56.4 53.07 56.4C54.7597 56.4 56.21 57.09 56.21 57.09C57.6583 57.7893 58.72 59 58.72 59C59.789 60.2063 60.4 61.88 60.4 61.88C61.0034 63.5408 61 65.49 61 65.49C61 67.518 60.38 69.25 60.38 69.25C59.7593 70.9808 58.66 72.26 58.66 72.26C57.5566 73.5362 56.07 74.27 56.07 74.27C54.5872 75.0043 52.86 75 52.86 75C51.3083 75 50.05 74.38 50.05 74.38C48.7914 73.7506 48.11 72.62 48.11 72.62L48.11 73.69C48.11 74.2423 47.6623 74.69 47.11 74.69L44.76 74.69C44.2077 74.69 43.76 74.2423 43.76 73.69L43.76 51C43.76 50.4477 44.2077 50 44.76 50L47.11 50C47.6623 50 48.11 50.4477 48.11 51ZM48.14 65.63C48.14 66.7838 48.45 67.76 48.45 67.76C48.7603 68.739 49.31 69.46 49.31 69.46C49.8617 70.1768 50.62 70.56 50.62 70.56C51.3786 70.9446 52.31 70.95 52.31 70.95C53.2066 70.95 53.99 70.54 53.99 70.54C54.7659 70.1379 55.33 69.44 55.33 69.44C55.899 68.7407 56.21 67.76 56.21 67.76C56.5203 66.781 56.52 65.63 56.52 65.63C56.52 64.4762 56.21 63.51 56.21 63.51C55.8997 62.5485 55.33 61.85 55.33 61.85C54.761 61.1507 54 60.77 54 60.77C53.2414 60.3854 52.31 60.39 52.31 60.39C50.4479 60.39 49.29 61.83 49.29 61.83C48.1348 63.281 48.14 65.63 48.14 65.63Z">
</path>
</svg>
