<svg xmlns="http://www.w3.org/2000/svg" xmlns:xlink="http://www.w3.org/1999/xlink" width="88" height="88" viewBox="0 0 88 88" fill="none">
<path     fill="#F2502C"  d="M19 6L54 6L55 7L55 16L64.5 25L74 25L75 26L75 77C75 80.3137 72.3137 83 69 83L19 83C15.6863 83 13 80.3137 13 77L13 12C13 8.68629 15.6863 6 19 6Z">
</path>
<path     fill="#FFFFFF"  d="M40 68L40 44C40 42.8954 39.1046 42 38 42L35 42C33.8954 42 33 42.8954 33 44L33 68L40 68Z">
</path>
<path     fill="#FFFFFF"  d="M33 50L48.5643 45.4223C49.4155 45.1719 50 44.3907 50 43.5035L50 39.6729C50 38.3377 48.7166 37.3775 47.4357 37.7542L34.4357 41.5777C33.5845 41.8281 33 42.6093 33 43.4965L33 50Z">
</path>
<path     fill="#F79675"  d="M54.4061 6L54 6L54 6C54.3201 6.32014 54.5 6.75435 54.5 7.20711L54.5 19.5C54.5 22.8137 57.1863 25.5 60.5 25.5L73.7929 25.5C74.2456 25.5 74.6799 25.6799 75 26L75 26L75 25.7205C75 24.6222 74.5483 23.5721 73.751 22.8167L57.1571 7.09619C56.4141 6.39231 55.4296 6 54.4061 6Z">
</path>
<path d="M40 68C40 72.4183 37.5228 76 30 76C22.4772 76 20 72.4183 20 68C20 63.5817 22.4772 60 30 60C37.5228 60 40 63.5817 40 68Z"   fill="#FFFFFF" >
</path>
</svg>
