<svg xmlns="http://www.w3.org/2000/svg" xmlns:xlink="http://www.w3.org/1999/xlink" width="88" height="88" viewBox="0 0 88 88" fill="none">
<path     fill="#309EF2"  d="M19 6L54 6L55 7L55 16L64.5 25L74 25L75 26L75 77C75 80.3137 72.3137 83 69 83L19 83C15.6863 83 13 80.3137 13 77L13 12C13 8.68629 15.6863 6 19 6Z">
</path>
<path     fill="#FFFFFF"  d="M48 75L48 57C48 55.8954 47.1046 55 46 55L43 55C41.8954 55 41 55.8954 41 57L41 75C41 75.5523 41.4477 76 42 76L47 76C47.5523 76 48 75.5523 48 75Z">
</path>
<path d="M54 68L54 65L35 65L35 68L54 68Z"   fill="#309EF2" >
</path>
<path     fill="#FFFFFF"  d="M66.8643 61.4685L63.2962 41.6457C63.1248 40.6931 62.2958 40 61.3279 40L26.6721 40C25.7042 40 24.8752 40.6931 24.7038 41.6457L21.1357 61.4685C20.8045 63.3085 22.2186 65 24.0882 65L63.9118 65C65.7814 65 67.1955 63.3085 66.8643 61.4685Z">
</path>
<path     fill="#309EF2"  d="M56.6894 59.7575L56.1894 57.7575C56.0781 57.3123 55.6781 57 55.2192 57L34.7808 57C34.3219 57 33.9219 57.3123 33.8106 57.7575L33.3106 59.7575C33.1528 60.3886 33.6302 61 34.2808 61L55.7192 61C56.3698 61 56.8472 60.3886 56.6894 59.7575Z">
</path>
<path     fill="#77C8F7"  d="M54.4061 6L54 6L54 6C54.3201 6.32014 54.5 6.75435 54.5 7.20711L54.5 19.5C54.5 22.8137 57.1863 25.5 60.5 25.5L73.7929 25.5C74.2456 25.5 74.6799 25.6799 75 26L75 26L75 25.7205C75 24.6222 74.5483 23.5721 73.751 22.8167L57.1571 7.09619C56.4141 6.39231 55.4296 6 54.4061 6Z">
</path>
</svg>
