<svg xmlns="http://www.w3.org/2000/svg" xmlns:xlink="http://www.w3.org/1999/xlink" width="88" height="88" viewBox="0 0 88 88" fill="none">
<path     fill="#969696"  d="M19 6L54 6L55 7L55 16L64.5 25L74 25L75 26L75 77C75 80.3137 72.3137 83 69 83L19 83C15.6863 83 13 80.3137 13 77L13 12C13 8.68629 15.6863 6 19 6Z">
</path>
<path     fill="#B9B9B9"  d="M54.4061 6L54 6L54 6C54.3201 6.32014 54.5 6.75435 54.5 7.20711L54.5 19.5C54.5 22.8137 57.1863 25.5 60.5 25.5L73.7929 25.5C74.2456 25.5 74.6799 25.6799 75 26L75 26L75 25.7205C75 24.6222 74.5483 23.5721 73.751 22.8167L57.1571 7.09619C56.4141 6.39231 55.4296 6 54.4061 6Z">
</path>
<path     fill="#FFFFFF"  d="M22 68L42 68C42.5523 68 43 68.4477 43 69L43 72C43 72.5523 42.5523 73 42 73L22 73C21.4477 73 21 72.5523 21 72L21 69C21 68.4477 21.4477 68 22 68Z">
</path>
<path     fill="#FFFFFF"  d="M22 59L58 59C58.5523 59 59 59.4477 59 60L59 63C59 63.5523 58.5523 64 58 64L22 64C21.4477 64 21 63.5523 21 63L21 60C21 59.4477 21.4477 59 22 59Z">
</path>
<path     fill="#FFFFFF"  d="M22 50L58 50C58.5523 50 59 50.4477 59 51L59 54C59 54.5523 58.5523 55 58 55L22 55C21.4477 55 21 54.5523 21 54L21 51C21 50.4477 21.4477 50 22 50Z">
</path>
</svg>
