<svg xmlns="http://www.w3.org/2000/svg" xmlns:xlink="http://www.w3.org/1999/xlink" width="88" height="88" viewBox="0 0 88 88" fill="none">
<path     fill="#0D9E86"  d="M19 6L54 6L55 7L55 16L64.5 25L74 25L75 26L75 77C75 80.3137 72.3137 83 69 83L19 83C15.6863 83 13 80.3137 13 77L13 12C13 8.68629 15.6863 6 19 6Z">
</path>
<path     fill="#51C5AA"  d="M54.4061 6L54 6L54 6C54.3201 6.32014 54.5 6.75435 54.5 7.20711L54.5 19.5C54.5 22.8137 57.1863 25.5 60.5 25.5L73.7929 25.5C74.2456 25.5 74.6799 25.6799 75 26L75 26L75 25.7205C75 24.6222 74.5483 23.5721 73.751 22.8167L57.1571 7.09619C56.4141 6.39231 55.4296 6 54.4061 6Z">
</path>
<path     fill="#FFFFFF"  d="M24.61 72.77L24.61 57.29L19.729 59.8045C19.3962 59.9759 19 59.7343 19 59.36L19 57.2684C19 56.9052 19.1969 56.5706 19.5144 56.3942L24.3535 53.7058C24.502 53.6233 24.6692 53.58 24.8391 53.58L26.96 53.58C27.5123 53.58 27.96 54.0277 27.96 54.58L27.96 72.77C27.96 73.3223 27.5123 73.77 26.96 73.77L25.61 73.77C25.0577 73.77 24.61 73.3223 24.61 72.77Z">
</path>
<path     fill="#FFFFFF"  d="M40.61 61.69C41.1173 61.1888 41.32 60.61 41.32 60.61C41.5314 60.0392 41.53 59.43 41.53 59.43C41.53 57.8428 40.61 56.99 40.61 56.99C39.68 56.1407 38.21 56.14 38.21 56.14C36.4346 56.14 35.74 57.2 35.74 57.2C35.3913 57.7344 35.2188 58.4482 35.1335 59.0239C35.0526 59.5704 34.6021 60.02 34.0497 60.02L32.39 60.02C31.8377 60.02 31.3859 59.5732 31.4451 59.0241C31.5611 57.9472 31.82 57.17 31.82 57.17C32.2568 55.8752 33.13 54.95 33.13 54.95C33.9895 54.0311 35.25 53.51 35.25 53.51C36.5182 52.9949 38.19 53 38.19 53C39.74 53 41.03 53.46 41.03 53.46C42.3263 53.9194 43.26 54.75 43.26 54.75C44.19 55.5854 44.69 56.76 44.69 56.76C45.1973 57.9295 45.2 59.32 45.2 59.32C45.2 60.0997 44.97 60.8 44.97 60.8C44.7445 61.4961 44.4 62.11 44.4 62.11C44.0477 62.7226 43.58 63.23 43.58 63.23C43.115 63.7451 42.6 64.22 42.6 64.22L35.93 70.48L44.42 70.48C44.9723 70.48 45.42 70.9277 45.42 71.48L45.42 72.77C45.42 73.3223 44.9723 73.77 44.42 73.77L32.11 73.77C31.5577 73.77 31.11 73.3223 31.11 72.77L31.11 71.1878C31.11 70.9146 31.2218 70.6532 31.4195 70.4646L40.61 61.69Z">
</path>
<path     fill="#FFFFFF"  d="M57.68 56.46L48.65 56.46C48.0977 56.46 47.65 56.0123 47.65 55.46L47.65 54.58C47.65 54.0277 48.0977 53.58 48.65 53.58L60.44 53.58C60.9923 53.58 61.44 54.0277 61.44 54.58L61.44 56.1788C61.44 56.8535 61.0998 57.4827 60.5354 57.8522L55.1 61.41C56.5091 61.41 57.75 61.82 57.75 61.82C59.0041 62.2238 59.96 62.98 59.96 62.98C60.9041 63.7457 61.45 64.88 61.45 64.88C61.9995 66.0077 62 67.46 62 67.46C62 69.1586 61.4 70.39 61.4 70.39C60.8082 71.6291 59.79 72.42 59.79 72.42C58.7755 73.2136 57.4 73.61 57.4 73.61C56.0191 73.9998 54.44 74 54.44 74C52.8055 74 51.41 73.63 51.41 73.63C50.015 73.268 49.04 72.5 49.04 72.5C48.0537 71.7343 47.49 70.52 47.49 70.52C47.2054 69.9013 47.0629 69.1526 46.9915 68.563C46.925 68.0133 47.37 67.56 47.9237 67.56L49.47 67.56C50.0223 67.56 50.4594 68.0117 50.5633 68.5541C50.6448 68.9791 50.75 69.23 50.75 69.23C51.0318 69.8983 51.54 70.29 51.54 70.29C52.0473 70.6798 52.78 70.84 52.78 70.84C53.5127 71.0071 54.44 71.02 54.44 71.02C56.3563 71.02 57.44 70.12 57.44 70.12C58.525 69.229 58.52 67.42 58.52 67.42C58.52 66.5846 58.17 65.9 58.17 65.9C57.8177 65.2178 57.24 64.76 57.24 64.76C56.6623 64.3006 55.91 64.06 55.91 64.06C55.1491 63.8094 54.33 63.8 54.33 63.8C53.5127 63.8 52.74 64.05 52.74 64.05C51.965 64.2867 51.34 64.7 51.34 64.7L51.34 64.7C50.9444 64.9452 50.4256 64.8317 50.1685 64.4438L49.4055 63.2929C49.1031 62.8368 49.2236 62.2222 49.6759 61.914L57.68 56.46Z">
</path>
</svg>
