<svg xmlns="http://www.w3.org/2000/svg" xmlns:xlink="http://www.w3.org/1999/xlink" width="88" height="88" viewBox="0 0 88 88" fill="none">
<path     fill="#F2502C"  d="M19 6L54 6L55 7L55 16L64.5 25L74 25L75 26L75 77C75 80.3137 72.3137 83 69 83L19 83C15.6863 83 13 80.3137 13 77L13 12C13 8.68629 15.6863 6 19 6Z">
</path>
<path d="M29.4519 54.3439C28.0083 51.3514 27.6086 48.9189 28.2527 47.0463C28.6046 46.0236 29.2246 45.2403 30.1127 44.6964C30.8709 44.2321 31.739 44 32.7171 44C33.2761 44 33.8081 44.1012 34.3131 44.3037C34.874 44.5285 35.3698 44.8652 35.8003 45.3139C36.6408 46.1898 37.1629 47.4206 37.3668 49.0064C37.6544 51.2442 37.3022 54.2371 36.3103 57.9852C36.5497 58.335 36.8011 58.6979 37.0645 59.074C38.0038 60.4153 38.9712 61.7514 39.9665 63.0825C41.3095 62.9746 42.5396 62.9666 43.6568 63.0584C45.9649 63.2481 47.7616 63.8584 49.0467 64.8892C49.6849 65.4011 50.1722 65.9966 50.5087 66.6757C50.83 67.3244 50.9937 68.0045 50.9996 68.7162C51.0051 69.3799 50.8739 70.0106 50.606 70.6083C50.3325 71.2186 49.9495 71.7235 49.4569 72.1231C48.6268 72.7966 47.6745 73.1441 46.5998 73.1658C45.6755 73.1845 44.7193 72.9519 43.7311 72.468C42.0407 71.6403 40.3544 70.145 38.6722 67.9819C38.5004 67.7608 38.3293 67.5396 38.159 67.3183C37.2981 67.4484 36.3866 67.6176 35.4245 67.8261C34.424 68.0428 33.4764 68.2716 32.5819 68.5123C30.688 72.6716 28.692 75.4661 26.5941 76.8959C25.9113 77.3613 25.2215 77.6802 24.5248 77.8525C23.8186 78.0271 23.1301 78.0475 22.4594 77.9137C21.8294 77.788 21.2561 77.5356 20.7393 77.1563C20.2723 76.8135 19.8887 76.395 19.5883 75.9008C19.2732 75.3822 19.0843 74.8194 19.0217 74.2125C18.9592 73.6064 19.0277 72.9942 19.2273 72.376C19.6014 71.2168 20.4059 70.1252 21.6408 69.1011C22.8734 68.079 24.5128 67.1468 26.559 66.3045C27.5104 65.913 28.5437 65.5433 29.659 65.1955C30.0527 64.2386 30.4435 63.2114 30.8314 62.1139C31.2591 60.9032 31.6351 59.7573 31.9592 58.676C30.7738 56.8642 29.9381 55.4202 29.4519 54.3439ZM33.2685 53.0589C33.4762 51.6346 33.5199 50.4538 33.3994 49.5163C33.3455 49.0969 33.2609 48.749 33.1457 48.4726C33.0731 48.2984 32.9959 48.1687 32.9141 48.0834C32.8608 48.0278 32.7951 48 32.7171 48C32.4906 48 32.3188 48.0359 32.2016 48.1077C32.1307 48.151 32.0753 48.231 32.0352 48.3475C31.9287 48.6572 31.9253 49.1005 32.025 49.6773C32.1685 50.5077 32.5151 51.491 33.0648 52.6271L33.0773 52.6529L33.0891 52.6791C33.143 52.7993 33.2028 52.9259 33.2685 53.0589ZM34.82 62.8248C34.7491 63.0304 34.6767 63.2377 34.6028 63.4468C34.5429 63.6162 34.4829 63.7841 34.4229 63.9505C34.474 63.9393 34.5256 63.9281 34.5775 63.9168C34.8804 63.8512 35.1793 63.7891 35.4742 63.7305C35.2547 63.4288 35.0367 63.1269 34.82 62.8248ZM27.0357 70.4617C25.8598 71.0116 24.9126 71.5844 24.1942 72.1801C23.8364 72.4768 23.5526 72.7661 23.3428 73.048C23.1907 73.2525 23.0877 73.438 23.0339 73.6047C22.9968 73.7195 22.9878 73.7925 23.0067 73.8236C23.0622 73.915 23.1407 73.9708 23.242 73.991C23.3288 74.0083 23.4363 74.0011 23.5644 73.9694C23.7958 73.9122 24.0547 73.7859 24.3414 73.5906C25.198 73.0068 26.0961 71.9638 27.0357 70.4617ZM43.1262 67.0298C43.3527 67.2635 43.5786 67.4815 43.8041 67.6838C44.4032 68.2213 44.9652 68.6185 45.4901 68.8755C46.1556 69.2014 46.6343 69.2514 46.926 69.0255C46.9361 69.0119 46.9461 68.9942 46.9558 68.9725C46.9857 68.9057 47.0004 68.8313 46.9997 68.7493C46.9976 68.4981 46.8457 68.2515 46.544 68.0096C46.2721 67.7915 45.9086 67.6047 45.4535 67.4494C44.8625 67.2476 44.1544 67.1128 43.3291 67.045C43.262 67.0395 43.1943 67.0344 43.1262 67.0298Z" fill-rule="evenodd"  fill="#FFFFFF" >
</path>
<path     fill="#F79675"  d="M54.4061 6L54 6L54 6C54.3201 6.32014 54.5 6.75435 54.5 7.20711L54.5 19.5C54.5 22.8137 57.1863 25.5 60.5 25.5L73.7929 25.5C74.2456 25.5 74.6799 25.6799 75 26L75 26L75 25.7205C75 24.6222 74.5483 23.5721 73.751 22.8167L57.1571 7.09619C56.4141 6.39231 55.4296 6 54.4061 6Z">
</path>
</svg>
