<svg xmlns="http://www.w3.org/2000/svg" xmlns:xlink="http://www.w3.org/1999/xlink" width="88" height="88" viewBox="0 0 88 88" fill="none">
<path     fill="#0D9E86"  d="M19 6L54 6L55 7L55 16L64.5 25L74 25L75 26L75 77C75 80.3137 72.3137 83 69 83L19 83C15.6863 83 13 80.3137 13 77L13 12C13 8.68629 15.6863 6 19 6Z">
</path>
<path     fill="#51C5AA"  d="M54.4061 6L54 6L54 6C54.3201 6.32014 54.5 6.75435 54.5 7.20711L54.5 19.5C54.5 22.8137 57.1863 25.5 60.5 25.5L73.7929 25.5C74.2456 25.5 74.6799 25.6799 75 26L75 26L75 25.7205C75 24.6222 74.5483 23.5721 73.751 22.8167L57.1571 7.09619C56.4141 6.39231 55.4296 6 54.4061 6Z">
</path>
<path d="M67 66L67 71.9091C67 73.0639 66.0639 74 64.9091 74L55 74L55 66L67 66ZM67 62L67 54L55 54L55 62L67 62ZM67 50L67 44.0909C67 42.9361 66.0639 42 64.9091 42L55 42L55 50L67 50ZM51 42L37 42L37 50L51 50L51 42ZM33 42L23.0909 42C21.9361 42 21 42.9361 21 44.0909L21 50L33 50L33 42ZM21 54L21 62L33 62L33 54L21 54ZM21 66L33 66L33 74L23.0909 74C21.9361 74 21 73.0639 21 71.9091L21 66ZM37 74L37 66L51 66L51 74L37 74ZM37 62L37 54L51 54L51 62L37 62Z" fill-rule="evenodd"  fill="#FFFFFF" >
</path>
</svg>
