<svg xmlns="http://www.w3.org/2000/svg" xmlns:xlink="http://www.w3.org/1999/xlink" width="88" height="88" viewBox="0 0 88 88" fill="none">
<path     fill="#8134ED"  d="M19 6L54 6L55 7L55 16L64.5 25L74 25L75 26L75 77C75 80.3137 72.3137 83 69 83L19 83C15.6863 83 13 80.3137 13 77L13 12C13 8.68629 15.6863 6 19 6Z">
</path>
<path     fill="#FFFFFF"  d="M55 75L38.6641 50.4962C37.8725 49.3087 36.1275 49.3087 35.3359 50.4962L21.1672 71.7493C20.2408 73.1388 21.2369 75 22.9069 75L55 75Z">
</path>
<path     fill="#B579F4"  d="M54.4061 6L54 6L54 6C54.3201 6.32014 54.5 6.75435 54.5 7.20711L54.5 19.5C54.5 22.8137 57.1863 25.5 60.5 25.5L73.7929 25.5C74.2456 25.5 74.6799 25.6799 75 26L75 26L75 25.7205C75 24.6222 74.5483 23.5721 73.751 22.8167L57.1571 7.09619C56.4141 6.39231 55.4296 6 54.4061 6Z">
</path>
<path d="M59.9002 75.0014L59.1602 73.8914L50.9402 61.5614L54.2802 55.9114C55.0543 54.6013 56.946 54.6013 57.7202 55.9114L67.1402 71.8414C67.9638 73.2352 66.9592 75.0014 65.3402 75.0014L59.9002 75.0014Z" fill-rule="evenodd"  fill="#FFFFFF" >
</path>
<path d="M57 45C57 47.7614 54.7614 50 52 50C49.2386 50 47 47.7614 47 45C47 42.2386 49.2386 40 52 40C54.7614 40 57 42.2386 57 45Z"   fill="#FFFFFF" >
</path>
</svg>
