<svg xmlns="http://www.w3.org/2000/svg" xmlns:xlink="http://www.w3.org/1999/xlink" width="88" height="88" viewBox="0 0 88 88" fill="none">
<path     fill="#0D9E86"  d="M19 6L54 6L55 7L55 16L64.5 25L74 25L75 26L75 77C75 80.3137 72.3137 83 69 83L19 83C15.6863 83 13 80.3137 13 77L13 12C13 8.68629 15.6863 6 19 6Z">
</path>
<path     fill="#51C5AA"  d="M54.4061 6L54 6L54 6C54.3201 6.32014 54.5 6.75435 54.5 7.20711L54.5 19.5C54.5 22.8137 57.1863 25.5 60.5 25.5L73.7929 25.5C74.2456 25.5 74.6799 25.6799 75 26L75 26L75 25.7205C75 24.6222 74.5483 23.5721 73.751 22.8167L57.1571 7.09619C56.4141 6.39231 55.4296 6 54.4061 6Z">
</path>
<path     fill="#FFFFFF"  d="M52 74L52 55C52 53.8954 51.1046 53 50 53L47 53C45.8954 53 45 53.8954 45 55L45 74C45 74.5523 45.4477 75 46 75L51 75C51.5523 75 52 74.5523 52 74Z">
</path>
<path     fill="#FFFFFF"  d="M28 74L28 48C28 46.8954 27.1046 46 26 46L23 46C21.8954 46 21 46.8954 21 48L21 74C21 74.5523 21.4477 75 22 75L27 75C27.5523 75 28 74.5523 28 74Z">
</path>
<path     fill="#FFFFFF"  d="M40 74L40 39C40 37.8954 39.1046 37 38 37L35 37C33.8954 37 33 37.8954 33 39L33 74C33 74.5523 33.4477 75 34 75L39 75C39.5523 75 40 74.5523 40 74Z">
</path>
</svg>
