<svg xmlns="http://www.w3.org/2000/svg" xmlns:xlink="http://www.w3.org/1999/xlink" width="88" height="88" viewBox="0 0 88 88" fill="none">
<path     fill="#0D9E64"  d="M19 6L54 6L55 7L55 16L64.5 25L74 25L75 26L75 77C75 80.3137 72.3137 83 69 83L19 83C15.6863 83 13 80.3137 13 77L13 12C13 8.68629 15.6863 6 19 6Z">
</path>
<path     fill="#FFFFFF"  d="M44 51C26.7165 51 22.5658 64.2283 21.3467 72.2162C21.1212 73.6938 22.297 75 23.7917 75L64.2083 75C65.703 75 66.882 73.7319 66.6444 72.2563C65.3707 64.3454 60.9539 51 44 51Z">
</path>
<path     fill="#FFFFFF"  d="M28.2471 49.9371L36.7324 58.4224C37.123 58.8129 37.123 59.4461 36.7324 59.8366L34.6111 61.9579C34.2206 62.3484 33.5874 62.3484 33.1969 61.9579L24.7116 53.4726C24.3211 53.0821 24.3211 52.449 24.7116 52.0584L26.8329 49.9371C27.2235 49.5466 27.8566 49.5466 28.2471 49.9371Z">
</path>
<path     fill="#FFFFFF"  d="M60.1929 49.9371L51.7076 58.4224C51.3171 58.8129 51.3171 59.4461 51.7076 59.8366L53.8289 61.9579C54.2195 62.3484 54.8526 62.3484 55.2432 61.9579L63.7284 53.4726C64.119 53.0821 64.119 52.449 63.7284 52.0584L61.6071 49.9371C61.2166 49.5466 60.5834 49.5466 60.1929 49.9371Z">
</path>
<path d="M40.5 61C40.5 62.3807 39.3807 63.5 38 63.5C36.6193 63.5 35.5 62.3807 35.5 61C35.5 59.6193 36.6193 58.5 38 58.5C39.3807 58.5 40.5 59.6193 40.5 61Z"   fill="#0D9E64" >
</path>
<path d="M52.5 61C52.5 62.3807 51.3807 63.5 50 63.5C48.6193 63.5 47.5 62.3807 47.5 61C47.5 59.6193 48.6193 58.5 50 58.5C51.3807 58.5 52.5 59.6193 52.5 61Z"   fill="#0D9E64" >
</path>
<path     fill="#51C58F"  d="M54.4061 6L54 6L54 6C54.3201 6.32014 54.5 6.75435 54.5 7.20711L54.5 19.5C54.5 22.8137 57.1863 25.5 60.5 25.5L73.7929 25.5C74.2456 25.5 74.6799 25.6799 75 26L75 26L75 25.7205C75 24.6222 74.5483 23.5721 73.751 22.8167L57.1571 7.09619C56.4141 6.39231 55.4296 6 54.4061 6Z">
</path>
</svg>
