<svg xmlns="http://www.w3.org/2000/svg" xmlns:xlink="http://www.w3.org/1999/xlink" width="88" height="88" viewBox="0 0 88 88" fill="none">
<path     fill="#309EF2"  d="M19 6L54 6L55 7L55 16L64.5 25L74 25L75 26L75 77C75 80.3137 72.3137 83 69 83L19 83C15.6863 83 13 80.3137 13 77L13 12C13 8.68629 15.6863 6 19 6Z">
</path>
<path     fill="#FFFFFF"  d="M40.4142 68L60 68C60.5523 68 61 68.4477 61 69L61 72C61 72.5523 60.5523 73 60 73L37.4142 73C36.5233 73 36.0771 71.9229 36.7071 71.2929L39.7071 68.2929C39.8946 68.1054 40.149 68 40.4142 68Z">
</path>
<path     fill="#77C8F7"  d="M54.4061 6L54 6L54 6C54.3201 6.32014 54.5 6.75435 54.5 7.20711L54.5 19.5C54.5 22.8137 57.1863 25.5 60.5 25.5L73.7929 25.5C74.2456 25.5 74.6799 25.6799 75 26L75 26L75 25.7205C75 24.6222 74.5483 23.5721 73.751 22.8167L57.1571 7.09619C56.4141 6.39231 55.4296 6 54.4061 6Z">
</path>
<path d="M43.59 42.41C44.371 41.629 45.629 41.629 46.41 42.41L51.59 47.59C52.371 48.3711 52.371 49.629 51.59 50.41L31.38 70.62C31.1339 70.8661 30.8258 71.0484 30.49 71.14L21.69 73.54C20.9435 73.7436 20.2564 73.0565 20.46 72.31L22.86 63.51C22.9516 63.1742 23.1339 62.8661 23.38 62.62L43.59 42.41Z"   fill="#FFFFFF" >
</path>
</svg>
