<svg xmlns="http://www.w3.org/2000/svg" xmlns:xlink="http://www.w3.org/1999/xlink" width="88" height="88" viewBox="0 0 88 88" fill="none">
<path     fill="#969696"  d="M19 6L54 6L55 7L55 16L64.5 25L74 25L75 26L75 77C75 80.3137 72.3137 83 69 83L19 83C15.6863 83 13 80.3137 13 77L13 12C13 8.68629 15.6863 6 19 6Z">
</path>
<path     fill="#FFFFFF"  d="M43 53.5L43 48.5C43 47.9477 42.5523 47.5 42 47.5L37 47.5C36.4477 47.5 36 47.9477 36 48.5L36 53.5C36 54.0523 36.4477 54.5 37 54.5L42 54.5C42.5523 54.5 43 54.0523 43 53.5Z">
</path>
<path     fill="#FFFFFF"  d="M51.7929 45.7929L46.7071 40.7071C46.0771 40.0771 45 40.5233 45 41.4142L45 46.5C45 47.0523 45.4477 47.5 46 47.5L51.0858 47.5C51.9767 47.5 52.4229 46.4229 51.7929 45.7929Z">
</path>
<path     fill="#FFFFFF"  d="M52 60.5L52 55.5C52 54.9477 51.5523 54.5 51 54.5L46 54.5C45.4477 54.5 45 54.9477 45 55.5L45 60.5C45 61.0523 45.4477 61.5 46 61.5L51 61.5C51.5523 61.5 52 61.0523 52 60.5Z">
</path>
<path     fill="#FFFFFF"  d="M52 75.5L52 70.5C52 69.9477 51.5523 69.5 51 69.5L46 69.5C45.4477 69.5 45 69.9477 45 70.5L45 75.5C45 76.0523 45.4477 76.5 46 76.5L51 76.5C51.5523 76.5 52 76.0523 52 75.5Z">
</path>
<path     fill="#FFFFFF"  d="M43 68.5L43 63.5C43 62.9477 42.5523 62.5 42 62.5L37 62.5C36.4477 62.5 36 62.9477 36 63.5L36 68.5C36 69.0523 36.4477 69.5 37 69.5L42 69.5C42.5523 69.5 43 69.0523 43 68.5Z">
</path>
<path     fill="#B9B9B9"  d="M54.4061 6L54 6L54 6C54.3201 6.32014 54.5 6.75435 54.5 7.20711L54.5 19.5C54.5 22.8137 57.1863 25.5 60.5 25.5L73.7929 25.5C74.2456 25.5 74.6799 25.6799 75 26L75 26L75 25.7205C75 24.6222 74.5483 23.5721 73.751 22.8167L57.1571 7.09619C56.4141 6.39231 55.4296 6 54.4061 6Z">
</path>
</svg>
