<svg xmlns="http://www.w3.org/2000/svg" xmlns:xlink="http://www.w3.org/1999/xlink" width="88" height="88" viewBox="0 0 88 88" fill="none">
<path     fill="#F2502C"  d="M19 6L54 6L55 7L55 16L64.5 25L74 25L75 26L75 77C75 80.3137 72.3137 83 69 83L19 83C15.6863 83 13 80.3137 13 77L13 12C13 8.68629 15.6863 6 19 6Z">
</path>
<path     fill="#F79675"  d="M54.4061 6L54 6L54 6C54.3201 6.32014 54.5 6.75435 54.5 7.20711L54.5 19.5C54.5 22.8137 57.1863 25.5 60.5 25.5L73.7929 25.5C74.2456 25.5 74.6799 25.6799 75 26L75 26L75 25.7205C75 24.6222 74.5483 23.5721 73.751 22.8167L57.1571 7.09619C56.4141 6.39231 55.4296 6 54.4061 6Z">
</path>
<path d="M50.8762 63C49.892 70.8926 43.1592 77 35 77C26.1634 77 19 69.8366 19 61C19 52.8408 25.1074 46.108 33 45.1238L33 60.4667C33 61.8658 34.1342 63 35.5333 63L50.8762 63ZM37 45.1238L37 59L50.8762 59C49.9737 51.7626 44.2374 46.0263 37 45.1238Z" fill-rule="evenodd"  fill="#FFFFFF" >
</path>
</svg>
