<svg xmlns="http://www.w3.org/2000/svg" xmlns:xlink="http://www.w3.org/1999/xlink" width="48" height="48" viewBox="0 0 48 48" fill="none">
<path d="M35.99 23.8C36 23.87 36 23.93 36 24C36 24.07 36 24.13 35.99 24.2C35.98 24.26 35.97 24.33 35.96 24.39C35.95 24.45 35.93 24.52 35.91 24.58C35.89 24.64 35.87 24.7 35.85 24.77C35.82 24.83 35.79 24.89 35.76 24.94C35.73 25 35.7 25.06 35.66 25.11C35.63 25.17 35.59 25.22 35.55 25.27C35.5 25.32 35.46 25.37 35.41 25.41C35.37 25.46 35.32 25.5 35.27 25.55C35.22 25.59 35.17 25.63 35.11 25.66C35.06 25.7 35 25.73 34.94 25.76C34.89 25.79 34.83 25.82 34.77 25.85C34.7 25.87 34.64 25.89 34.58 25.91C34.52 25.93 34.45 25.95 34.39 25.96C34.33 25.97 34.26 25.98 34.2 25.99C34.13 26 34.07 26 34 26L14 26C13.93 26 13.87 26 13.8 25.99C13.74 25.98 13.67 25.97 13.61 25.96C13.55 25.95 13.48 25.93 13.42 25.91C13.36 25.89 13.3 25.87 13.23 25.85C13.17 25.82 13.11 25.79 13.06 25.76C13 25.73 12.94 25.7 12.89 25.66C12.83 25.63 12.78 25.59 12.73 25.55C12.68 25.5 12.63 25.46 12.59 25.41C12.54 25.37 12.5 25.32 12.45 25.27C12.41 25.22 12.37 25.17 12.34 25.11C12.3 25.06 12.27 25 12.24 24.94C12.21 24.89 12.18 24.83 12.15 24.77C12.13 24.7 12.11 24.64 12.09 24.58C12.07 24.52 12.05 24.45 12.04 24.39C12.03 24.33 12.02 24.26 12.01 24.2C12 24.13 12 24.07 12 24C12 23.93 12 23.87 12.01 23.8C12.02 23.74 12.03 23.67 12.04 23.61C12.05 23.55 12.07 23.48 12.09 23.42C12.11 23.36 12.13 23.3 12.15 23.23C12.18 23.17 12.21 23.11 12.24 23.06C12.27 23 12.3 22.94 12.34 22.89C12.37 22.83 12.41 22.78 12.45 22.73C12.5 22.68 12.54 22.63 12.59 22.59C12.63 22.54 12.68 22.5 12.73 22.45C12.78 22.41 12.83 22.37 12.89 22.34C12.94 22.3 13 22.27 13.06 22.24C13.11 22.21 13.17 22.18 13.23 22.15C13.3 22.13 13.36 22.11 13.42 22.09C13.48 22.07 13.55 22.05 13.61 22.04C13.67 22.03 13.74 22.02 13.8 22.01C13.87 22 13.93 22 14 22L34 22C34.07 22 34.13 22 34.2 22.01C34.26 22.02 34.33 22.03 34.39 22.04C34.45 22.05 34.52 22.07 34.58 22.09C34.64 22.11 34.7 22.13 34.77 22.15C34.83 22.18 34.89 22.21 34.94 22.24C35 22.27 35.06 22.3 35.11 22.34C35.17 22.37 35.22 22.41 35.27 22.45C35.32 22.5 35.37 22.54 35.41 22.59C35.46 22.63 35.5 22.68 35.55 22.73C35.59 22.78 35.63 22.83 35.66 22.89C35.7 22.94 35.73 23 35.76 23.06C35.79 23.11 35.82 23.17 35.85 23.23C35.87 23.3 35.89 23.36 35.91 23.42C35.93 23.48 35.95 23.55 35.96 23.61C35.97 23.67 35.98 23.74 35.99 23.8ZM15.83 4.65C13.31 5.71 11.09 7.21 9.15 9.15C7.21 11.09 5.71 13.31 4.65 15.83C3.55 18.43 3 21.15 3 24C3 26.85 3.55 29.57 4.65 32.17C5.71 34.69 7.21 36.91 9.15 38.85C11.09 40.79 13.31 42.29 15.83 43.35C18.43 44.45 21.15 45 24 45C26.85 45 29.57 44.45 32.17 43.35C34.69 42.29 36.91 40.79 38.85 38.85C40.79 36.91 42.29 34.69 43.35 32.17C44.45 29.57 45 26.85 45 24C45 21.15 44.45 18.43 43.35 15.83C42.29 13.31 40.79 11.09 38.85 9.15C36.91 7.21 34.69 5.71 32.17 4.65C29.57 3.55 26.85 3 24 3C21.15 3 18.43 3.55 15.83 4.65Z" fill-rule="evenodd"  fill="#000000" >
</path>
</svg>
