<svg xmlns="http://www.w3.org/2000/svg" xmlns:xlink="http://www.w3.org/1999/xlink" width="48" height="48" viewBox="0 0 48 48" fill="none">
<path     fill="#BEDCFF"  d="M12 42L17 42C19.21 42 21 40.21 21 38L21 28.5C21 26.29 19.21 24.5 17 24.5L10 24.5C7.79 24.5 6 26.29 6 28.5L6 36C6 39.31 8.69 42 12 42Z">
</path>
<path d="M4 36C4 40.4183 7.58172 44 12 44L17 44C20.3137 44 23 41.3137 23 38L23 28.5C23 25.1863 20.3137 22.5 17 22.5L10 22.5C6.68629 22.5 4 25.1863 4 28.5L4 36ZM17 40L12 40C9.79086 40 8 38.2091 8 36L8 28.5C8 27.3954 8.89543 26.5 10 26.5L17 26.5C18.1046 26.5 19 27.3954 19 28.5L19 38C19 39.1046 18.1046 40 17 40Z" fill-rule="evenodd"  fill="#1764FF" >
</path>
<path     fill="#BEDCFF"  d="M31.5 42L36 42C39.31 42 42 39.31 42 36L42 32.5C42 30.29 40.21 28.5 38 28.5L31.5 28.5C29.29 28.5 27.5 30.29 27.5 32.5L27.5 38C27.5 40.21 29.29 42 31.5 42Z">
</path>
<path d="M25.5 38C25.5 41.3137 28.1863 44 31.5 44L36 44C40.4183 44 44 40.4183 44 36L44 32.5C44 29.1863 41.3137 26.5 38 26.5L31.5 26.5C28.1863 26.5 25.5 29.1863 25.5 32.5L25.5 38ZM36 40L31.5 40C30.3954 40 29.5 39.1046 29.5 38L29.5 32.5C29.5 31.3954 30.3954 30.5 31.5 30.5L38 30.5C39.1046 30.5 40 31.3954 40 32.5L40 36C40 38.2091 38.2091 40 36 40Z" fill-rule="evenodd"  fill="#6BA6FF" >
</path>
<path     fill="#BEDCFF"  d="M10 18.5L17 18.5C19.21 18.5 21 16.71 21 14.5L21 10C21 7.79 19.21 6 17 6L12 6C8.69 6 6 8.69 6 12L6 14.5C6 16.71 7.79 18.5 10 18.5Z">
</path>
<path d="M4 14.5C4 17.8137 6.68629 20.5 10 20.5L17 20.5C20.3137 20.5 23 17.8137 23 14.5L23 10C23 6.68629 20.3137 4 17 4L12 4C7.58172 4 4 7.58172 4 12L4 14.5ZM17 16.5L10 16.5C8.89543 16.5 8 15.6046 8 14.5L8 12C8 9.79086 9.79086 8 12 8L17 8C18.1046 8 19 8.89543 19 10L19 14.5C19 15.6046 18.1046 16.5 17 16.5Z" fill-rule="evenodd"  fill="#6BA6FF" >
</path>
<path     fill="#BEDCFF"  d="M31.5 22.5L38 22.5C40.21 22.5 42 20.71 42 18.5L42 12C42 8.69 39.31 6 36 6L31.5 6C29.29 6 27.5 7.79 27.5 10L27.5 18.5C27.5 20.71 29.29 22.5 31.5 22.5Z">
</path>
<path d="M25.5 18.5C25.5 21.8137 28.1863 24.5 31.5 24.5L38 24.5C41.3137 24.5 44 21.8137 44 18.5L44 12C44 7.58172 40.4183 4 36 4L31.5 4C28.1863 4 25.5 6.68629 25.5 10L25.5 18.5ZM38 20.5L31.5 20.5C30.3954 20.5 29.5 19.6046 29.5 18.5L29.5 10C29.5 8.89543 30.3954 8 31.5 8L36 8C38.2091 8 40 9.79086 40 12L40 18.5C40 19.6046 39.1046 20.5 38 20.5Z" fill-rule="evenodd"  fill="#1764FF" >
</path>
</svg>
