<svg xmlns="http://www.w3.org/2000/svg" xmlns:xlink="http://www.w3.org/1999/xlink" width="48" height="48" viewBox="0 0 48 48" fill="none">
<path d="M17 43C18.1046 43 19 42.1046 19 41L19 7C19 5.8954 18.1046 5 17 5C15.8954 5 15 5.8954 15 7L15 41C15 42.1046 15.8954 43 17 43Z" fill-rule="evenodd"  fill="#4187FF" >
</path>
<path d="M31 7C31 5.89543 30.1045 5.00004 29 5.00008L4.99996 5.00106C3.89536 5.0011 3 5.89657 3.00004 7.00114C3.00009 8.10571 3.89552 9.0011 5.00012 9.00106L29.0001 9.00008C30.1047 9.00004 31.0001 8.10457 31 7Z" fill-rule="evenodd"  fill="#4187FF" >
</path>
<path d="M21.5 41C21.5 39.8954 20.6046 39 19.5 39L14.5 39C13.3954 39 12.5 39.8954 12.5 41C12.5 42.1046 13.3954 43 14.5 43L19.5 43C20.6046 43 21.5 42.1046 21.5 41Z" fill-rule="evenodd"  fill="#4187FF" >
</path>
<path d="M38.001 40.5C39.1055 40.5 40.001 39.6046 40.001 38.5L40.001 10.5C40.001 9.3954 39.1055 8.5 38.001 8.5C36.8964 8.5 36.001 9.3954 36.001 10.5L36.001 38.5C36.001 39.6046 36.8964 40.5 38.001 40.5Z" fill-rule="evenodd"  fill="#1764FF" >
</path>
<path d="M38.7554 11.9949L37.9895 10.4694L37.2299 11.9925L38.7554 11.9949ZM41.672 15.9995C43.3105 16.0021 44.3767 14.2768 43.6416 12.8125L40.2194 5.99574C39.2955 4.15526 36.6672 4.15868 35.748 6.00157L32.3542 12.8059C31.6254 14.2672 32.6865 15.9853 34.3194 15.9879L41.672 15.9995Z" fill-rule="evenodd"  fill="#1764FF" >
</path>
<path d="M43.6417 35.1875L43.6417 35.1875C44.3768 33.7232 43.3106 31.9979 41.6721 32.0005L34.3195 32.0121C32.6866 32.0147 31.6254 33.7328 32.3543 35.1941L35.7481 41.9984C36.6673 43.8413 39.2956 43.8447 40.2195 42.0043L43.6417 35.1875ZM41.8941 34.3102L40.0669 33.3928L40.0669 33.3929L41.8941 34.3102ZM38.7555 36.0051L37.23 36.0075L37.9896 37.5306L38.7555 36.0051Z" fill-rule="evenodd"  fill="#1764FF" >
</path>
</svg>
