<svg xmlns="http://www.w3.org/2000/svg" xmlns:xlink="http://www.w3.org/1999/xlink" width="48" height="48" viewBox="0 0 48 48" fill="none">
<path d="M24 6C27.3137 6 30 8.68629 30 12L30 16C30 17.1046 30.8954 18 32 18C33.1046 18 34 17.1046 34 16L34 12C34 6.47715 29.5228 2 24 2C18.4771 2 14 6.47715 14 12L14 16C14 17.1046 14.8954 18 16 18C17.1046 18 18 17.1046 18 16L18 12C18 8.68629 20.6863 6 24 6Z" fill-rule="evenodd"  fill="#4187FF" >
</path>
<path d="M16 15.9998L12.35 17.6498C10.92 18.2998 10 19.7198 10 21.2898L10 28.9898C10 39.9298 21.99 43.4798 23.78 43.9398C23.92 43.9798 24.08 43.9798 24.22 43.9398C26.01 43.4798 38 39.9298 38 28.9898L38 21.2898C38 19.7198 37.08 18.2998 35.65 17.6498L32 15.9998L25.6 13.1998C24.58 12.7498 23.42 12.7498 22.4 13.1998L16 15.9998Z"   fill="#BEDCFF" >
</path>
<path d="M16.8016 17.8325L23.1984 15.0339C23.7094 14.8103 24.2906 14.8103 24.8016 15.0339L31.1768 17.8229L34.8231 19.4696C35.5395 19.7931 36 20.5062 36 21.2923L36 28.9923C36 35.1954 32.0973 39.48 24.2918 41.8462C24.0986 41.9048 23.8915 41.9019 23.6984 41.8433C15.8995 39.4745 12 35.1909 12 28.9923L12 21.2923C12 20.5062 12.4605 19.7931 13.1769 19.4696L16.8016 17.8325ZM26.4049 11.3693C24.8718 10.6985 23.1282 10.6985 21.5951 11.3693L15.1984 14.1678L11.5306 15.8241C9.38138 16.7946 8 18.9341 8 21.2923L8 28.9923C8 33.9324 10.0515 38.0483 14.1545 41.34C16.5414 43.255 19.3352 44.6985 22.5359 45.6706C23.4862 45.9593 24.5017 45.9624 25.4523 45.6742C28.6515 44.7044 31.4454 43.2627 33.8341 41.3491C37.9447 38.0561 40 33.9372 40 28.9923L40 21.2923C40 18.9341 38.6186 16.7946 36.4694 15.8241L32.8232 14.1774L26.4049 11.3693Z" fill-rule="evenodd"  fill="#1764FF" >
</path>
<path d="M24.001 34C25.1055 34 26.001 33.1046 26.001 32L26.001 25C26.001 23.8954 25.1055 23 24.001 23C22.8964 23 22.001 23.8954 22.001 25L22.001 32C22.001 33.1046 22.8964 34 24.001 34Z" fill-rule="evenodd"  fill="#4187FF" >
</path>
</svg>
