<svg xmlns="http://www.w3.org/2000/svg" xmlns:xlink="http://www.w3.org/1999/xlink" width="48" height="48" viewBox="0 0 48 48" fill="none">
<path d="M14.79 8.11C15.29 6.91 16.01 5.85 16.93 4.93C17.85 4.01 18.91 3.29 20.11 2.79C21.35 2.26 22.64 2 24 2C25.36 2 26.65 2.26 27.89 2.79C29.09 3.29 30.15 4.01 31.07 4.93C31.99 5.85 32.71 6.91 33.21 8.11C33.74 9.35 34 10.64 34 12L34 14.7145L36.48 15.8325C37.01 16.0725 37.49 16.3825 37.93 16.7625C38.36 17.1325 38.73 17.5625 39.04 18.0425C39.35 18.5225 39.59 19.0325 39.75 19.5825C39.92 20.1325 40 20.7025 40 21.2925L40 28.9925C40 31.8925 39.27 34.5325 37.8 36.9225C36.63 38.8425 35.01 40.5425 32.95 42.0225C31.44 43.1025 29.76 44.0225 27.89 44.7925C26.77 45.2625 25.72 45.6225 24.74 45.8725C24.25 46.0025 23.75 46.0025 23.26 45.8725C22.28 45.6225 21.23 45.2625 20.11 44.7925C18.24 44.0225 16.56 43.1025 15.05 42.0225C12.99 40.5425 11.37 38.8425 10.2 36.9225C8.73 34.5325 8 31.8925 8 28.9925L8 21.2925C8 20.7025 8.08 20.1325 8.25 19.5825C8.41 19.0325 8.65 18.5225 8.96 18.0425C9.27 17.5625 9.64 17.1325 10.07 16.7625C10.51 16.3825 10.99 16.0725 11.53 15.8325L14 14.7159L14 12C14 10.64 14.26 9.35 14.79 8.11ZM24.941 23.24C25.001 23.27 25.061 23.3 25.111 23.34C25.171 23.37 25.221 23.41 25.271 23.45C25.321 23.5 25.371 23.54 25.411 23.59C25.461 23.63 25.501 23.68 25.551 23.73C25.591 23.78 25.631 23.83 25.661 23.89C25.701 23.94 25.731 24 25.761 24.06C25.791 24.11 25.821 24.17 25.851 24.23C25.871 24.3 25.891 24.36 25.911 24.42C25.931 24.48 25.951 24.55 25.961 24.61C25.971 24.67 25.981 24.74 25.991 24.8C26.001 24.87 26.001 24.93 26.001 25L26.001 32C26.001 32.07 26.001 32.13 25.991 32.2C25.981 32.26 25.971 32.33 25.961 32.39C25.951 32.45 25.931 32.52 25.911 32.58C25.891 32.64 25.871 32.7 25.851 32.77C25.821 32.83 25.791 32.89 25.761 32.94C25.731 33 25.701 33.06 25.661 33.11C25.631 33.17 25.591 33.22 25.551 33.27C25.501 33.32 25.461 33.37 25.411 33.41C25.371 33.46 25.321 33.5 25.271 33.55C25.221 33.59 25.171 33.63 25.111 33.66C25.061 33.7 25.001 33.73 24.941 33.76C24.891 33.79 24.831 33.82 24.771 33.85C24.701 33.87 24.641 33.89 24.581 33.91C24.521 33.93 24.451 33.95 24.391 33.96C24.331 33.97 24.261 33.98 24.201 33.99C24.131 34 24.071 34 24.001 34C23.931 34 23.871 34 23.801 33.99C23.741 33.98 23.671 33.97 23.611 33.96C23.551 33.95 23.481 33.93 23.421 33.91C23.361 33.89 23.301 33.87 23.231 33.85C23.171 33.82 23.111 33.79 23.061 33.76C23.001 33.73 22.941 33.7 22.891 33.66C22.831 33.63 22.781 33.59 22.731 33.55C22.681 33.5 22.631 33.46 22.591 33.41C22.541 33.37 22.501 33.32 22.451 33.27C22.411 33.22 22.371 33.17 22.341 33.11C22.301 33.06 22.271 33 22.241 32.94C22.211 32.89 22.181 32.83 22.151 32.77C22.131 32.7 22.111 32.64 22.091 32.58C22.071 32.52 22.051 32.45 22.041 32.39C22.031 32.33 22.021 32.26 22.011 32.2C22.001 32.13 22.001 32.07 22.001 32L22.001 25C22.001 24.93 22.001 24.87 22.011 24.8C22.021 24.74 22.031 24.67 22.041 24.61C22.051 24.55 22.071 24.48 22.091 24.42C22.111 24.36 22.131 24.3 22.151 24.23C22.181 24.17 22.211 24.11 22.241 24.06C22.271 24 22.301 23.94 22.341 23.89C22.371 23.83 22.411 23.78 22.451 23.73C22.501 23.68 22.541 23.63 22.591 23.59C22.631 23.54 22.681 23.5 22.731 23.45C22.781 23.41 22.831 23.37 22.891 23.34C22.941 23.3 23.001 23.27 23.061 23.24C23.111 23.21 23.171 23.18 23.231 23.15C23.301 23.13 23.361 23.11 23.421 23.09C23.481 23.07 23.551 23.05 23.611 23.04C23.671 23.03 23.741 23.02 23.801 23.01C23.871 23 23.931 23 24.001 23C24.071 23 24.131 23 24.201 23.01C24.261 23.02 24.331 23.03 24.391 23.04C24.451 23.05 24.521 23.07 24.581 23.09C24.641 23.11 24.701 23.13 24.771 23.15C24.831 23.18 24.891 23.21 24.941 23.24ZM30 12.9482L26.4 11.3725C25.64 11.0325 24.84 10.8625 24 10.8625C23.16 10.8625 22.36 11.0325 21.59 11.3725L18 12.9456L18 12C18 11.18 18.16 10.41 18.47 9.66C18.77 8.95 19.2 8.31 19.76 7.76C20.31 7.2 20.95 6.77 21.66 6.47C22.41 6.16 23.18 6 24 6C24.82 6 25.59 6.16 26.34 6.47C27.05 6.77 27.69 7.2 28.24 7.76C28.8 8.31 29.23 8.95 29.53 9.66C29.84 10.41 30 11.18 30 12L30 12.9482Z" fill-rule="evenodd"  fill="#000000" >
</path>
</svg>
