<svg xmlns="http://www.w3.org/2000/svg" xmlns:xlink="http://www.w3.org/1999/xlink" width="48" height="48" viewBox="0 0 48 48" fill="none">
<path d="M16.21 5.57C18.69 4.52 21.29 4 24 4C26.71 4 29.31 4.52 31.79 5.57C34.18 6.58 36.3 8.01 38.14 9.86C39.99 11.7 41.42 13.82 42.43 16.21C43.48 18.69 44 21.29 44 24C44 26.71 43.48 29.31 42.43 31.79C41.42 34.18 39.99 36.3 38.14 38.14C36.3 39.99 34.18 41.42 31.79 42.43C29.31 43.48 26.71 44 24 44C21.29 44 18.69 43.48 16.21 42.43C13.82 41.42 11.7 39.99 9.86 38.14C8.01 36.3 6.58 34.18 5.57 31.79C4.52 29.31 4 26.71 4 24L4 23.9986C4 23.9581 4.00012 23.9175 4.00036 23.877C4.01586 21.2113 4.53589 18.6525 5.57 16.21C6.52767 13.9438 7.86295 11.9204 9.57584 10.1482C9.68895 10.0305 9.80367 9.91398 9.92 9.7986C10.4097 9.30894 10.9219 8.84827 11.4566 8.4166C12.8977 7.24853 14.4834 6.29966 16.21 5.57ZM18.9972 39.2026C19.3696 38.8827 19.7305 38.548 20.08 38.1986C21.31 36.9786 22.36 35.6286 23.24 34.1386C24.13 32.6286 24.81 31.0286 25.28 29.3386C25.76 27.5986 26 25.8186 26 23.9986C26 22.1786 25.76 20.3986 25.28 18.6586C24.81 16.9686 24.13 15.3686 23.24 13.8586C22.36 12.3686 21.31 11.0186 20.08 9.7986C19.7313 9.44989 19.3711 9.11588 18.9995 8.79658C20.6061 8.26553 22.2746 8 24 8C26.17 8 28.25 8.42 30.23 9.26C32.14 10.07 33.84 11.21 35.31 12.69C36.79 14.16 37.93 15.86 38.74 17.77C39.58 19.75 40 21.83 40 24C40 26.17 39.58 28.25 38.74 30.23C37.93 32.14 36.79 33.84 35.31 35.31C33.84 36.79 32.14 37.93 30.23 38.74C28.25 39.58 26.17 40 24 40C22.2738 40 20.6045 39.7342 18.9972 39.2026Z" fill-rule="evenodd"  fill="#000000" >
</path>
</svg>
