<svg xmlns="http://www.w3.org/2000/svg" xmlns:xlink="http://www.w3.org/1999/xlink" width="48" height="48" viewBox="0 0 48 48" fill="none">
<path d="M21.6106 31.5L21.6006 19.99L27.9806 20L27.9806 19.9999C27.9871 20 27.9935 20 28 20C29.1 20 30 19.1 30 18C30 16.9 29.1 16 28 16L27.9806 16.0001L27.9806 16L21.6006 15.99L21.6006 10.07C21.6106 9.99 21.6206 9.9 21.6406 9.8C21.6906 9.5 21.7806 9.22 21.9106 8.98C22.0606 8.69 22.2506 8.48 22.4806 8.33C22.8206 8.11 23.2906 8 23.8706 8L23.8806 8C23.9106 8 23.9406 8 23.9906 8.01C24.1406 8.02 24.3006 8.05 24.4706 8.08C24.9821 8.19581 25.4471 8.37683 25.8474 8.63203C26.1738 8.86357 26.5717 9 27 9C28.1 9 29 8.1 29 7C29 6.28202 28.6166 5.64925 28.0444 5.29633C27.2213 4.75968 26.3036 4.38424 25.3006 4.17C24.7706 4.06 24.3006 4 23.8906 4C22.5206 4 21.3306 4.32 20.3306 4.95C19.5006 5.49 18.8406 6.21 18.3606 7.12C18.0406 7.73 17.8206 8.4 17.7006 9.12C17.6306 9.49 17.6006 9.81 17.6006 10.1L17.6006 15.99L12.0006 16L12 16C10.9 16 10 16.9 10 18C10 19.1 10.9 20 12 20L12.0006 20L12.0065 20L17.6006 19.99L17.6106 31.5C17.6106 31.57 17.6006 31.68 17.6006 31.82C17.5706 32.15 17.5406 32.5 17.4906 32.85C17.3206 33.99 17.0306 35.02 16.6306 35.95C16.1006 37.16 15.3906 38.1 14.5206 38.77C13.4506 39.59 12.0906 40 10.4406 40C10.3806 40 10.2806 39.99 10.1406 39.98C9.81061 39.95 9.47061 39.89 9.12061 39.8C8.01061 39.54 7.06061 39.09 6.25061 38.44L6.24957 38.4413C5.90662 38.1655 5.4717 38 5 38C3.9 38 3 38.9 3 40C3 40.6286 3.29394 41.192 3.75117 41.5593L3.75061 41.56C5.02061 42.58 6.51061 43.29 8.19061 43.7C8.72061 43.82 9.23061 43.91 9.74061 43.96C10.0206 43.99 10.2506 44 10.4406 44C12.9906 44 15.1606 43.32 16.9506 41.95C18.3706 40.86 19.4806 39.4 20.2906 37.55C20.8406 36.29 21.2306 34.92 21.4406 33.43C21.5506 32.68 21.6106 32.04 21.6106 31.5ZM41.29 39.0211L41.29 39L39.79 39L36.15 33.68L41.32 28L43 28C44.1 28 45 27.1 45 26C45 24.9 44.1 24 43 24L37.88 24L37.88 24.0036C36.8353 24.0662 36 24.9403 36 26C36 26.5133 36.196 26.9831 36.5168 27.3382L33.84 30.28L32.0676 27.6891C32.6269 27.3335 33 26.7082 33 26C33 24.9302 32.1487 24.0495 31.09 24.002L31.09 24L25.88 24L25.88 24.0036C24.8353 24.0662 24 24.9403 24 26C24 27.0597 24.8353 27.9338 25.88 27.9964L25.88 28L27.43 28L31.06 33.31L25.77 39L24 39C22.9 39 22 39.9 22 41C22 42.1 22.9 43 24 43L29.2 43L29.2 42.99C30.207 42.8888 31 42.0325 31 41C31 40.5209 30.8293 40.0797 30.5456 39.7343L33.37 36.7L35.0909 39.2199C34.4447 39.5524 34 40.2268 34 41C34 42.1 34.9 43 36 43C36.0572 43 36.1139 42.9976 36.17 42.9928L36.17 43L41.29 43L41.29 42.9789C42.2539 42.8373 43 42.0016 43 41C43 39.9984 42.2539 39.1627 41.29 39.0211Z" fill-rule="evenodd"  fill="#000000" >
</path>
</svg>
