<svg xmlns="http://www.w3.org/2000/svg" xmlns:xlink="http://www.w3.org/1999/xlink" width="48" height="48" viewBox="0 0 48 48" fill="none">
<path d="M31.4246 28.6964C29.7069 30.9106 27.0204 32.3356 24.0011 32.3356C18.8151 32.3356 14.6111 28.1316 14.6111 22.9456C14.6111 17.7596 18.8151 13.5556 24.0011 13.5556C29.1871 13.5556 33.3911 17.7596 33.3911 22.9456C33.3911 22.9731 33.391 23.0005 33.3907 23.0278C33.4107 24.2001 33.8316 25.3013 34.6535 26.3315C35.4398 27.3172 36.2853 27.81 37.19 27.81C39.2942 27.81 41 26.1042 41 24C41 14.6112 33.3888 7 24 7C14.6112 7 7 14.6112 7 24C7 33.3888 14.6112 41 24 41C27.9653 41 31.4958 39.7685 34.5915 37.3055C34.9352 37.0269 35.3731 36.86 35.85 36.86C36.9546 36.86 37.85 37.7554 37.85 38.86C37.85 39.5002 37.5492 40.0702 37.0812 40.4362C33.2569 43.4787 28.8965 45 24 45C12.402 45 3 35.598 3 24C3 12.402 12.402 3 24 3C35.598 3 45 12.402 45 24C45 28.3133 41.5033 31.81 37.19 31.81C35.0013 31.81 33.1134 30.8153 31.5265 28.826C31.4922 28.7829 31.4582 28.7397 31.4246 28.6964ZM29.3908 22.8843C29.3579 19.9357 26.9575 17.5556 24.0011 17.5556C21.0243 17.5556 18.6111 19.9688 18.6111 22.9456C18.6111 25.9224 21.0243 28.3356 24.0011 28.3356C26.9493 28.3356 29.3447 25.9686 29.3904 23.0313C29.3901 23.0009 29.39 22.9705 29.39 22.94C29.39 22.9214 29.3903 22.9028 29.3908 22.8843Z" fill-rule="evenodd"  fill="#4187FF" >
</path>
<path d="M31.4258 28.6979C29.7081 30.9137 27.0206 32.34 24 32.34C18.814 32.34 14.61 28.136 14.61 22.95C14.61 17.764 18.814 13.56 24 13.56C29.1798 13.56 33.38 17.754 33.39 22.9314L33.39 22.94L33.39 22.9424L33.39 22.95C33.3923 24.1514 33.8135 25.2785 34.6535 26.3315C35.4398 27.3172 36.2853 27.81 37.19 27.81C39.2942 27.81 41 26.1042 41 24C41 22.8954 41.8954 22 43 22C44.1046 22 45 22.8954 45 24C45 28.3133 41.5033 31.81 37.19 31.81C35.0013 31.81 33.1135 30.8153 31.5265 28.826C31.4926 28.7834 31.459 28.7407 31.4258 28.6979ZM18.61 22.95C18.61 19.9732 21.0232 17.56 24 17.56C26.9735 17.56 29.3846 19.9678 29.39 22.94L29.39 22.95C29.39 25.9268 26.9768 28.34 24 28.34C21.0232 28.34 18.61 25.9268 18.61 22.95Z" fill-rule="evenodd"  fill="#1764FF" >
</path>
</svg>
