<svg xmlns="http://www.w3.org/2000/svg" xmlns:xlink="http://www.w3.org/1999/xlink" width="48" height="48" viewBox="0 0 48 48" fill="none">
<path d="M18 36L18 39.5C17.99 41.21 20.03 42.09 21.27 40.91L27.21 35.27C27.4 35.09 27.64 35 27.9 35L37 35C40.31 35 43 32.31 43 29L43 13C43 9.69 40.31 7 37 7L11 7C7.69 7 5 9.69 5 13L5 29C5 32.31 7.69 35 11 35L17 35C17.55 35 18 35.45 18 36Z"   fill="#AFECDA" >
</path>
<path d="M3 13L3 29C3 33.4183 6.58172 37 11 37L16 37L16 39.3503C16 42.862 20.2016 44.6693 22.751 42.2541L28.2969 37L37 37C41.4183 37 45 33.4183 45 29L45 13C45 8.58172 41.4183 5 37 5L11 5C6.58172 5 3 8.58172 3 13ZM11 33C8.79086 33 7 31.2091 7 29L7 13C7 10.7909 8.79086 9 11 9L37 9C39.2091 9 41 10.7909 41 13L41 29C41 31.2091 39.2091 33 37 33L27.8985 33C27.1016 33 26.4138 33.274 25.8352 33.8221L20 39.3503L20 36C20 34.3431 18.6569 33 17 33L11 33Z" fill-rule="evenodd"  fill="#51C5AA" >
</path>
<path d="M27 29.06C27 34.73 33.57 36.64 34.8 36.95C34.93 36.99 35.07 36.99 35.2 36.95C36.43 36.64 43 34.73 43 29.06L43 23.62C43 22.81 42.52 22.08 41.77 21.77L39.57 20.85L35.75 19.3C35.27 19.11 34.73 19.11 34.25 19.3L30.43 20.85L28.23 21.77C27.48 22.08 27 22.81 27 23.62L27 29.06Z"   fill="#0D9E86" >
</path>
<path d="M29.6574 19.0056L27.4576 19.9249C25.8192 20.6096 25 21.8398 25 23.6155L25 29.0637C25 33.7265 27.8683 36.9367 33.605 38.6941C34.5359 38.9794 35.4688 38.9785 36.4036 38.6915C42.1345 36.9323 45 33.7231 45 29.0637L45 23.6155C45 21.8398 44.1808 20.6096 42.5424 19.9249L40.322 18.9971L36.5011 17.4501C35.5004 17.045 34.4996 17.045 33.4989 17.4501L29.6574 19.0056ZM29 29.0637L29 23.6155L31.1998 22.6962L35 21.1578L38.8209 22.7047L41 23.6156L41 23.6155L41 29.0637C41 31.7521 39.0766 33.6868 35.2298 34.8676C35.0767 34.9146 34.9257 34.9153 34.7768 34.8696C30.9256 33.6898 29 31.7545 29 29.0637Z" fill-rule="evenodd"  fill="#0D9E86" >
</path>
</svg>
