<svg xmlns="http://www.w3.org/2000/svg" xmlns:xlink="http://www.w3.org/1999/xlink" width="48" height="48" viewBox="0 0 48 48" fill="none">
<path d="M16 39.5C15.98 42.96 20.13 44.75 22.65 42.36L26.4518 38.7469C25.428 38.4594 24.0767 37.845 22.9756 36.5324L20 39.36L20 36C20 34.34 18.66 33 17 33L11 33C8.79 33 7 31.21 7 29L7 13C7 10.79 8.79 9 11 9L37 9C39.21 9 41 10.79 41 13L41 15.2918C42.7182 15.8908 44.0252 16.7577 45 17.6357L45 13C45 8.58 41.42 5 37 5L11 5C6.58 5 3 8.58 3 13L3 29C3 33.42 6.58 37 11 37L16 37L16 39.5ZM25 29.0577C25 32.1677 26.44 34.7077 29.31 36.6677C30.79 37.6777 32.45 38.4177 34.28 38.8777C34.75 39.0177 35.25 39.0177 35.72 38.8777C37.55 38.4177 39.21 37.6777 40.69 36.6677C43.56 34.7077 45 32.1677 45 29.0577L45 23.6177C45 22.0077 44.03 20.5377 42.53 19.9177L40.34 19.0077L36.5 17.4477C35.53 17.0577 34.47 17.0577 33.51 17.4377L29.68 18.9977L27.46 19.9277C25.97 20.5377 25 21.9977 25 23.6177L25 29.0577ZM41 29.0577L41 23.6177L41.01 23.6177L38.8 22.6977L35 21.1577L34.99 21.1577L31.18 22.7077L29 23.6177L29 29.0577C29 31.9077 31 33.8577 35 34.9377C39 33.8577 41 31.9077 41 29.0577Z" fill-rule="evenodd"  fill="#000000" >
</path>
</svg>
