<svg xmlns="http://www.w3.org/2000/svg" xmlns:xlink="http://www.w3.org/1999/xlink" width="48" height="48" viewBox="0 0 48 48" fill="none">
<path d="M43 24C43 34.4934 34.4934 43 24 43C13.5066 43 5 34.4934 5 24C5 13.5066 13.5066 5 24 5C34.4934 5 43 13.5066 43 24Z"   fill="#FEEDBD" >
</path>
<path d="M24 45C35.598 45 45 35.598 45 24C45 12.402 35.598 3 24 3C12.402 3 3 12.402 3 24C3 35.598 12.402 45 24 45ZM24 7C33.3888 7 41 14.6112 41 24C41 33.3888 33.3888 41 24 41C14.6112 41 7 33.3888 7 24C7 14.6112 14.6112 7 24 7Z" fill-rule="evenodd"  fill="#FCCB68" >
</path>
<path d="M9.2305 32.4288C9.4099 32.7286 9.51301 33.0794 9.51301 33.4542C9.51301 34.5588 8.61758 35.4542 7.51301 35.4542C6.75693 35.4542 6.09884 35.0347 5.75885 34.4157C3.91799 31.1993 2.99756 27.7274 2.99756 24C2.99756 12.402 12.3996 3 23.9976 3C35.5956 3 44.9976 12.402 44.9976 24C44.9976 27.7623 44.0609 31.2624 42.1875 34.5005C41.8461 35.1148 41.1906 35.5305 40.4381 35.5305C39.3335 35.5305 38.4381 34.6351 38.4381 33.5305C38.4381 33.1525 38.5429 32.7991 38.7251 32.4976C40.2401 29.8789 40.9976 27.0463 40.9976 24C40.9976 14.6112 33.3864 7 23.9976 7C14.6087 7 6.99756 14.6112 6.99756 24C6.99756 27.0181 7.74187 29.8277 9.2305 32.4288Z" fill-rule="evenodd"  fill="#FBB63E" >
</path>
<path d="M8.61846 16.7417C8.30719 17.4418 7.60563 17.93 6.79004 17.93C5.68547 17.93 4.79004 17.0346 4.79004 15.93C4.79004 15.6101 4.86514 15.3078 4.99867 15.0396C6.70235 11.4321 9.23372 8.54046 12.5928 6.36463C16.0557 4.12154 19.8581 3 24 3C28.1537 3 31.9643 4.12683 35.4319 6.3805C38.796 8.56688 41.3267 11.4717 43.0241 15.0951C43.1559 15.3618 43.23 15.6623 43.23 15.98C43.23 17.0846 42.3346 17.98 41.23 17.98C40.4122 17.98 39.709 17.4891 39.399 16.7859C36.344 10.262 31.211 7 24 7C16.8116 7 11.6844 10.2472 8.61846 16.7417Z" fill-rule="evenodd"  fill="#FA9E14" >
</path>
<path d="M24.001 39C25.1055 39 26.001 38.1046 26.001 37L26.001 20C26.001 18.8954 25.1055 18 24.001 18C22.8964 18 22.001 18.8954 22.001 20L22.001 37C22.001 38.1046 22.8964 39 24.001 39Z" fill-rule="evenodd"  fill="#FCCB68" >
</path>
<path d="M13.999 21C13.999 22.1046 14.8945 23 15.999 23L31.999 23C33.1036 23 33.999 22.1046 33.999 21C33.999 19.8954 33.1036 19 31.999 19L15.999 19C14.8945 19 13.999 19.8954 13.999 21Z" fill-rule="evenodd"  fill="#FA9E14" >
</path>
<path d="M13.999 28C13.999 29.1046 14.8945 30 15.999 30L31.999 30C33.1036 30 33.999 29.1046 33.999 28C33.999 26.8954 33.1036 26 31.999 26L15.999 26C14.8945 26 13.999 26.8954 13.999 28Z" fill-rule="evenodd"  fill="#FBB63E" >
</path>
<path d="M15.5863 14.4147L15.5859 14.4143C15.2239 14.0524 15 13.5523 15 13C15 11.8954 15.8954 11 17 11C17.5522 11 18.0522 11.2238 18.4141 11.5857L18.4145 11.5861L24.0008 17.1716L29.5851 11.5865L29.5857 11.5859C29.9476 11.2239 30.4477 11 31 11C32.1046 11 33 11.8954 33 13C33 13.5522 32.7762 14.0522 32.4143 14.4141L32.4137 14.4147L25.4153 21.4141C24.6343 22.1952 23.368 22.1953 22.5869 21.4143L15.5863 14.4147Z" fill-rule="evenodd"  fill="#FA9E14" >
</path>
</svg>
