<svg xmlns="http://www.w3.org/2000/svg" xmlns:xlink="http://www.w3.org/1999/xlink" width="48" height="48" viewBox="0 0 48 48" fill="none">
<path d="M43 24C43 34.4934 34.4934 43 24 43C13.5066 43 5 34.4934 5 24C5 13.5066 13.5066 5 24 5C34.4934 5 43 13.5066 43 24Z"   fill="#FEEDBD" >
</path>
<path d="M24 45C35.598 45 45 35.598 45 24C45 12.402 35.598 3 24 3C12.402 3 3 12.402 3 24C3 35.598 12.402 45 24 45ZM24 7C33.3888 7 41 14.6112 41 24C41 33.3888 33.3888 41 24 41C14.6112 41 7 33.3888 7 24C7 14.6112 14.6112 7 24 7Z" fill-rule="evenodd"  fill="#FCCB68" >
</path>
<path d="M9.2305 32.4288C9.4099 32.7286 9.51301 33.0794 9.51301 33.4542C9.51301 34.5588 8.61758 35.4542 7.51301 35.4542C6.75693 35.4542 6.09884 35.0347 5.75885 34.4157C3.91799 31.1993 2.99756 27.7274 2.99756 24C2.99756 12.402 12.3996 3 23.9976 3C35.5956 3 44.9976 12.402 44.9976 24C44.9976 27.7623 44.0609 31.2624 42.1875 34.5005C41.8461 35.1148 41.1906 35.5305 40.4381 35.5305C39.3335 35.5305 38.4381 34.6351 38.4381 33.5305C38.4381 33.1525 38.5429 32.7991 38.7251 32.4976C40.2401 29.8789 40.9976 27.0463 40.9976 24C40.9976 14.6112 33.3864 7 23.9976 7C14.6087 7 6.99756 14.6112 6.99756 24C6.99756 27.0181 7.74187 29.8277 9.2305 32.4288Z" fill-rule="evenodd"  fill="#FBB63E" >
</path>
<path d="M8.61846 16.7417C8.30719 17.4418 7.60563 17.93 6.79004 17.93C5.68547 17.93 4.79004 17.0346 4.79004 15.93C4.79004 15.6101 4.86514 15.3078 4.99867 15.0396C6.70235 11.4321 9.23372 8.54046 12.5928 6.36463C16.0557 4.12154 19.8581 3 24 3C28.1537 3 31.9643 4.12683 35.4319 6.3805C38.796 8.56688 41.3267 11.4717 43.0241 15.0951C43.1559 15.3618 43.23 15.6623 43.23 15.98C43.23 17.0846 42.3346 17.98 41.23 17.98C40.4122 17.98 39.709 17.4891 39.399 16.7859C36.344 10.262 31.211 7 24 7C16.8116 7 11.6844 10.2472 8.61846 16.7417Z" fill-rule="evenodd"  fill="#FA9E14" >
</path>
<path d="M12.5 19C12.5 23.6667 16.3333 26 24 26C29 26 31.5 27 31.5 29C31.5 29.6461 31.0091 30.2424 30.0273 30.7889C28.5768 31.5963 26.5677 32 24 32C21.0865 32 18.4688 31.2114 16.147 29.6341C15.8222 29.4064 15.4267 29.2727 15 29.2727C13.8954 29.2727 13 30.1682 13 31.2727C13 31.9707 13.3575 32.5851 13.8994 32.9429C16.8993 34.981 20.2662 36 24 36C27.2598 36 29.9174 35.428 31.9727 34.2839C34.3242 32.9749 35.5 31.2136 35.5 29C35.5 24.3333 31.6667 22 24 22C19 22 16.5 21 16.5 19C16.5 18.4009 17.0441 17.8097 18.1324 17.2264C19.6576 16.4088 21.6135 16 24 16C26.7964 16 29.4257 16.7966 31.8878 18.3898C32.2058 18.6029 32.5884 18.7273 33 18.7273C34.1046 18.7273 35 17.8318 35 16.7273C35 16.0122 34.6247 15.3848 34.0604 15.0312C30.9373 13.0104 27.5839 12 24 12C20.9439 12 18.3581 12.567 16.2426 13.7009C13.7475 15.0383 12.5 16.8047 12.5 19Z" fill-rule="evenodd"  fill="#FA9E14" >
</path>
<path d="M24.001 39C25.1055 39 26.001 38.1046 26.001 37L26.001 11C26.001 9.8954 25.1055 9 24.001 9C22.8964 9 22.001 9.8954 22.001 11L22.001 37C22.001 38.1046 22.8964 39 24.001 39Z" fill-rule="evenodd"  fill="#FBB63E" >
</path>
<path d="M24 16C26.7936 16 29.4229 16.7975 31.8878 18.3925C32.2058 18.6057 32.5884 18.73 33 18.73C34.1046 18.73 35 17.8346 35 16.73C35 16.0149 34.6247 15.3875 34.0604 15.0339C30.9346 13.0113 27.5811 12 24 12C20.9439 12 18.3581 12.567 16.2426 13.7009C13.7475 15.0383 12.5 16.8047 12.5 19C12.5 21.9374 14.1532 23.9745 17.4597 25.1113L18.7603 21.3287C17.2534 20.8106 16.5 20.0344 16.5 19C16.5 18.4009 17.0441 17.8097 18.1324 17.2264C19.6576 16.4088 21.6135 16 24 16Z" fill-rule="evenodd"  fill="#FA9E14" >
</path>
<path d="M35.5 29C35.5 31.2136 34.3242 32.9749 31.9727 34.2839C29.9174 35.428 27.2598 36 24 36C20.2688 36 16.9019 34.9801 13.8994 32.9402C13.3575 32.5824 13 31.9679 13 31.27C13 30.1654 13.8954 29.27 15 29.27C15.4267 29.27 15.8222 29.4036 16.1469 29.6313C18.4714 31.2104 21.0891 32 24 32C26.5677 32 28.5768 31.5963 30.0273 30.7889C31.0091 30.2423 31.5 29.646 31.5 29L35.5 29Z" fill-rule="evenodd"  fill="#FA9E14" >
</path>
</svg>
