<svg xmlns="http://www.w3.org/2000/svg" xmlns:xlink="http://www.w3.org/1999/xlink" width="48" height="48" viewBox="0 0 48 48" fill="none">
<path d="M22.091 37.58C22.111 37.64 22.131 37.7 22.151 37.77C22.181 37.83 22.211 37.89 22.241 37.94C22.271 38 22.301 38.06 22.341 38.11C22.371 38.17 22.411 38.22 22.451 38.27C22.501 38.32 22.541 38.37 22.591 38.41C22.631 38.46 22.681 38.5 22.731 38.55C22.781 38.59 22.831 38.63 22.891 38.66C22.941 38.7 23.001 38.73 23.061 38.76C23.111 38.79 23.171 38.82 23.231 38.85C23.301 38.87 23.361 38.89 23.421 38.91C23.481 38.93 23.551 38.95 23.611 38.96C23.671 38.97 23.741 38.98 23.801 38.99C23.871 39 23.931 39 24.001 39C24.071 39 24.131 39 24.201 38.99C24.261 38.98 24.331 38.97 24.391 38.96C24.451 38.95 24.521 38.93 24.581 38.91C24.641 38.89 24.701 38.87 24.771 38.85C24.831 38.82 24.891 38.79 24.941 38.76C25.001 38.73 25.061 38.7 25.111 38.66C25.171 38.63 25.221 38.59 25.271 38.55C25.321 38.5 25.371 38.46 25.411 38.41C25.461 38.37 25.501 38.32 25.551 38.27C25.591 38.22 25.631 38.17 25.661 38.11C25.701 38.06 25.731 38 25.761 37.94C25.791 37.89 25.821 37.83 25.851 37.77C25.871 37.7 25.891 37.64 25.911 37.58C25.931 37.52 25.951 37.45 25.961 37.39C25.971 37.33 25.981 37.26 25.991 37.2C26.001 37.13 26.001 37.07 26.001 37L26.001 30L31.999 30C32.069 30 32.129 30 32.199 29.99C32.259 29.98 32.329 29.97 32.389 29.96C32.459 29.95 32.519 29.93 32.579 29.91C32.639 29.89 32.709 29.87 32.769 29.85C32.829 29.82 32.889 29.79 32.939 29.76C32.999 29.73 33.059 29.7 33.109 29.66C33.169 29.63 33.219 29.59 33.269 29.55C33.319 29.5 33.369 29.46 33.409 29.41C33.459 29.37 33.499 29.32 33.549 29.27C33.589 29.22 33.629 29.17 33.659 29.11C33.699 29.06 33.729 29 33.759 28.94C33.789 28.88 33.819 28.83 33.849 28.77C33.869 28.7 33.889 28.64 33.909 28.58C33.929 28.52 33.949 28.45 33.959 28.39C33.969 28.33 33.979 28.26 33.989 28.2C33.999 28.13 33.999 28.07 33.999 28C33.999 27.93 33.999 27.87 33.989 27.8C33.979 27.74 33.969 27.67 33.959 27.61C33.949 27.55 33.929 27.48 33.909 27.42C33.889 27.36 33.869 27.3 33.849 27.23C33.819 27.17 33.789 27.12 33.759 27.06C33.729 27 33.699 26.94 33.659 26.89C33.629 26.83 33.589 26.78 33.549 26.73C33.499 26.68 33.459 26.63 33.409 26.59C33.369 26.54 33.319 26.5 33.269 26.45C33.219 26.41 33.169 26.37 33.109 26.34C33.059 26.3 32.999 26.27 32.939 26.24C32.889 26.21 32.829 26.18 32.769 26.15C32.709 26.13 32.639 26.11 32.579 26.09C32.519 26.07 32.459 26.05 32.389 26.04C32.329 26.03 32.259 26.02 32.199 26.01C32.129 26 32.069 26 31.999 26L26.001 26L26.001 23L31.999 23C32.069 23 32.129 23 32.199 22.99C32.259 22.98 32.329 22.97 32.389 22.96C32.459 22.95 32.519 22.93 32.579 22.91C32.639 22.89 32.709 22.87 32.769 22.85C32.829 22.82 32.889 22.79 32.939 22.76C32.999 22.73 33.059 22.7 33.109 22.66C33.169 22.63 33.219 22.59 33.269 22.55C33.319 22.5 33.369 22.46 33.409 22.41C33.459 22.37 33.499 22.32 33.549 22.27C33.589 22.22 33.629 22.17 33.659 22.11C33.699 22.06 33.729 22 33.759 21.94C33.789 21.88 33.819 21.83 33.849 21.77C33.869 21.7 33.889 21.64 33.909 21.58C33.929 21.52 33.949 21.45 33.959 21.39C33.969 21.33 33.979 21.26 33.989 21.2C33.999 21.13 33.999 21.07 33.999 21C33.999 20.93 33.999 20.87 33.989 20.8C33.979 20.74 33.969 20.67 33.959 20.61C33.949 20.55 33.929 20.48 33.909 20.42C33.889 20.36 33.869 20.3 33.849 20.23C33.819 20.17 33.789 20.12 33.759 20.06C33.729 20 33.699 19.94 33.659 19.89C33.629 19.83 33.589 19.78 33.549 19.73C33.499 19.68 33.459 19.63 33.409 19.59C33.369 19.54 33.319 19.5 33.269 19.45C33.219 19.41 33.169 19.37 33.109 19.34C33.059 19.3 32.999 19.27 32.939 19.24C32.889 19.21 32.829 19.18 32.769 19.15C32.709 19.13 32.639 19.11 32.579 19.09C32.519 19.07 32.459 19.05 32.389 19.04C32.329 19.03 32.259 19.02 32.199 19.01C32.129 19 32.069 19 31.999 19L27.8255 19L32.41 14.41C32.46 14.37 32.5 14.32 32.55 14.27C32.59 14.22 32.63 14.17 32.66 14.11C32.7 14.06 32.73 14 32.76 13.94C32.79 13.88 32.82 13.83 32.85 13.77C32.87 13.7 32.89 13.64 32.91 13.58C32.93 13.52 32.95 13.45 32.96 13.39C32.97 13.33 32.98 13.26 32.99 13.2C33 13.13 33 13.07 33 13C33 12.93 33 12.87 32.99 12.8C32.98 12.74 32.97 12.67 32.96 12.61C32.95 12.55 32.93 12.48 32.91 12.42C32.89 12.36 32.87 12.3 32.85 12.23C32.82 12.17 32.79 12.11 32.76 12.06C32.73 12 32.7 11.94 32.66 11.89C32.63 11.83 32.59 11.78 32.55 11.73C32.5 11.68 32.46 11.63 32.41 11.59C32.32 11.49 32.22 11.41 32.11 11.34C32 11.26 31.89 11.2 31.77 11.15C31.64 11.1 31.52 11.06 31.39 11.04C31.26 11.01 31.13 11 31 11C30.87 11 30.74 11.01 30.61 11.04C30.48 11.06 30.36 11.1 30.23 11.15C30.11 11.2 30 11.26 29.89 11.34C29.78 11.41 29.68 11.49 29.59 11.59L24 17.17L18.41 11.59C18.37 11.54 18.32 11.5 18.27 11.45C18.22 11.41 18.17 11.37 18.11 11.34C18.06 11.3 18 11.27 17.94 11.24C17.88 11.21 17.83 11.18 17.77 11.15C17.7 11.13 17.64 11.11 17.58 11.09C17.52 11.07 17.45 11.05 17.39 11.04C17.33 11.03 17.26 11.02 17.2 11.01C17.13 11 17.07 11 17 11C16.93 11 16.87 11 16.8 11.01C16.74 11.02 16.67 11.03 16.61 11.04C16.55 11.05 16.48 11.07 16.42 11.09C16.36 11.11 16.3 11.13 16.23 11.15C16.17 11.18 16.11 11.21 16.06 11.24C16 11.27 15.94 11.3 15.89 11.34C15.83 11.37 15.78 11.41 15.73 11.45C15.68 11.5 15.63 11.54 15.59 11.59C15.54 11.63 15.5 11.68 15.45 11.73C15.41 11.78 15.37 11.83 15.34 11.89C15.3 11.94 15.27 12 15.24 12.06C15.21 12.12 15.18 12.17 15.15 12.23C15.13 12.3 15.11 12.36 15.09 12.42C15.07 12.48 15.05 12.55 15.04 12.61C15.03 12.67 15.02 12.74 15.01 12.8C15 12.87 15 12.93 15 13C15 13.07 15 13.13 15.01 13.2C15.02 13.26 15.03 13.33 15.04 13.39C15.05 13.45 15.07 13.52 15.09 13.58C15.11 13.64 15.13 13.7 15.15 13.77C15.18 13.83 15.21 13.89 15.24 13.94C15.27 14 15.3 14.06 15.34 14.11C15.37 14.17 15.41 14.22 15.45 14.27C15.5 14.32 15.54 14.37 15.59 14.41L20.1745 19L15.999 19C15.929 19 15.869 19 15.799 19.01C15.739 19.02 15.669 19.03 15.609 19.04C15.549 19.05 15.479 19.07 15.419 19.09C15.359 19.11 15.299 19.13 15.229 19.15C15.169 19.18 15.109 19.21 15.059 19.24C14.999 19.27 14.939 19.3 14.889 19.34C14.829 19.37 14.779 19.41 14.729 19.45C14.679 19.5 14.629 19.54 14.589 19.59C14.539 19.63 14.499 19.68 14.449 19.73C14.409 19.78 14.369 19.83 14.339 19.89C14.299 19.94 14.269 20 14.239 20.06C14.209 20.11 14.179 20.17 14.149 20.23C14.129 20.3 14.109 20.36 14.089 20.42C14.069 20.48 14.049 20.55 14.039 20.61C14.029 20.67 14.019 20.74 14.009 20.8C13.999 20.87 13.999 20.93 13.999 21C13.999 21.07 13.999 21.13 14.009 21.2C14.019 21.26 14.029 21.33 14.039 21.39C14.049 21.45 14.069 21.52 14.089 21.58C14.109 21.64 14.129 21.7 14.149 21.77C14.179 21.83 14.209 21.89 14.239 21.94C14.269 22 14.299 22.06 14.339 22.11C14.369 22.17 14.409 22.22 14.449 22.27C14.499 22.32 14.539 22.37 14.589 22.41C14.629 22.46 14.679 22.5 14.729 22.55C14.779 22.59 14.829 22.63 14.889 22.66C14.939 22.7 14.999 22.73 15.059 22.76C15.109 22.79 15.169 22.82 15.229 22.85C15.299 22.87 15.359 22.89 15.419 22.91C15.479 22.93 15.549 22.95 15.609 22.96C15.669 22.97 15.739 22.98 15.799 22.99C15.869 23 15.929 23 15.999 23L22.001 23L22.001 26L15.999 26C15.929 26 15.869 26 15.799 26.01C15.739 26.02 15.669 26.03 15.609 26.04C15.549 26.05 15.479 26.07 15.419 26.09C15.359 26.11 15.299 26.13 15.229 26.15C15.169 26.18 15.109 26.21 15.059 26.24C14.999 26.27 14.939 26.3 14.889 26.34C14.829 26.37 14.779 26.41 14.729 26.45C14.679 26.5 14.629 26.54 14.589 26.59C14.539 26.63 14.499 26.68 14.449 26.73C14.409 26.78 14.369 26.83 14.339 26.89C14.299 26.94 14.269 27 14.239 27.06C14.209 27.11 14.179 27.17 14.149 27.23C14.129 27.3 14.109 27.36 14.089 27.42C14.069 27.48 14.049 27.55 14.039 27.61C14.029 27.67 14.019 27.74 14.009 27.8C13.999 27.87 13.999 27.93 13.999 28C13.999 28.07 13.999 28.13 14.009 28.2C14.019 28.26 14.029 28.33 14.039 28.39C14.049 28.45 14.069 28.52 14.089 28.58C14.109 28.64 14.129 28.7 14.149 28.77C14.179 28.83 14.209 28.89 14.239 28.94C14.269 29 14.299 29.06 14.339 29.11C14.369 29.17 14.409 29.22 14.449 29.27C14.499 29.32 14.539 29.37 14.589 29.41C14.629 29.46 14.679 29.5 14.729 29.55C14.779 29.59 14.829 29.63 14.889 29.66C14.939 29.7 14.999 29.73 15.059 29.76C15.109 29.79 15.169 29.82 15.229 29.85C15.299 29.87 15.359 29.89 15.419 29.91C15.479 29.93 15.549 29.95 15.609 29.96C15.669 29.97 15.739 29.98 15.799 29.99C15.869 30 15.929 30 15.999 30L22.001 30L22.001 37C22.001 37.07 22.001 37.13 22.011 37.2C22.021 37.26 22.031 37.33 22.041 37.39C22.051 37.45 22.071 37.52 22.091 37.58ZM45 24C45 26.85 44.45 29.57 43.35 32.17C42.29 34.69 40.79 36.91 38.85 38.85C36.91 40.79 34.69 42.29 32.17 43.35C29.57 44.45 26.85 45 24 45C21.15 45 18.43 44.45 15.83 43.35C13.31 42.29 11.09 40.79 9.15 38.85C7.21 36.91 5.71 34.69 4.65 32.17C3.55 29.57 3 26.85 3 24C3 21.15 3.55 18.43 4.65 15.83C5.71 13.31 7.21 11.09 9.15 9.15C11.09 7.21 13.31 5.71 15.83 4.65C18.43 3.55 21.15 3 24 3C26.85 3 29.57 3.55 32.17 4.65C34.69 5.71 36.91 7.21 38.85 9.15C40.79 11.09 42.29 13.31 43.35 15.83C44.45 18.43 45 21.15 45 24ZM36.02 11.98C37.59 13.55 38.8 15.35 39.66 17.39C40.55 19.49 41 21.69 41 24C41 26.31 40.55 28.51 39.66 30.61C38.8 32.65 37.59 34.45 36.02 36.02C34.45 37.59 32.65 38.8 30.61 39.66C28.51 40.55 26.31 41 24 41C21.69 41 19.49 40.55 17.39 39.66C15.35 38.8 13.55 37.59 11.98 36.02C10.41 34.45 9.2 32.65 8.34 30.61C7.45 28.51 7 26.31 7 24C7 21.69 7.45 19.49 8.34 17.39C9.2 15.35 10.41 13.55 11.98 11.98C13.55 10.41 15.35 9.2 17.39 8.34C19.49 7.45 21.69 7 24 7C26.31 7 28.51 7.45 30.61 8.34C32.65 9.2 34.45 10.41 36.02 11.98Z" fill-rule="evenodd"  fill="#000000" >
</path>
</svg>
