<svg xmlns="http://www.w3.org/2000/svg" xmlns:xlink="http://www.w3.org/1999/xlink" width="48" height="48" viewBox="0 0 48 48" fill="none">
<path d="M24 45C35.598 45 45 35.598 45 24C45 12.402 35.598 3 24 3C12.402 3 3 12.402 3 24C3 35.598 12.402 45 24 45ZM24 7C33.3888 7 41 14.6112 41 24C41 33.3888 33.3888 41 24 41C14.6112 41 7 33.3888 7 24C7 14.6112 14.6112 7 24 7Z" fill-rule="evenodd"  fill="#787878" >
</path>
<path d="M14 21C12.34 21 11 22.34 11 24C11 25.66 12.34 27 14 27C15.66 27 17 25.66 17 24C17 22.34 15.66 21 14 21Z"   fill="#424242" >
</path>
<path d="M24 21C22.34 21 21 22.34 21 24C21 25.66 22.34 27 24 27C25.66 27 27 25.66 27 24C27 22.34 25.66 21 24 21Z"   fill="#424242" >
</path>
<path d="M34 21C32.34 21 31 22.34 31 24C31 25.66 32.34 27 34 27C35.66 27 37 25.66 37 24C37 22.34 35.66 21 34 21Z"   fill="#424242" >
</path>
</svg>
