<svg xmlns="http://www.w3.org/2000/svg" xmlns:xlink="http://www.w3.org/1999/xlink" width="48" height="48" viewBox="0 0 48 48" fill="none">
<path d="M6.99999 27.4642L18.9998 34.3924C21.6665 35.932 24.9998 34.0075 24.9998 30.9283L24.9998 17.0719C24.9998 13.9927 21.6665 12.0682 18.9998 13.6078L6.99999 20.536C4.33334 22.0756 4.33334 25.9246 6.99999 27.4642Z"   fill="#4187FF" >
</path>
<path d="M5.99997 29.1959L17.9998 36.1241C21.8347 38.3382 26.5888 35.7763 26.9747 31.4909L34.9998 36.1243C38.9998 38.4337 43.9998 35.5469 43.9998 30.9281L43.9998 17.0717C43.9998 12.4529 38.9998 9.56614 34.9998 11.8755L26.9747 16.5089C26.5888 12.2234 21.8347 9.66145 17.9998 11.8756L5.99997 18.8038C2.00001 21.1131 2.00001 26.8865 5.99997 29.1959ZM22.9998 18.8038L22.9998 17.0717C22.9998 15.5321 21.3332 14.5698 19.9998 15.3396L7.99999 22.2678C6.66667 23.0376 6.66667 24.962 7.99998 25.7318L19.9998 32.66C21.3332 33.4298 22.9998 32.4676 22.9998 30.928L22.9998 29.196L22.9998 29.196C18.9998 26.8866 18.9998 21.1132 22.9998 18.8038L22.9998 18.8038Z" fill-rule="evenodd"  fill="#1764FF" >
</path>
</svg>
