<svg xmlns="http://www.w3.org/2000/svg" xmlns:xlink="http://www.w3.org/1999/xlink" width="48" height="48" viewBox="0 0 48 48" fill="none">
<path d="M5.88 39.13C5.29 37.74 5 36.28 5 34.76C5 33.23 5.29 31.78 5.88 30.38C6.45 29.04 7.26 27.85 8.29 26.81C9.33 25.77 10.52 24.97 11.87 24.4C13.26 23.81 14.72 23.52 16.24 23.52C17.76 23.52 19.22 23.81 20.62 24.4C21.67 24.85 22.63 25.43 23.49 26.16L23.49 4.71C23.49 4.35 23.56 4 23.7 3.67C23.83 3.35 24.02 3.06 24.27 2.81C24.51 2.56 24.8 2.36 25.13 2.22C25.47 2.07 25.82 2 26.19 2L27.65 2L28.1 3.39C28.12 3.48 28.17 3.62 28.24 3.8C28.39 4.19 28.57 4.6 28.77 5.02C29.41 6.39 30.17 7.64 31.05 8.77C32.25 10.32 33.59 11.53 35.06 12.4C36.86 13.47 38.84 14 41 14C42.1 14 43 14.9 43 16C43 17.1 42.1 18 41 18C38.11 18 35.46 17.28 33.03 15.85C31.12 14.72 29.4 13.18 27.89 11.23C27.75 11.05 27.62 10.87 27.49 10.69L27.49 34.76C27.49 36.28 27.2 37.74 26.61 39.14C26.04 40.48 25.23 41.67 24.19 42.71C23.16 43.74 21.97 44.55 20.62 45.12C19.22 45.71 17.77 46 16.24 46C14.72 46 13.26 45.71 11.87 45.12C10.52 44.55 9.33 43.74 8.29 42.71C7.26 41.67 6.45 40.48 5.88 39.13ZM16.24 42C15.26 42 14.32 41.81 13.42 41.43C12.56 41.07 11.79 40.55 11.12 39.88C10.45 39.21 9.93 38.44 9.57 37.58C9.19 36.68 9 35.74 9 34.76C9 33.78 9.19 32.84 9.57 31.94C9.93 31.07 10.45 30.31 11.12 29.64C11.79 28.97 12.56 28.45 13.42 28.09C14.32 27.71 15.26 27.52 16.24 27.52C17.23 27.52 18.17 27.71 19.06 28.09C19.93 28.45 20.7 28.97 21.37 29.64C22.04 30.31 22.56 31.07 22.92 31.94C23.3 32.84 23.49 33.78 23.49 34.76C23.49 35.74 23.3 36.68 22.92 37.58C22.55 38.44 22.04 39.21 21.37 39.88C20.7 40.55 19.93 41.06 19.06 41.43C18.17 41.81 17.22 42 16.24 42Z" fill-rule="evenodd"  fill="#000000" >
</path>
</svg>
