<svg xmlns="http://www.w3.org/2000/svg" xmlns:xlink="http://www.w3.org/1999/xlink" width="48" height="48" viewBox="0 0 48 48" fill="none">
<path d="M13 36.1244L25 29.1961C29 26.8867 29 21.1133 25 18.8039L13 11.8757C9.00002 9.56626 4.00002 12.453 4.00002 17.0718L4.00002 30.9282C4.00002 35.547 9.00002 38.4338 13 36.1244ZM23 22.268C24.3333 23.0378 24.3333 24.9622 23 25.732L11 32.6603C9.66662 33.4301 8.00002 32.4678 8.00002 30.9282L8.00002 17.0718C8.00002 15.5322 9.66662 14.57 11 15.3398L23 22.268Z" fill-rule="evenodd"  fill="#787878" >
</path>
<path d="M25.0003 18.8041L24.9999 18.8039L21.0254 16.5092C21.4112 12.2237 26.1653 9.66154 30.0003 11.8757L42.0001 18.8039C46.0001 21.1133 46.0001 26.8867 42.0001 29.1961L30.0003 36.1243C26.1653 38.3384 21.4112 35.7764 21.0254 31.4909L24.9999 29.1962L25.0003 29.196L25.0003 30.9282C25.0003 32.4678 26.6669 33.43 28.0003 32.6602L40.0001 25.732C41.3334 24.9622 41.3334 23.0378 40.0001 22.268L28.0003 15.3398C26.6669 14.57 25.0003 15.5322 25.0003 17.0718L25.0003 18.8041Z" fill-rule="evenodd"  fill="#424242" >
</path>
</svg>
