<svg xmlns="http://www.w3.org/2000/svg" xmlns:xlink="http://www.w3.org/1999/xlink" width="48" height="48" viewBox="0 0 48 48" fill="none">
<path d="M34.6992 25.7427L34.6992 33.6725C33.9725 33.3794 33.1796 33.2179 32.3496 33.2179C28.8204 33.2179 26 36.0788 26 39.608C26 43.1148 28.8428 45.9982 32.3496 45.9982C35.8788 45.9982 38.6992 43.1372 38.6992 39.608L38.6992 31.1722C40.2237 32.3895 41.9906 32.9982 44 32.9982L44 28.9982C41.5217 28.9982 39.8339 27.5986 38.9365 24.7993C38.8038 24.3854 38.545 24.0381 38.4487 23.9679C38.4284 23.953 38.4153 23.9506 38.4122 23.9625C38.0487 23.616 37.5586 23.4099 37.0319 23.4099C35.7436 23.4099 34.6992 24.4543 34.6992 25.7427ZM34.6992 39.608C34.6992 38.3104 33.6472 37.2179 32.3496 37.2179C31.0295 37.2179 30 38.288 30 39.608C30 40.9057 31.0519 41.9982 32.3496 41.9982C33.6696 41.9982 34.6992 40.928 34.6992 39.608Z" fill-rule="evenodd"  fill="#424242" >
</path>
<path d="M44 29C42.9 29 42 29.9 42 31C42 32.1 42.9 33 44 33C45.1 33 46 32.1 46 31C46 29.9 45.1 29 44 29Z"   fill="#424242" >
</path>
<path d="M10 44L20 44C21.1046 44 22 43.1046 22 42C22 40.8954 21.1046 40 20 40L10 40C8.89543 40 8 39.1046 8 38L8 34C8 31.7909 9.79086 30 12 30L25 30C26.1046 30 27 29.1046 27 28C27 26.8954 26.1046 26 25 26L12 26C7.58172 26 4 29.5817 4 34L4 38C4 41.3137 6.68629 44 10 44Z" fill-rule="evenodd"  fill="#787878" >
</path>
<path d="M24 24C29.5228 24 34 19.5228 34 14C34 8.47715 29.5228 4 24 4C18.4771 4 14 8.47715 14 14C14 19.5228 18.4771 24 24 24ZM24 8C27.3137 8 30 10.6863 30 14C30 17.3137 27.3137 20 24 20C20.6863 20 18 17.3137 18 14C18 10.6863 20.6863 8 24 8Z" fill-rule="evenodd"  fill="#787878" >
</path>
</svg>
