<svg xmlns="http://www.w3.org/2000/svg" xmlns:xlink="http://www.w3.org/1999/xlink" width="48" height="48" viewBox="0 0 48 48" fill="none">
<path d="M35 36.1244L23 29.1961C19 26.8867 19 21.1133 23 18.8039L35 11.8757C39 9.56626 44 12.453 44 17.0718L44 30.9282C44 35.547 39 38.4338 35 36.1244ZM25 22.268C23.6667 23.0378 23.6667 24.9622 25 25.732L37 32.6603C38.3334 33.4301 40 32.4678 40 30.9282L40 17.0718C40 15.5322 38.3334 14.57 37 15.3398L25 22.268Z" fill-rule="evenodd"  fill="#787878" >
</path>
<path d="M26.9751 16.509C26.5892 12.2236 21.8351 9.66158 18.0002 11.8757L6.00037 18.8039C2.00041 21.1133 2.00041 26.8867 6.00037 29.1961L18.0002 36.1243C21.8351 38.3384 26.5891 35.7765 26.9751 31.4911L23.0002 29.1962L23.0002 30.9282C23.0002 32.4678 21.3336 33.43 20.0002 32.6602L8.00038 25.732C6.66707 24.9622 6.66707 23.0378 8.00039 22.268L20.0002 15.3398C21.3336 14.57 23.0002 15.5322 23.0002 17.0718L23.0002 18.8039L26.9751 16.509Z" fill-rule="evenodd"  fill="#424242" >
</path>
</svg>
