<svg xmlns="http://www.w3.org/2000/svg" xmlns:xlink="http://www.w3.org/1999/xlink" width="48" height="48" viewBox="0 0 48 48" fill="none">
<path d="M24.0006 45C35.5986 45 45.0006 35.598 45.0006 24C45.0006 12.402 35.5986 3 24.0006 3C12.4026 3 3.0006 12.402 3.0006 24C3.0006 35.598 12.4026 45 24.0006 45ZM28.3889 14.9121C27.5715 14.6609 26.9772 13.8998 26.9772 13C26.9772 11.8954 27.8726 11 28.9772 11C29.2144 11 29.442 11.0413 29.6532 11.1171C31.4439 11.7167 32.9458 12.6229 34.1587 13.8357C35.3742 15.0511 36.2757 16.5502 36.8633 18.333C36.937 18.5416 36.9772 18.7661 36.9772 19C36.9772 20.1046 36.0818 21 34.9772 21C34.0741 21 33.3107 20.4014 33.0624 19.5793C32.6733 18.4014 32.0959 17.4298 31.3304 16.6643C30.5626 15.8965 29.5821 15.3124 28.3889 14.9121ZM24.0006 31C27.8666 31 31.0006 27.866 31.0006 24C31.0006 20.134 27.8666 17 24.0006 17C20.1346 17 17.0006 20.134 17.0006 24C17.0006 27.866 20.1346 31 24.0006 31ZM24.0006 21C25.6575 21 27.0006 22.3432 27.0006 24C27.0006 25.6568 25.6575 27 24.0006 27C22.3438 27 21.0006 25.6568 21.0006 24C21.0006 22.3432 22.3438 21 24.0006 21Z" fill-rule="evenodd"  fill="#000000" >
</path>
</svg>
