<svg xmlns="http://www.w3.org/2000/svg" xmlns:xlink="http://www.w3.org/1999/xlink" width="48" height="48" viewBox="0 0 48 48" fill="none">
<path d="M13.9614 4.45754L13.9614 17.0538C12.7897 16.3743 11.4304 15.9848 9.98072 15.9848C5.55825 15.9848 2 19.57 2 23.9924C2 28.4001 5.57309 32 9.98072 32C14.4032 32 17.9614 28.4149 17.9614 23.9924L17.9614 10.4221C20.1845 12.8074 22.864 14 25.9997 14L25.9997 10C23.6992 10 21.7454 8.93244 20.1381 6.79723C19.2748 5.65036 18.6723 4.52178 18.3304 3.4115C18.2013 2.99199 17.9429 2.63912 17.846 2.56756C17.8255 2.55245 17.8122 2.54988 17.8089 2.56187C17.4446 2.20994 16.9506 2 16.419 2C15.0617 2 13.9614 3.10028 13.9614 4.45754ZM13.9614 23.9924C13.9614 21.7939 12.1792 19.9848 9.98072 19.9848C7.76739 19.9848 6 21.7791 6 23.9924C6 26.1909 7.78223 28 9.98072 28C12.194 28 13.9614 26.2057 13.9614 23.9924Z" fill-rule="evenodd"  fill="#787878" >
</path>
<path d="M26 10C24.9 10 24 10.9 24 12C24 13.1 24.9 14 26 14C27.1 14 28 13.1 28 12C28 10.9 27.1 10 26 10Z"   fill="#787878" >
</path>
<path d="M19.1194 43.3207L32.1194 7.32066C32.7812 5.48799 35.406 5.58724 35.9275 7.46466L45.9275 43.4648L45.9271 43.4649C45.9748 43.6354 46.0003 43.8148 46.0003 44C46.0003 45.1 45.1003 46 44.0003 46C43.0855 46 42.3091 45.3776 42.0735 44.5354L39.0081 33.5L26.9186 33.5L22.8816 44.6793L22.8809 44.679C22.6014 45.4474 21.8622 46 21.0003 46C19.9003 46 19.0003 45.1 19.0003 44C19.0003 43.7619 19.0425 43.5331 19.1197 43.3208L19.1194 43.3207ZM33.7518 14.5772L37.897 29.5L28.363 29.5L33.7518 14.5772Z" fill-rule="evenodd"  fill="#424242" >
</path>
</svg>
