<svg xmlns="http://www.w3.org/2000/svg" xmlns:xlink="http://www.w3.org/1999/xlink" width="48" height="48" viewBox="0 0 48 48" fill="none">
<path d="M9.00027 30.0002C9.00041 31.1048 9.89596 32.0001 11.0005 32L18.3338 31.999C19.4384 31.9989 20.3337 31.1033 20.3335 29.9987C20.3334 28.8942 19.4378 27.9989 18.3333 27.999L11 28C9.89543 28.0001 9.00012 28.8957 9.00027 30.0002Z" fill-rule="evenodd"  fill="#424242" >
</path>
<path d="M11 34L10.9998 34C9.89534 34.0001 9 34.8955 9 36C9 37.1046 9.89543 38 11 38L11.0002 38L23.0003 37.999L23.0005 37.999C24.105 37.9989 25.0003 37.1035 25.0003 35.999C25.0003 34.8945 24.1049 33.999 23.0003 33.999L23.0002 33.999L11 34Z" fill-rule="evenodd"  fill="#424242" >
</path>
<path d="M10.0003 3L26.0003 3C29.314 3 32.0003 5.68629 32.0003 9L32.0003 16.252C35.4508 17.1401 38.0003 20.2723 38.0003 24C38.0003 27.7277 35.4508 30.8599 32.0003 31.748L32.0003 39C32.0003 42.3137 29.314 45 26.0003 45L10.0003 45C5.58202 45 2.0003 41.4183 2.0003 37L2.0003 11C2.0003 6.58172 5.58202 3 10.0003 3ZM32.0003 27.4649C33.1959 26.7733 34.0003 25.4806 34.0003 24C34.0003 22.5194 33.1959 21.2267 32.0003 20.5351L32.0003 27.4649L32.0003 27.4649ZM28.0003 16L28.0003 9C28.0003 7.89543 27.1049 7 26.0003 7L10.0003 7C7.79116 7 6.0003 8.79086 6.0003 11L6.0003 37C6.0003 39.2091 7.79116 41 10.0003 41L26.0003 41C27.1049 41 28.0003 40.1046 28.0003 39L28.0003 16Z" fill-rule="evenodd"  fill="#787878" >
</path>
<path d="M31.3674 41.6857C39.6994 40.1092 46.0007 32.7904 46.0007 24C46.0007 15.2096 39.6994 7.89083 31.3674 6.31436C31.7726 7.12238 32.0006 8.03457 32.0006 9.00003L32.0006 10.5798C37.7836 12.3008 42.0007 17.658 42.0007 24C42.0007 30.3421 37.7836 35.6992 32.0006 37.4203L32.0006 39C32.0006 39.9655 31.7726 40.8777 31.3674 41.6857Z" fill-rule="evenodd"  fill="#424242" >
</path>
</svg>
