<svg xmlns="http://www.w3.org/2000/svg" xmlns:xlink="http://www.w3.org/1999/xlink" width="48" height="48" viewBox="0 0 48 48" fill="none">
<path d="M36 4L12 4C7.58172 4 4 7.58172 4 12L4 36C4 40.4183 7.58172 44 12 44L36 44C40.4183 44 44 40.4183 44 36L44 12C44 7.58172 40.4183 4 36 4ZM8 12C8 9.79086 9.79086 8 12 8L36 8C38.2091 8 40 9.79086 40 12L40 36C40 38.2091 38.2091 40 36 40L12 40C9.79086 40 8 38.2091 8 36L8 12Z" fill-rule="evenodd"  fill="#787878" >
</path>
<path d="M14 27C10.1144 27 6.97632 28.1953 4.58579 30.5858C4.22386 30.9477 4 31.4477 4 32C4 33.1046 4.89543 34 6 34C6.55228 34 7.05228 33.7761 7.41421 33.4142C9.0237 31.8047 11.219 31 14 31C15.3401 31 16.9896 31.8395 18.9484 33.5185C21.6563 35.8395 24.1735 37 26.5 37C30.8655 37 33.9144 35.7118 35.6467 33.1355C35.8695 32.8129 36 32.4217 36 32C36 30.8954 35.1046 30 34 30C33.2971 30 32.6789 30.3626 32.3223 30.9109C31.3796 32.3036 29.4389 33 26.5 33C25.1599 33 23.5105 32.1605 21.5516 30.4815C18.8438 28.1605 16.3266 27 14 27Z" fill-rule="evenodd"  fill="#787878" >
</path>
<path d="M19 25C22.3137 25 25 22.3137 25 19C25 15.6863 22.3137 13 19 13C15.6863 13 13 15.6863 13 19C13 22.3137 15.6863 25 19 25ZM19 17C20.1046 17 21 17.8954 21 19C21 20.1046 20.1046 21 19 21C17.8954 21 17 20.1046 17 19C17 17.8954 17.8954 17 19 17Z" fill-rule="evenodd"  fill="#424242" >
</path>
</svg>
