<svg xmlns="http://www.w3.org/2000/svg" xmlns:xlink="http://www.w3.org/1999/xlink" width="48" height="48" viewBox="0 0 48 48" fill="none">
<path d="M12.0002 4L36.0002 4C40.4185 4 44.0002 7.58172 44.0002 12L44.0002 36C44.0002 40.4183 40.4185 44 36.0002 44L12.0002 44C7.58192 44 4.0002 40.4183 4.0002 36L4.0002 12C4.0002 7.58172 7.58192 4 12.0002 4ZM8.0002 32.8849C9.54284 31.6283 11.5428 31 14.0002 31C15.3403 31 16.9898 31.8395 18.9486 33.5185C21.6565 35.8395 24.1737 37 26.5002 37C30.8657 37 33.9146 35.7118 35.6469 33.1355C35.8697 32.8129 36.0002 32.4217 36.0002 32C36.0002 30.8954 35.1048 30 34.0002 30C33.2973 30 32.6791 30.3626 32.3225 30.9109C31.3798 32.3036 29.4391 33 26.5002 33C25.1601 33 23.5107 32.1605 21.5518 30.4815C18.844 28.1605 16.3268 27 14.0002 27C11.7494 27 9.74935 27.4011 8.0002 28.2033L8.0002 12C8.0002 9.79086 9.79106 8 12.0002 8L36.0002 8C38.2093 8 40.0002 9.79086 40.0002 12L40.0002 36C40.0002 38.2091 38.2093 40 36.0002 40L12.0002 40C9.79106 40 8.0002 38.2091 8.0002 36L8.0002 32.8849Z" fill-rule="evenodd"  fill="#787878" >
</path>
<path d="M19 25C22.3137 25 25 22.3137 25 19C25 15.6863 22.3137 13 19 13C15.6863 13 13 15.6863 13 19C13 22.3137 15.6863 25 19 25ZM19 17C20.1046 17 21 17.8954 21 19C21 20.1046 20.1046 21 19 21C17.8954 21 17 20.1046 17 19C17 17.8954 17.8954 17 19 17Z" fill-rule="evenodd"  fill="#424242" >
</path>
</svg>
