<svg xmlns="http://www.w3.org/2000/svg" xmlns:xlink="http://www.w3.org/1999/xlink" width="48" height="48" viewBox="0 0 48 48" fill="none">
<path d="M17.9971 43.0535L38.9995 30.9321C40.2383 30.2195 41.216 29.2447 41.9328 28.0075C42.6508 26.7683 43.0098 25.4325 43.0098 23.9999C43.0098 22.5674 42.6508 21.2315 41.9328 19.9923C41.216 18.7552 40.2375 17.7799 38.9971 17.0663L17.9995 4.94773C16.7591 4.2342 15.4247 3.87744 13.9961 3.87744C12.5657 3.87744 11.2332 4.23451 9.99847 4.94866C8.7612 5.66039 7.78474 6.63774 7.06907 7.88071C6.3562 9.11873 5.99977 10.4518 5.99977 11.8799L5.99977 36.1199C5.99977 37.5481 6.3562 38.8811 7.06907 40.1191C7.78474 41.3621 8.76254 42.3403 10.0025 43.0535C11.2345 43.7661 12.5657 44.1224 13.9961 44.1224C15.4247 44.1224 16.7583 43.7661 17.9971 43.0535ZM10.5355 9.87664C10.8927 9.25631 11.3812 8.76784 12.0011 8.41124C12.6163 8.05537 13.2813 7.87744 13.9961 7.87744C14.7124 7.87744 15.3804 8.05567 16.0001 8.41214L37.0025 20.5335C37.6235 20.8908 38.1132 21.3788 38.4717 21.9975C38.8304 22.6166 39.0098 23.2841 39.0098 23.9999C39.0098 24.7157 38.8304 25.3832 38.4717 26.0023C38.1132 26.6211 37.6227 27.1095 37 27.4677L16.0025 39.5863C15.3812 39.9437 14.7124 40.1224 13.9961 40.1224C13.2813 40.1224 12.615 39.9437 11.9971 39.5863C11.3799 39.2313 10.8927 38.7436 10.5355 38.1232C10.1783 37.503 9.99977 36.8352 9.99977 36.1199L9.99977 11.8799C9.99977 11.1647 10.1783 10.4969 10.5355 9.87664Z" fill-rule="evenodd"  fill="#000000" >
</path>
</svg>
