<svg xmlns="http://www.w3.org/2000/svg" xmlns:xlink="http://www.w3.org/1999/xlink" width="48" height="48" viewBox="0 0 48 48" fill="none">
<path d="M2.00071 36C2.00071 40.4183 5.58243 44 10.0007 44L38.0007 44C42.419 44 46.0007 40.4183 46.0007 36L46.0007 12C46.0007 7.58172 42.419 4 38.0007 4L10.0007 4C5.58243 4 2.00071 7.58172 2.00071 12L2.00071 36ZM10.0007 27C10.0007 28.1046 10.8961 29 12.0007 29L14.0007 29C15.1053 29 16.0007 28.1046 16.0007 27C16.0007 25.8954 15.1053 25 14.0007 25L12.0007 25C10.8961 25 10.0007 25.8954 10.0007 27ZM18.0007 27C18.0007 28.1046 18.8961 29 20.0007 29L26.0007 29C27.1053 29 28.0007 28.1046 28.0007 27C28.0007 25.8954 27.1053 25 26.0007 25L20.0007 25C18.8961 25 18.0007 25.8954 18.0007 27ZM30.0007 27C30.0007 28.1046 30.8961 29 32.0007 29L36.0007 29C37.1053 29 38.0007 28.1046 38.0007 27C38.0007 25.8954 37.1053 25 36.0007 25L32.0007 25C30.8961 25 30.0007 25.8954 30.0007 27ZM10.0007 34C10.0007 35.1046 10.8961 36 12.0007 36L16.0007 36C17.1053 36 18.0007 35.1046 18.0007 34C18.0007 32.8954 17.1053 32 16.0007 32L12.0007 32C10.8961 32 10.0007 32.8954 10.0007 34ZM20.0007 34C20.0007 35.1046 20.8961 36 22.0007 36L36.0007 36C37.1053 36 38.0007 35.1046 38.0007 34C38.0007 32.8954 37.1053 32 36.0007 32L22.0007 32C20.8961 32 20.0007 32.8954 20.0007 34Z" fill-rule="evenodd"  fill="#000000" >
</path>
</svg>
