<svg xmlns="http://www.w3.org/2000/svg" xmlns:xlink="http://www.w3.org/1999/xlink" width="48" height="48" viewBox="0 0 48 48" fill="none">
<path d="M16.24 23.52C19 23.52 21.53 24.51 23.49 26.16L23.49 4.71C23.49 3.22 24.7 2 26.19 2C26.72 2 27.21 2.21 27.57 2.55C27.5778 2.54219 27.5856 2.54658 27.5982 2.55363C27.6017 2.55562 27.6056 2.55781 27.61 2.56C27.71 2.63 27.96 2.98 28.1 3.39C28.66 5.17 29.64 6.96 31.05 8.77C33.75 12.26 37.07 14 41 14C42.1 14 43 14.9 43 16C43 17.1 42.1 18 41 18C35.76 18 31.39 15.74 27.89 11.23C27.75 11.05 27.62 10.87 27.49 10.7L27.49 34.76C27.49 40.97 22.45 46 16.24 46C10.03 46 5 40.97 5 34.76C5 28.55 10.03 23.52 16.24 23.52Z" fill-rule="evenodd"  fill="#000000" >
</path>
</svg>
