<svg xmlns="http://www.w3.org/2000/svg" xmlns:xlink="http://www.w3.org/1999/xlink" width="48" height="48" viewBox="0 0 48 48" fill="none">
<path d="M36 44L12 44C10.92 44 9.88 43.79 8.89 43.37C7.93 42.96 7.08 42.39 6.34 41.66C5.61 40.92 5.04 40.07 4.63 39.11C4.21 38.12 4 37.08 4 36L4 12C4 10.92 4.21 9.88 4.63 8.89C5.04 7.93 5.61 7.08 6.34 6.34C7.08 5.61 7.93 5.04 8.89 4.63C9.88 4.21 10.92 4 12 4L36 4C37.08 4 38.12 4.21 39.11 4.63C40.07 5.04 40.92 5.61 41.66 6.34C42.39 7.08 42.96 7.93 43.37 8.89C43.79 9.88 44 10.92 44 12L44 36C44 37.08 43.79 38.12 43.37 39.11C42.96 40.07 42.39 40.92 41.66 41.66C40.92 42.39 40.07 42.96 39.11 43.37C38.12 43.79 37.08 44 36 44ZM38.83 38.83C38.46 39.2 38.03 39.48 37.55 39.69C37.06 39.9 36.54 40 36 40L12 40C11.46 40 10.94 39.9 10.45 39.69C9.97 39.48 9.54 39.2 9.17 38.83C8.8 38.46 8.52 38.03 8.31 37.55C8.1 37.06 8 36.54 8 36L8 32.9421C8.33277 32.6978 8.69641 32.4722 9.08003 32.26C10.62 31.42 12.26 31 14 31C14.87 31 15.71 31.23 16.52 31.68C16.88 31.88 17.27 32.15 17.7 32.48C17.97 32.69 18.39 33.04 18.95 33.52C19.56 34.04 20.02 34.43 20.35 34.68C20.93 35.13 21.49 35.51 22.02 35.81C23.44 36.6 24.93 37 26.5 37C27.95 37 29.3 36.82 30.55 36.45C31.59 36.15 32.53 35.73 33.38 35.19C34.01 34.79 34.56 34.35 35.04 33.86C35.3 33.59 35.51 33.34 35.66 33.11C35.77 32.95 35.86 32.77 35.91 32.58C35.97 32.39 36 32.2 36 32C36 31.93 36 31.87 35.99 31.8C35.98 31.74 35.97 31.67 35.96 31.61C35.95 31.55 35.93 31.48 35.91 31.42C35.89 31.36 35.87 31.3 35.85 31.23C35.82 31.17 35.79 31.11 35.76 31.06C35.73 31 35.7 30.94 35.66 30.89C35.63 30.83 35.59 30.78 35.55 30.73C35.5 30.68 35.46 30.63 35.41 30.59C35.37 30.54 35.32 30.5 35.27 30.45C35.22 30.41 35.17 30.37 35.11 30.34C35.06 30.3 35 30.27 34.94 30.24C34.88 30.21 34.83 30.18 34.77 30.15C34.7 30.13 34.64 30.11 34.58 30.09C34.52 30.07 34.45 30.05 34.39 30.04C34.33 30.03 34.26 30.02 34.2 30.01C34.13 30 34.07 30 34 30C33.84 30 33.68 30.02 33.52 30.06C33.37 30.1 33.22 30.15 33.07 30.23C32.93 30.3 32.8 30.39 32.68 30.5C32.56 30.61 32.45 30.73 32.36 30.86L32.34 30.88C32.29 30.94 32.24 31 32.17 31.07C31.91 31.34 31.61 31.58 31.24 31.81C30.71 32.15 30.11 32.41 29.43 32.61C28.55 32.87 27.57 33 26.5 33C25.63 33 24.79 32.77 23.98 32.32C23.62 32.12 23.23 31.85 22.8 31.52C22.53 31.31 22.11 30.96 21.55 30.48C20.94 29.96 20.48 29.57 20.15 29.32C19.57 28.87 19.01 28.49 18.48 28.19C17.06 27.4 15.57 27 14 27C12.67 27 11.36 27.18 10.09 27.55C9.36958 27.7548 8.67408 28.0145 8 28.3256L8 12C8 11.46 8.1 10.94 8.31 10.45C8.52 9.97 8.8 9.54 9.17 9.17C9.54 8.8 9.97 8.52 10.45 8.31C10.94 8.1 11.46 8 12 8L36 8C36.54 8 37.06 8.1 37.55 8.31C38.03 8.52 38.46 8.8 38.83 9.17C39.2 9.54 39.48 9.97 39.69 10.45C39.9 10.94 40 11.46 40 12L40 36C40 36.54 39.9 37.06 39.69 37.55C39.48 38.03 39.2 38.46 38.83 38.83ZM19 13C18.19 13 17.41 13.16 16.66 13.47C15.95 13.78 15.31 14.2 14.76 14.76C14.2 15.31 13.78 15.95 13.47 16.66C13.16 17.41 13 18.19 13 19C13 19.81 13.16 20.59 13.47 21.34C13.78 22.05 14.2 22.69 14.76 23.24C15.31 23.8 15.95 24.22 16.66 24.53C17.41 24.84 18.19 25 19 25C19.81 25 20.59 24.84 21.34 24.53C22.05 24.22 22.69 23.8 23.24 23.24C23.8 22.69 24.22 22.05 24.53 21.34C24.84 20.59 25 19.81 25 19C25 18.19 24.84 17.41 24.53 16.66C24.22 15.95 23.8 15.31 23.24 14.76C22.69 14.2 22.05 13.78 21.34 13.47C20.59 13.16 19.81 13 19 13ZM17.59 17.59C17.4 17.77 17.26 17.98 17.16 18.22C17.05 18.47 17 18.73 17 19C17 19.27 17.05 19.53 17.16 19.78C17.26 20.02 17.4 20.23 17.59 20.41C17.77 20.6 17.98 20.74 18.22 20.84C18.47 20.95 18.73 21 19 21C19.27 21 19.53 20.95 19.78 20.84C20.02 20.74 20.23 20.6 20.41 20.41C20.6 20.23 20.74 20.02 20.84 19.78C20.95 19.53 21 19.27 21 19C21 18.73 20.95 18.47 20.84 18.22C20.74 17.98 20.6 17.77 20.41 17.59C20.23 17.4 20.02 17.26 19.78 17.16C19.53 17.05 19.27 17 19 17C18.73 17 18.47 17.05 18.22 17.16C17.98 17.26 17.77 17.4 17.59 17.59Z" fill-rule="evenodd"  fill="#000000" >
</path>
</svg>
