<svg xmlns="http://www.w3.org/2000/svg" xmlns:xlink="http://www.w3.org/1999/xlink" width="48" height="48" viewBox="0 0 48 48" fill="none">
<path d="M23.4858 4.70711L23.4858 26.1585C21.5294 24.5091 19.0022 23.5152 16.2429 23.5152C10.0339 23.5152 5 28.5486 5 34.7576C5 40.9669 10.0336 46 16.2429 46C22.4519 46 27.4858 40.9666 27.4858 34.7576L27.4858 10.6901C27.6176 10.8687 27.7527 11.0473 27.8911 11.2257C31.3938 15.7419 35.7634 18 41 18L41 14C37.0699 14 33.7539 12.2581 31.0518 8.77427C29.6461 6.9619 28.6619 5.16887 28.0992 3.39519C27.9675 2.97981 27.7088 2.63101 27.6124 2.56046C27.592 2.54554 27.5788 2.54306 27.5757 2.55503C27.2119 2.20709 26.7208 2 26.1929 2C24.6978 2 23.4858 3.21201 23.4858 4.70711ZM23.4858 34.7576C23.4858 30.7574 20.243 27.5152 16.2429 27.5152C12.243 27.5152 9 30.7577 9 34.7576C9 38.7577 12.2428 42 16.2429 42C20.2428 42 23.4858 38.7575 23.4858 34.7576Z" fill-rule="evenodd"  fill="#787878" >
</path>
<path d="M23.49 34.76C23.49 38.7585 20.2385 42 16.24 42C12.2415 42 9 38.7585 9 34.76C9 30.7615 12.2415 27.52 16.24 27.52C20.2441 27.52 23.49 30.756 23.49 34.76ZM5 34.76C5 40.9677 10.0323 46 16.24 46C22.4477 46 27.49 40.9677 27.49 34.76C27.49 28.5468 22.4532 23.52 16.24 23.52C10.0323 23.52 5 28.5523 5 34.76Z" fill-rule="evenodd"  fill="#424242" >
</path>
<path d="M41 14C39.9 14 39 14.9 39 16C39 17.1 39.9 18 41 18C42.1 18 43 17.1 43 16C43 14.9 42.1 14 41 14Z"   fill="#787878" >
</path>
</svg>
