<svg xmlns="http://www.w3.org/2000/svg" xmlns:xlink="http://www.w3.org/1999/xlink" width="48" height="48" viewBox="0 0 48 48" fill="none">
<path d="M36 32C40.42 32 44 28.42 44 24L44 14C44 9.58 40.42 6 36 6L20 6C15.58 6 12 9.58 12 14L12 16C7.58 16 4 19.58 4 24L4 34C4 38.42 7.58 42 12 42L28 42C32.42 42 36 38.42 36 34L36 32ZM36 28C38.21 28 40 26.21 40 24L40 14C40 11.79 38.21 10 36 10L20 10C17.79 10 16 11.79 16 14L16 16L28 16C32.42 16 36 19.58 36 24L36 28ZM12 20C9.79 20 8 21.79 8 24L8 34C8 36.21 9.79 38 12 38L28 38C30.21 38 32 36.21 32 34L32 32L20 32C15.58 32 12 28.42 12 24L12 20ZM32 28L20 28C17.79 28 16 26.21 16 24L16 20L28 20C30.21 20 32 21.79 32 24L32 28Z" fill-rule="evenodd"  fill="#000000" >
</path>
</svg>
