<svg xmlns="http://www.w3.org/2000/svg" xmlns:xlink="http://www.w3.org/1999/xlink" width="48" height="48" viewBox="0 0 48 48" fill="none">
<path d="M39 37L39 19L39 17.6C39 16.57 38.6 15.58 37.89 14.84L29.68 6.24C28.93 5.45 27.88 5 26.79 5L25.5 5L15 5C11.69 5 9 7.69 9 11L9 37C9 40.31 11.69 43 15 43L33 43C36.31 43 39 40.31 39 37Z"   fill="#FFC7BF" >
</path>
<path d="M7 11L7 37C7 41.4183 10.5817 45 15 45L33 45C37.4183 45 41 41.4183 41 37L41 17.6026C41 16 40.4467 14.6191 39.3401 13.4598L31.1285 4.85714C29.9467 3.61905 28.5 3 26.7884 3L15 3C10.5817 3 7 6.58172 7 11ZM15 41C12.7909 41 11 39.2091 11 37L11 11C11 8.79086 12.7909 7 15 7L26.7884 7C27.3589 7 27.8412 7.20635 28.2351 7.61905L36.4467 16.2217C36.8156 16.6081 37 17.0684 37 17.6026L37 37C37 39.2091 35.2091 41 33 41L15 41Z" fill-rule="evenodd"  fill="#FF766C" >
</path>
<path d="M20.5252 22.7151L20.5244 27.9655L22.5244 27.9658L20.5244 27.9658L20.5244 28.542C20.12 28.4408 19.6973 28.387 19.2622 28.387C16.3315 28.387 14 30.7628 14 33.6935C14 36.5997 16.356 39 19.2622 39C22.1929 39 24.5244 36.6242 24.5244 33.6935L24.5244 27.9658L24.5246 26.6716C25.7547 27.5572 27.2468 28 29.0009 28L29.0009 24C27.3114 24 26.0957 23.0833 25.3538 21.2498C25.3534 21.2487 25.3529 21.2476 25.3525 21.2465C25.1995 20.8703 24.941 20.5595 24.8496 20.4979C24.8299 20.4846 24.818 20.4829 24.8165 20.4945C24.4593 20.1822 23.9946 20 23.4999 20L23.2407 20C21.4306 20 20.5255 20.905 20.5252 22.7151ZM20.5244 33.6935C20.5244 32.9964 19.9593 32.387 19.2622 32.387C18.5406 32.387 18 32.9719 18 33.6935C18 34.3906 18.5651 35 19.2622 35C19.9838 35 20.5244 34.4151 20.5244 33.6935Z" fill-rule="evenodd"  fill="#FF1A1A" >
</path>
<path d="M31 26C31 27.1046 30.1046 28 29 28C27.8954 28 27 27.1046 27 26C27 24.8954 27.8954 24 29 24C30.1046 24 31 24.8954 31 26Z"   fill="#FF1A1A" >
</path>
<path d="M25.5 13C25.5 16.3137 28.1863 19 31.5 19L36.6324 19C37.94 19 39 17.94 39 16.6324C39 16.2265 38.8436 15.8362 38.5633 15.5426L28.9598 5.48165C28.6661 5.17404 28.2594 5 27.8342 5C26.545 5 25.5 6.04503 25.5 7.33415L25.5 13Z"   fill="#FF766C" >
</path>
<path d="M26.7884 3L25.5 3L25.5 7L26.7884 7C27.3589 7 27.8412 7.20635 28.2351 7.61905L36.4467 16.2217C36.8156 16.6081 37 17.0684 37 17.6026L37 19L41 19L41 17.6026C41 16 40.4467 14.6191 39.3401 13.4598L31.1285 4.85715C29.9467 3.61905 28.5 3 26.7884 3Z" fill-rule="evenodd"  fill="#FF766C" >
</path>
<path d="M27.5 13L27.5 3L23.5 3L23.5 13C23.5 17.4183 27.0817 21 31.5 21L41 21L41 17L31.5 17C29.2909 17 27.5 15.2091 27.5 13Z" fill-rule="evenodd"  fill="#FF766C" >
</path>
</svg>
