<svg xmlns="http://www.w3.org/2000/svg" xmlns:xlink="http://www.w3.org/1999/xlink" width="48" height="48" viewBox="0 0 48 48" fill="none">
<path d="M27.7919 36.4848C27.7919 41.69 21.6175 44.4261 17.7615 40.9296L16.213 39.5254L19.0448 36.6936L20.4484 37.9664C21.7338 39.1319 23.7919 38.2199 23.7919 36.4848L23.7919 31.9465L27.7919 27.9465L27.7919 36.4848ZM27.7919 22.2897L23.7919 26.2897L23.7919 11.5122C23.7919 9.77683 21.7331 8.86493 20.4479 10.031L14.695 15.2511C14.2444 15.6601 13.736 15.9762 13.1699 16.1995C12.6038 16.4228 12.0165 16.5389 11.408 16.5478L8.93277 16.5839C8.6634 16.5877 8.40723 16.6426 8.16426 16.7485C7.92848 16.8512 7.71954 16.995 7.53743 17.1798C7.35533 17.3645 7.21464 17.5755 7.11536 17.8128C7.01306 18.0572 6.96191 18.3142 6.96191 18.5836L6.96191 29.4515C6.96191 30.5561 7.85734 31.4515 8.96191 31.4515L13.2637 31.4515L16.0781 34.0035L13.2463 36.8353L11.7202 35.4515L8.96191 35.4515C5.6482 35.4515 2.96191 32.7652 2.96191 29.4515L2.96191 18.5836C2.96191 17.7788 3.1164 17.0072 3.42538 16.2688C3.72359 15.5561 4.14462 14.9238 4.68848 14.3719C5.23233 13.8201 5.85839 13.3899 6.56664 13.0813C7.30047 12.7617 8.06975 12.596 8.8745 12.5842L11.3497 12.5481C11.6015 12.5445 11.8207 12.458 12.0071 12.2888L17.76 7.06873C21.6156 3.57033 27.7919 6.30603 27.7919 11.5122L27.7919 22.2897Z" fill-rule="evenodd"  fill="#787878" >
</path>
<path d="M33.0149 17.0667C32.8508 17.0232 32.6785 17 32.5007 17C31.3961 17 30.5007 17.8954 30.5007 19C30.5007 19.1778 30.5239 19.3501 30.5674 19.5142L33.0149 17.0667ZM32.859 22.8794C32.953 23.2355 33 23.609 33 24C33 24.9581 32.7178 25.8113 32.1533 26.5597C31.9754 26.7955 31.7818 27.0052 31.5724 27.1887C31.5136 27.2402 31.4593 27.2846 31.4095 27.3219L31.4083 27.3239C30.8614 27.6809 30.5 28.2982 30.5 29C30.5 30.1046 31.3954 31 32.5 31C32.9183 31 33.3066 30.8716 33.6277 30.652C33.8021 30.5352 33.9958 30.3835 34.2088 30.1969C34.6245 29.8326 35.0037 29.4231 35.3467 28.9684C35.8279 28.3305 36.2065 27.6423 36.4827 26.9038C36.8276 25.9816 37 25.0136 37 24C37 22.9864 36.8276 22.0186 36.4829 21.0963C36.3208 20.6628 36.1234 20.2466 35.8907 19.8477L32.859 22.8794Z" fill-rule="evenodd"  fill="#787878" >
</path>
<path d="M38.773 11.3086C38.5244 11.1151 38.2979 10.9536 38.0934 10.824C37.7795 10.6191 37.4045 10.5 37.0017 10.5C35.8971 10.5 35.0017 11.3954 35.0017 12.5C35.0017 13.2006 35.3619 13.8171 35.9073 14.1743L38.773 11.3086ZM38.743 16.9954C39.3475 17.8317 39.833 18.7197 40.1995 19.6592C40.7332 21.0272 41 22.4741 41 24C41 25.5258 40.7331 26.9727 40.1993 28.3406C39.7713 29.4376 39.181 30.4642 38.4284 31.4204C37.8884 32.1065 37.296 32.7204 36.6512 33.2619C36.3603 33.5062 36.1304 33.6824 35.9617 33.7903C35.3851 34.1412 35 34.7757 35 35.5C35 36.6046 35.8954 37.5 37 37.5C37.4027 37.5 37.7777 37.381 38.0915 37.1761C38.4141 36.9717 38.7915 36.688 39.2238 36.3249C40.079 35.6066 40.8616 34.7964 41.5716 33.8943C42.569 32.627 43.3537 31.2604 43.9257 29.7947C44.6419 27.9592 45 26.0276 45 24C45 21.9724 44.642 20.0409 43.926 18.2055C43.3593 16.7527 42.5836 15.3973 41.5989 14.1395L38.743 16.9954Z" fill-rule="evenodd"  fill="#787878" >
</path>
<path d="M42.4131 7.66522L7.41424 42.6656C7.05231 43.0275 6.5523 43.2514 6 43.2514C4.89543 43.2514 4 42.3559 4 41.2514C4 40.6991 4.22385 40.1991 4.58576 39.8372L39.5846 4.83686L39.5857 4.83582C39.9476 4.47387 40.4476 4.25 40.9999 4.25C42.1045 4.25 42.9999 5.14543 42.9999 6.25C42.9999 6.80227 42.7761 7.30226 42.4142 7.66418L42.4131 7.66522Z" fill-rule="evenodd"  fill="#424242" >
</path>
</svg>
