<svg xmlns="http://www.w3.org/2000/svg" xmlns:xlink="http://www.w3.org/1999/xlink" width="48" height="48" viewBox="0 0 48 48" fill="none">
<path d="M23.7919 11.5122L23.7919 36.4848C23.7919 38.2199 21.7338 39.1319 20.4484 37.9664L13.2637 31.4514L8.96191 31.4514C7.85734 31.4514 6.96191 30.556 6.96191 29.4514L6.96191 18.5835C6.96191 18.3141 7.01306 18.0572 7.11536 17.8127C7.21464 17.5755 7.35533 17.3645 7.53743 17.1797C7.71954 16.9949 7.92848 16.8512 8.16426 16.7484C8.40723 16.6426 8.6634 16.5877 8.93277 16.5838L11.408 16.5477C12.0165 16.5389 12.6038 16.4228 13.1699 16.1994C13.736 15.9762 14.2444 15.6601 14.6951 15.2511L20.4479 10.031C21.7331 8.86494 23.7919 9.77684 23.7919 11.5122ZM17.7615 40.9296C21.6175 44.4261 27.7919 41.69 27.7919 36.4848L27.7919 11.5122C27.7919 6.30604 21.6156 3.57034 17.76 7.06874L12.0071 12.2888C11.8207 12.458 11.6015 12.5445 11.3497 12.5481L8.8745 12.5842C8.06976 12.596 7.30047 12.7617 6.56664 13.0813C5.85839 13.3899 5.23234 13.8201 4.68848 14.3719C4.14462 14.9238 3.72359 15.5561 3.42538 16.2687C3.1164 17.0071 2.96191 17.7787 2.96191 18.5835L2.96191 29.4514C2.96191 32.7651 5.64821 35.4514 8.96191 35.4514L11.7202 35.4514L17.7615 40.9296Z" fill-rule="evenodd"  fill="#787878" >
</path>
<path d="M30.5857 30.6644C31.3668 31.4453 32.6331 31.4453 33.4141 30.6641L43.4127 20.6641C44.1937 19.883 44.1936 18.6167 43.4125 17.8357C42.6314 17.0547 41.365 17.0548 40.584 17.8359L30.5855 27.8359C29.8045 28.617 29.8046 29.8834 30.5857 30.6644Z" fill-rule="evenodd"  fill="#424242" >
</path>
<path d="M43.4139 30.6643C44.195 29.8833 44.1951 28.617 43.4142 27.8359L33.4171 17.8367C32.6361 17.0556 31.3698 17.0554 30.5886 17.8364C29.8075 18.6174 29.8074 19.8838 30.5883 20.6648L40.5854 30.664C41.3664 31.4451 42.6327 31.4453 43.4139 30.6643Z" fill-rule="evenodd"  fill="#424242" >
</path>
</svg>
