<svg xmlns="http://www.w3.org/2000/svg" xmlns:xlink="http://www.w3.org/1999/xlink" width="48" height="48" viewBox="0 0 48 48" fill="none">
<path d="M30.0004 36.1243L42.0002 29.1961C46.0002 26.8867 46.0002 21.1133 42.0002 18.8039L30.0004 11.8757C26.0004 9.56626 21.0004 12.453 21.0004 17.0718L21.0004 18.8041L24.0002 20.536C24.3908 20.7616 24.7242 21.0366 25.0004 21.3468L25.0004 17.0718C25.0004 15.5322 26.667 14.57 28.0004 15.3398L40.0002 22.268C41.3335 23.0378 41.3335 24.9622 40.0002 25.732L28.0004 32.6602C26.667 33.43 25.0004 32.4678 25.0004 30.9282L25.0004 26.6536C24.7242 26.9637 24.3908 27.2388 24.0002 27.4643L21.0004 29.1962L21.0004 30.9282C21.0004 35.547 26.0004 38.4337 30.0004 36.1243Z" fill-rule="evenodd"  fill="#424242" >
</path>
<path d="M13 36.1244L25 29.1961C29 26.8867 29 21.1133 25 18.8039L13 11.8757C9.00002 9.56626 4.00002 12.453 4.00002 17.0718L4.00002 30.9282C4.00002 35.547 9.00002 38.4338 13 36.1244ZM23 22.268C24.3333 23.0378 24.3333 24.9622 23 25.732L11 32.6603C9.66662 33.4301 8.00002 32.4678 8.00002 30.9282L8.00002 17.0718C8.00002 15.5322 9.66662 14.57 11 15.3398L23 22.268Z" fill-rule="evenodd"  fill="#787878" >
</path>
</svg>
