<svg xmlns="http://www.w3.org/2000/svg" xmlns:xlink="http://www.w3.org/1999/xlink" width="48" height="48" viewBox="0 0 48 48" fill="none">
<path d="M41 27.4642L29.0002 34.3924C26.3335 35.932 23.0002 34.0075 23.0002 30.9283L23.0002 17.0719C23.0002 13.9927 26.3335 12.0682 29.0002 13.6078L41 20.536C43.6667 22.0756 43.6667 25.9246 41 27.4642Z"   fill="#4187FF" >
</path>
<path d="M42 29.1959L30.0002 36.1241C26.1652 38.3382 21.4112 35.7763 21.0253 31.4908L13 36.1243C9.00002 38.4337 4.00002 35.5469 4.00002 30.9281L4.00002 17.0717C4.00002 12.4529 9.00002 9.56614 13 11.8755L21.0253 16.509C21.4111 12.2235 26.1652 9.66143 30.0002 11.8756L42 18.8038C46 21.1131 46 26.8865 42 29.1959ZM25.0002 18.8039L25.0002 17.0717C25.0002 15.5321 26.6668 14.5698 28.0002 15.3396L40 22.2678C41.3333 23.0376 41.3333 24.962 40 25.7318L28.0002 32.66C26.6668 33.4298 25.0002 32.4676 25.0002 30.928L25.0002 29.1959C28.9999 26.8864 28.9999 21.1133 25.0002 18.8039Z" fill-rule="evenodd"  fill="#1764FF" >
</path>
</svg>
