<svg xmlns="http://www.w3.org/2000/svg" xmlns:xlink="http://www.w3.org/1999/xlink" width="48" height="48" viewBox="0 0 48 48" fill="none">
<path d="M24 3C12.4 3 3 12.4 3 24C3 35.6 12.4 45 24 45C35.6 45 45 35.6 45 24C45 12.4 35.6 3 24 3ZM24 41C33.39 41 41 33.39 41 24C41 20.0258 39.6368 16.3704 37.3525 13.4759L13.4759 37.3525C16.3704 39.6368 20.0258 41 24 41ZM10.6475 34.5241L13.1454 32.0262C13.0514 31.7937 13 31.5386 13 31.27C13 30.17 13.9 29.27 15 29.27C15.267 29.27 15.5218 29.3225 15.7543 29.4173L19.5079 25.6637C14.8344 24.8655 12.5 22.6459 12.5 19C12.5 16.81 13.75 15.04 16.24 13.7C17.8817 12.825 19.7992 12.2857 22.0019 12.0869C22.0006 12.0581 22 12.0291 22 12L22 11C22 9.9 22.9 9 24 9C25.1 9 26 9.9 26 11L26 12C26 12.0359 25.999 12.0715 25.9972 12.1069C27.9144 12.3149 29.7593 12.8258 31.5336 13.638L34.5241 10.6475C31.6296 8.36318 27.9742 7 24 7C14.61 7 7 14.61 7 24C7 27.9742 8.36318 31.6296 10.6475 34.5241ZM28.4531 16.7185C27.0206 16.2389 25.5357 16 24 16C21.61 16 19.66 16.41 18.13 17.23C17.04 17.81 16.5 18.4 16.5 19C16.5 20.8877 18.727 21.8845 23.1811 21.9905L28.4531 16.7185ZM24.3307 31.9977C26.743 31.9646 28.6428 31.5649 30.03 30.79C31.01 30.24 31.5 29.64 31.5 29C31.5 27.9911 30.8639 27.2367 29.5916 26.7368L32.5972 23.7312C34.5328 24.8974 35.5 26.6532 35.5 29C35.5 31.21 34.32 32.97 31.97 34.28C30.356 35.1854 28.3639 35.7313 25.9985 35.9226C25.9995 35.9483 26 35.9741 26 36L26 37C26 38.1 25.1 39 24 39C22.9 39 22 38.1 22 37L22 36C22 35.9663 22.0008 35.9327 22.0025 35.8994C21.5366 35.8515 21.0769 35.7867 20.6236 35.7048L24.3307 31.9977Z" fill-rule="evenodd"  fill="#000000" >
</path>
</svg>
