<svg xmlns="http://www.w3.org/2000/svg" xmlns:xlink="http://www.w3.org/1999/xlink" width="48" height="48" viewBox="0 0 48 48" fill="none">
<path d="M16 16L38 16C41.3137 16 44 18.6863 44 22L44 38.8391C44 42.1528 41.3137 44.8391 38 44.8391L10 44.8391C6.68629 44.8391 4 42.1528 4 38.8391L4 22C4 21.1871 4.15744 20.4084 4.47233 19.6639C4.77605 18.9458 5.20439 18.3103 5.75736 17.7574C6.31033 17.2044 6.94585 16.776 7.66392 16.4723C8.40839 16.1574 9.18709 16 10 16L12 16L12 12C12 6.47715 16.4772 2 22 2L24 2C25.4658 2.00001 26.7574 2.10199 27.8747 2.30596C29.0132 2.51377 30.0198 2.83633 30.8944 3.27364C31.7445 3.6987 32.4997 4.24664 33.1598 4.91745C33.7115 5.47806 34.2298 6.16259 34.7149 6.97105L31.2848 9.02883C30.9631 8.49265 30.6378 8.05741 30.3088 7.72312C29.9599 7.36857 29.5588 7.07799 29.1055 6.85136C27.9704 6.2838 26.2685 6.00001 24 6L22 6C18.6863 6 16 8.68629 16 12L16 16ZM9.22212 20.1563C9.46855 20.0521 9.72785 20 10 20L38 20C39.1046 20 40 20.8954 40 22L40 38.8391C40 39.9437 39.1046 40.8391 38 40.8391L10 40.8391C8.89543 40.8391 8 39.9437 8 38.8391L8 22C8 21.7279 8.05212 21.4686 8.15635 21.2221C8.25746 20.9831 8.4006 20.771 8.58579 20.5858C8.77098 20.4006 8.98309 20.2574 9.22212 20.1563Z" fill-rule="evenodd"  fill="#787878" >
</path>
<path d="M33 6C31.9 6 31 6.9 31 8C31 9.1 31.9 10 33 10C34.1 10 35 9.1 35 8C35 6.9 34.1 6 33 6Z"   fill="#787878" >
</path>
<path d="M26 26C26 24.8954 25.1046 24 24 24C22.8954 24 22 24.8954 22 26L22 34C22 35.1046 22.8954 36 24 36C25.1046 36 26 35.1046 26 34L26 26Z" fill-rule="evenodd"  fill="#424242" >
</path>
</svg>
