<svg xmlns="http://www.w3.org/2000/svg" xmlns:xlink="http://www.w3.org/1999/xlink" width="48" height="48" viewBox="0 0 48 48" fill="none">
<path d="M8 18C8 15.7909 9.79086 14 12 14L16 14C17.1046 14 18 13.1046 18 12C18 10.8954 17.1046 10 16 10L12 10C7.58172 10 4 13.5817 4 18L4 36C4 40.4183 7.58172 44 12 44L30 44C34.4183 44 38 40.4183 38 36L38 32C38 30.8954 37.1046 30 36 30C34.8954 30 34 30.8954 34 32L34 36C34 38.2091 32.2091 40 30 40L12 40C9.79086 40 8 38.2091 8 36L8 18Z" fill-rule="evenodd"  fill="#787878" >
</path>
<path d="M22 6C22 7.10457 22.8954 8 24 8L40 8L40 24C40 25.1046 40.8954 26 42 26C43.1046 26 44 25.1046 44 24L44 8C44 5.79086 42.2091 4 40 4L24 4C22.8954 4 22 4.89543 22 6Z" fill-rule="evenodd"  fill="#424242" >
</path>
<path d="M42.4132 8.41525L17.4142 33.4142C17.0523 33.7761 16.5523 34 16 34C14.8954 34 14 33.1046 14 32C14 31.4477 14.2239 30.9477 14.5858 30.5858L14.5868 30.5847L39.5847 5.58683L39.5858 5.58579C39.9477 5.22386 40.4477 5 41 5C42.1046 5 43 5.89543 43 7C43 7.55229 42.7761 8.05229 42.4142 8.41421L42.4132 8.41525Z" fill-rule="evenodd"  fill="#424242" >
</path>
</svg>
