<svg xmlns="http://www.w3.org/2000/svg" xmlns:xlink="http://www.w3.org/1999/xlink" width="48" height="48" viewBox="0 0 48 48" fill="none">
<path d="M37.17 8L24 8C22.9 8 22 7.1 22 6C22 4.9 22.9 4 24 4L40 4C42.21 4 44 5.79 44 8L44 24C44 25.1 43.1 26 42 26C40.9 26 40 25.1 40 24L40 10.83L17.42 33.41L17.41 33.41C17.05 33.78 16.55 34 16 34C14.9 34 14 33.1 14 32C14 31.45 14.22 30.95 14.59 30.59L14.59 30.58L37.17 8ZM16 14L12 14C9.79 14 8 15.79 8 18L8 36C8 38.21 9.79 40 12 40L30 40C32.21 40 34 38.21 34 36L34 32C34 30.9 34.9 30 36 30C37.1 30 38 30.9 38 32L38 36C38 40.42 34.42 44 30 44L12 44C7.58 44 4 40.42 4 36L4 18C4 13.58 7.58 10 12 10L16 10C17.1 10 18 10.9 18 12C18 13.1 17.1 14 16 14Z" fill-rule="evenodd"  fill="#000000" >
</path>
</svg>
