<svg xmlns="http://www.w3.org/2000/svg" xmlns:xlink="http://www.w3.org/1999/xlink" width="48" height="48" viewBox="0 0 48 48" fill="none">
<path d="M17.09 33.42L17.15 33.24L17.24 33.06C17.27 33 17.3 32.94 17.34 32.89C17.37 32.84 17.41 32.78 17.45 32.73C17.5 32.68 17.54 32.63 17.59 32.59C17.63 32.54 17.68 32.5 17.73 32.46C17.78 32.41 17.83 32.37 17.89 32.34C17.94 32.3 18 32.27 18.06 32.24C18.11 32.21 18.17 32.18 18.23 32.15C18.29 32.13 18.36 32.11 18.42 32.09C18.48 32.07 18.55 32.05 18.61 32.04C18.67 32.03 18.74 32.02 18.8 32.01C18.87 32 18.93 32 19 32L29 32C29.07 32 29.13 32 29.2 32.01C29.26 32.02 29.33 32.03 29.39 32.04C29.45 32.05 29.52 32.07 29.58 32.09C29.64 32.11 29.7 32.13 29.77 32.15C29.83 32.18 29.88 32.21 29.94 32.24C30 32.27 30.06 32.3 30.11 32.34C30.17 32.37 30.22 32.41 30.27 32.45C30.32 32.5 30.37 32.54 30.41 32.59C30.46 32.63 30.5 32.68 30.55 32.73C30.59 32.78 30.63 32.83 30.66 32.89C30.7 32.94 30.73 33 30.76 33.06C30.79 33.11 30.82 33.17 30.85 33.23C30.87 33.3 30.89 33.36 30.91 33.42C30.93 33.48 30.95 33.55 30.96 33.61C30.97 33.67 30.98 33.74 30.99 33.8C31 33.87 31 33.93 31 34C31 34.13 30.99 34.26 30.96 34.39C30.94 34.52 30.9 34.64 30.85 34.77C30.8 34.89 30.74 35 30.66 35.11C30.59 35.22 30.51 35.32 30.41 35.41C30.32 35.51 30.22 35.59 30.11 35.66C30 35.74 29.89 35.8 29.77 35.85C29.64 35.9 29.52 35.94 29.39 35.96C29.26 35.99 29.13 36 29 36L19 36C18.93 36 18.87 36 18.8 35.99C18.74 35.98 18.67 35.98 18.61 35.96C18.55 35.95 18.48 35.93 18.42 35.91C18.36 35.9 18.3 35.87 18.23 35.85C18.17 35.82 18.12 35.8 18.06 35.76C18 35.73 17.94 35.7 17.89 35.66C17.83 35.63 17.78 35.59 17.73 35.55C17.68 35.51 17.63 35.46 17.59 35.42C17.54 35.37 17.5 35.32 17.45 35.27C17.41 35.22 17.37 35.17 17.34 35.11C17.3 35.06 17.27 35 17.24 34.94C17.21 34.89 17.18 34.83 17.15 34.77C17.13 34.71 17.11 34.64 17.09 34.58C17.07 34.52 17.05 34.46 17.04 34.39C17.03 34.33 17.02 34.26 17.01 34.2C17 34.13 17 34.07 17 34C17 33.94 17 33.87 17.01 33.81C17.02 33.74 17.03 33.68 17.04 33.61C17.05 33.55 17.07 33.48 17.09 33.42ZM3 14C3 12.92 3.21 11.88 3.63 10.89C4.04 9.93 4.61 9.08 5.34 8.34C6.08 7.61 6.93 7.04 7.89 6.63C8.88 6.21 9.92 6 11 6L37 6C38.08 6 39.12 6.21 40.11 6.63C41.07 7.04 41.92 7.61 42.66 8.34C43.39 9.08 43.96 9.93 44.37 10.89C44.79 11.88 45 12.92 45 14L45 34C45 35.08 44.79 36.12 44.37 37.11C43.96 38.07 43.39 38.92 42.66 39.66C41.92 40.39 41.07 40.96 40.11 41.37C39.12 41.79 38.08 42 37 42L11 42C9.92 42 8.88 41.79 7.89 41.37C6.93 40.96 6.08 40.39 5.34 39.66C4.61 38.92 4.04 38.07 3.63 37.11C3.21 36.12 3 35.08 3 34L3 14ZM37 38L11 38C10.46 38 9.94 37.9 9.45 37.69C8.97 37.48 8.54 37.2 8.17 36.83C7.8 36.46 7.52 36.03 7.31 35.55C7.1 35.06 7 34.54 7 34L7 14C7 13.46 7.1 12.94 7.31 12.45C7.52 11.97 7.8 11.54 8.17 11.17C8.54 10.8 8.97 10.52 9.45 10.31C9.94 10.1 10.46 10 11 10L37 10C37.54 10 38.06 10.1 38.55 10.31C39.03 10.52 39.46 10.8 39.83 11.17C40.2 11.54 40.48 11.97 40.69 12.45C40.9 12.94 41 13.46 41 14L41 34C41 34.54 40.9 35.06 40.69 35.55C40.48 36.03 40.2 36.46 39.83 36.83C39.46 37.2 39.03 37.48 38.55 37.69C38.06 37.9 37.54 38 37 38Z" fill-rule="evenodd"  fill="#000000" >
</path>
</svg>
