<svg xmlns="http://www.w3.org/2000/svg" xmlns:xlink="http://www.w3.org/1999/xlink" width="48" height="48" viewBox="0 0 48 48" fill="none">
<path d="M35 3C39.42 3 43 6.58 43 11L31 11C25.48 11 21 15.48 21 21L21 29.0006L16.9998 29.001C15.8998 29.0011 14.9999 29.9012 15 31.0012C15.0001 32.1012 15.9002 33.0011 17.0002 33.001L21 33.0006L21 37C21 37.6907 21.0874 38.3608 21.2518 39L9 39C4.58 39 1 35.42 1 31L1 11C1 6.58 4.58 3 9 3L35 3ZM47 23L47 37C47 41.42 43.42 45 39 45L33 45C28.58 45 25 41.42 25 37L25 23C25 18.58 28.58 15 33 15L39 15C43.42 15 47 18.58 47 23ZM39.0004 38.9997L33.0004 39.0009C31.9004 39.0011 31.0002 38.1013 31 37.0013C30.9998 35.9013 31.8996 35.0011 32.9996 35.0009L38.9996 34.9997C40.0996 34.9995 40.9998 35.8993 41 36.9993C41.0002 38.0993 40.1004 38.9995 39.0004 38.9997Z" fill-rule="evenodd"  fill="#000000" >
</path>
</svg>
