<svg xmlns="http://www.w3.org/2000/svg" xmlns:xlink="http://www.w3.org/1999/xlink" width="48" height="48" viewBox="0 0 48 48" fill="none">
<path d="M42.37 7.89C42.79 8.88 43 9.92 43 11L39 11C39 10.46 38.9 9.94 38.69 9.45C38.48 8.97 38.2 8.54 37.83 8.17C37.46 7.8 37.03 7.52 36.55 7.31C36.06 7.1 35.54 7 35 7L9 7C8.46 7 7.94 7.1 7.45 7.31C6.97 7.52 6.54 7.8 6.17 8.17C5.8 8.54 5.52 8.97 5.31 9.45C5.1 9.94 5 10.46 5 11L5 31C5 31.54 5.1 32.06 5.31 32.55C5.52 33.03 5.8 33.46 6.17 33.83C6.54 34.2 6.97 34.48 7.45 34.69C7.94 34.9 8.46 35 9 35L21 35L21 39L9 39C7.92 39 6.88 38.79 5.89 38.37C4.93 37.96 4.08 37.39 3.34 36.66C2.61 35.92 2.04 35.07 1.63 34.11C1.21 33.12 1 32.08 1 31L1 11C1 9.92 1.21 8.88 1.63 7.89C2.04 6.93 2.61 6.08 3.34 5.34C4.08 4.61 4.93 4.04 5.89 3.63C6.88 3.21 7.92 3 9 3L35 3C36.08 3 37.12 3.21 38.11 3.63C39.07 4.04 39.92 4.61 40.66 5.34C41.39 6.08 41.96 6.93 42.37 7.89ZM40.96 36.61C40.94 36.48 40.9 36.36 40.85 36.23C40.8 36.11 40.74 36 40.66 35.89C40.59 35.78 40.51 35.68 40.41 35.59C40.32 35.49 40.22 35.41 40.11 35.34C40 35.26 39.89 35.2 39.77 35.15C39.64 35.1 39.52 35.06 39.39 35.04C39.26 35.01 39.13 35 39 35L33 35C32.93 35 32.87 35 32.8 35.01C32.74 35.02 32.67 35.03 32.61 35.04C32.55 35.05 32.48 35.07 32.42 35.09C32.36 35.11 32.29 35.13 32.23 35.15C32.17 35.18 32.11 35.21 32.06 35.24C32 35.27 31.94 35.3 31.89 35.34C31.83 35.37 31.78 35.41 31.73 35.46C31.68 35.5 31.63 35.54 31.59 35.59C31.54 35.63 31.5 35.68 31.45 35.73C31.41 35.78 31.37 35.84 31.34 35.89C31.3 35.94 31.27 36 31.24 36.06L31.15 36.24L31.09 36.42C31.07 36.48 31.05 36.55 31.04 36.61C31.03 36.68 31.02 36.74 31.01 36.81C31 36.87 31 36.94 31 37C31 37.07 31 37.13 31.01 37.2C31.02 37.26 31.03 37.33 31.04 37.39C31.05 37.46 31.07 37.52 31.09 37.58C31.11 37.64 31.13 37.71 31.15 37.77C31.18 37.83 31.21 37.89 31.24 37.94C31.27 38 31.3 38.06 31.34 38.11C31.37 38.17 31.41 38.22 31.45 38.27C31.5 38.32 31.54 38.37 31.59 38.42C31.63 38.46 31.68 38.51 31.73 38.55C31.78 38.59 31.83 38.63 31.89 38.66C31.94 38.7 32 38.73 32.06 38.76C32.12 38.8 32.17 38.82 32.23 38.85C32.3 38.87 32.36 38.9 32.42 38.91C32.48 38.93 32.55 38.95 32.61 38.96C32.67 38.98 32.74 38.98 32.8 38.99C32.87 39 32.93 39 33 39L39 39C39.13 39 39.26 38.99 39.39 38.96C39.52 38.94 39.64 38.9 39.77 38.85C39.89 38.8 40 38.74 40.11 38.66C40.22 38.59 40.32 38.51 40.41 38.41C40.51 38.32 40.59 38.22 40.66 38.11C40.74 38 40.8 37.89 40.85 37.77C40.9 37.64 40.94 37.52 40.96 37.39C40.99 37.26 41 37.13 41 37C41 36.87 40.99 36.74 40.96 36.61ZM15.45 32.27C15.41 32.22 15.37 32.17 15.34 32.11C15.3 32.06 15.27 32 15.24 31.94C15.21 31.89 15.18 31.83 15.15 31.77C15.13 31.71 15.11 31.64 15.09 31.58C15.07 31.52 15.05 31.46 15.04 31.39C15.03 31.33 15.02 31.26 15.01 31.2C15 31.13 15 31.07 15 31C15 30.94 15 30.87 15.01 30.81C15.02 30.74 15.03 30.68 15.04 30.61C15.05 30.55 15.07 30.48 15.09 30.42L15.15 30.24L15.24 30.06C15.27 30 15.3 29.94 15.34 29.89C15.37 29.84 15.41 29.78 15.45 29.73C15.5 29.68 15.54 29.63 15.59 29.59C15.63 29.54 15.68 29.5 15.73 29.46C15.78 29.41 15.83 29.37 15.89 29.34C15.94 29.3 16 29.27 16.06 29.24C16.11 29.21 16.17 29.18 16.23 29.15C16.29 29.13 16.36 29.11 16.42 29.09C16.48 29.07 16.55 29.05 16.61 29.04C16.67 29.03 16.74 29.02 16.8 29.01C16.87 29 16.93 29 17 29L21 29L21 33L17 33C16.93 33 16.87 33 16.8 32.99C16.74 32.98 16.67 32.98 16.61 32.96C16.55 32.95 16.48 32.93 16.42 32.91C16.36 32.9 16.3 32.87 16.23 32.85C16.17 32.82 16.12 32.8 16.06 32.76C16 32.73 15.94 32.7 15.89 32.66C15.83 32.63 15.78 32.59 15.73 32.55C15.68 32.51 15.63 32.46 15.59 32.42C15.54 32.37 15.5 32.32 15.45 32.27ZM41 15L31 15C30.19 15 29.41 15.16 28.66 15.47C27.95 15.78 27.31 16.2 26.76 16.76C26.2 17.31 25.78 17.95 25.47 18.66C25.16 19.41 25 20.19 25 21L25 39C25 39.81 25.16 40.59 25.47 41.34C25.78 42.05 26.2 42.69 26.76 43.24C27.31 43.8 27.95 44.22 28.66 44.53C29.41 44.84 30.19 45 31 45L41 45C41.81 45 42.59 44.84 43.34 44.53C44.05 44.22 44.69 43.8 45.24 43.24C45.8 42.69 46.22 42.05 46.53 41.34C46.84 40.59 47 39.81 47 39L47 21C47 20.19 46.84 19.41 46.53 18.66C46.22 17.95 45.8 17.31 45.24 16.76C44.69 16.2 44.05 15.78 43.34 15.47C42.59 15.16 41.81 15 41 15ZM29 39C29 39.27 29.05 39.53 29.16 39.78C29.26 40.02 29.4 40.23 29.59 40.41C29.77 40.6 29.98 40.74 30.22 40.84C30.47 40.95 30.73 41 31 41L41 41C41.27 41 41.53 40.95 41.78 40.84C42.02 40.74 42.23 40.6 42.41 40.41C42.6 40.23 42.74 40.02 42.84 39.78C42.95 39.53 43 39.27 43 39L43 21C43 20.73 42.95 20.47 42.84 20.22C42.74 19.98 42.6 19.77 42.41 19.59C42.23 19.4 42.02 19.26 41.78 19.16C41.53 19.05 41.27 19 41 19L31 19C30.73 19 30.47 19.05 30.22 19.16C29.98 19.26 29.77 19.4 29.59 19.59C29.4 19.77 29.26 19.98 29.16 20.22C29.05 20.47 29 20.73 29 21L29 39Z" fill-rule="evenodd"  fill="#000000" >
</path>
</svg>
