<svg xmlns="http://www.w3.org/2000/svg" xmlns:xlink="http://www.w3.org/1999/xlink" width="48" height="48" viewBox="0 0 48 48" fill="none">
<path d="M14 14C14 8.48 18.48 4 24 4C29.52 4 34 8.48 34 14C34 19.52 29.52 24 24 24C18.48 24 14 19.52 14 14ZM30 14C30 17.31 27.31 20 24 20C20.69 20 18 17.31 18 14C18 10.69 20.69 8 24 8C27.31 8 30 10.69 30 14ZM40.59 22.5902C40.95 22.2202 41.45 22.0002 42 22.0002C43.1 22.0002 44 22.9002 44 24.0002C44 24.5502 43.78 25.0502 43.41 25.4202L41.8334 27.0134L43.91 29.09C44.28 29.45 44.5 29.95 44.5 30.5C44.5 31.6 43.6 32.5 42.5 32.5C41.95 32.5 41.45 32.28 41.09 31.91L39.0011 29.8211L37.8219 31.0019L39.91 33.09C40.28 33.45 40.5 33.95 40.5 34.5C40.5 35.6 39.6 36.5 38.5 36.5C37.95 36.5 37.45 36.28 37.09 35.91L35.0037 33.8237L34.1513 34.6773C34.9394 35.841 35.4 37.2447 35.4 38.75C35.4 42.75 32.2 46 28.2 46C24.22 46 21 42.73 21 38.75C21 34.75 24.2 31.5 28.2 31.5C29.2227 31.5 30.1953 31.7159 31.0759 32.1043L33.5038 29.6764C33.5578 29.6155 33.6155 29.5578 33.6764 29.5038L40.59 22.5902ZM19 42C19 43.1 18.1 44 17 44L10 44C6.69 44 4 41.31 4 38L4 34C4 29.58 7.58 26 12 26L22 26C23.1 26 24 26.9 24 28C24 29.1 23.1 30 22 30L12 30C9.79 30 8 31.79 8 34L8 38C8 39.1 8.9 40 10 40L17 40C18.1 40 19 40.9 19 42ZM31.4 38.75C31.4 40.54 29.99 42 28.2 42C26.43 42 25 40.52 25 38.75C25 36.96 26.41 35.5 28.2 35.5C29.97 35.5 31.4 36.98 31.4 38.75Z" fill-rule="evenodd"  fill="#000000" >
</path>
</svg>
