<svg xmlns="http://www.w3.org/2000/svg" xmlns:xlink="http://www.w3.org/1999/xlink" width="48" height="48" viewBox="0 0 48 48" fill="none">
<path d="M38.0861 28.9146L38.0858 28.9142C37.7239 28.5523 37.5 28.0523 37.5 27.5C37.5 26.3954 38.3954 25.5 39.5 25.5C40.0523 25.5 40.5523 25.7239 40.9142 26.0858L43.9142 29.0858C44.2761 29.4477 44.5 29.9477 44.5 30.5C44.5 31.6046 43.6046 32.5 42.5 32.5C41.9477 32.5 41.4477 32.2761 41.0858 31.9142L38.0861 28.9146Z" fill-rule="evenodd"  fill="#6BA6FF" >
</path>
<path d="M33.5862 32.4146L33.5858 32.4142C33.2239 32.0523 33 31.5523 33 31C33 29.8954 33.8954 29 35 29C35.5523 29 36.0523 29.2239 36.4142 29.5858L39.9142 33.0858C40.2761 33.4477 40.5 33.9477 40.5 34.5C40.5 35.6046 39.6046 36.5 38.5 36.5C37.9477 36.5 37.4477 36.2761 37.0858 35.9142L33.5862 32.4146Z" fill-rule="evenodd"  fill="#4187FF" >
</path>
<path d="M28.2 46C32.1765 46 35.4 42.7264 35.4 38.75C35.4 34.7459 32.2041 31.5 28.2 31.5C24.2236 31.5 21 34.7736 21 38.75C21 42.7541 24.1959 46 28.2 46ZM28.2 35.5C29.995 35.5 31.4 36.9551 31.4 38.75C31.4 40.5173 29.9673 42 28.2 42C26.4051 42 25 40.5449 25 38.75C25 36.9827 26.4327 35.5 28.2 35.5Z" fill-rule="evenodd"  fill="#1764FF" >
</path>
<path d="M43.4239 25.4043L43.4246 25.4036C43.7804 25.0425 43.9999 24.5469 43.9999 24C43.9999 22.8954 43.1045 22 41.9999 22C41.4477 22 40.9477 22.2238 40.5858 22.5857L40.5858 22.5857L30.0864 33.0851L30.0858 33.0857C29.7239 33.4476 29.5 33.9476 29.5 34.4999C29.5 35.6045 30.3954 36.4999 31.5 36.4999C32.0523 36.4999 32.5523 36.276 32.9142 35.9141L32.9148 35.9135L40.5346 28.2936L40.5563 28.315L40.5563 28.315L40.597 28.2736L43.4239 25.4043Z" fill-rule="evenodd"  fill="#1764FF" >
</path>
<path d="M16.5 42C16.5 42 15.5 38.5 17 34.5C18.5 30.5 22.5 28 22.5 28L12 28C8.69 28 6 30.69 6 34L6 38C6 40.21 7.79 42 10 42L16.5 42Z"   fill="#4187FF" >
</path>
<path d="M4 34L4 38C4 41.3137 6.68629 44 10 44L16.5 44C17.8288 44 18.7881 42.7282 18.423 41.4506C17.8771 39.54 18.027 37.4572 18.8727 35.2022C19.714 32.9586 21.2765 31.1232 23.56 29.696C23.5612 29.6952 23.5625 29.6944 23.5637 29.6936C24.4127 29.1608 24.6492 28.239 24.555 27.9106C24.541 27.862 24.5198 27.8263 24.4922 27.8069C24.3934 26.8669 23.6534 26 22.5 26L12 26C7.58172 26 4 29.5817 4 34ZM10 40C8.89543 40 8 39.1046 8 38L8 34C8 31.7909 9.79086 30 12 30L17.2551 30C16.3559 31.147 15.6466 32.413 15.1273 33.7977C14.3227 35.9435 13.9898 38.0109 14.1286 40L10 40Z" fill-rule="evenodd"  fill="#1764FF" >
</path>
<path d="M24 24C29.5228 24 34 19.5228 34 14C34 8.47715 29.5228 4 24 4C18.4771 4 14 8.47715 14 14C14 19.5228 18.4771 24 24 24Z" fill-rule="evenodd"  fill="#1764FF" >
</path>
</svg>
