<svg xmlns="http://www.w3.org/2000/svg" xmlns:xlink="http://www.w3.org/1999/xlink" width="48" height="48" viewBox="0 0 48 48" fill="none">
<path d="M44 20C44 18.8954 43.1046 18 42 18C40.8954 18 40 18.8954 40 20L40 33C40 38.5228 35.5228 43 30 43L22 43C20.8954 43 20 43.8954 20 45C20 46.1046 20.8954 47 22 47L30 47C37.732 47 44 40.732 44 33L44 20Z" fill-rule="evenodd"  fill="#FA9E14" >
</path>
<path d="M23 1L19 1C15.6863 1 13 3.68629 13 7L13 16C13 17.1046 13.8954 18 15 18L27 18C28.1046 18 29 17.1046 29 16L29 7C29 3.68629 26.3137 1 23 1ZM17 7C17 5.89543 17.8954 5 19 5L23 5C24.1046 5 25 5.89543 25 7L25 14L17 14L17 7Z" fill-rule="evenodd"  fill="#FA9E14" >
</path>
<path d="M13 10L29 10C32.3137 10 35 12.6863 35 16L35 33C35 36.3137 32.3137 39 29 39L13 39C9.68629 39 7 36.3137 7 33L7 16C7 12.6863 9.68629 10 13 10Z"   fill="#FEEDBD" >
</path>
<path d="M29 8L13 8C8.58172 8 5 11.5817 5 16L5 33C5 37.4183 8.58172 41 13 41L29 41C33.4183 41 37 37.4183 37 33L37 16C37 11.5817 33.4183 8 29 8ZM9 16C9 13.7909 10.7909 12 13 12L29 12C31.2091 12 33 13.7909 33 16L33 33C33 35.2091 31.2091 37 29 37L13 37C10.7909 37 9 35.2091 9 33L9 16Z" fill-rule="evenodd"  fill="#FBB63E" >
</path>
<path d="M12 17.0012C12.0001 18.1058 12.8956 19.0011 14.0001 19.001L24.0001 19C25.1047 18.9999 26.0001 18.1044 26 16.9999C25.9998 15.8953 25.1044 14.9999 23.9998 15L13.9998 15.001C12.8952 15.0011 11.9998 15.8967 12 17.0012Z" fill-rule="evenodd"  fill="#FA9E14" >
</path>
<path d="M12.0001 23.0012C12.0003 24.1058 12.8958 25.0011 14.0004 25.0009L20.0004 24.9999C21.105 24.9997 22.0003 24.1042 22.0001 22.9996C21.9999 21.895 21.1043 20.9997 19.9998 20.9999L13.9998 21.0009C12.8952 21.0011 11.9999 21.8967 12.0001 23.0012Z" fill-rule="evenodd"  fill="#FA9E14" >
</path>
</svg>
