<svg xmlns="http://www.w3.org/2000/svg" xmlns:xlink="http://www.w3.org/1999/xlink" width="48" height="48" viewBox="0 0 48 48" fill="none">
<path d="M31.754 39.7042C31.1634 39.5403 30.5778 39.2625 30.0167 38.8664C29.9807 38.8414 29.9447 38.816 29.9088 38.7902C28.7555 39.1108 27.4959 39.3707 26.13 39.5699C24.17 39.8599 22.13 39.9999 20 39.9999C17.87 39.9999 15.83 39.8599 13.87 39.5699C11.95 39.2899 10.24 38.8899 8.74 38.3699C7.13 37.8099 5.86 37.1399 4.91 36.3699C4.34 35.9099 3.9 35.3999 3.58 34.8599C3.19 34.2099 3 33.5199 3 32.7999L3 24.9999C3 24.965 3 24.9327 3.00124 24.9003C3.00041 24.8669 3 24.8334 3 24.7999L3 16.9999C3 16.9299 3 16.8699 3.01 16.7999L3.01073 16.7955C3.00359 16.6974 3 16.5988 3 16.4999C3 15.7799 3.19 15.0799 3.56 14.4199C3.87 13.8599 4.31 13.3299 4.87 12.8499C5.81 12.0299 7.09 11.3199 8.71 10.7299C10.21 10.1799 11.93 9.74993 13.86 9.45993C15.82 9.14993 17.86 8.99993 20 8.99993C22.14 8.99993 24.18 9.14993 26.14 9.45993C26.6398 9.53503 27.1256 9.61953 27.597 9.71306L34.568 8.13838C35.2313 7.98855 35.9125 8.00895 36.5998 8.19202C37.1904 8.35591 37.7662 8.63591 38.3371 9.02982C39.2874 9.69682 40.2063 10.6785 41.0839 11.977C41.8908 13.189 42.6323 14.6106 43.2866 16.2364C43.9572 17.8892 44.497 19.6434 44.9201 21.5162C45.3431 23.389 45.612 25.2146 45.7169 26.9953C45.825 28.7444 45.7644 30.3369 45.5568 31.7781C45.3247 33.3375 44.917 34.6189 44.3457 35.6296C43.9996 36.2306 43.6001 36.731 43.1372 37.1328C42.5954 37.5935 41.9891 37.9048 41.3258 38.0546L33.7858 39.7578C33.1225 39.9076 32.4413 39.8872 31.754 39.7042ZM41.7208 27.2316C41.8084 28.7086 41.7685 30.0298 41.5915 31.1975C41.4411 32.2567 41.1945 33.071 40.8733 33.646C40.7569 33.8568 40.6446 33.9949 40.5332 34.0918C40.491 34.1321 40.464 34.1485 40.4445 34.1529C40.4249 34.1573 40.3935 34.1542 40.3403 34.1457C40.3392 34.1408 40.3386 34.1384 40.3372 34.1374C40.3357 34.1365 40.3332 34.137 40.3283 34.1381C40.1959 34.0963 40.0231 34.0123 39.8393 33.8795C39.2924 33.5007 38.7197 32.8714 38.1287 31.9797C37.4669 31.0015 36.863 29.8257 36.3072 28.4545C35.724 27.0074 35.238 25.4461 34.8635 23.7879C34.4889 22.1297 34.2587 20.5208 34.1633 18.9636C34.0861 17.6688 34.108 16.4951 34.2291 15.4426C34.2448 15.2852 34.2627 15.1377 34.2926 14.9976C34.4228 14.0763 34.6339 13.3315 34.8966 12.7698C34.9397 12.6883 34.9752 12.6188 35.0205 12.547C35.1143 12.3721 35.2168 12.2361 35.3185 12.1414C35.326 12.1294 35.3433 12.1153 35.3509 12.1033C35.3952 12.0728 35.4201 12.0467 35.4396 12.0423L35.4494 12.0401C35.4689 12.0357 35.5003 12.0388 35.5557 12.0571C35.6979 12.0967 35.8609 12.1829 36.0545 12.3135C36.5916 12.6945 37.1643 13.3237 37.7553 14.2154C38.4172 15.1937 39.0211 16.3695 39.5769 17.7407C40.1601 19.1878 40.6438 20.7393 41.0184 22.3975C41.393 24.0558 41.6231 25.6646 41.7208 27.2316ZM13.87 31.5699C11.95 31.2899 10.24 30.8899 8.74 30.3699C8.10801 30.1501 7.52842 29.9133 7 29.6602L7 32.7799C7.01 32.7899 7.01 32.8099 7.03 32.8299C7.1 32.9599 7.24 33.1099 7.45 33.2799C8.02 33.7499 8.89 34.1799 10.05 34.5899C11.32 35.0299 12.78 35.3699 14.45 35.6099C16.22 35.8699 18.06 35.9999 20 35.9999C21.94 35.9999 23.78 35.8699 25.55 35.6099C26.0238 35.5418 26.4807 35.4657 26.9212 35.3815C26.2511 34.3065 25.6399 33.0799 25.0773 31.7104C23.442 31.9053 21.7514 31.9999 20 31.9999C17.87 31.9999 15.83 31.8599 13.87 31.5699ZM7.05 16.3699C7.14 16.2199 7.28 16.0499 7.49 15.8699C8.06 15.3699 8.93 14.9099 10.08 14.4899C11.34 14.0299 12.81 13.6699 14.47 13.4099C16.23 13.1399 18.07 12.9999 20 12.9999C21.2243 12.9999 22.4124 13.0563 23.5669 13.1664C23.2159 14.0069 22.9573 14.9879 22.7948 16.1084C22.6191 17.2752 22.5536 18.5445 22.5869 19.9134C21.7427 19.9708 20.8807 19.9999 20 19.9999C18.07 19.9999 16.23 19.8599 14.47 19.5899C12.81 19.3299 11.34 18.9699 10.08 18.5099C8.93 18.0899 8.06 17.6299 7.49 17.1299C7.28 16.9499 7.14 16.7799 7.05 16.6299C7.02 16.5699 7 16.5299 7 16.4999C7 16.4699 7.02 16.4299 7.05 16.3699ZM23.4217 26.3725C23.2331 25.5375 23.0756 24.7139 22.9497 23.8997C21.9871 23.9669 21.0046 23.9999 20 23.9999C17.86 23.9999 15.82 23.8499 13.86 23.5399C11.93 23.2499 10.21 22.8199 8.71 22.2699C8.09024 22.0442 7.52024 21.8009 7 21.5406L7 24.7799C7.01 24.7899 7.01 24.8099 7.03 24.8299C7.1 24.9599 7.24 25.1099 7.45 25.2799C8.02 25.7499 8.89 26.1799 10.05 26.5899C11.32 27.0299 12.78 27.3699 14.45 27.6099C16.22 27.8699 18.06 27.9999 20 27.9999C21.3019 27.9999 22.5587 27.9414 23.7795 27.8243C23.652 27.3479 23.5328 26.8639 23.4217 26.3725ZM32.7883 35.8413C32.6558 35.7995 32.4831 35.7155 32.2993 35.5827C31.7524 35.2039 31.1797 34.5747 30.5887 33.683C29.9269 32.7047 29.323 31.5289 28.7672 30.1577C28.184 28.7106 27.698 27.1493 27.3234 25.4911C26.9489 23.8329 26.7187 22.224 26.6233 20.6668C26.5357 19.1898 26.5755 17.8686 26.7526 16.7009C26.9029 15.6417 27.1495 14.8274 27.4805 14.2502C27.5894 14.0514 27.7092 13.9013 27.8109 13.8065C27.853 13.7663 27.8898 13.7477 27.9093 13.7433L30.5722 13.1418C30.4782 13.5423 30.3983 13.9602 30.3348 14.4051C30.1291 15.7638 30.0757 17.2522 30.1552 18.8745C30.1577 18.9765 30.1624 19.0882 30.1671 19.1999C30.2721 20.9805 30.5387 22.7964 30.9618 24.6692C31.3848 26.542 31.9268 28.306 32.5975 29.9588C33.2615 31.5824 33.9932 33.0062 34.8099 34.216C35.0585 34.5904 35.3102 34.9334 35.5673 35.2546L32.9044 35.8561C32.8849 35.8605 32.8437 35.8596 32.7883 35.8413Z" fill-rule="evenodd"  fill="#000000" >
</path>
</svg>
