<svg xmlns="http://www.w3.org/2000/svg" xmlns:xlink="http://www.w3.org/1999/xlink" width="48" height="48" viewBox="0 0 48 48" fill="none">
<g  clip-path="url(#clip-path-5_331)">
<path d="M3 32.8C3 35.1849 4.91446 37.0438 8.74 38.37C11.8811 39.4589 15.6333 40 20 40C24.3667 40 28.1189 39.4589 31.26 38.37C35.0855 37.0438 37 35.1849 37 32.8L37 16.5C37 14.05 35.1033 12.1245 31.3 10.73C28.1488 9.57456 24.3789 9 20 9C15.6211 9 11.8512 9.57456 8.7 10.73C4.89674 12.1245 3 14.05 3 16.5L3 32.8Z"   fill="#FEEDBD" >
</path>
<path d="M3 25L3 32.8C3 35.1849 4.91277 37.0404 8.73831 38.3666C11.8794 39.4555 15.6333 40 20 40C24.3667 40 28.1206 39.4555 31.2617 38.3666C35.0872 37.0404 37 35.1849 37 32.8L37 25C37 23.8954 36.1046 23 35 23C33.8954 23 33 23.8954 33 25L33 32.8C33 33.287 31.9838 33.8827 29.9515 34.5873C27.2348 35.5291 23.9176 36 20 36C16.0824 36 12.7652 35.5291 10.0485 34.5873C8.01616 33.8827 7 33.287 7 32.8L7 25C7 23.8954 6.10457 23 5 23C3.89543 23 3 23.8954 3 25Z" fill-rule="evenodd"  fill="#FA9E14" >
</path>
<path d="M3 17L3 24.8C3 27.1849 4.91277 29.0404 8.73831 30.3666C11.8794 31.4555 15.6333 32 20 32C24.3667 32 28.1206 31.4555 31.2617 30.3666C35.0872 29.0404 37 27.1849 37 24.8L37 17C37 15.8954 36.1046 15 35 15C33.8954 15 33 15.8954 33 17L33 24.8C33 25.287 31.9838 25.8827 29.9515 26.5873C27.2348 27.5291 23.9176 28 20 28C16.0824 28 12.7652 27.5291 10.0485 26.5873C8.01616 25.8827 7 25.287 7 24.8L7 17C7 15.8954 6.10457 15 5 15C3.89543 15 3 15.8954 3 17Z" fill-rule="evenodd"  fill="#FCCB68" >
</path>
<path d="M31.2951 22.2668C35.0984 20.8723 37 18.95 37 16.5C37 14.05 35.0984 12.1277 31.2951 10.7332C28.1439 9.57772 24.3789 9 20 9C15.6211 9 11.8561 9.57772 8.70489 10.7332C4.90163 12.1277 3 14.05 3 16.5C3 18.95 4.90163 20.8723 8.70489 22.2668C11.8561 23.4223 15.6211 24 20 24C24.3789 24 28.1439 23.4223 31.2951 22.2668ZM29.9181 14.4887C31.9727 15.242 33 15.9125 33 16.5C33 17.0875 31.9727 17.758 29.9181 18.5113C27.2114 19.5038 23.9054 20 20 20C16.0946 20 12.7886 19.5038 10.0819 18.5113C8.0273 17.758 7 17.0875 7 16.5C7 15.9125 8.0273 15.242 10.0819 14.4887C12.7886 13.4962 16.0946 13 20 13C23.9054 13 27.2114 13.4962 29.9181 14.4887Z" fill-rule="evenodd"  fill="#FCCB68" >
</path>
<path   fill-rule="evenodd"  fill="#FEEDBD"  d="M40.8852 36.1039L33.3452 37.8071C30.5723 38.4335 26.9951 33.1143 25.3727 25.9319C23.7503 18.7496 24.6959 12.4189 27.4688 11.7926L35.0088 10.0894">
</path>
<path d="M33.7857 39.7581L41.3257 38.0549L40.4443 34.1532C39.9484 34.2652 39.1762 33.5407 38.1276 31.9796C36.7074 29.8653 35.6193 27.1349 34.8633 23.7882C34.1075 20.4424 33.9166 17.5112 34.2906 14.9947C34.5666 13.1373 34.9528 12.1525 35.4492 12.0404L34.5679 8.13867L27.0278 9.84189C24.7497 10.3565 23.3384 12.4459 22.794 16.11C22.3468 19.1197 22.556 22.5406 23.4216 26.3728C24.2873 30.2053 25.5692 33.3854 27.267 35.9131C29.3346 38.9911 31.5075 40.2728 33.7857 39.7581ZM27.9092 13.7436L30.5705 13.1424C30.4789 13.5407 30.4001 13.9621 30.334 14.4067C29.8868 17.4165 30.096 20.8374 30.9616 24.6695C31.8274 28.502 33.1092 31.6822 34.8071 34.2099C35.059 34.5849 35.3124 34.9332 35.5674 35.2549L32.9043 35.8564C32.4084 35.9684 31.6362 35.2439 30.5875 33.6828C29.1674 31.5685 28.0793 28.8381 27.3233 25.4914C26.5675 22.1456 26.3766 19.2144 26.7505 16.6979C27.0265 14.8405 27.4128 13.8557 27.9092 13.7436Z" fill-rule="evenodd"  fill="#FBB63E" >
</path>
<path d="M42.9693 21.957C41.3469 14.7746 37.7817 9.46297 35.0088 10.0893C32.2359 10.7157 31.2903 17.0463 32.9127 24.2287C34.5352 31.411 38.1124 36.7302 40.8852 36.1039C43.6581 35.4775 44.5918 29.1393 42.9693 21.957Z" fill-rule="evenodd"  fill="#FEEDBD" >
</path>
<path d="M37.7597 14.2091C39.176 16.3201 40.2623 19.0496 41.0186 22.3976L44.9203 21.5162C44.0544 17.6831 42.7748 14.5045 41.0814 11.9805C39.0176 8.90446 36.8466 7.62375 34.5682 8.13841C32.2901 8.65302 30.8788 10.7424 30.3344 14.4065C29.8871 17.4162 30.0963 20.8371 30.962 24.6693C31.8277 28.5018 33.1095 31.6819 34.8074 34.2097C36.8749 37.2876 39.0478 38.5693 41.326 38.0546C43.6045 37.54 45.0139 35.4485 45.5543 31.7803C45.9976 28.7711 45.7862 25.3498 44.9203 21.5162L41.0186 22.3976C41.7751 25.7465 41.9679 28.6797 41.597 31.1973C41.3232 33.0561 40.9391 34.0413 40.4447 34.153C39.9488 34.265 39.1765 33.5404 38.1279 31.9793C36.7077 29.8651 35.6197 27.1346 34.8637 23.7879C34.1079 20.4421 33.917 17.5109 34.2909 14.9944C34.5669 13.137 34.9531 12.1523 35.4496 12.0401C35.9445 11.9283 36.7146 12.6513 37.7597 14.2091Z" fill-rule="evenodd"  fill="#FCCB68" >
</path>
<path d="M34.8632 23.7882C35.6192 27.1349 36.7073 29.8653 38.1274 31.9796C39.1761 33.5407 39.9483 34.2653 40.4442 34.1533L41.3256 38.055L33.7855 39.7582C31.5073 40.2728 29.3345 38.9911 27.2669 35.9132C25.5691 33.3855 24.2872 30.2053 23.4215 26.3728C23.1781 25.2954 23.8542 24.2247 24.9317 23.9813C26.0091 23.7379 27.0798 24.414 27.3232 25.4915C28.0792 28.8381 29.1673 31.5686 30.5874 33.6828C31.636 35.2439 32.4083 35.9685 32.9042 35.8565L35.5673 35.2549C35.3123 34.9333 35.0589 34.5849 34.807 34.21C33.1091 31.6822 31.8273 28.5021 30.9615 24.6696L34.8632 23.7882Z" fill-rule="evenodd"  fill="#FBB63E" >
</path>
<path d="M41.0185 22.3976C40.7751 21.3202 41.4512 20.2495 42.5286 20.0061C43.6061 19.7627 44.6768 20.4389 44.9202 21.5163C45.7861 25.3498 45.9975 28.7712 45.5541 31.7803C45.0138 35.4486 43.6044 37.54 41.3259 38.0547C39.0477 38.5693 36.8748 37.2877 34.8073 34.2097C33.1094 31.682 31.8276 28.5019 30.9619 24.6693C30.7185 23.5919 31.3946 22.5212 32.472 22.2778C33.5495 22.0344 34.6202 22.7106 34.8636 23.788C35.6195 27.1346 36.7076 29.8651 38.1278 31.9793C39.1764 33.5405 39.9487 34.265 40.4445 34.153C40.9389 34.0413 41.3231 33.0561 41.5969 31.1974C41.9678 28.6798 41.775 25.7465 41.0185 22.3976Z" fill-rule="evenodd"  fill="#FA9E14" >
</path>
</g>
<defs>
<clipPath id="clip-path-5_331">
<path d="M0 48L48 48L48 0L0 0L0 48Z" fill="white"/>
</clipPath>
</defs>
</svg>
