<svg xmlns="http://www.w3.org/2000/svg" xmlns:xlink="http://www.w3.org/1999/xlink" width="48" height="48" viewBox="0 0 48 48" fill="none">
<path d="M24 45C35.598 45 45 35.598 45 24C45 12.402 35.598 3 24 3C12.402 3 3 12.402 3 24C3 35.598 12.402 45 24 45ZM24 7C33.3888 7 41 14.6112 41 24C41 33.3888 33.3888 41 24 41C14.6112 41 7 33.3888 7 24C7 14.6112 14.6112 7 24 7Z" fill-rule="evenodd"  fill="#787878" >
</path>
<path d="M24.001 39C25.1055 39 26.001 38.1046 26.001 37L26.001 20C26.001 18.8954 25.1055 18 24.001 18C22.8964 18 22.001 18.8954 22.001 20L22.001 37C22.001 38.1046 22.8964 39 24.001 39Z" fill-rule="evenodd"  fill="#424242" >
</path>
<path d="M13.999 21C13.999 22.1046 14.8945 23 15.999 23L31.999 23C33.1036 23 33.999 22.1046 33.999 21C33.999 19.8954 33.1036 19 31.999 19L15.999 19C14.8945 19 13.999 19.8954 13.999 21Z" fill-rule="evenodd"  fill="#424242" >
</path>
<path d="M13.999 28C13.999 29.1046 14.8945 30 15.999 30L31.999 30C33.1036 30 33.999 29.1046 33.999 28C33.999 26.8954 33.1036 26 31.999 26L15.999 26C14.8945 26 13.999 26.8954 13.999 28Z" fill-rule="evenodd"  fill="#424242" >
</path>
<path d="M18.4144 11.586L24.0008 17.1716L29.5851 11.5865L29.5857 11.5859C29.9476 11.2239 30.4477 11 31 11C32.1046 11 33 11.8954 33 13C33 13.5522 32.7762 14.0522 32.4143 14.4141L32.4137 14.4147L25.4153 21.4141C25.0216 21.7969 24.5502 21.9922 24.0011 22C23.4521 21.9923 22.9806 21.7971 22.5869 21.4143L15.5862 14.4146L15.5859 14.4143C15.2239 14.0524 15 13.5523 15 13C15 11.8954 15.8954 11 17 11C17.5522 11 18.0522 11.2238 18.4141 11.5857L18.4144 11.586Z" fill-rule="evenodd"  fill="#424242" >
</path>
</svg>
