<svg xmlns="http://www.w3.org/2000/svg" xmlns:xlink="http://www.w3.org/1999/xlink" width="48" height="48" viewBox="0 0 48 48" fill="none">
<path d="M44.92 21.5258C44.9464 21.6427 44.9749 21.7593 45 21.8758C45.3344 23.4238 45.553 24.9399 45.67 26.4258C45.685 26.6169 45.6985 26.8057 45.71 26.9958C45.71 27.0232 45.72 27.0485 45.72 27.0758C45.7436 27.4852 45.76 27.8934 45.76 28.2858C45.7796 29.5417 45.7094 30.7041 45.55 31.7858C45.3211 33.3391 44.9259 34.6238 44.35 35.6358C44.0065 36.2395 43.6005 36.74 43.14 37.1358C42.5958 37.6035 41.9859 37.9154 41.32 38.0658L33.78 39.7658C33.1144 39.9161 32.4425 39.8939 31.75 39.7058C31.1641 39.5466 30.58 39.2728 30.01 38.8758C29.9739 38.8506 29.9461 38.8219 29.91 38.7958C28.7563 39.1168 27.4941 39.3758 26.13 39.5758C24.1759 39.8623 22.1317 40.0058 20 40.0058C17.8683 40.0058 15.8241 39.8623 13.87 39.5758C11.9509 39.2944 10.2429 38.8968 8.74 38.3758C7.13135 37.8181 5.85291 37.1486 4.91 36.3758C4.34247 35.9106 3.89817 35.4148 3.58 34.8758C3.19172 34.218 3 33.5244 3 32.8058L3 30.9658C3.63828 31.324 4.33459 31.652 5.09 31.9658C7.05804 32.7834 9.32273 33.4092 11.88 33.8458C14.4479 34.2843 17.1535 34.5058 20 34.5058C22.1467 34.5058 24.2117 34.3852 26.2 34.1358C25.7957 33.3736 25.4184 32.5511 25.06 31.6658L24.54 30.2958C23.0757 30.4381 21.5623 30.5058 20 30.5058C17.3795 30.5058 14.8951 30.3062 12.55 29.9058C10.2893 29.5198 8.32026 28.9781 6.63 28.2758C5.02902 27.6107 3.81582 26.8653 3 26.0358L3 20.1458C3.62376 20.5171 4.30567 20.8653 5.04 21.1958C7.02877 22.0907 9.2928 22.7809 11.84 23.2658C14.4409 23.7608 17.1616 24.0058 20 24.0058C20.9987 24.0058 21.9807 23.9771 22.95 23.9158C22.95 23.9158 22.6667 21.5209 22.63 20.9058C22.5583 19.7011 22.59 19.9358 22.59 19.9358C21.7415 19.9871 20.8752 20.0058 20 20.0058C17.4131 20.0058 14.9437 19.7838 12.59 19.3358C10.3517 18.9098 8.382 18.3117 6.68 17.5458C5.17274 16.8675 4.00387 16.117 3.18 15.2958C3.27119 14.9994 3.40024 14.712 3.56 14.4258C3.87206 13.8666 4.30845 13.3426 4.87 12.8558C5.81381 12.0376 7.08637 11.3374 8.7 10.7458C10.2081 10.1928 11.9248 9.76435 13.85 9.46578C15.8095 9.16189 17.8627 9.00578 20 9.00578C22.1373 9.00578 24.1905 9.16189 26.15 9.46578C26.6475 9.54293 27.1304 9.62165 27.6 9.71578L34.55 8.14578L34.57 8.14578C35.2354 7.99549 35.9081 8.018 36.6 8.20578C36.8755 8.28055 37.1581 8.37843 37.43 8.50578C37.7363 8.64925 38.0382 8.82559 38.34 9.03578C38.9369 9.45162 39.5147 9.99092 40.08 10.6558C40.4192 11.0547 40.7522 11.4972 41.08 11.9858C41.2073 12.1756 41.3365 12.3757 41.46 12.5758C42.1239 13.6509 42.7257 14.8747 43.28 16.2458C43.9477 17.8973 44.4978 19.6564 44.92 21.5258ZM35.57 35.2558L35.57 35.2558ZM35.57 35.2558C35.5378 35.2156 35.5022 35.1768 35.47 35.1358C35.3904 35.0342 35.3189 34.9325 35.24 34.8258C35.0957 34.6309 34.9522 34.4275 34.81 34.2158C33.9965 33.0047 33.2585 31.5825 32.6 29.9558C31.9309 28.3027 31.3822 26.545 30.96 24.6758C30.5378 22.8065 30.276 20.9851 30.17 19.2058C30.0656 17.4547 30.1156 15.8579 30.33 14.4158C30.3785 14.0891 30.436 13.7685 30.5 13.4658C30.5229 13.3572 30.5451 13.2513 30.57 13.1458L27.91 13.7458C27.8907 13.7458 27.8616 13.7701 27.82 13.8058C27.7099 13.9003 27.5952 14.0541 27.48 14.2558C27.1509 14.8323 26.907 15.6491 26.75 16.7058C26.5763 17.8739 26.5321 19.1914 26.62 20.6658C26.7131 22.2282 26.9457 23.8385 27.32 25.4958C27.6943 27.1532 28.1823 28.7141 28.77 30.1658C29.3248 31.5361 29.9309 32.7044 30.59 33.6858C31.1865 34.5739 31.7545 35.2159 32.3 35.5958C32.4909 35.7287 32.6599 35.8077 32.8 35.8458C32.8526 35.8601 32.8811 35.8658 32.9 35.8658L35.57 35.2558Z" fill-rule="evenodd"  fill="#000000" >
</path>
</svg>
