<svg xmlns="http://www.w3.org/2000/svg" xmlns:xlink="http://www.w3.org/1999/xlink" width="48" height="48" viewBox="0 0 48 48" fill="none">
<path d="M15 3L33 3C37.4183 3 41 6.58172 41 11L41 37C41 41.4183 37.4183 45 33 45L15 45C10.5817 45 7 41.4183 7 37L7 11C7 6.58172 10.5817 3 15 3ZM11 18.036C12.07 18.8589 13.2477 19.5576 14.5328 20.1324C16.003 20.7898 17.5774 21.2736 19.2561 21.5839C19.09 21.0862 19 20.5536 19 20C19 19.1222 19.2262 18.2971 19.6236 17.5801C18.3924 17.3276 17.2398 16.9611 16.1658 16.4808C14.0282 15.5249 12.3063 14.1553 11 12.3721L11 11C11 8.79086 12.7909 7 15 7L33 7C35.2091 7 37 8.79086 37 11L37 12.3932C35.6936 14.1702 33.9733 15.5347 31.839 16.4867C30.7642 16.9662 29.6106 17.3317 28.3782 17.5833C28.7744 18.2996 29 19.1235 29 20C29 20.5549 28.9096 21.0886 28.7428 21.5873C30.4225 21.2784 31.9978 20.7959 33.4685 20.1398C34.753 19.5668 35.9301 18.8699 37 18.0492L37 37C37 39.2091 35.2091 41 33 41L15 41C12.7909 41 11 39.2091 11 37L11 18.036Z" fill-rule="evenodd"  fill="#787878" >
</path>
<path d="M24 27C27.866 27 31 23.866 31 20C31 16.134 27.866 13 24 13C20.134 13 17 16.134 17 20C17 23.866 20.134 27 24 27ZM24 17C25.6568 17 27 18.3432 27 20C27 21.6568 25.6568 23 24 23C22.3432 23 21 21.6568 21 20C21 18.3432 22.3432 17 24 17Z" fill-rule="evenodd"  fill="#424242" >
</path>
</svg>
