<svg xmlns="http://www.w3.org/2000/svg" xmlns:xlink="http://www.w3.org/1999/xlink" width="48" height="48" viewBox="0 0 48 48" fill="none">
<path d="M24 45C35.598 45 45 35.598 45 24C45 12.402 35.598 3 24 3C12.402 3 3 12.402 3 24C3 35.598 12.402 45 24 45ZM24 7C33.3888 7 41 14.6112 41 24C41 33.3888 33.3888 41 24 41C14.6112 41 7 33.3888 7 24C7 14.6112 14.6112 7 24 7Z" fill-rule="evenodd"  fill="#787878" >
</path>
<path d="M15.5922 24.2491C17.5279 25.4164 20.3305 26 24 26C25.5598 26 26.9035 26.117 28.0312 26.3509C28.9888 26.5496 29.7591 26.8247 30.3422 27.1763C30.7729 27.436 31.0808 27.727 31.2659 28.0492C31.422 28.3209 31.5 28.6378 31.5 29C31.5 29.2696 31.4083 29.5345 31.2249 29.7946C30.9714 30.1541 30.5722 30.4856 30.0273 30.7889C29.3653 31.1574 28.5541 31.4452 27.5938 31.6524C26.5197 31.8841 25.3217 32 24 32C22.5737 32 21.0936 31.749 19.5596 31.2469C18.884 31.0258 18.2392 30.7675 17.6252 30.472C17.0686 30.2041 16.5757 29.9247 16.1463 29.6336C15.8217 29.4062 15.4264 29.2727 15 29.2727C13.8954 29.2727 13 30.1682 13 31.2727C13 31.971 13.3579 32.5857 13.9002 32.9435C14.4928 33.3453 15.1562 33.7229 15.8905 34.0763C16.6636 34.4484 17.4719 34.7724 18.3154 35.0485C20.2536 35.6828 22.1485 36 24 36C25.6061 36 27.0853 35.8541 28.4374 35.5624C29.7856 35.2715 30.964 34.8454 31.9727 34.2839C33.0493 33.6846 33.8897 32.9566 34.4939 32.0997C35.1646 31.1485 35.5 30.1153 35.5 29C35.5 27.9263 35.2447 26.9451 34.7341 26.0565C34.2051 25.1356 33.4297 24.3671 32.4078 23.7509C30.4721 22.5836 27.6695 22 24 22C22.4402 22 21.0964 21.883 19.9688 21.6491C19.0112 21.4504 18.2409 21.1753 17.6578 20.8237C17.2272 20.564 16.9193 20.273 16.7341 19.9508C16.5781 19.6791 16.5 19.3622 16.5 19C16.5 18.7711 16.5984 18.529 16.7953 18.2734C17.0843 17.8983 17.53 17.5492 18.1324 17.2264C18.8324 16.8511 19.6634 16.5576 20.6253 16.3458C21.6726 16.1153 22.7974 16 24 16C25.2905 16 26.4947 16.1482 27.6124 16.4446C29.0467 16.8249 30.4718 17.4732 31.8877 18.3897C32.2057 18.6029 32.5884 18.7273 33 18.7273C34.1046 18.7273 35 17.8318 35 16.7273C35 16.0122 34.6248 15.3849 34.0605 15.0313C32.289 13.8847 30.4813 13.067 28.6376 12.5782C27.1839 12.1927 25.6381 12 24 12C22.5074 12 21.0958 12.1465 19.7653 12.4394C18.4425 12.7306 17.2683 13.1511 16.2426 13.7009C15.1365 14.2938 14.2645 15.0043 13.6266 15.8322C12.8755 16.8071 12.5 17.863 12.5 19C12.5 20.0737 12.7553 21.0549 13.2659 21.9435C13.7949 22.8643 14.5704 23.6329 15.5922 24.2491Z" fill-rule="evenodd"  fill="#424242" >
</path>
<path d="M24.001 39C25.1055 39 26.001 38.1046 26.001 37L26.001 11C26.001 9.8954 25.1055 9 24.001 9C22.8964 9 22.001 9.8954 22.001 11L22.001 37C22.001 38.1046 22.8964 39 24.001 39Z" fill-rule="evenodd"  fill="#424242" >
</path>
</svg>
