<svg xmlns="http://www.w3.org/2000/svg" xmlns:xlink="http://www.w3.org/1999/xlink" width="48" height="48" viewBox="0 0 48 48" fill="none">
<path d="M7 11L7 11.3619C8.68795 13.424 10.7026 15.0811 13.0439 16.3334C14.0823 16.8888 15.1754 17.3581 16.3233 17.7412C17.2982 14.4228 20.3661 12 24 12C27.7399 12 30.8803 14.5662 31.7566 18.0338C33.2463 17.6083 34.6482 17.045 35.9623 16.3439C37.8547 15.3342 39.5339 14.06 41 12.5212L41 11C41 6.58172 37.4183 3 33 3L15 3C10.5817 3 7 6.58172 7 11ZM27.8207 18.8123C27.9372 19.1875 28 19.5864 28 20C28 21.1559 27.5097 22.1973 26.7257 22.9276C26.6669 22.9824 26.6064 23.0354 26.5444 23.0866C25.8529 23.6572 24.9665 24 24 24C22.8978 24 21.8998 23.5542 21.1763 22.8332C20.4497 22.1089 20 21.107 20 20C20 19.5371 20.0786 19.0927 20.2232 18.6792C20.2512 18.5993 20.2816 18.5205 20.3143 18.443C20.9216 17.0074 22.3431 16 24 16C25.7956 16 27.3148 17.1831 27.8207 18.8123ZM15 45C10.5817 45 7 41.4183 7 37L7 17.04C8.27891 18.1221 9.66472 19.0623 11.1574 19.8606C12.7456 20.71 14.4351 21.3884 16.226 21.8959C17.0773 25.3991 20.2349 28 24 28C27.6614 28 30.7483 25.5403 31.6985 22.1832C33.893 21.6585 35.9419 20.8884 37.8451 19.873C38.9559 19.2804 40.0075 18.6093 41 17.8597L41 37C41 41.4183 37.4183 45 33 45L15 45Z" fill-rule="evenodd"  fill="#000000" >
</path>
</svg>
