<svg xmlns="http://www.w3.org/2000/svg" xmlns:xlink="http://www.w3.org/1999/xlink" width="48" height="48" viewBox="0 0 48 48" fill="none">
<path d="M24 45C35.598 45 45 35.598 45 24C45 12.402 35.598 3 24 3C12.402 3 3 12.402 3 24C3 35.598 12.402 45 24 45ZM24.0008 17.1716L18.4144 11.586L18.4141 11.5857C18.0522 11.2238 17.5522 11 17 11C15.8954 11 15 11.8954 15 13C15 13.5523 15.2239 14.0524 15.5859 14.4143L15.5862 14.4146L20.1722 19L15.999 19C14.8944 19 13.999 19.8954 13.999 21C13.999 22.1046 14.8944 23 15.999 23L22.001 23L22.001 26L15.999 26C14.8944 26 13.999 26.8954 13.999 28C13.999 29.1046 14.8944 30 15.999 30L22.001 30L22.001 37C22.001 38.1046 22.8964 39 24.001 39C25.1056 39 26.001 38.1046 26.001 37L26.001 30L31.999 30C33.1036 30 33.999 29.1046 33.999 28C33.999 26.8954 33.1036 26 31.999 26L26.001 26L26.001 23L31.999 23C33.1036 23 33.999 22.1046 33.999 21C33.999 19.8954 33.1036 19 31.999 19L27.8291 19L32.4137 14.4147L32.4143 14.4141C32.7762 14.0522 33 13.5522 33 13C33 11.8954 32.1046 11 31 11C30.4477 11 29.9476 11.2239 29.5857 11.5859L29.5851 11.5865L24.0008 17.1716Z" fill-rule="evenodd"  fill="#000000" >
</path>
</svg>
