<svg xmlns="http://www.w3.org/2000/svg" xmlns:xlink="http://www.w3.org/1999/xlink" width="48" height="48" viewBox="0 0 48 48" fill="none">
<path d="M45 14L45 34C45 35.08 44.79 36.12 44.37 37.11C43.96 38.07 43.39 38.92 42.66 39.66C41.92 40.39 41.07 40.96 40.11 41.37C39.12 41.79 38.08 42 37 42L11 42C9.92 42 8.88 41.79 7.89 41.37C6.93 40.96 6.08 40.39 5.34 39.66C4.61 38.92 4.04 38.07 3.63 37.11C3.21 36.12 3 35.08 3 34L3 14C3 12.92 3.21 11.88 3.63 10.89C4.04 9.93 4.61 9.08 5.34 8.34C6.08 7.61 6.93 7.04 7.89 6.63C8.88 6.21 9.92 6 11 6L37 6C38.08 6 39.12 6.21 40.11 6.63C41.07 7.04 41.92 7.61 42.66 8.34C43.39 9.08 43.96 9.93 44.37 10.89C44.79 11.88 45 12.92 45 14ZM41 14L41 15.5L29 15.5C27.92 15.5 26.88 15.71 25.89 16.13C24.93 16.54 24.08 17.11 23.34 17.84C22.61 18.58 22.04 19.43 21.63 20.39C21.21 21.38 21 22.42 21 23.5L21 24.5C21 25.58 21.21 26.62 21.63 27.61C22.04 28.57 22.61 29.42 23.34 30.16C24.08 30.89 24.93 31.46 25.89 31.87C26.88 32.29 27.92 32.5 29 32.5L41 32.5L41 34C41 34.54 40.9 35.06 40.69 35.55C40.48 36.03 40.2 36.46 39.83 36.83C39.46 37.2 39.03 37.48 38.55 37.69C38.06 37.9 37.54 38 37 38L11 38C10.46 38 9.94 37.9 9.45 37.69C8.97 37.48 8.54 37.2 8.17 36.83C7.8 36.46 7.52 36.03 7.31 35.55C7.1 35.06 7 34.54 7 34L7 14C7 13.46 7.1 12.94 7.31 12.45C7.52 11.97 7.8 11.54 8.17 11.17C8.54 10.8 8.97 10.52 9.45 10.31C9.94 10.1 10.46 10 11 10L37 10C37.54 10 38.06 10.1 38.55 10.31C39.03 10.52 39.46 10.8 39.83 11.17C40.2 11.54 40.48 11.97 40.69 12.45C40.9 12.94 41 13.46 41 14ZM29 19.5L41 19.5L41 28.5L29 28.5C28.46 28.5 27.94 28.4 27.45 28.19C26.97 27.98 26.54 27.7 26.17 27.33C25.8 26.96 25.52 26.53 25.31 26.05C25.1 25.56 25 25.04 25 24.5L25 23.5C25 22.96 25.1 22.44 25.31 21.95C25.52 21.47 25.8 21.04 26.17 20.67C26.54 20.3 26.97 20.02 27.45 19.81C27.94 19.6 28.46 19.5 29 19.5ZM28 24C28 22.62 29.12 21.5 30.5 21.5C31.88 21.5 33 22.62 33 24C33 25.38 31.88 26.5 30.5 26.5C29.12 26.5 28 25.38 28 24Z" fill-rule="evenodd"  fill="#000000" >
</path>
</svg>
