<svg xmlns="http://www.w3.org/2000/svg" xmlns:xlink="http://www.w3.org/1999/xlink" width="48" height="48" viewBox="0 0 48 48" fill="none">
<path d="M21 23.5L21 24.5C21 28.9183 24.5817 32.5 29 32.5L43 32.5C43.5491 32.4923 44.0205 32.297 44.4142 31.9142C44.797 31.5205 44.9923 31.0491 45 30.5L45 17.5C44.9923 16.9509 44.797 16.4795 44.4142 16.0858C44.0205 15.703 43.5491 15.5077 43 15.5L29 15.5C24.5817 15.5 21 19.0817 21 23.5ZM41 19.5L29 19.5C26.7909 19.5 25 21.2909 25 23.5L25 24.5C25 26.7091 26.7909 28.5 29 28.5L41 28.5L41 19.5Z" fill-rule="evenodd"  fill="#424242" >
</path>
<path d="M3 34C3 38.4183 6.58172 42 11 42L37 42C41.4183 42 45 38.4183 45 34L45 14C45 9.58172 41.4183 6 37 6L11 6C6.58172 6 3 9.58172 3 14L3 34ZM37 38L11 38C8.79086 38 7 36.2091 7 34L7 14C7 11.7909 8.79086 10 11 10L37 10C39.2091 10 41 11.7909 41 14L41 34C41 36.2091 39.2091 38 37 38Z" fill-rule="evenodd"  fill="#000000" >
</path>
<path d="M37 6L11 6C6.58172 6 3 9.58172 3 14L3 34C3 38.4183 6.58172 42 11 42L37 42C41.4183 42 45 38.4183 45 34L45 14C45 9.58172 41.4183 6 37 6ZM7 14C7 11.7909 8.79086 10 11 10L37 10C39.2091 10 41 11.7909 41 14L41 34C41 36.2091 39.2091 38 37 38L11 38C8.79086 38 7 36.2091 7 34L7 14Z" fill-rule="evenodd"  fill="#787878" >
</path>
<path d="M33 24C33 25.3807 31.8807 26.5 30.5 26.5C29.1193 26.5 28 25.3807 28 24C28 22.6193 29.1193 21.5 30.5 21.5C31.8807 21.5 33 22.6193 33 24Z"   fill="#424242" >
</path>
</svg>
