<svg xmlns="http://www.w3.org/2000/svg" xmlns:xlink="http://www.w3.org/1999/xlink" width="48" height="48" viewBox="0 0 48 48" fill="none">
<path d="M3 34C3 38.4183 6.58172 42 11 42L37 42C41.4183 42 45 38.4183 45 34L45 32.5L29 32.5C24.5817 32.5 21 28.9183 21 24.5L21 23.5C21 19.0817 24.5817 15.5 29 15.5L45 15.5L45 14C45 9.58172 41.4183 6 37 6L11 6C6.58172 6 3 9.58172 3 14L3 34ZM45 19.5L29 19.5C26.7909 19.5 25 21.2909 25 23.5L25 24.5C25 26.7091 26.7909 28.5 29 28.5L45 28.5L45 19.5ZM33 24C33 25.3807 31.8807 26.5 30.5 26.5C29.1193 26.5 28 25.3807 28 24C28 22.6193 29.1193 21.5 30.5 21.5C31.8807 21.5 33 22.6193 33 24Z" fill-rule="evenodd"  fill="#000000" >
</path>
</svg>
