<svg xmlns="http://www.w3.org/2000/svg" xmlns:xlink="http://www.w3.org/1999/xlink" width="48" height="48" viewBox="0 0 48 48" fill="none">
<path d="M24 45C35.598 45 45 35.598 45 24C45 12.402 35.598 3 24 3C12.402 3 3 12.402 3 24C3 35.598 12.402 45 24 45ZM24.001 39C25.1056 39 26.001 38.1046 26.001 37L26.001 35.9191C26.8544 35.8476 27.6665 35.7287 28.4374 35.5624C29.7856 35.2715 30.964 34.8454 31.9727 34.2839C33.0493 33.6846 33.8897 32.9566 34.4939 32.0997C35.1646 31.1485 35.5 30.1153 35.5 29C35.5 27.9263 35.2447 26.9451 34.7341 26.0565C34.2051 25.1356 33.4297 24.3671 32.4078 23.7509C30.8405 22.8058 28.7049 22.2433 26.001 22.0634L26.001 16.1278C26.5567 16.2015 27.0939 16.3071 27.6124 16.4446C29.0467 16.8249 30.4718 17.4732 31.8877 18.3897C32.2057 18.6029 32.5884 18.7273 33 18.7273C34.1046 18.7273 35 17.8318 35 16.7273C35 16.0122 34.6248 15.3849 34.0605 15.0313C32.289 13.8848 30.4813 13.0671 28.6376 12.5782C27.7901 12.3534 26.9112 12.1942 26.001 12.1005L26.001 11C26.001 9.8954 25.1056 9 24.001 9C22.8964 9 22.001 9.8954 22.001 11L22.001 12.0921C21.2319 12.1648 20.4867 12.2806 19.7653 12.4394C18.4425 12.7306 17.2683 13.1511 16.2426 13.7009C15.1365 14.2938 14.2645 15.0043 13.6266 15.8322C12.8755 16.8071 12.5 17.8631 12.5 19C12.5 20.0737 12.7553 21.0549 13.2659 21.9435C13.7949 22.8644 14.5703 23.6329 15.5922 24.2491C17.1599 25.1944 19.2961 25.757 22.001 25.9367L22.001 31.8412C21.2029 31.7165 20.3891 31.5184 19.5596 31.2469C18.884 31.0258 18.2392 30.7675 17.6252 30.472C17.0686 30.2041 16.5757 29.9247 16.1463 29.6336C15.8217 29.4062 15.4264 29.2727 15 29.2727C13.8954 29.2727 13 30.1682 13 31.2727C13 31.971 13.3579 32.5857 13.9002 32.9435C14.4928 33.3453 15.1562 33.7229 15.8905 34.0763C16.6636 34.4484 17.4719 34.7724 18.3154 35.0485C19.5619 35.4564 20.7904 35.7332 22.001 35.8788L22.001 37C22.001 38.1046 22.8964 39 24.001 39ZM22.001 16.1145L22.001 21.927C21.2597 21.869 20.5823 21.7764 19.9688 21.6491C19.0112 21.4504 18.2409 21.1753 17.6578 20.8237C17.2272 20.564 16.9193 20.273 16.7341 19.9508C16.5781 19.6791 16.5 19.3622 16.5 19C16.5 18.7711 16.5984 18.529 16.7953 18.2734C17.0843 17.8983 17.53 17.5492 18.1324 17.2264C18.8324 16.8511 19.6634 16.5576 20.6253 16.3458C21.0699 16.2479 21.5285 16.1708 22.001 16.1145ZM27.5938 31.6524C27.0901 31.7611 26.5591 31.8443 26.001 31.902L26.001 26.0731C26.7416 26.1312 27.4183 26.2238 28.0312 26.3509C28.9888 26.5496 29.7591 26.8247 30.3422 27.1763C30.7729 27.436 31.0808 27.727 31.2659 28.0492C31.422 28.3209 31.5 28.6378 31.5 29C31.5 29.2696 31.4083 29.5345 31.2249 29.7946C30.9714 30.1541 30.5722 30.4856 30.0273 30.7889C29.3653 31.1574 28.5541 31.4452 27.5938 31.6524Z" fill-rule="evenodd"  fill="#000000" >
</path>
</svg>
