<svg xmlns="http://www.w3.org/2000/svg" xmlns:xlink="http://www.w3.org/1999/xlink" width="48" height="48" viewBox="0 0 48 48" fill="none">
<path d="M31.9145 18.403L31.91 18.4L32.45 17.58L31.9145 18.403ZM31.9145 18.403L31.91 18.41C30.49 17.48 29.05 16.83 27.61 16.44C27.0946 16.3053 26.5576 16.2009 26.001 16.1276L26.001 22.0631C28.7047 22.2421 30.8392 22.8027 32.41 23.75C33.43 24.37 34.21 25.14 34.73 26.06C35.24 26.95 35.5 27.93 35.5 29C35.5 30.11 35.16 31.15 34.49 32.1C33.89 32.95 33.05 33.68 31.97 34.28C30.96 34.84 29.79 35.27 28.44 35.56C27.6694 35.7255 26.8564 35.8455 26.001 35.9179L26.001 37C26.001 37.07 26.001 37.13 25.991 37.2C25.981 37.26 25.971 37.33 25.961 37.39C25.951 37.45 25.931 37.52 25.911 37.58C25.891 37.64 25.871 37.7 25.851 37.77C25.821 37.83 25.791 37.89 25.761 37.94C25.731 38 25.701 38.06 25.661 38.11C25.631 38.17 25.591 38.22 25.551 38.27C25.501 38.32 25.461 38.37 25.411 38.41C25.371 38.46 25.321 38.5 25.271 38.55C25.221 38.59 25.171 38.63 25.111 38.66C25.061 38.7 25.001 38.73 24.941 38.76C24.891 38.79 24.831 38.82 24.771 38.85C24.701 38.87 24.641 38.89 24.581 38.91C24.521 38.93 24.451 38.95 24.391 38.96C24.331 38.97 24.261 38.98 24.201 38.99C24.131 39 24.071 39 24.001 39C23.931 39 23.871 39 23.801 38.99C23.741 38.98 23.671 38.97 23.611 38.96C23.551 38.95 23.481 38.93 23.421 38.91C23.361 38.89 23.301 38.87 23.231 38.85C23.171 38.82 23.111 38.79 23.061 38.76C23.001 38.73 22.941 38.7 22.891 38.66C22.831 38.63 22.781 38.59 22.731 38.55C22.681 38.5 22.631 38.46 22.591 38.41C22.541 38.37 22.501 38.32 22.451 38.27C22.411 38.22 22.371 38.17 22.341 38.11C22.301 38.06 22.271 38 22.241 37.94C22.211 37.89 22.181 37.83 22.151 37.77C22.131 37.7 22.111 37.64 22.091 37.58C22.071 37.52 22.051 37.45 22.041 37.39C22.031 37.33 22.021 37.26 22.011 37.2C22.001 37.13 22.001 37.07 22.001 37L22.001 35.8782C20.79 35.7321 19.5612 35.4552 18.32 35.05C17.47 34.77 16.66 34.45 15.89 34.08C15.14 33.72 14.47 33.33 13.87 32.92L13.87 32.93L13.72 32.81C13.67 32.76 13.62 32.72 13.57 32.67C13.53 32.63 13.48 32.58 13.44 32.53C13.4 32.48 13.36 32.42 13.33 32.37C13.29 32.31 13.26 32.26 13.23 32.2C13.2 32.14 13.17 32.08 13.15 32.02C13.12 31.96 13.1 31.9 13.08 31.84C13.06 31.77 13.05 31.71 13.03 31.64C13.02 31.58 13.01 31.52 13.01 31.45C13 31.38 13 31.32 13 31.25C13 31.19 13 31.12 13.01 31.06C13.02 30.99 13.03 30.93 13.04 30.86C13.06 30.8 13.07 30.74 13.09 30.67C13.11 30.61 13.13 30.55 13.16 30.49C13.19 30.43 13.21 30.37 13.25 30.31C13.28 30.26 13.31 30.2 13.35 30.15C13.38 30.09 13.42 30.04 13.47 29.99C13.51 29.94 13.55 29.89 13.6 29.85C13.65 29.8 13.69 29.76 13.75 29.71C13.8 29.67 13.85 29.64 13.9 29.6C13.96 29.56 14.02 29.53 14.07 29.5C14.13 29.47 14.19 29.44 14.25 29.42C14.31 29.39 14.37 29.37 14.44 29.35C14.5 29.34 14.56 29.32 14.63 29.31C14.69 29.3 14.76 29.29 14.82 29.28C14.89 29.27 14.95 29.27 15.02 29.27C15.08 29.27 15.15 29.28 15.21 29.28C15.28 29.29 15.34 29.3 15.41 29.31C15.47 29.33 15.54 29.34 15.6 29.36C15.66 29.38 15.72 29.41 15.78 29.43L15.96 29.52C16.02 29.55 16.07 29.58 16.13 29.62C16.56 29.92 17.06 30.2 17.63 30.47C18.24 30.77 18.88 31.03 19.56 31.25C20.3883 31.5207 21.202 31.7181 22.001 31.8423L22.001 25.937C19.2964 25.7581 17.1612 25.1976 15.59 24.25C14.57 23.63 13.8 22.86 13.27 21.94C12.76 21.05 12.5 20.07 12.5 19C12.5 17.86 12.88 16.81 13.63 15.83C14.26 15.01 15.14 14.3 16.24 13.7C17.27 13.15 18.44 12.73 19.76 12.44C20.4859 12.2829 21.2324 12.1669 22.001 12.0935L22.001 11C22.001 10.93 22.001 10.87 22.011 10.8C22.021 10.74 22.031 10.67 22.041 10.61C22.051 10.55 22.071 10.48 22.091 10.42C22.111 10.36 22.131 10.3 22.151 10.23C22.181 10.17 22.211 10.11 22.241 10.06C22.271 10 22.301 9.94 22.341 9.89C22.371 9.83 22.411 9.78 22.451 9.73C22.501 9.68 22.541 9.63 22.591 9.59C22.631 9.54 22.681 9.5 22.731 9.45C22.781 9.41 22.831 9.37 22.891 9.34C22.941 9.3 23.001 9.27 23.061 9.24C23.111 9.21 23.171 9.18 23.231 9.15C23.301 9.13 23.361 9.11 23.421 9.09C23.481 9.07 23.551 9.05 23.611 9.04C23.671 9.03 23.741 9.02 23.801 9.01C23.871 9 23.931 9 24.001 9C24.071 9 24.131 9 24.201 9.01C24.261 9.02 24.331 9.03 24.391 9.04C24.451 9.05 24.521 9.07 24.581 9.09C24.641 9.11 24.701 9.13 24.771 9.15C24.831 9.18 24.891 9.21 24.941 9.24C25.001 9.27 25.061 9.3 25.111 9.34C25.171 9.37 25.221 9.41 25.271 9.45C25.321 9.5 25.371 9.54 25.411 9.59C25.461 9.63 25.501 9.68 25.551 9.73C25.591 9.78 25.631 9.83 25.661 9.89C25.701 9.94 25.731 10 25.761 10.06C25.791 10.11 25.821 10.17 25.851 10.23C25.871 10.3 25.891 10.36 25.911 10.42C25.931 10.48 25.951 10.55 25.961 10.61C25.971 10.67 25.981 10.74 25.991 10.8C26.001 10.87 26.001 10.93 26.001 11L26.001 12.0995C26.9134 12.1929 27.7937 12.3524 28.64 12.58C30.49 13.07 32.31 13.89 34.09 15.05C34.2 15.12 34.3 15.2 34.4 15.29C34.49 15.39 34.57 15.49 34.65 15.59C34.72 15.7 34.79 15.82 34.84 15.94C34.89 16.06 34.93 16.18 34.96 16.31C34.98 16.44 35 16.57 35 16.7C35 16.83 34.99 16.96 34.97 17.09C34.94 17.22 34.91 17.35 34.86 17.47C34.81 17.59 34.75 17.71 34.68 17.82C34.64 17.87 34.6 17.92 34.56 17.98C34.52 18.03 34.48 18.08 34.43 18.12C34.39 18.17 34.34 18.21 34.29 18.26C34.24 18.3 34.19 18.34 34.13 18.38C34.08 18.41 34.02 18.45 33.97 18.48C33.91 18.51 33.85 18.54 33.79 18.56C33.73 18.59 33.67 18.61 33.61 18.63C33.54 18.65 33.48 18.67 33.42 18.68C33.35 18.7 33.29 18.71 33.22 18.71C33.16 18.72 33.09 18.73 33.03 18.73C32.96 18.73 32.9 18.73 32.83 18.72C32.76 18.71 32.7 18.71 32.64 18.69C32.57 18.68 32.51 18.67 32.44 18.65C32.38 18.63 32.32 18.61 32.26 18.58C32.2 18.56 32.14 18.53 32.08 18.5C32.0215 18.4708 31.9725 18.4415 31.9145 18.403ZM17.66 20.82C18.24 21.17 19.01 21.45 19.97 21.65C20.5844 21.7751 21.2608 21.8676 22.001 21.926L22.001 16.1174C21.5288 16.1746 21.0713 16.2524 20.63 16.35C19.66 16.56 18.83 16.85 18.13 17.23C17.53 17.55 17.08 17.9 16.8 18.28C16.6 18.53 16.5 18.77 16.5 19C16.5 19.36 16.58 19.68 16.73 19.95C16.92 20.27 17.23 20.56 17.66 20.82ZM9.15 9.15C7.21 11.09 5.71 13.31 4.65 15.83C3.55 18.43 3 21.15 3 24C3 26.85 3.55 29.57 4.65 32.17C5.71 34.69 7.21 36.91 9.15 38.85C11.09 40.79 13.31 42.29 15.83 43.35C18.43 44.45 21.15 45 24 45C26.85 45 29.57 44.45 32.17 43.35C34.69 42.29 36.91 40.79 38.85 38.85C40.79 36.91 42.29 34.69 43.35 32.17C44.45 29.57 45 26.85 45 24C45 21.15 44.45 18.43 43.35 15.83C42.29 13.31 40.79 11.09 38.85 9.15C36.91 7.21 34.69 5.71 32.17 4.65C29.57 3.55 26.85 3 24 3C21.15 3 18.43 3.55 15.83 4.65C13.31 5.71 11.09 7.21 9.15 9.15ZM8.34 17.39C7.45 19.49 7 21.69 7 24C7 26.31 7.45 28.51 8.34 30.61C9.2 32.65 10.41 34.45 11.98 36.02C13.55 37.59 15.35 38.8 17.39 39.66C19.49 40.55 21.69 41 24 41C26.31 41 28.51 40.55 30.61 39.66C32.65 38.8 34.45 37.59 36.02 36.02C37.59 34.45 38.8 32.65 39.66 30.61C40.55 28.51 41 26.31 41 24C41 21.69 40.55 19.49 39.66 17.39C38.8 15.35 37.59 13.55 36.02 11.98C34.45 10.41 32.65 9.2 30.61 8.34C28.51 7.45 26.31 7 24 7C21.69 7 19.49 7.45 17.39 8.34C15.35 9.2 13.55 10.41 11.98 11.98C10.41 13.55 9.2 15.35 8.34 17.39ZM26.001 31.8999C26.5585 31.8414 27.0885 31.7578 27.59 31.65C28.55 31.44 29.36 31.16 30.03 30.79C30.57 30.48 30.97 30.15 31.23 29.79C31.41 29.53 31.5 29.27 31.5 29C31.5 28.64 31.42 28.32 31.27 28.05C31.08 27.73 30.77 27.44 30.34 27.18C29.76 26.83 28.99 26.55 28.03 26.35C27.4162 26.2251 26.7404 26.1326 26.001 26.0742L26.001 31.8999Z" fill-rule="evenodd"  fill="#000000" >
</path>
</svg>
