<svg xmlns="http://www.w3.org/2000/svg" xmlns:xlink="http://www.w3.org/1999/xlink" width="48" height="48" viewBox="0 0 48 48" fill="none">
<path d="M11 8L37 8C40.3137 8 43 10.6863 43 14L43 34C43 37.3137 40.3137 40 37 40L11 40C7.68629 40 5 37.3137 5 34L5 14C5 10.6863 7.68629 8 11 8Z"   fill="#FEEDBD" >
</path>
<path d="M37 6L11 6C6.58172 6 3 9.58172 3 14L3 34C3 38.4183 6.58172 42 11 42L37 42C41.4183 42 45 38.4183 45 34L45 14C45 9.58172 41.4183 6 37 6ZM7 14C7 11.7909 8.79086 10 11 10L37 10C39.2091 10 41 11.7909 41 14L41 34C41 36.2091 39.2091 38 37 38L11 38C8.79086 38 7 36.2091 7 34L7 14Z" fill-rule="evenodd"  fill="#FBB63E" >
</path>
<path d="M29 30.5L43 30.5L43 17.5L29 17.5C25.6863 17.5 23 20.1863 23 23.5L23 24.5C23 27.8137 25.6863 30.5 29 30.5Z"   fill="#FCCB68" >
</path>
<path d="M21 23.5L21 24.5C21 28.9183 24.5817 32.5 29 32.5L45 32.5L45 15.5L29 15.5C24.5817 15.5 21 19.0817 21 23.5ZM29 28.5C26.7909 28.5 25 26.7091 25 24.5L25 23.5C25 21.2909 26.7909 19.5 29 19.5L41 19.5L41 28.5L29 28.5Z" fill-rule="evenodd"  fill="#FA9E14" >
</path>
<path d="M33 24C33 25.3807 31.8807 26.5 30.5 26.5C29.1193 26.5 28 25.3807 28 24C28 22.6193 29.1193 21.5 30.5 21.5C31.8807 21.5 33 22.6193 33 24Z"   fill="#FA9E14" >
</path>
</svg>
