<svg xmlns="http://www.w3.org/2000/svg" xmlns:xlink="http://www.w3.org/1999/xlink" width="48" height="48" viewBox="0 0 48 48" fill="none">
<path d="M7 13C7 13.4199 7.12938 13.8095 7.35045 14.1313C8.24299 15.4693 9.3054 16.648 10.5377 17.6673C11.7281 18.6519 13.0598 19.4736 14.5328 20.1324C16.003 20.7898 17.5774 21.2736 19.2561 21.5839C19.09 21.0862 19 20.5536 19 20C19 19.1222 19.2262 18.2971 19.6236 17.5801C18.3924 17.3276 17.2398 16.9611 16.1658 16.4808C13.8499 15.4452 12.0219 13.924 10.6818 11.9171C10.3257 11.3653 9.70553 11 9 11C7.89543 11 7 11.8954 7 13ZM28.3782 17.5833C28.7744 18.2996 29 19.1235 29 20C29 20.5549 28.9096 21.0886 28.7428 21.5873C30.4225 21.2784 31.9978 20.7959 33.4685 20.1398C34.94 19.4834 36.2706 18.6644 37.4604 17.6829C38.6921 16.6667 39.7546 15.4913 40.6479 14.1567C40.87 13.8345 41 13.4439 41 13.023C41 11.9184 40.1046 11.023 39 11.023C38.2956 11.023 37.6763 11.3871 37.32 11.9374C35.9793 13.9384 34.1523 15.4549 31.839 16.4867C30.7642 16.9662 29.6106 17.3317 28.3782 17.5833Z" fill-rule="evenodd"  fill="#787878" >
</path>
<path d="M24 27C27.866 27 31 23.866 31 20C31 16.134 27.866 13 24 13C20.134 13 17 16.134 17 20C17 23.866 20.134 27 24 27ZM24 17C25.6568 17 27 18.3432 27 20C27 21.6568 25.6568 23 24 23C22.3432 23 21 21.6568 21 20C21 18.3432 22.3432 17 24 17Z" fill-rule="evenodd"  fill="#424242" >
</path>
<path d="M33 3L15 3C10.5817 3 7 6.58172 7 11L7 37C7 41.4183 10.5817 45 15 45L33 45C37.4183 45 41 41.4183 41 37L41 11C41 6.58172 37.4183 3 33 3ZM11 11C11 8.79086 12.7909 7 15 7L33 7C35.2091 7 37 8.79086 37 11L37 37C37 39.2091 35.2091 41 33 41L15 41C12.7909 41 11 39.2091 11 37L11 11Z" fill-rule="evenodd"  fill="#787878" >
</path>
</svg>
