<svg xmlns="http://www.w3.org/2000/svg" xmlns:xlink="http://www.w3.org/1999/xlink" width="48" height="48" viewBox="0 0 48 48" fill="none">
<path d="M33.2585 11.5946C32.671 11.2848 32.0165 10.9977 31.2951 10.7332C29.787 10.1802 28.0703 9.75441 26.1452 9.45584C24.1857 9.15195 22.1373 9 20 9C17.8627 9 15.8143 9.15195 13.8548 9.45584C11.9296 9.75441 10.213 10.1802 8.70489 10.7332C7.09126 11.3248 5.81253 12.0298 4.86871 12.8479C4.30717 13.3347 3.87037 13.8577 3.55831 14.4169C3.1861 15.0838 3 15.7782 3 16.5C3 16.5987 3.00348 16.6968 3.01043 16.7945C3.00353 16.862 3 16.9306 3 17L3 24.8C3 24.8389 3.00057 24.8778 3.00171 24.9165C3.00057 24.9442 3 24.972 3 25L3 32.8C3 33.5186 3.19414 34.2068 3.58242 34.8646C3.90059 35.4037 4.34345 35.9058 4.91097 36.3709C5.85388 37.1437 7.12966 37.8089 8.73831 38.3666C10.2412 38.8876 11.9521 39.2888 13.8712 39.5702C15.8253 39.8567 17.8683 40 20 40C22.1317 40 24.1747 39.8567 26.1288 39.5702C28.0479 39.2888 29.7588 38.8876 31.2617 38.3666C32.8704 37.8089 34.1461 37.1437 35.089 36.3709C35.6565 35.9058 36.0994 35.4037 36.4176 34.8646C36.6413 34.4857 36.8005 34.0967 36.8953 33.6976C35.334 31.6195 33.8977 28.3784 33 24.589L33 24.7787C32.9948 24.792 32.9858 24.8096 32.9729 24.8313C32.8951 24.9632 32.7553 25.1118 32.5534 25.2772C32.2288 25.5433 31.811 25.7984 31.3002 26.0423C31.6567 27.3726 32.0816 28.646 32.5674 29.8586C32.7152 29.794 32.8594 29.7282 33 29.6612L33 30.8398C33.7377 32.3874 34.8069 34.2057 34.8069 34.2057L35.5665 35.2541L32.9037 35.8555C32.8847 35.8598 32.8497 35.8528 32.7973 35.8386C32.6576 35.8006 32.4889 35.7148 32.2986 35.5821C31.8666 35.2812 31.4182 34.8205 30.954 34.1998C30.6484 34.3324 30.3143 34.4615 29.9515 34.5873C28.6863 35.0259 27.2186 35.3676 25.5485 35.6125C23.7868 35.8708 21.9373 36 20 36C18.0627 36 16.2132 35.8708 14.4515 35.6125C12.7814 35.3676 11.3137 35.0259 10.0485 34.5873C8.88905 34.1854 8.02175 33.7487 7.44657 33.2772C7.24474 33.1118 7.10491 32.9632 7.02708 32.8313C7.01424 32.8096 7.00521 32.792 7 32.7787L7 29.6612C7.52829 29.9129 8.10772 30.148 8.73831 30.3666C10.2412 30.8876 11.9521 31.2888 13.8712 31.5702C15.8253 31.8567 17.8683 32 20 32C22.1317 32 24.1747 31.8567 26.1288 31.5702C27.1904 31.4145 28.1883 31.2222 29.1225 30.9932C29.0015 30.7231 28.8829 30.4444 28.7667 30.1571C28.3866 29.2173 28.0504 28.2328 27.759 27.2054C27.0665 27.3623 26.3296 27.498 25.5485 27.6125C23.7868 27.8708 21.9373 28 20 28C18.0627 28 16.2132 27.8708 14.4515 27.6125C12.7814 27.3676 11.3137 27.0259 10.0485 26.5873C8.88905 26.1854 8.02175 25.7487 7.44657 25.2772C7.24474 25.1118 7.10491 24.9632 7.02708 24.8313C7.01424 24.8096 7.00521 24.792 7 24.7787L7 21.538C7.51928 21.7975 8.08758 22.0405 8.70489 22.2668C10.213 22.8198 11.9296 23.2456 13.8548 23.5442C15.8143 23.8481 17.8627 24 20 24C22.1373 24 24.1857 23.8481 26.1452 23.5442C26.4088 23.5033 26.6684 23.4601 26.9242 23.4144C26.7773 22.4831 26.6773 21.5679 26.6232 20.6665C26.5973 20.2347 26.5828 19.816 26.5797 19.4104C26.2399 19.4755 25.8907 19.5358 25.5322 19.5914C23.7758 19.8638 21.9317 20 20 20C18.0683 20 16.2242 19.8638 14.4678 19.5914C12.8038 19.3333 11.3419 18.9733 10.0819 18.5113C8.92746 18.088 8.0631 17.6275 7.48883 17.1296C7.281 16.9495 7.13512 16.7842 7.05119 16.6338C7.01706 16.5726 7 16.528 7 16.5C7 16.472 7.01706 16.4274 7.05119 16.3662C7.13512 16.2158 7.281 16.0505 7.48883 15.8704C8.0631 15.3725 8.92746 14.912 10.0819 14.4887C11.3419 14.0267 12.8038 13.6666 14.4678 13.4086C16.2242 13.1362 18.0683 13 20 13C21.9317 13 23.7758 13.1362 25.5322 13.4086C26.3255 13.5316 27.0728 13.6778 27.7742 13.8472C27.7898 13.8318 27.8053 13.8175 27.8207 13.8043C27.8619 13.7689 27.8905 13.7475 27.9095 13.7432L30.5723 13.1418C30.478 13.5424 30.4006 13.96 30.3348 14.4051C30.3241 14.4775 30.3141 14.5547 30.3047 14.6361C31.0883 14.9472 31.7214 15.2776 32.2039 15.6274C32.3554 13.9611 32.7137 12.5714 33.2585 11.5946ZM32.4581 21.7948C32.2257 20.2524 32.1163 18.7798 32.1218 17.4309C31.6221 17.7788 30.9717 18.1073 30.1706 18.4164C30.1717 18.8879 30.1768 19.1975 30.1768 19.1975C30.2288 20.0636 30.4161 21.3833 30.5947 22.5096C30.833 22.4316 31.0664 22.3506 31.2951 22.2668C31.7043 22.1168 32.092 21.9595 32.4581 21.7948Z" fill-rule="evenodd"  fill="#787878" >
</path>
<path d="M45.7148 26.9925C45.608 25.2135 45.3434 23.3894 44.9212 21.5201C44.4989 19.6508 43.9537 17.89 43.2854 16.2379C42.6276 14.6114 41.8925 13.1929 41.0802 11.9826C40.2057 10.6794 39.2907 9.69503 38.3353 9.02944C37.7655 8.63254 37.1877 8.35454 36.6018 8.19546C35.9097 8.00753 35.2308 7.98874 34.5653 8.13908L27.0257 9.84219C26.3602 9.99253 25.7553 10.3013 25.2111 10.7685C24.7505 11.164 24.3483 11.6634 24.0045 12.2666C23.428 13.2783 23.025 14.5604 22.7955 16.1129C22.5824 17.5549 22.5284 19.1516 22.6335 20.903C22.7404 22.6819 23.005 24.506 23.4272 26.3754C23.8495 28.2447 24.3947 30.0054 25.0629 31.6575C25.7208 33.2841 26.4559 34.7025 27.2681 35.9129C28.1427 37.216 29.0576 38.2004 30.0131 38.8661C30.5828 39.263 31.1606 39.5409 31.7465 39.7C32.4387 39.8879 33.1175 39.9067 33.7831 39.7564L41.3226 38.0533C41.9882 37.9029 42.593 37.5942 43.1372 37.127C43.5978 36.7315 44 36.2321 44.3438 35.6289C44.9204 34.6172 45.3234 33.3351 45.5529 31.7826C45.766 30.3406 45.82 28.7439 45.7148 26.9925ZM40.4413 34.1516C40.4602 34.1473 40.4903 34.1275 40.5315 34.0921C40.6414 33.9978 40.7537 33.8498 40.8686 33.6482C41.1972 33.0717 41.4396 32.2548 41.5959 31.1977C41.7685 30.0293 41.8106 28.7075 41.722 27.2322C41.6281 25.6696 41.394 24.0594 41.0195 22.4015C40.645 20.7435 40.1642 19.1889 39.5773 17.7377C39.0231 16.3676 38.417 15.1922 37.7589 14.2116C37.1633 13.3242 36.5933 12.6909 36.0488 12.3115C35.8584 12.1789 35.6934 12.0936 35.5537 12.0557C35.5013 12.0415 35.4656 12.0365 35.4466 12.0408C35.4277 12.0451 35.3976 12.0649 35.3564 12.1003C35.2465 12.1946 35.1342 12.3425 35.0193 12.5441C34.6907 13.1206 34.4483 13.9375 34.292 14.9947C34.1193 16.163 34.0773 17.4848 34.1659 18.9601C34.2597 20.5227 34.4939 22.133 34.8684 23.791C35.2429 25.4488 35.7237 27.0034 36.3106 28.4546C36.8648 29.8247 37.4709 31.0001 38.129 31.9808C38.7245 32.8681 39.2945 33.5015 39.8391 33.8808C40.0294 34.0134 40.1945 34.0987 40.3342 34.1367C40.3866 34.1509 40.4223 34.1559 40.4413 34.1516ZM30.5752 13.1412C30.4809 13.5418 30.4008 13.9647 30.335 14.4098C30.1219 15.8518 30.0679 17.4485 30.1731 19.1999C30.2799 20.9788 30.5445 22.8029 30.9668 24.6723C31.389 26.5416 31.9342 28.3023 32.6024 29.9544C33.2603 31.581 33.9954 32.9994 34.8076 34.2098C35.0584 34.5834 35.3124 34.9308 35.5698 35.252L32.9017 35.8547C32.8827 35.859 32.847 35.854 32.7946 35.8398C32.6549 35.8019 32.4898 35.7166 32.2995 35.5839C31.755 35.2046 31.185 34.5712 30.5895 33.6839C29.9314 32.7032 29.3252 31.5278 28.771 30.1577C28.1841 28.7065 27.7034 27.152 27.3289 25.4941C26.9544 23.8361 26.7202 22.2258 26.6263 20.6632C26.5378 19.1879 26.5798 17.8661 26.7525 16.6978C26.9087 15.6406 27.1511 14.8238 27.4797 14.2472C27.5946 14.0456 27.7069 13.8977 27.8168 13.8034C27.858 13.768 27.8881 13.7482 27.9071 13.7439L30.5752 13.1412Z" fill-rule="evenodd"  fill="#424242" >
</path>
</svg>
