<svg xmlns="http://www.w3.org/2000/svg" xmlns:xlink="http://www.w3.org/1999/xlink" width="48" height="48" viewBox="0 0 48 48" fill="none">
<path d="M11 3L31 3C35.4183 3 39 6.58172 39 11L39 11.78C37.2744 10.6549 35.2136 10 33 10C26.9249 10 22 14.9249 22 21C22 23.3067 22.7066 25.4516 23.92 27.22C19.3937 28.1759 16 32.1892 16 37L16 45L11 45C6.58172 45 3 41.4183 3 37L3 11C3 6.58172 6.58172 3 11 3Z" fill-rule="evenodd"  fill="#94C3FF" >
</path>
<path d="M3 37L3 11C3 6.58172 6.58172 3 11 3L31 3C35.4183 3 39 6.58172 39 11L39 11.78C37.783 10.9865 36.3993 10.4269 34.9129 10.166C34.5293 8.35716 32.9231 7 31 7L11 7C8.79086 7 7 8.79086 7 11L7 37C7 39.2091 8.79086 41 11 41L16 41L16 45L11 45C6.58172 45 3 41.4183 3 37Z" fill-rule="evenodd"  fill="#6BA6FF" >
</path>
<path d="M11 13C11 14.1046 11.8954 15 13 15L20.9999 15C22.1044 15 22.9999 14.1046 22.9999 13C22.9999 11.8954 22.1044 11 20.9999 11L13 11C11.8954 11 11 11.8954 11 13Z" fill-rule="evenodd"  fill="#1764FF" >
</path>
<path d="M11 21C11 22.1046 11.8954 23 13 23L17 23C18.1046 23 19 22.1046 19 21C19 19.8954 18.1046 19 17 19L13 19C11.8954 19 11 19.8954 11 21Z" fill-rule="evenodd"  fill="#4187FF" >
</path>
<path d="M43 43.0001C43.5523 43.0001 44 42.5524 44 42.0001L44 37C44 34.7909 42.2091 33 40 33L26 33C23.7909 33 22 34.7909 22 37L22 43.0001L43 43.0001Z"   fill="#4187FF" >
</path>
<path d="M20 37.0001L20 45.0001L43 45.0001C44.6569 45.0001 46 43.657 46 42.0001L46 37.0001C46 33.6863 43.3137 31 40 31L26 31C22.6863 31 20 33.6863 20 37.0001ZM24 41.0001L42 41.0001L42 37.0001C42 35.8955 41.1046 35 40 35L26 35C24.8954 35 24 35.8955 24 37.0001L24 41.0001Z" fill-rule="evenodd"  fill="#1764FF" >
</path>
<path d="M38 21C38 23.7614 35.7614 25.9999 33 25.9999C30.2386 25.9999 28 23.7614 28 21C28 18.2386 30.2386 16 33 16C35.7614 16 38 18.2386 38 21Z"   fill="#1764FF" >
</path>
<path d="M33 27.9999C36.866 27.9999 40 24.8659 40 20.9999C40 17.134 36.866 14 33 14C29.134 14 26 17.134 26 20.9999C26 24.8659 29.134 27.9999 33 27.9999ZM33 18C34.6568 18 36 19.3431 36 20.9999C36 22.6568 34.6568 23.9999 33 23.9999C31.3431 23.9999 30 22.6568 30 20.9999C30 19.3431 31.3431 18 33 18Z" fill-rule="evenodd"  fill="#1764FF" >
</path>
</svg>
