<svg xmlns="http://www.w3.org/2000/svg" xmlns:xlink="http://www.w3.org/1999/xlink" width="48" height="48" viewBox="0 0 48 48" fill="none">
<path d="M11 2.5C6.58172 2.5 3 6.08172 3 10.5L3 36.5C3 40.9183 6.58172 44.5 11 44.5L37 44.5C41.4183 44.5 45 40.9183 45 36.5L45 19.5C45 15.0817 41.4183 11.5 37 11.5L29.8981 11.5L24.2849 5.18509C23.5258 4.33114 22.6252 3.67013 21.5829 3.20208C20.5406 2.73403 19.4481 2.5 18.3056 2.5L11 2.5ZM7 34.5743C7.1424 34.3964 7.31467 34.2272 7.51682 34.0669C7.88946 33.7713 8.33108 33.5356 8.84169 33.3599C9.53898 33.12 10.3418 33 11.25 33C12.003 33 12.7943 33.2293 13.6239 33.6879C14.0029 33.8974 14.4262 34.1727 14.8938 34.514C15.1933 34.7326 15.6478 35.0835 16.2571 35.5669C16.9084 36.0835 17.4054 36.4669 17.7482 36.7171C18.3511 37.1571 18.9154 37.5224 19.441 37.8129C20.8727 38.6043 22.3091 39 23.75 39C25.1042 39 26.3408 38.8075 27.4598 38.4224C28.4023 38.0981 29.2387 37.6463 29.9691 37.0669C30.511 36.637 30.9702 36.1577 31.3467 35.6289C31.5417 35.3551 31.6935 35.1016 31.8022 34.8682C31.929 34.6056 32 34.3111 32 34C32 32.8954 31.1046 32 30 32C29.1961 32 28.503 32.4743 28.1852 33.1584C28.1607 33.2024 28.1285 33.2524 28.0885 33.3086C27.931 33.5298 27.7292 33.738 27.4832 33.9331C27.1105 34.2287 26.6689 34.4644 26.1583 34.6401C25.461 34.88 24.6583 35 23.75 35C22.997 35 22.2057 34.7707 21.3761 34.3121C20.9971 34.1026 20.5738 33.8273 20.1062 33.486C19.8067 33.2674 19.3522 32.9165 18.7429 32.4331C18.0916 31.9165 17.5946 31.5331 17.2518 31.2829C16.6489 30.8429 16.0846 30.4776 15.559 30.1871C14.1273 29.3957 12.6909 29 11.25 29C9.89577 29 8.65915 29.1925 7.54016 29.5776C7.35606 29.6409 7.17601 29.7092 7 29.7822L7 15.5L37 15.5C39.2091 15.5 41 17.2909 41 19.5L41 36.5C41 38.7091 39.2091 40.5 37 40.5L11 40.5C8.79086 40.5 7 38.7091 7 36.5L7 34.5743ZM24.5463 11.5L7 11.5L7 10.5C7 8.29086 8.79086 6.5 11 6.5L18.3056 6.5C18.8769 6.5 19.4231 6.61701 19.9442 6.85104C20.4653 7.08507 20.9157 7.41557 21.2952 7.84254L24.5463 11.5Z" fill-rule="evenodd"  fill="#787878" >
</path>
<path d="M17.5 28C20.5376 28 23 25.5376 23 22.5C23 19.4624 20.5376 17 17.5 17C14.4624 17 12 19.4624 12 22.5C12 25.5376 14.4624 28 17.5 28ZM17.5 21C18.3284 21 19 21.6716 19 22.5C19 23.3284 18.3284 24 17.5 24C16.6716 24 16 23.3284 16 22.5C16 21.6716 16.6716 21 17.5 21Z" fill-rule="evenodd"  fill="#424242" >
</path>
</svg>
