<svg xmlns="http://www.w3.org/2000/svg" xmlns:xlink="http://www.w3.org/1999/xlink" width="48" height="48" viewBox="0 0 48 48" fill="none">
<path d="M36 44L12 44C8.05484 44 4.77889 41.1479 4.12056 37.392C4.45915 36.6044 5.06877 35.7037 5.9507 34.69C8.0807 32.23 10.7707 31 14.0007 31C15.3407 31 16.9907 31.84 18.9507 33.52C21.6607 35.84 24.1807 37 26.5007 37C30.8807 37 33.9407 35.7 35.6707 33.11L35.6607 33.11C35.8807 32.79 36.0007 32.41 36.0007 32C36.0007 30.9 35.1007 30 34.0007 30C33.2807 30 32.6507 30.38 32.2907 30.96C31.3407 32.32 29.4107 33 26.5007 33C25.1607 33 23.5107 32.16 21.5507 30.48C18.8507 28.16 16.3307 27 14.0007 27C10.076 27 6.74239 28.3146 4 30.9369L4 12C4 7.58 7.58 4 12 4L36 4C40.42 4 44 7.58 44 12L44 36C44 40.42 40.42 44 36 44ZM13 19C13 15.69 15.69 13 19 13C22.31 13 25 15.69 25 19C25 22.31 22.31 25 19 25C15.69 25 13 22.31 13 19ZM21 19C21 20.1 20.1 21 19 21C17.9 21 17 20.1 17 19C17 17.9 17.9 17 19 17C20.1 17 21 17.9 21 19Z" fill-rule="evenodd"  fill="#000000" >
</path>
</svg>
