<svg xmlns="http://www.w3.org/2000/svg" xmlns:xlink="http://www.w3.org/1999/xlink" width="48" height="48" viewBox="0 0 48 48" fill="none">
<path d="M3 32.0469L3 10.5C3 6.08 6.58 2.5 11 2.5L18.31 2.5C20.59 2.5 22.77 3.48 24.29 5.18L29.8996 11.5L37 11.5C41.42 11.5 45 15.08 45 19.5L45 36.5C45 40.92 41.42 44.5 37 44.5L11 44.5C6.99295 44.5 3.67627 41.5577 3.09151 37.7146C3.12252 37.6743 3.15204 37.6327 3.18 37.59C4.78 35.2 6.97 34 9.75 34C10.94 34 12.66 34.86 14.91 36.59C17.87 38.86 20.4 40 22.5 40C26.64 40 29.33 38.62 30.56 35.85C30.68 35.59 30.75 35.3 30.75 35C30.75 33.9 29.85 33 28.75 33C27.92 33 27.21 33.51 26.9 34.23C26.37 35.41 24.9 36 22.5 36C21.31 36 19.59 35.14 17.34 33.41C14.38 31.14 11.85 30 9.75 30C7.15694 30 4.90694 30.6823 3 32.0469ZM14.5 17C11.46 17 9 19.46 9 22.5C9 25.54 11.46 28 14.5 28C17.54 28 20 25.54 20 22.5C20 19.46 17.54 17 14.5 17ZM14.5 24C15.33 24 16 23.33 16 22.5C16 21.67 15.33 21 14.5 21C13.67 21 13 21.67 13 22.5C13 23.33 13.67 24 14.5 24Z" fill-rule="evenodd"  fill="#000000" >
</path>
</svg>
