<svg xmlns="http://www.w3.org/2000/svg" xmlns:xlink="http://www.w3.org/1999/xlink" width="48" height="48" viewBox="0 0 48 48" fill="none">
<path d="M16.4135 34.415L7.41421 43.4142C7.05228 43.7761 6.55229 44 6 44C4.89543 44 4 43.1046 4 42C4 41.4477 4.22386 40.9477 4.58579 40.5858L13.5858 31.5858C13.9477 31.2239 14.4477 31 15 31C16.1046 31 17 31.8954 17 33C17 33.5523 16.7761 34.0523 16.4142 34.4142L16.4135 34.415Z" fill-rule="evenodd"  fill="#424242" >
</path>
<path d="M32.8882 11.5021L24.1507 19.263C23.5586 19.7889 22.871 20.1106 22.0878 20.2281L8.21817 22.3086L25.6915 39.7819L27.772 25.9123C27.8894 25.1291 28.2111 24.4415 28.7371 23.8494L36.498 15.1119L36.5048 15.1042C36.8711 14.6921 37.4053 14.4324 38.0001 14.4324C39.1047 14.4324 40.0001 15.3279 40.0001 16.4324C40.0001 16.9422 39.8094 17.4074 39.4954 17.7606L39.4896 17.7672L31.7277 26.5057L29.6473 40.3753C29.1602 43.6223 25.1848 44.932 22.8631 42.6103L5.38974 25.137C3.06809 22.8153 4.37782 18.8399 7.62481 18.3528L21.4944 16.2724L30.2329 8.51054L30.2395 8.50469C30.5927 8.19071 31.0579 8 31.5677 8C32.6722 8 33.5677 8.89543 33.5677 10C33.5677 10.5948 33.308 11.129 32.8959 11.4953L32.8882 11.5021Z" fill-rule="evenodd"  fill="#787878" >
</path>
<path d="M30.4146 4.58615L43.4132 17.5848L43.4142 17.5858C43.7761 17.9477 44 18.4477 44 19C44 20.1046 43.1046 21 42 21C41.4477 21 40.9477 20.7761 40.5858 20.4142L40.5848 20.4132L27.5858 7.41421C27.2239 7.05228 27 6.55229 27 6C27 4.89543 27.8954 4 29 4C29.5523 4 30.0523 4.22386 30.4142 4.58579L30.4146 4.58615Z" fill-rule="evenodd"  fill="#424242" >
</path>
</svg>
