<svg xmlns="http://www.w3.org/2000/svg" xmlns:xlink="http://www.w3.org/1999/xlink" width="48" height="48" viewBox="0 0 48 48" fill="none">
<path d="M41.0918 19.0515L43.7987 15.8257C46.0164 13.183 45.6714 9.23836 43.0287 7.0207C40.386 4.80304 36.4414 5.148 34.2237 7.7907L33.4342 8.7315C30.6834 6.99993 27.4208 5.9999 23.9212 5.9999C14.1312 5.9999 6.13119 13.9299 6.13119 23.7199C6.13119 25.4665 6.3825 27.1519 6.85095 28.7426L4.05229 32.0777C2.00819 34.5136 2.32481 38.1342 4.76069 40.1783C7.19657 42.2224 10.8172 41.9058 12.8613 39.4699L13.8231 38.3237C16.6912 40.291 20.1701 41.4399 23.9212 41.4399C33.7112 41.4399 41.7112 33.5099 41.7112 23.7199C41.7112 22.1024 41.4957 20.5374 41.0918 19.0515ZM16.4106 35.2403C18.5711 36.6333 21.1503 37.4399 23.9212 37.4399C31.5012 37.4399 37.7112 31.2999 37.7112 23.7199C37.7112 20.0653 36.292 16.7604 33.9743 14.3104L16.4106 35.2403ZM30.8311 11.8336L13.3987 32.6071C11.3602 30.2189 10.1312 27.1208 10.1312 23.7199C10.1312 16.1399 16.3412 9.9999 23.9212 9.9999C26.4397 9.9999 28.7998 10.6662 30.8311 11.8336ZM36.5591 11.2302L37.2877 10.3619C38.0848 9.41206 39.5077 9.28763 40.4575 10.0847C41.4073 10.8818 41.5318 12.3047 40.7347 13.2545L39.3614 14.891C38.5886 13.5495 37.6446 12.3196 36.5591 11.2302ZM10.7994 35.7045L9.79729 36.8987C9.17377 37.6417 8.07491 37.7378 7.33189 37.1143C6.58887 36.4908 6.49277 35.3919 7.11629 34.6489L8.64485 32.8274C9.26517 33.8599 9.98802 34.8235 10.7994 35.7045Z" fill-rule="evenodd"  fill="#000000" >
</path>
</svg>
