<svg xmlns="http://www.w3.org/2000/svg" xmlns:xlink="http://www.w3.org/1999/xlink" width="48" height="48" viewBox="0 0 48 48" fill="none">
<path d="M6.00001 11.8799L6.00001 36.1199C6.00001 37.5481 6.35644 38.8811 7.06931 40.1191C7.78498 41.3621 8.76278 42.3403 10.0027 43.0535C11.2348 43.7661 12.566 44.1224 13.9963 44.1224C15.4249 44.1224 16.7586 43.7661 17.9973 43.0535L38.9997 30.9321C40.2385 30.2195 41.2163 29.2447 41.933 28.0075C42.651 26.7683 43.01 25.4325 43.01 23.9999C43.01 22.5674 42.651 21.2315 41.933 19.9923C41.2163 18.7552 40.2377 17.7799 38.9973 17.0663L17.9997 4.94773C16.7594 4.2342 15.4249 3.87744 13.9963 3.87744C12.566 3.87744 11.2334 4.23451 9.99871 4.94866C8.76144 5.66039 7.78498 6.63774 7.06931 7.88071C6.35644 9.11873 6.00001 10.4518 6.00001 11.8799ZM38.472 26.0023C38.1135 26.6211 37.6229 27.1095 37.0003 27.4677L16.0027 39.5863C15.3814 39.9437 14.7126 40.1224 13.9963 40.1224C13.2816 40.1224 12.6152 39.9437 11.9973 39.5863C11.3801 39.2313 10.8929 38.7436 10.5357 38.1232C10.1786 37.503 10 36.8352 10 36.1199L10 11.8799C10 11.1647 10.1786 10.4969 10.5357 9.87664C10.8929 9.25631 11.3814 8.76784 12.0013 8.41124C12.6166 8.05537 13.2816 7.87744 13.9963 7.87744C14.7126 7.87744 15.3806 8.05567 16.0003 8.41214L37.0027 20.5335C37.6237 20.8908 38.1135 21.3788 38.472 21.9975C38.8307 22.6166 39.01 23.2841 39.01 23.9999C39.01 24.7157 38.8307 25.3832 38.472 26.0023Z" fill-rule="evenodd"  fill="#000000" >
</path>
</svg>
