<svg xmlns="http://www.w3.org/2000/svg" xmlns:xlink="http://www.w3.org/1999/xlink" width="48" height="48" viewBox="0 0 48 48" fill="none">
<path d="M27.1523 11.4257C27.1522 12.5302 28.0476 13.4257 29.1521 13.4258L42.496 13.4269C43.6005 13.427 44.4961 12.5317 44.4962 11.4271C44.4963 10.3225 43.6009 9.42701 42.4964 9.42692L29.1525 9.42582C28.0479 9.42573 27.1524 10.3211 27.1523 11.4257Z" fill-rule="evenodd"  fill="#787878" >
</path>
<path d="M27.1524 24.4622C27.1523 25.5667 28.0477 26.4622 29.1522 26.4623L42.4961 26.4636C43.6006 26.4637 44.4962 25.5683 44.4963 24.4637C44.4964 23.3592 43.601 22.4637 42.4965 22.4636L29.1526 22.4623C28.048 22.4622 27.1525 23.3576 27.1524 24.4622Z" fill-rule="evenodd"  fill="#787878" >
</path>
<path d="M3.4306 37.4987C3.43056 38.6032 4.32596 39.4987 5.43053 39.4987L42.5 39.4999C43.6045 39.5 44.5001 38.6046 44.5001 37.5C44.5001 36.3954 43.6047 35.5 42.5002 35.4999L5.43066 35.4987C4.32609 35.4987 3.43063 36.3941 3.4306 37.4987Z" fill-rule="evenodd"  fill="#787878" >
</path>
<path d="M9.20644 27.5383L19.7088 21.4699C22.3739 19.93 22.3739 16.083 19.7088 14.5431L9.20644 8.47469C6.53974 6.93386 3.20524 8.85828 3.20524 11.9381L3.20524 24.0749C3.20524 27.1547 6.53974 29.0792 9.20644 27.5383ZM7.20524 11.9381L17.7076 18.0065L7.20524 24.0749L7.20524 11.9381Z" fill-rule="evenodd"  fill="#424242" >
</path>
</svg>
