<svg xmlns="http://www.w3.org/2000/svg" xmlns:xlink="http://www.w3.org/1999/xlink" width="48" height="48" viewBox="0 0 48 48" fill="none">
<path d="M40 28.5C40 30.7443 39.624 32.8613 38.872 34.8512C38.1115 36.8635 37.0129 38.6239 35.5764 40.1323C34.0973 41.6854 32.3477 42.8779 30.3276 43.7098C28.2391 44.5699 25.9632 45 23.5 45C21.0368 45 18.7609 44.5699 16.6724 43.7098C14.6523 42.8778 12.9027 41.6853 11.4236 40.1323C9.98709 38.6239 8.88855 36.8635 8.128 34.8512C7.376 32.8613 7 30.7443 7 28.5C7 25.934 7.57998 23.2629 8.73994 20.4866C9.68824 18.217 11.0125 15.9039 12.7128 13.5474C14.0408 11.7068 15.5664 9.88177 17.2897 8.07214C18.487 6.81482 19.7111 5.63432 20.9622 4.53065C21.3157 4.21875 21.7111 3.97974 22.1483 3.8136C22.578 3.65031 23.0222 3.56718 23.4807 3.56423C23.9424 3.56126 24.3895 3.63973 24.822 3.79965C25.2659 3.96378 25.6668 4.20356 26.0246 4.519C27.2741 5.6205 28.4973 6.7993 29.6944 8.05539C31.4192 9.86528 32.9465 11.6909 34.2762 13.5321C35.9794 15.8907 37.3061 18.2058 38.2562 20.4774C39.4187 23.257 40 25.9312 40 28.5ZM36 28.5C36 26.4664 35.522 24.3067 34.566 22.0208C33.7344 20.0324 32.5569 17.9835 31.0334 15.8739C29.8099 14.1798 28.3984 12.4935 26.7987 10.815C25.7203 9.68337 24.6207 8.62043 23.5 7.62614C22.3735 8.62558 21.269 9.69373 20.1864 10.8306C18.5883 12.5088 17.1784 14.1945 15.9566 15.8878C14.436 17.9954 13.2607 20.0423 12.4307 22.0287C11.4769 24.3117 11 26.4688 11 28.5C11 30.2572 11.2899 31.9029 11.8697 33.437C12.4393 34.9442 13.2562 36.2565 14.3202 37.3737C15.4081 38.516 16.6999 39.3952 18.1957 40.0112C19.7963 40.6704 21.5644 41 23.5 41C25.4356 41 27.2037 40.6704 28.8043 40.0112C30.3 39.3952 31.5919 38.516 32.6798 37.3737C33.7439 36.2565 34.5607 34.9442 35.1303 33.437C35.7101 31.9029 36 30.2572 36 28.5ZM29.5 28C30.6046 28 31.5 28.8954 31.5 30C31.5 34.1421 28.1421 37.5 24 37.5C22.8954 37.5 22 36.6046 22 35.5C22 34.3954 22.8954 33.5 24 33.5C25.933 33.5 27.5 31.933 27.5 30C27.5 28.8954 28.3954 28 29.5 28Z" fill-rule="evenodd"  fill="#000000" >
</path>
</svg>
