<svg xmlns="http://www.w3.org/2000/svg" xmlns:xlink="http://www.w3.org/1999/xlink" width="48" height="48" viewBox="0 0 48 48" fill="none">
<path d="M38.872 34.8512C39.624 32.8613 40 30.7443 40 28.5C40 25.9312 39.4187 23.257 38.2562 20.4774C37.3061 18.2057 35.9794 15.8906 34.2762 13.5321C32.9465 11.6909 31.4192 9.86528 29.6944 8.05539C28.4973 6.7993 27.2741 5.6205 26.0246 4.519C25.6668 4.20356 25.2659 3.96378 24.822 3.79965C24.3895 3.63973 23.9424 3.56126 23.4807 3.56423C23.0222 3.56718 22.578 3.65031 22.1483 3.8136C21.7111 3.97974 21.3157 4.21875 20.9622 4.53065C19.7111 5.63432 18.487 6.81482 17.2897 8.07214C15.5664 9.88177 14.0408 11.7068 12.7128 13.5474C11.0125 15.9039 9.68824 18.217 8.73994 20.4866C7.57998 23.2629 7 25.934 7 28.5C7 30.7443 7.376 32.8613 8.128 34.8512C8.88855 36.8635 9.98709 38.6239 11.4236 40.1323C12.9027 41.6853 14.6523 42.8778 16.6724 43.7098C18.7609 44.5699 21.0368 45 23.5 45C25.9632 45 28.2391 44.5699 30.3276 43.7098C32.3477 42.8779 34.0973 41.6854 35.5764 40.1323C37.0129 38.6239 38.1115 36.8635 38.872 34.8512ZM29.5 28C30.6046 28 31.5 28.8954 31.5 30C31.5 34.1421 28.1421 37.5 24 37.5C22.8954 37.5 22 36.6046 22 35.5C22 34.3954 22.8954 33.5 24 33.5C25.933 33.5 27.5 31.933 27.5 30C27.5 28.8954 28.3954 28 29.5 28Z" fill-rule="evenodd"  fill="#000000" >
</path>
</svg>
