<svg xmlns="http://www.w3.org/2000/svg" xmlns:xlink="http://www.w3.org/1999/xlink" width="48" height="48" viewBox="0 0 48 48" fill="none">
<path d="M25.5 3L15 3C10.5817 3 7 6.58172 7 11L7 37C7 41.4183 10.5817 45 15 45L33 45C37.4183 45 41 41.4183 41 37L41 17L40.9703 17C40.9147 16.442 40.7811 15.899 40.5696 15.3711C40.2827 14.655 39.8728 14.0178 39.3401 13.4598L31.1285 4.85714C31.04 4.76445 30.9493 4.67505 30.8562 4.58896C30.3911 4.15871 29.8687 3.81101 29.289 3.54585C29.2427 3.52463 29.1959 3.50395 29.1488 3.48379C28.9603 3.40316 28.7698 3.3326 28.5773 3.27213C28.2251 3.16153 27.866 3.08464 27.5 3.04147L27.5 3L25.5 3ZM36.9072 17C36.9065 16.998 36.9059 16.996 36.9053 16.9941C36.8907 16.9486 36.8744 16.9035 36.8565 16.8588C36.7609 16.6201 36.6243 16.4077 36.4467 16.2217L28.2351 7.61905C28.2115 7.59434 28.1874 7.57033 28.1629 7.54703C27.9909 7.38393 27.795 7.25533 27.5752 7.16126C27.5503 7.15058 27.5252 7.14043 27.5 7.13082L27.5 13C27.5 15.2091 29.2909 17 31.5 17L36.9072 17ZM23.5 13L23.5 7L15 7C12.7909 7 11 8.79086 11 11L11 37C11 39.2091 12.7909 41 15 41L33 41C35.2091 41 37 39.2091 37 37L37 21L31.5 21C27.0817 21 23.5 17.4183 23.5 13Z" fill-rule="evenodd"  fill="#787878" >
</path>
<path d="M22 39C26.9706 39 31 34.9706 31 30C31 29.8862 30.9979 29.7728 30.9937 29.66C30.9979 29.6072 31 29.5539 31 29.5C31 29.349 30.9833 29.2019 30.9516 29.0605C30.5138 24.8403 27.1598 21.4862 22.9395 21.0484C22.7981 21.0167 22.651 21 22.5 21C22.4461 21 22.3928 21.0021 22.34 21.0063C22.2272 21.0021 22.1138 21 22 21C17.0294 21 13 25.0294 13 30C13 34.9706 17.0294 39 22 39ZM17 30C17 27.7612 18.4715 25.866 20.5 25.2289L20.5 29C20.5 30.3807 21.6193 31.5 23 31.5L26.7711 31.5C26.134 33.5286 24.2388 35 22 35C19.2386 35 17 32.7614 17 30Z" fill-rule="evenodd"  fill="#424242" >
</path>
</svg>
