<svg xmlns="http://www.w3.org/2000/svg" xmlns:xlink="http://www.w3.org/1999/xlink" width="48" height="48" viewBox="0 0 48 48" fill="none">
<path d="M7.505 4.74994C7.44499 4.74994 7.375 4.74994 7.315 4.75994C7.245 4.76994 7.185 4.77994 7.115 4.78994C7.055 4.79994 6.98499 4.81994 6.92499 4.83994L6.745 4.89994L6.565 4.98994C6.505 5.01994 6.44499 5.04994 6.395 5.08994C6.345 5.11994 6.285 5.15994 6.23499 5.19994C6.185 5.24994 6.13499 5.28994 6.095 5.33994C6.045 5.37994 6.005 5.42994 5.96499 5.47994C5.915 5.52994 5.875 5.57994 5.845 5.63994C5.805 5.68994 5.775 5.74994 5.745 5.80994C5.71499 5.85994 5.685 5.91994 5.65499 5.97994C5.63499 6.04994 5.615 6.10994 5.595 6.16994C5.575 6.22994 5.555 6.29994 5.545 6.35994C5.535 6.41994 5.525 6.48994 5.515 6.54994C5.505 6.61994 5.505 6.67994 5.505 6.74994L5.505 23.5897C5.49833 23.7263 5.495 23.8638 5.495 24.0024C5.495 24.14 5.49833 24.2768 5.505 24.4127L5.505 41.2499C5.505 41.3199 5.505 41.3799 5.515 41.4499C5.525 41.5099 5.535 41.5799 5.545 41.6399C5.555 41.6999 5.575 41.7699 5.595 41.8299C5.615 41.8899 5.63499 41.9499 5.65499 42.0199C5.685 42.0799 5.71499 42.1299 5.745 42.1899C5.775 42.2499 5.805 42.3099 5.845 42.3599C5.875 42.4199 5.915 42.4699 5.955 42.5199C6.005 42.5699 6.045 42.6199 6.095 42.6599C6.13499 42.7099 6.185 42.7499 6.23499 42.7999C6.285 42.8399 6.335 42.8799 6.395 42.9099C6.44499 42.9499 6.505 42.9799 6.565 43.0099C6.615 43.0399 6.67499 43.0699 6.73499 43.0999C6.805 43.1199 6.865 43.1399 6.92499 43.1599C6.98499 43.1799 7.055 43.1999 7.115 43.2099C7.17499 43.2199 7.245 43.2299 7.305 43.2399C7.375 43.2499 7.435 43.2499 7.505 43.2499C7.635 43.2499 7.765 43.2399 7.895 43.2099C8.02499 43.1899 8.14499 43.1499 8.27499 43.0999C8.39499 43.0499 8.505 42.9899 8.615 42.9099C8.72499 42.8399 8.825 42.7599 8.915 42.6599C9.015 42.5699 9.095 42.4699 9.165 42.3599C9.245 42.2499 9.30499 42.1399 9.35499 42.0199C9.40499 41.8899 9.44499 41.7699 9.465 41.6399C9.495 41.5099 9.505 41.3799 9.505 41.2499L9.505 30.9324L30.505 43.0524C31.745 43.7624 33.085 44.1224 34.505 44.1224C35.935 44.1224 37.275 43.7624 38.505 43.0524C39.745 42.3424 40.725 41.3624 41.435 40.1224C42.145 38.8824 42.505 37.5524 42.505 36.1224L42.505 11.8824C42.505 10.4524 42.145 9.12244 41.435 7.88244C40.725 6.64244 39.745 5.66244 38.505 4.94244C37.275 4.23244 35.935 3.87244 34.505 3.87244C33.085 3.87244 31.745 4.23244 30.505 4.94244L9.505 17.0724L9.505 6.74994C9.505 6.61994 9.495 6.48994 9.465 6.35994C9.44499 6.22994 9.40499 6.10994 9.35499 5.97994C9.30499 5.85994 9.245 5.74994 9.165 5.63994C9.095 5.52994 9.015 5.42994 8.925 5.33994C8.825 5.23994 8.72499 5.15994 8.615 5.08994C8.505 5.00994 8.39499 4.94994 8.27499 4.89994C8.15499 4.84994 8.02499 4.80994 7.895 4.78994C7.765 4.75994 7.635 4.74994 7.505 4.74994Z"   fill="#000000" >
</path>
</svg>
