<svg xmlns="http://www.w3.org/2000/svg" xmlns:xlink="http://www.w3.org/1999/xlink" width="48" height="48" viewBox="0 0 48 48" fill="none">
<path d="M18 36.1243L6.00017 29.1961C2.00021 26.8867 2.00021 21.1133 6.00017 18.8039L18 11.8757C22 9.56626 27 12.453 27 17.0718L27 18.8041L24.0002 20.536C23.6096 20.7616 23.2762 21.0366 23 21.3468L23 17.0718C23 15.5322 21.3334 14.57 20 15.3398L8.00019 22.268C6.66687 23.0378 6.66687 24.9622 8.00018 25.732L20 32.6602C21.3334 33.43 23 32.4678 23 30.9282L23 26.6536C23.2762 26.9637 23.6096 27.2388 24.0002 27.4643L27 29.1962L27 30.9282C27 35.547 22 38.4337 18 36.1243Z" fill-rule="evenodd"  fill="#424242" >
</path>
<path d="M35 36.1244L23 29.1961C19 26.8867 19 21.1133 23 18.8039L35 11.8757C39 9.56626 44 12.453 44 17.0718L44 30.9282C44 35.547 39 38.4338 35 36.1244ZM25 22.268C23.6667 23.0378 23.6667 24.9622 25 25.732L37 32.6603C38.3334 33.4301 40 32.4678 40 30.9282L40 17.0718C40 15.5322 38.3334 14.57 37 15.3398L25 22.268Z" fill-rule="evenodd"  fill="#787878" >
</path>
</svg>
