<svg xmlns="http://www.w3.org/2000/svg" xmlns:xlink="http://www.w3.org/1999/xlink" width="48" height="48" viewBox="0 0 48 48" fill="none">
<path d="M7.00104 4.74994C5.89647 4.74991 5.00101 5.64532 5.00098 6.74989L5 41.2499C4.99997 42.3545 5.89538 43.2499 6.99995 43.2499C8.10452 43.25 8.99997 42.3546 9 41.25L9.00098 6.75C9.00101 5.64543 8.10561 4.74997 7.00104 4.74994Z" fill-rule="evenodd"  fill="#787878" >
</path>
<path d="M30 4.94734L9 17.0717C3.66667 20.1509 3.66667 27.8489 9 30.9281L30 43.0525C35.3333 46.1317 42 42.2827 42 36.1243L42 11.8755C42 5.71714 35.3333 1.86814 30 4.94734ZM11 27.464C8.33333 25.9244 8.33333 22.0754 11 20.5358L32 8.41144C34.6667 6.87184 38 8.79634 38 11.8755L38 36.1243C38 39.2035 34.6667 41.128 32 39.5884L11 27.464Z" fill-rule="evenodd"  fill="#424242" >
</path>
</svg>
