<svg xmlns="http://www.w3.org/2000/svg" xmlns:xlink="http://www.w3.org/1999/xlink" width="48" height="48" viewBox="0 0 48 48" fill="none">
<path d="M34 30C34.2725 30 34.532 30.0521 34.7785 30.1563C35.0175 30.2574 35.2295 30.4004 35.4145 30.5855C35.5996 30.7705 35.7426 30.9825 35.8437 31.2215C35.9479 31.468 36 31.7275 36 32L36 38C36 38.5421 35.8954 39.0601 35.6863 39.554C35.4837 40.0325 35.1973 40.4568 34.827 40.827C34.4568 41.1973 34.0325 41.4837 33.554 41.6863C33.0601 41.8954 32.5421 42 32 42L17 42C16.4579 42 15.9398 41.8954 15.446 41.6863C14.9675 41.4837 14.5432 41.1973 14.173 40.827C13.8027 40.4568 13.5163 40.0325 13.3137 39.554C13.1046 39.0601 13 38.5421 13 38L13 32C13 31.7275 13.0521 31.468 13.1563 31.2215C13.2574 30.9825 13.4004 30.7705 13.5855 30.5855C13.7705 30.4004 13.9825 30.2574 14.2215 30.1563C14.468 30.0521 14.7275 30 15 30L34 30ZM37.6555 43.6555C38.393 42.9179 38.9644 42.0707 39.3696 41.1138C39.7899 40.1215 40 39.0835 40 38L40 32C40 31.187 39.8426 30.4082 39.5279 29.6638C39.2242 28.9456 38.7959 28.31 38.243 27.757C37.69 27.2041 37.0544 26.7757 36.3362 26.4721C35.5918 26.1574 34.8131 26 34 26L15 26C14.187 26 13.4082 26.1574 12.6638 26.4721C11.9456 26.7757 11.31 27.2041 10.757 27.757C10.2041 28.31 9.77575 28.9456 9.47209 29.6638C9.15736 30.4082 9 31.187 9 32L9 38C9 39.0835 9.21012 40.1215 9.63036 41.1138C10.0356 42.0707 10.607 42.9179 11.3445 43.6555C12.0821 44.393 12.9293 44.9644 13.8862 45.3696C14.8786 45.7899 15.9165 46 17 46L32 46C33.0835 46 34.1214 45.7899 35.1138 45.3696C36.0707 44.9644 36.9179 44.393 37.6555 43.6555Z" fill-rule="evenodd"  fill="#000000" >
</path>
<path d="M37 23L31 23C30.93 23 30.87 23 30.8 22.99C30.74 22.98 30.67 22.98 30.61 22.96C30.55 22.95 30.48 22.93 30.42 22.91C30.36 22.9 30.3 22.87 30.23 22.85C30.17 22.82 30.12 22.8 30.06 22.76C30 22.73 29.94 22.7 29.89 22.66C29.83 22.63 29.78 22.59 29.73 22.55C29.68 22.51 29.63 22.46 29.59 22.42C29.54 22.37 29.5 22.32 29.45 22.27C29.41 22.22 29.37 22.17 29.34 22.11C29.3 22.06 29.27 22 29.24 21.94C29.21 21.89 29.18 21.83 29.15 21.77C29.13 21.71 29.11 21.64 29.09 21.58C29.07 21.52 29.05 21.46 29.04 21.39C29.03 21.33 29.02 21.26 29.01 21.2C29 21.13 29 21.07 29 21C29 20.94 29 20.87 29.01 20.81C29.02 20.74 29.03 20.68 29.04 20.61C29.05 20.55 29.07 20.48 29.09 20.42L29.15 20.24L29.24 20.06C29.27 20 29.3 19.94 29.34 19.89C29.37 19.84 29.41 19.78 29.45 19.73C29.5 19.68 29.54 19.63 29.59 19.59C29.63 19.54 29.68 19.5 29.73 19.46C29.78 19.41 29.83 19.37 29.89 19.34C29.94 19.3 30 19.27 30.06 19.24C30.11 19.21 30.17 19.18 30.23 19.15C30.29 19.13 30.36 19.11 30.42 19.09C30.48 19.07 30.55 19.05 30.61 19.04C30.67 19.03 30.74 19.02 30.8 19.01C30.87 19 30.93 19 31 19L37 19C37.13 19 37.26 19.01 37.39 19.04C37.52 19.06 37.64 19.1 37.77 19.15C37.89 19.2 38 19.26 38.11 19.34C38.22 19.41 38.32 19.49 38.41 19.59C38.51 19.68 38.59 19.78 38.66 19.89C38.74 20 38.8 20.11 38.85 20.23C38.9 20.36 38.94 20.48 38.96 20.61C38.99 20.74 39 20.87 39 21C39 21.13 38.99 21.26 38.96 21.39C38.94 21.52 38.9 21.64 38.85 21.77C38.8 21.89 38.74 22 38.66 22.11C38.59 22.22 38.51 22.32 38.41 22.41C38.32 22.51 38.22 22.59 38.11 22.66C38 22.74 37.89 22.8 37.77 22.85C37.64 22.9 37.52 22.94 37.39 22.96C37.26 22.99 37.13 23 37 23ZM45.37 16.89C45.79 17.88 46 18.92 46 20L46 31C46 32.08 45.79 33.12 45.37 34.11C44.96 35.07 44.39 35.92 43.66 36.66C42.92 37.39 42.07 37.96 41.11 38.37C40.12 38.79 39.08 39 38 39L37.9168 39C37.9715 38.6747 38 38.3407 38 38L38 32C38 29.79 36.21 28 34 28L15 28C12.79 28 11 29.79 11 32L11 38C11 38.3407 11.0285 38.6747 11.0832 39L10 39C8.92 39 7.88 38.79 6.89 38.37C5.93 37.96 5.08 37.39 4.34 36.66C3.61 35.92 3.04 35.07 2.63 34.11C2.21 33.12 2 32.08 2 31L2 20C2 18.92 2.21 17.88 2.63 16.89C3.04 15.93 3.61 15.08 4.34 14.34C5.08 13.61 5.93 13.04 6.89 12.63C7.88 12.21 8.92 12 10 12L38 12C39.08 12 40.12 12.21 41.11 12.63C42.07 13.04 42.92 13.61 43.66 14.34C44.39 15.08 44.96 15.93 45.37 16.89Z" fill-rule="evenodd"  fill="#000000" >
</path>
<path d="M15.89 2.63C14.93 3.04 14.08 3.61 13.34 4.34C12.61 5.08 12.04 5.93 11.63 6.89C11.4758 7.25343 11.3499 7.62359 11.2523 8L36.7476 8C36.6501 7.62359 36.5242 7.25343 36.37 6.89C35.96 5.93 35.39 5.08 34.66 4.34C33.92 3.61 33.07 3.04 32.11 2.63C31.12 2.21 30.08 2 29 2L19 2C17.92 2 16.88 2.21 15.89 2.63Z"   fill="#000000" >
</path>
</svg>
