<svg xmlns="http://www.w3.org/2000/svg" xmlns:xlink="http://www.w3.org/1999/xlink" width="48" height="48" viewBox="0 0 48 48" fill="none">
<path d="M43.3204 30.5359L43.3204 17.4641C43.3204 16.035 42.9632 14.7017 42.2486 13.4641C41.5341 12.2265 40.5581 11.2504 39.3204 10.5359L28 3.99999C26.7624 3.28546 25.429 2.92819 24 2.92819C22.5709 2.92819 21.2376 3.28546 20 3.99999L8.67944 10.5359C7.44184 11.2504 6.46577 12.2265 5.75124 13.4641C5.03671 14.7017 4.67944 16.035 4.67944 17.4641L4.67944 30.5359C4.67944 31.965 5.03671 33.2983 5.75124 34.5359C6.46577 35.7735 7.44183 36.7496 8.67944 37.4641L20 44C21.2376 44.7145 22.5709 45.0718 24 45.0718C25.429 45.0718 26.7624 44.7145 28 44L39.3204 37.4641C40.5581 36.7496 41.5341 35.7735 42.2486 34.5359C42.9632 33.2983 43.3204 31.965 43.3204 30.5359ZM38.7845 15.4641C39.1418 16.0829 39.3204 16.7496 39.3204 17.4641L39.3204 30.5359C39.3204 31.2504 39.1418 31.9171 38.7845 32.5359C38.4273 33.1547 37.9393 33.6427 37.3204 34L26 40.5359C25.3812 40.8932 24.7145 41.0718 24 41.0718C23.2854 41.0718 22.6188 40.8932 22 40.5359L10.6794 34C10.0606 33.6427 9.57261 33.1547 9.21534 32.5359C8.85807 31.9171 8.67944 31.2504 8.67944 30.5359L8.67944 17.4641C8.67944 16.7496 8.85807 16.0829 9.21534 15.4641C9.57261 14.8453 10.0606 14.3573 10.6794 14L22 7.46409C22.6188 7.10683 23.2854 6.92819 24 6.92819C24.7145 6.92819 25.3812 7.10683 26 7.46409L37.3204 14C37.9393 14.3573 38.4273 14.8453 38.7845 15.4641Z" fill-rule="evenodd"  fill="#000000" >
</path>
<path d="M34.4726 19.3533L23.1643 31.7433C21.587 33.4714 18.8698 33.4828 17.2781 31.768L12.5378 26.6608L12.5341 26.6569C12.2027 26.3 12 25.8218 12 25.2963C12 24.1917 12.8954 23.2963 14 23.2963C14.5814 23.2963 15.1048 23.5443 15.4702 23.9404L20.2099 29.0468L31.5174 16.6576L31.5228 16.6517C31.8885 16.2512 32.4149 16 33 16C34.1046 16 35 16.8954 35 18C35 18.5195 34.8019 18.9927 34.4772 19.3483L34.4726 19.3533Z" fill-rule="evenodd"  fill="#000000" >
</path>
</svg>
