<svg xmlns="http://www.w3.org/2000/svg" xmlns:xlink="http://www.w3.org/1999/xlink" width="48" height="48" viewBox="0 0 48 48" fill="none">
<path d="M15.4135 16.415L7.82838 24L15.413 31.5845L15.4142 31.5858C15.7761 31.9477 16 32.4477 16 33C16 34.1046 15.1046 35 14 35C13.4477 35 12.9477 34.7761 12.5857 34.4142L4.38124 26.2097C3.16084 24.9893 3.16084 23.0107 4.38124 21.7903L12.5857 13.5858C12.9477 13.2239 13.4477 13 14 13C15.1046 13 16 13.8954 16 15C16 15.5523 15.7761 16.0523 15.4142 16.4142L15.4135 16.415Z" fill-rule="evenodd"  fill="#000000" >
</path>
<path d="M33 36C39.6274 36 45 30.6274 45 24C45 17.3726 39.6274 12 33 12C26.3726 12 21 17.3726 21 24C21 30.6274 26.3726 36 33 36ZM33 16C37.4183 16 41 19.5817 41 24C41 28.4183 37.4183 32 33 32C28.5817 32 25 28.4183 25 24C25 19.5817 28.5817 16 33 16Z" fill-rule="evenodd"  fill="#000000" >
</path>
<path d="M23 26L6 26L6 22L23 22L23 26Z" fill-rule="evenodd"  fill="#000000" >
</path>
</svg>
