<svg xmlns="http://www.w3.org/2000/svg" xmlns:xlink="http://www.w3.org/1999/xlink" width="48" height="48" viewBox="0 0 48 48" fill="none">
<path d="M43.3204 30.5359L43.3204 17.4641C43.3204 16.035 42.9632 14.7017 42.2486 13.4641C41.5341 12.2265 40.5581 11.2504 39.3204 10.5359L28 3.99999C26.7624 3.28546 25.429 2.92819 24 2.92819C22.5709 2.92819 21.2376 3.28546 20 3.99999L8.67944 10.5359C7.44184 11.2504 6.46577 12.2265 5.75124 13.4641C5.03671 14.7017 4.67944 16.035 4.67944 17.4641L4.67944 30.5359C4.67944 31.965 5.03671 33.2983 5.75124 34.5359C6.46577 35.7735 7.44183 36.7496 8.67944 37.4641L20 44C21.2376 44.7145 22.5709 45.0718 24 45.0718C25.429 45.0718 26.7624 44.7145 28 44L39.3204 37.4641C40.5581 36.7496 41.5341 35.7735 42.2486 34.5359C42.9632 33.2983 43.3204 31.965 43.3204 30.5359ZM38.7845 15.4641C39.1418 16.0829 39.3204 16.7496 39.3204 17.4641L39.3204 30.5359C39.3204 31.2504 39.1418 31.9171 38.7845 32.5359C38.4273 33.1547 37.9393 33.6427 37.3204 34L26 40.5359C25.3812 40.8932 24.7145 41.0718 24 41.0718C23.2854 41.0718 22.6188 40.8932 22 40.5359L10.6794 34C10.0606 33.6427 9.57261 33.1547 9.21534 32.5359C8.85807 31.9171 8.67944 31.2504 8.67944 30.5359L8.67944 17.4641C8.67944 16.7496 8.85807 16.0829 9.21534 15.4641C9.57261 14.8453 10.0606 14.3573 10.6794 14L22 7.46409C22.6188 7.10683 23.2854 6.92819 24 6.92819C24.7145 6.92819 25.3812 7.10683 26 7.46409L37.3204 14C37.9393 14.3573 38.4273 14.8453 38.7845 15.4641Z" fill-rule="evenodd"  fill="#000000" >
</path>
<path d="M34.3706 15.9895L25.5002 10.8664C24.8336 10.4814 24.0001 10.9625 24.0001 11.7324L24.0001 23.4228C24.0001 23.78 23.8096 24.11 23.5002 24.2887L13.3794 30.1341C12.7129 30.519 12.7129 31.481 13.3794 31.8659L22.2496 36.989C23.3328 37.6146 24.6674 37.6146 25.7506 36.989L34.3706 32.0105C35.4532 31.3852 36.1201 30.2299 36.1201 28.9796L36.1201 19.0204C36.1201 17.7701 35.4532 16.6148 34.3706 15.9895Z"   fill="#000000" >
</path>
</svg>
