<svg xmlns="http://www.w3.org/2000/svg" xmlns:xlink="http://www.w3.org/1999/xlink" width="48" height="48" viewBox="0 0 48 48" fill="none">
<path   fill-rule="evenodd"  fill="#000000"  d="M30.6288 4.06824C29.2227 3.60084 27.781 3.28645 26.3035 3.12507C26.2384 3.11796 26.1731 3.11406 26.1076 3.11336C26.0421 3.11267 25.9767 3.11519 25.9114 3.12091C25.8462 3.12664 25.7814 3.13555 25.717 3.14765C25.6526 3.15975 25.589 3.17497 25.5261 3.19331C25.4632 3.21167 25.4014 3.23305 25.3406 3.25747C25.2799 3.28189 25.2204 3.30924 25.1623 3.3395C25.1042 3.36976 25.0478 3.4028 24.9929 3.43861C24.938 3.47443 24.8851 3.51284 24.834 3.55385C24.7829 3.59487 24.734 3.63828 24.6872 3.6841C24.6404 3.72993 24.596 3.77794 24.5539 3.82812C24.5118 3.87832 24.4722 3.93045 24.4353 3.98452C24.3983 4.0386 24.3641 4.09435 24.3326 4.15179C24.3011 4.20923 24.2725 4.26807 24.2468 4.32832C24.2211 4.38856 24.1984 4.44992 24.1787 4.5124C24.159 4.57488 24.1425 4.63817 24.129 4.70227C24.1155 4.76638 24.1053 4.83099 24.0982 4.8961C24.0839 5.02665 24.0825 5.15733 24.094 5.28815C24.1055 5.41897 24.1296 5.54741 24.1664 5.67347C24.2032 5.79954 24.2519 5.9208 24.3126 6.03727C24.3733 6.15374 24.4447 6.26317 24.5269 6.36555C24.6092 6.46795 24.7006 6.56134 24.8012 6.64572C24.9018 6.7301 25.0097 6.80386 25.1249 6.86698C25.24 6.93012 25.3602 6.98141 25.4855 7.02086C25.6108 7.06032 25.7387 7.08717 25.8692 7.10142C27.0645 7.23197 28.2304 7.48616 29.367 7.864C29.4291 7.88467 29.4921 7.90224 29.556 7.9167C29.6199 7.93118 29.6844 7.94248 29.7494 7.95062C29.8144 7.95876 29.8796 7.9637 29.9451 7.96542C30.0106 7.96716 30.076 7.96567 30.1413 7.96097C30.2066 7.95628 30.2716 7.94839 30.3361 7.93731C30.4007 7.92623 30.4646 7.91202 30.5277 7.89467C30.5909 7.87732 30.6531 7.85691 30.7142 7.83345C30.7753 7.80999 30.8352 7.78359 30.8938 7.75425C30.9523 7.72491 31.0093 7.69276 31.0647 7.65782C31.1201 7.62288 31.1737 7.58531 31.2254 7.54511C31.2771 7.50491 31.3268 7.46227 31.3743 7.41719C31.4218 7.37211 31.467 7.32481 31.5099 7.27529C31.5528 7.22577 31.5931 7.17427 31.6309 7.12079C31.6687 7.06731 31.7038 7.0121 31.7362 6.95516C31.7686 6.89824 31.7981 6.83986 31.8248 6.78002C31.8515 6.72019 31.8751 6.65919 31.8958 6.59703C31.9372 6.47241 31.9661 6.34495 31.9824 6.21465C31.9987 6.08435 32.0022 5.9537 31.9927 5.82272C31.9833 5.69173 31.9612 5.56293 31.9264 5.4363C31.8917 5.30967 31.8449 5.18765 31.786 5.07024C31.7272 4.95283 31.6575 4.84228 31.5769 4.73861C31.4963 4.63493 31.4064 4.54011 31.3071 4.45415C31.2078 4.36819 31.101 4.29274 30.9869 4.22779C30.8728 4.16285 30.7534 4.10967 30.6288 4.06824ZM16.402 4.41724C15.0158 4.95541 13.7004 5.63477 12.4556 6.45535C12.3459 6.52763 12.2444 6.6099 12.151 6.70218C12.0575 6.79446 11.974 6.89497 11.9004 7.0037C11.8267 7.11244 11.7644 7.22731 11.7134 7.34831C11.6624 7.46933 11.6237 7.59415 11.5972 7.72278C11.5708 7.85142 11.5572 7.9814 11.5564 8.11272C11.5556 8.24404 11.5676 8.37418 11.5924 8.50313C11.6172 8.63209 11.6543 8.75738 11.7038 8.87902C11.7533 9.00066 11.8142 9.1163 11.8865 9.22594C11.9226 9.28063 11.9612 9.33342 12.0024 9.38431C12.0437 9.43521 12.0873 9.48395 12.1333 9.53055C12.1794 9.57716 12.2276 9.6214 12.2779 9.66326C12.3283 9.70514 12.3806 9.74444 12.4349 9.78116C12.4891 9.8179 12.545 9.85188 12.6026 9.88311C12.6601 9.91435 12.7191 9.94269 12.7795 9.96813C12.8398 9.99358 12.9013 10.016 12.9639 10.0354C13.0264 10.0548 13.0898 10.0711 13.1539 10.0843C13.2181 10.0975 13.2828 10.1075 13.3479 10.1143C13.413 10.1211 13.4784 10.1247 13.5439 10.1251C13.6094 10.1255 13.6747 10.1227 13.74 10.1167C13.8052 10.1107 13.87 10.1015 13.9343 10.0891C13.9986 10.0768 14.0622 10.0613 14.125 10.0426C14.1878 10.024 14.2495 10.0024 14.3102 9.97767C14.3708 9.95298 14.4302 9.92538 14.4881 9.89486C14.5461 9.86434 14.6024 9.83106 14.6571 9.79501C15.6644 9.13095 16.7286 8.58131 17.8497 8.14608C17.9108 8.12238 17.9705 8.09573 18.0289 8.06615C18.0874 8.03657 18.1442 8.0042 18.1995 7.96904C18.2548 7.93388 18.3082 7.89609 18.3597 7.85567C18.4112 7.81527 18.4607 7.77243 18.5081 7.72715C18.5554 7.68189 18.6004 7.63441 18.6431 7.58471C18.6858 7.53502 18.7259 7.48336 18.7635 7.42972C18.8011 7.37608 18.836 7.32073 18.8681 7.26367C18.9003 7.20661 18.9296 7.14811 18.956 7.08817C18.9824 7.02823 19.0058 6.96713 19.0262 6.90489C19.0467 6.84265 19.064 6.77956 19.0782 6.71562C19.0924 6.65168 19.1034 6.5872 19.1113 6.52216C19.1192 6.45714 19.1238 6.39188 19.1253 6.3264C19.1268 6.26092 19.125 6.19551 19.1201 6.13019C19.1152 6.06488 19.107 5.99997 19.0956 5.93546C19.0843 5.87094 19.0698 5.80714 19.0522 5.74405C19.0346 5.68096 19.014 5.61888 18.9903 5.55782C18.9666 5.49676 18.9399 5.437 18.9103 5.37856C18.8808 5.32011 18.8484 5.26326 18.8132 5.208C18.7781 5.15273 18.7403 5.09933 18.6999 5.04777C18.6594 4.99622 18.6166 4.94678 18.5713 4.89944C18.526 4.85209 18.4786 4.80708 18.4289 4.76441C18.3792 4.72173 18.3275 4.68159 18.2739 4.64399C18.2202 4.60639 18.1649 4.57151 18.1078 4.53935C18.0508 4.50719 17.9923 4.4779 17.9323 4.45149C17.8724 4.42507 17.8113 4.40166 17.7491 4.38125C17.6868 4.36083 17.6237 4.34352 17.5598 4.32931C17.4959 4.3151 17.4314 4.30405 17.3663 4.29618C17.3013 4.2883 17.2361 4.28363 17.1706 4.28216C17.1051 4.2807 17.0397 4.28244 16.9744 4.28741C16.9091 4.29237 16.8441 4.30052 16.7796 4.31185C16.7151 4.32319 16.6513 4.33767 16.5882 4.35527C16.5251 4.37288 16.4631 4.39354 16.402 4.41724ZM41.7513 12.7754C40.9584 11.5237 40.0427 10.3677 39.0042 9.30732C38.9583 9.26053 38.9103 9.21609 38.8601 9.17401C38.8099 9.13193 38.7578 9.09241 38.7037 9.05545C38.6496 9.01849 38.5939 8.98428 38.5364 8.9528C38.479 8.92132 38.4202 8.89273 38.3599 8.86703C38.2996 8.84134 38.2383 8.81866 38.1758 8.79899C38.1133 8.77933 38.05 8.76277 37.9859 8.74932C37.9218 8.73587 37.8572 8.72559 37.7921 8.71849C37.727 8.71139 37.6616 8.7075 37.5961 8.70682C37.5306 8.70614 37.4653 8.70867 37.4 8.71441C37.3347 8.72015 37.2699 8.72908 37.2056 8.74118C37.1412 8.75329 37.0776 8.76852 37.0147 8.78688C36.9518 8.80524 36.89 8.82664 36.8292 8.85107C36.7685 8.87551 36.709 8.90286 36.6509 8.93313C36.5928 8.96341 36.5364 8.99645 36.4815 9.03227C36.4267 9.0681 36.3738 9.10652 36.3227 9.14754C36.2716 9.18857 36.2227 9.232 36.1759 9.27783C36.0821 9.36971 35.9981 9.46987 35.924 9.57829C35.8499 9.68671 35.7871 9.80132 35.7356 9.92212C35.6841 10.0429 35.6448 10.1676 35.6179 10.2961C35.5909 10.4246 35.5767 10.5545 35.5754 10.6859C35.574 10.8172 35.5855 10.9474 35.6098 11.0764C35.6341 11.2055 35.6707 11.3309 35.7196 11.4528C35.7686 11.5746 35.829 11.6905 35.9009 11.8005C35.9727 11.9104 36.0545 12.0123 36.1464 12.1061C36.988 12.9654 37.73 13.9021 38.3724 14.9161C38.4427 15.027 38.5231 15.13 38.6136 15.2251C38.7042 15.3202 38.8032 15.4055 38.9106 15.4811C39.0179 15.5567 39.1316 15.6211 39.2517 15.6743C39.3718 15.7275 39.4959 15.7685 39.624 15.7972C39.7521 15.8259 39.8819 15.8419 40.0132 15.8451C40.1445 15.8483 40.2748 15.8387 40.4042 15.8162C40.5335 15.7937 40.6595 15.7588 40.782 15.7115C40.9045 15.6642 41.0213 15.6055 41.1322 15.5352C41.1875 15.5001 41.241 15.4624 41.2926 15.4221C41.3443 15.3818 41.3938 15.3391 41.4412 15.2939C41.4887 15.2488 41.5338 15.2014 41.5765 15.1517C41.6193 15.1021 41.6595 15.0505 41.6972 14.997C41.7349 14.9434 41.7699 14.8882 41.8022 14.8312C41.8345 14.7742 41.8639 14.7157 41.8904 14.6558C41.9169 14.5959 41.9405 14.5349 41.961 14.4727C41.9815 14.4105 41.999 14.3474 42.0133 14.2835C42.0276 14.2196 42.0388 14.1551 42.0469 14.0901C42.0549 14.0251 42.0597 13.9599 42.0612 13.8944C42.0628 13.8289 42.0612 13.7635 42.0564 13.6982C42.0515 13.6329 42.0435 13.5679 42.0323 13.5034C42.0211 13.4389 42.0068 13.375 41.9893 13.3119C41.9718 13.2488 41.9513 13.1867 41.9277 13.1255C41.9041 13.0644 41.8776 13.0046 41.8481 12.9461C41.8186 12.8876 41.7864 12.8307 41.7513 12.7754ZM5.70847 13.6772C4.97929 14.9667 4.39417 16.3171 3.95311 17.7282C3.91394 17.8535 3.88736 17.9815 3.87339 18.1121C3.85942 18.2426 3.85832 18.3733 3.87009 18.5041C3.88186 18.6349 3.90627 18.7633 3.94334 18.8893C3.9804 19.0153 4.02939 19.1365 4.09032 19.2528C4.15125 19.3691 4.22294 19.4784 4.30539 19.5806C4.38784 19.6828 4.47947 19.776 4.58028 19.8601C4.68109 19.9443 4.78914 20.0178 4.90443 20.0807C5.01972 20.1436 5.14003 20.1946 5.26538 20.2338C5.3279 20.2533 5.39122 20.2698 5.45536 20.2831C5.51949 20.2964 5.58412 20.3066 5.64925 20.3135C5.71438 20.3205 5.7797 20.3243 5.8452 20.3248C5.9107 20.3253 5.97607 20.3227 6.04131 20.3168C6.10655 20.3109 6.17134 20.3019 6.23569 20.2896C6.30004 20.2774 6.36363 20.2621 6.42647 20.2436C6.48931 20.2251 6.55109 20.2035 6.61182 20.179C6.67255 20.1545 6.73192 20.127 6.78995 20.0966C6.84798 20.0662 6.90437 20.033 6.95914 19.9971C7.01391 19.9612 7.06678 19.9226 7.11776 19.8815C7.16875 19.8404 7.21759 19.7968 7.26429 19.7509C7.311 19.705 7.35534 19.6569 7.39732 19.6066C7.4393 19.5563 7.47871 19.5041 7.51556 19.45C7.55241 19.3958 7.58651 19.34 7.61788 19.2825C7.64924 19.225 7.67771 19.1661 7.70329 19.1058C7.72886 19.0455 7.75142 18.984 7.77096 18.9215C8.1275 17.7808 8.60064 16.689 9.19038 15.646C9.22262 15.589 9.25199 15.5305 9.27849 15.4706C9.30498 15.4107 9.32848 15.3497 9.34898 15.2875C9.36948 15.2253 9.38688 15.1622 9.40118 15.0983C9.41548 15.0344 9.42661 14.9699 9.43458 14.9049C9.44255 14.8399 9.44731 14.7746 9.44886 14.7091C9.45042 14.6436 9.44876 14.5782 9.44389 14.5129C9.43902 14.4476 9.43096 14.3827 9.41971 14.3181C9.40846 14.2536 9.39408 14.1898 9.37656 14.1267C9.35904 14.0636 9.33847 14.0015 9.31484 13.9404C9.29122 13.8793 9.26466 13.8195 9.23516 13.761C9.20567 13.7025 9.17338 13.6456 9.13829 13.5903C9.1032 13.535 9.06549 13.4815 9.02515 13.4299C8.98481 13.3783 8.94204 13.3288 8.89683 13.2814C8.85162 13.234 8.8042 13.1889 8.75457 13.1462C8.70494 13.1034 8.65333 13.0632 8.59975 13.0255C8.54616 12.9879 8.49086 12.9529 8.43385 12.9207C8.31954 12.856 8.20002 12.8032 8.07529 12.7621C7.95056 12.721 7.82303 12.6924 7.69268 12.6765C7.56233 12.6605 7.43168 12.6574 7.30072 12.6672C7.16976 12.6769 7.04101 12.6994 6.91448 12.7345C6.78794 12.7696 6.66604 12.8168 6.54879 12.8759C6.43154 12.935 6.32118 13.005 6.21772 13.0859C6.11425 13.1668 6.01967 13.257 5.93398 13.3565C5.84828 13.456 5.77311 13.5629 5.70847 13.6772ZM45 24C45 23.3786 44.973 22.7599 44.919 22.1439C44.9075 22.0131 44.8834 21.8847 44.8466 21.7586C44.8099 21.6325 44.7612 21.5113 44.7005 21.3948C44.6398 21.2783 44.5684 21.1689 44.4861 21.0665C44.4039 20.9641 44.3125 20.8707 44.2119 20.7863C44.1113 20.7019 44.0034 20.6281 43.8883 20.565C43.7731 20.5018 43.6529 20.4505 43.5277 20.411C43.4024 20.3716 43.2745 20.3447 43.144 20.3304C43.0135 20.3161 42.8828 20.3147 42.7519 20.3262C42.6866 20.3319 42.6218 20.3409 42.5575 20.353C42.4931 20.3651 42.4295 20.3803 42.3666 20.3986C42.3037 20.4169 42.2419 20.4383 42.1811 20.4627C42.1203 20.4872 42.0609 20.5145 42.0028 20.5448C41.9447 20.575 41.8882 20.608 41.8334 20.6439C41.7785 20.6797 41.7256 20.7181 41.6745 20.7591C41.6234 20.8001 41.5745 20.8435 41.5276 20.8893C41.4808 20.9351 41.4364 20.9831 41.3943 21.0333C41.3522 21.0835 41.3126 21.1356 41.2757 21.1897C41.2387 21.2438 41.2045 21.2995 41.173 21.357C41.1415 21.4144 41.1129 21.4732 41.0872 21.5335C41.0615 21.5937 41.0388 21.6551 41.0191 21.7176C40.9994 21.7801 40.9828 21.8433 40.9693 21.9074C40.9558 21.9715 40.9456 22.0362 40.9385 22.1013C40.9314 22.1664 40.9274 22.2317 40.9267 22.2972C40.926 22.3627 40.9286 22.428 40.9343 22.4933C40.9781 22.9931 41 23.4953 41 24C41 25.2294 40.8708 26.4387 40.6125 27.6279C40.5986 27.6919 40.5878 27.7564 40.5803 27.8215C40.5727 27.8866 40.5683 27.9519 40.5672 28.0174C40.5661 28.0829 40.5681 28.1482 40.5734 28.2135C40.5787 28.2788 40.5871 28.3437 40.5988 28.4082C40.6104 28.4726 40.6252 28.5363 40.6431 28.5994C40.661 28.6624 40.682 28.7244 40.706 28.7853C40.73 28.8462 40.7569 28.9059 40.7867 28.9642C40.8166 29.0225 40.8492 29.0792 40.8847 29.1343C40.9201 29.1894 40.9581 29.2426 40.9988 29.2939C41.0395 29.3453 41.0825 29.3946 41.128 29.4417C41.1735 29.4888 41.2212 29.5335 41.2711 29.576C41.321 29.6184 41.3729 29.6583 41.4267 29.6957C41.4805 29.733 41.536 29.7676 41.5932 29.7995C41.6505 29.8314 41.7091 29.8604 41.7692 29.8865C41.8293 29.9126 41.8905 29.9358 41.9528 29.9559C42.0151 29.976 42.0783 29.993 42.1423 30.0069C42.2063 30.0208 42.2708 30.0316 42.3359 30.0391C42.401 30.0467 42.4662 30.0511 42.5317 30.0522C42.5972 30.0533 42.6626 30.0513 42.7279 30.046C42.7932 30.0407 42.858 30.0323 42.9225 30.0206C42.987 30.009 43.0507 29.9942 43.1137 29.9763C43.1767 29.9584 43.2387 29.9374 43.2996 29.9134C43.3606 29.8894 43.4202 29.8625 43.4785 29.8327C43.5368 29.8028 43.5935 29.7702 43.6486 29.7347C43.7037 29.6993 43.757 29.6613 43.8083 29.6206C43.8596 29.5799 43.9089 29.5369 43.956 29.4914C44.0031 29.4459 44.0479 29.3982 44.0904 29.3483C44.1328 29.2984 44.1727 29.2465 44.21 29.1927C44.2473 29.1389 44.282 29.0834 44.3139 29.0262C44.3458 28.9689 44.3748 28.9103 44.4009 28.8502C44.427 28.7901 44.4502 28.7289 44.4703 28.6666C44.4904 28.6043 44.5074 28.5411 44.5213 28.4771C44.8404 27.0081 45 25.5157 45 24ZM3.33065 27.7302C3.59045 29.1785 3.99862 30.5831 4.55515 31.9441C4.60486 32.0656 4.66595 32.1812 4.73841 32.2907C4.81087 32.4002 4.89333 32.5016 4.98576 32.5949C5.0782 32.6882 5.17885 32.7715 5.28771 32.845C5.39657 32.9184 5.51155 32.9805 5.63264 33.0313C5.75374 33.0821 5.87863 33.1206 6.00731 33.1468C6.13599 33.173 6.26599 33.1864 6.39731 33.187C6.52864 33.1876 6.65875 33.1754 6.78766 33.1504C6.91657 33.1253 7.04181 33.088 7.16336 33.0383C7.22399 33.0135 7.28326 32.9858 7.34117 32.9551C7.39908 32.9245 7.45534 32.8911 7.50997 32.855C7.5646 32.8189 7.61732 32.7801 7.66814 32.7388C7.71896 32.6975 7.76763 32.6537 7.81416 32.6076C7.86069 32.5615 7.90484 32.5133 7.94662 32.4628C7.98841 32.4123 8.02762 32.36 8.06425 32.3057C8.10089 32.2514 8.13478 32.1955 8.16592 32.1378C8.19705 32.0802 8.22529 32.0212 8.25063 31.9608C8.27597 31.9004 8.29829 31.8389 8.31759 31.7763C8.33689 31.7137 8.35307 31.6503 8.36614 31.5861C8.37921 31.5219 8.3891 31.4572 8.39582 31.3921C8.40253 31.3269 8.40604 31.2616 8.40633 31.1961C8.40663 31.1306 8.40372 31.0652 8.39759 31C8.39146 30.9348 8.38216 30.87 8.36967 30.8057C8.35718 30.7414 8.34157 30.6779 8.32284 30.6151C8.30411 30.5524 8.28234 30.4907 8.25755 30.43C7.80774 29.3301 7.47782 28.1947 7.2678 27.024C7.25623 26.9595 7.24154 26.8958 7.22371 26.8327C7.20588 26.7697 7.18501 26.7077 7.16108 26.6467C7.13716 26.5857 7.11031 26.526 7.08053 26.4677C7.05074 26.4094 7.01817 26.3526 6.98281 26.2975C6.94746 26.2424 6.90948 26.1891 6.86889 26.1377C6.8283 26.0863 6.78528 26.037 6.73984 25.9898C6.69441 25.9426 6.64677 25.8978 6.59693 25.8553C6.54708 25.8128 6.49528 25.7728 6.44151 25.7354C6.38774 25.698 6.33227 25.6633 6.2751 25.6313C6.21792 25.5994 6.15931 25.5703 6.09928 25.5441C6.03925 25.5179 5.97808 25.4947 5.91577 25.4745C5.85345 25.4543 5.7903 25.4372 5.72631 25.4232C5.66232 25.4093 5.5978 25.3985 5.53274 25.3908C5.46769 25.3831 5.40241 25.3787 5.33692 25.3775C5.27143 25.3762 5.20604 25.3782 5.14074 25.3834C5.07545 25.3886 5.01056 25.397 4.94609 25.4085C4.81683 25.4317 4.69107 25.4673 4.56882 25.5152C4.44657 25.5632 4.33017 25.6226 4.21963 25.6935C4.10908 25.7644 4.00651 25.8454 3.91192 25.9365C3.81733 26.0276 3.73253 26.127 3.65753 26.2348C3.58252 26.3426 3.51875 26.4567 3.46622 26.577C3.41369 26.6974 3.3734 26.8217 3.34536 26.95C3.31732 27.0783 3.30206 27.2081 3.29958 27.3394C3.29711 27.4707 3.30746 27.601 3.33065 27.7302ZM37.0573 40.448C38.2165 39.5267 39.2672 38.4947 40.2093 37.3522C40.251 37.3017 40.2901 37.2492 40.3266 37.1948C40.3631 37.1404 40.3969 37.0844 40.4279 37.0267C40.4589 36.969 40.487 36.9099 40.5122 36.8495C40.5374 36.789 40.5596 36.7275 40.5788 36.6648C40.5979 36.6022 40.614 36.5388 40.6269 36.4745C40.6398 36.4103 40.6496 36.3456 40.6562 36.2805C40.6627 36.2153 40.6661 36.1499 40.6662 36.0844C40.6664 36.0189 40.6634 35.9536 40.6571 35.8884C40.6508 35.8232 40.6414 35.7585 40.6287 35.6942C40.6161 35.6299 40.6004 35.5664 40.5815 35.5037C40.5626 35.441 40.5407 35.3793 40.5158 35.3187C40.4909 35.2582 40.463 35.199 40.4323 35.1411C40.4016 35.0832 40.3681 35.027 40.3318 34.9725C40.2955 34.918 40.2567 34.8653 40.2152 34.8146C40.1738 34.7639 40.13 34.7153 40.0838 34.6689C40.0376 34.6224 39.9892 34.5784 39.9386 34.5367C39.8373 34.4532 39.7289 34.3803 39.6132 34.3181C39.4975 34.256 39.3769 34.2057 39.2513 34.1673C39.1257 34.1288 38.9976 34.103 38.8669 34.0899C38.7362 34.0767 38.6056 34.0764 38.4749 34.089C38.3442 34.1015 38.2159 34.1267 38.0901 34.1645C37.9644 34.2024 37.8435 34.2521 37.7276 34.3137C37.6116 34.3754 37.5028 34.4477 37.4011 34.5308C37.2994 34.6139 37.2067 34.7061 37.1232 34.8074C36.3595 35.7335 35.5079 36.57 34.5684 37.3167C34.4656 37.3984 34.3718 37.4893 34.2869 37.5895C34.202 37.6897 34.1277 37.7972 34.064 37.9121C34.0003 38.0269 33.9484 38.1468 33.9083 38.2719C33.8682 38.397 33.8407 38.5247 33.8258 38.6552C33.8109 38.7857 33.8088 38.9163 33.8197 39.0472C33.8305 39.1781 33.854 39.3066 33.8901 39.4329C33.9262 39.5592 33.9744 39.6807 34.0345 39.7974C34.0946 39.9142 34.1655 40.024 34.2472 40.1268C34.3289 40.2296 34.4198 40.3234 34.52 40.4083C34.6202 40.4932 34.7277 40.5675 34.8426 40.6312C34.9574 40.6949 35.0773 40.7468 35.2024 40.7869C35.3275 40.827 35.4552 40.8545 35.5857 40.8694C35.7162 40.8843 35.8468 40.8864 35.9777 40.8756C36.1086 40.8647 36.2371 40.8412 36.3634 40.8051C36.4897 40.769 36.6112 40.7208 36.7279 40.6607C36.8447 40.6006 36.9545 40.5297 37.0573 40.448ZM10.3574 39.9654C11.4882 40.9325 12.7063 41.7696 14.0116 42.4766C14.0691 42.5078 14.1281 42.5361 14.1885 42.5615C14.2489 42.5869 14.3104 42.6093 14.3729 42.6286C14.4355 42.648 14.4989 42.6643 14.5631 42.6774C14.6272 42.6905 14.6919 42.7005 14.757 42.7072C14.8222 42.714 14.8875 42.7176 14.953 42.7179C15.0185 42.7183 15.0839 42.7155 15.1491 42.7094C15.2143 42.7033 15.2791 42.6941 15.3434 42.6817C15.4077 42.6692 15.4713 42.6537 15.5341 42.635C15.5968 42.6163 15.6585 42.5946 15.7192 42.5699C15.7799 42.5452 15.8392 42.5175 15.8971 42.487C15.955 42.4565 16.0113 42.4231 16.066 42.387C16.1207 42.3509 16.1734 42.3123 16.2243 42.271C16.2752 42.2297 16.3239 42.1861 16.3705 42.14C16.417 42.0939 16.4612 42.0457 16.5031 41.9953C16.5449 41.9449 16.5841 41.8926 16.6208 41.8383C16.6575 41.784 16.6915 41.7281 16.7227 41.6705C16.7539 41.6129 16.7822 41.5539 16.8076 41.4935C16.833 41.4332 16.8554 41.3717 16.8747 41.3091C16.8941 41.2465 16.9104 41.1831 16.9235 41.119C16.9366 41.0548 16.9466 40.9901 16.9533 40.925C16.9601 40.8599 16.9637 40.7945 16.964 40.729C16.9644 40.6635 16.9616 40.5982 16.9555 40.5329C16.9494 40.4677 16.9402 40.4029 16.9278 40.3386C16.9153 40.2743 16.8998 40.2108 16.8811 40.148C16.8624 40.0852 16.8407 40.0235 16.816 39.9628C16.7913 39.9021 16.7636 39.8428 16.7331 39.7849C16.7026 39.727 16.6692 39.6707 16.6331 39.616C16.597 39.5613 16.5584 39.5086 16.5171 39.4578C16.4758 39.4069 16.4322 39.3582 16.3861 39.3116C16.34 39.265 16.2918 39.2208 16.2414 39.179C16.191 39.1371 16.1387 39.0979 16.0844 39.0612C16.0301 39.0245 15.9742 38.9906 15.9166 38.9594C14.8598 38.387 13.8733 37.709 12.9572 36.9255C12.9075 36.883 12.8557 36.8429 12.802 36.8054C12.7483 36.7679 12.6929 36.7332 12.6357 36.7011C12.5786 36.6691 12.52 36.6399 12.46 36.6136C12.4 36.5873 12.3389 36.5641 12.2766 36.5438C12.2143 36.5235 12.1512 36.5063 12.0872 36.4922C12.0233 36.4781 11.9588 36.4672 11.8937 36.4595C11.8287 36.4518 11.7634 36.4472 11.6979 36.4459C11.6324 36.4446 11.567 36.4464 11.5017 36.4515C11.4364 36.4566 11.3715 36.4649 11.307 36.4764C11.2426 36.4879 11.1788 36.5025 11.1157 36.5202C11.0527 36.5379 10.9906 36.5587 10.9296 36.5826C10.8686 36.6064 10.8089 36.6331 10.7505 36.6628C10.6921 36.6925 10.6354 36.725 10.5802 36.7603C10.525 36.7956 10.4716 36.8335 10.4202 36.874C10.3687 36.9145 10.3194 36.9575 10.2721 37.0028C10.2249 37.0482 10.18 37.0958 10.1374 37.1456C10.052 37.2454 9.97722 37.3526 9.91298 37.4671C9.84873 37.5816 9.79628 37.7013 9.75562 37.8262C9.71495 37.9511 9.68686 38.0787 9.67134 38.2091C9.65581 38.3395 9.65316 38.4701 9.66337 38.601C9.67359 38.7319 9.69648 38.8606 9.73204 38.9871C9.7676 39.1135 9.81515 39.2352 9.87469 39.3522C9.93423 39.4693 10.0046 39.5794 10.0859 39.6826C10.1671 39.7858 10.2576 39.8801 10.3574 39.9654ZM24 45C25.3869 45 26.7552 44.8662 28.1048 44.5986C28.2337 44.5731 28.3588 44.5352 28.4801 44.485C28.6014 44.4349 28.7167 44.3733 28.826 44.3004C28.9352 44.2275 29.0363 44.1447 29.1292 44.0519C29.2221 43.9591 29.3051 43.8581 29.3781 43.749C29.4512 43.6399 29.5129 43.5246 29.5632 43.4033C29.6135 43.282 29.6515 43.157 29.6772 43.0282C29.7029 42.8994 29.7158 42.7694 29.7159 42.6381C29.716 42.5068 29.7032 42.3767 29.6777 42.2478C29.665 42.1836 29.6491 42.1201 29.6301 42.0574C29.6112 41.9947 29.5892 41.9331 29.5641 41.8726C29.5391 41.8121 29.5112 41.7529 29.4803 41.6951C29.4494 41.6373 29.4158 41.5812 29.3795 41.5267C29.3432 41.4722 29.3042 41.4197 29.2627 41.369C29.2212 41.3183 29.1773 41.2698 29.131 41.2235C29.0847 41.1772 29.0362 41.1332 28.9856 41.0916C28.935 41.05 28.8825 41.011 28.828 40.9746C28.7736 40.9381 28.7175 40.9045 28.6598 40.8736C28.602 40.8427 28.5429 40.8146 28.4824 40.7895C28.4219 40.7644 28.3603 40.7424 28.2976 40.7233C28.2349 40.7042 28.1715 40.6883 28.1073 40.6755C28.043 40.6627 27.9783 40.6531 27.9131 40.6466C27.848 40.6401 27.7826 40.6369 27.7171 40.6368C27.6516 40.6367 27.5863 40.6399 27.5211 40.6463C27.4559 40.6527 27.3912 40.6623 27.3269 40.675C26.2341 40.8917 25.1251 41 24 41L23.6618 40.9968C23.5963 40.9962 23.5309 40.9988 23.4657 41.0046C23.4004 41.0105 23.3356 41.0195 23.2713 41.0316C23.2069 41.0438 23.1433 41.0591 23.0804 41.0776C23.0176 41.096 22.9558 41.1175 22.895 41.142C22.8343 41.1665 22.7749 41.194 22.7169 41.2243C22.6588 41.2546 22.6024 41.2877 22.5476 41.3236C22.4928 41.3595 22.4399 41.398 22.3889 41.4391C22.3379 41.4802 22.289 41.5237 22.2422 41.5696C22.1955 41.6155 22.1511 41.6635 22.1091 41.7138C22.0671 41.7641 22.0276 41.8162 21.9907 41.8703C21.9538 41.9244 21.9197 41.9803 21.8883 42.0378C21.8569 42.0953 21.8284 42.1541 21.8027 42.2144C21.7771 42.2747 21.7545 42.3361 21.7349 42.3986C21.7153 42.4611 21.6988 42.5244 21.6855 42.5885C21.6721 42.6526 21.6619 42.7173 21.6549 42.7824C21.6479 42.8475 21.6441 42.9128 21.6435 42.9783C21.6423 43.1096 21.6539 43.2398 21.6783 43.3689C21.7028 43.4979 21.7396 43.6233 21.7887 43.7451C21.8378 43.8668 21.8984 43.9826 21.9703 44.0925C22.0422 44.2024 22.1242 44.3042 22.2162 44.3979C22.3083 44.4916 22.4085 44.5754 22.517 44.6494C22.6255 44.7233 22.7402 44.786 22.8611 44.8374C22.982 44.8887 23.1067 44.9278 23.2352 44.9546C23.3637 44.9814 23.4937 44.9954 23.625 44.9966L24 45Z">
</path>
</svg>
