<svg xmlns="http://www.w3.org/2000/svg" xmlns:xlink="http://www.w3.org/1999/xlink" width="48" height="48" viewBox="0 0 48 48" fill="none">
<path d="M24 5C13.51 5 5 13.51 5 24C5 34.49 13.51 43 24 43C34.49 43 43 34.49 43 24C43 13.51 34.49 5 24 5Z"   fill="#FEEDBD" >
</path>
<path d="M24 45C35.598 45 45 35.598 45 24C45 12.402 35.598 3 24 3C12.402 3 3 12.402 3 24C3 35.598 12.402 45 24 45ZM24 7C33.3888 7 41 14.6112 41 24C41 33.3888 33.3888 41 24 41C14.6112 41 7 33.3888 7 24C7 14.6112 14.6112 7 24 7Z" fill-rule="evenodd"  fill="#FCCB68" >
</path>
<path d="M24 38L24 24L24 10C25.8385 10 27.659 10.3621 29.3576 11.0657C31.0561 11.7692 32.5995 12.8005 33.8995 14.1005C35.1995 15.4005 36.2307 16.9439 36.9343 18.6424C37.6379 20.341 38 22.1615 38 24C38 25.8385 37.6379 27.659 36.9343 29.3576C36.2307 31.0561 35.1995 32.5995 33.8995 33.8995C32.5995 35.1995 31.0561 36.2307 29.3576 36.9343C27.659 37.6379 25.8385 38 24 38Z"   fill="#FA9E14" >
</path>
</svg>
