<svg xmlns="http://www.w3.org/2000/svg" xmlns:xlink="http://www.w3.org/1999/xlink" width="48" height="48" viewBox="0 0 48 48" fill="none">
<path d="M15.6508 23.446C14.9491 22.4496 14.3871 20.8429 13.9648 18.6258L10.0354 19.3742C10.5655 22.1571 11.3472 24.2821 12.3806 25.7493C13.4897 27.3241 14.9004 28.2248 16.6127 28.4514C17.9027 28.6222 19.3781 28.376 21.0387 27.7128C21.6319 27.4759 22.3004 27.1665 23.0444 26.7846C23.474 26.564 24.1139 26.2199 24.9639 25.7524C25.7805 25.3033 26.3868 24.9771 26.7827 24.7738C27.4146 24.4494 27.9687 24.1921 28.445 24.0019C29.458 23.5973 30.2639 23.4347 30.8627 23.5139C31.1227 23.5484 31.3592 23.633 31.5722 23.768C31.8413 23.9386 32.1003 24.2006 32.3493 24.554C33.0511 25.5503 33.6131 27.1571 34.0354 29.3742L37.9648 28.6258C37.4347 25.8429 36.653 23.7179 35.6196 22.2507C34.5104 20.6759 33.0997 19.7751 31.3875 19.5485C30.0974 19.3778 28.6221 19.624 26.9615 20.2871C26.3683 20.524 25.6997 20.8334 24.9558 21.2154C24.526 21.436 23.8862 21.7801 23.0363 22.2475C22.2196 22.6967 21.6133 23.0229 21.2175 23.2261C20.5855 23.5506 20.0315 23.8079 19.5552 23.9981C18.5422 24.4026 17.7363 24.5653 17.1375 24.486C16.8775 24.4516 16.641 24.3669 16.428 24.232C16.1588 24.0614 15.8998 23.7994 15.6508 23.446Z" fill-rule="evenodd"  fill="#B579F4" >
</path>
<path d="M12 21C16.9706 21 21 16.9706 21 12C21 7.02944 16.9706 3 12 3C7.02944 3 3 7.02944 3 12C3 16.9706 7.02944 21 12 21ZM12 7C14.7614 7 17 9.23858 17 12C17 14.7614 14.7614 17 12 17C9.23858 17 7 14.7614 7 12C7 9.23858 9.23858 7 12 7Z" fill-rule="evenodd"  fill="#8134ED" >
</path>
<path d="M36 45C40.9706 45 45 40.9706 45 36C45 31.0294 40.9706 27 36 27C31.0294 27 27 31.0294 27 36C27 40.9706 31.0294 45 36 45ZM36 31C38.7614 31 41 33.2386 41 36C41 38.7614 38.7614 41 36 41C33.2386 41 31 38.7614 31 36C31 33.2386 33.2386 31 36 31Z" fill-rule="evenodd"  fill="#B579F4" >
</path>
</svg>
