<svg xmlns="http://www.w3.org/2000/svg" xmlns:xlink="http://www.w3.org/1999/xlink" width="48" height="48" viewBox="0 0 48 48" fill="none">
<path d="M38.8914 27.7994L28.6437 40.3243C26.2431 43.2584 21.7569 43.2584 19.3563 40.3243L9.10857 27.7994C7.30023 25.5892 7.30023 22.4108 9.10857 20.2006L19.3563 7.6757C21.7569 4.7416 26.2431 4.7416 28.6437 7.6757L38.8914 20.2006C40.6997 22.4108 40.6997 25.5892 38.8914 27.7994Z"   fill="#E2C2FB" >
</path>
<path d="M30.1917 41.5908L40.4393 29.0659C41.0335 28.3396 41.4855 27.5355 41.7955 26.6535C42.0969 25.7956 42.2476 24.9111 42.2476 24C42.2476 23.0889 42.0969 22.2044 41.7955 21.3465C41.4855 20.4645 41.0335 19.6604 40.4393 18.9341L30.1917 6.40922C26.9908 2.4971 21.0092 2.4971 17.8083 6.40922L7.56066 18.9341C6.96645 19.6604 6.51438 20.4645 6.20447 21.3465C5.90304 22.2044 5.75232 23.0889 5.75232 24C5.75232 24.9111 5.90304 25.7956 6.20447 26.6535C6.51438 27.5355 6.96645 28.3396 7.56066 29.0659L17.8083 41.5908C21.0092 45.5029 26.9908 45.5029 30.1917 41.5908ZM38.0217 25.3275C37.8671 25.7675 37.641 26.1693 37.3435 26.533L27.0958 39.0578C25.4954 41.0139 22.5046 41.0139 20.9042 39.0578L10.6565 26.533C10.359 26.1693 10.1329 25.7675 9.97829 25.3275C9.82765 24.8988 9.75232 24.4563 9.75232 24C9.75232 23.5437 9.82765 23.1012 9.97829 22.6725C10.1329 22.2325 10.359 21.8307 10.6565 21.467L20.9042 8.94217C22.5046 6.98611 25.4954 6.98611 27.0958 8.94217L37.3435 21.467C37.641 21.8307 37.8671 22.2325 38.0217 22.6725C38.1723 23.1012 38.2476 23.5437 38.2476 24C38.2476 24.4563 38.1723 24.8988 38.0217 25.3275Z" fill-rule="evenodd"  fill="#8134ED" >
</path>
</svg>
