<svg xmlns="http://www.w3.org/2000/svg" xmlns:xlink="http://www.w3.org/1999/xlink" width="48" height="48" viewBox="0 0 48 48" fill="none">
<path   fill-rule="evenodd"  fill="#555555"  d="M28 4.00001C27.8344 3.90443 27.6658 3.81494 27.4941 3.73152C27.4351 3.70291 27.3749 3.67725 27.3135 3.65454C27.252 3.63184 27.1896 3.61221 27.1263 3.59563C27.0629 3.57906 26.9988 3.56564 26.9342 3.55536C26.8695 3.54508 26.8045 3.538 26.7391 3.53411C26.6737 3.53022 26.6082 3.52954 26.5428 3.53208C26.4773 3.53462 26.4121 3.54036 26.3473 3.5493C26.2824 3.55825 26.2181 3.57035 26.1544 3.58561C26.0907 3.60087 26.0279 3.61921 25.966 3.64064C25.9041 3.66207 25.8434 3.68648 25.7839 3.71387C25.7244 3.74127 25.6664 3.77151 25.6099 3.80461C25.5533 3.8377 25.4986 3.87348 25.4456 3.91196C25.3926 3.95043 25.3416 3.99141 25.2926 4.0349C25.2436 4.07838 25.1968 4.12417 25.1524 4.17224C25.1078 4.22032 25.0658 4.27046 25.0263 4.32267C24.9867 4.37488 24.9498 4.4289 24.9156 4.48473C24.8813 4.54056 24.8499 4.59794 24.8213 4.65686C24.7639 4.77499 24.7186 4.89758 24.6854 5.02463C24.6522 5.15168 24.6317 5.28075 24.6239 5.41184C24.6161 5.54293 24.6211 5.67352 24.6391 5.80362C24.6569 5.93371 24.6874 6.0608 24.7304 6.1849C24.7733 6.30899 24.828 6.4277 24.8944 6.54103C24.9607 6.65436 25.0374 6.76013 25.1246 6.85834C25.2118 6.95654 25.3077 7.0453 25.4124 7.12462C25.517 7.20393 25.6284 7.27227 25.7466 7.32964C25.8326 7.3714 25.917 7.41622 26 7.46411L34.2989 12.2555C34.3556 12.2882 34.4138 12.3181 34.4734 12.3452C34.5331 12.3722 34.594 12.3962 34.656 12.4173C34.718 12.4383 34.781 12.4563 34.8447 12.4712C34.9085 12.4861 34.9728 12.4978 35.0378 12.5063C35.1028 12.5149 35.168 12.5202 35.2335 12.5224C35.2989 12.5245 35.3643 12.5234 35.4296 12.5191C35.495 12.5149 35.5601 12.5074 35.6246 12.4967C35.6893 12.486 35.7532 12.4722 35.8165 12.4553C35.8797 12.4383 35.942 12.4183 36.0033 12.3952C36.0647 12.3722 36.1247 12.3461 36.1834 12.3172C36.2422 12.2882 36.2994 12.2564 36.3549 12.2218C36.4106 12.1873 36.4644 12.15 36.5163 12.1101C36.5684 12.0703 36.6183 12.0279 36.6661 11.9832C36.7139 11.9384 36.7593 11.8914 36.8026 11.8421C36.8458 11.7929 36.8864 11.7416 36.9246 11.6884C36.9627 11.6351 36.9981 11.5802 37.031 11.5234C37.0965 11.4097 37.1505 11.2907 37.1928 11.1663C37.235 11.042 37.2646 10.9147 37.2817 10.7845C37.2989 10.6543 37.3032 10.5237 37.2946 10.3926C37.2859 10.2616 37.2647 10.1326 37.2308 10.0058C37.1968 9.87895 37.1507 9.75664 37.0926 9.63886C37.0345 9.52108 36.9655 9.41009 36.8856 9.30591C36.8056 9.20173 36.7163 9.10634 36.6176 9.01976C36.5188 8.93317 36.4126 8.85705 36.2989 8.79139L28 4.00001ZM19.8219 4.1028L11.1616 9.10281C11.1049 9.13556 11.0499 9.17101 10.9967 9.20917C10.9434 9.24732 10.8922 9.28799 10.843 9.33118C10.7937 9.37436 10.7467 9.41986 10.7019 9.46768C10.6571 9.51548 10.6148 9.56537 10.5749 9.61734C10.5351 9.6693 10.4978 9.7231 10.4632 9.77872C10.4286 9.83434 10.3969 9.89153 10.3679 9.95028C10.3389 10.009 10.3129 10.069 10.2898 10.1304C10.2668 10.1917 10.2467 10.254 10.2298 10.3172C10.2128 10.3805 10.199 10.4444 10.1884 10.5091C10.1777 10.5737 10.1702 10.6387 10.1659 10.704C10.1616 10.7694 10.1606 10.8348 10.1627 10.9003C10.1649 10.9658 10.1702 11.031 10.1788 11.0959C10.1873 11.1609 10.199 11.2252 10.2139 11.289C10.2288 11.3528 10.2467 11.4157 10.2678 11.4777C10.2888 11.5398 10.3129 11.6006 10.3399 11.6603C10.3669 11.7199 10.3968 11.7781 10.4296 11.8349C10.4953 11.9486 10.5714 12.0548 10.658 12.1535C10.7445 12.2523 10.8399 12.3416 10.9441 12.4216C11.0483 12.5015 11.1593 12.5705 11.2771 12.6286C11.3948 12.6867 11.5172 12.7327 11.644 12.7667C11.7708 12.8007 11.8998 12.822 12.0308 12.8306C12.1619 12.8392 12.2925 12.8349 12.4227 12.8177C12.5529 12.8006 12.6802 12.7709 12.8045 12.7287C12.9289 12.6865 13.0479 12.6326 13.1616 12.5669L21.8219 7.56691C21.9356 7.50125 22.0418 7.42512 22.1406 7.33854C22.2393 7.25195 22.3287 7.15656 22.4087 7.05238C22.4886 6.9482 22.5576 6.83722 22.6157 6.71944C22.6737 6.60166 22.7198 6.47934 22.7538 6.3525C22.7878 6.22565 22.8091 6.09671 22.8177 5.96567C22.8263 5.83462 22.822 5.704 22.8048 5.57381C22.7876 5.44361 22.758 5.31633 22.7158 5.19198C22.6736 5.06762 22.6196 4.94858 22.554 4.83486C22.5212 4.77813 22.4858 4.72314 22.4476 4.6699C22.4094 4.61666 22.3688 4.56541 22.3256 4.51616C22.2824 4.46692 22.2369 4.4199 22.1891 4.37513C22.1413 4.33035 22.0914 4.28802 22.0395 4.24815C21.9875 4.20827 21.9337 4.17104 21.8781 4.13645C21.8224 4.10186 21.7652 4.07008 21.7065 4.04111C21.6477 4.01214 21.5877 3.98612 21.5264 3.96304C21.4651 3.93997 21.4028 3.91996 21.3396 3.903C21.2763 3.88605 21.2123 3.87224 21.1477 3.86157C21.0831 3.8509 21.0181 3.84342 20.9528 3.83914C20.8874 3.83485 20.8219 3.83378 20.7565 3.83593C20.691 3.83807 20.6258 3.84342 20.5609 3.85197C20.4959 3.86052 20.4316 3.87223 20.3678 3.8871C20.304 3.90198 20.2411 3.91994 20.1791 3.941C20.117 3.96205 20.0561 3.98609 19.9965 4.01313C19.9368 4.04016 19.8786 4.07005 19.8219 4.1028ZM42.9297 14.9938C42.6733 14.2042 42.3029 13.4721 41.8185 12.7975C41.7803 12.7443 41.7395 12.6931 41.6963 12.6439C41.653 12.5947 41.6075 12.5477 41.5597 12.503C41.5118 12.4583 41.4619 12.416 41.4099 12.3761C41.3579 12.3363 41.304 12.2991 41.2484 12.2646C41.1927 12.2301 41.1355 12.1983 41.0767 12.1694C41.0179 12.1405 40.9579 12.1145 40.8966 12.0915C40.8352 12.0685 40.7729 12.0486 40.7097 12.0317C40.6463 12.0148 40.5824 12.001 40.5177 11.9904C40.4531 11.9798 40.3881 11.9724 40.3228 11.9682C40.2574 11.964 40.1919 11.9629 40.1264 11.9652C40.061 11.9674 39.9958 11.9728 39.9309 11.9814C39.8659 11.99 39.8016 12.0018 39.7379 12.0167C39.6741 12.0316 39.6112 12.0497 39.5492 12.0708C39.4872 12.0919 39.4263 12.116 39.3666 12.1431C39.3071 12.1702 39.2489 12.2001 39.1922 12.2329C39.1355 12.2657 39.0806 12.3012 39.0274 12.3395C38.9207 12.416 38.8225 12.5023 38.7327 12.5982C38.6431 12.6942 38.5637 12.7979 38.4944 12.9095C38.4252 13.0211 38.3675 13.1384 38.3214 13.2613C38.2752 13.3843 38.2415 13.5105 38.2203 13.6401C38.199 13.7697 38.1906 13.9001 38.195 14.0314C38.1994 14.1627 38.2166 14.2922 38.2466 14.42C38.2765 14.5479 38.3186 14.6716 38.3729 14.7912C38.4272 14.9107 38.4927 15.0238 38.5693 15.1305C39.0701 15.828 39.3204 16.6058 39.3204 17.4641L39.3204 27.4641C39.3204 27.5296 39.3237 27.595 39.3301 27.6601C39.3365 27.7253 39.3461 27.79 39.3589 27.8543C39.3717 27.9185 39.3876 27.982 39.4066 28.0447C39.4256 28.1074 39.4476 28.169 39.4727 28.2295C39.4977 28.29 39.5257 28.3491 39.5567 28.4069C39.5875 28.4646 39.6212 28.5207 39.6576 28.5752C39.694 28.6297 39.7329 28.6822 39.7745 28.7329C39.816 28.7835 39.8599 28.832 39.9062 28.8783C39.9526 28.9246 40.0011 28.9686 40.0517 29.0101C40.1023 29.0517 40.1549 29.0907 40.2094 29.127C40.2638 29.1634 40.3199 29.197 40.3777 29.2279C40.4355 29.2588 40.4946 29.2868 40.555 29.3119C40.6156 29.337 40.6772 29.359 40.7399 29.378C40.8026 29.397 40.8661 29.4129 40.9303 29.4257C40.9945 29.4384 41.0592 29.448 41.1245 29.4545C41.1897 29.4609 41.255 29.4641 41.3204 29.4641C41.386 29.4641 41.4513 29.4609 41.5165 29.4545C41.5816 29.448 41.6464 29.4384 41.7107 29.4257C41.7749 29.4129 41.8384 29.397 41.9011 29.378C41.9637 29.359 42.0253 29.337 42.0858 29.3119C42.1463 29.2868 42.2055 29.2588 42.2633 29.2279C42.321 29.197 42.3771 29.1634 42.4316 29.127C42.486 29.0907 42.5386 29.0517 42.5893 29.0101C42.6399 28.9686 42.6883 28.9246 42.7346 28.8783C42.781 28.832 42.8249 28.7835 42.8665 28.7329C42.9081 28.6822 42.947 28.6297 42.9834 28.5752C43.0198 28.5207 43.0534 28.4646 43.0844 28.4069C43.1152 28.3491 43.1432 28.29 43.1683 28.2295C43.1933 28.169 43.2154 28.1074 43.2344 28.0447C43.2534 27.982 43.2693 27.9185 43.2821 27.8543C43.2948 27.79 43.3044 27.7253 43.3109 27.6601C43.3173 27.595 43.3204 27.5296 43.3204 27.4641L43.3204 17.4641C43.3204 16.6196 43.1902 15.7962 42.9297 14.9938ZM4.67944 17.4641L4.67944 24.3863C4.67944 24.4518 4.68265 24.5171 4.68907 24.5823C4.69549 24.6475 4.70509 24.7122 4.71787 24.7764C4.73065 24.8407 4.74655 24.9041 4.76556 24.9668C4.78458 25.0295 4.80662 25.0911 4.83168 25.1516C4.85675 25.2121 4.88472 25.2713 4.9156 25.329C4.94648 25.3868 4.98011 25.4429 5.0165 25.4974C5.05289 25.5519 5.09187 25.6044 5.13342 25.655C5.17497 25.7057 5.21891 25.7542 5.26523 25.8005C5.31154 25.8468 5.36002 25.8907 5.41066 25.9323C5.46129 25.9738 5.51384 26.0128 5.5683 26.0492C5.62277 26.0856 5.67888 26.1192 5.73665 26.1501C5.79442 26.181 5.85356 26.2089 5.91407 26.234C5.97459 26.2591 6.03619 26.2811 6.09887 26.3001C6.16156 26.3192 6.22502 26.3351 6.28926 26.3478C6.35351 26.3606 6.41822 26.3702 6.48341 26.3766C6.5486 26.3831 6.61394 26.3863 6.67944 26.3863C6.74495 26.3863 6.81029 26.3831 6.87548 26.3766C6.94067 26.3702 7.00538 26.3606 7.06962 26.3478C7.13387 26.3351 7.19733 26.3192 7.26001 26.3001C7.32269 26.2811 7.38429 26.2591 7.44481 26.234C7.50532 26.2089 7.56447 26.181 7.62224 26.1501C7.68001 26.1192 7.73612 26.0856 7.79058 26.0492C7.84505 26.0128 7.8976 25.9738 7.94823 25.9323C7.99886 25.8907 8.04734 25.8468 8.09366 25.8005C8.13997 25.7542 8.18391 25.7057 8.22546 25.655C8.26701 25.6044 8.30599 25.5519 8.34238 25.4974C8.37877 25.4429 8.41241 25.3868 8.44328 25.329C8.47416 25.2713 8.50213 25.2121 8.5272 25.1516C8.55227 25.0911 8.57431 25.0295 8.59332 24.9668C8.61234 24.9041 8.62823 24.8407 8.64101 24.7764C8.65379 24.7122 8.66339 24.6475 8.66981 24.5823C8.67623 24.5171 8.67944 24.4518 8.67944 24.3863L8.67944 17.4641C8.67944 16.7562 8.85497 16.095 9.20604 15.4803C9.23853 15.4234 9.26815 15.3651 9.2949 15.3053C9.32166 15.2455 9.34542 15.1845 9.36618 15.1224C9.38695 15.0603 9.40462 14.9973 9.4192 14.9334C9.43377 14.8696 9.44518 14.8052 9.45343 14.7402C9.46168 14.6752 9.46672 14.61 9.46856 14.5445C9.4704 14.479 9.46903 14.4136 9.46444 14.3483C9.45985 14.283 9.45207 14.218 9.4411 14.1534C9.43013 14.0888 9.41602 14.0249 9.39877 13.9617C9.38153 13.8986 9.36122 13.8364 9.33786 13.7752C9.3145 13.714 9.2882 13.6541 9.25895 13.5955C9.22971 13.5368 9.19766 13.4798 9.16281 13.4243C9.12796 13.3689 9.09048 13.3153 9.05036 13.2635C9.01025 13.2117 8.96769 13.162 8.92269 13.1144C8.87769 13.0668 8.83047 13.0215 8.78102 12.9786C8.73158 12.9356 8.68014 12.8952 8.62672 12.8573C8.57329 12.8194 8.51814 12.7842 8.46127 12.7517C8.34724 12.6866 8.22795 12.6332 8.1034 12.5915C7.97885 12.5499 7.85143 12.5208 7.72116 12.5043C7.59088 12.4878 7.46024 12.4841 7.32924 12.4933C7.19824 12.5025 7.0694 12.5244 6.94271 12.559C6.81602 12.5935 6.69393 12.6402 6.57642 12.6988C6.45891 12.7574 6.34826 12.8269 6.24445 12.9074C6.14064 12.9878 6.04567 13.0776 5.95954 13.1767C5.87341 13.2759 5.79779 13.3824 5.73266 13.4965C5.03052 14.7258 4.67944 16.0484 4.67944 17.4641ZM8.67944 37.4641L11.8307 39.2835C11.9444 39.3491 12.0634 39.403 12.1878 39.4453C12.3121 39.4875 12.4394 39.5172 12.5696 39.5343C12.6998 39.5514 12.8304 39.5557 12.9615 39.5471C13.0925 39.5385 13.2214 39.5172 13.3483 39.4833C13.4751 39.4493 13.5974 39.4032 13.7152 39.3451C13.833 39.287 13.944 39.218 14.0482 39.1381C14.1524 39.0582 14.2478 38.9688 14.3344 38.8701C14.421 38.7714 14.4971 38.6651 14.5627 38.5514C14.5955 38.4947 14.6254 38.4365 14.6524 38.3768C14.6794 38.3171 14.7035 38.2563 14.7246 38.1943C14.7456 38.1322 14.7635 38.0693 14.7785 38.0056C14.7933 37.9418 14.805 37.8774 14.8136 37.8124C14.8221 37.7475 14.8274 37.6823 14.8296 37.6168C14.8317 37.5513 14.8306 37.4859 14.8264 37.4206C14.8221 37.3552 14.8146 37.2902 14.804 37.2256C14.7933 37.161 14.7795 37.0971 14.7625 37.0338C14.7455 36.9705 14.7255 36.9082 14.7025 36.8469C14.6794 36.7856 14.6534 36.7255 14.6244 36.6668C14.5954 36.6081 14.5637 36.5509 14.5291 36.4953C14.4945 36.4396 14.4572 36.3858 14.4174 36.3339C14.3775 36.2819 14.3352 36.232 14.2904 36.1842C14.2456 36.1364 14.1986 36.0909 14.1494 36.0477C14.1001 36.0045 14.0488 35.9638 13.9956 35.9257C13.9424 35.8876 13.8874 35.8521 13.8307 35.8193L10.6794 34C10.0606 33.6427 9.57261 33.1547 9.21534 32.5359C8.85807 31.9171 8.67944 31.2504 8.67944 30.5359L8.67944 30.3863C8.67944 30.3208 8.67623 30.2554 8.66981 30.1902C8.66339 30.125 8.65379 30.0603 8.64101 29.9961C8.62823 29.9318 8.61234 29.8684 8.59332 29.8057C8.57431 29.743 8.55227 29.6814 8.5272 29.6209C8.50213 29.5604 8.47416 29.5012 8.44328 29.4435C8.41241 29.3857 8.37877 29.3296 8.34238 29.2751C8.30599 29.2206 8.26701 29.1681 8.22546 29.1175C8.18391 29.0668 8.13997 29.0183 8.09366 28.972C8.04734 28.9257 7.99886 28.8818 7.94823 28.8402C7.8976 28.7987 7.84505 28.7597 7.79058 28.7233C7.73612 28.6869 7.68001 28.6533 7.62224 28.6224C7.56447 28.5915 7.50532 28.5636 7.44481 28.5385C7.38429 28.5134 7.32269 28.4914 7.26001 28.4724C7.19733 28.4534 7.13387 28.4375 7.06962 28.4247C7.00538 28.4119 6.94067 28.4023 6.87548 28.3959C6.81029 28.3895 6.74495 28.3863 6.67944 28.3863C6.61394 28.3863 6.5486 28.3895 6.48341 28.3959C6.41822 28.4023 6.35351 28.4119 6.28926 28.4247C6.22502 28.4375 6.16156 28.4534 6.09887 28.4724C6.03619 28.4914 5.97459 28.5134 5.91407 28.5385C5.85356 28.5636 5.79442 28.5915 5.73665 28.6224C5.67888 28.6533 5.62277 28.6869 5.5683 28.7233C5.51384 28.7597 5.46129 28.7987 5.41066 28.8402C5.36002 28.8818 5.31154 28.9257 5.26523 28.972C5.21891 29.0183 5.17497 29.0668 5.13342 29.1175C5.09187 29.1681 5.05289 29.2206 5.0165 29.2751C4.98011 29.3296 4.94648 29.3857 4.9156 29.4435C4.88472 29.5012 4.85675 29.5604 4.83168 29.6209C4.80662 29.6814 4.78458 29.743 4.76556 29.8057C4.74655 29.8684 4.73065 29.9318 4.71787 29.9961C4.70509 30.0603 4.69549 30.125 4.68907 30.1902C4.68265 30.2554 4.67944 30.3208 4.67944 30.3863L4.67944 30.5359C4.67944 31.965 5.03671 33.2983 5.75124 34.5359C6.46577 35.7735 7.44183 36.7496 8.67944 37.4641ZM41.0734 36.0953C41.5847 35.566 42.0149 34.9773 42.3641 34.329C42.3951 34.2713 42.4233 34.2123 42.4486 34.1518C42.4738 34.0914 42.4961 34.0299 42.5153 33.9673C42.5345 33.9046 42.5506 33.8412 42.5636 33.777C42.5765 33.7128 42.5863 33.6481 42.593 33.583C42.5996 33.5178 42.603 33.4525 42.6032 33.387C42.6034 33.3215 42.6004 33.2561 42.5942 33.1909C42.588 33.1257 42.5786 33.061 42.566 32.9967C42.5534 32.9324 42.5377 32.8688 42.5189 32.8061C42.5 32.7434 42.4782 32.6817 42.4534 32.6211C42.4285 32.5605 42.4007 32.5013 42.37 32.4434C42.3393 32.3855 42.3059 32.3293 42.2696 32.2748C42.2334 32.2202 42.1945 32.1675 42.1532 32.1167C42.1118 32.066 42.068 32.0174 42.0219 31.9709C41.9757 31.9244 41.9273 31.8803 41.8769 31.8386C41.8263 31.7969 41.7739 31.7578 41.7196 31.7212C41.6652 31.6847 41.6092 31.6509 41.5516 31.6198C41.4359 31.5575 41.3153 31.5071 41.1898 31.4686C41.0642 31.4301 40.9361 31.4042 40.8055 31.3909C40.6748 31.3776 40.5441 31.3772 40.4134 31.3897C40.2827 31.4022 40.1544 31.4273 40.0287 31.465C39.9029 31.5027 39.782 31.5524 39.666 31.6139C39.5499 31.6754 39.4411 31.7477 39.3393 31.8307C39.2374 31.9137 39.1448 32.0058 39.0611 32.107C38.9776 32.2083 38.9046 32.3167 38.8424 32.4324C38.4834 33.099 37.9761 33.6215 37.3204 34L31.5038 37.3583C31.447 37.391 31.3921 37.4265 31.3389 37.4646C31.2856 37.5028 31.2343 37.5435 31.1851 37.5866C31.1358 37.6298 31.0888 37.6753 31.0441 37.7231C30.9993 37.7709 30.9569 37.8208 30.9171 37.8728C30.8772 37.9247 30.84 37.9785 30.8054 38.0342C30.7708 38.0898 30.739 38.147 30.7101 38.2057C30.6811 38.2645 30.655 38.3245 30.632 38.3858C30.6089 38.4471 30.5889 38.5094 30.572 38.5727C30.555 38.636 30.5411 38.6999 30.5305 38.7645C30.5198 38.8292 30.5123 38.8942 30.5081 38.9595C30.5038 39.0249 30.5027 39.0903 30.5049 39.1558C30.507 39.2213 30.5123 39.2865 30.5209 39.3514C30.5294 39.4163 30.5411 39.4807 30.5561 39.5445C30.5709 39.6083 30.5889 39.6712 30.6099 39.7332C30.6309 39.7952 30.655 39.856 30.6821 39.9157C30.7091 39.9754 30.739 40.0336 30.7718 40.0903C30.8374 40.204 30.9135 40.3103 31.0001 40.409C31.0867 40.5077 31.1821 40.5971 31.2863 40.677C31.3905 40.7569 31.5014 40.826 31.6192 40.8841C31.737 40.9422 31.8593 40.9882 31.9862 41.0222C32.113 41.0562 32.2419 41.0775 32.373 41.086C32.504 41.0946 32.6347 41.0903 32.7649 41.0732C32.8951 41.0561 33.0223 41.0264 33.1467 40.9842C33.271 40.942 33.39 40.8881 33.5038 40.8224L39.3204 37.4641C39.9692 37.0896 40.5535 36.6333 41.0734 36.0953ZM28 44L28.3077 43.8224C28.3643 43.7897 28.4193 43.7542 28.4726 43.716C28.5258 43.6779 28.5771 43.6372 28.6263 43.594C28.6755 43.5508 28.7226 43.5053 28.7674 43.4575C28.8121 43.4097 28.8544 43.3598 28.8944 43.3078C28.9342 43.2559 28.9715 43.2021 29.0061 43.1465C29.0406 43.0908 29.0724 43.0336 29.1014 42.9749C29.1304 42.9162 29.1564 42.8561 29.1795 42.7948C29.2025 42.7335 29.2225 42.6713 29.2395 42.608C29.2564 42.5447 29.2702 42.4808 29.2809 42.4161C29.2915 42.3515 29.299 42.2865 29.3034 42.2211C29.3076 42.1558 29.3087 42.0904 29.3066 42.0249C29.3044 41.9594 29.2991 41.8942 29.2905 41.8293C29.2819 41.7644 29.2702 41.7 29.2554 41.6362C29.2405 41.5724 29.2225 41.5095 29.2015 41.4474C29.1804 41.3854 29.1564 41.3246 29.1294 41.2649C29.1023 41.2052 29.0724 41.147 29.0397 41.0903C28.974 40.9766 28.8979 40.8703 28.8113 40.7716C28.7247 40.6729 28.6293 40.5835 28.5252 40.5036C28.421 40.4237 28.31 40.3547 28.1922 40.2966C28.0744 40.2385 27.9521 40.1924 27.8253 40.1585C27.6984 40.1245 27.5695 40.1032 27.4385 40.0946C27.3074 40.086 27.1768 40.0903 27.0466 40.1074C26.9164 40.1245 26.7891 40.1542 26.6648 40.1965C26.5404 40.2387 26.4213 40.2926 26.3077 40.3583L26 40.5359C25.3812 40.8932 24.7145 41.0718 24 41.0718C23.2854 41.0718 22.6188 40.8932 22 40.5359L19.0268 38.8193C18.9131 38.7537 18.7941 38.6998 18.6697 38.6575C18.5453 38.6153 18.4181 38.5856 18.2879 38.5685C18.1576 38.5514 18.027 38.5471 17.896 38.5557C17.765 38.5643 17.636 38.5856 17.5092 38.6195C17.3823 38.6535 17.26 38.6995 17.1423 38.7576C17.0245 38.8157 16.9135 38.8848 16.8093 38.9647C16.7051 39.0446 16.6097 39.134 16.5232 39.2327C16.4366 39.3314 16.3604 39.4377 16.2948 39.5514C16.262 39.6081 16.2321 39.6663 16.2051 39.726C16.1781 39.7857 16.154 39.8465 16.133 39.9085C16.1119 39.9706 16.0939 40.0335 16.0791 40.0972C16.0642 40.161 16.0525 40.2254 16.044 40.2903C16.0354 40.3553 16.03 40.4205 16.0279 40.486C16.0257 40.5515 16.0268 40.6169 16.0311 40.6822C16.0354 40.7475 16.0429 40.8125 16.0536 40.8772C16.0642 40.9418 16.078 41.0057 16.095 41.069C16.1119 41.1323 16.1319 41.1946 16.155 41.2559C16.178 41.3172 16.2041 41.3773 16.2331 41.436C16.2621 41.4947 16.2938 41.5519 16.3284 41.6075C16.363 41.6632 16.4002 41.717 16.4401 41.7689C16.48 41.8209 16.5223 41.8708 16.5671 41.9186C16.6119 41.9664 16.6589 42.0119 16.7082 42.0551C16.7574 42.0983 16.8086 42.139 16.8619 42.1771C16.9151 42.2152 16.9701 42.2507 17.0268 42.2835L20 44C21.2376 44.7145 22.5709 45.0718 24 45.0718C25.429 45.0718 26.7624 44.7145 28 44Z">
</path>
</svg>
