<svg xmlns="http://www.w3.org/2000/svg" xmlns:xlink="http://www.w3.org/1999/xlink" width="48" height="48" viewBox="0 0 48 48" fill="none">
<path d="M37 18C39.7614 18 42 15.7614 42 13C42 10.2386 39.7614 8 37 8C34.2386 8 32 10.2386 32 13C32 15.7614 34.2386 18 37 18ZM37 12C37.5523 12 38 12.4477 38 13C38 13.5523 37.5523 14 37 14C36.4477 14 36 13.5523 36 13C36 12.4477 36.4477 12 37 12Z" fill-rule="evenodd"  fill="#4187FF" >
</path>
<path d="M37 32C39.7614 32 42 29.7614 42 27C42 24.2386 39.7614 22 37 22C34.2386 22 32 24.2386 32 27C32 29.7614 34.2386 32 37 32ZM37 26C37.5523 26 38 26.4477 38 27C38 27.5523 37.5523 28 37 28C36.4477 28 36 27.5523 36 27C36 26.4477 36.4477 26 37 26Z" fill-rule="evenodd"  fill="#4187FF" >
</path>
<path d="M8 27C8 28.1046 8.89543 29 10 29L33.5 29C34.6046 29 35.5 28.1046 35.5 27C35.5 25.8954 34.6046 25 33.5 25L10 25C8.89543 25 8 25.8954 8 27Z" fill-rule="evenodd"  fill="#4187FF" >
</path>
<path d="M8 13C8 14.1046 8.89543 15 10 15L33 15C34.1046 15 35 14.1046 35 13C35 11.8954 34.1046 11 33 11L10 11C8.89543 11 8 11.8954 8 13Z" fill-rule="evenodd"  fill="#4187FF" >
</path>
<path d="M37 46C39.7614 46 42 43.7614 42 41C42 38.2386 39.7614 36 37 36C34.2386 36 32 38.2386 32 41C32 43.7614 34.2386 46 37 46ZM37 40C37.5523 40 38 40.4477 38 41C38 41.5523 37.5523 42 37 42C36.4477 42 36 41.5523 36 41C36 40.4477 36.4477 40 37 40Z" fill-rule="evenodd"  fill="#1764FF" >
</path>
<path d="M12 5C12 3.89543 11.1046 3 10 3C8.89543 3 8 3.89543 8 5L8 33C8 38.5228 12.4771 43 18 43L33 43C34.1046 43 35 42.1046 35 41C35 39.8954 34.1046 39 33 39L18 39C14.6863 39 12 36.3137 12 33L12 5Z" fill-rule="evenodd"  fill="#1764FF" >
</path>
</svg>
