<svg xmlns="http://www.w3.org/2000/svg" xmlns:xlink="http://www.w3.org/1999/xlink" width="48" height="48" viewBox="0 0 48 48" fill="none">
<path d="M24 5C13.51 5 5 13.51 5 24C5 34.49 13.51 43 24 43C34.49 43 43 34.49 43 24C43 13.51 34.49 5 24 5Z"   fill="#BEDCFF" >
</path>
<path d="M24 45C35.598 45 45 35.598 45 24C45 12.402 35.598 3 24 3C12.402 3 3 12.402 3 24C3 35.598 12.402 45 24 45ZM24 7C33.3888 7 41 14.6112 41 24C41 33.3888 33.3888 41 24 41C14.6112 41 7 33.3888 7 24C7 14.6112 14.6112 7 24 7Z" fill-rule="evenodd"  fill="#6BA6FF" >
</path>
<path d="M10 24L24 24L24 10C26.7689 10 29.4757 10.8211 31.778 12.3594C34.0803 13.8978 35.8747 16.0843 36.9343 18.6424C37.9939 21.2006 38.2712 24.0155 37.731 26.7313C37.1908 29.447 35.8574 31.9416 33.8995 33.8995C31.9416 35.8574 29.447 37.1908 26.7313 37.731C24.0155 38.2712 21.2006 37.9939 18.6424 36.9343C16.0843 35.8747 13.8978 34.0803 12.3594 31.778C10.8211 29.4757 10 26.7689 10 24Z"   fill="#1764FF" >
</path>
</svg>
