<svg xmlns="http://www.w3.org/2000/svg" xmlns:xlink="http://www.w3.org/1999/xlink" width="48" height="48" viewBox="0 0 48 48" fill="none">
<path d="M24 45C35.598 45 45 35.598 45 24C45 12.402 35.598 3 24 3C12.402 3 3 12.402 3 24C3 35.598 12.402 45 24 45ZM24 7C33.3888 7 41 14.6112 41 24C41 33.3888 33.3888 41 24 41C14.6112 41 7 33.3888 7 24C7 14.6112 14.6112 7 24 7Z" fill-rule="evenodd"  fill="#000000" >
</path>
<path d="M16.0872 31.9143C16.8683 32.6953 18.1347 32.6952 18.9156 31.9141L31.913 18.9141C32.694 18.1329 32.6939 16.8666 31.9127 16.0857C31.1316 15.3047 29.8653 15.3048 29.0843 16.0859L16.0869 29.0859C15.306 29.867 15.3061 31.1334 16.0872 31.9143Z" fill-rule="evenodd"  fill="#000000" >
</path>
<path d="M31.9136 31.9137C32.6947 31.1327 32.6947 29.8664 31.9136 29.0853L18.9148 16.0864C18.1337 15.3053 16.8674 15.3054 16.0863 16.0864C15.3053 16.8674 15.3053 18.1338 16.0863 18.9148L29.0852 31.9137C29.8663 32.6948 31.1326 32.6948 31.9136 31.9137Z" fill-rule="evenodd"  fill="#000000" >
</path>
</svg>
