<svg xmlns="http://www.w3.org/2000/svg" xmlns:xlink="http://www.w3.org/1999/xlink" width="48" height="48" viewBox="0 0 48 48" fill="none">
<path d="M24 45C35.598 45 45 35.598 45 24C45 12.402 35.598 3 24 3C12.402 3 3 12.402 3 24C3 35.598 12.402 45 24 45ZM24 7C33.3888 7 41 14.6112 41 24C41 33.3888 33.3888 41 24 41C14.6112 41 7 33.3888 7 24C7 14.6112 14.6112 7 24 7Z" fill-rule="evenodd"  fill="#000000" >
</path>
<path d="M24 31C22.62 31 21.5 32.12 21.5 33.5C21.5 34.88 22.62 36 24 36C25.38 36 26.5 34.88 26.5 33.5C26.5 32.12 25.38 31 24 31Z"   fill="#000000" >
</path>
<path d="M24.001 11C22.8964 11 22.001 11.8954 22.001 13L22.001 27C22.001 28.1046 22.8964 29 24.001 29C25.1055 29 26.001 28.1046 26.001 27L26.001 13C26.001 11.8954 25.1055 11 24.001 11Z" fill-rule="evenodd"  fill="#000000" >
</path>
</svg>
