<svg xmlns="http://www.w3.org/2000/svg" xmlns:xlink="http://www.w3.org/1999/xlink" width="48" height="48" viewBox="0 0 48 48" fill="none">
<path d="M42 4L38 4C35.2386 4 33 6.23858 33 9L33 40C33 42.7614 35.2386 45 38 45L42 45C44.7614 45 47 42.7614 47 40L47 9C47 6.23858 44.7614 4 42 4ZM37 9C37 8.44772 37.4477 8 38 8L42 8C42.5523 8 43 8.44772 43 9L43 40C43 40.5523 42.5523 41 42 41L38 41C37.4477 41 37 40.5523 37 40L37 9Z" fill-rule="evenodd"  fill="#000000" >
</path>
<path d="M22 16L26 16C27.6568 16 29 17.3431 29 19L29 40C29 41.6569 27.6568 43 26 43L22 43C20.3431 43 19 41.6569 19 40L19 19C19 17.3431 20.3431 16 22 16Z"   fill="#000000" >
</path>
<path d="M26 14L22 14C19.2386 14 17 16.2386 17 19L17 40C17 42.7614 19.2386 45 22 45L26 45C28.7614 45 31 42.7614 31 40L31 19C31 16.2386 28.7614 14 26 14ZM21 19C21 18.4477 21.4477 18 22 18L26 18C26.5523 18 27 18.4477 27 19L27 40C27 40.5523 26.5523 41 26 41L22 41C21.4477 41 21 40.5523 21 40L21 19Z" fill-rule="evenodd"  fill="#000000" >
</path>
<path d="M6 26L10 26C11.6568 26 13 27.3431 13 29L13 40C13 41.6569 11.6568 43 10 43L6 43C4.34315 43 3 41.6569 3 40L3 29C3 27.3431 4.34315 26 6 26Z"   fill="#000000" >
</path>
<path d="M10 24L6 24C3.23858 24 1 26.2386 1 29L1 40C1 42.7614 3.23858 45 6 45L10 45C12.7614 45 15 42.7614 15 40L15 29C15 26.2386 12.7614 24 10 24ZM5 29C5 28.4477 5.44772 28 6 28L10 28C10.5523 28 11 28.4477 11 29L11 40C11 40.5523 10.5523 41 10 41L6 41C5.44772 41 5 40.5523 5 40L5 29Z" fill-rule="evenodd"  fill="#000000" >
</path>
</svg>
