<svg xmlns="http://www.w3.org/2000/svg" xmlns:xlink="http://www.w3.org/1999/xlink" width="48" height="48" viewBox="0 0 48 48" fill="none">
<path d="M32.5858 16.4142C32.2239 16.0523 32 15.5523 32 15C32 13.8954 32.8954 13 34 13C34.5523 13 35.0523 13.2239 35.4142 13.5858L43.6187 21.7903C44.8391 23.0107 44.8391 24.9893 43.6187 26.2097L35.4153 34.4132L35.4142 34.4142C35.0523 34.7761 34.5523 35 34 35C32.8954 35 32 34.1046 32 33C32 32.4477 32.2239 31.9477 32.5858 31.5858L32.5868 31.5847L40.1716 24L32.5861 16.4145L32.5858 16.4142Z" fill-rule="evenodd"  fill="#FF1A1A" >
</path>
<path d="M42 26L25 26L25 22L42 22L42 26Z" fill-rule="evenodd"  fill="#FF1A1A" >
</path>
<path d="M25 24C25 29.5228 20.5228 34 15 34C9.47715 34 5 29.5228 5 24C5 18.4771 9.47715 14 15 14C20.5228 14 25 18.4771 25 24Z"   fill="#FFC7BF" >
</path>
<path d="M15 36C21.6274 36 27 30.6274 27 24C27 17.3726 21.6274 12 15 12C8.37258 12 3 17.3726 3 24C3 30.6274 8.37258 36 15 36ZM15 16C19.4183 16 23 19.5817 23 24C23 28.4183 19.4183 32 15 32C10.5817 32 7 28.4183 7 24C7 19.5817 10.5817 16 15 16Z" fill-rule="evenodd"  fill="#FF1A1A" >
</path>
</svg>
