<svg xmlns="http://www.w3.org/2000/svg" xmlns:xlink="http://www.w3.org/1999/xlink" width="48" height="48" viewBox="0 0 48 48" fill="none">
<path d="M24 5C13.51 5 5 13.51 5 24C5 34.49 13.51 43 24 43C34.49 43 43 34.49 43 24C43 13.51 34.49 5 24 5Z"   fill="#AFECDA" >
</path>
<path d="M24 45C35.598 45 45 35.598 45 24C45 12.402 35.598 3 24 3C12.402 3 3 12.402 3 24C3 35.598 12.402 45 24 45ZM24 7C33.3888 7 41 14.6112 41 24C41 33.3888 33.3888 41 24 41C14.6112 41 7 33.3888 7 24C7 14.6112 14.6112 7 24 7Z" fill-rule="evenodd"  fill="#51C5AA" >
</path>
<path d="M34.4726 19.3533L23.1643 31.7433C21.587 33.4714 18.8698 33.4828 17.2781 31.768L12.5378 26.6608L12.5341 26.6569C12.2027 26.3 12 25.8218 12 25.2963C12 24.1917 12.8954 23.2963 14 23.2963C14.5814 23.2963 15.1048 23.5443 15.4702 23.9404L20.2099 29.0468L31.5174 16.6576L31.5228 16.6517C31.8885 16.2512 32.4149 16 33 16C34.1046 16 35 16.8954 35 18C35 18.5195 34.8019 18.9927 34.4772 19.3483L34.4726 19.3533Z" fill-rule="evenodd"  fill="#0D9E86" >
</path>
</svg>
