<svg xmlns="http://www.w3.org/2000/svg" xmlns:xlink="http://www.w3.org/1999/xlink" width="48" height="48" viewBox="0 0 48 48" fill="none">
<path d="M42 18L38 18C35.2386 18 33 20.2386 33 23L33 26C33 28.7614 35.2386 31 38 31L42 31C44.7614 31 47 28.7614 47 26L47 23C47 20.2386 44.7614 18 42 18ZM37 23C37 22.4477 37.4477 22 38 22L42 22C42.5523 22 43 22.4477 43 23L43 26C43 26.5523 42.5523 27 42 27L38 27C37.4477 27 37 26.5523 37 26L37 23Z" fill-rule="evenodd"  fill="#808080" >
</path>
<path d="M26 18L22 18C19.2386 18 17 20.2386 17 23L17 26C17 28.7614 19.2386 31 22 31L26 31C28.7614 31 31 28.7614 31 26L31 23C31 20.2386 28.7614 18 26 18ZM21 23C21 22.4477 21.4477 22 22 22L26 22C26.5523 22 27 22.4477 27 23L27 26C27 26.5523 26.5523 27 26 27L22 27C21.4477 27 21 26.5523 21 26L21 23Z" fill-rule="evenodd"  fill="#555555" >
</path>
<path d="M10 18L6 18C3.23858 18 1 20.2386 1 23L1 26C1 28.7614 3.23858 31 6 31L10 31C12.7614 31 15 28.7614 15 26L15 23C15 20.2386 12.7614 18 10 18ZM5 23C5 22.4477 5.44772 22 6 22L10 22C10.5523 22 11 22.4477 11 23L11 26C11 26.5523 10.5523 27 10 27L6 27C5.44772 27 5 26.5523 5 26L5 23Z" fill-rule="evenodd"  fill="#808080" >
</path>
</svg>
