<svg xmlns="http://www.w3.org/2000/svg" xmlns:xlink="http://www.w3.org/1999/xlink" width="48" height="48" viewBox="0 0 48 48" fill="none">
<path d="M45.0005 24.0005C45.0005 35.6005 35.6005 45.0005 24.0005 45.0005C12.4005 45.0005 3.00049 35.6005 3.00049 24.0005C3.00049 12.4005 12.4005 3.00049 24.0005 3.00049C35.6005 3.00049 45.0005 12.4005 45.0005 24.0005ZM7.00049 24.0005C7.00049 14.6105 14.6105 7.00049 24.0005 7.00049C33.3905 7.00049 41.0005 14.6105 41.0005 24.0005C41.0005 33.3905 33.3905 41.0005 24.0005 41.0005C14.6105 41.0005 7.00049 33.3905 7.00049 24.0005ZM16 20L32 20C33.1 20 34 19.1 34 18C34 16.9 33.1 16 32 16L16 16C14.9 16 14 16.9 14 18C14 19.1 14.9 20 16 20ZM32 32L16 32C14.9 32 14 31.1 14 30C14 28.9 14.9 28 16 28L32 28C33.1 28 34 28.9 34 30C34 31.1 33.1 32 32 32Z" fill-rule="evenodd"  fill="#000000" >
</path>
</svg>
