<svg xmlns="http://www.w3.org/2000/svg" xmlns:xlink="http://www.w3.org/1999/xlink" width="48" height="48" viewBox="0 0 48 48" fill="none">
<path d="M13 36.9998L13.0004 32.0411C13.0001 32.0274 13 32.0137 13 32C13 31.9862 13.0001 31.9724 13.0004 31.9586L13.0009 25.9998C13.001 25.5938 13.0798 25.2043 13.2376 24.8315C13.3895 24.4724 13.6035 24.1547 13.8797 23.8786C14.1558 23.6025 14.4735 23.3884 14.8326 23.2365C15.2055 23.0788 15.5949 23 16.0009 23L19.5 23C22.5376 23 25 25.4624 25 28.5C25 31.5376 22.5376 34 19.5 34L17.0002 34L17 37L17 37.0002C16.9999 38.1047 16.1045 39 15 39C13.8954 39 13 38.1046 13 37L13 36.9998ZM29.9998 34L30.9833 34L31.0006 33.9999L31.0164 34L31.0167 34L31.5001 34.0001C31.6382 34.0001 31.756 34.0489 31.8536 34.1465C31.9512 34.2442 32 34.362 32 34.5C32 34.7762 31.7762 35 31.5 35L28 35C26.8954 35 26 35.8954 26 37C26 38.1046 26.8954 39 28 39L31.5 39C33.9853 39 36 36.9853 36 34.5C36 33.8907 35.8819 33.3066 35.6456 32.748C35.4179 32.2095 35.0968 31.7329 34.6823 31.3183C34.2678 30.9038 33.7913 30.5826 33.2527 30.3547C32.6942 30.1184 32.1102 30.0002 31.5008 30.0001L31.017 30L31.0167 30L30.9994 30.0001L30.9833 30L29.9998 30C29.7238 30 29.5 29.7763 29.5 29.5003C29.5 29.2243 29.7238 29.0005 29.9998 29.0005L33.5 29.0005C34.6046 29.0005 35.5 28.1051 35.5 27.0005C35.5 25.8959 34.6046 25.0005 33.5 25.0005L29.9998 25.0005C27.5146 25.0005 25.5 27.0151 25.5 29.5003C25.5 31.9854 27.5146 34 29.9998 34ZM19.5 30L17.0006 30L17.0008 27L19.5 27C20.3284 27 21 27.6716 21 28.5C21 29.3284 20.3284 30 19.5 30Z" fill-rule="evenodd"  fill="#424242" >
</path>
<path d="M25.5 3L15 3C10.5817 3 7 6.58172 7 11L7 37C7 41.4183 10.5817 45 15 45L33 45C37.4183 45 41 41.4183 41 37L41 17L40.9703 17C40.9147 16.442 40.7811 15.899 40.5696 15.3711C40.2827 14.655 39.8728 14.0178 39.3401 13.4598L31.1285 4.85714C31.04 4.76445 30.9493 4.67505 30.8562 4.58896C30.3911 4.15871 29.8687 3.81101 29.289 3.54585C29.2427 3.52463 29.1959 3.50395 29.1488 3.48379C28.9603 3.40316 28.7698 3.3326 28.5773 3.27213C28.2251 3.16153 27.866 3.08464 27.5 3.04147L27.5 3L25.5 3ZM36.9072 17C36.9065 16.998 36.9059 16.996 36.9053 16.9941C36.8907 16.9486 36.8744 16.9035 36.8565 16.8588C36.7609 16.6201 36.6243 16.4077 36.4467 16.2217L28.2351 7.61905C28.2115 7.59434 28.1874 7.57033 28.1629 7.54703C27.9909 7.38393 27.795 7.25533 27.5752 7.16126C27.5503 7.15058 27.5252 7.14043 27.5 7.13082L27.5 13C27.5 15.2091 29.2909 17 31.5 17L36.9072 17ZM23.5 13L23.5 7L15 7C12.7909 7 11 8.79086 11 11L11 37C11 39.2091 12.7909 41 15 41L33 41C35.2091 41 37 39.2091 37 37L37 21L31.5 21C27.0817 21 23.5 17.4183 23.5 13Z" fill-rule="evenodd"  fill="#787878" >
</path>
</svg>
