<svg xmlns="http://www.w3.org/2000/svg" xmlns:xlink="http://www.w3.org/1999/xlink" width="48" height="48" viewBox="0 0 48 48" fill="none">
<path d="M12 5.5C9.23858 5.5 7 7.73858 7 10.5C7 13.2614 9.23858 15.5 12 15.5C14.7614 15.5 17 13.2614 17 10.5C17 7.73858 14.7614 5.5 12 5.5Z"   fill="#BEDCFF" >
</path>
<path d="M12 17.5C15.866 17.5 19 14.366 19 10.5C19 6.63401 15.866 3.5 12 3.5C8.13401 3.5 5 6.63401 5 10.5C5 14.366 8.13401 17.5 12 17.5ZM12 7.5C13.6568 7.5 15 8.84315 15 10.5C15 12.1568 13.6568 13.5 12 13.5C10.3431 13.5 9 12.1568 9 10.5C9 8.84315 10.3431 7.5 12 7.5Z" fill-rule="evenodd"  fill="#4187FF" >
</path>
<path d="M17 37C17 39.7614 14.7614 42 12 42C9.23858 42 7 39.7614 7 37C7 34.2386 9.23858 32 12 32C14.7614 32 17 34.2386 17 37Z"   fill="#BEDCFF" >
</path>
<path d="M12 44C15.866 44 19 40.866 19 37C19 33.134 15.866 30 12 30C8.13401 30 5 33.134 5 37C5 40.866 8.13401 44 12 44ZM12 34C13.6568 34 15 35.3432 15 37C15 38.6568 13.6568 40 12 40C10.3431 40 9 38.6568 9 37C9 35.3432 10.3431 34 12 34Z" fill-rule="evenodd"  fill="#4187FF" >
</path>
<path d="M12 15C10.8954 15 10 15.8954 10 17L10 31C10 32.1046 10.8954 33 12 33C13.1046 33 14 32.1046 14 31L14 17C14 15.8954 13.1046 15 12 15Z" fill-rule="evenodd"  fill="#4187FF" >
</path>
<path d="M38 42C40.7614 42 43 39.7614 43 37C43 34.2386 40.7614 32 38 32C35.2386 32 33 34.2386 33 37C33 39.7614 35.2386 42 38 42Z"   fill="#BEDCFF" >
</path>
<path d="M45 37C45 40.866 41.866 44 38 44C34.134 44 31 40.866 31 37C31 33.134 34.134 30 38 30C41.866 30 45 33.134 45 37ZM35 37C35 38.6569 36.3432 40 38 40C39.6568 40 41 38.6569 41 37C41 35.3432 39.6568 34 38 34C36.3432 34 35 35.3432 35 37Z" fill-rule="evenodd"  fill="#1764FF" >
</path>
<path d="M29.5 8.5C28.3954 8.5 27.5 9.3954 27.5 10.5C27.5 11.6046 28.3954 12.5 29.5 12.5L31.9998 12.5C34.209 12.5 35.9999 14.2909 35.9999 16.5L35.9999 32C35.9999 33.1046 36.8953 34 37.9999 34C39.1044 34 39.9998 33.1046 39.9998 32L39.9998 16.5C39.9998 12.0817 36.4181 8.5 31.9998 8.5L29.5 8.5Z" fill-rule="evenodd"  fill="#1764FF" >
</path>
<path d="M30.5 14.5001L30.5 6.5001C30.5 4.71829 28.3457 3.82596 27.0858 5.08589L23.5572 8.61448C22.5158 9.65588 22.5158 11.3443 23.5572 12.3857L27.0858 15.9143C28.3457 17.1742 30.5 16.2819 30.5 14.5001Z" fill-rule="evenodd"  fill="#1764FF" >
</path>
</svg>
