<svg xmlns="http://www.w3.org/2000/svg" xmlns:xlink="http://www.w3.org/1999/xlink" width="48" height="48" viewBox="0 0 48 48" fill="none">
<path d="M7.32748 38.66C8.07797 38.7537 9.07728 37.9555 10.3275 36.25C10.7967 38.0576 11.7336 39.7069 13.1475 41.21C12.3986 41.5263 11.7825 41.8695 11.2975 42.23C10.2337 43.0251 9.97653 43.8965 10.5275 44.85C10.9759 45.6219 13.1068 46 16.9075 46C19.7576 46 22.1194 45.8966 23.9975 45.69C25.8818 45.8966 28.2482 46 31.0975 46C34.8991 46 37.0198 45.6206 37.4675 44.85C38.0214 43.8914 37.762 43.0227 36.6875 42.23C36.2105 41.8715 35.6016 41.5275 34.8475 41.21C36.265 39.7043 37.207 38.0459 37.6775 36.24C38.9298 37.9469 39.93 38.7546 40.6875 38.66C41.594 38.5583 42.0308 37.5922 41.9975 35.75C41.9671 34.0656 41.5689 31.9487 40.7875 29.4C40.5078 28.4785 40.0506 27.1663 39.4175 25.47L39.3375 25.27L39.3175 25.25L37.6675 21.03C37.6841 20.4415 37.6875 20.0303 37.6875 19.79C37.6875 15.2134 36.6431 11.4045 34.5475 8.37C32.0736 4.78779 28.5547 3 23.9975 3C19.4406 3 15.9285 4.78748 13.4575 8.37C11.3655 11.403 10.3175 15.2122 10.3175 19.79C10.3175 20.0303 10.3309 20.4419 10.3475 21.03L8.84748 24.82L8.82748 24.82L8.57748 25.47C7.98889 27.047 7.5408 28.3521 7.21748 29.39C6.43526 31.9413 6.02466 34.0641 5.99748 35.75C5.96781 37.591 6.41291 38.5574 7.32748 38.66Z" fill-rule="evenodd"  fill="#4187FF" >
</path>
<path d="M8.44922 25.8198C8.49116 25.7063 8.53575 25.5863 8.57922 25.4698L8.82922 24.8198L8.84922 24.8198L10.3492 20.9902L10.3459 20.9902L10.3459 20.9902C14.6888 21.6647 19.2397 21.9998 23.9992 21.9998C28.7587 21.9998 33.3063 21.6643 37.6492 20.9898L37.6692 20.9898C37.6692 20.9393 37.6692 20.8876 37.6692 20.8398C37.6692 20.9015 37.6692 20.9637 37.6692 21.0298L39.3192 25.2498L39.3392 25.2698L39.4192 25.4698C39.4628 25.5867 39.5072 25.7066 39.5492 25.8198C35.7339 26.3646 29.9799 26.9998 23.9992 26.9998C22.1258 26.9998 20.275 26.9328 18.4992 26.8298L18.4992 31.9998C18.4992 31.9998 18.1712 32.4998 16.2492 32.4998C14.3273 32.4998 13.9992 31.9998 13.9992 31.9998L13.9992 26.4798C11.9033 26.2751 10.0114 26.043 8.44922 25.8198Z" fill-rule="evenodd"  fill="#1764FF" >
</path>
<path d="M23.9974 3C23.9441 3 23.8903 3 23.8374 3C19.3578 3.04129 15.8996 4.82934 13.4574 8.37C11.3654 11.403 10.3174 15.2122 10.3174 19.79C10.3174 20.0246 10.3313 20.4242 10.3474 20.99C14.6902 21.6645 19.2379 22 23.9974 22C28.7569 22 33.3145 21.6645 37.6574 20.99L37.6674 20.99C37.683 20.425 37.6874 20.0243 37.6874 19.79C37.6874 15.2134 36.643 11.4045 34.5474 8.37C32.0741 4.78858 28.5531 3 23.9974 3Z" fill-rule="evenodd"  fill="#6BA6FF" >
</path>
</svg>
