<svg xmlns="http://www.w3.org/2000/svg" xmlns:xlink="http://www.w3.org/1999/xlink" width="48" height="48" viewBox="0 0 48 48" fill="none">
<path d="M35.2988 20.69C35.2988 20.65 35.3188 19.88 35.3188 19.48C35.3188 19.1018 35.3089 18.7234 35.2888 18.3462L35.2888 16.7C35.2372 16.7 35.1859 16.7009 35.1348 16.7028C34.364 11.0167 31.1234 6 24.4988 6C16.8188 6 13.6788 12.76 13.6788 19.48C13.6788 19.88 13.7088 20.65 13.7088 20.69L12.1488 24.62C11.7288 25.75 11.3188 26.92 10.9988 27.93C9.53883 32.71 10.0088 34.7 10.3688 34.74C11.1488 34.84 13.3888 31.13 13.3888 31.13C13.3888 33.28 14.4788 36.08 16.8288 38.1C15.9488 38.37 14.8788 38.8 14.1788 39.32C13.5588 39.78 13.6388 40.25 13.7488 40.45C14.2488 41.29 22.2088 40.98 24.4988 40.72C26.7988 40.98 34.7588 41.29 35.2588 40.45C35.3688 40.25 35.4488 39.78 34.8188 39.32C34.1288 38.8 33.0488 38.37 32.1688 38.09C34.5188 36.08 35.6088 33.28 35.6088 31.13C35.6088 31.13 37.8488 34.84 38.6288 34.74C38.9888 34.7 39.4688 32.71 37.9988 27.93C37.6988 26.92 37.2688 25.75 36.8488 24.62L36.8388 24.62L35.2988 20.69ZM35.2988 20.69L35.2888 20.7C35.2988 20.7 35.2988 20.69 35.2988 20.69ZM39.3138 19.9726L39.5675 20.62L39.6294 20.62L40.5982 23.2264C41.1832 24.8002 41.5911 25.9761 41.8221 26.7542C42.5774 29.2103 42.9699 31.307 42.9995 33.0443C43.0147 33.9326 42.931 34.7118 42.7485 35.382C42.6008 35.9245 42.3851 36.4101 42.1014 36.8389C41.84 37.2341 41.5268 37.5745 41.1618 37.86C40.5428 38.3442 39.8681 38.6267 39.1375 38.7075C39.1291 38.7086 39.1208 38.7096 39.1126 38.7106C39.1534 38.8399 39.1888 38.9712 39.2187 39.1045C39.3535 39.7034 39.3711 40.304 39.2715 40.9063C39.1851 41.4288 39.0159 41.9192 38.7637 42.3777L38.7308 42.4374L38.696 42.4959C38.0787 43.533 37.1033 44.2278 35.7699 44.5805C35.3043 44.7036 34.7433 44.7979 34.0869 44.8634C33.1595 44.9559 31.979 45.0006 30.5453 44.9975C29.3759 44.995 28.156 44.9628 26.8854 44.9009C25.9361 44.8546 25.1408 44.8013 24.4995 44.741C23.8602 44.8013 23.0664 44.8546 22.1182 44.9009C20.8492 44.9628 19.6301 44.995 18.4611 44.9975C17.028 45.0006 15.8478 44.9559 14.9205 44.8634C14.2642 44.7979 13.7032 44.7036 13.2376 44.5805C11.9043 44.2278 10.9289 43.533 10.3117 42.4959L10.2768 42.4374L10.244 42.3777C9.99314 41.9216 9.82425 41.4337 9.73726 40.9139C9.63744 40.3172 9.65251 39.7218 9.78248 39.1277C9.8133 38.9868 9.85014 38.8481 9.89297 38.7116C9.12934 38.6207 8.44208 38.3356 7.83122 37.8563C7.46548 37.5693 7.15202 37.2273 6.89085 36.8302C6.60833 36.4007 6.39394 35.9145 6.2477 35.3715C6.06778 34.7034 5.98587 33.9262 6.00199 33.0398C6.03348 31.3077 6.42803 29.2018 7.18564 26.7219C7.51448 25.684 7.92961 24.4914 8.43102 23.1442L9.68617 19.9822C9.68127 19.7743 9.67883 19.6069 9.67883 19.48C9.67883 17.3927 9.92605 15.4071 10.4205 13.5233C10.9731 11.4181 11.8049 9.55995 12.9161 7.94892C14.1972 6.09143 15.7833 4.65445 17.6744 3.63798C19.7059 2.54599 21.9808 2 24.4988 2C27.019 2 29.2951 2.5459 31.327 3.63771C33.219 4.65433 34.8053 6.09176 36.0861 7.95002C37.1964 9.56097 38.0274 11.4193 38.579 13.5251C39.0722 15.4077 39.3188 17.3927 39.3188 19.48C39.3188 19.6018 39.3172 19.766 39.3138 19.9726Z" fill-rule="evenodd"  fill="#000000" >
</path>
</svg>
