<svg xmlns="http://www.w3.org/2000/svg" xmlns:xlink="http://www.w3.org/1999/xlink" width="48" height="48" viewBox="0 0 48 48" fill="none">
<path d="M4.50685 9.82449C4.50228 9.7167 4.5 9.60853 4.5 9.5C4.5 8.51 4.69 7.55 5.07 6.63C5.45 5.71 5.99 4.9 6.7 4.2C7.4 3.49 8.21 2.95 9.13 2.57C10.05 2.19 11.01 2 12 2C12.99 2 13.95 2.19 14.87 2.57C15.79 2.95 16.6 3.49 17.3 4.2C18.01 4.9 18.55 5.71 18.93 6.63C19.31 7.55 19.5 8.51 19.5 9.5C19.5 10.49 19.31 11.45 18.93 12.37C18.55 13.29 18.01 14.1 17.3 14.8C16.6 15.51 15.79 16.05 14.87 16.43C13.95 16.81 12.99 17 12 17C11.3247 17 10.6634 16.9116 10.0192 16.7348C10.1151 16.856 10.2154 16.9744 10.32 17.09C10.88 17.7 11.51 18.17 12.23 18.5C12.95 18.83 13.71 19 14.5 19C14.57 19 14.63 19 14.7 19.01C14.76 19.02 14.83 19.03 14.89 19.04C14.95 19.05 15.02 19.07 15.08 19.09C15.14 19.11 15.2 19.13 15.27 19.15C15.33 19.18 15.39 19.21 15.44 19.24C15.5 19.27 15.56 19.3 15.61 19.34C15.67 19.37 15.72 19.41 15.77 19.45C15.82 19.5 15.87 19.54 15.91 19.59C15.96 19.63 16 19.68 16.05 19.73C16.09 19.78 16.13 19.83 16.16 19.89C16.2 19.94 16.23 20 16.26 20.06C16.29 20.11 16.32 20.17 16.35 20.23C16.37 20.3 16.39 20.36 16.41 20.42C16.43 20.48 16.45 20.55 16.46 20.61C16.47 20.67 16.48 20.74 16.49 20.8C16.5 20.87 16.5 20.93 16.5 21C16.5 21.07 16.5 21.13 16.49 21.2C16.48 21.26 16.47 21.33 16.46 21.39C16.45 21.45 16.43 21.52 16.41 21.58C16.39 21.64 16.37 21.7 16.35 21.77C16.32 21.83 16.29 21.88 16.26 21.94C16.23 22 16.2 22.06 16.16 22.11C16.13 22.17 16.09 22.22 16.05 22.27C16 22.32 15.96 22.37 15.91 22.41C15.87 22.46 15.82 22.5 15.77 22.55C15.72 22.59 15.67 22.63 15.61 22.66C15.56 22.7 15.5 22.73 15.44 22.76C15.39 22.79 15.33 22.82 15.27 22.85C15.2 22.87 15.14 22.89 15.08 22.91C15.02 22.93 14.95 22.95 14.89 22.96C14.83 22.97 14.76 22.98 14.7 22.99C14.63 23 14.57 23 14.5 23C13.12 23 11.8 22.71 10.55 22.13C9.34 21.57 8.29 20.79 7.37 19.79C6.46 18.79 5.76 17.66 5.26 16.38C4.75 15.06 4.5 13.69 4.5 12.25L4.5 10C4.5 9.93829 4.5 9.88436 4.50685 9.82449ZM34.66 28.27C35.09 28.09 35.54 28 36 28C36.46 28 36.91 28.09 37.34 28.27C37.77 28.44 38.15 28.7 38.48 29.02C38.8 29.35 39.06 29.73 39.23 30.16C39.41 30.59 39.5 31.04 39.5 31.5C39.5 31.96 39.41 32.41 39.23 32.84C39.06 33.27 38.8 33.65 38.48 33.98C38.15 34.3 37.77 34.56 37.34 34.73C36.91 34.91 36.46 35 36 35C35.54 35 35.09 34.91 34.66 34.73C34.23 34.56 33.85 34.3 33.52 33.98C33.2 33.65 32.94 33.27 32.77 32.84C32.59 32.41 32.5 31.96 32.5 31.5C32.5 31.04 32.59 30.59 32.77 30.16C32.94 29.73 33.2 29.35 33.52 29.02C33.85 28.7 34.23 28.44 34.66 28.27ZM15.77 30.16C15.94 29.73 16.2 29.35 16.52 29.02C16.85 28.7 17.23 28.44 17.66 28.27C18.09 28.09 18.54 28 19 28C19.46 28 19.91 28.09 20.34 28.27C20.77 28.44 21.15 28.7 21.48 29.02C21.8 29.35 22.06 29.73 22.23 30.16C22.41 30.59 22.5 31.04 22.5 31.5C22.5 31.96 22.41 32.41 22.23 32.84C22.06 33.27 21.8 33.65 21.48 33.98C21.15 34.3 20.77 34.56 20.34 34.73C19.91 34.91 19.46 35 19 35C18.54 35 18.09 34.91 17.66 34.73C17.23 34.56 16.85 34.3 16.52 33.98C16.2 33.65 15.94 33.27 15.77 32.84C15.59 32.41 15.5 31.96 15.5 31.5C15.5 31.04 15.59 30.59 15.77 30.16ZM31.5 43C31.5 42.93 31.5 42.87 31.51 42.8C31.52 42.74 31.53 42.67 31.54 42.61C31.55 42.55 31.57 42.48 31.59 42.42C31.61 42.36 31.63 42.3 31.65 42.23C31.68 42.17 31.71 42.11 31.74 42.06C31.77 42 31.8 41.94 31.84 41.89C31.87 41.83 31.91 41.78 31.95 41.73C32 41.68 32.04 41.63 32.09 41.59C32.13 41.54 32.18 41.5 32.23 41.45C32.28 41.41 32.33 41.37 32.39 41.34C32.44 41.3 32.5 41.27 32.56 41.24C32.61 41.21 32.67 41.18 32.73 41.15C32.8 41.13 32.86 41.11 32.92 41.09C32.98 41.07 33.05 41.05 33.11 41.04C33.17 41.03 33.24 41.02 33.3 41.01C33.37 41 33.43 41 33.5 41C34.29 41 35.05 40.83 35.77 40.5C36.49 40.17 37.12 39.7 37.68 39.09C37.7846 38.9744 37.8849 38.856 37.9808 38.7348C37.3366 38.9116 36.6753 39 36 39C35.01 39 34.05 38.81 33.13 38.43C32.21 38.05 31.4 37.51 30.7 36.8C29.99 36.1 29.45 35.29 29.07 34.37C28.69 33.45 28.5 32.49 28.5 31.5C28.5 30.51 28.69 29.55 29.07 28.63C29.45 27.71 29.99 26.9 30.7 26.2C31.4 25.49 32.21 24.95 33.13 24.57C34.05 24.19 35.01 24 36 24C36.99 24 37.95 24.19 38.87 24.57C39.79 24.95 40.6 25.49 41.3 26.2C42.01 26.9 42.55 27.71 42.93 28.63C43.31 29.55 43.5 30.51 43.5 31.5C43.5 31.6085 43.4977 31.7167 43.4931 31.8245C43.5 31.8844 43.5 31.9383 43.5 32L43.5 34.25C43.5 35.69 43.25 37.06 42.74 38.38C42.24 39.66 41.54 40.79 40.63 41.79C39.71 42.79 38.66 43.57 37.45 44.13C36.2 44.71 34.88 45 33.5 45C33.43 45 33.37 45 33.3 44.99C33.24 44.98 33.17 44.97 33.11 44.96C33.05 44.95 32.98 44.93 32.92 44.91C32.86 44.89 32.8 44.87 32.73 44.85C32.67 44.82 32.61 44.79 32.56 44.76C32.5 44.73 32.44 44.7 32.39 44.66C32.33 44.63 32.28 44.59 32.23 44.55C32.18 44.5 32.13 44.46 32.09 44.41C32.04 44.37 32 44.32 31.95 44.27C31.91 44.22 31.87 44.17 31.84 44.11C31.8 44.06 31.77 44 31.74 43.94C31.71 43.88 31.68 43.83 31.65 43.77C31.63 43.7 31.61 43.64 31.59 43.58C31.57 43.52 31.55 43.45 31.54 43.39C31.53 43.33 31.52 43.26 31.51 43.2C31.5 43.13 31.5 43.07 31.5 43ZM16.13 24.57C15.21 24.95 14.4 25.49 13.7 26.2C12.99 26.9 12.45 27.71 12.07 28.63C11.69 29.55 11.5 30.51 11.5 31.5C11.5 32.49 11.69 33.45 12.07 34.37C12.45 35.29 12.99 36.1 13.7 36.8C14.4 37.51 15.21 38.05 16.13 38.43C17.05 38.81 18.01 39 19 39C19.6753 39 20.3366 38.9116 20.9808 38.7348C20.8849 38.856 20.7846 38.9744 20.68 39.09C20.12 39.7 19.49 40.17 18.77 40.5C18.05 40.83 17.29 41 16.5 41C16.43 41 16.37 41 16.3 41.01C16.24 41.02 16.17 41.03 16.11 41.04C16.05 41.05 15.98 41.07 15.92 41.09C15.86 41.11 15.8 41.13 15.73 41.15C15.67 41.18 15.61 41.21 15.56 41.24C15.5 41.27 15.44 41.3 15.39 41.34C15.33 41.37 15.28 41.41 15.23 41.45C15.18 41.5 15.13 41.54 15.09 41.59C15.04 41.63 15 41.68 14.95 41.73C14.91 41.78 14.87 41.83 14.84 41.89C14.8 41.94 14.77 42 14.74 42.06C14.71 42.11 14.68 42.17 14.65 42.23C14.63 42.3 14.61 42.36 14.59 42.42C14.57 42.48 14.55 42.55 14.54 42.61C14.53 42.67 14.52 42.74 14.51 42.8C14.5 42.87 14.5 42.93 14.5 43C14.5 43.07 14.5 43.13 14.51 43.2C14.52 43.26 14.53 43.33 14.54 43.39C14.55 43.45 14.57 43.52 14.59 43.58C14.61 43.64 14.63 43.7 14.65 43.77C14.68 43.83 14.71 43.88 14.74 43.94C14.77 44 14.8 44.06 14.84 44.11C14.87 44.17 14.91 44.22 14.95 44.27C15 44.32 15.04 44.37 15.09 44.41C15.13 44.46 15.18 44.5 15.23 44.55C15.28 44.59 15.33 44.63 15.39 44.66C15.44 44.7 15.5 44.73 15.56 44.76C15.61 44.79 15.67 44.82 15.73 44.85C15.8 44.87 15.86 44.89 15.92 44.91C15.98 44.93 16.05 44.95 16.11 44.96C16.17 44.97 16.24 44.98 16.3 44.99C16.37 45 16.43 45 16.5 45C17.88 45 19.2 44.71 20.45 44.13C21.66 43.57 22.71 42.79 23.63 41.79C24.54 40.79 25.24 39.66 25.74 38.38C26.25 37.06 26.5 35.69 26.5 34.25L26.5 32C26.5 31.9383 26.5 31.8844 26.4932 31.8245C26.4977 31.7167 26.5 31.6085 26.5 31.5C26.5 30.51 26.31 29.55 25.93 28.63C25.55 27.71 25.01 26.9 24.3 26.2C23.6 25.49 22.79 24.95 21.87 24.57C20.95 24.19 19.99 24 19 24C18.01 24 17.05 24.19 16.13 24.57ZM30.34 6.27C30.77 6.44 31.15 6.7 31.48 7.02C31.8 7.35 32.06 7.73 32.23 8.16C32.41 8.59 32.5 9.04 32.5 9.5C32.5 9.96 32.41 10.41 32.23 10.84C32.06 11.27 31.8 11.65 31.48 11.98C31.15 12.3 30.77 12.56 30.34 12.73C29.91 12.91 29.46 13 29 13C28.54 13 28.09 12.91 27.66 12.73C27.23 12.56 26.85 12.3 26.52 11.98C26.2 11.65 25.94 11.27 25.77 10.84C25.59 10.41 25.5 9.96 25.5 9.5C25.5 9.04 25.59 8.59 25.77 8.16C25.94 7.73 26.2 7.35 26.52 7.02C26.85 6.7 27.23 6.44 27.66 6.27C28.09 6.09 28.54 6 29 6C29.46 6 29.91 6.09 30.34 6.27ZM32.44 19.24C32.5 19.27 32.56 19.3 32.61 19.34C32.67 19.37 32.72 19.41 32.77 19.45C32.82 19.5 32.87 19.54 32.91 19.59C32.96 19.63 33 19.68 33.05 19.73C33.09 19.78 33.13 19.83 33.16 19.89C33.2 19.94 33.23 20 33.26 20.06C33.29 20.11 33.32 20.17 33.35 20.23C33.37 20.3 33.39 20.36 33.41 20.42C33.43 20.48 33.45 20.55 33.46 20.61C33.47 20.67 33.48 20.74 33.49 20.8C33.5 20.87 33.5 20.93 33.5 21C33.5 21.07 33.5 21.13 33.49 21.2C33.48 21.26 33.47 21.33 33.46 21.39C33.45 21.45 33.43 21.52 33.41 21.58C33.39 21.64 33.37 21.7 33.35 21.77C33.32 21.83 33.29 21.88 33.26 21.94C33.23 22 33.2 22.06 33.16 22.11C33.13 22.17 33.09 22.22 33.05 22.27C33 22.32 32.96 22.37 32.91 22.41C32.87 22.46 32.82 22.5 32.77 22.55C32.72 22.59 32.67 22.63 32.61 22.66C32.56 22.7 32.5 22.73 32.44 22.76C32.39 22.79 32.33 22.82 32.27 22.85C32.2 22.87 32.14 22.89 32.08 22.91C32.02 22.93 31.95 22.95 31.89 22.96C31.83 22.97 31.76 22.98 31.7 22.99C31.63 23 31.57 23 31.5 23C30.12 23 28.8 22.71 27.55 22.13C26.34 21.57 25.29 20.79 24.37 19.79C23.46 18.79 22.76 17.66 22.26 16.38C21.75 15.06 21.5 13.69 21.5 12.25L21.5 10C21.5 9.93829 21.5 9.88436 21.5068 9.82449C21.5023 9.7167 21.5 9.60853 21.5 9.5C21.5 8.51 21.69 7.55 22.07 6.63C22.45 5.71 22.99 4.9 23.7 4.2C24.4 3.49 25.21 2.95 26.13 2.57C27.05 2.19 28.01 2 29 2C29.99 2 30.95 2.19 31.87 2.57C32.79 2.95 33.6 3.49 34.3 4.2C35.01 4.9 35.55 5.71 35.93 6.63C36.31 7.55 36.5 8.51 36.5 9.5C36.5 10.49 36.31 11.45 35.93 12.37C35.55 13.29 35.01 14.1 34.3 14.8C33.6 15.51 32.79 16.05 31.87 16.43C30.95 16.81 29.99 17 29 17C28.3247 17 27.6634 16.9116 27.0192 16.7348C27.1151 16.856 27.2154 16.9744 27.32 17.09C27.88 17.7 28.51 18.17 29.23 18.5C29.95 18.83 30.71 19 31.5 19C31.57 19 31.63 19 31.7 19.01C31.76 19.02 31.83 19.03 31.89 19.04C31.95 19.05 32.02 19.07 32.08 19.09C32.14 19.11 32.2 19.13 32.27 19.15C32.33 19.18 32.39 19.21 32.44 19.24ZM15.23 10.84C15.06 11.27 14.8 11.65 14.48 11.98C14.15 12.3 13.77 12.56 13.34 12.73C12.91 12.91 12.46 13 12 13C11.54 13 11.09 12.91 10.66 12.73C10.23 12.56 9.85 12.3 9.52 11.98C9.2 11.65 8.94 11.27 8.77 10.84C8.59 10.41 8.5 9.96 8.5 9.5C8.5 9.04 8.59 8.59 8.77 8.16C8.94 7.73 9.2 7.35 9.52 7.02C9.85 6.7 10.23 6.44 10.66 6.27C11.09 6.09 11.54 6 12 6C12.46 6 12.91 6.09 13.34 6.27C13.77 6.44 14.15 6.7 14.48 7.02C14.8 7.35 15.06 7.73 15.23 8.16C15.41 8.59 15.5 9.04 15.5 9.5C15.5 9.96 15.41 10.41 15.23 10.84Z" fill-rule="evenodd"  fill="#000000" >
</path>
</svg>
