<svg xmlns="http://www.w3.org/2000/svg" xmlns:xlink="http://www.w3.org/1999/xlink" width="48" height="48" viewBox="0 0 48 48" fill="none">
<path d="M15 5L33 5C36.3137 5 39 7.68629 39 11L39 37C39 40.3137 36.3137 43 33 43L15 43C11.6863 43 9 40.3137 9 37L9 11C9 7.68629 11.6863 5 15 5Z"   fill="#FFC7BF" >
</path>
<path d="M33 3L15 3C10.5817 3 7 6.58172 7 11L7 37C7 41.4183 10.5817 45 15 45L33 45C37.4183 45 41 41.4183 41 37L41 11C41 6.58172 37.4183 3 33 3ZM11 11C11 8.79086 12.7909 7 15 7L33 7C35.2091 7 37 8.79086 37 11L37 37C37 39.2091 35.2091 41 33 41L15 41C12.7909 41 11 39.2091 11 37L11 11Z" fill-rule="evenodd"  fill="#FF4943" >
</path>
<path d="M9 11L9 13C9 13 12.52 20 24.01 20C35.5 20 39 13 39 13L39 11C39 7.68629 36.3137 5 33 5L15 5C11.6863 5 9 7.68629 9 11Z"   fill="#FF766C" >
</path>
<path d="M33 3L15 3C10.5817 3 7 6.58172 7 11L7 13C7 13.312 7.07301 13.6197 7.21319 13.8985C7.93942 15.3427 9.19856 16.7418 10.9906 18.0958C14.4356 20.6986 18.7754 22 24.01 22C29.2453 22 33.5823 20.6982 37.021 18.0945C38.8103 16.7398 40.0662 15.3397 40.7889 13.8944C40.8583 13.7556 40.9111 13.6096 40.9201 13.5713C40.9222 13.5624 40.9219 13.5593 40.919 13.5635C40.9725 13.3811 41 13.1913 41 13L41 11C41 6.58172 37.4183 3 33 3ZM11 11C11 8.79086 12.7909 7 15 7L33 7C35.2091 7 37 8.79086 37 11L37 12.4808C36.516 13.2555 35.7181 14.0637 34.6064 14.9055C31.8818 16.9685 28.3497 18 24.01 18C19.6696 18 16.1335 16.9681 13.4019 14.9043C12.2874 14.0622 11.4868 13.2536 11 12.4783L11 11Z" fill-rule="evenodd"  fill="#FF1A1A" >
</path>
<path d="M29 20C29 22.7614 26.7614 25 24 25C21.2386 25 19 22.7614 19 20C19 17.2386 21.2386 15 24 15C26.7614 15 29 17.2386 29 20Z"   fill="#FF766C" >
</path>
<path d="M24 27C27.866 27 31 23.866 31 20C31 16.134 27.866 13 24 13C20.134 13 17 16.134 17 20C17 23.866 20.134 27 24 27ZM24 17C25.6568 17 27 18.3432 27 20C27 21.6568 25.6568 23 24 23C22.3432 23 21 21.6568 21 20C21 18.3432 22.3432 17 24 17Z" fill-rule="evenodd"  fill="#FF1A1A" >
</path>
</svg>
