<svg xmlns="http://www.w3.org/2000/svg" xmlns:xlink="http://www.w3.org/1999/xlink" width="48" height="48" viewBox="0 0 48 48" fill="none">
<path d="M24.17 32.7169L24.17 39.81C24.2001 42.3854 21.1453 43.7872 19.1914 42.0737L3.23176 28.2728C0.966263 26.3239 0.911762 22.8285 3.11856 20.8057L19.1358 6.06822C21.0492 4.27426 24.1999 5.66134 24.1699 8.30274L24.17 15.4439C29.0837 16.0084 33.6729 18.672 37.9374 23.4346C40.9319 26.7787 43.5349 30.8516 45.7465 35.6533L45.7726 35.7099L45.7951 35.768C46.2953 37.0602 45.9754 38.0981 44.8355 38.8818C43.7365 39.6374 42.6801 39.5931 41.6663 38.749C36.8296 35.0523 30.9975 33.0416 24.17 32.7169ZM20.17 37.632L20.17 28.67L22.17 28.67C28.8259 28.67 34.7092 30.0486 39.8197 32.8058C34.7764 23.8219 28.8931 19.33 22.17 19.33L20.17 19.33L20.1701 10.5521L5.82136 23.7543C5.38126 24.1578 5.39166 24.8544 5.84816 25.2472L20.17 37.632ZM20.17 39.7859L20.17 39.81C20.1699 39.8019 20.1699 39.7939 20.17 39.7859ZM20.1701 8.28216C20.17 8.27391 20.17 8.26561 20.1701 8.25728L20.1701 8.28216ZM44.1193 35.5894C44.1302 35.5975 44.1411 35.6058 44.1519 35.6143L44.137 35.6029C44.1311 35.5984 44.1252 35.5939 44.1193 35.5894Z" fill-rule="evenodd"  fill="#000000" >
</path>
</svg>
