<svg xmlns="http://www.w3.org/2000/svg" xmlns:xlink="http://www.w3.org/1999/xlink" width="48" height="48" viewBox="0 0 48 48" fill="none">
<path d="M6 11L6 40C6 41.0491 6.30967 42.0691 6.92901 43.06C8.15401 45.02 10.1777 46 13 46L38 46C40.2091 46 42 44.2091 42 42L42 9C42 5.68629 39.3137 3 36 3L14 3C9.58172 3 6 6.58172 6 11ZM10 40C10 41.3333 11 42 13 42L38 42L38 38L13 38C11 38 10 38.6667 10 40ZM38 34L13 34C11.8725 34 10.8725 34.1564 10 34.4692L10 11C10 8.79086 11.7909 7 14 7L36 7C37.1046 7 38 7.89543 38 9L38 34Z" fill-rule="evenodd"  fill="#6BA6FF" >
</path>
<path d="M13 36L40 36L40 9C40 6.79 38.21 5 36 5L14 5C10.69 5 8 7.69 8 11L8 40C8 40 8 36 13 36Z"   fill="#BEDCFF" >
</path>
<path d="M15 9C13.3432 9 12 10.3432 12 12L12 21.2034C12 23.5548 14.5823 24.9922 16.5808 23.7531L19 22.2532L21.4192 23.7531C23.4177 24.9922 26 23.5548 26 21.2034L26 12C26 10.3432 24.6569 9 23 9L15 9Z" fill-rule="evenodd"  fill="#1764FF" >
</path>
<path d="M6 11L6 40L6.01547 40C6.00526 40.0819 6 40.1653 6 40.25C6 41.3546 6.89543 42.25 8 42.25C9.10457 42.25 10 41.3546 10 40.25C10 40.1653 9.99474 40.0819 9.98453 40L10 40C10 38.6667 11 38 13 38L40 38C41.1046 38 42 37.1046 42 36L42 9C42 5.68629 39.3137 3 36 3L14 3C9.58172 3 6 6.58173 6 11ZM10 34.4692C10.8725 34.1564 11.8725 34 13 34L38 34L38 9C38 7.89543 37.1046 7 36 7L14 7C11.7909 7 10 8.79087 10 11L10 34.4692Z" fill-rule="evenodd"  fill="#4187FF" >
</path>
<path d="M6 11L6 22.5C6 23.6046 6.89543 24.5 8 24.5C9.10457 24.5 10 23.6046 10 22.5L10 11C10 8.79086 11.7909 7 14 7L36 7C37.1046 7 38 7.89543 38 9L38 22.5C38 23.6046 38.8954 24.5 40 24.5C41.1046 24.5 42 23.6046 42 22.5L42 9C42 5.68629 39.3137 3 36 3L14 3C9.58172 3 6 6.58172 6 11Z" fill-rule="evenodd"  fill="#1764FF" >
</path>
</svg>
