<svg xmlns="http://www.w3.org/2000/svg" xmlns:xlink="http://www.w3.org/1999/xlink" width="48" height="48" viewBox="0 0 48 48" fill="none">
<path d="M24 6C27.3137 6 30 8.68629 30 12L30 16C30 17.1046 30.8954 18 32 18C33.1046 18 34 17.1046 34 16L34 12C34 6.47715 29.5228 2 24 2C18.4771 2 14 6.47715 14 12L14 16C14 17.1046 14.8954 18 16 18C17.1046 18 18 17.1046 18 16L18 12C18 8.68629 20.6863 6 24 6Z" fill-rule="evenodd"  fill="#787878" >
</path>
<path d="M24 10.6831C23.4422 10.6831 22.9078 10.7949 22.3967 11.0185L15.1984 14.1678L15.1768 14.1773L10.3537 16.3554C9.63731 16.679 9.06593 17.1709 8.63956 17.8313C8.21319 18.4917 8 19.2149 8 20.0009L8 28.9923C8 31.7991 8.68625 34.3668 10.0588 36.6955C11.1741 38.5877 12.7144 40.2718 14.6798 41.7477C16.1419 42.8455 17.7916 43.7947 19.629 44.5952C20.7855 45.0991 21.9151 45.5043 23.0177 45.8109C23.672 45.9928 24.3239 45.9936 24.9734 45.8134C26.0731 45.5082 27.2006 45.1044 28.356 44.6018C30.1943 43.8021 31.8452 42.8536 33.3087 41.7563C35.277 40.2803 36.8198 38.5957 37.937 36.7026C39.3123 34.3721 40 31.802 40 28.9923L40 20.0009C40 19.2149 39.7868 18.4917 39.3604 17.8313C38.9341 17.1709 38.3627 16.679 37.6463 16.3554L32.8231 14.1773L32.8016 14.1678L25.6033 11.0185C25.0922 10.7949 24.5578 10.6831 24 10.6831ZM16.8125 17.8277L24 14.6831L31.1876 17.8277L36 20.0009L36 28.9923C36 32.8231 34.303 36.011 30.909 38.5561C29.6954 39.4661 28.3126 40.2586 26.7605 40.9338C25.8103 41.347 24.8901 41.6798 24 41.9321C23.1049 41.6783 22.1805 41.3437 21.2266 40.9282C19.6756 40.2524 18.294 39.4594 17.0817 38.5491C13.6939 36.0051 12 32.8195 12 28.9923L12 20.0009L16.8125 17.8277Z" fill-rule="evenodd"  fill="#424242" >
</path>
<path d="M24.001 34C25.1055 34 26.001 33.1046 26.001 32L26.001 25C26.001 23.8954 25.1055 23 24.001 23C22.8964 23 22.001 23.8954 22.001 25L22.001 32C22.001 33.1046 22.8964 34 24.001 34Z" fill-rule="evenodd"  fill="#787878" >
</path>
</svg>
