<svg xmlns="http://www.w3.org/2000/svg" xmlns:xlink="http://www.w3.org/1999/xlink" width="48" height="48" viewBox="0 0 48 48" fill="none">
<path d="M3 29L3 13C3 8.58172 6.58172 5 11 5L37 5C41.4183 5 45 8.58172 45 13L45 17.6357C44.0252 16.7577 42.7182 15.8908 41 15.2918L41 13C41 10.7909 39.2091 9 37 9L11 9C8.79086 9 7 10.7909 7 13L7 29C7 31.2091 8.79086 33 11 33L17 33C18.6569 33 20 34.3431 20 36L20 39.3503L22.9751 36.5317C24.0766 37.8451 25.4286 38.4597 26.4527 38.7472L22.751 42.2541C20.2016 44.6693 16 42.862 16 39.3503L16 37L11 37C6.58172 37 3 33.4183 3 29Z" fill-rule="evenodd"  fill="#787878" >
</path>
<path d="M29.6574 19.0055L27.4576 19.9248C26.7134 20.2359 26.1177 20.7271 25.6706 21.3985C25.2235 22.0699 25 22.8089 25 23.6155L25 29.0637C25 30.5861 25.3658 31.9934 26.0973 33.2855C26.6977 34.3458 27.5287 35.2971 28.5906 36.1391C29.398 36.7794 30.3216 37.3431 31.3613 37.8303C32.0865 38.1701 32.8344 38.4581 33.6051 38.6942C34.5359 38.9793 35.4688 38.9784 36.4036 38.6915C37.175 38.4547 37.9233 38.1661 38.6485 37.8257C39.6873 37.3381 40.6099 36.7741 41.4163 36.1336C42.4764 35.2917 43.306 34.3409 43.9052 33.2811C44.6351 31.9901 45 30.5843 45 29.0637L45 23.6155C45 22.8089 44.7765 22.0699 44.3294 21.3985C43.8823 20.7271 43.2867 20.2359 42.5424 19.9248L40.3426 19.0055L40.3426 19.0055L40.3323 19.0012L40.322 18.997L36.5011 17.4501C36.0197 17.2552 35.5194 17.1577 35 17.1577C34.4806 17.1577 33.9803 17.2552 33.4989 17.4501L29.678 18.997L29.6677 19.0012L29.6574 19.0055L29.6574 19.0055ZM31.1895 22.7005L29 23.6155L29 29.0637C29 30.5937 29.692 31.9075 31.076 33.005C31.6397 33.452 32.3005 33.853 33.0585 34.2082C33.6133 34.4681 34.186 34.6886 34.7768 34.8696C34.9257 34.9153 35.0767 34.9146 35.2298 34.8676C35.8211 34.6861 36.3942 34.4651 36.9489 34.2047C37.706 33.8494 38.3659 33.4482 38.9286 33.0013C40.3095 31.9046 41 30.592 41 29.0637L41 23.6155L38.8105 22.7005L35 21.1577L31.1895 22.7005Z" fill-rule="evenodd"  fill="#424242" >
</path>
</svg>
