<svg xmlns="http://www.w3.org/2000/svg" xmlns:xlink="http://www.w3.org/1999/xlink" width="48" height="48" viewBox="0 0 48 48" fill="none">
<path d="M3 11L3 31C3 35.42 6.58 39 11 39L21.5866 39C21.222 37.9179 21.0002 36.6014 21 35L11 35C8.79 35 7 33.21 7 31L7 17.01L21.67 23.19C23.16 23.82 24.84 23.82 26.32 23.19L26.33 23.19L41 17.01L41 19.8306C41.7421 20.0973 42.4179 20.4148 43.03 20.7682C43.7818 21.1981 44.4358 21.6751 45 22.1609L45 11C45 6.58 41.42 3 37 3L11 3C6.58 3 3 6.58 3 11ZM41 11C41 8.79 39.21 7 37 7L11 7C8.79 7 7 8.79 7 11L7 12.67L23.23 19.51C23.73 19.72 24.28 19.72 24.77 19.51L41 12.67L41 11ZM25 34.0577C25 37.1677 26.44 39.7077 29.31 41.6677C30.79 42.6777 32.45 43.4177 34.28 43.8777C34.75 44.0177 35.25 44.0177 35.72 43.8777C37.55 43.4177 39.21 42.6777 40.69 41.6677C43.56 39.7077 45 37.1677 45 34.0577L45 28.6177C45 27.0077 44.03 25.5377 42.53 24.9177L40.34 24.0077L36.5 22.4477C35.53 22.0577 34.47 22.0577 33.51 22.4377L29.68 23.9977L27.46 24.9277C25.97 25.5377 25 26.9977 25 28.6177L25 34.0577ZM41 34.0577L41 28.6177L41.01 28.6177L38.8 27.6977L35 26.1577L34.99 26.1577L31.18 27.7077L29 28.6177L29 34.0577C29 36.9077 31 38.8577 35 39.9377C39 38.8577 41 36.9077 41 34.0577Z" fill-rule="evenodd"  fill="#000000" >
</path>
</svg>
