<svg xmlns="http://www.w3.org/2000/svg" xmlns:xlink="http://www.w3.org/1999/xlink" width="48" height="48" viewBox="0 0 48 48" fill="none">
<path d="M10.5499 6.28869C7.51664 7.04417 6 8.98489 6 12.1109L6 25.9933C6 32.3922 8.52671 37.3735 13.5801 40.9372C16.4043 42.9289 19.592 44.2456 23.1431 44.8874C23.7134 44.9905 24.2812 44.9911 24.8467 44.8893C28.3944 44.2502 31.581 42.9359 34.4067 40.9465C39.4689 37.3825 42 32.3981 42 25.9933L42 12.1109C42 8.98489 40.4834 7.04417 37.4501 6.28869L25.4501 3.29996C24.4834 3.05919 23.5166 3.05919 22.5499 3.29996L10.5499 6.28869Z" fill-rule="evenodd"  fill="#0D9E86" >
</path>
<path d="M35.9493 39.7497C35.4642 40.165 34.95 40.5639 34.4067 40.9465C31.581 42.9359 28.3943 44.2502 24.8467 44.8893C24.2812 44.9911 23.7134 44.9905 23.1431 44.8874C19.5919 44.2456 16.4043 42.9289 13.5801 40.9372C13.0416 40.5574 12.5318 40.1616 12.0507 39.7496C12.5516 34.8348 16.7029 31 21.75 31L26.25 31C31.2971 31 35.4485 34.8349 35.9493 39.7497Z" fill-rule="evenodd"  fill="#51C5AA" >
</path>
<path d="M37.6888 38.052C36.4696 32.8631 31.8109 29 26.25 29L21.75 29C16.1891 29 11.5305 32.863 10.3112 38.0519C11.2482 39.0993 12.3378 40.0611 13.5801 40.9372C13.7192 41.0353 13.8591 41.1317 14 41.2265L14 40.75C14 36.4698 17.4698 33 21.75 33L26.25 33C30.5302 33 34 36.4698 34 40.75L34 41.2265C34.1364 41.1347 34.2719 41.0414 34.4067 40.9465C35.6545 40.068 36.7485 39.1031 37.6888 38.052Z" fill-rule="evenodd"  fill="#E8FFF7" >
</path>
<path d="M24 13C20.69 13 18 15.69 18 19C18 22.31 20.69 25 24 25C27.31 25 30 22.31 30 19C30 15.69 27.31 13 24 13Z"   fill="#51C5AA" >
</path>
<path d="M24 27C28.4183 27 32 23.4183 32 19C32 14.5817 28.4183 11 24 11C19.5817 11 16 14.5817 16 19C16 23.4183 19.5817 27 24 27ZM24 15C26.2091 15 28 16.7909 28 19C28 21.2091 26.2091 23 24 23C21.7909 23 20 21.2091 20 19C20 16.7909 21.7909 15 24 15Z" fill-rule="evenodd"  fill="#E8FFF2" >
</path>
</svg>
