<svg xmlns="http://www.w3.org/2000/svg" xmlns:xlink="http://www.w3.org/1999/xlink" width="48" height="48" viewBox="0 0 48 48" fill="none">
<path d="M4 36C4 40.4183 7.58172 44 12 44L36 44C40.4183 44 44 40.4183 44 36L44 12C44 7.58172 40.4183 4 36 4L12 4C7.58172 4 4 7.58172 4 12L4 36ZM36 40L12 40C9.79086 40 8 38.2091 8 36L8 12C8 9.79086 9.79086 8 12 8L36 8C38.2091 8 40 9.79086 40 12L40 36C40 38.2091 38.2091 40 36 40Z" fill-rule="evenodd"  fill="#787878" >
</path>
<path d="M24.0001 36C27.8661 36 31.0001 32.866 31.0001 29C31.0001 25.134 27.8661 22 24.0001 22C20.1341 22 17.0001 25.134 17.0001 29C17.0001 32.866 20.1341 36 24.0001 36ZM24.0001 26C25.657 26 27.0001 27.3432 27.0001 29C27.0001 30.6568 25.657 32 24.0001 32C22.3433 32 21.0001 30.6568 21.0001 29C21.0001 27.3432 22.3433 26 24.0001 26Z" fill-rule="evenodd"  fill="#424242" >
</path>
<path d="M25.9999 14C25.9999 12.8954 25.1044 12 23.9999 12C22.8953 12 21.9999 12.8954 21.9999 14L21.9999 24C21.9999 25.1046 22.8953 26 23.9999 26C25.1044 26 25.9999 25.1046 25.9999 24L25.9999 14Z" fill-rule="evenodd"  fill="#424242" >
</path>
<path d="M14 12C14 13.1046 13.1046 14 12 14C10.8954 14 10 13.1046 10 12C10 10.8954 10.8954 10 12 10C13.1046 10 14 10.8954 14 12Z"   fill="#424242" >
</path>
<path d="M14 36C14 37.1046 13.1046 38 12 38C10.8954 38 10 37.1046 10 36C10 34.8954 10.8954 34 12 34C13.1046 34 14 34.8954 14 36Z"   fill="#424242" >
</path>
<path d="M37.9999 12C37.9999 13.1046 37.1044 14 35.9999 14C34.8953 14 33.9999 13.1046 33.9999 12C33.9999 10.8954 34.8953 10 35.9999 10C37.1044 10 37.9999 10.8954 37.9999 12Z"   fill="#424242" >
</path>
<path d="M37.9999 36C37.9999 37.1046 37.1044 38 35.9999 38C34.8953 38 33.9999 37.1046 33.9999 36C33.9999 34.8954 34.8953 34 35.9999 34C37.1044 34 37.9999 34.8954 37.9999 36Z"   fill="#424242" >
</path>
</svg>
