<svg xmlns="http://www.w3.org/2000/svg" xmlns:xlink="http://www.w3.org/1999/xlink" width="48" height="48" viewBox="0 0 48 48" fill="none">
<path d="M6 12.1109C6 11.4313 6.11176 10.7718 6.33527 10.1322C6.55299 9.5091 6.86537 8.93715 7.2724 8.41632C7.67943 7.89547 8.15893 7.45413 8.7109 7.09227C9.27753 6.72081 9.89054 6.45296 10.5499 6.28873L22.5499 3.29996C23.5166 3.05919 24.4834 3.05919 25.4501 3.29996L37.4501 6.28873C38.1095 6.45296 38.7225 6.7208 39.2891 7.09227C39.8411 7.45413 40.3206 7.89547 40.7276 8.41632C41.1346 8.93715 41.447 9.5091 41.6647 10.1322C41.8882 10.7718 42 11.4313 42 12.1109L42 25.9933C42 29.4539 41.2308 32.5318 39.6923 35.2269C39.1217 36.2266 38.4523 37.1616 37.6841 38.032L37.6846 38.0342C36.7426 39.1035 35.6517 40.0752 34.4101 40.9494C34.2788 41.0418 34.1462 41.1329 34.0123 41.2227L34.0118 41.2179C32.4306 42.2784 30.6665 43.154 28.7194 43.8448C27.3954 44.3146 26.1045 44.6627 24.8467 44.8893C24.2813 44.9911 23.7134 44.9905 23.1431 44.8874C21.8819 44.6595 20.5887 44.3099 19.2634 43.8387C17.3229 43.1488 15.5646 42.2752 13.9883 41.218L13.9881 41.2201C13.8507 41.1279 13.7147 41.0344 13.5801 40.9394C12.3446 40.0681 11.256 39.0997 10.3154 38.0346L10.316 38.0321C9.54563 37.1592 8.87461 36.2214 8.30294 35.2186C6.76765 32.5254 6 29.4503 6 25.9933L6 12.1109ZM14.9775 36.9795C15.2675 37.2164 15.5701 37.4459 15.8854 37.6683C17.2657 38.6417 18.8384 39.4422 20.6034 40.0698C21.7237 40.4682 22.8074 40.762 23.8545 40.9512C23.9514 40.9688 24.0457 40.9692 24.1376 40.9526C25.1814 40.7646 26.2629 40.472 27.382 40.075C29.1482 39.4484 30.7222 38.6487 32.104 37.6758C32.4232 37.4511 32.7294 37.219 33.0226 36.9794C31.6981 34.6055 29.1616 33 26.2501 33L21.7501 33C18.8386 33 16.302 34.6055 14.9775 36.9795ZM35.8104 33.9174C33.6788 30.9401 30.191 29 26.2501 29L21.7501 29C17.8091 29 14.3213 30.9402 12.1897 33.9175C10.7299 31.6946 10 29.0532 10 25.9933L10 12.1109C10 11.6517 10.1414 11.2412 10.4241 10.8793C10.7069 10.5175 11.0711 10.2811 11.5166 10.1702L23.5166 7.18139C23.8389 7.10113 24.1611 7.10113 24.4834 7.18139L36.4834 10.1702C36.9289 10.2811 37.2931 10.5175 37.5759 10.8793C37.8586 11.2412 38 11.6517 38 12.1109L38 25.9933C38 29.0532 37.2701 31.6945 35.8104 33.9174Z" fill-rule="evenodd"  fill="#787878" >
</path>
<path d="M24 27C28.4183 27 32 23.4183 32 19C32 14.5817 28.4183 11 24 11C19.5817 11 16 14.5817 16 19C16 23.4183 19.5817 27 24 27ZM24 15C26.2091 15 28 16.7909 28 19C28 21.2091 26.2091 23 24 23C21.7909 23 20 21.2091 20 19C20 16.7909 21.7909 15 24 15Z" fill-rule="evenodd"  fill="#424242" >
</path>
</svg>
