<svg xmlns="http://www.w3.org/2000/svg" xmlns:xlink="http://www.w3.org/1999/xlink" width="48" height="48" viewBox="0 0 48 48" fill="none">
<path d="M10 44L17 44C18.1046 44 19 43.1046 19 42C19 40.8954 18.1046 40 17 40L10 40C8.89543 40 8 39.1046 8 38L8 34C8 31.7909 9.79086 30 12 30L22 30C23.1046 30 24 29.1046 24 28C24 26.8954 23.1046 26 22 26L12 26C7.58172 26 4 29.5817 4 34L4 38C4 41.3137 6.68629 44 10 44Z" fill-rule="evenodd"  fill="#787878" >
</path>
<path d="M24 24C29.5228 24 34 19.5228 34 14C34 8.47715 29.5228 4 24 4C18.4771 4 14 8.47715 14 14C14 19.5228 18.4771 24 24 24ZM24 8C27.3137 8 30 10.6863 30 14C30 17.3137 27.3137 20 24 20C20.6863 20 18 17.3137 18 14C18 10.6863 20.6863 8 24 8Z" fill-rule="evenodd"  fill="#787878" >
</path>
<path d="M41.8404 27.012L43.424 25.4046L43.4247 25.4039C43.7805 25.0428 44 24.5472 44 24.0002C44 22.8957 43.1046 22.0002 42 22.0002C41.4478 22.0002 40.9478 22.2241 40.5859 22.5859L40.5858 22.5859L33.6016 29.5702C33.591 29.5806 33.5805 29.591 33.5702 29.6016L31.0756 32.0962C30.1966 31.7127 29.2248 31.5 28.2 31.5C24.2235 31.5 21 34.7736 21 38.75C21 42.7541 24.1959 46 28.2 46C32.1764 46 35.3999 42.7264 35.3999 38.75C35.3999 37.2367 34.9434 35.8317 34.1593 34.6693L35.0001 33.8285L37.0858 35.9142C37.4477 36.2761 37.9477 36.5 38.5 36.5C39.6046 36.5 40.5 35.6046 40.5 34.5C40.5 33.9477 40.2761 33.4477 39.9142 33.0858L37.8285 31.0001L39.0001 29.8285L41.0858 31.9143C41.4477 32.2761 41.9477 32.5 42.5 32.5C43.6046 32.5 44.5 31.6046 44.5 30.5C44.5 29.9478 44.2761 29.4478 43.9142 29.0858L41.8404 27.012ZM28.2 35.5C29.9949 35.5 31.3999 36.9551 31.3999 38.75C31.3999 40.5173 29.9672 42 28.2 42C26.405 42 25 40.5449 25 38.75C25 36.9827 26.4327 35.5 28.2 35.5Z" fill-rule="evenodd"  fill="#424242" >
</path>
</svg>
