<svg xmlns="http://www.w3.org/2000/svg" xmlns:xlink="http://www.w3.org/1999/xlink" width="48" height="48" viewBox="0 0 48 48" fill="none">
<path d="M3 31L3 11C3 6.58172 6.58172 3 11 3L37 3C41.4183 3 45 6.58172 45 11L45 22.1638C43.9772 21.2814 42.6601 20.4279 41 19.8303L41 17.0122L26.3283 23.1897C25.5838 23.5032 24.8077 23.6599 24 23.6599C23.1923 23.6599 22.4162 23.5032 21.6717 23.1897L7 17.0122L7 31C7 33.2091 8.79086 35 11 35L21 35L21 35.0027C21 36.6027 21.2212 37.9183 21.5851 39L11 39C6.58172 39 3 35.4183 3 31ZM41 12.6721L41 11C41 8.79086 39.2091 7 37 7L11 7C8.79086 7 7 8.79086 7 11L7 12.6721L23.2239 19.5032C23.472 19.6077 23.7307 19.6599 24 19.6599C24.2693 19.6599 24.528 19.6077 24.7761 19.5032L41 12.6721Z" fill-rule="evenodd"  fill="#787878" >
</path>
<path d="M29.6574 24.0055L27.4576 24.9248C26.7134 25.2359 26.1177 25.7271 25.6706 26.3985C25.2235 27.0699 25 27.8089 25 28.6155L25 34.0637C25 35.5861 25.3658 36.9934 26.0973 38.2855C26.6977 39.3458 27.5287 40.2971 28.5906 41.1391C29.398 41.7794 30.3216 42.3431 31.3613 42.8303C32.0865 43.1701 32.8344 43.4581 33.6051 43.6942C34.5359 43.9793 35.4688 43.9784 36.4036 43.6915C37.175 43.4547 37.9233 43.1661 38.6485 42.8257C39.6873 42.3381 40.6099 41.7741 41.4163 41.1336C42.4764 40.2917 43.306 39.3409 43.9052 38.2811C44.6351 36.9901 45 35.5843 45 34.0637L45 28.6155C45 27.8089 44.7765 27.0699 44.3294 26.3985C43.8823 25.7271 43.2867 25.2359 42.5424 24.9248L40.3426 24.0055L40.3426 24.0055L40.3323 24.0012L40.322 23.997L36.5011 22.4501C36.0197 22.2552 35.5194 22.1577 35 22.1577C34.4806 22.1577 33.9803 22.2552 33.4989 22.4501L29.678 23.997L29.6677 24.0012L29.6574 24.0055L29.6574 24.0055ZM31.1895 27.7005L29 28.6155L29 34.0637C29 35.5937 29.692 36.9075 31.076 38.005C31.6397 38.452 32.3005 38.853 33.0585 39.2082C33.6133 39.4681 34.186 39.6886 34.7768 39.8696C34.9257 39.9153 35.0767 39.9146 35.2298 39.8676C35.8211 39.6861 36.3942 39.4651 36.9489 39.2047C37.706 38.8494 38.3659 38.4482 38.9286 38.0013C40.3095 36.9046 41 35.592 41 34.0637L41 28.6155L38.8105 27.7005L35 26.1577L31.1895 27.7005Z" fill-rule="evenodd"  fill="#424242" >
</path>
</svg>
