<svg xmlns="http://www.w3.org/2000/svg" xmlns:xlink="http://www.w3.org/1999/xlink" width="48" height="48" viewBox="0 0 48 48" fill="none">
<path d="M36 44C40.42 44 44 40.42 44 36L44 12C44 7.58 40.42 4 36 4L12 4C7.58 4 4 7.58 4 12L4 36C4 40.42 7.58 44 12 44L36 44ZM40 36L40 12C40 9.79 38.21 8 36 8L12 8C9.79 8 8 9.79 8 12L8 36C8 38.21 9.79 40 12 40L36 40C38.21 40 40 38.21 40 36ZM10 12C10 10.9 10.9 10 12 10C13.1 10 14 10.9 14 12C14 13.1 13.1 14 12 14C10.9 14 10 13.1 10 12ZM33.9999 12C33.9999 10.9 34.8999 10 35.9999 10C37.0999 10 37.9999 10.9 37.9999 12C37.9999 13.1 37.0999 14 35.9999 14C34.8999 14 33.9999 13.1 33.9999 12ZM21.9999 14L21.9999 22.2892C19.1065 23.1485 17.0001 25.8252 17.0001 29C17.0001 32.87 20.1301 36 24.0001 36C27.8701 36 31.0001 32.87 31.0001 29C31.0001 25.8251 28.8935 23.1482 25.9999 22.2891L25.9999 14C25.9999 12.9 25.0999 12 23.9999 12C22.8999 12 21.9999 12.9 21.9999 14ZM24.0001 32C25.6601 32 27.0001 30.66 27.0001 29C27.0001 27.34 25.6601 26 24.0001 26C22.3401 26 21.0001 27.34 21.0001 29C21.0001 30.66 22.3401 32 24.0001 32ZM10 36C10 34.9 10.9 34 12 34C13.1 34 14 34.9 14 36C14 37.1 13.1 38 12 38C10.9 38 10 37.1 10 36ZM35.9999 34C34.8999 34 33.9999 34.9 33.9999 36C33.9999 37.1 34.8999 38 35.9999 38C37.0999 38 37.9999 37.1 37.9999 36C37.9999 34.9 37.0999 34 35.9999 34Z" fill-rule="evenodd"  fill="#000000" >
</path>
</svg>
