<svg xmlns="http://www.w3.org/2000/svg" xmlns:xlink="http://www.w3.org/1999/xlink" width="48" height="48" viewBox="0 0 48 48" fill="none">
<path d="M8 25.9901C8 40.4101 22.76 42.8201 23.93 42.9901C23.98 43.0001 24.02 43.0001 24.07 42.9901C25.24 42.8201 40 40.4101 40 25.9901L40 12.1101C40 10.2701 38.75 8.68012 36.97 8.23012L24.97 5.24012C24.33 5.08012 23.67 5.08012 23.03 5.24012L11.03 8.23012C9.25 8.68012 8 10.2701 8 12.1101L8 25.9901Z"   fill="#BEDCFF" >
</path>
<path d="M10 25.9933L10 12.1109C10 11.0689 10.5055 10.4219 11.5166 10.1701L23.5166 7.18138C23.8389 7.10113 24.1611 7.10113 24.4834 7.18138L36.4834 10.1701C37.4945 10.4219 38 11.0689 38 12.1109L38 25.9933C38 31.0143 36.0347 34.9085 32.104 37.6758C29.7604 39.3258 27.1049 40.4181 24.1376 40.9526C24.0457 40.9692 23.9514 40.9687 23.8545 40.9512C20.8838 40.4143 18.2275 39.32 15.8854 37.6683C11.9618 34.9014 10 31.0097 10 25.9933ZM10.5499 6.28869C7.51664 7.04417 6 8.98489 6 12.1109L6 25.9933C6 32.3922 8.52671 37.3735 13.5801 40.9372C16.4043 42.9289 19.592 44.2456 23.1431 44.8874C23.7134 44.9905 24.2812 44.9911 24.8467 44.8893C28.3944 44.2502 31.581 42.9359 34.4067 40.9465C39.4689 37.3825 42 32.3981 42 25.9933L42 12.1109C42 8.98489 40.4834 7.04417 37.4501 6.28869L25.4501 3.29996C24.4834 3.05919 23.5166 3.05919 22.5499 3.29996L10.5499 6.28869Z" fill-rule="evenodd"  fill="#1764FF" >
</path>
<path d="M24 13C17.92 13 13 17.92 13 24C13 30.08 17.92 35 24 35C30.08 35 35 30.08 35 24C35 17.92 30.08 13 24 13Z"   fill="#E8F4FF" >
</path>
<path d="M37 24C37 31.1797 31.1797 37 24 37C16.8203 37 11 31.1797 11 24C11 16.8203 16.8203 11 24 11C31.1797 11 37 16.8203 37 24ZM24.0404 15.1683L24 15L23.9596 15.1683C23.6398 15.5402 23.337 16.1192 23.0512 16.9053C22.5239 18.3554 22.1949 20.0534 22.0644 21.9993L25.9356 21.9993C25.8051 20.0534 25.4761 18.3554 24.9488 16.9053C24.663 16.1192 24.3602 15.5402 24.0404 15.1683ZM25.9356 26.0009L22.0644 26.0009C22.1949 27.9467 22.5239 29.6446 23.0512 31.0947C23.337 31.8808 23.6398 32.4598 23.9596 32.8317L24 33L24.0404 32.8317C24.3602 32.4598 24.663 31.8808 24.9488 31.0947C25.4761 29.6446 25.8051 27.9467 25.9356 26.0009ZM18.0569 21.9993C18.1749 19.9878 18.4762 18.1686 18.9609 16.5419C17.1004 17.8014 15.7363 19.7387 15.2232 21.9993L18.0569 21.9993ZM15.2232 26.0009L18.0569 26.0009C18.1749 28.0124 18.4762 29.8314 18.9608 31.4581C17.1005 30.1987 15.7364 28.2614 15.2232 26.0009ZM29.9431 26.0009L32.7768 26.0009C32.2636 28.2614 30.8995 30.1987 29.0391 31.4581C29.5238 29.8314 29.8251 28.0124 29.9431 26.0009ZM32.7768 21.9993L29.9431 21.9993C29.8252 19.9878 29.5238 18.1686 29.0391 16.5419C30.8996 17.8014 32.2637 19.7387 32.7768 21.9993Z" fill-rule="evenodd"  fill="#1764FF" >
</path>
</svg>
