<svg xmlns="http://www.w3.org/2000/svg" xmlns:xlink="http://www.w3.org/1999/xlink" width="48" height="48" viewBox="0 0 48 48" fill="none">
<path d="M13 27C8.58 27 5 30.58 5 35C5 39.42 8.58 43 13 43C17.42 43 21 39.42 21 35C21 30.58 17.42 27 13 27Z"   fill="#BEDCFF" >
</path>
<path d="M13 45C18.5228 45 23 40.5228 23 35C23 29.4771 18.5228 25 13 25C7.47715 25 3 29.4771 3 35C3 40.5228 7.47715 45 13 45ZM13 29C16.3137 29 19 31.6863 19 35C19 38.3137 16.3137 41 13 41C9.68629 41 7 38.3137 7 35C7 31.6863 9.68629 29 13 29Z" fill-rule="evenodd"  fill="#1764FF" >
</path>
<path d="M37.8483 12.98L43.4142 7.41411L40.5858 4.58569L33.6135 11.558L25.5943 19.5772L18.0896 27.0819L20.918 29.9103L27.01 23.8183L27.7817 24.5883C30.1284 26.9301 33.9296 26.9248 36.2698 24.5764L38.6136 22.2244C39.7771 21.0569 40.3605 19.6489 40.3636 18.0006C40.3667 16.3523 39.7888 14.9421 38.6297 13.7701L37.8483 12.98ZM35.0199 15.8085L29.8384 20.9899L30.6071 21.7569C31.3893 22.5375 32.6564 22.5357 33.4365 21.7529L35.7803 19.4009C36.7146 18.4633 36.7164 17.5239 35.7857 16.5828L35.0199 15.8085Z" fill-rule="evenodd"  fill="#1764FF" >
</path>
<path d="M42 4C40.9 4 40 4.9 40 6C40 7.1 40.9 8 42 8C43.1 8 44 7.1 44 6C44 4.9 43.1 4 42 4Z"   fill="#1764FF" >
</path>
</svg>
