<svg xmlns="http://www.w3.org/2000/svg" xmlns:xlink="http://www.w3.org/1999/xlink" width="48" height="48" viewBox="0 0 48 48" fill="none">
<path d="M43 31L43 14L25.55 21.35C24.56 21.77 23.44 21.77 22.45 21.35L5 14L5 31C5 34.31 7.69 37 11 37L37 37C40.31 37 43 34.31 43 31ZM5 11L5 14L22.45 21.35C23.44 21.77 24.56 21.77 25.55 21.35L43 14L43 11C43 7.69 40.31 5 37 5L11 5C7.69 5 5 7.69 5 11Z" fill-rule="evenodd"  fill="#E2C2FB" >
</path>
<path d="M3 11L3 31C3 35.4183 6.58172 39 11 39L37 39C41.4183 39 45 35.4183 45 31L45 11C45 6.58172 41.4183 3 37 3L11 3C6.58172 3 3 6.58172 3 11ZM41 17.0122L26.3283 23.1897C24.7761 23.8433 23.2239 23.8433 21.6717 23.1897L7 17.0122L7 31C7 33.2091 8.79086 35 11 35L37 35C39.2091 35 41 33.2091 41 31L41 17.0122ZM41 11L41 12.6721L24.7761 19.5032C24.2587 19.721 23.7413 19.721 23.2239 19.5032L7 12.6721L7 11C7 8.79086 8.79086 7 11 7L37 7C39.2091 7 41 8.79086 41 11Z" fill-rule="evenodd"  fill="#B579F4" >
</path>
<path d="M27 34.06C27 39.73 33.57 41.64 34.8 41.95C34.93 41.99 35.07 41.99 35.2 41.95C36.43 41.64 43 39.73 43 34.06L43 28.62C43 27.81 42.52 27.08 41.77 26.77L39.57 25.85L35.75 24.3C35.27 24.11 34.73 24.11 34.25 24.3L30.43 25.85L28.23 26.77C27.48 27.08 27 27.81 27 28.62L27 34.06Z"   fill="#8134ED" >
</path>
<path d="M29.6574 24.0056L27.4576 24.9249C25.8192 25.6096 25 26.8398 25 28.6155L25 34.0637C25 38.7265 27.8683 41.9367 33.605 43.6941C34.5359 43.9794 35.4688 43.9785 36.4036 43.6915C42.1345 41.9323 45 38.7231 45 34.0637L45 28.6155C45 26.8398 44.1808 25.6096 42.5424 24.9249L40.322 23.9971L36.5011 22.4501C35.5004 22.045 34.4996 22.045 33.4989 22.4501L29.6574 24.0056ZM29 34.0637L29 28.6155L31.1998 27.6962L35 26.1578L38.8209 27.7047L41 28.6156L41 28.6155L41 34.0637C41 36.7521 39.0766 38.6868 35.2298 39.8676C35.0767 39.9146 34.9257 39.9153 34.7768 39.8696C30.9256 38.6898 29 36.7545 29 34.0637Z" fill-rule="evenodd"  fill="#8134ED" >
</path>
</svg>
