<svg xmlns="http://www.w3.org/2000/svg" xmlns:xlink="http://www.w3.org/1999/xlink" width="48" height="48" viewBox="0 0 48 48" fill="none">
<path d="M30 12L30 18C30 19.1046 30.8954 20 32 20C33.1046 20 34 19.1046 34 18L34 12C34 6.47715 29.5228 2 24 2C18.4771 2 14 6.47715 14 12L14 18C14 19.1046 14.8954 20 16 20C17.1046 20 18 19.1046 18 18L18 12C18 8.68629 20.6863 6 24 6C27.3137 6 30 8.68629 30 12Z" fill-rule="evenodd"  fill="#424242" >
</path>
<path d="M38.1308 36.3642C39.3769 34.1219 40 31.6646 40 28.9921L40 23.2921C40 22.7085 39.9168 22.1375 39.7505 21.5791C39.5874 21.0317 39.3508 20.5179 39.0407 20.0376C38.7306 19.5573 38.3596 19.1302 37.9279 18.7562C37.4874 18.3748 37.0013 18.064 36.4694 17.8238L32.8231 16.1772L32.8124 16.1723L26.4049 13.369C25.6384 13.0337 24.8367 12.866 24 12.866C23.1633 12.866 22.3616 13.0337 21.5951 13.369L15.1876 16.1723L15.1768 16.1772L11.5306 17.8238C10.9987 18.064 10.5126 18.3748 10.0721 18.7562C9.64036 19.1302 9.26942 19.5573 8.95933 20.0376C8.64924 20.5178 8.41265 21.0317 8.24955 21.5791C8.08318 22.1375 8 22.7085 8 23.2921L8 28.9921C8 31.6675 8.62441 34.1273 9.87323 36.3715C10.9032 38.2223 12.3341 39.8814 14.1659 41.3489C15.5615 42.4669 17.1516 43.4445 18.9361 44.2817C20.1308 44.8422 21.3346 45.3063 22.5477 45.674C23.5168 45.9678 24.489 45.9666 25.4641 45.6704C26.6792 45.3013 27.8844 44.836 29.0796 44.2743C30.8628 43.4364 32.4514 42.4582 33.8455 41.3398C35.6743 39.8726 37.1027 38.2141 38.1308 36.3642ZM16.8125 19.8275L13.1768 21.4693C12.8187 21.6311 12.533 21.877 12.3198 22.2072C12.1066 22.5374 12 22.899 12 23.2921L12 28.9921C12 32.6564 13.5556 35.7348 16.6667 38.2271C17.8148 39.1468 19.1376 39.9579 20.635 40.6604C21.6551 41.139 22.6795 41.5342 23.7082 41.846C23.9029 41.9051 24.1007 41.9041 24.3016 41.8431C25.3321 41.5301 26.3577 41.1338 27.3784 40.6541C28.8745 39.9511 30.1958 39.1397 31.3424 38.2198C34.4475 35.7287 36 32.6528 36 28.9921L36 23.2921C36 22.899 35.8934 22.5374 35.6802 22.2072C35.467 21.877 35.1813 21.6311 34.8231 21.4693L31.1875 19.8275L24.8016 17.0337C24.5461 16.9219 24.2789 16.866 24 16.866C23.7211 16.866 23.4539 16.9219 23.1984 17.0337L16.8125 19.8275Z" fill-rule="evenodd"  fill="#787878" >
</path>
</svg>
