<svg xmlns="http://www.w3.org/2000/svg" xmlns:xlink="http://www.w3.org/1999/xlink" width="48" height="48" viewBox="0 0 48 48" fill="none">
<path d="M6.33527 10.1322C6.11176 10.7718 6 11.4313 6 12.1109L6 25.9933C6 29.4503 6.76765 32.5254 8.30295 35.2186C9.5722 37.4451 11.3313 39.3513 13.5801 40.9372C15.2593 42.1214 17.1537 43.0886 19.2634 43.8387C20.5887 44.3099 21.8819 44.6595 23.1431 44.8874C23.7134 44.9905 24.2813 44.9911 24.8467 44.8893C26.1045 44.6627 27.3954 44.3145 28.7194 43.8448C30.8302 43.0959 32.726 42.1298 34.4067 40.9465C36.659 39.3608 38.4208 37.4543 39.6923 35.2269C41.2308 32.5318 42 29.4539 42 25.9933L42 12.1109C42 11.4313 41.8882 10.7718 41.6647 10.1322C41.447 9.5091 41.1346 8.93715 40.7276 8.41632C40.3206 7.89547 39.8411 7.45413 39.2891 7.09227C38.7225 6.72081 38.1095 6.45296 37.4501 6.28873L25.4501 3.29996C24.4834 3.05919 23.5166 3.05919 22.5499 3.29996L10.5499 6.28873C9.89054 6.45296 9.27753 6.72081 8.7109 7.09227C8.15892 7.45413 7.67942 7.89547 7.2724 8.41632C6.86537 8.93715 6.55299 9.5091 6.33527 10.1322ZM10 25.9933L10 12.1109C10 11.6517 10.1414 11.2412 10.4241 10.8793C10.7069 10.5175 11.0711 10.2811 11.5166 10.1702L23.5166 7.18139C23.8389 7.10113 24.1611 7.10113 24.4834 7.18139L36.4834 10.1702C36.9289 10.2811 37.2931 10.5175 37.5759 10.8793C37.8586 11.2412 38 11.6517 38 12.1109L38 25.9933C38 31.0143 36.0347 34.9085 32.104 37.6758C30.7222 38.6487 29.1482 39.4484 27.382 40.075C26.2629 40.4721 25.1814 40.7646 24.1376 40.9526C24.0457 40.9692 23.9514 40.9687 23.8545 40.9512C22.8074 40.7619 21.7237 40.4681 20.6034 40.0698C18.8384 39.4422 17.2657 38.6417 15.8854 37.6683C11.9618 34.9014 10 31.0097 10 25.9933Z" fill-rule="evenodd"  fill="#787878" >
</path>
<path d="M12 24C12 25.105 12.8954 26.0008 14 26.0008L34 26.0008C35.1046 26.0008 36 25.105 36 24C36 22.895 35.1046 21.9993 34 21.9993L14 21.9993C12.8954 21.9993 12 22.895 12 24Z" fill-rule="evenodd"  fill="#787878" >
</path>
<path d="M30 24C30 25.5939 29.8875 27.1224 29.6624 28.5857C29.5029 29.6231 29.294 30.5813 29.0358 31.4604C31.4277 29.8427 33 27.105 33 24C33 20.8951 31.4277 18.1573 29.0358 16.5396C29.294 17.4187 29.5029 18.3769 29.6624 19.4143C29.8875 20.8775 30 22.4061 30 24ZM18.9642 16.5397C18.706 17.4187 18.4971 18.3769 18.3376 19.4143C18.1125 20.8775 18 22.4061 18 24C18 25.5939 18.1125 27.1225 18.3376 28.5857C18.4971 29.623 18.706 30.5812 18.9642 31.4603C16.5723 29.8427 15 27.105 15 24C15 20.8951 16.5723 18.1574 18.9642 16.5397ZM24 11C31.1797 11 37 16.8203 37 24C37 31.1797 31.1797 37 24 37C16.8203 37 11 31.1797 11 24C11 16.8203 16.8203 11 24 11ZM26 24C26 22.61 25.903 21.2841 25.7089 20.0223C25.5264 18.836 25.2731 17.797 24.9488 16.9053C24.663 16.1192 24.3602 15.5402 24.0404 15.1683C24.0265 15.1521 24.013 15.1368 24 15.1224C23.987 15.1368 23.9735 15.1521 23.9596 15.1683C23.6398 15.5402 23.337 16.1192 23.0512 16.9053C22.7269 17.797 22.4736 18.836 22.2911 20.0223C22.097 21.2841 22 22.61 22 24C22 25.39 22.097 26.7159 22.2911 27.9777C22.4736 29.164 22.7269 30.203 23.0512 31.0947C23.337 31.8808 23.6398 32.4598 23.9596 32.8317C23.9735 32.8479 23.987 32.8632 24 32.8776C24.013 32.8632 24.0265 32.8479 24.0404 32.8317C24.3602 32.4598 24.663 31.8808 24.9488 31.0947C25.2731 30.203 25.5264 29.164 25.7089 27.9777C25.903 26.7159 26 25.39 26 24Z" fill-rule="evenodd"  fill="#424242" >
</path>
</svg>
