<svg xmlns="http://www.w3.org/2000/svg" xmlns:xlink="http://www.w3.org/1999/xlink" width="48" height="48" viewBox="0 0 48 48" fill="none">
<path d="M10 44L23.5 44C24.6046 44 25.5 43.1046 25.5 42C25.5 40.8954 24.6046 40 23.5 40L10 40C8.89543 40 8 39.1046 8 38L8 34C8 31.7909 9.79086 30 12 30L22 30C23.1046 30 24 29.1046 24 28C24 26.8954 23.1046 26 22 26L12 26C7.58172 26 4 29.5817 4 34L4 38C4 41.3137 6.68629 44 10 44Z" fill-rule="evenodd"  fill="#787878" >
</path>
<path d="M24 24C29.5228 24 34 19.5228 34 14C34 8.47715 29.5228 4 24 4C18.4771 4 14 8.47715 14 14C14 19.5228 18.4771 24 24 24ZM24 8C27.3137 8 30 10.6863 30 14C30 17.3137 27.3137 20 24 20C20.6863 20 18 17.3137 18 14C18 10.6863 20.6863 8 24 8Z" fill-rule="evenodd"  fill="#787878" >
</path>
<path d="M26.6313 26.7189C26.2104 27.2604 26 27.8741 26 28.5599L26 35.3917C26 37.1102 26.3748 38.6501 27.1245 40.0111C27.75 41.1467 28.6143 42.1182 29.7176 42.9258C30.5304 43.5209 31.4454 44.007 32.4625 44.3842C33.1069 44.6232 33.7426 44.8024 34.3698 44.9216C34.7892 45.0015 35.2076 45.0019 35.6248 44.9227C36.2505 44.8041 36.8853 44.6256 37.5292 44.3873C38.5467 44.0108 39.4623 43.5252 40.276 42.9306C41.3809 42.1232 42.2466 41.1514 42.8731 40.0154C43.6244 38.6533 44 37.112 44 35.3917L44 28.5599C44 27.8741 43.7896 27.2604 43.3687 26.7189C42.9478 26.1774 42.405 25.822 41.7404 25.6527L35.9352 24.1743C35.3118 24.0155 34.6882 24.0155 34.0648 24.1743L28.2596 25.6527C27.595 25.822 27.0522 26.1774 26.6313 26.7189ZM30 29.3372L30 35.3917C30 36.4244 30.2094 37.3209 30.6282 38.0813C30.969 38.7001 31.4531 39.2391 32.0803 39.6982C32.5935 40.0739 33.1845 40.3858 33.8533 40.6338C34.2467 40.7797 34.6289 40.8913 35 40.9687C35.3689 40.8918 35.7493 40.7809 36.141 40.6359C36.8104 40.3883 37.402 40.0767 37.9158 39.7011C38.5441 39.2419 39.029 38.7028 39.3705 38.0836C39.7902 37.3228 40 36.4254 40 35.3917L40 29.3372L35 28.0638L30 29.3372Z" fill-rule="evenodd"  fill="#424242" >
</path>
</svg>
