<svg xmlns="http://www.w3.org/2000/svg" xmlns:xlink="http://www.w3.org/1999/xlink" width="48" height="48" viewBox="0 0 48 48" fill="none">
<path d="M31.4 38.1477C29.93 39.0777 28.29 39.8177 26.47 40.3777C25.86 40.5677 25.26 40.7177 24.67 40.8477C24.42 40.8977 24.2 40.9377 24 40.9777C23.8 40.9377 23.58 40.8977 23.33 40.8477C22.74 40.7177 22.14 40.5677 21.53 40.3777C19.71 39.8177 18.07 39.0777 16.6 38.1477C14.64 36.9077 13.12 35.4077 12.02 33.6477C10.67 31.4777 10 28.9277 10 25.9877L10 12.1077C10 11.6477 10.14 11.2377 10.42 10.8777C10.71 10.5177 11.07 10.2877 11.51 10.1677L23.52 7.17768C23.84 7.09768 24.16 7.09768 24.49 7.17768L36.48 10.1677C36.93 10.2777 37.29 10.5177 37.58 10.8777C37.86 11.2377 38 11.6477 38 12.1077L38 25.9877C38 28.9277 37.33 31.4777 35.98 33.6477C34.88 35.4077 33.36 36.9077 31.4 38.1477ZM8.71 7.09768C9.27 6.72768 9.89 6.45768 10.55 6.28768L22.54 3.29768C23.51 3.05768 24.48 3.05768 25.45 3.29768L37.46 6.28768C38.12 6.45768 38.73 6.72768 39.29 7.09768C39.84 7.45768 40.32 7.89768 40.73 8.41768C41.13 8.93768 41.45 9.50768 41.66 10.1277C41.89 10.7677 42 11.4277 42 12.1077L42 25.9877C42 29.6877 41.12 32.9477 39.37 35.7577C37.96 38.0377 36.01 39.9577 33.54 41.5277C31.77 42.6477 29.8 43.5377 27.64 44.1977C26.45 44.5677 25.37 44.8177 24.39 44.9677C24.13 45.0077 23.87 45.0077 23.61 44.9677C22.63 44.8177 21.55 44.5677 20.36 44.1977C18.2 43.5377 16.23 42.6477 14.46 41.5277C11.99 39.9577 10.04 38.0377 8.63 35.7577C6.88 32.9477 6 29.6877 6 25.9877L6 12.1077C6 11.4277 6.11 10.7677 6.34 10.1277C6.55 9.50768 6.87 8.93768 7.27 8.41768C7.68 7.89768 8.16 7.45768 8.71 7.09768ZM24.09 29.95L33.43 20.4C33.48 20.35 33.52 20.3 33.56 20.25C33.6 20.2 33.64 20.15 33.68 20.09C33.71 20.04 33.74 19.98 33.77 19.92C33.8 19.87 33.83 19.81 33.86 19.74L33.92 19.56C33.94 19.5 33.95 19.43 33.97 19.37C33.98 19.3 33.99 19.24 33.99 19.17C34 19.11 34 19.04 34 18.98C34 18.91 34 18.85 33.99 18.78C33.98 18.72 33.97 18.65 33.96 18.59C33.94 18.52 33.93 18.46 33.91 18.4C33.89 18.34 33.86 18.27 33.84 18.21C33.81 18.15 33.78 18.1 33.75 18.04C33.72 17.98 33.69 17.92 33.65 17.87C33.61 17.82 33.57 17.76 33.53 17.71C33.49 17.66 33.45 17.62 33.4 17.57C33.35 17.52 33.3 17.48 33.25 17.44C33.2 17.4 33.15 17.36 33.09 17.32C33.04 17.29 32.98 17.26 32.92 17.23C32.87 17.2 32.81 17.17 32.74 17.14L32.56 17.08C32.5 17.06 32.43 17.05 32.37 17.03C32.3 17.02 32.24 17.01 32.17 17.01C32.11 17 32.04 17 31.98 17C31.91 17 31.85 17 31.78 17.01C31.72 17.02 31.65 17.03 31.59 17.04C31.52 17.06 31.46 17.07 31.4 17.09C31.34 17.11 31.27 17.14 31.21 17.16C31.15 17.19 31.1 17.22 31.04 17.25C30.98 17.28 30.92 17.31 30.87 17.35C30.82 17.39 30.76 17.43 30.71 17.47C30.66 17.51 30.62 17.55 30.57 17.6L21.23 27.15L17.42 23.32C17.37 23.27 17.32 23.23 17.27 23.19C17.22 23.15 17.17 23.11 17.11 23.07C17.06 23.04 17 23 16.95 22.97C16.89 22.94 16.83 22.91 16.77 22.89C16.71 22.86 16.65 22.84 16.58 22.82C16.52 22.8 16.46 22.78 16.39 22.77C16.33 22.76 16.27 22.75 16.2 22.74C16.13 22.74 16.07 22.73 16 22.73C15.94 22.73 15.87 22.74 15.81 22.74C15.74 22.75 15.68 22.76 15.61 22.77C15.55 22.78 15.49 22.8 15.42 22.82L15.24 22.88L15.06 22.97C15 23 14.95 23.03 14.89 23.07C14.84 23.1 14.79 23.14 14.74 23.18C14.68 23.22 14.64 23.27 14.59 23.31C14.5 23.41 14.41 23.51 14.34 23.62C14.27 23.73 14.2 23.84 14.15 23.96C14.1 24.08 14.07 24.21 14.04 24.34C14.01 24.47 14 24.6 14 24.73C14 24.86 14.01 24.99 14.04 25.12C14.06 25.25 14.1 25.37 14.15 25.49C14.2 25.61 14.26 25.73 14.33 25.84C14.41 25.95 14.49 26.05 14.58 26.14L18.39 29.97C18.77 30.35 19.21 30.64 19.7 30.85C20.19 31.05 20.71 31.15 21.24 31.15C21.78 31.15 22.29 31.04 22.79 30.83C23.29 30.62 23.72 30.33 24.09 29.95Z" fill-rule="evenodd"  fill="#000000" >
</path>
</svg>
