<svg xmlns="http://www.w3.org/2000/svg" xmlns:xlink="http://www.w3.org/1999/xlink" width="48" height="48" viewBox="0 0 48 48" fill="none">
<path d="M33.3369 31.3759C33.779 29.0243 34 26.5657 34 24C34 21.4343 33.779 18.9757 33.3369 16.6241C32.9033 14.3176 32.2858 12.2629 31.4845 10.4598C30.6388 8.55708 29.6416 7.05906 28.4927 5.96574C27.8472 5.35146 27.1659 4.87921 26.4487 4.549C25.6538 4.183 24.8375 4 24 4C23.1625 4 22.3462 4.183 21.5513 4.549C20.8341 4.87921 20.1527 5.35146 19.5073 5.96574C18.3584 7.05906 17.3612 8.55708 16.5155 10.4598C15.7142 12.2629 15.0967 14.3176 14.6631 16.6241C14.221 18.9758 14 21.4344 14 24C14 26.5656 14.221 29.0242 14.6631 31.3759C15.0967 33.6824 15.7142 35.7371 16.5155 37.5402C17.3612 39.4429 18.3584 40.941 19.5073 42.0343C20.1527 42.6486 20.8341 43.1208 21.5513 43.451C22.3462 43.817 23.1625 44 24 44C24.8375 44 25.6538 43.817 26.4487 43.451C27.1659 43.1208 27.8472 42.6486 28.4927 42.0343C29.6416 40.941 30.6388 39.4429 31.4845 37.5402C32.2858 35.7371 32.9033 33.6824 33.3369 31.3759ZM29.4057 17.3631C29.8019 19.4706 30 21.6829 30 24C30 26.3171 29.8019 28.5294 29.4057 30.6369C29.0296 32.6374 28.5041 34.397 27.8292 35.9156C27.1985 37.3346 26.5005 38.4083 25.7352 39.1367C25.1304 39.7122 24.552 40 24 40C23.448 40 22.8696 39.7122 22.2648 39.1367C21.4994 38.4083 20.8014 37.3346 20.1708 35.9156C19.4958 34.397 18.9703 32.6374 18.5942 30.6369C18.1981 28.5294 18 26.3171 18 24C18 21.6829 18.1981 19.4706 18.5942 17.3631C18.9703 15.3626 19.4958 13.603 20.1708 12.0843C20.8014 10.6654 21.4994 9.5917 22.2648 8.86332C22.8696 8.28777 23.448 8 24 8C24.552 8 25.1304 8.28777 25.7352 8.86332C26.5005 9.5917 27.1985 10.6654 27.8292 12.0843C28.5041 13.603 29.0296 15.3626 29.4057 17.3631Z" fill-rule="evenodd"  fill="#787878" >
</path>
<path d="M44 24C44 35.0457 35.0457 44 24 44C12.9543 44 4 35.0457 4 24C4 12.9543 12.9543 4 24 4C35.0457 4 44 12.9543 44 24ZM39.8763 22.0005C38.8923 14.1076 32.1594 8 24 8C15.8406 8 9.1077 14.1076 8.12373 22.0005L39.8763 22.0005ZM39.8763 25.9997C38.8922 33.8925 32.1594 40 24 40C15.8407 40 9.10781 33.8925 8.12375 25.9997L39.8763 25.9997Z" fill-rule="evenodd"  fill="#424242" >
</path>
</svg>
