<svg xmlns="http://www.w3.org/2000/svg" xmlns:xlink="http://www.w3.org/1999/xlink" width="48" height="48" viewBox="0 0 48 48" fill="none">
<path d="M7.27 8.41768C7.68 7.89768 8.16 7.45768 8.71 7.09768C9.27 6.72768 9.89 6.45768 10.55 6.28768L22.54 3.29768C23.51 3.05768 24.48 3.05768 25.45 3.29768L37.46 6.28768C38.12 6.45768 38.73 6.72768 39.29 7.09768C39.84 7.45768 40.32 7.89768 40.73 8.41768C41.13 8.93768 41.45 9.50768 41.66 10.1277C41.89 10.7677 42 11.4277 42 12.1077L42 25.9877C42 29.6877 41.12 32.9477 39.37 35.7577C37.96 38.0377 36.01 39.9577 33.54 41.5277C31.77 42.6477 29.8 43.5377 27.64 44.1977C26.45 44.5677 25.37 44.8177 24.39 44.9677C24.13 45.0077 23.87 45.0077 23.61 44.9677C22.63 44.8177 21.55 44.5677 20.36 44.1977C18.2 43.5377 16.23 42.6477 14.46 41.5277C11.99 39.9577 10.04 38.0377 8.63 35.7577C6.88 32.9477 6 29.6877 6 25.9877L6 12.1077C6 11.4277 6.11 10.7677 6.34 10.1277C6.55 9.50768 6.87 8.93768 7.27 8.41768Z"   fill="#000000" >
</path>
</svg>
