<svg xmlns="http://www.w3.org/2000/svg" xmlns:xlink="http://www.w3.org/1999/xlink" width="48" height="48" viewBox="0 0 48 48" fill="none">
<path d="M29.6006 7.99748C29.5738 7.99913 29.5466 7.9997 29.5204 7.9999C29.5135 7.99995 29.5067 7.99997 29.5 7.99999L29.4952 7.99999L29.48 8C29.41 8 29.35 8 29.28 7.99C29.2587 7.98645 29.2361 7.9829 29.2132 7.97935C29.2018 7.97769 29.1904 7.97593 29.179 7.97408C29.1485 7.96939 29.1182 7.96469 29.09 7.96C29.02 7.94 28.96 7.93 28.9 7.91C28.84 7.89 28.77 7.87 28.71 7.84C28.6615 7.81573 28.6195 7.798 28.5734 7.77093C28.5387 7.75265 28.5046 7.73337 28.4711 7.71314C28.4381 7.69424 28.4059 7.67391 28.37 7.65C28.3339 7.62111 28.2978 7.59744 28.2617 7.56769C28.2461 7.55535 28.2307 7.54279 28.2155 7.53L28.21 7.53C27.72 7.12 27.12 6.77 26.42 6.49C25.6 6.16 24.8 6 24 6C23.18 6 22.41 6.16 21.66 6.47C20.95 6.77 20.31 7.2 19.76 7.76C19.2 8.31 18.77 8.95 18.47 9.66C18.16 10.41 18 11.18 18 12L18 14.9456L21.59 13.3725C22.36 13.0325 23.16 12.8625 24 12.8625C24.84 12.8625 25.64 13.0325 26.4 13.3725L32.82 16.1825L36.47 17.8325L36.48 17.8325C37.01 18.0725 37.49 18.3825 37.93 18.7625C38.36 19.1325 38.73 19.5625 39.04 20.0425C39.35 20.5225 39.59 21.0325 39.75 21.5825C39.92 22.1325 40 22.7025 40 23.2925L40 28.9925C40 31.8925 39.27 34.5325 37.8 36.9225C36.63 38.8425 35.01 40.5425 32.95 42.0225C31.44 43.1025 29.76 44.0225 27.89 44.7925C26.77 45.2625 25.72 45.6225 24.74 45.8725C24.25 46.0025 23.75 46.0025 23.26 45.8725C22.28 45.6225 21.23 45.2625 20.11 44.7925C18.24 44.0225 16.56 43.1025 15.05 42.0225C12.99 40.5425 11.37 38.8425 10.2 36.9225C8.73 34.5325 8 31.8925 8 28.9925L8 23.2925C8 22.7025 8.08 22.1325 8.25 21.5825C8.41 21.0325 8.65 20.5225 8.96 20.0425C9.27 19.5625 9.64 19.1325 10.07 18.7625C10.51 18.3825 10.99 18.0725 11.53 17.8325L14 16.7153L14 12C14 10.64 14.26 9.35 14.79 8.11C15.29 6.91 16.01 5.85 16.93 4.93C17.85 4.01 18.91 3.29 20.11 2.79C21.35 2.26 22.64 2 24 2C25.31 2 26.61 2.26 27.9 2.78C28.9599 3.19431 29.8897 3.73858 30.6897 4.39493C30.7232 4.41986 30.7558 4.44581 30.7877 4.47273L30.79 4.47C30.89 4.56 30.98 4.65 31.06 4.75C31.15 4.86 31.22 4.97 31.28 5.08C31.3317 5.18346 31.376 5.28691 31.4065 5.39678C31.4672 5.58732 31.5 5.79001 31.5 6C31.5 6.05007 31.4981 6.09972 31.4945 6.1489C31.4933 6.1726 31.4918 6.1963 31.49 6.22C31.47 6.35 31.45 6.48 31.41 6.61C31.3827 6.69182 31.3462 6.77364 31.3066 6.85545C31.302 6.86511 31.2973 6.87473 31.2926 6.8843C31.2786 6.91287 31.2643 6.94143 31.25 6.97C31.19 7.08 31.11 7.19 31.03 7.29C30.9983 7.32958 30.9604 7.36917 30.9212 7.40379C30.9035 7.4217 30.8854 7.43928 30.8671 7.45653C30.8317 7.49465 30.7908 7.52733 30.75 7.56C30.7 7.6 30.64 7.64 30.59 7.68C30.53 7.71 30.48 7.75 30.42 7.78C30.36 7.81 30.3 7.83 30.24 7.86L30.1879 7.87736C30.1484 7.89195 30.1083 7.90532 30.0677 7.91743L30.06 7.92C30.0519 7.92231 30.0439 7.92449 30.0361 7.92657C29.9975 7.93739 29.9584 7.94708 29.9188 7.95558C29.9024 7.95992 29.8862 7.9646 29.87 7.97C29.8139 7.97801 29.7643 7.98602 29.7108 7.98889C29.6743 7.99275 29.6376 7.99563 29.6006 7.99748Z"   fill="#000000" >
</path>
</svg>
