<svg xmlns="http://www.w3.org/2000/svg" xmlns:xlink="http://www.w3.org/1999/xlink" width="48" height="48" viewBox="0 0 48 48" fill="none">
<path d="M37.8483 12.98L43.4142 7.41411L40.5858 4.58569L33.6135 11.558L25.5943 19.5772L18.0896 27.0819L20.918 29.9103L27.01 23.8183L27.7817 24.5883C30.1284 26.9301 33.9296 26.9248 36.2698 24.5765L38.6136 22.2245C39.1846 21.6515 39.6213 20.9923 39.9237 20.247C40.2155 19.5278 40.3621 18.779 40.3636 18.0006C40.3651 17.2222 40.2213 16.4729 39.9323 15.7526C39.6327 15.006 39.1985 14.3452 38.6297 13.7701L37.8483 12.98ZM35.0199 15.8085L29.8385 20.9899L30.6071 21.7569C31.3893 22.5375 32.6564 22.5357 33.4364 21.7529L35.7803 19.4009C35.9714 19.2091 36.1171 18.9898 36.2172 18.7431C36.3143 18.5037 36.3631 18.2537 36.3636 17.993C36.3641 17.7323 36.3163 17.4821 36.22 17.2423C36.1209 16.9952 35.9761 16.7753 35.7857 16.5828L35.0199 15.8085Z" fill-rule="evenodd"  fill="#424242" >
</path>
<path d="M13 45C18.5228 45 23 40.5228 23 35C23 29.4771 18.5228 25 13 25C7.47715 25 3 29.4771 3 35C3 40.5228 7.47715 45 13 45ZM13 29C16.3137 29 19 31.6863 19 35C19 38.3137 16.3137 41 13 41C9.68629 41 7 38.3137 7 35C7 31.6863 9.68629 29 13 29Z" fill-rule="evenodd"  fill="#787878" >
</path>
<path d="M44 6C44 7.10457 43.1046 8 42 8C40.8954 8 40 7.10457 40 6C40 4.89543 40.8954 4 42 4C43.1046 4 44 4.89543 44 6Z"   fill="#424242" >
</path>
</svg>
