<svg xmlns="http://www.w3.org/2000/svg" xmlns:xlink="http://www.w3.org/1999/xlink" width="48" height="48" viewBox="0 0 48 48" fill="none">
<path d="M26.4 13.3725L30 14.9482L30 12C30 11.18 29.84 10.41 29.53 9.66C29.23 8.95 28.8 8.31 28.24 7.76C27.69 7.2 27.05 6.77 26.34 6.47C25.59 6.16 24.82 6 24 6C23.18 6 22.41 6.16 21.66 6.47C20.95 6.77 20.31 7.2 19.76 7.76C19.2 8.31 18.77 8.95 18.47 9.66C18.16 10.41 18 11.18 18 12L18 14.9456L21.59 13.3725C22.36 13.0325 23.16 12.8625 24 12.8625C24.84 12.8625 25.64 13.0325 26.4 13.3725ZM10.07 18.7625C10.51 18.3825 10.99 18.0725 11.53 17.8325L14 16.7153L14 12C14 10.64 14.26 9.35 14.79 8.11C15.29 6.91 16.01 5.85 16.93 4.93C17.85 4.01 18.91 3.29 20.11 2.79C21.35 2.26 22.64 2 24 2C25.36 2 26.65 2.26 27.89 2.79C29.09 3.29 30.15 4.01 31.07 4.93C31.99 5.85 32.71 6.91 33.21 8.11C33.74 9.35 34 10.64 34 12L34 16.7159L36.47 17.8325L36.48 17.8325C37.01 18.0725 37.49 18.3825 37.93 18.7625C38.36 19.1325 38.73 19.5625 39.04 20.0425C39.35 20.5225 39.59 21.0325 39.75 21.5825C39.92 22.1325 40 22.7025 40 23.2925L40 28.9925C40 31.8925 39.27 34.5325 37.8 36.9225C36.63 38.8425 35.01 40.5425 32.95 42.0225C31.44 43.1025 29.76 44.0225 27.89 44.7925C26.77 45.2625 25.72 45.6225 24.74 45.8725C24.25 46.0025 23.75 46.0025 23.26 45.8725C22.28 45.6225 21.23 45.2625 20.11 44.7925C18.24 44.0225 16.56 43.1025 15.05 42.0225C12.99 40.5425 11.37 38.8425 10.2 36.9225C8.73 34.5325 8 31.8925 8 28.9925L8 23.2925C8 22.7025 8.08 22.1325 8.25 21.5825C8.41 21.0325 8.65 20.5225 8.96 20.0425C9.27 19.5625 9.64 19.1325 10.07 18.7625Z" fill-rule="evenodd"  fill="#000000" >
</path>
</svg>
