<svg xmlns="http://www.w3.org/2000/svg" xmlns:xlink="http://www.w3.org/1999/xlink" width="48" height="48" viewBox="0 0 48 48" fill="none">
<path d="M24.39 44.9623C24.13 45.0123 23.87 45.0123 23.61 44.9623C23.28 44.9123 22.9 44.8423 22.48 44.7523C21.78 44.5923 21.06 44.4023 20.34 44.1723C18.17 43.4823 16.2 42.5423 14.42 41.3623C11.95 39.7123 10.01 37.6823 8.6 35.2823C6.87 32.3223 6 28.8923 6 24.9923L6 12.1223C6.01 11.5723 6.13 11.0423 6.34 10.5423C6.54 10.0523 6.83 9.61227 7.19 9.22227C7.56 8.84227 7.98 8.53227 8.46 8.29226C8.95 8.06227 9.46 7.92227 10 7.88227C12.21 7.64227 14.6 7.03227 17.17 6.06227C18.86 5.41227 20.46 4.68227 21.98 3.85227C22.59 3.51227 23.25 3.33227 23.96 3.32227C24.66 3.31227 25.32 3.47227 25.94 3.80227C26.58 4.14227 27.29 4.48227 28.06 4.83227C29.06 5.29227 30.06 5.70227 31.05 6.07227C33.66 7.05227 35.98 7.65227 38.01 7.88227C38.54 7.92227 39.05 8.06227 39.53 8.29226C40.01 8.52227 40.43 8.83227 40.8 9.21227C41.17 9.60227 41.45 10.0423 41.66 10.5323C41.87 11.0323 41.99 11.5623 42 12.1123L42 24.9923C42 28.8923 41.13 32.3223 39.4 35.2823C37.99 37.6823 36.05 39.7123 33.58 41.3623C31.8 42.5423 29.83 43.4823 27.66 44.1723C26.94 44.4023 26.22 44.5923 25.52 44.7523C25.1 44.8423 24.72 44.9123 24.39 44.9623ZM13.5924 23.22C13.5624 22.77 13.6124 22.32 13.7424 21.89C13.8724 21.44 14.0824 21.03 14.3524 20.65L17.2824 16.64C17.6624 16.12 18.1424 15.72 18.7124 15.43C19.2824 15.14 19.8824 15 20.5224 15L27.4824 15C28.1224 15 28.7224 15.14 29.2924 15.43C29.8624 15.72 30.3324 16.12 30.7124 16.64L33.6524 20.65C33.9224 21.03 34.1224 21.44 34.2524 21.89C34.3824 22.32 34.4324 22.77 34.4124 23.22C34.3924 23.68 34.2924 24.12 34.1224 24.54C33.9424 24.97 33.6924 25.36 33.3724 25.71L26.9624 32.72C26.9624 32.72 26.9624 32.73 26.9524 32.73C26.5724 33.15 26.1224 33.47 25.6024 33.7C25.0924 33.92 24.5624 34.03 24.0024 34.03C23.4424 34.03 22.9024 33.92 22.3924 33.7C21.8724 33.47 21.4224 33.15 21.0424 32.73L14.6224 25.71C14.3024 25.36 14.0624 24.97 13.8824 24.54C13.7124 24.12 13.6124 23.68 13.5924 23.22ZM21.56 40.3623C19.74 39.7823 18.1 39.0023 16.64 38.0323C14.68 36.7223 13.15 35.1323 12.05 33.2523C10.68 30.9223 10 28.1623 10 24.9923L10 12.2023C10.01 12.1123 10.04 12.0423 10.1 11.9723C10.16 11.9123 10.24 11.8723 10.33 11.8623L10.39 11.8623C12.96 11.5923 15.69 10.9023 18.59 9.80227C20.45 9.09227 22.23 8.27227 23.94 7.34227C23.99 7.31227 24.03 7.31227 24.08 7.34227C24.78 7.71227 25.56 8.09227 26.4 8.47227C27.48 8.96227 28.57 9.41227 29.65 9.82227C32.58 10.9223 35.23 11.6023 37.6 11.8623L37.67 11.8623C37.76 11.8723 37.84 11.9123 37.9 11.9723C37.96 12.0323 37.99 12.1123 38 12.1923L38 24.9923C38 28.1623 37.32 30.9223 35.95 33.2523C34.85 35.1323 33.32 36.7223 31.36 38.0323C29.9 39.0023 28.26 39.7823 26.44 40.3623C25.84 40.5523 25.25 40.7123 24.66 40.8423C24.42 40.9023 24.2 40.9423 24 40.9723C23.8 40.9423 23.58 40.9023 23.34 40.8423C22.75 40.7123 22.16 40.5523 21.56 40.3623ZM20.5124 19L27.4824 19L30.4124 23.01L30.4224 23.02L24.0024 30.03L23.9924 30.03L17.5824 23.02L17.5824 23.01L20.5124 19Z" fill-rule="evenodd"  fill="#000000" >
</path>
</svg>
