<svg xmlns="http://www.w3.org/2000/svg" xmlns:xlink="http://www.w3.org/1999/xlink" width="48" height="48" viewBox="0 0 48 48" fill="none">
<path d="M4 24C4 12.95 12.95 4 24 4C35.05 4 44 12.95 44 24C44 35.05 35.05 44 24 44C12.95 44 4 35.05 4 24ZM25.74 39.14C25.13 39.71 24.55 40 24 40C23.45 40 22.87 39.71 22.26 39.14C21.5 38.41 20.8 37.33 20.17 35.92C19.5 34.4 18.97 32.64 18.59 30.64C18.3136 29.1446 18.1326 27.5991 18.0507 25.9997L29.9493 25.9997C29.8674 27.5991 29.6864 29.1446 29.41 30.64C29.03 32.64 28.5 34.4 27.83 35.92C27.2 37.33 26.5 38.41 25.74 39.14ZM29.9493 22.0005L18.0507 22.0005C18.1326 20.4011 18.3136 18.8554 18.59 17.36C18.97 15.36 19.5 13.6 20.17 12.08C20.8 10.67 21.5 9.59 22.26 8.86C22.87 8.29 23.45 8 24 8C24.55 8 25.13 8.29 25.74 8.86C26.5 9.59 27.2 10.67 27.83 12.08C28.5 13.6 29.03 15.36 29.41 17.36C29.6864 18.8554 29.8674 20.4011 29.9493 22.0005ZM33.9545 25.9997C33.8693 27.8501 33.6645 29.6395 33.34 31.38C32.9 33.68 32.29 35.74 31.49 37.54C31.3674 37.8141 31.2416 38.08 31.1127 38.3374C35.8135 36.0021 39.2009 31.4234 39.8764 25.9997L33.9545 25.9997ZM39.8764 22.0005L33.9545 22.0005C33.8693 20.15 33.6645 18.3605 33.34 16.62C32.9 14.32 32.29 12.26 31.49 10.46C31.3674 10.1859 31.2416 9.92003 31.1127 9.66257C35.8135 11.9979 39.201 16.5768 39.8764 22.0005ZM14.0455 22.0005C14.1307 20.15 14.3355 18.3605 14.66 16.62C15.1 14.32 15.71 12.26 16.51 10.46C16.6326 10.1859 16.7584 9.92003 16.8873 9.66257C12.1865 11.9979 8.79902 16.5768 8.12359 22.0005L14.0455 22.0005ZM8.12361 25.9997C8.7991 31.4234 12.1865 36.0021 16.8873 38.3374C16.7584 38.08 16.6326 37.8141 16.51 37.54C15.71 35.74 15.1 33.68 14.66 31.38C14.3355 29.6395 14.1307 27.8501 14.0455 25.9997L8.12361 25.9997Z" fill-rule="evenodd"  fill="#000000" >
</path>
</svg>
