<svg xmlns="http://www.w3.org/2000/svg" xmlns:xlink="http://www.w3.org/1999/xlink" width="48" height="48" viewBox="0 0 48 48" fill="none">
<path d="M35.5855 29.5858C34.8045 30.3669 34.8045 31.6332 35.5855 32.4142C36.3666 33.1953 37.6329 33.1953 38.4139 32.4142C44.7169 26.1112 44.7169 15.8921 38.4139 9.58902C32.1109 3.286 21.8918 3.28602 15.5888 9.58902C14.8077 10.3701 14.8077 11.6363 15.5888 12.4174C16.3698 13.1985 17.6361 13.1985 18.4172 12.4174C23.1581 7.67649 30.8447 7.67652 35.5855 12.4174C40.3265 17.1584 40.3265 24.8449 35.5855 29.5858ZM29.5855 26.4142C28.8045 25.6332 28.8045 24.3669 29.5855 23.5858C31.0133 22.1581 31.0133 19.8433 29.5855 18.4155C28.1578 16.9878 25.843 16.9878 24.4152 18.4155C23.6342 19.1966 22.3679 19.1966 21.5868 18.4155C20.8058 17.6345 20.8058 16.3682 21.5868 15.5871C24.5767 12.5972 29.4241 12.5973 32.4139 15.5871C35.4037 18.5769 35.4038 23.4244 32.4139 26.4142C31.6329 27.1953 30.3666 27.1953 29.5855 26.4142ZM26.4292 44.4486C28.5476 43.9419 30.5174 43.0956 32.3387 41.9098C33.0269 41.4617 33.5605 40.8839 33.9395 40.1764C34.294 39.5148 34.4819 38.7987 34.5031 38.0282C34.5232 37.3022 34.3931 36.5937 34.113 35.9029C33.8317 35.2091 33.4234 34.5946 32.888 34.0592L13.9409 15.1121C13.4033 14.5744 12.7846 14.1659 12.0847 13.8864C11.3916 13.6096 10.6805 13.4835 9.95154 13.508C9.18126 13.5339 8.46567 13.7252 7.80478 14.0819C7.09732 14.4637 6.52036 14.9986 6.0739 15.6868C4.89251 17.5076 4.05003 19.4761 3.54645 21.5923C3.05296 23.6661 2.91199 25.7653 3.12353 27.8898C3.33694 30.0332 3.89703 32.0771 4.80378 34.0214C5.74219 36.0336 7.0029 37.8313 8.58591 39.4143C10.1707 40.9991 11.9706 42.2608 13.9855 43.1996C15.9324 44.1065 17.9788 44.666 20.1248 44.878C22.252 45.0882 24.3535 44.945 26.4292 44.4486ZM30.5047 37.9179C30.497 38.1982 30.3808 38.4115 30.1561 38.5577C28.7211 39.492 27.1687 40.1589 25.4987 40.5584C23.8592 40.9505 22.199 41.0636 20.5181 40.8975C18.8242 40.7301 17.2097 40.2888 15.6746 39.5737C14.0864 38.8338 12.6663 37.8378 11.4143 36.5859C10.1637 35.3353 9.16859 33.9169 8.42887 32.3308C7.71392 30.7977 7.27222 29.1853 7.10377 27.4935C6.93663 25.8148 7.04795 24.1563 7.43775 22.5183C7.83474 20.85 8.49864 19.2986 9.42944 17.864C9.57808 17.6349 9.79691 17.5155 10.0859 17.5057C10.2559 17.5 10.4277 17.5318 10.6014 17.6012C10.7921 17.6774 10.9625 17.7905 11.1126 17.9405L30.0596 36.8876C30.2126 37.0406 30.3281 37.2133 30.4062 37.4059C30.4765 37.5793 30.5093 37.75 30.5047 37.9179Z" fill-rule="evenodd"  fill="#000000" >
</path>
</svg>
