<svg xmlns="http://www.w3.org/2000/svg" xmlns:xlink="http://www.w3.org/1999/xlink" width="48" height="48" viewBox="0 0 48 48" fill="none">
<path d="M44.9899 24C44.9899 28.83 43.5499 33.1 40.6599 36.82L42.2099 38.44C44.6299 40.98 42.8399 45.18 39.3299 45.2L23.6999 45.2C11.9899 45.2 2.41992 35.71 2.41992 24C2.41992 12.25 11.9499 2.79004 23.6999 2.79004C35.4099 2.79004 44.9899 12.29 44.9899 24ZM11.9999 22.9944C11.9999 28.0044 13.8199 31.8244 17.4699 34.4344C19.3699 35.7944 21.4199 36.6344 23.6099 36.9644C23.8699 37.0044 24.1299 37.0044 24.3899 36.9644C26.5799 36.6344 28.6299 35.7944 30.5299 34.4344C34.1799 31.8244 35.9999 28.0044 35.9999 22.9944L35.9999 19.3744C35.9999 16.9544 34.5499 14.7644 32.3199 13.8344L26.3299 11.3044C24.8399 10.6744 23.1599 10.6744 21.6699 11.3044L15.6699 13.8344C13.4499 14.7644 11.9999 16.9444 11.9999 19.3744L11.9999 22.9944ZM23.9999 32.9744C25.4799 32.7244 26.8799 32.1244 28.1999 31.1744C30.7299 29.3644 31.9999 26.6344 31.9999 22.9944L31.9999 19.3744C31.9999 18.5644 31.5199 17.8344 30.7799 17.5244L24.7699 14.9944C24.2799 14.7844 23.7199 14.7844 23.2299 14.9944L17.2299 17.5244C16.4699 17.8344 15.9999 18.5644 15.9999 19.3744L15.9999 22.9944C15.9999 26.6344 17.2699 29.3644 19.7999 31.1744C21.1199 32.1244 22.5199 32.7244 23.9999 32.9744Z" fill-rule="evenodd"  fill="#000000" >
</path>
</svg>
