<svg xmlns="http://www.w3.org/2000/svg" xmlns:xlink="http://www.w3.org/1999/xlink" width="48" height="48" viewBox="0 0 48 48" fill="none">
<path d="M31.9799 4.46004C34.5299 5.53004 36.7899 7.04004 38.7499 9.00004C40.7099 10.96 42.2399 13.2 43.3099 15.74C44.4299 18.37 44.9899 21.12 44.9899 24C44.9899 26.7 44.4999 29.29 43.5099 31.78C42.7899 33.6 41.8399 35.28 40.6599 36.82C41.3499 37.57 41.7699 38.43 41.9299 39.42C42.0699 40.36 41.9599 41.28 41.5799 42.17C41.1999 43.06 40.6099 43.77 39.8299 44.32C38.9799 44.91 38.0299 45.2 36.9799 45.2L23.6999 45.2C20.8199 45.2 18.0599 44.64 15.4199 43.53C12.8799 42.46 10.6199 40.95 8.65992 38.99C6.68992 37.04 5.16992 34.79 4.09992 32.25C2.97992 29.63 2.41992 26.87 2.41992 24C2.41992 21.12 2.97992 18.37 4.09992 15.74C5.16992 13.2 6.68992 10.96 8.65992 9.00004C10.6199 7.04004 12.8799 5.53004 15.4199 4.46004C18.0599 3.35004 20.8199 2.79004 23.6999 2.79004C26.5799 2.79004 29.3499 3.35004 31.9799 4.46004ZM30.4299 8.14004C32.4999 9.01004 34.3299 10.24 35.9299 11.83C37.5199 13.42 38.7599 15.25 39.6299 17.3C40.5399 19.43 40.9899 21.67 40.9899 24C40.9899 26.19 40.5899 28.29 39.7899 30.3C39.0299 32.22 37.9599 33.95 36.5699 35.49L36.5599 35.49C36.5199 35.54 36.4699 35.59 36.4299 35.64L35.2399 36.94L37.7099 39.51C37.8499 39.67 37.9399 39.84 37.9699 40.04C37.9999 40.22 37.9799 40.41 37.8999 40.59C37.8199 40.78 37.6999 40.93 37.5499 41.03C37.3899 41.14 37.1999 41.2 36.9799 41.2L23.6999 41.2C21.3599 41.2 19.1099 40.75 16.9799 39.85C14.9099 38.98 13.0799 37.75 11.4799 36.16C9.88992 34.57 8.64992 32.75 7.77992 30.69C6.86992 28.56 6.41992 26.33 6.41992 24C6.41992 21.67 6.86992 19.43 7.77992 17.3C8.64992 15.25 9.88992 13.42 11.4799 11.83C13.0799 10.24 14.9099 9.01004 16.9799 8.14004C19.1099 7.24004 21.3599 6.79004 23.6999 6.79004C26.0499 6.79004 28.2899 7.24004 30.4299 8.14004ZM11.9999 22.9949C11.9999 25.6949 12.5599 28.0849 13.6699 30.1449C14.5899 31.8449 15.8499 33.2749 17.4699 34.4349C18.6399 35.2649 19.9399 35.9249 21.3699 36.4049C22.1699 36.6749 22.9199 36.8549 23.6099 36.9649C23.8699 37.0049 24.1299 37.0049 24.3899 36.9649C25.0799 36.8549 25.8299 36.6749 26.6299 36.4049C28.0599 35.9249 29.3599 35.2649 30.5299 34.4349C32.1499 33.2749 33.4099 31.8449 34.3299 30.1449C35.4399 28.0849 35.9999 25.6949 35.9999 22.9949L35.9999 19.3749C35.9999 18.7749 35.9099 18.1849 35.7399 17.6249C35.5699 17.0649 35.3199 16.5349 34.9999 16.0449C34.6799 15.5649 34.2899 15.1249 33.8399 14.7549C33.3799 14.3749 32.8699 14.0649 32.3199 13.8349L26.3299 11.305C25.5899 10.995 24.8099 10.835 23.9999 10.835C23.1899 10.835 22.4099 10.995 21.6699 11.305L15.6699 13.8349C15.1199 14.0649 14.6199 14.3749 14.1599 14.7549C13.7099 15.1249 13.3199 15.5649 12.9999 16.0449C12.6799 16.5349 12.4299 17.0649 12.2599 17.6249C12.0899 18.1849 11.9999 18.7749 11.9999 19.3749L11.9999 22.9949ZM22.6399 32.6149C23.1399 32.7749 23.5899 32.8949 23.9999 32.9749C24.4099 32.8949 24.8599 32.7749 25.3599 32.6149C26.4099 32.2549 27.3599 31.7849 28.1999 31.1749C30.7299 29.3649 31.9999 26.6349 31.9999 22.9949L31.9999 19.3749C31.9999 18.9649 31.8899 18.5949 31.6699 18.2549C31.4399 17.9249 31.1499 17.6749 30.7799 17.5249L24.7699 14.9949C24.5199 14.8849 24.2699 14.8349 23.9999 14.8349C23.7299 14.8349 23.4799 14.8849 23.2299 14.9949L17.2299 17.5249C16.8499 17.6749 16.5599 17.9249 16.3299 18.2549C16.1099 18.5949 15.9999 18.9649 15.9999 19.3749L15.9999 22.9949C15.9999 26.6349 17.2699 29.3649 19.7999 31.1749C20.6399 31.7849 21.5899 32.2549 22.6399 32.6149Z" fill-rule="evenodd"  fill="#000000" >
</path>
</svg>
