<svg xmlns="http://www.w3.org/2000/svg" xmlns:xlink="http://www.w3.org/1999/xlink" width="48" height="48" viewBox="0 0 48 48" fill="none">
<path d="M8 25.9901C8 40.4101 22.76 42.8201 23.93 42.9901C23.98 43.0001 24.02 43.0001 24.07 42.9901C25.24 42.8201 40 40.4101 40 25.9901L40 12.1101C40 10.2701 38.75 8.68012 36.97 8.23012L24.97 5.24012C24.33 5.08012 23.67 5.08012 23.03 5.24012L11.03 8.23012C9.25 8.68012 8 10.2701 8 12.1101L8 25.9901Z"   fill="#BEDCFF" >
</path>
<path d="M10 25.9933L10 12.1108C10 11.1924 10.6255 10.3921 11.5166 10.1701L23.5166 7.18135C23.834 7.1023 24.166 7.1023 24.4834 7.18135L36.4834 10.1701C37.3745 10.392 38 11.1924 38 12.1108L38 25.9933C38 31.0143 36.0347 34.9084 32.104 37.6758C29.7604 39.3258 27.1049 40.418 24.1376 40.9526C24.0441 40.9695 23.948 40.9681 23.8545 40.9512C20.8838 40.4143 18.2275 39.32 15.8854 37.6683C11.9618 34.9013 10 31.0097 10 25.9933ZM10.5499 6.28866C7.8764 6.95453 6 9.35563 6 12.1108L6 25.9933C6 32.3921 8.52671 37.3734 13.5801 40.9372C16.4043 42.9288 19.592 44.2456 23.1431 44.8874C23.7063 44.9892 24.2834 44.9907 24.8467 44.8893C28.3944 44.2501 31.581 42.9359 34.4067 40.9465C39.4689 37.3825 42 32.3981 42 25.9933L42 12.1108C42 9.35564 40.1236 6.95453 37.4501 6.28866L25.4501 3.29993C24.4979 3.06278 23.5021 3.06278 22.5499 3.29993L10.5499 6.28866Z" fill-rule="evenodd"  fill="#6BA6FF" >
</path>
<path d="M38 25.9047C37.7784 28.477 37.4959 30.2496 37.1526 31.2225C37.0669 31.4452 37.02 31.6872 37.02 31.9401C37.02 33.0447 37.9154 33.9401 39.02 33.9401C39.9046 33.9401 40.655 33.3658 40.9189 32.5698C41.3829 31.2589 41.7409 29.1222 41.9928 26.1596L42 26.075L42 12.1151C42 9.36054 40.1245 6.95985 37.4518 6.29335L25.4518 3.30085C24.4985 3.06313 23.5015 3.06313 22.5482 3.30085L10.5482 6.29335C7.87554 6.95985 6 9.36054 6 12.1151L6 25.9901C6 28.5113 6.40584 30.827 7.21753 32.9372C7.49501 33.7085 8.2331 34.2601 9.1 34.2601C10.2046 34.2601 11.1 33.3647 11.1 32.2601C11.1 31.9898 11.0464 31.732 10.9492 31.4969C10.3164 29.8499 10 28.0143 10 25.9901L10 12.1151C10 11.1969 10.6252 10.3967 11.5161 10.1745L23.5161 7.18199C23.8338 7.10275 24.1662 7.10275 24.4839 7.18199L36.4839 10.1745C37.3748 10.3967 38 11.1969 38 12.1151L38 25.9047Z" fill-rule="evenodd"  fill="#4187FF" >
</path>
<path d="M6 12.1151L6 21.9903C6 23.0949 6.89543 23.9903 8 23.9903C9.10457 23.9903 10 23.0949 10 21.9903L10 12.1151C10 11.1969 10.6252 10.3967 11.5161 10.1745L23.5161 7.18199C23.8338 7.10275 24.1662 7.10275 24.4839 7.18199L36.4839 10.1745C37.3748 10.3967 38 11.1969 38 12.1151L38 21.9903C38 23.0949 38.8954 23.9903 40 23.9903C41.1046 23.9903 42 23.0949 42 21.9903L42 12.1151C42 9.36054 40.1245 6.95985 37.4518 6.29335L25.4518 3.30085C24.4985 3.06313 23.5015 3.06313 22.5482 3.30085L10.5482 6.29335C7.87554 6.95985 6 9.36054 6 12.1151Z" fill-rule="evenodd"  fill="#1764FF" >
</path>
<path d="M26.183 28.0053L30.183 31.5053C31.0142 32.2326 32.2778 32.1484 33.0051 31.3171C33.7325 30.4858 33.6483 29.2223 32.817 28.4949L28.817 24.995C27.9857 24.2676 26.7222 24.3518 25.9948 25.1831C25.2675 26.0144 25.3517 27.2779 26.183 28.0053Z" fill-rule="evenodd"  fill="#4187FF" >
</path>
<path d="M23 30C27.4183 30 31 26.4183 31 22C31 17.5817 27.4183 14 23 14C18.5817 14 15 17.5817 15 22C15 26.4183 18.5817 30 23 30ZM23 18C25.2091 18 27 19.7909 27 22C27 24.2091 25.2091 26 23 26C20.7909 26 19 24.2091 19 22C19 19.7909 20.7909 18 23 18Z" fill-rule="evenodd"  fill="#1764FF" >
</path>
</svg>
