<svg xmlns="http://www.w3.org/2000/svg" xmlns:xlink="http://www.w3.org/1999/xlink" width="48" height="48" viewBox="0 0 48 48" fill="none">
<path d="M31.4231 28.806C31.3931 28.746 31.3531 28.696 31.3231 28.636L31.2031 28.486C31.1631 28.426 31.1031 28.386 31.0631 28.336L26.8184 24.0912L31.0639 19.8457C31.1539 19.7557 31.2439 19.6557 31.3239 19.5457C31.3939 19.4357 31.4539 19.3257 31.5039 19.2057C31.5539 19.0757 31.5939 18.9557 31.6139 18.8257C31.6439 18.6957 31.6539 18.5657 31.6539 18.4357C31.6539 18.3057 31.6439 18.1757 31.6139 18.0457C31.5939 17.9157 31.5539 17.7957 31.5039 17.6657C31.4539 17.5457 31.3939 17.4357 31.3239 17.3257C31.2439 17.2157 31.1639 17.1157 31.0739 17.0257C31.0239 16.9757 30.9739 16.9357 30.9239 16.8857C30.8739 16.8457 30.8239 16.8057 30.7639 16.7757C30.7139 16.7357 30.6539 16.7057 30.6039 16.6757L30.4239 16.5857C30.3639 16.5657 30.3039 16.5457 30.2339 16.5257C30.1739 16.5057 30.1139 16.4857 30.0439 16.4757C29.9839 16.4657 29.9139 16.4557 29.8539 16.4457C29.7839 16.4357 29.7239 16.4357 29.6539 16.4357C29.5939 16.4357 29.5239 16.4357 29.4639 16.4457C29.3939 16.4557 29.3339 16.4657 29.2639 16.4757C29.2039 16.4857 29.1339 16.5057 29.0739 16.5257L28.8939 16.5857L28.7139 16.6757C28.6539 16.7057 28.6039 16.7357 28.5439 16.7757C28.4939 16.8057 28.4339 16.8457 28.3839 16.8857C28.3339 16.9357 28.2839 16.9757 28.2439 17.0257L23.9984 21.2712L19.7531 17.026C19.6631 16.926 19.5631 16.846 19.4531 16.776C19.3431 16.696 19.2331 16.636 19.1131 16.586C18.9831 16.536 18.8631 16.496 18.7331 16.476C18.6031 16.446 18.4731 16.436 18.3431 16.436C18.2131 16.436 18.0831 16.446 17.9531 16.476C17.8231 16.496 17.7031 16.536 17.5731 16.586C17.4531 16.636 17.3431 16.696 17.2331 16.776C17.1231 16.846 17.0231 16.926 16.9331 17.026C16.8331 17.116 16.7531 17.216 16.6831 17.326C16.6031 17.436 16.5431 17.546 16.4931 17.666C16.4431 17.796 16.4031 17.916 16.3831 18.046C16.3531 18.176 16.3431 18.306 16.3431 18.436C16.3431 18.566 16.3531 18.696 16.3831 18.826C16.4031 18.956 16.4431 19.076 16.4931 19.206C16.5431 19.326 16.6031 19.436 16.6831 19.546C16.7531 19.656 16.8331 19.756 16.9331 19.846L21.1784 24.0912L16.934 28.3357C16.884 28.3857 16.844 28.4357 16.794 28.4857C16.754 28.5357 16.714 28.5857 16.684 28.6357C16.644 28.6957 16.614 28.7457 16.584 28.8057L16.494 28.9857L16.434 29.1657C16.414 29.2357 16.394 29.2957 16.384 29.3557C16.374 29.4257 16.364 29.4857 16.354 29.5557C16.344 29.6157 16.344 29.6857 16.344 29.7557C16.344 29.8157 16.344 29.8857 16.354 29.9457C16.364 30.0157 16.374 30.0757 16.384 30.1457C16.394 30.2057 16.414 30.2657 16.434 30.3357L16.494 30.5157L16.584 30.6957C16.614 30.7557 16.644 30.8057 16.684 30.8657C16.714 30.9157 16.754 30.9657 16.794 31.0157C16.844 31.0657 16.884 31.1157 16.934 31.1657C16.974 31.2157 17.024 31.2557 17.074 31.2957C17.124 31.3357 17.174 31.3757 17.234 31.4157C17.284 31.4457 17.344 31.4857 17.404 31.5157C17.464 31.5457 17.514 31.5757 17.574 31.5957C17.644 31.6257 17.704 31.6457 17.764 31.6657C17.824 31.6857 17.894 31.6957 17.954 31.7157C18.014 31.7257 18.084 31.7357 18.144 31.7457L18.544 31.7457C18.604 31.7357 18.674 31.7257 18.734 31.7157C18.794 31.6957 18.864 31.6857 18.924 31.6657C18.984 31.6457 19.054 31.6257 19.114 31.5957C19.174 31.5757 19.234 31.5457 19.284 31.5157C19.344 31.4857 19.404 31.4457 19.454 31.4157C19.514 31.3757 19.564 31.3357 19.614 31.2957C19.664 31.2557 19.714 31.2157 19.754 31.1657L23.9984 26.9113L28.2431 31.156C28.2931 31.196 28.3331 31.256 28.3831 31.296C28.4431 31.336 28.4931 31.376 28.5431 31.416C28.6031 31.446 28.6531 31.486 28.7131 31.516C28.7731 31.546 28.8331 31.576 28.8931 31.596C28.9531 31.626 29.0131 31.646 29.0731 31.666C29.1431 31.686 29.2031 31.696 29.2631 31.716C29.3331 31.726 29.3931 31.736 29.4631 31.736C29.5231 31.746 29.5931 31.746 29.6531 31.746C29.7231 31.746 29.7831 31.746 29.8531 31.736C29.9131 31.736 29.9831 31.726 30.0431 31.716C30.1131 31.696 30.1731 31.686 30.2331 31.666C30.3031 31.646 30.3631 31.626 30.4231 31.596C30.4831 31.576 30.5431 31.546 30.6031 31.516C30.6531 31.486 30.7131 31.446 30.7631 31.416C30.8231 31.376 30.8731 31.336 30.9231 31.296C30.9731 31.256 31.0231 31.206 31.0731 31.166C31.1131 31.116 31.1631 31.066 31.2031 31.016C31.2431 30.966 31.2831 30.916 31.3231 30.856C31.3531 30.806 31.3931 30.746 31.4231 30.696C31.4531 30.636 31.4831 30.576 31.5031 30.516C31.5331 30.456 31.5531 30.396 31.5731 30.326C31.5931 30.266 31.6031 30.206 31.6231 30.136C31.6331 30.076 31.6431 30.016 31.6431 29.946C31.6531 29.876 31.6531 29.816 31.6531 29.746C31.6531 29.686 31.6531 29.616 31.6431 29.556C31.6431 29.486 31.6331 29.426 31.6231 29.356C31.6031 29.296 31.5931 29.236 31.5731 29.166C31.5531 29.106 31.5331 29.046 31.5031 28.986C31.4831 28.926 31.4531 28.866 31.4231 28.806ZM22.54 3.29768L10.55 6.28768C9.89 6.45768 9.27 6.72768 8.71 7.09768C8.16 7.45768 7.68 7.89768 7.27 8.41768C6.87 8.93768 6.55 9.50768 6.34 10.1277C6.11 10.7677 6 11.4277 6 12.1077L6 25.9877C6 29.6877 6.88 32.9477 8.63 35.7577C10.04 38.0377 11.99 39.9577 14.46 41.5277C16.23 42.6477 18.2 43.5377 20.36 44.1977C21.55 44.5677 22.63 44.8177 23.61 44.9677C23.87 45.0077 24.13 45.0077 24.39 44.9677C25.37 44.8177 26.45 44.5677 27.64 44.1977C29.8 43.5377 31.77 42.6477 33.54 41.5277C36.01 39.9577 37.96 38.0377 39.37 35.7577C41.12 32.9477 42 29.6877 42 25.9877L42 12.1077C42 11.4277 41.89 10.7677 41.66 10.1277C41.45 9.50768 41.13 8.93768 40.73 8.41768C40.32 7.89768 39.84 7.45768 39.29 7.09768C38.73 6.72768 38.12 6.45768 37.46 6.28768L25.45 3.29768C24.48 3.05768 23.51 3.05768 22.54 3.29768Z" fill-rule="evenodd"  fill="#000000" >
</path>
</svg>
