<svg xmlns="http://www.w3.org/2000/svg" xmlns:xlink="http://www.w3.org/1999/xlink" width="48" height="48" viewBox="0 0 48 48" fill="none">
<path d="M4.1324 13.3671L9.8824 22.9571C10.2724 23.5971 10.2624 24.3871 9.8924 25.0271L4.12241 34.6171C1.0624 39.7171 6.4724 45.6771 11.8524 43.1271L40.7524 29.4071C45.3224 27.2371 45.3124 20.7271 40.7324 18.5571L11.8424 4.86708C6.4824 2.32708 1.0824 8.27708 4.1324 13.3671ZM14.1699 23.98C14.1699 22.88 15.0699 21.98 16.1699 21.98L28.1699 21.98C29.2699 21.98 30.1699 22.88 30.1699 23.98C30.1699 25.08 29.2699 25.98 28.1699 25.98L16.1699 25.98C15.0699 25.98 14.1699 25.08 14.1699 23.98Z" fill-rule="evenodd"  fill="#000000" >
</path>
</svg>
