<svg xmlns="http://www.w3.org/2000/svg" xmlns:xlink="http://www.w3.org/1999/xlink" width="48" height="48" viewBox="0 0 48 48" fill="none">
<path d="M8.67999 30.5375L8.67999 17.4575C8.67999 16.7475 8.85999 16.0875 9.21999 15.4675C9.57999 14.8475 10.06 14.3575 10.68 13.9975L22 7.46749L22 7.45749C22.62 7.10749 23.29 6.92749 24 6.92749C24.71 6.92749 25.38 7.10749 26 7.45749L37.32 13.9975C37.94 14.3575 38.42 14.8475 38.78 15.4675C39.14 16.0875 39.32 16.7475 39.32 17.4575L39.32 30.5375C39.32 31.2475 39.14 31.9175 38.78 32.5375C38.42 33.1575 37.94 33.6375 37.32 33.9975L26 40.5375C25.38 40.8975 24.71 41.0675 24 41.0675C23.29 41.0675 22.62 40.8975 22 40.5375L10.68 33.9975C10.06 33.6375 9.57999 33.1575 9.21999 32.5375C8.85999 31.9175 8.67999 31.2475 8.67999 30.5375ZM22.05 28.61C21.45 28.36 20.92 28 20.46 27.54C20 27.08 19.64 26.55 19.39 25.95C19.13 25.33 19 24.68 19 24C19 23.32 19.13 22.67 19.39 22.05C19.64 21.45 20 20.92 20.46 20.46C20.92 20 21.45 19.64 22.05 19.39C22.67 19.13 23.32 19 24 19C24.68 19 25.33 19.13 25.95 19.39C26.55 19.64 27.08 20 27.54 20.46C28 20.92 28.36 21.45 28.61 22.05C28.87 22.67 29 23.32 29 24C29 24.68 28.87 25.33 28.61 25.95C28.36 26.55 28 27.08 27.54 27.54C27.08 28 26.55 28.36 25.95 28.61C25.33 28.87 24.68 29 24 29C23.32 29 22.67 28.87 22.05 28.61ZM20 43.9975L8.67999 37.4575C7.43999 36.7475 6.46999 35.7775 5.75999 34.5375C5.03999 33.2975 4.67999 31.9675 4.67999 30.5375L4.67999 17.4575C4.67999 16.0375 5.03999 14.6975 5.75999 13.4575C6.46999 12.2275 7.43999 11.2475 8.67999 10.5375L20 3.99749C21.24 3.28749 22.57 2.92749 24 2.92749C25.43 2.92749 26.76 3.28749 28 3.99749L39.32 10.5375C40.56 11.2575 41.53 12.2275 42.24 13.4575C42.96 14.6975 43.32 16.0375 43.32 17.4575L43.32 30.5375C43.32 31.9675 42.96 33.2975 42.24 34.5375C41.53 35.7775 40.56 36.7475 39.32 37.4575L28 44.0075C26.76 44.7175 25.43 45.0775 24 45.0775C22.57 45.0775 21.24 44.7175 20 43.9975ZM32.29 20.5C32.76 21.61 33 22.78 33 24C33 25.22 32.76 26.39 32.29 27.5C31.84 28.58 31.2 29.54 30.37 30.37C29.54 31.2 28.58 31.84 27.5 32.29C26.39 32.76 25.22 33 24 33C22.78 33 21.61 32.76 20.5 32.29C19.42 31.84 18.46 31.2 17.63 30.37C16.8 29.54 16.16 28.58 15.71 27.5C15.24 26.39 15 25.22 15 24C15 22.78 15.24 21.61 15.71 20.5C16.16 19.42 16.8 18.46 17.63 17.63C18.46 16.8 19.42 16.16 20.5 15.71C21.61 15.24 22.78 15 24 15C25.22 15 26.39 15.24 27.5 15.71C28.58 16.16 29.54 16.8 30.37 17.63C31.2 18.46 31.84 19.42 32.29 20.5Z" fill-rule="evenodd"  fill="#000000" >
</path>
</svg>
