<svg xmlns="http://www.w3.org/2000/svg" xmlns:xlink="http://www.w3.org/1999/xlink" width="48" height="48" viewBox="0 0 48 48" fill="none">
<path d="M11 42.5L37 42.5C40.3137 42.5 43 39.8137 43 36.5L43 19.5C43 16.1863 40.3137 13.5 37 13.5L5 13.5L5 36.5C5 39.8137 7.68629 42.5 11 42.5Z"   fill="#FEEDBD" >
</path>
<path d="M3 13.5L3 36.5C3 40.9183 6.58172 44.5 11 44.5L37 44.5C41.4183 44.5 45 40.9183 45 36.5L45 19.5C45 15.0817 41.4183 11.5 37 11.5L5 11.5C3.89543 11.5 3 12.3954 3 13.5ZM11 40.5C8.79086 40.5 7 38.7091 7 36.5L7 15.5L37 15.5C39.2091 15.5 41 17.2909 41 19.5L41 36.5C41 38.7091 39.2091 40.5 37 40.5L11 40.5Z" fill-rule="evenodd"  fill="#FA9E14" >
</path>
<path d="M12.98 36.1154C15.1655 34.123 18.6625 31.2063 20.8487 30.7587L21.4298 34.1026C21.5856 34.9993 22.7609 35.2385 23.2549 34.4742L27.5003 27.906C28.3476 26.595 28.048 24.8533 26.8114 23.9008L21.0958 19.4984C20.3854 18.9512 19.3695 19.5433 19.4954 20.4311L19.9823 23.8621C14.4983 26.8476 12.3347 32.1275 11.5011 35.3213C11.2659 36.2225 12.2917 36.7429 12.98 36.1154Z"   fill="#FA9E14" >
</path>
<path d="M17.8146 22.8224C13.7151 25.4553 10.9655 29.4532 9.56585 34.8161C9.18139 36.2892 9.64769 37.3713 10.9648 38.0624C12.1697 38.6948 13.2906 38.5385 14.3273 37.5933C16.3598 35.7405 18.0218 34.4112 19.3133 33.6054L19.4592 34.445C19.9267 37.1349 23.4525 37.8527 24.9345 35.5598L29.1799 28.9916C30.8458 26.4141 30.4631 24.189 28.0317 22.3163L22.3161 17.9139C20.185 16.2724 17.1372 18.0487 17.5152 20.7121L17.8146 22.8224ZM14.9258 31.847C17.1777 30.1078 19.0183 29.0919 20.4474 28.7993L20.4498 28.7988C21.0015 28.6865 21.5447 28.8127 21.6787 28.904C21.7053 28.9221 21.7158 28.9388 21.7071 28.9521C22.2719 29.2211 22.7033 29.7506 22.819 30.4162L22.9625 31.242L25.8205 26.8203C26.1537 26.3048 26.0772 25.8598 25.5909 25.4852L21.8204 22.5811L21.9623 23.5811C22.0796 24.4074 21.6714 25.2196 20.9385 25.6187C18.3267 27.0405 16.3225 29.1167 14.9258 31.847Z" fill-rule="evenodd"  fill="#FA9E14" >
</path>
<path d="M5 13.5L29 13.5L22.7901 6.51382C21.6515 5.23289 20.0194 4.5 18.3056 4.5L11 4.5C7.68629 4.5 5 7.18629 5 10.5L5 13.5Z"   fill="#FBB63E" >
</path>
<path d="M7 11.5L7 10.5C7 8.29086 8.79086 6.5 11 6.5L18.3056 6.5C19.5031 6.5 20.4997 6.94751 21.2952 7.84254L24.5463 11.5L7 11.5ZM11 2.5C6.58172 2.5 3 6.08172 3 10.5L3 13.5C3 14.6046 3.89543 15.5 5 15.5L29 15.5C30.7257 15.5 31.6413 13.4611 30.4948 12.1713L24.2849 5.18509C22.6937 3.39503 20.7006 2.5 18.3056 2.5L11 2.5Z" fill-rule="evenodd"  fill="#FA9E14" >
</path>
</svg>
