<svg xmlns="http://www.w3.org/2000/svg" xmlns:xlink="http://www.w3.org/1999/xlink" width="48" height="48" viewBox="0 0 48 48" fill="none">
<path d="M15.5289 29.4427L36.5003 5.6767L39.4996 8.32329L18.5282 32.0893L15.5289 29.4427Z" fill-rule="evenodd"  fill="#9C56F1" >
</path>
<path d="M4.46851 35.1399C4.46851 39.6576 8.14082 43.32 12.6585 43.32C17.1762 43.32 20.8385 39.6576 20.8385 35.1399C20.8385 30.6167 17.1817 26.95 12.6585 26.95C8.1353 26.95 4.46851 30.6167 4.46851 35.1399ZM16.8385 35.1399C16.8385 37.4485 14.9671 39.32 12.6585 39.32C10.35 39.32 8.46851 37.4485 8.46851 35.1399C8.46851 32.8259 10.3444 30.95 12.6585 30.95C14.9726 30.95 16.8385 32.8259 16.8385 35.1399Z" fill-rule="evenodd"  fill="#8134ED" >
</path>
<path d="M35.3484 26.95C30.8252 26.95 27.1584 30.6167 27.1584 35.1399C27.1584 39.6576 30.8308 43.32 35.3484 43.32C39.8661 43.32 43.5285 39.6576 43.5285 35.1399C43.5285 30.6167 39.8716 26.95 35.3484 26.95ZM35.3484 39.32C33.0399 39.32 31.1584 37.4485 31.1584 35.1399C31.1584 32.8259 33.0344 30.95 35.3484 30.95C37.6625 30.95 39.5284 32.8259 39.5284 35.1399C39.5284 37.4485 37.657 39.32 35.3484 39.32Z" fill-rule="evenodd"  fill="#8134ED" >
</path>
<path d="M11.4997 5.67697L32.4643 29.443L29.4646 32.0891L8.50006 8.3231L11.4997 5.67697Z" fill-rule="evenodd"  fill="#8134ED" >
</path>
<path d="M10 5C8.89543 5 8 5.89543 8 7C8 8.10457 8.89543 9 10 9C11.1046 9 12 8.10457 12 7C12 5.89543 11.1046 5 10 5Z"   fill="#8134ED" >
</path>
<path d="M38 5C36.8954 5 36 5.89543 36 7C36 8.10457 36.8954 9 38 9C39.1046 9 40 8.10457 40 7C40 5.89543 39.1046 5 38 5Z"   fill="#9C56F1" >
</path>
</svg>
