<svg xmlns="http://www.w3.org/2000/svg" xmlns:xlink="http://www.w3.org/1999/xlink" width="48" height="48" viewBox="0 0 48 48" fill="none">
<path d="M28.67 15.83C28.3 15.46 28.02 15.03 27.81 14.55C27.6 14.06 27.5 13.54 27.5 13L27.5 7.13C27.52 7.14 27.55 7.15 27.57 7.16C27.83 7.27 28.05 7.42 28.23 7.62L36.45 16.22C36.62 16.41 36.76 16.62 36.86 16.86C36.87 16.91 36.89 16.95 36.91 17L31.5 17C30.96 17 30.44 16.9 29.95 16.69C29.47 16.48 29.04 16.2 28.67 15.83ZM27 31L21 31L21 34L27 34L27 31ZM26.13 18.92C26.8 19.53 27.55 20.02 28.39 20.37C29.38 20.79 30.42 21 31.5 21L37 21L37 27L29 27L11 27L11 11C11 10.46 11.1 9.94 11.31 9.45C11.52 8.97 11.8 8.54 12.17 8.17C12.54 7.8 12.97 7.52 13.45 7.31C13.94 7.1 14.46 7 15 7L23.5 7L23.5 13.2C23.53 14.21 23.74 15.18 24.13 16.11C24.16 16.17 24.18 16.23 24.21 16.29C24.61 17.18 25.15 17.96 25.84 18.66C25.94 18.75 26.03 18.84 26.13 18.92ZM27.5 3.04C28.07 3.11 28.62 3.26 29.15 3.49C29.91 3.81 30.57 4.27 31.13 4.86L39.33 13.46C39.87 14.01 40.28 14.65 40.57 15.36C40.78 15.89 40.91 16.44 40.97 17L41 17L41 37C41 38.08 40.79 39.12 40.37 40.11C39.96 41.07 39.39 41.92 38.66 42.66C37.92 43.39 37.07 43.96 36.11 44.37C35.12 44.79 34.08 45 33 45L29 45L15 45C13.92 45 12.88 44.79 11.89 44.37C10.93 43.96 10.08 43.39 9.34 42.66C8.61 41.92 8.04 41.07 7.63 40.11C7.21 39.12 7 38.08 7 37L7 11C7 9.92 7.21 8.88 7.63 7.89C8.04 6.93 8.61 6.08 9.34 5.34C10.08 4.61 10.93 4.04 11.89 3.63C12.88 3.21 13.92 3 15 3L27.5 3L27.5 3.04ZM12.17 39.83C12.54 40.2 12.97 40.48 13.45 40.69C13.94 40.9 14.46 41 15 41L17 41L17 38L11.123 38C11.1709 38.187 11.2331 38.3705 11.31 38.55C11.52 39.03 11.8 39.46 12.17 39.83ZM31 31L31 34L37 34L37 31L31 31ZM36.69 38.55C36.7669 38.3705 36.8291 38.187 36.877 38L31 38L31 41L33 41C33.54 41 34.06 40.9 34.55 40.69C35.03 40.48 35.46 40.2 35.83 39.83C36.2 39.46 36.48 39.03 36.69 38.55ZM11 34L17 34L17 31L11 31L11 34ZM27 38L27 41L21 41L21 38L27 38Z" fill-rule="evenodd"  fill="#000000" >
</path>
</svg>
