<svg xmlns="http://www.w3.org/2000/svg" xmlns:xlink="http://www.w3.org/1999/xlink" width="48" height="48" viewBox="0 0 48 48" fill="none">
<path d="M41 21L31.5 21C27.08 21 23.5 17.42 23.5 13L23.5 3L15 3C10.58 3 7 6.58 7 11L7 27.001L15.0017 27.001L15.0017 26.9998L19.0017 27.0002L19.0017 27.001L29.0017 27.001L29.0017 26.9998L33.0017 27.0002L33.0017 27.001L40.9999 27.001L41 21ZM40.9999 31.001L33.0013 31.001L33.0008 36L40.9999 36L40.9999 31.001ZM40.419 40L33.0004 40L32.9999 45L33 45C36.359 45 39.2328 42.9325 40.419 40ZM28.9999 44.9998L29.0004 40L19.0004 40L18.9999 45L28.9999 44.9998ZM14.9999 44.9998L15.0004 40L7.581 40C8.7672 42.9325 11.641 45 15 45L14.9999 44.9998ZM7 36L15.0008 36L15.0013 31.001L7 31.001L7 36ZM27.5 3.04206L27.5 13C27.5 15.21 29.29 17 31.5 17L40.9696 17C40.8353 15.6773 40.2603 14.4251 39.33 13.46L31.13 4.86C30.1643 3.84308 28.8774 3.20589 27.5 3.04206ZM29.0008 36L29.0013 31.001L19.0013 31.001L19.0008 36L29.0008 36Z" fill-rule="evenodd"  fill="#000000" >
</path>
</svg>
