<svg xmlns="http://www.w3.org/2000/svg" xmlns:xlink="http://www.w3.org/1999/xlink" width="48" height="48" viewBox="0 0 48 48" fill="none">
<path d="M4 8L8.36039 8L9.03884 11.3922C9.04063 11.4012 9.04248 11.4101 9.04439 11.4191L12.5281 27.6762C12.7229 28.5855 13.0648 29.4336 13.5537 30.2207C14.0295 30.9866 14.6186 31.6534 15.3211 32.2213C16.0236 32.7892 16.7991 33.2256 17.6476 33.5303C18.5196 33.8434 19.4206 34 20.3505 34L34.4742 34C35.3559 34 36.2129 33.8587 37.0452 33.5761C37.8573 33.3004 38.6061 32.904 39.2918 32.3868C39.9775 31.8696 40.5644 31.2585 41.0525 30.5534C41.5529 29.8307 41.9242 29.0455 42.1664 28.1978L45.4662 16.6483C46.5613 12.8154 43.6833 9 39.6971 9L12.6396 9L12.2827 7.21554C12.1906 6.75499 12.023 6.3245 11.7798 5.92406C11.5434 5.53485 11.249 5.1957 10.8963 4.90663C10.5437 4.61756 10.1534 4.3953 9.72541 4.23987C9.28506 4.07996 8.83006 4 8.36039 4L3.5 4L3.5 4.06369C2.63988 4.28716 2 5.07248 2 6C2 6.92752 2.63988 7.71284 3.5 7.93631L3.5 8L4 8ZM39.6971 13L13.474 13L16.4393 26.8381C16.5368 27.2934 16.7076 27.7173 16.9515 28.11C17.1893 28.4927 17.4841 28.8263 17.8358 29.1107C18.1875 29.395 18.5755 29.6134 18.9996 29.7657C19.4346 29.9219 19.8849 30 20.3505 30L34.4742 30C34.9155 30 35.3439 29.9295 35.7593 29.7884C36.1652 29.6507 36.5397 29.4523 36.883 29.1934C37.2262 28.9345 37.5198 28.6288 37.7638 28.2764C38.0135 27.9157 38.199 27.5232 38.3203 27.0989L41.6201 15.5494C41.9852 14.2718 41.0258 13 39.6971 13Z" fill-rule="evenodd"  fill="#424242" >
</path>
<path d="M14 45C16.7614 45 19 42.7614 19 40C19 37.2386 16.7614 35 14 35C11.2386 35 9 37.2386 9 40C9 42.7614 11.2386 45 14 45ZM14 39C14.5523 39 15 39.4477 15 40C15 40.5523 14.5523 41 14 41C13.4477 41 13 40.5523 13 40C13 39.4477 13.4477 39 14 39Z" fill-rule="evenodd"  fill="#787878" >
</path>
<path d="M41 45C43.7614 45 46 42.7614 46 40C46 37.2386 43.7614 35 41 35C38.2386 35 36 37.2386 36 40C36 42.7614 38.2386 45 41 45ZM41 39C41.5523 39 42 39.4477 42 40C42 40.5523 41.5523 41 41 41C40.4477 41 40 40.5523 40 40C40 39.4477 40.4477 39 41 39Z" fill-rule="evenodd"  fill="#787878" >
</path>
</svg>
