<svg xmlns="http://www.w3.org/2000/svg" xmlns:xlink="http://www.w3.org/1999/xlink" width="48" height="48" viewBox="0 0 48 48" fill="none">
<path d="M22.0693 39.8481C22.0793 40.4681 22.2493 41.0281 22.5793 41.5181C22.8893 41.9781 23.2993 42.3281 23.8093 42.5581C24.3093 42.7981 24.8393 42.8881 25.3993 42.8281C25.9893 42.7581 26.5193 42.5381 26.9893 42.1481L42.6793 28.8981C43.2493 28.4181 43.6793 27.8481 43.9893 27.1781C44.2793 26.5481 44.4393 25.8781 44.4493 25.1681C44.4593 24.4681 44.3293 23.7881 44.0593 23.1381C43.7793 22.4681 43.3593 21.8781 42.8193 21.3781L27.0893 7.03809C26.6293 6.61809 26.0893 6.36809 25.4793 6.28809C24.9193 6.20809 24.3793 6.28809 23.8593 6.51809C23.3393 6.74809 22.9093 7.09809 22.5893 7.56809C22.2493 8.06809 22.0693 8.63809 22.0693 9.25809L22.0693 16.3281C19.5993 17.0381 17.2793 18.1481 15.1093 19.6581C12.8993 21.1881 10.8793 23.1281 9.04932 25.4481C7.57931 27.3081 6.26931 29.3781 5.09932 31.6681C4.25931 33.3381 3.52931 35.0381 2.90931 36.7881C2.67931 37.3781 2.64931 37.9781 2.81931 38.5881C2.96931 39.1581 3.26931 39.6281 3.71931 40.0181C4.16931 40.4081 4.68931 40.6281 5.26931 40.7081C5.90931 40.7781 6.50931 40.6581 7.07931 40.3281L7.11931 40.2981L7.16931 40.2681C9.94931 38.4481 12.6193 36.9381 15.1793 35.7181C16.8993 34.9081 18.4793 34.2781 19.9293 33.8381C20.6893 33.6081 21.4093 33.4281 22.0693 33.3081L22.0693 39.8481Z" fill-rule="evenodd"  fill="#000000" >
</path>
</svg>
