<svg xmlns="http://www.w3.org/2000/svg" xmlns:xlink="http://www.w3.org/1999/xlink" width="48" height="48" viewBox="0 0 48 48" fill="none">
<path d="M5.13336 31.6071C4.27972 33.2795 3.53945 34.9983 2.91257 36.7636C2.68334 37.4091 2.67527 38.0469 2.88835 38.6771C3.08721 39.2653 3.44305 39.7412 3.95586 40.1049C4.44322 40.4506 4.98665 40.6326 5.58616 40.6508C6.21465 40.67 6.79757 40.505 7.33491 40.156C10.1265 38.343 12.7901 36.8419 15.3259 35.6527C17.0216 34.8575 18.5782 34.2463 19.9958 33.8191C20.7336 33.5968 21.4247 33.4268 22.0691 33.309L22.0691 39.8459C22.0691 42.399 25.0552 43.7852 27.0053 42.1374L42.6786 28.8941C44.9849 26.9454 45.051 23.4127 42.8192 21.3791L27.0897 7.04658C25.1633 5.29135 22.0691 6.65803 22.0691 9.26409L22.0691 16.3282C19.6067 17.0332 17.295 18.1348 15.1342 19.6329C12.9259 21.1639 10.9073 23.0868 9.07855 25.4016C7.6137 27.2558 6.29864 29.3243 5.13336 31.6071ZM24.4851 19.8463C21.9483 20.3857 19.591 21.4103 17.4132 22.9201C15.5316 24.2247 13.7996 25.8784 12.2172 27.8813C10.9155 29.529 9.74173 31.3771 8.69606 33.4257C8.41465 33.977 8.14684 34.5338 7.89262 35.0962C9.86165 33.9224 11.7733 32.9007 13.6277 32.0311C17.7805 30.0837 21.261 29.11 24.0691 29.11C24.6182 29.1177 25.0896 29.313 25.4833 29.6958C25.8661 30.0895 26.0614 30.5609 26.0691 31.11L26.0691 37.6917L40.097 25.8388C40.5582 25.449 40.5714 24.7425 40.1251 24.3358L26.0691 11.5281L26.0691 17.89C26.0647 18.3606 25.9162 18.7801 25.6234 19.1486C25.3239 19.5115 24.9444 19.7441 24.4851 19.8463Z" fill-rule="evenodd"  fill="#787878" >
</path>
<path d="M25.0887 6.25818C23.5429 6.2583 22.0703 7.46628 22.0703 9.26409L22.0703 20.5254C22.8563 20.2478 23.6613 20.0215 24.4852 19.8463C24.9445 19.7441 25.324 19.5115 25.6235 19.1486C25.9163 18.7801 26.0648 18.3606 26.0692 17.89L26.0692 11.5281L26.0703 11.5292L26.0703 11.5281L40.1263 24.3358C40.5726 24.7425 40.5594 25.449 40.0982 25.8388L26.0703 37.6917L26.0703 37.6908L26.0692 37.6917L26.0692 31.11C26.0615 30.5609 25.8662 30.0895 25.4834 29.6958C25.0897 29.313 24.6183 29.1177 24.0692 29.11C23.437 29.11 22.7707 29.1593 22.0703 29.2581L22.0703 39.8459C22.0703 41.6346 23.536 42.8506 25.0843 42.8517C25.7455 42.8519 26.4218 42.6305 27.0054 42.1374L42.6786 28.8941C44.9849 26.9454 45.051 23.4127 42.8192 21.3791L27.0898 7.04658C26.4926 6.50251 25.7833 6.2584 25.0887 6.25818Z" fill-rule="evenodd"  fill="#424242" >
</path>
</svg>
