<svg xmlns="http://www.w3.org/2000/svg" xmlns:xlink="http://www.w3.org/1999/xlink" width="48" height="48" viewBox="0 0 48 48" fill="none">
<path d="M6.24551 38.4782C10.1557 35.9375 18.3425 31.1071 24.0678 31.1071L24.0678 39.846C24.0678 40.697 25.0631 41.1591 25.7132 40.6099L41.3877 27.3672C42.7717 26.198 42.8114 24.0782 41.4722 22.858L25.7413 8.52488C25.0992 7.93982 24.0678 8.39536 24.0678 9.26404L24.0678 17.8929C12.1044 20.4366 6.66606 32.1703 4.79729 37.4332C4.48657 38.3083 5.46687 38.9841 6.24551 38.4782Z"   fill="#BEDCFF" >
</path>
<path d="M22.0686 16.3244C13.268 18.7718 6.88289 25.585 2.91344 36.764C2.42137 38.1498 2.76936 39.2636 3.95743 40.1054C5.05932 40.8862 6.18553 40.9028 7.33607 40.1553C13.416 36.2047 18.3269 33.9148 22.0686 33.2858L22.0686 39.846C22.0686 42.3991 25.0545 43.7853 27.0047 42.1377L42.6793 28.8949C44.9858 26.9462 45.052 23.4133 42.82 21.3796L27.0891 7.04642C25.1628 5.29124 22.0686 6.65792 22.0686 9.26395L22.0686 16.3244ZM7.85894 35.108C14.5023 31.1074 19.9056 29.1071 24.0686 29.1071L24.0719 29.1071C24.6229 29.108 25.1211 29.3312 25.2328 29.4429C25.2551 29.4652 25.262 29.4831 25.2509 29.4938C25.7467 29.8578 26.0686 30.4449 26.0686 31.1071L26.0686 37.6921L40.0978 25.8394C40.5591 25.4497 40.5724 24.7431 40.126 24.3364L26.0686 11.528L26.0686 17.8929C26.0686 18.8371 25.4082 19.6527 24.4846 19.8491C17.1363 21.4115 11.5944 26.4978 7.85894 35.108Z" fill-rule="evenodd"  fill="#1764FF" >
</path>
</svg>
