<svg xmlns="http://www.w3.org/2000/svg" xmlns:xlink="http://www.w3.org/1999/xlink" width="48" height="48" viewBox="0 0 48 48" fill="none">
<path d="M4.95264 43L4.95264 28C4.95264 26.8954 5.86936 26 7.0002 26C8.13104 26 9.04776 26.8954 9.04776 28L9.04776 43C9.04776 44.1046 8.13104 45 7.0002 45C5.86936 45 4.95264 44.1046 4.95264 43Z" fill-rule="evenodd"  fill="#94C3FF" >
</path>
<path d="M16.2861 43L16.2861 21C16.2861 19.8954 17.2028 19 18.3336 19C19.4643 19 20.381 19.8954 20.381 21L20.381 43C20.381 44.1046 19.4643 45 18.3336 45C17.2028 45 16.2861 44.1046 16.2861 43Z" fill-rule="evenodd"  fill="#6BA6FF" >
</path>
<path d="M27.6191 43L27.6191 13C27.6191 11.8954 28.5359 11 29.6667 11C30.7976 11 31.7143 11.8954 31.7143 13L31.7143 43C31.7143 44.1046 30.7976 45 29.6667 45C28.5359 45 27.6191 44.1046 27.6191 43Z" fill-rule="evenodd"  fill="#4187FF" >
</path>
<path d="M43.0473 5C43.0473 3.89543 42.1306 3 40.9997 3C39.8689 3 38.9521 3.89543 38.9521 5L38.9521 43C38.9521 44.1046 39.8689 45 40.9997 45C42.1306 45 43.0473 44.1046 43.0473 43L43.0473 5Z" fill-rule="evenodd"  fill="#1764FF" >
</path>
</svg>
