<svg xmlns="http://www.w3.org/2000/svg" xmlns:xlink="http://www.w3.org/1999/xlink" width="48" height="48" viewBox="0 0 48 48" fill="none">
<path d="M25.5 3L15 3C10.5817 3 7 6.58172 7 11L7 37C7 41.4183 10.5817 45 15 45L33 45C37.4183 45 41 41.4183 41 37L41 17L40.9703 17C40.9147 16.442 40.7811 15.899 40.5696 15.3711C40.2827 14.655 39.8728 14.0178 39.3401 13.4598L31.1285 4.85714C31.04 4.76445 30.9493 4.67505 30.8562 4.58896C30.3911 4.15871 29.8687 3.81101 29.289 3.54585C29.2427 3.52463 29.1959 3.50395 29.1488 3.48379C28.9603 3.40316 28.7698 3.3326 28.5773 3.27213C28.2251 3.16153 27.866 3.08464 27.5 3.04147L27.5 3L25.5 3ZM36.9072 17C36.9065 16.998 36.9059 16.996 36.9053 16.9941C36.8907 16.9486 36.8744 16.9035 36.8565 16.8588C36.7609 16.6201 36.6243 16.4077 36.4467 16.2217L28.2351 7.61905C28.2115 7.59434 28.1874 7.57033 28.1629 7.54703C27.9909 7.38393 27.795 7.25533 27.5752 7.16126C27.5503 7.15058 27.5252 7.14043 27.5 7.13082L27.5 13C27.5 15.2091 29.2909 17 31.5 17L36.9072 17ZM23.5 13L23.5 7L15 7C12.7909 7 11 8.79086 11 11L11 37C11 39.2091 12.7909 41 15 41L33 41C35.2091 41 37 39.2091 37 37L37 21L31.5 21C27.0817 21 23.5 17.4183 23.5 13Z" fill-rule="evenodd"  fill="#787878" >
</path>
<path d="M24.4002 37.8502L29.3557 32.6321C29.6715 32.2995 29.9226 31.9242 30.1089 31.5063C30.2902 31.0995 30.4005 30.6741 30.4397 30.2299C30.479 29.7858 30.4451 29.3477 30.338 28.9154C30.228 28.4712 30.0467 28.0577 29.7941 27.6749L27.8957 24.7973C27.5256 24.2363 27.0446 23.7964 26.4528 23.4779C25.861 23.1593 25.229 23 24.5569 23L18.4426 23C17.7704 23 17.1385 23.1593 16.5466 23.4779C15.9548 23.7964 15.4738 24.2363 15.1037 24.7973L13.2053 27.6749C12.9528 28.0577 12.7715 28.4712 12.6614 28.9154C12.5544 29.3477 12.5205 29.7858 12.5598 30.2299C12.599 30.6741 12.7093 31.0995 12.8906 31.5063C13.0768 31.9242 13.3279 32.2995 13.6437 32.6321L18.5993 37.8502C20.1764 39.5108 22.8231 39.5108 24.4002 37.8502ZM24.5569 27L26.4552 29.8776L21.4997 35.0957L16.5442 29.8776L18.4426 27L24.5569 27L24.5569 27Z" fill-rule="evenodd"  fill="#424242" >
</path>
</svg>
