<svg xmlns="http://www.w3.org/2000/svg" xmlns:xlink="http://www.w3.org/1999/xlink" width="48" height="48" viewBox="0 0 48 48" fill="none">
<path d="M41 37L41 21L31.5 21C27.08 21 23.5 17.42 23.5 13L23.5 3L15 3C10.58 3 7 6.58 7 11L7 37C7 41.42 10.58 45 15 45L33 45C37.42 45 41 41.42 41 37ZM27.5 3.04206L27.5 13C27.5 15.21 29.29 17 31.5 17L40.9696 17C40.8353 15.6773 40.2603 14.4251 39.33 13.46L31.13 4.86C30.1644 3.84308 28.8774 3.20589 27.5 3.04206ZM23.0021 26.0002L23.0007 40.0002C23.0006 41.1002 22.1005 42.0001 21.0005 42C19.9005 41.9999 19.0006 41.0998 19.0007 39.9998L19.0021 25.9998C19.0022 24.8998 19.9023 23.9999 21.0023 24C22.1023 24.0001 23.0022 24.9002 23.0021 26.0002ZM35.0028 28.5002L35.0019 37.5002C35.0018 38.6002 34.1017 39.5001 33.0017 39.5C31.9017 39.4999 31.0018 38.5998 31.0019 37.4998L31.0028 28.4998C31.0029 27.3998 31.903 26.4999 33.003 26.5C34.103 26.5001 35.0029 27.4002 35.0028 28.5002ZM17.0009 29.0002L17.0001 37.0002C17 38.1002 16.0999 39.0001 14.9999 39C13.8999 38.9999 13 38.0998 13.0001 36.9998L13.0009 28.9998C13.001 27.8998 13.9011 26.9999 15.0011 27C16.1011 27.0001 17.001 27.9002 17.0009 29.0002ZM29.0019 30.0002L29.0013 36.0002C29.0012 37.1002 28.1011 38.0001 27.0011 38C25.9011 37.9999 25.0012 37.0998 25.0013 35.9998L25.0019 29.9998C25.002 28.8998 25.9021 27.9999 27.0021 28C28.1021 28.0001 29.002 28.9002 29.0019 30.0002Z" fill-rule="evenodd"  fill="#000000" >
</path>
</svg>
