<svg xmlns="http://www.w3.org/2000/svg" xmlns:xlink="http://www.w3.org/1999/xlink" width="48" height="48" viewBox="0 0 48 48" fill="none">
<path d="M25.5 3L15 3C10.5817 3 7 6.58172 7 11L7 37C7 41.4183 10.5817 45 15 45L33 45C37.4183 45 41 41.4183 41 37L41 17L40.9703 17C40.9147 16.442 40.7811 15.899 40.5696 15.3711C40.2827 14.655 39.8728 14.0178 39.3401 13.4598L31.1285 4.85714C31.04 4.76445 30.9493 4.67505 30.8562 4.58896C30.3911 4.15871 29.8687 3.81101 29.289 3.54585C29.2427 3.52463 29.1959 3.50395 29.1488 3.48379C28.9603 3.40316 28.7698 3.3326 28.5773 3.27213C28.2251 3.16153 27.866 3.08464 27.5 3.04147L27.5 3L25.5 3ZM36.9072 17C36.9065 16.998 36.9059 16.996 36.9053 16.9941C36.8907 16.9486 36.8744 16.9035 36.8565 16.8588C36.7609 16.6201 36.6243 16.4077 36.4467 16.2217L28.2351 7.61905C28.2115 7.59434 28.1874 7.57033 28.1629 7.54703C27.9909 7.38393 27.795 7.25533 27.5752 7.16126C27.5503 7.15058 27.5252 7.14043 27.5 7.13082L27.5 13C27.5 15.2091 29.2909 17 31.5 17L36.9072 17ZM23.5 13L23.5 7L15 7C12.7909 7 11 8.79086 11 11L11 37C11 39.2091 12.7909 41 15 41L33 41C35.2091 41 37 39.2091 37 37L37 21L31.5 21C27.0817 21 23.5 17.4183 23.5 13Z" fill-rule="evenodd"  fill="#787878" >
</path>
<path d="M21 38.9999C22.1046 39 23.0001 38.1046 23.0001 37L23.0011 23C23.0012 21.8954 22.1058 21 21.0013 20.9999C19.8967 20.9998 19.0012 21.8952 19.0011 22.9998L19.0001 36.9998C19.0001 38.1043 19.8954 38.9998 21 38.9999Z" fill-rule="evenodd"  fill="#424242" >
</path>
<path d="M33 36.4999C34.1046 36.5 35.0001 35.6046 35.0001 34.5L35.0007 25.5C35.0008 24.3954 34.1055 23.5 33.0009 23.4999C31.8963 23.4998 31.0008 24.3952 31.0007 25.4998L31.0001 34.4998C31.0001 35.6043 31.8954 36.4998 33 36.4999Z" fill-rule="evenodd"  fill="#424242" >
</path>
<path d="M15 35.9999C16.1046 36 17.0001 35.1046 17.0002 34.0001L17.0008 26.0001C17.0008 24.8955 16.1055 24 15.0009 23.9999C13.8963 23.9998 13.0008 24.8952 13.0008 25.9998L13.0002 33.9998C13.0001 35.1043 13.8954 35.9998 15 35.9999Z" fill-rule="evenodd"  fill="#787878" >
</path>
<path d="M27 34.9999C28.1046 35 29.0001 34.1047 29.0002 33.0001L29.0007 27.0001C29.0007 25.8955 28.1054 25 27.0008 24.9999C25.8962 24.9998 25.0007 25.8952 25.0007 26.9998L25.0002 32.9998C25.0001 34.1043 25.8954 34.9998 27 34.9999Z" fill-rule="evenodd"  fill="#787878" >
</path>
</svg>
