<svg xmlns="http://www.w3.org/2000/svg" xmlns:xlink="http://www.w3.org/1999/xlink" width="48" height="48" viewBox="0 0 48 48" fill="none">
<path d="M16.11 43.37C15.12 43.79 14.08 44 13 44L12 44C10.92 44 9.88 43.79 8.89 43.37C7.93 42.96 7.08 42.39 6.34 41.66C5.61 40.92 5.04 40.07 4.63 39.11C4.21 38.12 4 37.08 4 36L4 12C4 10.92 4.21 9.88 4.63 8.89C5.04 7.93 5.61 7.08 6.34 6.34C7.08 5.61 7.93 5.04 8.89 4.63C9.88 4.21 10.92 4 12 4L13 4C14.08 4 15.12 4.21 16.11 4.63C17.07 5.04 17.92 5.61 18.66 6.34C19.39 7.08 19.96 7.93 20.37 8.89C20.79 9.88 21 10.92 21 12L21 36C21 37.08 20.79 38.12 20.37 39.11C19.96 40.07 19.39 40.92 18.66 41.66C17.92 42.39 17.07 42.96 16.11 43.37ZM8 36L8 12C8 11.46 8.1 10.94 8.31 10.45C8.52 9.97 8.8 9.54 9.17 9.17C9.54 8.8 9.97 8.52 10.45 8.31C10.94 8.1 11.46 8 12 8L13 8C13.54 8 14.06 8.1 14.55 8.31C15.03 8.52 15.46 8.8 15.83 9.17C16.2 9.54 16.48 9.97 16.69 10.45C16.9 10.94 17 11.46 17 12L17 36C17 36.54 16.9 37.06 16.69 37.55C16.48 38.03 16.2 38.46 15.83 38.83C15.46 39.2 15.03 39.48 14.55 39.69C14.06 39.9 13.54 40 13 40L12 40C11.46 40 10.94 39.9 10.45 39.69C9.97 39.48 9.54 39.2 9.17 38.83C8.8 38.46 8.52 38.03 8.31 37.55C8.1 37.06 8 36.54 8 36ZM31 12C31 11.46 31.1 10.94 31.31 10.45C31.52 9.97 31.8 9.54 32.17 9.17C32.54 8.8 32.97 8.52 33.45 8.31C33.94 8.1 34.46 8 35 8L36 8C36.54 8 37.06 8.1 37.55 8.31C38.03 8.52 38.46 8.8 38.83 9.17C39.2 9.54 39.48 9.97 39.69 10.45C39.9 10.94 40 11.46 40 12L40 36C40 36.54 39.9 37.06 39.69 37.55C39.48 38.03 39.2 38.46 38.83 38.83C38.46 39.2 38.03 39.48 37.55 39.69C37.06 39.9 36.54 40 36 40L35 40C34.46 40 33.94 39.9 33.45 39.69C32.97 39.48 32.54 39.2 32.17 38.83C31.8 38.46 31.52 38.03 31.31 37.55C31.1 37.06 31 36.54 31 36L31 12ZM36 44L35 44C33.92 44 32.88 43.79 31.89 43.37C30.93 42.96 30.08 42.39 29.34 41.66C28.61 40.92 28.04 40.07 27.63 39.11C27.21 38.12 27 37.08 27 36L27 12C27 10.92 27.21 9.88 27.63 8.89C28.04 7.93 28.61 7.08 29.34 6.34C30.08 5.61 30.93 5.04 31.89 4.63C32.88 4.21 33.92 4 35 4L36 4C37.08 4 38.12 4.21 39.11 4.63C40.07 5.04 40.92 5.61 41.66 6.34C42.39 7.08 42.96 7.93 43.37 8.89C43.79 9.88 44 10.92 44 12L44 36C44 37.08 43.79 38.12 43.37 39.11C42.96 40.07 42.39 40.92 41.66 41.66C40.92 42.39 40.07 42.96 39.11 43.37C38.12 43.79 37.08 44 36 44Z" fill-rule="evenodd"  fill="#000000" >
</path>
</svg>
