<svg xmlns="http://www.w3.org/2000/svg" xmlns:xlink="http://www.w3.org/1999/xlink" width="48" height="48" viewBox="0 0 48 48" fill="none">
<path d="M17.7494 25.9993L25.2629 26.0001L25.2631 26.0001C26.3677 26.0001 27.2631 25.1046 27.2631 24.0001C27.2631 22.8956 26.3678 22.0002 25.2633 22.0001L25.2631 22.0001L17.7498 21.9993C16.0929 21.9991 14.6788 21.4132 13.5073 20.2416C12.3358 19.07 11.75 17.6558 11.75 15.9989C11.75 14.342 12.3358 12.9277 13.5075 11.756C14.6791 10.5844 16.0934 9.99854 17.7504 9.99854L35.75 9.99854C36.8546 9.99854 37.75 9.10311 37.75 7.99854C37.75 6.89397 36.8546 5.99854 35.75 5.99854L17.7504 5.99854C14.9889 5.99854 12.6318 6.97489 10.6791 8.92759C8.72635 10.8803 7.75 13.2374 7.75 15.9989C7.75 18.7603 8.72623 21.1173 10.6787 23.0699C12.6312 25.0226 14.988 25.9991 17.7494 25.9993Z" fill-rule="evenodd"  fill="#FF4943" >
</path>
<path d="M40.07 30L35.93 30C36.1452 30.621 36.25 31.2898 36.25 32C36.25 35.3139 33.5639 38 30.25 38L12.25 38C11.1454 38 10.25 38.8954 10.25 40C10.25 41.1045 11.1454 42 12.25 42L30.25 42C35.7731 42 40.25 37.523 40.25 32C40.25 31.3091 40.1922 30.6403 40.07 30Z" fill-rule="evenodd"  fill="#FF1A1A" >
</path>
<path d="M2.99991 24.0017C3 25.1063 3.89549 26.0016 5.00006 26.0016L43.0001 25.9986C44.1047 25.9985 45 25.103 44.9999 23.9985C44.9998 22.8939 44.1044 21.9985 42.9998 21.9986L4.99976 22.0016C3.89519 22.0016 2.99983 22.8971 2.99991 24.0017Z" fill-rule="evenodd"  fill="#FF1A1A" >
</path>
</svg>
