<svg xmlns="http://www.w3.org/2000/svg" xmlns:xlink="http://www.w3.org/1999/xlink" width="48" height="48" viewBox="0 0 48 48" fill="none">
<path d="M13.8 4.01C13.87 4 13.93 4 14 4L34 4C34.07 4 34.13 4 34.2 4.01C34.26 4.02 34.33 4.03 34.39 4.04C34.45 4.05 34.52 4.07 34.58 4.09C34.64 4.11 34.7 4.13 34.77 4.15C34.83 4.18 34.89 4.21 34.94 4.24C35 4.27 35.06 4.3 35.11 4.34C35.17 4.37 35.22 4.41 35.27 4.45C35.32 4.5 35.37 4.54 35.41 4.59C35.46 4.63 35.5 4.68 35.55 4.73C35.59 4.78 35.63 4.83 35.66 4.89C35.7 4.94 35.73 5 35.76 5.06C35.79 5.11 35.82 5.17 35.85 5.23C35.87 5.3 35.89 5.36 35.91 5.42C35.93 5.48 35.95 5.55 35.96 5.61C35.97 5.67 35.98 5.74 35.99 5.8C36 5.87 36 5.93 36 6C36 6.07 36 6.13 35.99 6.2C35.98 6.26 35.97 6.33 35.96 6.39C35.95 6.45 35.93 6.52 35.91 6.58C35.89 6.64 35.87 6.7 35.85 6.77C35.82 6.83 35.79 6.89 35.76 6.94C35.73 7 35.7 7.06 35.66 7.11C35.63 7.17 35.59 7.22 35.55 7.27C35.5 7.32 35.46 7.37 35.41 7.41C35.37 7.46 35.32 7.5 35.27 7.55C35.22 7.59 35.17 7.63 35.11 7.66C35.06 7.7 35 7.73 34.94 7.76C34.89 7.79 34.83 7.82 34.77 7.85C34.7 7.87 34.64 7.89 34.58 7.91C34.52 7.93 34.45 7.95 34.39 7.96C34.33 7.97 34.26 7.98 34.2 7.99C34.13 8 34.07 8 34 8L14 8C13.93 8 13.87 8 13.8 7.99C13.74 7.98 13.67 7.97 13.61 7.96C13.55 7.95 13.48 7.93 13.42 7.91C13.36 7.89 13.3 7.87 13.23 7.85C13.17 7.82 13.11 7.79 13.06 7.76C13 7.73 12.94 7.7 12.89 7.66C12.83 7.63 12.78 7.59 12.73 7.55C12.68 7.5 12.63 7.46 12.59 7.41C12.54 7.37 12.5 7.32 12.45 7.27C12.41 7.22 12.37 7.17 12.34 7.11C12.3 7.06 12.27 7 12.24 6.94C12.21 6.89 12.18 6.83 12.15 6.77C12.13 6.7 12.11 6.64 12.09 6.58C12.07 6.52 12.05 6.45 12.04 6.39C12.03 6.33 12.02 6.26 12.01 6.2C12 6.13 12 6.07 12 6C12 5.93 12 5.87 12.01 5.8C12.02 5.74 12.03 5.67 12.04 5.61C12.05 5.55 12.07 5.48 12.09 5.42C12.11 5.36 12.13 5.3 12.15 5.23C12.18 5.17 12.21 5.11 12.24 5.06C12.27 5 12.3 4.94 12.34 4.89C12.37 4.83 12.41 4.78 12.45 4.73C12.5 4.68 12.54 4.63 12.59 4.59C12.63 4.54 12.68 4.5 12.73 4.45C12.78 4.41 12.83 4.37 12.89 4.34C12.94 4.3 13 4.27 13.06 4.24C13.11 4.21 13.17 4.18 13.23 4.15C13.3 4.13 13.36 4.11 13.42 4.09C13.48 4.07 13.55 4.05 13.61 4.04C13.67 4.03 13.74 4.02 13.8 4.01ZM7.99 13.8C8 13.87 8 13.93 8 14L8 34C8 34.07 8 34.13 7.99 34.2C7.98 34.26 7.97 34.33 7.96 34.39C7.95 34.45 7.93 34.52 7.91 34.58C7.89 34.64 7.87 34.7 7.85 34.77C7.82 34.83 7.79 34.89 7.76 34.94C7.73 35 7.7 35.06 7.66 35.11C7.63 35.17 7.59 35.22 7.55 35.27C7.5 35.32 7.46 35.37 7.41 35.41C7.37 35.46 7.32 35.5 7.27 35.55C7.22 35.59 7.17 35.63 7.11 35.66C7.06 35.7 7 35.73 6.94 35.76C6.89 35.79 6.83 35.82 6.77 35.85C6.7 35.87 6.64 35.89 6.58 35.91C6.52 35.93 6.45 35.95 6.39 35.96C6.33 35.97 6.26 35.98 6.2 35.99C6.13 36 6.07 36 6 36C5.93 36 5.87 36 5.8 35.99C5.74 35.98 5.67 35.97 5.61 35.96C5.55 35.95 5.48 35.93 5.42 35.91C5.36 35.89 5.3 35.87 5.23 35.85C5.17 35.82 5.11 35.79 5.06 35.76C5 35.73 4.94 35.7 4.89 35.66C4.83 35.63 4.78 35.59 4.73 35.55C4.68 35.5 4.63 35.46 4.59 35.41C4.54 35.37 4.5 35.32 4.45 35.27C4.41 35.22 4.37 35.17 4.34 35.11C4.3 35.06 4.27 35 4.24 34.94C4.21 34.89 4.18 34.83 4.15 34.77C4.13 34.7 4.11 34.64 4.09 34.58C4.07 34.52 4.05 34.45 4.04 34.39C4.03 34.33 4.02 34.26 4.01 34.2C4 34.13 4 34.07 4 34L4 14C4 13.93 4 13.87 4.01 13.8C4.02 13.74 4.03 13.67 4.04 13.61C4.05 13.55 4.07 13.48 4.09 13.42C4.11 13.36 4.13 13.3 4.15 13.23C4.18 13.17 4.21 13.11 4.24 13.06C4.27 13 4.3 12.94 4.34 12.89C4.37 12.83 4.41 12.78 4.45 12.73C4.5 12.68 4.54 12.63 4.59 12.59C4.63 12.54 4.68 12.5 4.73 12.45C4.78 12.41 4.83 12.37 4.89 12.34C4.94 12.3 5 12.27 5.06 12.24C5.11 12.21 5.17 12.18 5.23 12.15C5.3 12.13 5.36 12.11 5.42 12.09C5.48 12.07 5.55 12.05 5.61 12.04C5.67 12.03 5.74 12.02 5.8 12.01C5.87 12 5.93 12 6 12C6.07 12 6.13 12 6.2 12.01C6.26 12.02 6.33 12.03 6.39 12.04C6.45 12.05 6.52 12.07 6.58 12.09C6.64 12.11 6.7 12.13 6.77 12.15C6.83 12.18 6.89 12.21 6.94 12.24C7 12.27 7.06 12.3 7.11 12.34C7.17 12.37 7.22 12.41 7.27 12.45C7.32 12.5 7.37 12.54 7.41 12.59C7.46 12.63 7.5 12.68 7.55 12.73C7.59 12.78 7.63 12.83 7.66 12.89C7.7 12.94 7.73 13 7.76 13.06C7.79 13.11 7.82 13.17 7.85 13.23C7.87 13.3 7.89 13.36 7.91 13.42C7.93 13.48 7.95 13.55 7.96 13.61C7.97 13.67 7.98 13.74 7.99 13.8ZM43.99 13.8C44 13.87 44 13.93 44 14L44 34C44 34.07 44 34.13 43.99 34.2C43.98 34.26 43.97 34.33 43.96 34.39C43.95 34.45 43.93 34.52 43.91 34.58C43.89 34.64 43.87 34.7 43.85 34.77C43.82 34.83 43.79 34.89 43.76 34.94C43.73 35 43.7 35.06 43.66 35.11C43.63 35.17 43.59 35.22 43.55 35.27C43.5 35.32 43.46 35.37 43.41 35.41C43.37 35.46 43.32 35.5 43.27 35.55C43.22 35.59 43.17 35.63 43.11 35.66C43.06 35.7 43 35.73 42.94 35.76C42.89 35.79 42.83 35.82 42.77 35.85C42.7 35.87 42.64 35.89 42.58 35.91C42.52 35.93 42.45 35.95 42.39 35.96C42.33 35.97 42.26 35.98 42.2 35.99C42.13 36 42.07 36 42 36C41.93 36 41.87 36 41.8 35.99C41.74 35.98 41.67 35.97 41.61 35.96C41.55 35.95 41.48 35.93 41.42 35.91C41.36 35.89 41.3 35.87 41.23 35.85C41.17 35.82 41.11 35.79 41.06 35.76C41 35.73 40.94 35.7 40.89 35.66C40.83 35.63 40.78 35.59 40.73 35.55C40.68 35.5 40.63 35.46 40.59 35.41C40.54 35.37 40.5 35.32 40.45 35.27C40.41 35.22 40.37 35.17 40.34 35.11C40.3 35.06 40.27 35 40.24 34.94C40.21 34.89 40.18 34.83 40.15 34.77C40.13 34.7 40.11 34.64 40.09 34.58C40.07 34.52 40.05 34.45 40.04 34.39C40.03 34.33 40.02 34.26 40.01 34.2C40 34.13 40 34.07 40 34L40 14C40 13.93 40 13.87 40.01 13.8C40.02 13.74 40.03 13.67 40.04 13.61C40.05 13.55 40.07 13.48 40.09 13.42C40.11 13.36 40.13 13.3 40.15 13.23C40.18 13.17 40.21 13.11 40.24 13.06C40.27 13 40.3 12.94 40.34 12.89C40.37 12.83 40.41 12.78 40.45 12.73C40.5 12.68 40.54 12.63 40.59 12.59C40.63 12.54 40.68 12.5 40.73 12.45C40.78 12.41 40.83 12.37 40.89 12.34C40.94 12.3 41 12.27 41.06 12.24C41.11 12.21 41.17 12.18 41.23 12.15C41.3 12.13 41.36 12.11 41.42 12.09C41.48 12.07 41.55 12.05 41.61 12.04C41.67 12.03 41.74 12.02 41.8 12.01C41.87 12 41.93 12 42 12C42.07 12 42.13 12 42.2 12.01C42.26 12.02 42.33 12.03 42.39 12.04C42.45 12.05 42.52 12.07 42.58 12.09C42.64 12.11 42.7 12.13 42.77 12.15C42.83 12.18 42.89 12.21 42.94 12.24C43 12.27 43.06 12.3 43.11 12.34C43.17 12.37 43.22 12.41 43.27 12.45C43.32 12.5 43.37 12.54 43.41 12.59C43.46 12.63 43.5 12.68 43.55 12.73C43.59 12.78 43.63 12.83 43.66 12.89C43.7 12.94 43.73 13 43.76 13.06C43.79 13.11 43.82 13.17 43.85 13.23C43.87 13.3 43.89 13.36 43.91 13.42C43.93 13.48 43.95 13.55 43.96 13.61C43.97 13.67 43.98 13.74 43.99 13.8ZM13.8 40.01C13.87 40 13.93 40 14 40L34 40C34.07 40 34.13 40 34.2 40.01C34.26 40.02 34.33 40.03 34.39 40.04C34.45 40.05 34.52 40.07 34.58 40.09C34.64 40.11 34.7 40.13 34.77 40.15C34.83 40.18 34.89 40.21 34.94 40.24C35 40.27 35.06 40.3 35.11 40.34C35.17 40.37 35.22 40.41 35.27 40.45C35.32 40.5 35.37 40.54 35.41 40.59C35.46 40.63 35.5 40.68 35.55 40.73C35.59 40.78 35.63 40.83 35.66 40.89C35.7 40.94 35.73 41 35.76 41.06C35.79 41.11 35.82 41.17 35.85 41.23C35.87 41.3 35.89 41.36 35.91 41.42C35.93 41.48 35.95 41.55 35.96 41.61C35.97 41.67 35.98 41.74 35.99 41.8C36 41.87 36 41.93 36 42C36 42.07 36 42.13 35.99 42.2C35.98 42.26 35.97 42.33 35.96 42.39C35.95 42.45 35.93 42.52 35.91 42.58C35.89 42.64 35.87 42.7 35.85 42.77C35.82 42.83 35.79 42.89 35.76 42.94C35.73 43 35.7 43.06 35.66 43.11C35.63 43.17 35.59 43.22 35.55 43.27C35.5 43.32 35.46 43.37 35.41 43.41C35.37 43.46 35.32 43.5 35.27 43.55C35.22 43.59 35.17 43.63 35.11 43.66C35.06 43.7 35 43.73 34.94 43.76C34.89 43.79 34.83 43.82 34.77 43.85C34.7 43.87 34.64 43.89 34.58 43.91C34.52 43.93 34.45 43.95 34.39 43.96C34.33 43.97 34.26 43.98 34.2 43.99C34.13 44 34.07 44 34 44L14 44C13.93 44 13.87 44 13.8 43.99C13.74 43.98 13.67 43.97 13.61 43.96C13.55 43.95 13.48 43.93 13.42 43.91C13.36 43.89 13.3 43.87 13.23 43.85C13.17 43.82 13.11 43.79 13.06 43.76C13 43.73 12.94 43.7 12.89 43.66C12.83 43.63 12.78 43.59 12.73 43.55C12.68 43.5 12.63 43.46 12.59 43.41C12.54 43.37 12.5 43.32 12.45 43.27C12.41 43.22 12.37 43.17 12.34 43.11C12.3 43.06 12.27 43 12.24 42.94C12.21 42.89 12.18 42.83 12.15 42.77C12.13 42.7 12.11 42.64 12.09 42.58C12.07 42.52 12.05 42.45 12.04 42.39C12.03 42.33 12.02 42.26 12.01 42.2C12 42.13 12 42.07 12 42C12 41.93 12 41.87 12.01 41.8C12.02 41.74 12.03 41.67 12.04 41.61C12.05 41.55 12.07 41.48 12.09 41.42C12.11 41.36 12.13 41.3 12.15 41.23C12.18 41.17 12.21 41.11 12.24 41.06C12.27 41 12.3 40.94 12.34 40.89C12.37 40.83 12.41 40.78 12.45 40.73C12.5 40.68 12.54 40.63 12.59 40.59C12.63 40.54 12.68 40.5 12.73 40.45C12.78 40.41 12.83 40.37 12.89 40.34C12.94 40.3 13 40.27 13.06 40.24C13.11 40.21 13.17 40.18 13.23 40.15C13.3 40.13 13.36 40.11 13.42 40.09C13.48 40.07 13.55 40.05 13.61 40.04C13.67 40.03 13.74 40.02 13.8 40.01Z" fill-rule="evenodd"  fill="#000000" >
</path>
</svg>
