<svg xmlns="http://www.w3.org/2000/svg" xmlns:xlink="http://www.w3.org/1999/xlink" width="48" height="48" viewBox="0 0 48 48" fill="none">
<path d="M12 42L36 42C39.31 42 42 39.31 42 36L42 12C42 8.69 39.31 6 36 6L12 6C8.69 6 6 8.69 6 12L6 36C6 39.31 8.69 42 12 42Z"   fill="#D5D5D5" >
</path>
<path d="M4 36C4 40.4183 7.58172 44 12 44L36 44C40.4183 44 44 40.4183 44 36L44 12C44 7.58172 40.4183 4 36 4L12 4C7.58172 4 4 7.58172 4 12L4 36ZM36 40L12 40C9.79086 40 8 38.2091 8 36L8 12C8 9.79086 9.79086 8 12 8L36 8C38.2091 8 40 9.79086 40 12L40 36C40 38.2091 38.2091 40 36 40Z" fill-rule="evenodd"  fill="#555555" >
</path>
<path d="M25.9999 22.2898C28.8915 23.1503 31.0001 25.8289 31.0001 29C31.0001 32.866 27.8661 36 24.0001 36C20.1341 36 17.0001 32.866 17.0001 29C17.0001 25.8291 19.1085 23.1506 21.9999 22.2899L21.9999 14C21.9999 12.8954 22.8954 12 23.9999 12C25.1045 12 25.9999 12.8954 25.9999 14L25.9999 22.2898ZM24.0001 26C25.657 26 27.0001 27.3432 27.0001 29C27.0001 30.6568 25.657 32 24.0001 32C22.3433 32 21.0001 30.6568 21.0001 29C21.0001 27.3432 22.3433 26 24.0001 26Z" fill-rule="evenodd"  fill="#555555" >
</path>
<path d="M15 12.5C15 13.8807 13.8807 15 12.5 15C11.1193 15 10 13.8807 10 12.5C10 11.1193 11.1193 10 12.5 10C13.8807 10 15 11.1193 15 12.5Z"   fill="#2A2A2A" >
</path>
<path d="M15 35.5C15 36.8807 13.8807 38 12.5 38C11.1193 38 10 36.8807 10 35.5C10 34.1193 11.1193 33 12.5 33C13.8807 33 15 34.1193 15 35.5Z"   fill="#2A2A2A" >
</path>
<path d="M38 12.5C38 13.8807 36.8807 15 35.5 15C34.1193 15 33 13.8807 33 12.5C33 11.1193 34.1193 10 35.5 10C36.8807 10 38 11.1193 38 12.5Z"   fill="#2A2A2A" >
</path>
<path d="M38 35.5C38 36.8807 36.8807 38 35.5 38C34.1193 38 33 36.8807 33 35.5C33 34.1193 34.1193 33 35.5 33C36.8807 33 38 34.1193 38 35.5Z"   fill="#2A2A2A" >
</path>
</svg>
