<svg xmlns="http://www.w3.org/2000/svg" xmlns:xlink="http://www.w3.org/1999/xlink" width="48" height="48" viewBox="0 0 48 48" fill="none">
<path d="M8 25.9901C8 40.4101 22.76 42.8201 23.93 42.9901C23.98 43.0001 24.02 43.0001 24.07 42.9901C25.24 42.8201 40 40.4101 40 25.9901L40 12.1101C40 10.2701 38.75 8.68012 36.97 8.23012L24.97 5.24012C24.33 5.08012 23.67 5.08012 23.03 5.24012L11.03 8.23012C9.25 8.68012 8 10.2701 8 12.1101L8 25.9901Z"   fill="#FEEDBD" >
</path>
<path d="M10 25.9933L10 12.1108C10 11.1924 10.6255 10.3921 11.5166 10.1701L23.5166 7.18135C23.834 7.1023 24.166 7.1023 24.4834 7.18135L36.4834 10.1701C37.3745 10.392 38 11.1924 38 12.1108L38 25.9933C38 31.0143 36.0347 34.9084 32.104 37.6758C29.7604 39.3258 27.1049 40.418 24.1376 40.9526C24.0441 40.9695 23.948 40.9681 23.8545 40.9512C20.8838 40.4143 18.2275 39.32 15.8854 37.6683C11.9618 34.9013 10 31.0097 10 25.9933ZM10.5499 6.28866C7.8764 6.95453 6 9.35563 6 12.1108L6 25.9933C6 32.3921 8.52671 37.3734 13.5801 40.9372C16.4043 42.9288 19.592 44.2456 23.1431 44.8874C23.7063 44.9892 24.2834 44.9907 24.8467 44.8893C28.3944 44.2501 31.581 42.9359 34.4067 40.9465C39.4689 37.3825 42 32.3981 42 25.9933L42 12.1108C42 9.35564 40.1236 6.95453 37.4501 6.28866L25.4501 3.29993C24.4979 3.06278 23.5021 3.06278 22.5499 3.29993L10.5499 6.28866Z" fill-rule="evenodd"  fill="#FCCB68" >
</path>
<path d="M38 25.9047C37.7784 28.477 37.4959 30.2496 37.1526 31.2225C37.0669 31.4452 37.02 31.6872 37.02 31.9401C37.02 33.0447 37.9154 33.9401 39.02 33.9401C39.9046 33.9401 40.655 33.3658 40.9189 32.5698C41.3829 31.2589 41.7409 29.1222 41.9928 26.1596L42 26.075L42 12.1151C42 9.36054 40.1245 6.95985 37.4518 6.29335L25.4518 3.30085C24.4985 3.06313 23.5015 3.06313 22.5482 3.30085L10.5482 6.29335C7.87554 6.95985 6 9.36054 6 12.1151L6 25.9901C6 28.5113 6.40584 30.827 7.21753 32.9372C7.49501 33.7085 8.2331 34.2601 9.1 34.2601C10.2046 34.2601 11.1 33.3647 11.1 32.2601C11.1 31.9898 11.0464 31.732 10.9492 31.4969C10.3164 29.8499 10 28.0143 10 25.9901L10 12.1151C10 11.1969 10.6252 10.3967 11.5161 10.1745L23.5161 7.18199C23.8338 7.10275 24.1662 7.10275 24.4839 7.18199L36.4839 10.1745C37.3748 10.3967 38 11.1969 38 12.1151L38 25.9047Z" fill-rule="evenodd"  fill="#FBB63E" >
</path>
<path d="M6 12.1151L6 21.9903C6 23.0949 6.89543 23.9903 8 23.9903C9.10457 23.9903 10 23.0949 10 21.9903L10 12.1151C10 11.1969 10.6252 10.3967 11.5161 10.1745L23.5161 7.18199C23.8338 7.10275 24.1662 7.10275 24.4839 7.18199L36.4839 10.1745C37.3748 10.3967 38 11.1969 38 12.1151L38 21.9903C38 23.0949 38.8954 23.9903 40 23.9903C41.1046 23.9903 42 23.0949 42 21.9903L42 12.1151C42 9.36054 40.1245 6.95985 37.4518 6.29335L25.4518 3.30085C24.4985 3.06313 23.5015 3.06313 22.5482 3.30085L10.5482 6.29335C7.87554 6.95985 6 9.36054 6 12.1151Z" fill-rule="evenodd"  fill="#FA9E14" >
</path>
<path d="M16.1045 24.3586L22.5235 31.384C23.3166 32.252 24.6835 32.252 25.4765 31.384L31.8956 24.3586C32.538 23.6556 32.5955 22.5971 32.0331 21.8286L29.0993 17.819C28.7226 17.3042 28.123 17 27.4852 17L20.5148 17C19.877 17 19.2774 17.3042 18.9008 17.819L15.9669 21.8286C15.4045 22.5971 15.4621 23.6556 16.1045 24.3586Z"   fill="#FCCB68" >
</path>
<path d="M17.2867 16.6379L14.3528 20.6475C13.2281 22.1846 13.3432 24.3016 14.6279 25.7077L21.047 32.7331C22.633 34.4689 25.367 34.4689 26.953 32.7331L33.3721 25.7077C34.6568 24.3016 34.7719 22.1846 33.6472 20.6475L30.7133 16.6379C29.96 15.6084 28.7609 15 27.4852 15L20.5148 15C19.2391 15 18.04 15.6084 17.2867 16.6379ZM24 30.035L17.5809 23.0096L17.5809 23.0096L20.5148 19L27.4852 19L30.4191 23.0096L24 30.035Z" fill-rule="evenodd"  fill="#FA9E14" >
</path>
</svg>
