<svg xmlns="http://www.w3.org/2000/svg" xmlns:xlink="http://www.w3.org/1999/xlink" width="48" height="48" viewBox="0 0 48 48" fill="none">
<path d="M21.0424 32.73L14.6224 25.71C14.3024 25.36 14.0624 24.97 13.8824 24.54C13.7124 24.12 13.6124 23.68 13.5924 23.22C13.5624 22.77 13.6124 22.32 13.7424 21.89C13.8724 21.44 14.0824 21.03 14.3524 20.65L17.2824 16.64C17.6624 16.12 18.1424 15.72 18.7124 15.43C19.2824 15.14 19.8824 15 20.5224 15L27.4824 15C28.1224 15 28.7224 15.14 29.2924 15.43C29.8624 15.72 30.3324 16.12 30.7124 16.64L33.6524 20.65C33.9224 21.03 34.1224 21.44 34.2524 21.89C34.3824 22.32 34.4324 22.77 34.4124 23.22C34.3924 23.68 34.2924 24.12 34.1224 24.54C33.9424 24.97 33.6924 25.36 33.3724 25.71L26.9624 32.72C26.9624 32.72 26.9624 32.73 26.9524 32.73C26.5724 33.15 26.1224 33.47 25.6024 33.7C25.0924 33.92 24.5624 34.03 24.0024 34.03C23.4424 34.03 22.9024 33.92 22.3924 33.7C21.8724 33.47 21.4224 33.15 21.0424 32.73ZM23.9924 30.03L17.5824 23.02L17.5824 23.01L20.5124 19L27.4824 19L30.4124 23.01L30.4224 23.02L24.0024 30.03L23.9924 30.03ZM25.52 44.7523C26.22 44.5923 26.94 44.4023 27.66 44.1723C29.83 43.4823 31.8 42.5423 33.58 41.3623C36.05 39.7123 37.99 37.6823 39.4 35.2823C41.13 32.3223 42 28.8923 42 24.9923L42 12.1123C41.99 11.5623 41.87 11.0323 41.66 10.5323C41.45 10.0423 41.17 9.60227 40.8 9.21227C40.43 8.83227 40.01 8.52227 39.53 8.29226C39.05 8.06227 38.54 7.92227 38.01 7.88227C35.98 7.65227 33.66 7.05227 31.05 6.07227C30.06 5.70227 29.06 5.29227 28.06 4.83227C27.29 4.48227 26.58 4.14227 25.94 3.80227C25.32 3.47227 24.66 3.31227 23.96 3.32227C23.25 3.33227 22.59 3.51227 21.98 3.85227C20.46 4.68227 18.86 5.41227 17.17 6.06227C14.6 7.03227 12.21 7.64227 10 7.88227C9.46 7.92227 8.95 8.06227 8.46 8.29226C7.98 8.53227 7.56 8.84227 7.19 9.22227C6.83 9.61227 6.54 10.0523 6.34 10.5423C6.13 11.0423 6.01 11.5723 6 12.1223L6 24.9923C6 28.8923 6.87 32.3223 8.6 35.2823C10.01 37.6823 11.95 39.7123 14.42 41.3623C16.2 42.5423 18.17 43.4823 20.34 44.1723C21.06 44.4023 21.78 44.5923 22.48 44.7523C22.9 44.8423 23.28 44.9123 23.61 44.9623C23.87 45.0123 24.13 45.0123 24.39 44.9623C24.72 44.9123 25.1 44.8423 25.52 44.7523Z" fill-rule="evenodd"  fill="#000000" >
</path>
</svg>
