<svg xmlns="http://www.w3.org/2000/svg" xmlns:xlink="http://www.w3.org/1999/xlink" width="48" height="48" viewBox="0 0 48 48" fill="none">
<path d="M27.5 3L15 3C13.92 3 12.88 3.21 11.89 3.63C10.93 4.04 10.08 4.61 9.34 5.34C8.61 6.08 8.04 6.93 7.63 7.89C7.21 8.88 7 9.92 7 11L7 37C7 38.08 7.21 39.12 7.63 40.11C8.04 41.07 8.61 41.92 9.34 42.66C10.08 43.39 10.93 43.96 11.89 44.37C12.88 44.79 13.92 45 15 45L33 45C34.08 45 35.12 44.79 36.11 44.37C37.07 43.96 37.92 43.39 38.66 42.66C39.39 41.92 39.96 41.07 40.37 40.11C40.79 39.12 41 38.08 41 37L41 17L40.97 17C40.91 16.44 40.78 15.89 40.57 15.36C40.28 14.65 39.87 14.01 39.33 13.46L31.13 4.86C30.57 4.27 29.91 3.81 29.15 3.49C28.62 3.26 28.07 3.11 27.5 3.04L27.5 3ZM34.55 40.69C35.03 40.48 35.46 40.2 35.83 39.83C36.2 39.46 36.48 39.03 36.69 38.55C36.9 38.06 37 37.54 37 37L37 21L31.5 21C30.42 21 29.38 20.79 28.39 20.37C27.55 20.02 26.8 19.53 26.13 18.92C26.03 18.84 25.94 18.75 25.84 18.66C25.15 17.96 24.61 17.18 24.21 16.29C24.18 16.23 24.16 16.17 24.13 16.11C23.74 15.18 23.53 14.21 23.5 13.2L23.5 7L15 7C14.46 7 13.94 7.1 13.45 7.31C12.97 7.52 12.54 7.8 12.17 8.17C11.8 8.54 11.52 8.97 11.31 9.45C11.1 9.94 11 10.46 11 11L11 37C11 37.54 11.1 38.06 11.31 38.55C11.52 39.03 11.8 39.46 12.17 39.83C12.54 40.2 12.97 40.48 13.45 40.69C13.94 40.9 14.46 41 15 41L33 41C33.54 41 34.06 40.9 34.55 40.69ZM20 29C20 29.41 20.08 29.8 20.23 30.17C20.39 30.52 20.6 30.84 20.88 31.12C21.16 31.4 21.48 31.61 21.83 31.77C22.2 31.92 22.59 32 23 32L26.5374 32C26.7115 31.698 26.9245 31.4224 27.17 31.17C27.54 30.81 27.96 30.52 28.44 30.32C28.94 30.11 29.46 30 30 30C30.54 30 31.06 30.11 31.56 30.32C32.04 30.52 32.46 30.81 32.83 31.17C33.19 31.54 33.48 31.96 33.68 32.44C33.89 32.94 34 33.46 34 34C34 34.54 33.89 35.06 33.68 35.56C33.48 36.04 33.19 36.46 32.83 36.83C32.46 37.19 32.04 37.48 31.56 37.68C31.06 37.89 30.54 38 30 38C29.46 38 28.94 37.89 28.44 37.68C27.96 37.48 27.54 37.19 27.17 36.83C26.9245 36.5776 26.7115 36.302 26.5374 36L23 36C22.05 36 21.14 35.82 20.27 35.45C19.44 35.09 18.7 34.59 18.05 33.95C17.41 33.3 16.91 32.56 16.55 31.73C16.18 30.86 16 29.95 16 29L16 25.4626C15.698 25.2885 15.4223 25.0755 15.17 24.83C14.81 24.46 14.52 24.04 14.32 23.56C14.11 23.06 14 22.54 14 22C14 21.46 14.11 20.94 14.32 20.44C14.52 19.96 14.81 19.54 15.17 19.17C15.54 18.81 15.96 18.52 16.44 18.32C16.94 18.11 17.46 18 18 18C18.54 18 19.06 18.11 19.56 18.32C20.04 18.52 20.46 18.81 20.83 19.17C21.19 19.54 21.48 19.96 21.68 20.44C21.89 20.94 22 21.46 22 22C22 22.54 21.89 23.06 21.68 23.56C21.48 24.04 21.19 24.46 20.83 24.83C20.5776 25.0755 20.302 25.2885 20 25.4626L20 29ZM31.5 17L36.91 17C36.89 16.95 36.87 16.91 36.86 16.86C36.76 16.62 36.62 16.41 36.45 16.22L28.23 7.62C28.05 7.42 27.83 7.27 27.57 7.16C27.55 7.15 27.52 7.14 27.5 7.13L27.5 13C27.5 13.54 27.6 14.06 27.81 14.55C28.02 15.03 28.3 15.46 28.67 15.83C29.04 16.2 29.47 16.48 29.95 16.69C30.44 16.9 30.96 17 31.5 17Z" fill-rule="evenodd"  fill="#000000" >
</path>
</svg>
