<svg xmlns="http://www.w3.org/2000/svg" xmlns:xlink="http://www.w3.org/1999/xlink" width="48" height="48" viewBox="0 0 48 48" fill="none">
<path d="M25.1654 21.0881L32.5488 24L25.1654 26.9119C24.65 27.1152 24.1964 27.4128 23.8046 27.8046C23.4128 28.1964 23.1152 28.65 22.9119 29.1654L20 36.5488L17.0881 29.1654C16.8847 28.65 16.5872 28.1964 16.1954 27.8046C15.8036 27.4128 15.35 27.1152 14.8346 26.9119L7.45117 24L14.8346 21.0881C15.35 20.8847 15.8036 20.5872 16.1954 20.1954C16.5872 19.8036 16.8847 19.35 17.0881 18.8346L20 11.4512L22.9119 18.8346C23.1152 19.35 23.4128 19.8036 23.8046 20.1954C24.1964 20.5872 24.65 20.8847 25.1654 21.0881ZM34.0163 27.7211C37.3929 26.3894 37.3929 21.6107 34.0163 20.2789L26.633 17.367L23.7211 9.98361C22.3893 6.60703 17.6106 6.60703 16.2789 9.98361L13.367 17.367L5.98361 20.2789C2.60703 21.6106 2.60703 26.3893 5.98361 27.7211L13.367 30.633L16.2789 38.0163C17.6106 41.3929 22.3894 41.3929 23.7211 38.0163L26.633 30.633L34.0163 27.7211Z" fill-rule="evenodd"  fill="#424242" >
</path>
<path d="M30 12.5C30 13.6046 30.8954 14.5 32 14.5L41.0049 14.5C42.1095 14.5 43.0049 13.6046 43.0049 12.5C43.0049 11.3954 42.1095 10.5 41.0049 10.5L32 10.5C30.8954 10.5 30 11.3954 30 12.5Z" fill-rule="evenodd"  fill="#787878" >
</path>
<path d="M29 35.5C29 36.6046 29.8954 37.5 31 37.5L42 37.5C43.1046 37.5 44 36.6046 44 35.5C44 34.3954 43.1046 33.5 42 33.5L31 33.5C29.8954 33.5 29 34.3954 29 35.5Z" fill-rule="evenodd"  fill="#787878" >
</path>
<path d="M36.5 28C35.3954 28 34.5 28.8954 34.5 30L34.5 41C34.5 42.1046 35.3954 43 36.5 43C37.6046 43 38.5 42.1046 38.5 41L38.5 30C38.5 28.8954 37.6046 28 36.5 28Z" fill-rule="evenodd"  fill="#787878" >
</path>
<path d="M36.5 6C35.3954 6 34.5 6.89543 34.5 8L34.5 17.0048C34.5 18.1094 35.3954 19.0048 36.5 19.0048C37.6046 19.0048 38.5 18.1094 38.5 17.0048L38.5 8C38.5 6.89543 37.6046 6 36.5 6Z" fill-rule="evenodd"  fill="#787878" >
</path>
</svg>
