<svg xmlns="http://www.w3.org/2000/svg" xmlns:xlink="http://www.w3.org/1999/xlink" width="48" height="48" viewBox="0 0 48 48" fill="none">
<path d="M3 24C3 12.4 12.4 3 24 3C35.6 3 45 12.4 45 24C45 35.6 35.6 45 24 45C12.4 45 3 35.6 3 24ZM32.7752 13.8954C25.6901 17.1481 21.5889 19.3401 20.4646 20.4644C18.513 22.416 18.513 25.5838 20.4646 27.5354C22.4162 29.487 25.584 29.487 27.5356 27.5354C28.6599 26.4111 30.8519 22.3099 34.1046 15.2248C34.4935 14.3833 33.6167 13.5065 32.7752 13.8954Z" fill-rule="evenodd"  fill="#000000" >
</path>
</svg>
