<svg xmlns="http://www.w3.org/2000/svg" xmlns:xlink="http://www.w3.org/1999/xlink" width="48" height="48" viewBox="0 0 48 48" fill="none">
<path d="M21.1716 20L15.5861 25.5854L15.5858 25.5858C15.2239 25.9477 15 26.4477 15 27C15 28.1045 15.8954 29 17 29C17.5523 29 18.0523 28.7761 18.4142 28.4142L22 24.8284L22 34C22 35.1046 22.8954 36 24 36C25.1046 36 26 35.1046 26 34L26 24.8284L29.5852 28.4135L29.5858 28.4142C29.9477 28.7761 30.4477 29 31 29C32.1046 29 33 28.1045 33 27C33 26.4477 32.7761 25.9477 32.4142 25.5858L26.8284 20C25.2663 18.4379 22.7337 18.4379 21.1716 20Z" fill-rule="evenodd"  fill="#424242" >
</path>
<path d="M18.4556 12.2242C17.8314 12.1414 17.1995 12.1 16.56 12.1C14.5783 12.1 12.6821 12.4948 10.8715 13.2843C9.12771 14.0447 7.58485 15.1167 6.24289 16.5003C4.90509 17.8796 3.86965 19.4629 3.13658 21.25C2.37886 23.0972 2 25.0305 2 27.05C2 29.0691 2.37886 31.0022 3.13659 32.8493C3.86967 34.6364 4.90508 36.2196 6.24283 37.599C7.58481 38.9828 9.12764 40.0549 10.8713 40.8154C12.682 41.6051 14.5783 42 16.56 42L34 42C40.7323 42 46 36.5424 46 29.81C46 28.5071 45.8018 27.2441 45.4053 26.0212C45.0188 24.8293 44.4605 23.7249 43.7302 22.708C43.0058 21.6992 42.1452 20.8222 41.1483 20.0769C40.6114 19.6755 40.0478 19.322 39.4575 19.0165C39.5192 18.524 39.55 18.0252 39.55 17.52C39.55 15.9683 39.2606 14.482 38.6818 13.0612C38.1212 11.685 37.3291 10.4653 36.3055 9.40226C35.2766 8.33367 34.0929 7.50541 32.7545 6.91746C31.3622 6.30582 29.904 6 28.38 6C27.1605 6 25.9773 6.19793 24.8303 6.59379C23.7235 6.97574 22.6989 7.52482 21.7566 8.24103C20.8301 8.9452 20.0278 9.77682 19.3496 10.7359C19.0129 11.212 18.7149 11.7081 18.4556 12.2242ZM19.1714 16.4342C18.324 16.2114 17.4535 16.1 16.56 16.1C15.1344 16.1 13.7712 16.3836 12.4703 16.9509C11.2087 17.501 10.09 18.2791 9.11421 19.2852C8.13429 20.2955 7.37533 21.4565 6.83734 22.768C6.27911 24.1289 6 25.5562 6 27.05C6 28.5434 6.27911 29.9705 6.83732 31.3313C7.37534 32.6428 8.13433 33.8038 9.11428 34.8143C10.0901 35.8205 11.2088 36.5987 12.4704 37.149C13.7713 37.7163 15.1345 38 16.56 38L34 38C38.5232 38 42 34.3332 42 29.81C42 28.9285 41.8668 28.0768 41.6003 27.2549C41.342 26.4584 40.969 25.7204 40.4811 25.0411C39.9966 24.3664 39.4207 23.7796 38.7533 23.2807C38.0749 22.7735 37.3319 22.3797 36.5242 22.0994C36.0283 21.9202 35.6556 21.5984 35.4062 21.1338C35.1685 20.6631 35.1184 20.1733 35.2559 19.6642C35.452 18.973 35.55 18.2583 35.55 17.52C35.55 16.4906 35.3591 15.5073 34.9774 14.5702C34.6101 13.6685 34.0923 12.8707 33.4241 12.1767C32.7608 11.4879 32.0014 10.9556 31.1457 10.5797C30.266 10.1932 29.3441 10 28.38 10C27.6077 10 26.8595 10.125 26.1352 10.375C25.4321 10.6176 24.7794 10.9678 24.177 11.4256C23.5773 11.8815 23.0568 12.4214 22.6155 13.0454C22.1672 13.6793 21.8233 14.3684 21.5839 15.1125C21.4156 15.6137 21.1012 15.9942 20.6409 16.254C20.1741 16.5021 19.6843 16.5622 19.1714 16.4342Z" fill-rule="evenodd"  fill="#787878" >
</path>
</svg>
