<svg xmlns="http://www.w3.org/2000/svg" xmlns:xlink="http://www.w3.org/1999/xlink" width="48" height="48" viewBox="0 0 48 48" fill="none">
<path d="M43 24C43 34.4934 34.4934 43 24 43C13.5066 43 5 34.4934 5 24C5 13.5066 13.5066 5 24 5C34.4934 5 43 13.5066 43 24Z"   fill="#FFC7BF" >
</path>
<path d="M24 45C35.598 45 45 35.598 45 24C45 12.402 35.598 3 24 3C12.402 3 3 12.402 3 24C3 35.598 12.402 45 24 45ZM24 7C33.3888 7 41 14.6112 41 24C41 33.3888 33.3888 41 24 41C14.6112 41 7 33.3888 7 24C7 14.6112 14.6112 7 24 7Z" fill-rule="evenodd"  fill="#FF766C" >
</path>
<path d="M37.3679 7.80359C38.3979 8.65464 39.3453 9.60204 40.1963 10.632L10.632 40.1963C9.60204 39.3453 8.65464 38.3979 7.80359 37.3679L37.3679 7.80359Z" fill-rule="evenodd"  fill="#F2502C" >
</path>
</svg>
