<svg xmlns="http://www.w3.org/2000/svg" xmlns:xlink="http://www.w3.org/1999/xlink" width="48" height="48" viewBox="0 0 48 48" fill="none">
<path d="M25.9975 12.1002C25.9992 12.067 26 12.0336 26 12L26 11C26 9.89543 25.1046 9 24 9C22.8954 9 22 9.89543 22 11L22 12C22 12.0308 22.0007 12.0615 22.0021 12.092C21.2326 12.1647 20.487 12.2805 19.7653 12.4394C18.4425 12.7306 17.2683 13.1511 16.2426 13.7009C15.1365 14.2938 14.2645 15.0043 13.6266 15.8322C12.8755 16.8071 12.5 17.863 12.5 19C12.5 20.0737 12.7553 21.0549 13.2659 21.9435C13.7949 22.8644 14.5704 23.6329 15.5922 24.2491C17.5279 25.4164 20.3305 26 24 26C24.2259 26 24.4473 26.0025 24.6642 26.0074L28.3338 22.3378C27.0565 22.1126 25.6119 22 24 22C22.4402 22 21.0964 21.883 19.9688 21.6491C19.0112 21.4504 18.2409 21.1753 17.6578 20.8237C17.2272 20.564 16.9193 20.273 16.7341 19.9508C16.5781 19.6791 16.5 19.3622 16.5 19C16.5 18.7711 16.5984 18.5289 16.7953 18.2734C17.0843 17.8983 17.53 17.5492 18.1324 17.2264C18.8324 16.8511 19.6634 16.5576 20.6253 16.3458C21.6726 16.1153 22.7974 16 24 16C25.2905 16 26.4947 16.1482 27.6124 16.4446C29.0467 16.8249 30.4718 17.4732 31.8877 18.3897C31.9675 18.4432 32.0514 18.4911 32.1387 18.5329L34.8056 15.866C34.6412 15.522 34.3814 15.2324 34.0605 15.0313C32.289 13.8847 30.4813 13.067 28.6376 12.5782C27.789 12.3532 26.909 12.1938 25.9975 12.1002ZM32.513 23.8154L29.5417 26.7867C29.8392 26.9041 30.1061 27.0339 30.3422 27.1763C30.7729 27.436 31.0808 27.727 31.2659 28.0492C31.422 28.3209 31.5 28.6378 31.5 29C31.5 29.2696 31.4083 29.5345 31.2249 29.7946C30.9714 30.1541 30.5722 30.4856 30.0273 30.7889C29.3653 31.1574 28.5541 31.4452 27.5938 31.6524C26.61 31.8647 25.5224 31.9797 24.3309 31.9975L20.6626 35.6658C21.112 35.7546 21.559 35.8257 22.0036 35.8791C22.0012 35.9191 22 35.9594 22 36L22 37C22 38.1046 22.8954 39 24 39C25.1046 39 26 38.1046 26 37L26 36C26 35.973 25.9995 35.9461 25.9984 35.9193C26.8527 35.8478 27.6657 35.7289 28.4374 35.5624C29.7856 35.2715 30.964 34.8454 31.9727 34.2839C33.0493 33.6846 33.8897 32.9566 34.4939 32.0997C35.1646 31.1485 35.5 30.1153 35.5 29C35.5 27.9263 35.2447 26.9451 34.7341 26.0565C34.2234 25.1675 33.483 24.4205 32.513 23.8154ZM16.3719 34.2997L19.4582 31.2134C18.8194 30.9998 18.2084 30.7527 17.6252 30.472C17.0686 30.2041 16.5757 29.9247 16.1463 29.6336C15.8217 29.4062 15.4264 29.2727 15 29.2727C13.8954 29.2727 13 30.1682 13 31.2727C13 31.971 13.3579 32.5857 13.9002 32.9435C14.4928 33.3453 15.1562 33.7229 15.8905 34.0763C16.0494 34.1528 16.2099 34.2273 16.3719 34.2997Z" fill-rule="evenodd"  fill="#424242" >
</path>
<path d="M45 24C45 35.598 35.598 45 24 45C12.402 45 3 35.598 3 24C3 12.402 12.402 3 24 3C35.598 3 45 12.402 45 24ZM34.5236 10.648C31.629 8.36342 27.9737 7 24 7C14.6112 7 7 14.6112 7 24C7 27.9737 8.36342 31.629 10.648 34.5236L34.5236 10.648ZM37.352 13.4764C39.6366 16.371 41 20.0263 41 24C41 33.3888 33.3888 41 24 41C20.0263 41 16.371 39.6366 13.4764 37.352L37.352 13.4764Z" fill-rule="evenodd"  fill="#787878" >
</path>
</svg>
