<svg xmlns="http://www.w3.org/2000/svg" xmlns:xlink="http://www.w3.org/1999/xlink" width="48" height="48" viewBox="0 0 48 48" fill="none">
<path d="M32 38.5C32 39.8477 31.815 41.1413 31.4449 42.3808C31.3821 42.5911 31.3147 42.7975 31.2427 43L26.8428 43C27.1604 42.4783 27.4168 41.8904 27.6121 41.2364C27.8707 40.3702 28 39.4581 28 38.5C28 37.5419 27.8707 36.6298 27.6121 35.7636C27.3709 34.9558 27.0364 34.2489 26.6087 33.643C26.2175 33.0887 25.7838 32.6689 25.3075 32.3836C24.8807 32.1279 24.4449 32 24 32C23.5551 32 23.1193 32.1279 22.6925 32.3836C22.2162 32.6689 21.7825 33.0887 21.3913 33.643C20.9636 34.2489 20.6291 34.9558 20.3879 35.7636C20.1293 36.6298 20 37.5419 20 38.5C20 39.4581 20.1293 40.3702 20.3879 41.2364C20.5832 41.8904 20.8396 42.4783 21.1572 43L16.7573 43C16.6853 42.7975 16.6179 42.591 16.5551 42.3807C16.185 41.1412 16 39.8477 16 38.5C16 37.1523 16.185 35.8587 16.5551 34.6193C16.9212 33.3932 17.4439 32.2988 18.1234 31.3362C18.8394 30.3219 19.6772 29.5273 20.6366 28.9524C21.6962 28.3175 22.8173 28 24 28C25.1827 28 26.3039 28.3175 27.3635 28.9524C28.3228 29.5273 29.1605 30.3219 29.8766 31.3362C30.5561 32.2988 31.0788 33.3932 31.4449 34.6193C31.815 35.8587 32 37.1523 32 38.5Z" fill-rule="evenodd"  fill="#424242" >
</path>
<path d="M24 45.9999C32.8366 45.9999 40 38.8365 40 29.9999C40 26.4851 39.3557 23.0506 38.067 19.6964C37.8999 19.2202 37.71 18.8232 37.4973 18.5052C37.1315 17.9586 36.6739 17.5909 36.1245 17.4022C35.756 17.2757 35.3795 17.2414 34.9949 17.2994C34.6766 17.3475 34.3741 17.4569 34.0875 17.6275C33.7414 17.8337 33.4256 18.129 33.1401 18.5136C32.9081 18.8261 32.6708 19.2376 32.4281 19.7481C31.8048 17.3361 31.0222 14.9512 30.0801 12.5932C29.031 9.96738 27.8656 7.56002 26.5839 5.37112C26.3019 4.88948 25.9185 4.51937 25.4336 4.2608C24.9761 4.01684 24.4863 3.90318 23.9641 3.9198C23.4602 3.93586 22.9898 4.07167 22.5529 4.32726C22.1017 4.59121 21.7419 4.95076 21.4734 5.4059C20.5229 7.01729 19.4425 8.59275 18.232 10.1323C17.7524 10.7422 17.2175 11.3915 16.6271 12.0802C16.2717 12.4948 15.7482 13.0928 15.0567 13.8741C14.4415 14.5693 13.9866 15.0882 13.6919 15.431C13.1953 16.0087 12.762 16.5336 12.3921 17.0058C11.4553 18.2017 10.6959 19.3572 10.1141 20.4722C9.418 21.8062 8.89802 23.2177 8.55415 24.7068C8.18472 26.3067 8 28.0711 8 29.9999C8 38.8365 15.1635 45.9999 24 45.9999ZM35.1613 23.6692C35.7204 25.7473 36 27.8575 36 29.9999C36 36.6273 30.6274 41.9999 24 41.9999C17.3726 41.9999 12 36.6273 12 29.9999C12 28.3749 12.1505 26.9106 12.4516 25.6068C12.7188 24.4495 13.1217 23.3548 13.6603 22.3227C14.1286 21.4253 14.7555 20.4753 15.5409 19.4726C16.0418 18.8333 16.8788 17.8508 18.0521 16.525C18.7575 15.728 19.2948 15.1142 19.664 14.6836C20.2911 13.952 20.862 13.259 21.3765 12.6046C22.3206 11.4038 23.1932 10.1813 23.9944 8.93689C24.8429 10.5308 25.6333 12.2442 26.3656 14.0772C27.837 17.7602 28.8909 21.5107 29.5272 25.3287L29.5769 25.5493C29.908 26.7081 30.544 27.3802 31.4849 27.5655C31.8762 27.6426 32.2616 27.6141 32.6411 27.4799C32.8977 27.3893 33.1353 27.2539 33.3538 27.0737C33.5863 26.8821 33.7992 26.6351 33.9924 26.3326C34.1943 26.0166 34.4118 25.5752 34.6451 25.0082C34.7608 24.727 34.9329 24.2807 35.1613 23.6692Z" fill-rule="evenodd"  fill="#787878" >
</path>
</svg>
