<svg xmlns="http://www.w3.org/2000/svg" xmlns:xlink="http://www.w3.org/1999/xlink" width="48" height="48" viewBox="0 0 48 48" fill="none">
<path d="M24.0003 2.99999C12.4021 2.99999 2.99999 12.4021 2.99999 24.0003C2.99999 35.5984 12.4021 45.0005 24.0003 45.0005C35.5984 45.0005 45.0005 35.5984 45.0005 24.0003C45.0005 12.4021 35.5984 2.99999 24.0003 2.99999ZM24.0003 41.0005C14.6113 41.0005 6.99999 33.3892 6.99999 24.0003C6.99999 14.6113 14.6113 6.99999 24.0003 6.99999C33.3892 6.99999 41.0005 14.6113 41.0005 24.0003C41.0005 33.3892 33.3892 41.0005 24.0003 41.0005Z" fill-rule="evenodd"  fill="#787878" >
</path>
<path d="M17.5 17C18.3284 17 19 17.6716 19 18.5L19 19.5C19 20.6046 19.8954 21.5 21 21.5C22.1046 21.5 23 20.6046 23 19.5L23 18.5C23 15.4624 20.5376 13 17.5 13C14.4624 13 12 15.4624 12 18.5L12 29.5C12 29.5847 12.0053 29.6681 12.0155 29.75C12.0053 29.8319 12 29.9153 12 30C12 33.0376 14.4624 35.5 17.5 35.5C20.5376 35.5 23 33.0376 23 30C23 29.9153 22.9947 29.8319 22.9845 29.75C22.9947 29.6681 23 29.5847 23 29.5L23 28.5C23 27.3954 22.1046 26.5 21 26.5C19.8954 26.5 19 27.3954 19 28.5L19 29.5C19 29.5847 19.0053 29.6681 19.0155 29.75C19.0053 29.8319 19 29.9153 19 30C19 30.8284 18.3284 31.5 17.5 31.5C16.6716 31.5 16 30.8284 16 30C16 29.9153 15.9947 29.8319 15.9845 29.75C15.9947 29.6681 16 29.5847 16 29.5L16 18.5C16 17.6716 16.6716 17 17.5 17ZM30.5 17C31.3284 17 32 17.6716 32 18.5L32 19.5C32 20.6046 32.8954 21.5 34 21.5C35.1046 21.5 36 20.6046 36 19.5L36 18.5C36 15.4624 33.5376 13 30.5 13C27.4624 13 25 15.4624 25 18.5L25 29.5C25 29.5847 25.0053 29.6681 25.0155 29.75C25.0053 29.8319 25 29.9153 25 30C25 33.0376 27.4624 35.5 30.5 35.5C33.5376 35.5 36 33.0376 36 30C36 29.9153 35.9947 29.8319 35.9845 29.75C35.9947 29.6681 36 29.5847 36 29.5L36 28.5C36 27.3954 35.1046 26.5 34 26.5C32.8954 26.5 32 27.3954 32 28.5L32 29.5C32 29.5847 32.0053 29.6681 32.0155 29.75C32.0053 29.8319 32 29.9153 32 30C32 30.8284 31.3284 31.5 30.5 31.5C29.6716 31.5 29 30.8284 29 30C29 29.9153 28.9947 29.8319 28.9845 29.75C28.9947 29.6681 29 29.5847 29 29.5L29 18.5C29 17.6716 29.6716 17 30.5 17Z" fill-rule="evenodd"  fill="#424242" >
</path>
</svg>
