<svg xmlns="http://www.w3.org/2000/svg" xmlns:xlink="http://www.w3.org/1999/xlink" width="48" height="48" viewBox="0 0 48 48" fill="none">
<path d="M33.2826 22.1395L25.8992 19.2275C25.3838 19.0242 24.9758 18.6162 24.7725 18.1008L21.8605 10.7174C21.1946 9.0291 18.8054 9.0291 18.1395 10.7174L15.2275 18.1008C15.0242 18.6162 14.6162 19.0242 14.1008 19.2275L6.71738 22.1395C5.0291 22.8054 5.0291 25.1946 6.71738 25.8605L14.1008 28.7725C14.6162 28.9758 15.0242 29.3838 15.2275 29.8992L18.1395 37.2826C18.8054 38.9709 21.1946 38.9709 21.8605 37.2826L24.7725 29.8992C24.9758 29.3838 25.3838 28.9758 25.8992 28.7725L33.2826 25.8605C34.9709 25.1946 34.9709 22.8054 33.2826 22.1395Z"   fill="#424242" >
</path>
<path d="M26.633 30.633L34.0163 27.7211C37.3929 26.3894 37.3929 21.6107 34.0163 20.2789L26.633 17.367L23.7211 9.98361C22.3893 6.60703 17.6106 6.60703 16.2789 9.98361L13.367 17.367L5.98361 20.2789C2.60703 21.6106 2.60703 26.3893 5.98361 27.7211L13.367 30.633L16.2789 38.0163C17.6106 41.3929 22.3894 41.3929 23.7211 38.0163L26.633 30.633ZM25.1654 21.0881L32.5488 24L25.1654 26.9119C24.65 27.1152 24.1964 27.4128 23.8046 27.8046C23.4128 28.1964 23.1152 28.65 22.9119 29.1654L20 36.5488L17.0881 29.1654C16.8847 28.65 16.5872 28.1964 16.1954 27.8046C15.8036 27.4128 15.35 27.1152 14.8346 26.9119L7.45117 24L14.8346 21.0881C15.35 20.8847 15.8036 20.5872 16.1954 20.1954C16.5872 19.8036 16.8847 19.35 17.0881 18.8346L20 11.4512L22.9119 18.8346C23.1152 19.35 23.4128 19.8036 23.8046 20.1954C24.1964 20.5872 24.65 20.8847 25.1654 21.0881Z" fill-rule="evenodd"  fill="#424242" >
</path>
<path d="M34.5 30C34.5 28.8954 35.3954 28 36.5 28C37.6046 28 38.5 28.8954 38.5 30L38.5 33.5L42 33.5C43.1046 33.5 44 34.3954 44 35.5C44 36.6046 43.1046 37.5 42 37.5L38.5 37.5L38.5 41C38.5 42.1046 37.6046 43 36.5 43C35.3954 43 34.5 42.1046 34.5 41L34.5 37.5L31 37.5C29.8954 37.5 29 36.6046 29 35.5C29 34.3954 29.8954 33.5 31 33.5L34.5 33.5L34.5 30Z" fill-rule="evenodd"  fill="#787878" >
</path>
<path d="M34.5 8C34.5 6.89543 35.3954 6 36.5 6C37.6046 6 38.5 6.89543 38.5 8L38.5 10.5L41.0049 10.5C42.1095 10.5 43.0049 11.3954 43.0049 12.5C43.0049 13.6046 42.1095 14.5 41.0049 14.5L38.5 14.5L38.5 17.0048C38.5 18.1094 37.6046 19.0048 36.5 19.0048C35.3954 19.0048 34.5 18.1094 34.5 17.0048L34.5 14.5L32 14.5C30.8954 14.5 30 13.6046 30 12.5C30 11.3954 30.8954 10.5 32 10.5L34.5 10.5L34.5 8Z" fill-rule="evenodd"  fill="#787878" >
</path>
</svg>
