<svg xmlns="http://www.w3.org/2000/svg" xmlns:xlink="http://www.w3.org/1999/xlink" width="48" height="48" viewBox="0 0 48 48" fill="none">
<path d="M45 24C45 35.598 35.598 45 24 45C12.402 45 3 35.598 3 24C3 12.402 12.402 3 24 3C35.598 3 45 12.402 45 24ZM34.5236 10.648C31.629 8.36342 27.9737 7 24 7C14.6112 7 7 14.6112 7 24C7 27.9737 8.36342 31.629 10.648 34.5236L34.5236 10.648ZM37.352 13.4764C39.6366 16.371 41 20.0263 41 24C41 33.3888 33.3888 41 24 41C20.0263 41 16.371 39.6366 13.4764 37.352L37.352 13.4764Z" fill-rule="evenodd"  fill="#787878" >
</path>
<path d="M31.5389 13.6327C30.5819 13.1888 29.6148 12.8373 28.6376 12.5782C27.789 12.3532 26.909 12.1938 25.9975 12.1002C25.9992 12.067 26 12.0336 26 12L26 11C26 9.89543 25.1046 9 24 9C22.8954 9 22 9.89543 22 11L22 12C22 12.0308 22.0007 12.0615 22.0021 12.092C21.2326 12.1647 20.487 12.2805 19.7653 12.4394C18.4425 12.7306 17.2683 13.1511 16.2426 13.7009C15.1365 14.2938 14.2645 15.0043 13.6266 15.8322C12.8755 16.8071 12.5 17.863 12.5 19C12.5 20.0737 12.7553 21.0549 13.2659 21.9435C13.7949 22.8644 14.5704 23.6329 15.5922 24.2491C16.648 24.8858 17.9617 25.3488 19.5333 25.6382L23.1828 21.9887C21.9658 21.9544 20.8945 21.8412 19.9688 21.6491C19.0112 21.4504 18.2409 21.1753 17.6578 20.8237C17.2272 20.564 16.9193 20.273 16.7341 19.9508C16.5781 19.6791 16.5 19.3622 16.5 19C16.5 18.7711 16.5984 18.5289 16.7953 18.2734C17.0843 17.8983 17.53 17.5492 18.1324 17.2264C18.8324 16.8511 19.6634 16.5576 20.6253 16.3458C21.6726 16.1153 22.7974 16 24 16C25.2905 16 26.4947 16.1482 27.6124 16.4446C27.8979 16.5203 28.1831 16.6066 28.468 16.7036L31.5389 13.6327ZM15.7525 29.4191C15.5202 29.3247 15.2662 29.2727 15 29.2727C13.8954 29.2727 13 30.1682 13 31.2727C13 31.5389 13.052 31.7929 13.1464 32.0252L15.7525 29.4191ZM29.5417 26.7867L32.513 23.8154C33.483 24.4205 34.2234 25.1675 34.7341 26.0565C35.2447 26.9451 35.5 27.9263 35.5 29C35.5 30.1153 35.1646 31.1485 34.4939 32.0997C33.8897 32.9566 33.0493 33.6846 31.9727 34.2839C30.964 34.8454 29.7856 35.2715 28.4374 35.5624C27.6657 35.7289 26.8527 35.8478 25.9984 35.9193C25.9995 35.9461 26 35.973 26 36L26 37C26 38.1046 25.1046 39 24 39C22.8954 39 22 38.1046 22 37L22 36C22 35.9594 22.0012 35.9191 22.0036 35.8791C21.559 35.8257 21.112 35.7546 20.6626 35.6658L24.3309 31.9975C25.5224 31.9797 26.61 31.8647 27.5938 31.6524C28.5541 31.4452 29.3653 31.1574 30.0273 30.7889C30.5722 30.4856 30.9714 30.1541 31.2249 29.7946C31.4083 29.5345 31.5 29.2696 31.5 29C31.5 28.6378 31.422 28.3209 31.2659 28.0492C31.0808 27.727 30.7729 27.436 30.3422 27.1763C30.1061 27.0339 29.8392 26.9041 29.5417 26.7867Z" fill-rule="evenodd"  fill="#424242" >
</path>
</svg>
