<svg xmlns="http://www.w3.org/2000/svg" xmlns:xlink="http://www.w3.org/1999/xlink" width="48" height="48" viewBox="0 0 48 48" fill="none">
<path d="M14.5 4C15.6046 4 16.5 4.89543 16.5 6L16.5 15.223C20.508 16.1325 23.5 19.7168 23.5 24C23.5 28.2836 20.5075 31.8681 16.499 32.7772L16.499 41.9729C16.499 43.0774 15.6036 43.9729 14.499 43.9729C13.3944 43.9729 12.499 43.0774 12.499 41.9729L12.499 32.7768C8.49153 31.8669 5.5 28.2829 5.5 24C5.5 19.7168 8.49202 16.1325 12.5 15.223L12.5 6C12.5 4.89543 13.3954 4 14.5 4ZM28 12C26.8954 12 26 11.1046 26 10C26 8.89543 26.8954 8 28 8L41 8C42.1046 8 43 8.89543 43 10C43 11.1046 42.1046 12 41 12L28 12ZM19.5 24C19.5 21.2386 17.2614 19 14.5 19C11.7386 19 9.5 21.2386 9.5 24C9.5 26.7614 11.7386 29 14.5 29C17.2614 29 19.5 26.7614 19.5 24ZM26 24C26 25.1046 26.8954 26 28 26L41 26C42.1046 26 43 25.1046 43 24C43 22.8954 42.1046 22 41 22L28 22C26.8954 22 26 22.8954 26 24ZM26 38C26 39.1046 26.8954 40 28 40L41 40C42.1046 40 43 39.1046 43 38C43 36.8954 42.1046 36 41 36L28 36C26.8954 36 26 36.8954 26 38Z" fill-rule="evenodd"  fill="#000000" >
</path>
</svg>
