<svg xmlns="http://www.w3.org/2000/svg" xmlns:xlink="http://www.w3.org/1999/xlink" width="48" height="48" viewBox="0 0 48 48" fill="none">
<path d="M4 36C4 40.4183 7.58172 44 12 44L36 44C40.4183 44 44 40.4183 44 36L44 12C44 7.58172 40.4183 4 36 4L12 4C7.58172 4 4 7.58172 4 12L4 36ZM36 40L12 40C9.79086 40 8 38.2091 8 36L8 12C8 9.79086 9.79086 8 12 8L36 8C38.2091 8 40 9.79086 40 12L40 36C40 38.2091 38.2091 40 36 40Z" fill-rule="evenodd"  fill="#787878" >
</path>
<path d="M18 9.5C16.8954 9.5 16 10.3954 16 11.5L13 11.5C11.8954 11.5 11 12.3954 11 13.5C11 14.6046 11.8954 15.5 13 15.5L16 15.5C16 16.6046 16.8954 17.5 18 17.5C19.1046 17.5 20 16.6046 20 15.5L28 15.5C28 16.6046 28.8954 17.5 30 17.5C31.1046 17.5 32 16.6046 32 15.5L35 15.5C36.1046 15.5 37 14.6046 37 13.5C37 12.3954 36.1046 11.5 35 11.5L32 11.5C32 10.3954 31.1046 9.5 30 9.5C28.8954 9.5 28 10.3954 28 11.5L20 11.5C20 10.3954 19.1046 9.5 18 9.5ZM24 16.5C25.1046 16.5 26 17.3954 26 18.5L31 18.5C33.2091 18.5 35 20.2909 35 22.5L35 26.5L36 26.5C37.1046 26.5 38 27.3954 38 28.5C38 29.6046 37.1046 30.5 36 30.5L27.0692 30.5C27.6525 31.1219 28.4746 31.6947 29.5353 32.2184C30.5736 32.7309 31.7582 33.1529 33.0894 33.4842C34.1829 33.7564 35.1995 33.93 36.1394 34.0048C37.179 34.0764 38 34.9423 38 36C38 37.1046 37.1046 38 36 38C35.9393 38 35.8793 37.9973 35.82 37.992C34.6615 37.8996 33.4292 37.6909 32.1231 37.3658C30.5133 36.965 29.0605 36.4448 27.7647 35.8051C26.198 35.0317 24.9431 34.1186 24 33.0657C23.0569 34.1186 21.802 35.0317 20.2353 35.8051C18.9395 36.4448 17.4867 36.965 15.8769 37.3658C14.5708 37.6909 13.3385 37.8996 12.18 37.992C12.1207 37.9973 12.0607 38 12 38C10.8954 38 10 37.1046 10 36C10 34.9423 10.821 34.0764 11.8606 34.0048C12.8005 33.93 13.8171 33.7564 14.9106 33.4842C16.2418 33.1529 17.4264 32.7309 18.4647 32.2184C19.5254 31.6947 20.3475 31.1219 20.9308 30.5L12 30.5C10.8954 30.5 10 29.6046 10 28.5C10 27.3954 10.8954 26.5 12 26.5L13 26.5L13 22.5C13 20.2909 14.7909 18.5 17 18.5L22 18.5C22 17.3954 22.8954 16.5 24 16.5ZM17 22.5L22 22.5L22 26.5L17 26.5L17 22.5ZM31 22.5L26 22.5L26 26.5L31 26.5L31 22.5Z" fill-rule="evenodd"  fill="#424242" >
</path>
</svg>
