<svg xmlns="http://www.w3.org/2000/svg" xmlns:xlink="http://www.w3.org/1999/xlink" width="48" height="48" viewBox="0 0 48 48" fill="none">
<path d="M12 44L36 44C40.42 44 44 40.42 44 36L44 12C44 7.58 40.42 4 36 4L12 4C7.58 4 4 7.58 4 12L4 36C4 40.42 7.58 44 12 44ZM40 36L40 12C40 9.79 38.21 8 36 8L12 8C9.79 8 8 9.79 8 12L8 36C8 38.21 9.79 40 12 40L36 40C38.21 40 40 38.21 40 36ZM23 34C23 35.1 22.1 36 21 36L14 36C11.79 36 10 34.21 10 32L10 16C10 13.79 11.79 12 14 12L21 12C22.1 12 23 12.9 23 14C23 15.1 22.1 16 21 16L14 16L14 22L20 22C21.1 22 22 22.9 22 24C22 25.1 21.1 26 20 26L14 26L14 32L21 32C22.1 32 23 32.9 23 34ZM29 34C29 35.1 28.1 36 27 36C25.9 36 25 35.1 25 34L25 22C25 20.9 25.9 20 27 20C27.6125 20 28.163 20.279 28.5306 20.7163C29.4207 20.2584 30.4301 20 31.5 20C34.7146 20 37.384 22.3333 37.9071 25.3988C37.9674 25.5887 38 25.7907 38 26L38 34C38 35.1 37.1 36 36 36C34.9 36 34 35.1 34 34L34 26.5C34 25.12 32.88 24 31.5 24C30.12 24 29 25.12 29 26.5L29 34Z" fill-rule="evenodd"  fill="#000000" >
</path>
</svg>
