<svg xmlns="http://www.w3.org/2000/svg" xmlns:xlink="http://www.w3.org/1999/xlink" width="48" height="48" viewBox="0 0 48 48" fill="none">
<path d="M14 42L14 19L12 19C8.69 19 6 21.69 6 25L6 38C6 40.21 7.79 42 10 42L14 42Z"   fill="#BEDCFF" >
</path>
<path d="M4 25L4 38C4 41.3137 6.68629 44 10 44L16 44L16 17L12 17C7.58172 17 4 20.5817 4 25ZM12 21C9.79086 21 8 22.7909 8 25L8 38C8 39.1046 8.89543 40 10 40L12 40L12 21Z" fill-rule="evenodd"  fill="#6BA6FF" >
</path>
<path d="M42 42L42 6L14 6L14 42L42 42Z"   fill="#BEDCFF" >
</path>
<path d="M12 12L12 44L38 44C41.3137 44 44 41.3137 44 38L44 12C44 7.58172 40.4183 4 36 4L20 4C15.5817 4 12 7.58172 12 12ZM16 40L38 40C39.1046 40 40 39.1046 40 38L40 12C40 9.79086 38.2091 8 36 8L20 8C17.7909 8 16 9.79086 16 12L16 40Z" fill-rule="evenodd"  fill="#6BA6FF" >
</path>
<path d="M34 42L34 36C34 34.9 33.1 34 32 34L24 34C22.9 34 22 34.9 22 36L22 42L34 42Z"   fill="#BEDCFF" >
</path>
<path d="M20 36L20 44L36 44L36 36C36 33.7909 34.2091 32 32 32L24 32C21.7909 32 20 33.7909 20 36ZM32 40L32 36L24 36L24 40L32 40Z" fill-rule="evenodd"  fill="#1764FF" >
</path>
<path d="M19.5 14C19.5 15.0879 20.3954 15.9699 21.5 15.9699L35 15.9699C36.1046 15.9699 37 15.0879 37 14C37 12.912 36.1046 12.03 35 12.03L21.5 12.03C20.3954 12.03 19.5 12.912 19.5 14Z" fill-rule="evenodd"  fill="#4187FF" >
</path>
<path d="M19.5 21C19.5 22.0879 20.3954 22.9699 21.5 22.9699L35 22.9699C36.1046 22.9699 37 22.0879 37 21C37 19.912 36.1046 19.03 35 19.03L21.5 19.03C20.3954 19.03 19.5 19.912 19.5 21Z" fill-rule="evenodd"  fill="#4187FF" >
</path>
</svg>
