<svg xmlns="http://www.w3.org/2000/svg" xmlns:xlink="http://www.w3.org/1999/xlink" width="48" height="48" viewBox="0 0 48 48" fill="none">
<path d="M4 36C4 40.4183 7.58172 44 12 44L36 44C40.4183 44 44 40.4183 44 36L44 12C44 7.58172 40.4183 4 36 4L12 4C7.58172 4 4 7.58172 4 12L4 36ZM36 40L12 40C9.79086 40 8 38.2091 8 36L8 12C8 9.79086 9.79086 8 12 8L36 8C38.2091 8 40 9.79086 40 12L40 36C40 38.2091 38.2091 40 36 40Z" fill-rule="evenodd"  fill="#787878" >
</path>
<path d="M24 10C25.1046 10 26 10.8954 26 12L26 15L34 15C36.2091 15 38 16.7909 38 19L38 25C38 27.2091 36.2091 29 34 29L26 29L26 36C26 37.1046 25.1046 38 24 38C22.8954 38 22 37.1046 22 36L22 29L14 29C11.7909 29 10 27.2091 10 25L10 19C10 16.7909 11.7909 15 14 15L22 15L22 12C22 10.8954 22.8954 10 24 10ZM22 19L14 19L14 25L22 25L22 19ZM26 25L34 25L34 19L26 19L26 25Z" fill-rule="evenodd"  fill="#424242" >
</path>
</svg>
