<svg xmlns="http://www.w3.org/2000/svg" xmlns:xlink="http://www.w3.org/1999/xlink" width="48" height="48" viewBox="0 0 48 48" fill="none">
<path d="M9.5 44.5C6.18629 44.5 3.5 41.8137 3.5 38.5L3.5 9.5C3.5 6.18629 6.18629 3.5 9.5 3.5L16.4998 3.5C17.2881 3.5 18.0203 3.71884 18.6964 4.15652C19.3113 4.55457 19.7988 5.08211 20.1591 5.73913C20.6697 6.67039 21.2524 7.35072 21.9072 7.78012C22.5069 8.17337 23.2045 8.37 24 8.37C24.7964 8.37 25.4947 8.17292 26.0949 7.77875C26.7504 7.3482 27.3337 6.66602 27.8447 5.73219C28.2053 5.07318 28.6941 4.54537 29.311 4.14875C29.9837 3.71625 30.7134 3.5 31.5002 3.5L38.5 3.5C41.8137 3.5 44.5 6.18629 44.5 9.5L44.5 38.5C44.5 41.8137 41.8137 44.5 38.5 44.5L9.5 44.5ZM38.5 40.5C39.6046 40.5 40.5 39.6046 40.5 38.5L40.5 9.5C40.5 8.39543 39.6046 7.5 38.5 7.5L31.5002 7.5C31.4967 7.5 31.488 7.50444 31.4742 7.51333C31.4285 7.5427 31.3884 7.58902 31.3537 7.65231C30.5234 9.16979 29.5023 10.3264 28.2906 11.1222C27.0239 11.9541 25.5937 12.37 24 12.37C22.4081 12.37 20.9794 11.955 19.7137 11.125C18.5028 10.3309 17.4821 9.17669 16.6517 7.66228C16.6152 7.59571 16.5722 7.54637 16.5226 7.51427C16.5117 7.5072 16.5026 7.50245 16.4954 7.5L9.5 7.5C8.39543 7.5 7.5 8.39543 7.5 9.5L7.5 38.5C7.5 39.6046 8.39543 40.5 9.5 40.5L38.5 40.5ZM22.2475 32.2509L34.9133 19.5851L34.9142 19.5842C35.2761 19.2223 35.5 18.7223 35.5 18.17C35.5 17.0654 34.6046 16.17 33.5 16.17C32.9477 16.17 32.4477 16.3939 32.0858 16.7558L32.0849 16.7566L20.8333 28.0082L15.9145 23.0894L15.9142 23.0891C15.5523 22.7272 15.0523 22.5033 14.5 22.5033C13.3954 22.5033 12.5 23.3988 12.5 24.5033C12.5 25.0556 12.7239 25.5556 13.0858 25.9175L13.0861 25.9178L19.4191 32.2509C20.2002 33.0319 21.4665 33.0319 22.2475 32.2509Z" fill-rule="evenodd"  fill="#000000" >
</path>
</svg>
