<svg xmlns="http://www.w3.org/2000/svg" xmlns:xlink="http://www.w3.org/1999/xlink" width="48" height="48" viewBox="0 0 48 48" fill="none">
<path d="M12 44C7.58 44 4 40.42 4 36L4 12C4 7.58 7.58 4 12 4L36 4C40.42 4 44 7.58 44 12L44 36C44 40.42 40.42 44 36 44L12 44ZM40 12L40 36C40 38.21 38.21 40 36 40L12 40C9.79 40 8 38.21 8 36L8 12C8 9.79 9.79 8 12 8L36 8C38.21 8 40 9.79 40 12ZM18 9.5C16.9 9.5 16 10.4 16 11.5L13 11.5C11.9 11.5 11 12.4 11 13.5C11 14.6 11.9 15.5 13 15.5L16 15.5C16 16.6 16.9 17.5 18 17.5C19.1 17.5 20 16.6 20 15.5L28 15.5C28 16.6 28.9 17.5 30 17.5C31.1 17.5 32 16.6 32 15.5L35 15.5C36.1 15.5 37 14.6 37 13.5C37 12.4 36.1 11.5 35 11.5L32 11.5C32 10.4 31.1 9.5 30 9.5C28.9 9.5 28 10.4 28 11.5L20 11.5C20 10.4 19.1 9.5 18 9.5ZM22 26.5L17 26.5L17 22.5L22 22.5L22 26.5ZM26 18.5L31 18.5C33.21 18.5 35 20.29 35 22.5L35 26.5L36 26.5C37.1 26.5 38 27.4 38 28.5C38 29.6 37.1 30.5 36 30.5L27.068 30.5C27.6523 31.1235 28.4763 31.6972 29.54 32.22C31.57 33.22 33.77 33.82 36.14 34C37.18 34.08 38 34.94 38 36C38 37.1 37.1 38 36 38C35.94 38 35.88 38 35.82 37.99C32.94 37.77 30.26 37.04 27.76 35.81C26.1827 35.0296 24.9294 34.1311 24 33.1138C23.0706 34.1311 21.8173 35.0296 20.24 35.81C17.74 37.04 15.06 37.77 12.18 37.99C12.12 38 12.06 38 12 38C10.9 38 10 37.1 10 36C10 34.94 10.82 34.08 11.86 34C14.23 33.82 16.43 33.22 18.46 32.22C19.5237 31.6972 20.3477 31.1235 20.932 30.5L12 30.5C10.9 30.5 10 29.6 10 28.5C10 27.4 10.9 26.5 12 26.5L13 26.5L13 22.5C13 20.29 14.79 18.5 17 18.5L22 18.5C22 17.4 22.9 16.5 24 16.5C25.1 16.5 26 17.4 26 18.5ZM26 22.5L31 22.5L31 26.5L26 26.5L26 22.5Z" fill-rule="evenodd"  fill="#000000" >
</path>
</svg>
