<svg xmlns="http://www.w3.org/2000/svg" xmlns:xlink="http://www.w3.org/1999/xlink" width="48" height="48" viewBox="0 0 48 48" fill="none">
<path d="M35.4942 17.9766L35.4944 17.9764C37.0538 15.9416 38.2234 13.7996 39.0032 11.5504C39.4244 10.3358 39.7136 9.15272 39.871 8.00104L42.25 8.00104C43.3546 8.00104 44.25 7.10561 44.25 6.00104C44.25 4.89647 43.3546 4.00104 42.25 4.00104L37.138 4.00104C37.1117 4.00037 37.0854 4.00004 37.059 4.00004L11.0283 4.00004C11.0019 4.00004 10.9756 4.00037 10.9494 4.00104L5.75 4.00104C4.64543 4.00104 3.75 4.89647 3.75 6.00104C3.75 7.10561 4.64543 8.00104 5.75 8.00104L8.25589 8.00104C8.4939 9.20973 8.86555 10.4505 9.37084 11.7234C10.2385 13.9092 11.4321 15.9935 12.9516 17.9763L12.9518 17.9766C14.0135 19.3625 15.047 20.6056 16.0521 21.7058C16.6246 22.3326 17.3045 23.0304 18.0917 23.7993C18.1466 23.853 18.1987 23.904 18.2479 23.9524C18.2192 23.9786 18.1898 24.0054 18.1597 24.0328C17.3146 24.8012 16.5855 25.5069 15.9723 26.15C14.896 27.2788 13.8011 28.57 12.6876 30.0234L12.6874 30.0237C11.1439 32.0379 9.96381 34.1569 9.14715 36.3807C8.69233 37.6193 8.37041 38.826 8.18138 40.0009L5.75 40.0009C4.64543 40.0009 3.75 40.8963 3.75 42.0009C3.75 43.1055 4.64543 44.0009 5.75 44.0009L42.25 44.0009C43.3546 44.0009 44.25 43.1055 44.25 42.0009C44.25 40.8963 43.3546 40.0009 42.25 40.0009L40.0597 40.0009C39.9992 38.9225 39.8113 37.8138 39.4961 36.6749C38.8507 34.3427 37.7226 32.1256 36.1117 30.0236L36.1116 30.0234C34.8907 28.43 33.6598 27.0436 32.419 25.8643C31.9528 25.4212 31.4728 24.9957 30.9788 24.5877C30.7448 24.3944 30.4541 24.163 30.1068 23.8934C30.8923 23.1795 31.5777 22.5163 32.1629 21.9037C33.2482 20.7678 34.3587 19.4588 35.4942 17.9766Z" fill-rule="evenodd"  fill="#000000" >
</path>
</svg>
