<svg xmlns="http://www.w3.org/2000/svg" xmlns:xlink="http://www.w3.org/1999/xlink" width="48" height="48" viewBox="0 0 48 48" fill="none">
<path d="M3 24C3 12.4 12.4 3 24 3C35.6 3 45 12.4 45 24C45 35.6 35.6 45 24 45C12.4 45 3 35.6 3 24ZM41 24C41 33.39 33.39 41 24 41C14.61 41 7 33.39 7 24C7 14.61 14.61 7 24 7C33.39 7 41 14.61 41 24ZM24 11C22.62 11 21.5 12.12 21.5 13.5C21.5 14.88 22.62 16 24 16C25.38 16 26.5 14.88 26.5 13.5C26.5 12.12 25.38 11 24 11ZM18.5 20C18.5 18.9 19.4 18 20.5 18L24.5 18C25.6 18 26.5 18.9 26.5 20L26.5 33L28 33C29.1 33 30 33.9 30 35C30 36.1 29.1 37 28 37L20 37C18.9 37 18 36.1 18 35C18 33.9 18.9 33 20 33L22.5 33L22.5 22L20.5 22C19.4 22 18.5 21.1 18.5 20Z" fill-rule="evenodd"  fill="#000000" >
</path>
</svg>
