<svg xmlns="http://www.w3.org/2000/svg" xmlns:xlink="http://www.w3.org/1999/xlink" width="48" height="48" viewBox="0 0 48 48" fill="none">
<path d="M38.872 34.851C39.624 32.8612 40 30.7442 40 28.4999C40 25.9311 39.4187 23.2569 38.2562 20.4773C37.3061 18.2057 35.9794 15.8906 34.2762 13.532C32.9465 11.6908 31.4192 9.86522 29.6944 8.05533C28.4973 6.79924 27.2741 5.62044 26.0246 4.51894C25.6668 4.2035 25.2659 3.96372 24.822 3.79959C24.3895 3.63967 23.9424 3.56119 23.4807 3.56417C23.0222 3.56712 22.578 3.65024 22.1483 3.81354C21.7111 3.97968 21.3157 4.21869 20.9622 4.53059C19.7111 5.63426 18.487 6.81476 17.2897 8.07208C15.5664 9.88171 14.0408 11.7068 12.7128 13.5473C11.0125 15.9038 9.68824 18.2169 8.73994 20.4865C7.57998 23.2628 7 25.9339 7 28.4999C7 30.7442 7.376 32.8612 8.128 34.851C8.88855 36.8634 9.98709 38.6238 11.4236 40.1322C12.9027 41.6853 14.6523 42.8778 16.6724 43.7097C18.7609 44.5699 21.0368 44.9999 23.5 44.9999C25.9632 44.9999 28.2391 44.5699 30.3276 43.7097C32.3477 42.8778 34.0973 41.6853 35.5764 40.1322C37.0129 38.6238 38.1115 36.8634 38.872 34.851ZM34.566 22.0207C35.522 24.3066 36 26.4663 36 28.4999C36 30.2571 35.7101 31.9028 35.1303 33.437C34.5607 34.9441 33.7439 36.2564 32.6798 37.3736C31.5919 38.516 30.3 39.3951 28.8043 40.0111C27.2037 40.6703 25.4356 40.9999 23.5 40.9999C21.5644 40.9999 19.7963 40.6703 18.1957 40.0111C16.6999 39.3951 15.4081 38.516 14.3202 37.3736C13.2562 36.2564 12.4393 34.9441 11.8697 33.437C11.2899 31.9028 11 30.2571 11 28.4999C11 26.4687 11.4769 24.3116 12.4307 22.0286C13.2607 20.0422 14.436 17.9953 15.9566 15.8877C17.1784 14.1944 18.5883 12.5087 20.1864 10.8305C21.269 9.69367 22.3735 8.62552 23.5 7.62608C24.6207 8.62037 25.7203 9.68332 26.7987 10.8149C28.3984 12.4934 29.8099 14.1797 31.0334 15.8738C32.5569 17.9834 33.7344 20.0324 34.566 22.0207Z" fill-rule="evenodd"  fill="#787878" >
</path>
<path d="M31.5 30C31.5 28.8954 30.6046 28 29.5 28C28.3954 28 27.5 28.8954 27.5 30C27.5 31.933 25.933 33.5 24 33.5C22.8954 33.5 22 34.3954 22 35.5C22 36.6046 22.8954 37.5 24 37.5C28.1421 37.5 31.5 34.1421 31.5 30Z" fill-rule="evenodd"  fill="#424242" >
</path>
</svg>
