<svg xmlns="http://www.w3.org/2000/svg" xmlns:xlink="http://www.w3.org/1999/xlink" width="48" height="48" viewBox="0 0 48 48" fill="none">
<path d="M7.68271 28.7353C7.21044 27.1448 6.95675 25.4613 6.95675 23.7191C6.95675 13.894 14.9215 5.99999 24.7466 5.99999C28.2335 5.99999 31.4942 7.0072 34.2471 8.74654L35.0492 7.79077C37.268 5.14671 41.2101 4.80197 43.8542 7.02077C46.4983 9.23959 46.843 13.1817 44.6242 15.8258L41.912 19.0579C42.3191 20.5431 42.5366 22.1059 42.5366 23.7191C42.5366 33.5442 34.5717 41.4383 24.7466 41.4383C21.0102 41.4383 17.5335 40.2818 14.663 38.3072L37.3699 11.2482C38.4553 12.3377 39.4003 13.5667 40.1749 14.9056L41.5602 13.2546C42.3589 12.3027 42.2348 10.8835 41.2831 10.0848C40.3312 9.28603 38.9119 9.41011 38.1132 10.362L37.3696 11.248C37.3518 11.2302 37.334 11.2124 37.3162 11.1947C37.3146 11.193 37.313 11.1914 37.3113 11.1898C36.3849 10.2684 35.3574 9.44802 34.2474 8.74667L11.6407 35.6862C11.7397 35.7936 11.8399 35.8997 11.9415 36.0046C11.9892 36.054 12.0373 36.1031 12.0856 36.1519C12.8738 36.9479 13.7367 37.67 14.6627 38.307L13.6868 39.47C11.6456 41.9025 8.01876 42.2197 5.58622 40.1784C3.15369 38.1371 2.83655 34.5103 4.87782 32.0778L7.68271 28.7353ZM11.6405 35.6861L10.6228 36.8988C10.0016 37.6391 8.89777 37.7357 8.15742 37.1144C7.41709 36.4931 7.32056 35.3893 7.94182 34.649L9.48348 32.8119C10.1051 33.8425 10.8288 34.8052 11.6405 35.6861Z" fill-rule="evenodd"  fill="#000000" >
</path>
</svg>
