<svg xmlns="http://www.w3.org/2000/svg" xmlns:xlink="http://www.w3.org/1999/xlink" width="48" height="48" viewBox="0 0 48 48" fill="none">
<path d="M36.19 20.38C34.5 15.5 32.5 28.5 31.5 25C29.86 15.18 25.88 8.03996 24.49 5.76996C24.21 5.41996 23.65 5.49996 23.49 5.91996C17.11 17.06 10 18.32 10 30C10 37.73 16.27 44 24 44C31.73 44 38 37.73 38 30C38 26.46 37.29 23.24 36.19 20.38Z"   fill="#FFC7BF" >
</path>
<path d="M34.9997 38.6599C32.4357 41.9118 28.461 44 24 44C19.539 44 15.5643 41.9118 13.0003 38.6599C13.0204 35.5325 14.0885 32.8578 16.2048 30.6357C18.3544 28.3786 20.9528 27.25 24 27.25C27.0471 27.25 29.6455 28.3786 31.7952 30.6357C33.9115 32.8578 34.9796 35.5325 34.9997 38.6599Z" fill-rule="evenodd"  fill="#FFA096" >
</path>
<path d="M30.391 42.4586C28.4749 43.4438 26.3022 44 24 44C21.6978 44 19.5251 43.4438 17.609 42.4586C17.203 41.253 17 39.9335 17 38.5C17 35.9412 17.6468 33.7455 18.9404 31.9129C20.3112 29.971 21.9977 29 24 29C26.0023 29 27.6888 29.971 29.0596 31.9129C30.3532 33.7455 31 35.9412 31 38.5C31 39.9335 30.797 41.253 30.391 42.4586Z" fill-rule="evenodd"  fill="#FF1A1A" >
</path>
<path d="M24 45.9999C32.8366 45.9999 40 38.8365 40 29.9999C40 26.4849 39.3556 23.0503 38.0669 19.6961C37.6333 18.4627 36.9858 17.698 36.1245 17.4022C34.9775 17.0083 33.9827 17.3788 33.1401 18.5136C32.9358 18.7889 32.7039 19.2018 32.4446 19.7523C31.1443 14.6168 29.1908 9.82311 26.584 5.37114C25.9958 4.36669 25.1225 3.88291 23.9641 3.91981C22.8674 3.95474 22.0371 4.45011 21.4734 5.40591C20.0375 7.84031 17.8986 10.663 15.0567 13.8741C12.6206 16.6267 10.9731 18.8261 10.1141 20.4722C8.70469 23.1732 8 26.3491 8 29.9999C8 38.8365 15.1635 45.9999 24 45.9999ZM35.1612 23.6691C35.7204 25.7473 36 27.8575 36 29.9999C36 36.6273 30.6274 41.9999 24 41.9999C17.3726 41.9999 12 36.6273 12 29.9999C12 27.003 12.5534 24.4439 13.6603 22.3227C14.3683 20.9659 15.8323 19.0333 18.0521 16.525C20.5162 13.7408 22.4965 11.2069 23.9929 8.92326C26.6944 13.9325 28.5392 19.4009 29.5272 25.3287L29.5458 25.4404L29.5769 25.5493C29.908 26.7081 30.544 27.3802 31.4849 27.5655C32.5034 27.7661 33.3392 27.3552 33.9924 26.3326C34.2678 25.9016 34.6574 25.0137 35.1612 23.6691Z" fill-rule="evenodd"  fill="#FF4943" >
</path>
</svg>
