<svg xmlns="http://www.w3.org/2000/svg" xmlns:xlink="http://www.w3.org/1999/xlink" width="48" height="48" viewBox="0 0 48 48" fill="none">
<path d="M4 36C4 40.4183 7.58172 44 12 44L36 44C40.4183 44 44 40.4183 44 36L44 12C44 7.58172 40.4183 4 36 4L12 4C7.58172 4 4 7.58172 4 12L4 36ZM36 40L12 40C9.79086 40 8 38.2091 8 36L8 12C8 9.79086 9.79086 8 12 8L36 8C38.2091 8 40 9.79086 40 12L40 36C40 38.2091 38.2091 40 36 40Z" fill-rule="evenodd"  fill="#787878" >
</path>
<path d="M19 18.5C19 17.1193 17.8807 16 16.5 16C15.1193 16 14 17.1193 14 18.5C14 18.5847 13.9947 18.6681 13.9845 18.75C13.9947 18.8319 14 18.9153 14 19L14 29C14 29.0847 13.9947 29.1681 13.9845 29.25C13.9947 29.3319 14 29.4153 14 29.5C14 30.8807 15.1193 32 16.5 32C17.8807 32 19 30.8807 19 29.5C19 28.3954 19.8954 27.5 21 27.5C22.1046 27.5 23 28.3954 23 29.5C23 33.0898 20.0899 36 16.5 36C12.9102 36 10 33.0898 10 29.5C10 29.4153 10.0053 29.3319 10.0155 29.25C10.0053 29.1681 10 29.0847 10 29L10 19C10 18.9153 10.0053 18.8319 10.0155 18.75C10.0053 18.6681 10 18.5847 10 18.5C10 14.9102 12.9102 12 16.5 12C20.0899 12 23 14.9102 23 18.5C23 19.6046 22.1046 20.5 21 20.5C19.8954 20.5 19 19.6046 19 18.5ZM27 12C28.1046 12 29 12.8954 29 14L29 20.4982C29.7696 20.1772 30.6141 20 31.5 20C34.7122 20 37.3802 22.3301 37.906 25.3922C37.967 25.5839 38 25.7881 38 26L38 34C38 35.1046 37.1046 36 36 36C34.8954 36 34 35.1046 34 34L34 26.5C34 25.1193 32.8807 24 31.5 24C30.1193 24 29 25.1193 29 26.5L29 34C29 35.1046 28.1046 36 27 36C25.8954 36 25 35.1046 25 34L25 14C25 12.8954 25.8954 12 27 12Z" fill-rule="evenodd"  fill="#424242" >
</path>
</svg>
