<svg xmlns="http://www.w3.org/2000/svg" xmlns:xlink="http://www.w3.org/1999/xlink" width="48" height="48" viewBox="0 0 48 48" fill="none">
<path d="M24 45C35.598 45 45 35.598 45 24C45 12.402 35.598 3 24 3C12.402 3 3 12.402 3 24C3 35.598 12.402 45 24 45ZM24 7C33.3888 7 41 14.6112 41 24C41 33.3888 33.3888 41 24 41C14.6112 41 7 33.3888 7 24C7 14.6112 14.6112 7 24 7Z" fill-rule="evenodd"  fill="#787878" >
</path>
<path d="M13.4763 37.3521C12.4264 36.5233 11.4766 35.5735 10.6479 34.5237L34.5237 10.6479C35.5735 11.4766 36.5233 12.4264 37.3521 13.4763L13.4763 37.3521Z" fill-rule="evenodd"  fill="#424242" >
</path>
</svg>
