<svg xmlns="http://www.w3.org/2000/svg" xmlns:xlink="http://www.w3.org/1999/xlink" width="48" height="48" viewBox="0 0 48 48" fill="none">
<path d="M24 3C12.4 3 3 12.4 3 24C3 35.6 12.4 45 24 45C35.6 45 45 35.6 45 24C45 12.4 35.6 3 24 3ZM24 41C33.39 41 41 33.39 41 24C41 14.61 33.39 7 24 7C14.61 7 7 14.61 7 24C7 33.39 14.61 41 24 41ZM32.3226 13.3156C25.5768 16.144 21.5959 18.1733 20.3655 19.4037C18.025 21.7442 18.025 25.5484 20.3655 27.8889C22.706 30.2294 26.5102 30.2294 28.8507 27.8889C30.074 26.6656 32.1104 22.6776 34.9388 15.9318C35.6247 14.2843 33.9701 12.6297 32.3226 13.3156ZM23.1939 22.2321C22.4161 23.0099 22.4161 24.2827 23.1939 25.0605C23.9717 25.8383 25.2445 25.8383 26.0223 25.0605C26.6375 24.4453 27.7123 22.423 29.2537 19.0007C25.8314 20.5421 23.8091 21.6169 23.1939 22.2321Z" fill-rule="evenodd"  fill="#000000" >
</path>
</svg>
