<svg xmlns="http://www.w3.org/2000/svg" xmlns:xlink="http://www.w3.org/1999/xlink" width="48" height="48" viewBox="0 0 48 48" fill="none">
<path d="M30.3622 45L30.7884 45C31.6083 45 32.3951 44.8387 33.1488 44.5162C33.9025 44.1937 34.5624 43.7359 35.1285 43.1429L43.3401 34.5402C43.8728 33.9821 44.2827 33.345 44.5696 32.6289C44.8565 31.9127 45 31.1689 45 30.3974L45 11C45 6.58172 41.4183 3 37 3L11 3C6.58172 3 3 6.58172 3 11L3 37C3 41.4183 6.58172 45 11 45L30.3622 45ZM40.9072 31L35.5 31C33.2909 31 31.5 32.7909 31.5 35L31.5 40.8692C31.5252 40.8596 31.5503 40.8494 31.5752 40.8387C31.8265 40.7312 32.0464 40.5787 32.2351 40.381L40.4467 31.7783C40.6243 31.5923 40.7609 31.3799 40.8565 31.1412C40.8752 31.0945 40.8921 31.0474 40.9072 31Z" fill-rule="evenodd"  fill="#000000" >
</path>
</svg>
