<svg xmlns="http://www.w3.org/2000/svg" xmlns:xlink="http://www.w3.org/1999/xlink" width="48" height="48" viewBox="0 0 48 48" fill="none">
<path d="M8.17296 8.17296C7.80273 8.54319 7.51631 8.96753 7.3137 9.44599C7.10457 9.93986 7 10.4579 7 11L7 37C7 37.5421 7.10457 38.0601 7.31371 38.554C7.51632 39.0325 7.80273 39.4568 8.17296 39.827C8.54319 40.1973 8.96754 40.4837 9.44599 40.6863C9.93985 40.8954 10.4579 41 11 41L27.5 41L27.5 35C27.5 33.9165 27.7101 32.8785 28.1304 31.8862C28.5356 30.9293 29.107 30.0821 29.8445 29.3445C30.5821 28.607 31.4293 28.0356 32.3862 27.6304C33.3785 27.2101 34.4165 27 35.5 27L41 27L41 11C41 10.4579 40.8954 9.93985 40.6863 9.44599C40.4837 8.96754 40.1973 8.54319 39.827 8.17296C39.4568 7.80273 39.0325 7.51631 38.554 7.3137C38.0601 7.10457 37.5421 7 37 7L11 7C10.4579 7 9.93985 7.10457 9.44599 7.31371C8.96753 7.51632 8.54319 7.80273 8.17296 8.17296ZM3.63036 7.8862C3.21012 8.87857 3 9.9165 3 11L3 37C3 38.0835 3.21012 39.1215 3.63036 40.1138C4.03556 41.0707 4.60695 41.9179 5.34454 42.6555C6.08212 43.393 6.92934 43.9644 7.8862 44.3696C8.87856 44.7899 9.91649 45 11 45L31.5 45L31.5 44.9585C32.0663 44.8915 32.6166 44.7434 33.1509 44.5143C33.9066 44.1901 34.5665 43.731 35.1305 43.137L43.3366 34.541C43.8681 33.9871 44.2781 33.352 44.5665 32.6358C44.78 32.1055 44.9147 31.5603 44.9704 31L45 31L45 11C45 9.91649 44.7899 8.87856 44.3696 7.8862C43.9644 6.92934 43.393 6.08212 42.6555 5.34454C41.9179 4.60695 41.0707 4.03556 40.1138 3.63036C39.1215 3.21012 38.0835 3 37 3L11 3C9.9165 3 8.87857 3.21012 7.8862 3.63036C6.92935 4.03556 6.08213 4.60695 5.34454 5.34454C4.60695 6.08213 4.03556 6.92935 3.63036 7.8862ZM40.4434 31.779C40.6227 31.5921 40.7602 31.3797 40.856 31.1417C40.8749 31.0948 40.8919 31.0476 40.9071 31L35.5 31C34.9579 31 34.4399 31.1046 33.946 31.3137C33.4675 31.5163 33.0432 31.8027 32.673 32.173C32.3027 32.5432 32.0163 32.9675 31.8137 33.446C31.6046 33.9399 31.5 34.4579 31.5 35L31.5 40.8683C31.5248 40.8588 31.5495 40.8487 31.5741 40.8382C31.8252 40.7305 32.0437 40.5787 32.2295 40.383L40.4434 31.779Z" fill-rule="evenodd"  fill="#000000" >
</path>
</svg>
