<svg xmlns="http://www.w3.org/2000/svg" xmlns:xlink="http://www.w3.org/1999/xlink" width="48" height="48" viewBox="0 0 48 48" fill="none">
<path d="M33 31.0011C32.37 31.4743 31.7015 31.8991 31 32.2699L31 36L29 36L29 40C29 41.1046 28.1046 42 27 42L21 42C19.8954 42 19 41.1046 19 40L19 36L17 36L17 32.2699C16.2985 31.8991 15.63 31.4743 15 31.0011L15 40C15 43.3137 17.6863 46 21 46L27 46C30.3137 46 33 43.3137 33 40L33 31.0011Z" fill-rule="evenodd"  fill="#424242" >
</path>
<path d="M35.6251 31.404C34.812 32.1663 33.9369 32.84 33 33.4251L33 38L15 38L15 33.4251C14.0631 32.84 13.188 32.1663 12.3749 31.404C11.2636 30.3621 10.3094 29.1936 9.51251 27.8986C8.70222 26.5819 8.08425 25.1824 7.65862 23.7001C7.21954 22.171 7 20.6043 7 19C7 9.61116 14.6112 2 24 2C33.3888 2 41 9.61116 41 19C41 20.6043 40.7805 22.171 40.3414 23.7001C39.9157 25.1824 39.2978 26.5819 38.4875 27.8986C37.6906 29.1936 36.7364 30.3621 35.6251 31.404ZM19 34L29 34L29 32.2699C29 31.5286 29.41 30.8482 30.0653 30.5017C31.0952 29.9574 32.0365 29.2854 32.8893 28.4859C33.7404 27.688 34.4709 26.7934 35.0809 25.8022C35.6999 24.7963 36.1719 23.7276 36.4968 22.5961C36.8323 21.4278 37 20.2291 37 19C37 11.8203 31.1797 6 24 6C16.8203 6 11 11.8203 11 19C11 20.2291 11.1677 21.4278 11.5033 22.5961C11.8282 23.7276 12.3001 24.7963 12.9191 25.8022C13.5291 26.7934 14.2596 27.688 15.1107 28.4859C15.9635 29.2854 16.9048 29.9574 17.9347 30.5017C18.59 30.8482 19 31.5286 19 32.2699L19 34Z" fill-rule="evenodd"  fill="#787878" >
</path>
</svg>
