<svg xmlns="http://www.w3.org/2000/svg" xmlns:xlink="http://www.w3.org/1999/xlink" width="48" height="48" viewBox="0 0 48 48" fill="none">
<path d="M24 45C35.598 45 45 35.598 45 24C45 18.9212 43.1971 14.2635 40.1964 10.632L10.632 40.1964C14.2635 43.1971 18.9212 45 24 45ZM7.80361 37.3679L13.1464 32.0252C13.052 31.7929 13 31.5389 13 31.2727C13 30.1682 13.8954 29.2727 15 29.2727C15.2662 29.2727 15.5202 29.3247 15.7524 29.4191L19.5333 25.6382C17.9617 25.3488 16.648 24.8858 15.5922 24.2491C14.5703 23.6329 13.7949 22.8644 13.2659 21.9435C12.7553 21.0549 12.5 20.0737 12.5 19C12.5 17.8631 12.8755 16.8071 13.6266 15.8322C14.2645 15.0043 15.1365 14.2938 16.2426 13.7009C17.2683 13.1511 18.4425 12.7306 19.7653 12.4394C20.487 12.2805 21.2326 12.1647 22.0021 12.092C22.0007 12.0615 22 12.0308 22 12L22 11C22 9.89543 22.8954 9 24 9C25.1046 9 26 9.89543 26 11L26 12C26 12.0336 25.9992 12.067 25.9975 12.1002C26.909 12.1938 27.789 12.3532 28.6376 12.5782C29.6149 12.8373 30.582 13.1888 31.5389 13.6327L37.3679 7.80361C33.7364 4.8029 29.0788 3 24 3C12.402 3 3 12.402 3 24C3 29.0788 4.8029 33.7364 7.80361 37.3679ZM19.9688 21.6491C20.8945 21.8412 21.9658 21.9544 23.1828 21.9887L28.468 16.7036C28.1831 16.6066 27.8979 16.5203 27.6124 16.4446C26.4947 16.1482 25.2905 16 24 16C22.7975 16 21.6726 16.1153 20.6253 16.3458C19.6634 16.5576 18.8324 16.8511 18.1324 17.2264C17.53 17.5492 17.0843 17.8983 16.7953 18.2734C16.5984 18.529 16.5 18.7711 16.5 19C16.5 19.3622 16.5781 19.6791 16.7341 19.9508C16.9193 20.273 17.2272 20.564 17.6578 20.8237C18.2409 21.1753 19.0112 21.4504 19.9688 21.6491ZM32.513 23.8154L29.5417 26.7867C29.8392 26.9041 30.1061 27.0339 30.3422 27.1763C30.7729 27.436 31.0808 27.727 31.2659 28.0492C31.422 28.3209 31.5 28.6378 31.5 29C31.5 29.2696 31.4083 29.5345 31.2249 29.7946C30.9714 30.1541 30.5722 30.4856 30.0273 30.7889C29.3653 31.1574 28.5541 31.4452 27.5938 31.6524C26.61 31.8647 25.5224 31.9797 24.3309 31.9975L20.6626 35.6658C21.112 35.7546 21.559 35.8257 22.0036 35.8791C22.0012 35.9191 22 35.9594 22 36L22 37C22 38.1046 22.8954 39 24 39C25.1046 39 26 38.1046 26 37L26 36C26 35.973 25.9995 35.9461 25.9984 35.9193C26.8527 35.8478 27.6657 35.7289 28.4374 35.5624C29.7856 35.2715 30.964 34.8454 31.9727 34.2839C33.0493 33.6846 33.8897 32.9566 34.4939 32.0997C35.1646 31.1485 35.5 30.1153 35.5 29C35.5 27.9263 35.2447 26.9451 34.7341 26.0565C34.2234 25.1675 33.483 24.4205 32.513 23.8154Z" fill-rule="evenodd"  fill="#000000" >
</path>
</svg>
