<svg xmlns="http://www.w3.org/2000/svg" xmlns:xlink="http://www.w3.org/1999/xlink" width="48" height="48" viewBox="0 0 48 48" fill="none">
<path d="M10 20.5C6.68629 20.5 4 17.8137 4 14.5L4 12C4 7.58172 7.58172 4 12 4L17 4C20.3137 4 23 6.68629 23 10L23 14.5C23 17.8137 20.3137 20.5 17 20.5L10 20.5ZM31.5 24.5C28.1863 24.5 25.5 21.8137 25.5 18.5L25.5 10C25.5 6.68629 28.1863 4 31.5 4L36 4C40.4183 4 44 7.58172 44 12L44 18.5C44 21.8137 41.3137 24.5 38 24.5L31.5 24.5ZM12 44C7.58172 44 4 40.4183 4 36L4 28.5C4 25.1863 6.68629 22.5 10 22.5L17 22.5C20.3137 22.5 23 25.1863 23 28.5L23 38C23 41.3137 20.3137 44 17 44L12 44ZM31.5 44C28.1863 44 25.5 41.3137 25.5 38L25.5 32.5C25.5 29.1863 28.1863 26.5 31.5 26.5L38 26.5C41.3137 26.5 44 29.1863 44 32.5L44 36C44 40.4183 40.4183 44 36 44L31.5 44Z" fill-rule="evenodd"  fill="#000000" >
</path>
</svg>
