<svg xmlns="http://www.w3.org/2000/svg" xmlns:xlink="http://www.w3.org/1999/xlink" width="48" height="48" viewBox="0 0 48 48" fill="none">
<path d="M45.0005 24.0005C45.0005 35.6005 35.6005 45.0005 24.0005 45.0005C12.4005 45.0005 3.00049 35.6005 3.00049 24.0005C3.00049 12.4005 12.4005 3.00049 24.0005 3.00049C35.6005 3.00049 45.0005 12.4005 45.0005 24.0005ZM7.00049 24.0005C7.00049 14.6105 14.6105 7.00049 24.0005 7.00049C33.3905 7.00049 41.0005 14.6105 41.0005 24.0005C41.0005 33.3905 33.3905 41.0005 24.0005 41.0005C14.6105 41.0005 7.00049 33.3905 7.00049 24.0005ZM19 19.5L19 18.5C19 17.67 18.33 17 17.5 17C16.67 17 16 17.67 16 18.5L16 29.5C16 29.5846 15.9947 29.6681 15.9843 29.75C15.9947 29.8319 16 29.9154 16 30C16 30.83 16.67 31.5 17.5 31.5C18.33 31.5 19 30.83 19 30C19 29.9154 19.0053 29.8319 19.0157 29.75C19.0053 29.6681 19 29.5846 19 29.5L19 28.5C19 27.4 19.9 26.5 21 26.5C22.1 26.5 23 27.4 23 28.5L23 29.5C23 29.5846 22.9947 29.6681 22.9843 29.75C22.9947 29.8319 23 29.9154 23 30C23 33.04 20.54 35.5 17.5 35.5C14.46 35.5 12 33.04 12 30C12 29.9154 12.0053 29.8319 12.0156 29.75C12.0053 29.6681 12 29.5846 12 29.5L12 18.5C12 15.46 14.46 13 17.5 13C20.54 13 23 15.46 23 18.5L23 19.5C23 20.6 22.1 21.5 21 21.5C19.9 21.5 19 20.6 19 19.5ZM32 18.5C32 17.67 31.33 17 30.5 17C29.67 17 29 17.67 29 18.5L29 29.5C29 29.5846 28.9947 29.6681 28.9843 29.75C28.9947 29.8319 29 29.9154 29 30C29 30.83 29.67 31.5 30.5 31.5C31.33 31.5 32 30.83 32 30C32 29.9154 32.0053 29.8319 32.0157 29.75C32.0053 29.6681 32 29.5846 32 29.5L32 28.5C32 27.4 32.9 26.5 34 26.5C35.1 26.5 36 27.4 36 28.5L36 29.5C36 29.5846 35.9947 29.6681 35.9843 29.75C35.9947 29.8319 36 29.9154 36 30C36 33.04 33.54 35.5 30.5 35.5C27.46 35.5 25 33.04 25 30C25 29.9154 25.0053 29.8319 25.0157 29.75C25.0053 29.6681 25 29.5846 25 29.5L25 18.5C25 15.46 27.46 13 30.5 13C33.54 13 36 15.46 36 18.5L36 19.5C36 20.6 35.1 21.5 34 21.5C32.9 21.5 32 20.6 32 19.5L32 18.5Z" fill-rule="evenodd"  fill="#000000" >
</path>
</svg>
