<svg xmlns="http://www.w3.org/2000/svg" xmlns:xlink="http://www.w3.org/1999/xlink" width="48" height="48" viewBox="0 0 48 48" fill="none">
<path d="M24 26C28.4183 26 32 22.4183 32 18C32 13.5817 28.4183 10 24 10C19.5817 10 16 13.5817 16 18C16 22.4183 19.5817 26 24 26ZM24 14C26.2091 14 28 15.7909 28 18C28 20.2091 26.2091 22 24 22C21.7909 22 20 20.2091 20 18C20 15.7909 21.7909 14 24 14Z" fill-rule="evenodd"  fill="#424242" >
</path>
<path d="M24.0003 2.99999C12.4021 2.99999 2.99999 12.4021 2.99999 24.0003C2.99999 35.5984 12.4021 45.0005 24.0003 45.0005C35.5984 45.0005 45.0005 35.5984 45.0005 24.0003C45.0005 12.4021 35.5984 2.99999 24.0003 2.99999ZM24.0003 41.0005C14.6113 41.0005 6.99999 33.3892 6.99999 24.0003C6.99999 14.6113 14.6113 6.99999 24.0003 6.99999C33.3892 6.99999 41.0005 14.6113 41.0005 24.0003C41.0005 33.3892 33.3892 41.0005 24.0003 41.0005Z" fill-rule="evenodd"  fill="#787878" >
</path>
<path d="M33.0401 38.4005C33.0139 38.2711 33.0001 38.1371 33.0001 38L33.0001 36C33.0001 33.7909 31.2092 32 29.0001 32L18.0001 32C15.7909 32 14.0001 33.7909 14.0001 36L14.0001 37.7496C12.564 36.7033 11.2981 35.4375 10.2517 34.0015C11.1393 30.5503 14.2718 28 18.0001 28L29.0001 28C33.0884 28 36.4604 31.0667 36.9413 35.0253C35.8219 36.3378 34.5065 37.478 33.0401 38.4005Z" fill-rule="evenodd"  fill="#424242" >
</path>
</svg>
