<svg xmlns="http://www.w3.org/2000/svg" xmlns:xlink="http://www.w3.org/1999/xlink" width="48" height="48" viewBox="0 0 48 48" fill="none">
<path d="M45.0005 24.0005C45.0005 35.6005 35.6005 45.0005 24.0005 45.0005C12.4005 45.0005 3.00049 35.6005 3.00049 24.0005C3.00049 12.4005 12.4005 3.00049 24.0005 3.00049C35.6005 3.00049 45.0005 12.4005 45.0005 24.0005ZM7.00049 24.0005C7.00049 14.6105 14.6105 7.00049 24.0005 7.00049C33.3905 7.00049 41.0005 14.6105 41.0005 24.0005C41.0005 28.1753 39.4962 31.9983 37 34.9571L37 34C37 30.69 34.31 28 31 28L16 28C12.8038 28 10.1857 30.5082 10.0094 33.6608C8.11195 30.9176 7.00049 27.5891 7.00049 24.0005ZM24 9.99999C19.58 9.99999 16 13.58 16 18C16 22.42 19.58 26 24 26C28.42 26 32 22.42 32 18C32 13.58 28.42 9.99999 24 9.99999ZM24 22C26.21 22 28 20.21 28 18C28 15.79 26.21 14 24 14C21.79 14 20 15.79 20 18C20 20.21 21.79 22 24 22ZM33 38C33 38.1372 33.014 38.2712 33.0406 38.4008C30.4222 40.0479 27.3228 41.0005 24.0005 41.0005C20.2623 41.0005 16.8062 39.7944 14 37.75L14 34C14 32.9 14.9 32 16 32L31 32C32.1 32 33 32.9 33 34L33 38Z" fill-rule="evenodd"  fill="#000000" >
</path>
</svg>
