<svg xmlns="http://www.w3.org/2000/svg" xmlns:xlink="http://www.w3.org/1999/xlink" width="48" height="48" viewBox="0 0 48 48" fill="none">
<path d="M24 5C13.51 5 5 13.51 5 24C5 34.49 13.51 43 24 43C34.49 43 43 34.49 43 24C43 13.51 34.49 5 24 5Z"   fill="#BEDCFF" >
</path>
<path d="M24 45C35.598 45 45 35.598 45 24C45 12.402 35.598 3 24 3C12.402 3 3 12.402 3 24C3 35.598 12.402 45 24 45ZM24 7C33.3888 7 41 14.6112 41 24C41 33.3888 33.3888 41 24 41C14.6112 41 7 33.3888 7 24C7 14.6112 14.6112 7 24 7Z" fill-rule="evenodd"  fill="#6BA6FF" >
</path>
<path d="M17.8436 12.8985C15.9479 14.6186 15 16.7428 15 19.2713C15 20.3759 15.8954 21.2713 17 21.2713C18.1046 21.2713 19 20.3759 19 19.2713C19 17.924 19.5105 16.7872 20.5314 15.8609C21.5314 14.9536 22.6876 14.5 24 14.5C25.3125 14.5 26.4687 14.9536 27.4686 15.8609C28.4895 16.7872 29 17.924 29 19.2713C29 21.6873 27.8254 23.2018 25.4763 23.8149C23.1588 24.4197 22 25.8147 22 28L22 28.5C22 29.6046 22.8954 30.5 24 30.5C25.1046 30.5 26 29.6046 26 28.5L26 28C26 27.8748 26.1621 27.7699 26.4864 27.6853C30.8288 26.552 33 23.7473 33 19.2713C33 16.7428 32.0521 14.6186 30.1564 12.8985C28.3941 11.2995 26.3419 10.5 24 10.5C21.6581 10.5 19.606 11.2995 17.8436 12.8985ZM21.5 34.5C21.5 33.12 22.62 32 24 32C25.38 32 26.5 33.12 26.5 34.5C26.5 35.88 25.38 37 24 37C22.62 37 21.5 35.88 21.5 34.5Z" fill-rule="evenodd"  fill="#1764FF" >
</path>
</svg>
