<svg xmlns="http://www.w3.org/2000/svg" xmlns:xlink="http://www.w3.org/1999/xlink" width="48" height="48" viewBox="0 0 48 48" fill="none">
<path d="M44 36C44 40.42 40.42 44 36 44L12 44C7.58 44 4 40.42 4 36L4 12C4 7.58 7.58 4 12 4L36 4C40.42 4 44 7.58 44 12L44 36ZM40 12L40 36C40 38.21 38.21 40 36 40L12 40C9.79 40 8 38.21 8 36L8 12C8 9.79 9.79 8 12 8L36 8C38.21 8 40 9.79 40 12ZM26 36C26 37.1 25.1 38 24 38C22.9 38 22 37.1 22 36L22 29L14 29C11.79 29 10 27.21 10 25L10 19C10 16.79 11.79 15 14 15L22 15L22 12C22 10.9 22.9 10 24 10C25.1 10 26 10.9 26 12L26 15L34 15C36.21 15 38 16.79 38 19L38 25C38 27.21 36.21 29 34 29L26 29L26 36ZM26 25L34 25L34 19L26 19L26 25ZM22 19L14 19L14 25L22 25L22 19Z" fill-rule="evenodd"  fill="#000000" >
</path>
</svg>
