<svg xmlns="http://www.w3.org/2000/svg" xmlns:xlink="http://www.w3.org/1999/xlink" width="48" height="48" viewBox="0 0 48 48" fill="none">
<path d="M31.3616 41.3625L43.3087 11.1806C44.9203 7.10921 40.8908 3.07976 36.8194 4.69137L6.63747 16.6384C1.24378 18.7733 1.71821 26.5586 7.33117 28.0229L17.3607 30.6393L19.9771 40.6688C21.4414 46.2818 29.2267 46.7562 31.3616 41.3625ZM20.9352 28.4952L23.8476 39.6591C24.3357 41.5301 26.9308 41.6882 27.6424 39.8904L39.5894 9.70845C39.9118 8.89416 39.1059 8.08827 38.2916 8.41059L8.10957 20.3576C6.31177 21.0692 6.46987 23.6643 8.34087 24.1524L19.5048 27.0648C19.8543 27.1576 20.1574 27.3313 20.4142 27.5858C20.6687 27.8426 20.8424 28.1457 20.9352 28.4952Z" fill-rule="evenodd"  fill="#000000" >
</path>
</svg>
