<svg xmlns="http://www.w3.org/2000/svg" xmlns:xlink="http://www.w3.org/1999/xlink" width="48" height="48" viewBox="0 0 48 48" fill="none">
<path d="M39.66 17.39C40.55 19.49 41 21.69 41 24C41 26.31 40.55 28.51 39.66 30.61C38.8 32.65 37.59 34.45 36.02 36.02C34.45 37.59 32.65 38.8 30.61 39.66C28.51 40.55 26.31 41 24 41C21.69 41 19.49 40.55 17.39 39.66C15.9683 39.0607 14.6632 38.2914 13.4713 37.3487L37.3487 13.4713C38.2914 14.6632 39.0607 15.9683 39.66 17.39ZM8.34 30.61C7.45 28.51 7 26.31 7 24C7 21.69 7.45 19.49 8.34 17.39C9.2 15.35 10.41 13.55 11.98 11.98C13.55 10.41 15.35 9.2 17.39 8.34C19.49 7.45 21.69 7 24 7C26.31 7 28.51 7.45 30.61 8.34C32.0294 8.93839 33.3327 9.70623 34.5231 10.6469L10.6469 34.5231C9.70623 33.3327 8.93839 32.0294 8.34 30.61ZM38.85 38.85C36.91 40.79 34.69 42.29 32.17 43.35C29.57 44.45 26.85 45 24 45C21.15 45 18.43 44.45 15.83 43.35C13.31 42.29 11.09 40.79 9.15 38.85C7.21 36.91 5.71 34.69 4.65 32.17C3.55 29.57 3 26.85 3 24C3 21.15 3.55 18.43 4.65 15.83C5.71 13.31 7.21 11.09 9.15 9.15C11.09 7.21 13.31 5.71 15.83 4.65C18.43 3.55 21.15 3 24 3C26.85 3 29.57 3.55 32.17 4.65C34.69 5.71 36.91 7.21 38.85 9.15C40.79 11.09 42.29 13.31 43.35 15.83C44.45 18.43 45 21.15 45 24C45 26.85 44.45 29.57 43.35 32.17C42.29 34.69 40.79 36.91 38.85 38.85ZM11.2963 35.2963L12.7037 36.7037C12.7111 36.7103 12.7185 36.7169 12.7258 36.7234L11.2357 35.228C11.2558 35.2508 11.276 35.2736 11.2963 35.2963Z" fill-rule="evenodd"  fill="#000000" >
</path>
</svg>
