<svg xmlns="http://www.w3.org/2000/svg" xmlns:xlink="http://www.w3.org/1999/xlink" width="48" height="48" viewBox="0 0 48 48" fill="none">
<path d="M14 13.8831L14 19.0909C14 20.1954 14.8954 21.0909 16 21.0909C17.1046 21.0909 18 20.1954 18 19.0909L18 13.8831C18 10.1277 21.0444 7 24.7998 7C28.6012 7 31.6001 10.0817 31.6001 13.8831L31.6001 13.8831L31.6 19.0908L31.6 19.0909C31.6 20.1954 32.4954 21.0909 33.6 21.0909C34.7046 21.0909 35.6 20.1955 35.6 19.0909L35.6 19.0909L35.6001 13.8832L35.6001 13.8831C35.6001 7.87254 30.8104 3 24.7998 3C18.8352 3 14 7.91855 14 13.8831L14 13.8831Z" fill-rule="evenodd"  fill="#787878" >
</path>
<path d="M7 34C7 35.1046 7.89543 36 9 36L23.3516 36C24.4561 36 25.3516 35.1046 25.3516 34C25.3516 32.8954 24.4561 32 23.3516 32L9 32C7.89543 32 7 32.8954 7 34Z" fill-rule="evenodd"  fill="#424242" >
</path>
<path d="M27.4756 34C27.4756 35.1046 28.371 36 29.4756 36L40 36C41.1046 36 42 35.1046 42 34C42 32.8954 41.1046 32 40 32L29.4756 32C28.371 32 27.4756 32.8954 27.4756 34Z" fill-rule="evenodd"  fill="#787878" >
</path>
<path d="M21.668 42C21.668 43.1046 22.5634 44 23.668 44L40 44C41.1046 44 42 43.1046 42 42C42 40.8954 41.1046 40 40 40L23.668 40C22.5634 40 21.668 40.8954 21.668 42Z" fill-rule="evenodd"  fill="#424242" >
</path>
<path d="M7 42C7 43.1046 7.89543 44 9 44L17.4678 44C18.5723 44 19.4678 43.1046 19.4678 42C19.4678 40.8954 18.5723 40 17.4678 40L9 40C7.89543 40 7 40.8954 7 42Z" fill-rule="evenodd"  fill="#787878" >
</path>
<path d="M7 26C7 27.1046 7.89543 28 9 28L28.1357 28C29.2403 28 30.1357 27.1046 30.1357 26C30.1357 24.8954 29.2403 24 28.1357 24L9 24C7.89543 24 7 24.8954 7 26Z" fill-rule="evenodd"  fill="#424242" >
</path>
<path d="M32.2593 26C32.2593 27.1046 33.1547 28 34.2593 28L40 28C41.1046 28 42 27.1046 42 26C42 24.8954 41.1046 24 40 24L34.2593 24C33.1547 24 32.2593 24.8954 32.2593 26Z" fill-rule="evenodd"  fill="#787878" >
</path>
</svg>
