<svg xmlns="http://www.w3.org/2000/svg" xmlns:xlink="http://www.w3.org/1999/xlink" width="48" height="48" viewBox="0 0 48 48" fill="none">
<path d="M39.9739 7.01672C40.0069 6.55513 40.0144 6.1757 39.9963 5.87842L36.0036 6.12159C36.011 6.24265 36.0045 6.44592 35.9841 6.7314C35.9385 7.36908 35.8299 8.04552 35.6582 8.76073C35.4128 9.78326 35.0555 10.8026 34.5863 11.8189C33.993 13.1041 33.2373 14.3456 32.3193 15.5434L32.3192 15.5436C31.2719 16.9105 30.2557 18.1095 29.2707 19.1406C28.7203 19.7167 28.0606 20.352 27.2917 21.0463C26.7742 21.5137 26.4227 21.8572 26.2372 22.0768C25.7328 22.6742 25.4806 23.3153 25.4806 24C25.4806 24.7261 25.773 25.3864 26.3576 25.9811C26.5553 26.182 26.9177 26.4854 27.4448 26.8913C27.8556 27.2076 28.1845 27.4678 28.4316 27.6719C28.854 28.0207 29.2646 28.3846 29.6634 28.7637C30.7522 29.7984 31.8433 31.0293 32.9365 32.4564L32.9367 32.4566C33.8391 33.634 34.5524 34.8523 35.0767 36.1116C35.4894 37.1027 35.7763 38.0961 35.9373 39.0919C36.0498 39.7869 36.0962 40.4437 36.0765 41.0624C36.0708 41.2426 36.0598 41.4052 36.0435 41.5502C36.0393 41.588 36.0351 41.6204 36.0311 41.6475C36.0305 41.652 36.03 41.6551 36.0297 41.6566C36.0305 41.6521 36.0315 41.646 36.0329 41.6383L39.967 42.3617C40.0236 42.054 40.0594 41.6632 40.0744 41.1895C40.1023 40.314 40.0395 39.4018 39.886 38.4531C39.6748 37.1477 39.3026 35.8547 38.7694 34.574C38.1114 32.9938 37.2255 31.477 36.1117 30.0236L36.1116 30.0234C34.8907 28.4299 33.6598 27.0436 32.419 25.8643C31.9528 25.4212 31.4728 24.9957 30.9788 24.5877C30.7448 24.3944 30.4541 24.163 30.1068 23.8934C30.8923 23.1795 31.5777 22.5163 32.1629 21.9037C33.2483 20.7678 34.3587 19.4587 35.4942 17.9766L35.4944 17.9764C36.5926 16.5434 37.5004 15.0498 38.218 13.4955C38.7976 12.2401 39.2409 10.973 39.5477 9.69427C39.7706 8.76574 39.9127 7.87322 39.9739 7.01672ZM8.0597 40.9231C8.01306 41.3805 7.99336 41.7559 8.0006 42.0493L11.9994 41.9507C11.9963 41.8258 12.0095 41.6185 12.0391 41.3288C12.1047 40.6851 12.2324 40.0026 12.4221 39.2813C12.6932 38.2511 13.0717 37.2243 13.5579 36.201C14.1719 34.9083 14.9401 33.6602 15.8625 32.4566L15.8627 32.4563C16.8888 31.117 17.8903 29.935 18.8673 28.9103C19.4148 28.336 20.0759 27.6967 20.8506 26.9923C21.3786 26.5123 21.7366 26.1609 21.9248 25.9382C22.4366 25.3325 22.6924 24.6865 22.6924 24C22.6924 23.3268 22.4512 22.685 21.9686 22.0746C21.7836 21.8406 21.423 21.4617 20.8867 20.9379C20.1539 20.222 19.5267 19.5787 19.0053 19.008C18.078 17.9929 17.1185 16.8381 16.1269 15.5437L16.1267 15.5434C15.1981 14.3317 14.4117 13.0745 13.7676 11.7719C13.2566 10.7386 12.8468 9.70145 12.538 8.66046C12.3213 7.9302 12.1653 7.23875 12.0698 6.58611C12.0265 6.28973 12.0029 6.07573 11.9992 5.94411L8.00078 6.05589L8.00078 6.05615C8.00887 6.34408 8.04592 6.71371 8.11193 7.16503C8.23507 8.00685 8.43214 8.88453 8.70315 9.79808C9.0769 11.058 9.56984 12.3069 10.182 13.5448C10.9415 15.0808 11.8647 16.558 12.9516 17.9763L12.9518 17.9766C14.0135 19.3625 15.047 20.6055 16.0521 21.7058C16.6247 22.3325 17.3045 23.0304 18.0917 23.7993C18.1466 23.853 18.1987 23.904 18.2479 23.9524C18.2192 23.9786 18.1898 24.0054 18.1597 24.0328C17.3146 24.8011 16.5855 25.5069 15.9723 26.15C14.896 27.2788 13.8011 28.5699 12.6876 30.0234L12.6874 30.0237C11.5938 31.4508 10.6796 32.9378 9.94477 34.4847C9.3518 35.733 8.88813 36.9926 8.55375 38.2637C8.3111 39.1861 8.14641 40.0726 8.0597 40.9231Z" fill-rule="evenodd"  fill="#787878" >
</path>
<path d="M3.75005 6.00098C3.75008 7.10555 4.64554 8.00095 5.75011 8.00092L42.2501 7.99995C43.3547 7.99992 44.2501 7.10446 44.2501 5.99989C44.25 4.89532 43.3546 3.99992 42.25 3.99995L5.75 4.00092C4.64543 4.00095 3.75002 4.89641 3.75005 6.00098Z" fill-rule="evenodd"  fill="#424242" >
</path>
<path d="M3.75005 42.001C3.75008 43.1055 4.64554 44.001 5.75011 44.0009L42.2501 43.9999C43.3547 43.9999 44.2501 43.1045 44.2501 41.9999C44.25 40.8953 43.3546 39.9999 42.25 39.9999L5.75 40.0009C4.64543 40.001 3.75002 40.8964 3.75005 42.001Z" fill-rule="evenodd"  fill="#424242" >
</path>
</svg>
