<svg xmlns="http://www.w3.org/2000/svg" xmlns:xlink="http://www.w3.org/1999/xlink" width="48" height="48" viewBox="0 0 48 48" fill="none">
<path     fill="#FA9E14"  d="M21 44L27 44C29.21 44 31 42.21 31 40L31 31C31 29.9 30.1 29 29 29L19 29C17.9 29 17 29.9 17 31L17 40C17 42.21 18.79 44 21 44Z">
</path>
<path d="M15 40C15 43.3137 17.6863 46 21 46L27 46C30.3137 46 33 43.3137 33 40L33 31C33 28.7909 31.2091 27 29 27L19 27C16.7909 27 15 28.7909 15 31L15 40ZM27 42L21 42C19.8954 42 19 41.1046 19 40L19 31L29 31L29 40C29 41.1046 28.1046 42 27 42Z" fill-rule="evenodd"  fill="#FA9E14" >
</path>
<path d="M31 32.2699C35.7578 29.7549 39 24.7561 39 19C39 10.7157 32.2843 4 24 4C15.7157 4 9 10.7157 9 19C9 24.7561 12.2422 29.7549 17 32.2699L17 36L31 36L31 32.2699Z" fill-rule="evenodd"  fill="#FCCB68" >
</path>
<path d="M29 32L29 36L33 36L33 33.157C33.9313 32.5801 34.7984 31.9252 35.6015 31.1923C36.718 30.1734 37.674 29.037 38.4695 27.7833C39.287 26.495 39.9094 25.1225 40.3368 23.6658C40.7789 22.1593 41 20.604 41 19C41 9.61116 33.3888 2 24 2C14.6112 2 7 9.61116 7 19C7 20.604 7.22105 22.1593 7.66316 23.6658C8.09062 25.1225 8.71307 26.495 9.53053 27.7833C10.326 29.037 11.282 30.1734 12.3985 31.1923C13.2016 31.9252 14.0688 32.5802 15.0001 33.1571L15.0002 36.0001L19.0002 35.9999L19 31.9999C18.9982 31.6302 18.9028 31.2865 18.7137 30.9689C18.5216 30.653 18.2627 30.4078 17.9369 30.233C16.8936 29.6798 15.9463 29.0147 15.0949 28.2377C14.2416 27.459 13.5126 26.5932 12.908 25.6403C12.2919 24.6692 11.823 23.6356 11.5013 22.5395C11.1671 21.4006 11 20.2208 11 19C11 11.8203 16.8203 6 24 6C31.1797 6 37 11.8203 37 19C37 20.2208 36.8329 21.4006 36.4987 22.5395C36.177 23.6356 35.7081 24.6692 35.092 25.6403C34.4874 26.5932 33.7584 27.459 32.9051 28.2377C32.0537 29.0147 31.1064 29.6798 30.0631 30.233C29.7373 30.4078 29.4784 30.6531 29.2863 30.9689C29.0972 31.2866 29.0018 31.6303 29 32Z" fill-rule="evenodd"  fill="#FBB63E" >
</path>
</svg>
