<svg xmlns="http://www.w3.org/2000/svg" xmlns:xlink="http://www.w3.org/1999/xlink" width="48" height="48" viewBox="0 0 48 48" fill="none">
<path d="M19.3471 10.7353C19.0102 11.2119 18.7123 11.7085 18.4533 12.2251C17.8268 12.1417 17.1957 12.1 16.56 12.1C14.5776 12.1 12.681 12.4949 10.8701 13.2847C9.12634 14.0453 7.58351 15.1176 6.24163 16.5015C4.90416 17.8809 3.86899 19.4642 3.13612 21.2513C2.37871 23.0982 2 25.0311 2 27.05C2 29.0689 2.3787 31.0018 3.13611 32.8487C3.86898 34.6358 4.90416 36.2191 6.24163 37.5985C7.58351 38.9824 9.12634 40.0547 10.8701 40.8152C12.681 41.6051 14.5776 42 16.56 42L34 42C35.6308 42 37.1917 41.6788 38.6827 41.0363C40.1195 40.4172 41.391 39.5442 42.4972 38.4173C43.6011 37.2929 44.4556 36.0019 45.0608 34.5443C45.6869 33.0364 46 31.4583 46 29.81C46 28.5072 45.8017 27.2442 45.405 26.021C45.0184 24.829 44.4599 23.7244 43.7296 22.7073C43.005 21.6981 42.1443 20.8209 41.1475 20.0758C40.6104 19.6743 40.0466 19.3208 39.4563 19.0154C39.5188 18.5203 39.55 18.0219 39.55 17.52C39.55 15.9671 39.2609 14.4803 38.6826 13.0595C38.1223 11.6828 37.3304 10.4631 36.3069 9.4002C35.2781 8.33188 34.0943 7.50395 32.7554 6.9164C31.3633 6.30547 29.9048 6 28.38 6C27.1607 6 25.9775 6.19776 24.8303 6.59328C23.723 6.97507 22.698 7.5239 21.7554 8.23977C20.8279 8.94418 20.0251 9.77604 19.3471 10.7353ZM24.1746 11.4252C24.7772 10.9676 25.4304 10.6175 26.1341 10.3748C26.8589 10.1249 27.6075 10 28.38 10C29.3454 10 30.2681 10.1931 31.148 10.5792C32.0037 10.9547 32.7629 11.4866 33.4256 12.1748C34.0934 12.8682 34.6108 13.6657 34.9777 14.5674C35.3592 15.5048 35.55 16.489 35.55 17.52C35.55 18.2469 35.4512 18.9643 35.2536 19.6724L34.7481 21.4839L36.5251 22.0998C37.3319 22.3793 38.0744 22.7726 38.7525 23.2795C39.4198 23.7784 39.9957 24.3653 40.4804 25.0402C40.9684 25.7199 41.3416 26.4581 41.6 27.2549C41.8667 28.0771 42 28.9288 42 29.81C42 30.9267 41.7889 31.9935 41.3666 33.0104C40.9595 33.991 40.3849 34.8593 39.6428 35.6152C38.9034 36.3683 38.0557 36.9509 37.0998 37.3628C36.1139 37.7876 35.0807 38 34 38L16.56 38C15.1339 38 13.7703 37.7163 12.4693 37.1488C11.2077 36.5985 10.0891 35.8203 9.11337 34.814C8.13366 33.8036 7.37488 32.6426 6.83701 31.331C6.279 29.9703 6 28.5433 6 27.05C6 25.5567 6.279 24.1297 6.83701 22.769C7.37488 21.4574 8.13366 20.2964 9.11337 19.286C10.0891 18.2797 11.2077 17.5014 12.4693 16.9512C13.7703 16.3837 15.1339 16.1 16.56 16.1C17.4439 16.1 18.3161 16.2119 19.1767 16.4356L21.008 16.9118L21.5848 15.1097C21.8228 14.3662 22.1657 13.6777 22.6135 13.0441C23.0542 12.4205 23.5746 11.8809 24.1746 11.4252Z" fill-rule="evenodd"  fill="#000000" >
</path>
</svg>
