<svg xmlns="http://www.w3.org/2000/svg" xmlns:xlink="http://www.w3.org/1999/xlink" width="48" height="48" viewBox="0 0 48 48" fill="none">
<path d="M24 45C35.598 45 45 35.598 45 24C45 12.402 35.598 3 24 3C12.402 3 3 12.402 3 24C3 35.598 12.402 45 24 45ZM24 7C33.3888 7 41 14.6112 41 24C41 33.3888 33.3888 41 24 41C14.6112 41 7 33.3888 7 24C7 14.6112 14.6112 7 24 7Z" fill-rule="evenodd"  fill="#787878" >
</path>
<path d="M17 15C15.8954 15 15 15.8954 15 17C15 18.1046 15.8954 19 17 19L26.1716 19L15.5858 29.5858C15.0005 30.2247 14.856 30.9512 15.1522 31.7654C15.5185 32.5506 16.1344 32.9621 17 33L31 33C32.1046 33 33 32.1046 33 31C33 29.8954 32.1046 29 31 29L21.8284 29L32.4142 18.4142C32.9995 17.7754 33.144 17.0488 32.8478 16.2346C32.4815 15.4494 31.8656 15.0379 31 15L17 15Z" fill-rule="evenodd"  fill="#424242" >
</path>
</svg>
