<svg xmlns="http://www.w3.org/2000/svg" xmlns:xlink="http://www.w3.org/1999/xlink" width="48" height="48" viewBox="0 0 48 48" fill="none">
<path d="M4 36C4 40.4183 7.58172 44 12 44L36 44C40.4183 44 44 40.4183 44 36L44 12C44 7.58172 40.4183 4 36 4L12 4C7.58172 4 4 7.58172 4 12L4 36ZM36 40L12 40C9.79086 40 8 38.2091 8 36L8 12C8 9.79086 9.79086 8 12 8L36 8C38.2091 8 40 9.79086 40 12L40 36C40 38.2091 38.2091 40 36 40Z" fill-rule="evenodd"  fill="#787878" >
</path>
<path d="M21 36L14 36C11.7909 36 10 34.2091 10 32L10 16C10 13.7909 11.7909 12 14 12L21 12C22.1046 12 23 12.8954 23 14C23 15.1046 22.1046 16 21 16L14 16L14 22L20 22C21.1046 22 22 22.8954 22 24C22 25.1046 21.1046 26 20 26L14 26L14 32L21 32C22.1046 32 23 32.8954 23 34C23 35.1046 22.1046 36 21 36ZM27 20C27.6154 20 28.1659 20.278 28.5328 20.7152C29.4224 20.258 30.431 20 31.5 20C34.7122 20 37.3802 22.3301 37.906 25.3922C37.967 25.5839 38 25.7881 38 26L38 34C38 35.1046 37.1046 36 36 36C34.8954 36 34 35.1046 34 34L34 26.5C34 25.1193 32.8807 24 31.5 24C30.1193 24 29 25.1193 29 26.5L29 34C29 35.1046 28.1046 36 27 36C25.8954 36 25 35.1046 25 34L25 22C25 20.8954 25.8954 20 27 20Z" fill-rule="evenodd"  fill="#424242" >
</path>
</svg>
