<svg xmlns="http://www.w3.org/2000/svg" xmlns:xlink="http://www.w3.org/1999/xlink" width="48" height="48" viewBox="0 0 48 48" fill="none">
<path d="M26.4296 44.449C28.5479 43.9423 30.5178 43.096 32.3391 41.9101C33.0273 41.462 33.5609 40.8843 33.94 40.1768C34.2945 39.5151 34.4823 38.799 34.5036 38.0285C34.5236 37.3025 34.3936 36.594 34.1134 35.9032C33.8322 35.2094 33.4238 34.5948 32.8885 34.0595L13.9412 15.1122C13.4035 14.5746 12.7848 14.166 12.085 13.8865C11.3918 13.6097 10.6807 13.4836 9.95175 13.5081C9.18146 13.534 8.46587 13.7253 7.80497 14.082C7.0975 14.4638 6.52053 14.9988 6.07407 15.6869C4.89267 17.5077 4.05018 19.4762 3.5466 21.5924C3.0531 23.6663 2.91213 25.7655 3.12368 27.89C3.33709 30.0334 3.89718 32.0773 4.80394 34.0216C5.74236 36.0339 7.00309 37.8316 8.58611 39.4146C10.1709 40.9994 11.9708 42.2612 13.9858 43.2C15.9326 44.1069 17.9791 44.6664 20.1251 44.8784C22.2523 45.0886 24.3538 44.9455 26.4296 44.449ZM30.5051 37.9182C30.4974 38.1985 30.3812 38.4118 30.1566 38.558C28.7216 39.4924 27.1691 40.1593 25.4991 40.5587C23.8595 40.9509 22.1993 41.0639 20.5184 40.8978C18.8245 40.7304 17.21 40.2892 15.6749 39.5741C14.0866 38.8341 12.6665 37.8381 11.4145 36.5862C10.1639 35.3356 9.16879 33.9172 8.42906 32.331C7.71411 30.798 7.27241 29.1856 7.10395 27.4937C6.93681 25.8149 7.04813 24.1565 7.43794 22.5184C7.83494 20.8501 8.49884 19.2987 9.42965 17.8641C9.57829 17.635 9.79712 17.5156 10.0861 17.5059C10.2561 17.5001 10.4279 17.532 10.6016 17.6013C10.7923 17.6775 10.9627 17.7906 11.1128 17.9406L30.06 36.8879C30.213 37.0409 30.3285 37.2137 30.4066 37.4062C30.4769 37.5797 30.5098 37.7503 30.5051 37.9182Z" fill-rule="evenodd"  fill="#787878" >
</path>
<path d="M35.5858 29.5857C34.8047 30.3668 34.8047 31.6331 35.5858 32.4142C36.3668 33.1952 37.6332 33.1952 38.4142 32.4142C44.7173 26.1111 44.7173 15.8918 38.4142 9.58875C32.1111 3.28567 21.8919 3.28569 15.5888 9.58875C14.8078 10.3698 14.8077 11.6361 15.5888 12.4172C16.3699 13.1982 17.6362 13.1982 18.4172 12.4172C23.1582 7.67621 30.8448 7.67624 35.5858 12.4172C40.3268 17.1581 40.3268 24.8448 35.5858 29.5857Z" fill-rule="evenodd"  fill="#787878" >
</path>
<path d="M29.5858 23.5857C28.8047 24.3668 28.8047 25.6331 29.5858 26.4142C30.3668 27.1952 31.6332 27.1952 32.4142 26.4142C35.4041 23.4243 35.404 18.5768 32.4142 15.5869C29.4243 12.5971 24.5769 12.5971 21.587 15.5869C20.8059 16.368 20.8059 17.6343 21.587 18.4154C22.3681 19.1964 23.6344 19.1964 24.4154 18.4153C25.8432 16.9876 28.158 16.9876 29.5858 18.4154C31.0135 19.8431 31.0135 22.158 29.5858 23.5857Z" fill-rule="evenodd"  fill="#424242" >
</path>
</svg>
