<svg xmlns="http://www.w3.org/2000/svg" xmlns:xlink="http://www.w3.org/1999/xlink" width="48" height="48" viewBox="0 0 48 48" fill="none">
<path d="M4 36C4 40.4183 7.58172 44 12 44L36 44C40.4183 44 44 40.4183 44 36L44 12C44 7.58172 40.4183 4 36 4L12 4C7.58172 4 4 7.58172 4 12L4 36ZM14 36L21 36C22.1046 36 23 35.1046 23 34C23 32.8954 22.1046 32 21 32L14 32L14 26L20 26C21.1046 26 22 25.1046 22 24C22 22.8954 21.1046 22 20 22L14 22L14 16L21 16C22.1046 16 23 15.1046 23 14C23 12.8954 22.1046 12 21 12L14 12C11.7909 12 10 13.7909 10 16L10 32C10 34.2091 11.7909 36 14 36ZM28.5328 20.7152C28.1659 20.278 27.6154 20 27 20C25.8954 20 25 20.8954 25 22L25 34C25 35.1046 25.8954 36 27 36C28.1046 36 29 35.1046 29 34L29 26.5C29 25.1193 30.1193 24 31.5 24C32.8807 24 34 25.1193 34 26.5L34 34C34 35.1046 34.8954 36 36 36C37.1046 36 38 35.1046 38 34L38 26C38 25.7881 37.967 25.5839 37.906 25.3922C37.3802 22.3301 34.7122 20 31.5 20C30.431 20 29.4224 20.258 28.5328 20.7152Z" fill-rule="evenodd"  fill="#000000" >
</path>
</svg>
