<svg xmlns="http://www.w3.org/2000/svg" xmlns:xlink="http://www.w3.org/1999/xlink" width="48" height="48" viewBox="0 0 48 48" fill="none">
<path d="M10.5858 37.4142C11.3669 38.1953 12.6332 38.1953 13.4143 37.4142L37.4143 13.4142C38.1953 12.6332 38.1953 11.3669 37.4143 10.5858C36.6332 9.80476 35.3669 9.80474 34.5858 10.5858L10.5858 34.5858C9.8048 35.3668 9.8048 36.6332 10.5858 37.4142Z" fill-rule="evenodd"  fill="#424242" >
</path>
<path d="M24 45C35.598 45 45 35.598 45 24C45 12.402 35.598 3 24 3C12.402 3 3 12.402 3 24C3 35.598 12.402 45 24 45ZM24 7C33.3888 7 41 14.6112 41 24C41 33.3888 33.3888 41 24 41C14.6112 41 7 33.3888 7 24C7 14.6112 14.6112 7 24 7Z" fill-rule="evenodd"  fill="#787878" >
</path>
</svg>
