<svg xmlns="http://www.w3.org/2000/svg" xmlns:xlink="http://www.w3.org/1999/xlink" width="48" height="48" viewBox="0 0 48 48" fill="none">
<path d="M40.9667 38.618C40.9867 38.688 40.9967 38.748 40.9967 38.818C41.0067 38.878 41.0067 38.948 41.0067 39.008C41.0067 39.078 41.0067 39.138 40.9967 39.208C40.9967 39.268 40.9867 39.338 40.9667 39.398C40.9567 39.468 40.9467 39.528 40.9267 39.588C40.9067 39.658 40.8867 39.718 40.8567 39.778C40.8367 39.838 40.8067 39.898 40.7767 39.958C40.7467 40.008 40.7067 40.068 40.6767 40.118C40.6367 40.178 40.5967 40.228 40.5567 40.278C40.5167 40.328 40.4667 40.378 40.4267 40.428C40.3767 40.468 40.3267 40.518 40.2767 40.558C40.2267 40.598 40.1767 40.638 40.1167 40.678C40.0667 40.708 40.0067 40.748 39.9567 40.778C39.8967 40.808 39.8367 40.838 39.7767 40.858C39.7167 40.888 39.6567 40.908 39.5867 40.928C39.5267 40.948 39.4667 40.958 39.3967 40.968C39.3367 40.988 39.2667 40.998 39.2067 40.998C39.1367 41.008 39.0767 41.008 39.0067 41.008C38.9467 41.008 38.8767 41.008 38.8167 40.998C38.7467 40.998 38.6867 40.988 38.6167 40.968C38.5567 40.958 38.4867 40.948 38.4267 40.928C38.3667 40.908 38.3067 40.888 38.2467 40.858C38.1867 40.838 38.1267 40.808 38.0667 40.778C38.0067 40.748 37.9567 40.708 37.8967 40.678C37.8467 40.638 37.7867 40.598 37.7367 40.558C37.6867 40.518 37.6367 40.468 37.5967 40.428L40.4267 37.598C40.4667 37.638 40.5167 37.688 40.5567 37.738C40.5967 37.788 40.6367 37.848 40.6767 37.898C40.7067 37.958 40.7467 38.008 40.7767 38.068C40.8067 38.128 40.8367 38.188 40.8567 38.248C40.8867 38.308 40.9067 38.368 40.9267 38.428C40.9467 38.488 40.9567 38.558 40.9667 38.618ZM7.35005 40.1254C7.31005 40.0654 7.28005 40.0154 7.25005 39.9554L7.16005 39.7754L7.10005 39.5954C7.08005 39.5254 7.06005 39.4654 7.05005 39.4054C7.04005 39.3354 7.03005 39.2754 7.02005 39.2054C7.01005 39.1454 7.01005 39.0754 7.01005 39.0154C7.01005 38.9454 7.01005 38.8754 7.02005 38.8154C7.03005 38.7454 7.04005 38.6854 7.05005 38.6254C7.06005 38.5554 7.08005 38.4954 7.10005 38.4254L7.16005 38.2454L7.25005 38.0654C7.28005 38.0054 7.31005 37.9554 7.35005 37.8954C7.38005 37.8454 7.42005 37.7954 7.46005 37.7454C7.51005 37.6954 7.55005 37.6454 7.60005 37.5954L21.1871 24.0084L7.59665 10.418C7.54665 10.378 7.50665 10.328 7.45665 10.278C7.41665 10.228 7.37665 10.178 7.34665 10.118C7.30665 10.068 7.27665 10.008 7.24665 9.94797C7.21665 9.89797 7.18665 9.83797 7.15665 9.77797C7.13665 9.70797 7.11665 9.64797 7.09665 9.58797C7.07665 9.52797 7.05665 9.45797 7.04665 9.39797C7.03665 9.33797 7.02665 9.26797 7.01665 9.20797C7.00665 9.13797 7.00665 9.07797 7.00665 9.00797C7.00665 8.93797 7.00665 8.87797 7.01665 8.80797C7.02665 8.74797 7.03665 8.67797 7.04665 8.61797C7.05665 8.55797 7.07665 8.48797 7.09665 8.42797C7.11665 8.36797 7.13665 8.30797 7.15665 8.23797C7.18665 8.17797 7.21665 8.11797 7.24665 8.06797C7.27665 8.00797 7.30665 7.94797 7.34665 7.89797C7.37665 7.83797 7.41665 7.78797 7.45665 7.73797C7.50665 7.68797 7.54665 7.63797 7.59665 7.59797C7.63665 7.54797 7.68665 7.50797 7.73665 7.45797C7.78665 7.41797 7.83665 7.37797 7.89665 7.34797C7.94665 7.30797 8.00665 7.27797 8.06665 7.24797C8.11665 7.21797 8.17665 7.18797 8.23665 7.15797C8.30665 7.13797 8.36665 7.11797 8.42665 7.09797C8.48665 7.07797 8.55665 7.05797 8.61665 7.04797C8.67665 7.03797 8.74665 7.02797 8.80665 7.01797C8.87665 7.00797 8.93665 7.00797 9.00665 7.00797C9.07665 7.00797 9.13665 7.00797 9.20665 7.01797C9.26665 7.02797 9.33665 7.03797 9.39665 7.04797C9.45665 7.05797 9.52665 7.07797 9.58665 7.09797C9.64665 7.11797 9.70665 7.13797 9.77665 7.15797C9.83665 7.18797 9.89665 7.21797 9.94665 7.24797C10.0067 7.27797 10.0667 7.30797 10.1167 7.34797C10.1767 7.37797 10.2267 7.41797 10.2767 7.45797C10.3267 7.50797 10.3767 7.54797 10.4167 7.59797L24.0071 21.1884L37.6001 7.59537L37.5901 7.59537C37.6401 7.54537 37.6901 7.50537 37.7401 7.45537C37.7901 7.41537 37.8401 7.37537 37.9001 7.34537C37.9501 7.30537 38.0101 7.27537 38.0701 7.24537C38.1201 7.21537 38.1801 7.18537 38.2401 7.15537C38.3001 7.13537 38.3701 7.11537 38.4301 7.09537C38.4901 7.07537 38.5501 7.05537 38.6201 7.04537C38.6801 7.03537 38.7501 7.02537 38.8101 7.01537C38.8801 7.00537 38.9401 7.00537 39.0101 7.00537C39.0701 7.00537 39.1401 7.00537 39.2001 7.01537C39.2701 7.02537 39.3301 7.03537 39.4001 7.04537C39.4601 7.05537 39.5301 7.07537 39.5901 7.09537L39.7701 7.15537L39.9501 7.24537C40.0101 7.27537 40.0701 7.30537 40.1201 7.34537C40.1701 7.37537 40.2301 7.41537 40.2801 7.45537C40.3301 7.50537 40.3801 7.54537 40.4201 7.59537C40.4701 7.63537 40.5101 7.68537 40.5501 7.73537C40.6001 7.78537 40.6401 7.83537 40.6701 7.89537C40.7101 7.94537 40.7401 8.00537 40.7701 8.06537C40.8001 8.11537 40.8301 8.17537 40.8601 8.23537C40.8801 8.29537 40.9001 8.36537 40.9201 8.42537C40.9401 8.48537 40.9601 8.55537 40.9701 8.61537C40.9801 8.67537 40.9901 8.74537 41.0001 8.80537C41.0101 8.87537 41.0101 8.93537 41.0101 9.00537C41.0101 9.06537 41.0101 9.13537 41.0001 9.20537C40.9901 9.26537 40.9801 9.33537 40.9701 9.39537C40.9601 9.45537 40.9401 9.52537 40.9201 9.58537L40.8601 9.76537C40.8301 9.83537 40.8001 9.88537 40.7701 9.94537C40.7401 10.0054 40.7101 10.0654 40.6701 10.1154C40.6401 10.1654 40.6001 10.2254 40.5601 10.2754C40.5101 10.3254 40.4701 10.3754 40.4201 10.4154L26.8294 24.0107L40.4167 37.598L37.5967 40.418L24.0098 26.8311L10.42 40.4254C10.38 40.4754 10.33 40.5154 10.28 40.5554C10.23 40.5954 10.17 40.6354 10.12 40.6754C10.06 40.7154 10.01 40.7454 9.95004 40.7754C9.89004 40.8054 9.83004 40.8354 9.77004 40.8554C9.71004 40.8854 9.65004 40.9054 9.59004 40.9254C9.53004 40.9454 9.46004 40.9554 9.40004 40.9754C9.33004 40.9854 9.27004 40.9954 9.20004 41.0054C9.14004 41.0054 9.07004 41.0154 9.01004 41.0154C8.94004 41.0154 8.88004 41.0054 8.81004 41.0054C8.75004 40.9954 8.68004 40.9854 8.62004 40.9754C8.55004 40.9554 8.49004 40.9454 8.43004 40.9254C8.37004 40.9054 8.30004 40.8854 8.24004 40.8554C8.18004 40.8354 8.12004 40.8054 8.07004 40.7754C8.01004 40.7454 7.95005 40.7054 7.90005 40.6754C7.84005 40.6354 7.79005 40.5954 7.74005 40.5554C7.69005 40.5154 7.64005 40.4754 7.60005 40.4254C7.55005 40.3754 7.51005 40.3254 7.46005 40.2754C7.42005 40.2254 7.38005 40.1754 7.35005 40.1254Z" fill-rule="evenodd"  fill="#000000" >
</path>
</svg>
