<svg xmlns="http://www.w3.org/2000/svg" xmlns:xlink="http://www.w3.org/1999/xlink" width="48" height="48" viewBox="0 0 48 48" fill="none">
<path d="M4 36C4 40.4183 7.58172 44 12 44L36 44C40.4183 44 44 40.4183 44 36L44 12C44 7.58172 40.4183 4 36 4L12 4C7.58172 4 4 7.58172 4 12L4 36ZM26 12C26 10.8954 25.1046 10 24 10C22.8954 10 22 10.8954 22 12L22 15L14 15C11.7909 15 10 16.7909 10 19L10 25C10 27.2091 11.7909 29 14 29L22 29L22 36C22 37.1046 22.8954 38 24 38C25.1046 38 26 37.1046 26 36L26 29L34 29C36.2091 29 38 27.2091 38 25L38 19C38 16.7909 36.2091 15 34 15L26 15L26 12ZM14 19L22 19L22 25L14 25L14 19ZM34 25L26 25L26 19L34 19L34 25Z" fill-rule="evenodd"  fill="#000000" >
</path>
</svg>
