<svg xmlns="http://www.w3.org/2000/svg" xmlns:xlink="http://www.w3.org/1999/xlink" width="48" height="48" viewBox="0 0 48 48" fill="none">
<path d="M40.9072 31L35.5 31C33.2909 31 31.5 32.7909 31.5 35L31.5 40.8692C31.5252 40.8596 31.5503 40.8494 31.5752 40.8387C31.8265 40.7312 32.0464 40.5787 32.2351 40.381L40.4467 31.7783C40.6243 31.5923 40.7609 31.3799 40.8565 31.1412C40.8752 31.0945 40.8921 31.0474 40.9072 31ZM27.5 41L11 41C8.79086 41 7 39.2091 7 37L7 11C7 8.79086 8.79086 7 11 7L37 7C39.2091 7 41 8.79086 41 11L41 27L35.5 27C31.0817 27 27.5 30.5817 27.5 35L27.5 41ZM11 45L30.7884 45C31.6083 45 32.3951 44.8387 33.1488 44.5162C33.9025 44.1937 34.5624 43.7359 35.1285 43.1429L43.3401 34.5402C43.8728 33.9821 44.2827 33.345 44.5696 32.6289C44.8565 31.9127 45 31.1689 45 30.3974L45 11C45 6.58172 41.4183 3 37 3L11 3C6.58172 3 3 6.58172 3 11L3 37C3 41.4183 6.58172 45 11 45Z" fill-rule="evenodd"  fill="#787878" >
</path>
<path d="M45 30.3974L45 27L35.5 27C31.0817 27 27.5 30.5817 27.5 35L27.5 45L30.7884 45C31.6082 45 32.395 44.8387 33.1488 44.5162C33.9025 44.1937 34.5624 43.7359 35.1285 43.1429L43.3401 34.5402C43.8728 33.9821 44.2827 33.345 44.5696 32.6289C44.8565 31.9127 45 31.1689 45 30.3974ZM31.5 40.8692C31.5252 40.8596 31.5502 40.8494 31.5752 40.8387C31.8264 40.7312 32.0464 40.5787 32.2351 40.381L40.4467 31.7783C40.6243 31.5923 40.7609 31.3799 40.8565 31.1412C40.8752 31.0945 40.8921 31.0474 40.9072 31L35.5 31C33.2909 31 31.5 32.7909 31.5 35L31.5 40.8692Z" fill-rule="evenodd"  fill="#424242" >
</path>
</svg>
