<svg xmlns="http://www.w3.org/2000/svg" xmlns:xlink="http://www.w3.org/1999/xlink" width="48" height="48" viewBox="0 0 48 48" fill="none">
<path d="M9.92367 28.1946C10.7698 28.9046 10.8802 30.1661 10.1702 31.0122L7.43833 34.2679L4.37415 31.6968L7.106 28.4411C7.81602 27.5949 9.07752 27.4846 9.92367 28.1946ZM43.6389 16.0174L40.7463 19.4646C40.0363 20.3107 38.7748 20.4211 37.9287 19.7111C37.0825 19.0011 36.9722 17.7396 37.6822 16.8934L40.5747 13.4462L43.6389 16.0174Z" fill-rule="evenodd"  fill="#787878" >
</path>
<path d="M4.05286 32.0798L4.37426 31.6968C5.08428 30.8506 6.34577 30.7403 7.19192 31.4503C8.03807 32.1603 8.14846 33.4218 7.43843 34.268L7.11704 34.651C6.49579 35.3914 6.59236 36.4952 7.33274 37.1164C8.07313 37.7377 9.17695 37.6411 9.7982 36.9008L34.2241 7.79106C36.4429 5.14684 40.3851 4.80194 43.0293 7.0207C45.6736 9.23948 46.0184 13.1817 43.7997 15.8259L43.639 16.0174C42.929 16.8636 41.6675 16.974 40.8213 16.2639C39.9751 15.5539 39.8648 14.2924 40.5748 13.4463L40.7355 13.2548C41.5343 12.3028 41.4101 10.8836 40.4582 10.0849C39.5063 9.28615 38.0871 9.41029 37.2883 10.3622L12.8624 39.4719C10.8211 41.9046 7.19427 42.2219 4.76159 40.1806C2.32891 38.1394 2.01163 34.5125 4.05286 32.0798Z" fill-rule="evenodd"  fill="#787878" >
</path>
<path d="M13.8373 38.307C16.7079 40.2817 20.1846 41.4383 23.9211 41.4383C33.7462 41.4383 41.7111 33.5442 41.7111 23.7191C41.7111 18.8557 39.7342 14.4499 36.5442 11.2481L33.9597 14.3279C36.2824 16.7824 37.7111 20.0858 37.7111 23.7191C37.7111 31.3351 31.5371 37.4383 23.9211 37.4383C21.1635 37.4383 18.5866 36.6247 16.4241 35.2245L13.8373 38.307ZM30.8196 11.8474C28.7866 10.6727 26.4285 10 23.9211 10C16.3052 10 10.1312 16.1032 10.1312 23.7191C10.1312 27.1012 11.3692 30.1975 13.4138 32.5893L10.8151 35.6861C7.90975 32.5334 6.13123 28.3321 6.13123 23.7191C6.13123 13.894 14.096 6 23.9211 6C27.408 6 30.6687 7.00722 33.4217 8.7466L30.8196 11.8474Z" fill-rule="evenodd"  fill="#424242" >
</path>
</svg>
