<svg xmlns="http://www.w3.org/2000/svg" xmlns:xlink="http://www.w3.org/1999/xlink" width="48" height="48" viewBox="0 0 48 48" fill="none">
<path d="M24 45C35.598 45 45 35.598 45 24C45 12.402 35.598 3 24 3C12.402 3 3 12.402 3 24C3 35.598 12.402 45 24 45ZM24 7C33.3888 7 41 14.6112 41 24C41 33.3888 33.3888 41 24 41C14.6112 41 7 33.3888 7 24C7 14.6112 14.6112 7 24 7Z" fill-rule="evenodd"  fill="#787878" >
</path>
<path d="M12 24C12 25.1046 12.8954 26 14 26L34 26C35.1046 26 36 25.1046 36 24C36 22.8954 35.1046 22 34 22L14 22C12.8954 22 12 22.8954 12 24Z" fill-rule="evenodd"  fill="#424242" >
</path>
</svg>
