<svg xmlns="http://www.w3.org/2000/svg" xmlns:xlink="http://www.w3.org/1999/xlink" width="48" height="48" viewBox="0 0 48 48" fill="none">
<path d="M24 45C35.598 45 45 35.598 45 24C45 12.402 35.598 3 24 3C12.402 3 3 12.402 3 24C3 35.598 12.402 45 24 45Z" fill-rule="evenodd"  fill="#0D9E86" >
</path>
<path d="M31.5228 16.6517L31.5176 16.6574L20.2098 29.0468L15.4702 23.9404C15.1048 23.5444 14.5814 23.2963 14 23.2963C12.8954 23.2963 12 24.1917 12 25.2963C12 25.8218 12.2027 26.3 12.5341 26.6569L12.5379 26.6609L17.2781 31.768C18.8698 33.4828 21.587 33.4714 23.1643 31.7433L34.4728 19.3531L34.4772 19.3483C34.8019 18.9927 35 18.5195 35 18C35 16.8954 34.1046 16 33 16C32.4149 16 31.8885 16.2512 31.5228 16.6517Z" fill-rule="evenodd"  fill="#E8FFF7" >
</path>
</svg>
