<svg xmlns="http://www.w3.org/2000/svg" xmlns:xlink="http://www.w3.org/1999/xlink" width="48" height="48" viewBox="0 0 48 48" fill="none">
<path d="M24.0003 2.99999C12.4021 2.99999 2.99999 12.4021 2.99999 24.0003C2.99999 35.5984 12.4021 45.0005 24.0003 45.0005C35.5984 45.0005 45.0005 35.5984 45.0005 24.0003C45.0005 12.4021 35.5984 2.99999 24.0003 2.99999ZM24.0003 41.0005C14.6113 41.0005 6.99999 33.3892 6.99999 24.0003C6.99999 14.6113 14.6113 6.99999 24.0003 6.99999C33.3892 6.99999 41.0005 14.6113 41.0005 24.0003C41.0005 33.3892 33.3892 41.0005 24.0003 41.0005Z" fill-rule="evenodd"  fill="#787878" >
</path>
<path d="M14 18C14 19.1046 14.8954 20 16 20L32 20C33.1046 20 34 19.1046 34 18C34 16.8954 33.1046 16 32 16L16 16C14.8954 16 14 16.8954 14 18Z" fill-rule="evenodd"  fill="#424242" >
</path>
<path d="M14 30C14 31.1046 14.8954 32 16 32L32 32C33.1046 32 34 31.1046 34 30C34 28.8954 33.1046 28 32 28L16 28C14.8954 28 14 28.8954 14 30Z" fill-rule="evenodd"  fill="#424242" >
</path>
</svg>
