<svg xmlns="http://www.w3.org/2000/svg" xmlns:xlink="http://www.w3.org/1999/xlink" width="48" height="48" viewBox="0 0 48 48" fill="none">
<path d="M35.5855 29.5857C34.8045 30.3668 34.8045 31.6331 35.5855 32.4141C36.3666 33.1952 37.6329 33.1952 38.4139 32.4141C44.7169 26.1111 44.7169 15.892 38.4139 9.58895C32.1109 3.28593 21.8918 3.28595 15.5888 9.58895C14.8077 10.37 14.8077 11.6363 15.5888 12.4173C16.3698 13.1984 17.6361 13.1984 18.4172 12.4173C23.1581 7.67642 30.8447 7.67645 35.5855 12.4173C40.3265 17.1583 40.3265 24.8448 35.5855 29.5857ZM29.5855 23.5857C28.8045 24.3668 28.8045 25.6331 29.5855 26.4141C30.3666 27.1952 31.6329 27.1952 32.4139 26.4141C35.4038 23.4243 35.4037 18.5768 32.4139 15.587C29.4241 12.5972 24.5767 12.5972 21.5868 15.587C20.8058 16.3681 20.8058 17.6344 21.5868 18.4154C22.3679 19.1965 23.6342 19.1965 24.4152 18.4154C25.843 16.9877 28.1578 16.9877 29.5855 18.4154C31.0133 19.8432 31.0133 22.158 29.5855 23.5857ZM26.4292 44.4487C28.5476 43.942 30.5174 43.0958 32.3387 41.9099C33.0269 41.4618 33.5605 40.884 33.9395 40.1765C34.294 39.5148 34.4819 38.7988 34.5031 38.0283C34.5232 37.3023 34.3931 36.5939 34.113 35.903C33.8317 35.2092 33.4234 34.5947 32.888 34.0593L13.9409 15.1122C13.4033 14.5746 12.7846 14.166 12.0847 13.8866C11.3916 13.6098 10.6805 13.4836 9.95154 13.5081C9.18126 13.534 8.46567 13.7253 7.80478 14.082C7.09732 14.4638 6.52036 14.9988 6.0739 15.6869C4.89251 17.5077 4.05003 19.4762 3.54645 21.5924C3.05296 23.6662 2.91199 25.7654 3.12353 27.8899C3.33694 30.0333 3.89703 32.0772 4.80378 34.0215C5.74219 36.0338 7.0029 37.8314 8.58591 39.4144C10.1707 40.9992 11.9706 42.261 13.9855 43.1997C15.9324 44.1066 17.9788 44.6661 20.1248 44.8781C22.252 45.0883 24.3535 44.9452 26.4292 44.4487Z" fill-rule="evenodd"  fill="#000000" >
</path>
</svg>
