<svg xmlns="http://www.w3.org/2000/svg" xmlns:xlink="http://www.w3.org/1999/xlink" width="48" height="48" viewBox="0 0 48 48" fill="none">
<path d="M3.5 13.5L3.5 32.5C3.5 39.1274 8.87258 44.5 15.5 44.5L34.5 44.5C35.6046 44.5 36.5 43.6046 36.5 42.5C36.5 41.3954 35.6046 40.5 34.5 40.5L15.5 40.5C11.0817 40.5 7.5 36.9183 7.5 32.5L7.5 13.5C7.5 12.3954 6.60457 11.5 5.5 11.5C4.39543 11.5 3.5 12.3954 3.5 13.5Z" fill-rule="evenodd"  fill="#4187FF" >
</path>
<path d="M18.5 5.5L36.5 5.5C39.8137 5.5 42.5 8.18629 42.5 11.5L42.5 29.5C42.5 32.8137 39.8137 35.5 36.5 35.5L18.5 35.5C15.1863 35.5 12.5 32.8137 12.5 29.5L12.5 11.5C12.5 8.18629 15.1863 5.5 18.5 5.5Z"   fill="#BEDCFF" >
</path>
<path d="M36.5 3.5L18.5 3.5C14.0817 3.5 10.5 7.08172 10.5 11.5L10.5 29.5C10.5 33.9183 14.0817 37.5 18.5 37.5L36.5 37.5C40.9183 37.5 44.5 33.9183 44.5 29.5L44.5 11.5C44.5 7.08172 40.9183 3.5 36.5 3.5ZM14.5 11.5C14.5 9.29086 16.2909 7.5 18.5 7.5L36.5 7.5C38.7091 7.5 40.5 9.29086 40.5 11.5L40.5 29.5C40.5 31.7091 38.7091 33.5 36.5 33.5L18.5 33.5C16.2909 33.5 14.5 31.7091 14.5 29.5L14.5 11.5Z" fill-rule="evenodd"  fill="#1764FF" >
</path>
</svg>
