<svg xmlns="http://www.w3.org/2000/svg" xmlns:xlink="http://www.w3.org/1999/xlink" width="48" height="48" viewBox="0 0 48 48" fill="none">
<path d="M24 2.5C22.8954 2.5 22 3.39543 22 4.5L22 24.5C22 25.6046 22.8954 26.5 24 26.5C25.1046 26.5 26 25.6046 26 24.5L26 4.5C26 3.39543 25.1046 2.5 24 2.5Z" fill-rule="evenodd"  fill="#424242" >
</path>
<path d="M9.15076 9.15073C9.51269 8.7888 10.0127 8.56494 10.565 8.56494C11.6695 8.56494 12.565 9.46037 12.565 10.5649C12.565 11.1172 12.3411 11.6172 11.9792 11.9792C8.65973 15.2986 7 19.3055 7 23.9999C7 33.3888 14.6112 40.9999 24 40.9999C33.3888 40.9999 41 33.3888 41 23.9999C41 19.306 39.3406 15.2994 36.0218 11.9801L36.0208 11.9792C35.6589 11.6172 35.435 11.1172 35.435 10.5649C35.435 9.46037 36.3305 8.56494 37.435 8.56494C37.9873 8.56494 38.4873 8.7888 38.8492 9.15073C42.9497 13.2512 45 18.201 45 23.9999C45 35.5979 35.598 44.9999 24 44.9999C12.402 44.9999 3 35.5979 3 23.9999C3 18.201 5.05025 13.2512 9.15076 9.15073Z" fill-rule="evenodd"  fill="#787878" >
</path>
</svg>
