<svg xmlns="http://www.w3.org/2000/svg" xmlns:xlink="http://www.w3.org/1999/xlink" width="48" height="48" viewBox="0 0 48 48" fill="none">
<path d="M36 42C40.4183 42 44 38.4183 44 34L44 12C44 7.58172 40.4183 4 36 4L14 4C9.58172 4 6 7.58172 6 12L6 40C6 41.1046 6.89543 42 8 42L36 42Z" fill-rule="evenodd"  fill="#BEDCFF" >
</path>
<path d="M36 38L21 38C19.8954 38 19 38.8954 19 40C19 41.1046 19.8954 42 21 42L36 42C40.4183 42 44 38.4183 44 34L44 12C44 7.58172 40.4183 4 36 4L14 4C9.58172 4 6 7.58172 6 12L6 27C6 28.1046 6.89543 29 8 29C9.10457 29 10 28.1046 10 27L10 12C10 9.79086 11.7909 8 14 8L36 8C38.2091 8 40 9.79086 40 12L40 34C40 36.2091 38.2091 38 36 38Z" fill-rule="evenodd"  fill="#4187FF" >
</path>
<path d="M16.9997 12L31.9997 12C34.2088 12 35.9997 13.7909 35.9997 16L35.9997 31C35.9997 32.1046 35.1043 33 33.9997 33C32.8951 33 31.9997 32.1046 31.9997 31L31.9997 18.8284L9.41419 41.4139C8.63313 42.195 7.36683 42.195 6.58579 41.4139C5.80475 40.6329 5.80473 39.3666 6.58579 38.5855L29.1713 16L16.9997 16C15.8952 16 14.9997 15.1046 14.9997 14C14.9997 12.8954 15.8952 12 16.9997 12Z" fill-rule="evenodd"  fill="#1764FF" >
</path>
</svg>
