<svg xmlns="http://www.w3.org/2000/svg" xmlns:xlink="http://www.w3.org/1999/xlink" width="48" height="48" viewBox="0 0 48 48" fill="none">
<path d="M22 24.5L22 4.5C22 3.4 22.9 2.5 24 2.5C25.1 2.5 26 3.4 26 4.5L26 24.5C26 25.6 25.1 26.5 24 26.5C22.9 26.5 22 25.6 22 24.5ZM12.56 10.5649C12.56 9.4649 11.67 8.5649 10.56 8.5649C10.01 8.5649 9.51 8.7949 9.15 9.1549L9.14 9.1549C5.05 13.2649 3 18.2149 3 24.0049C3 35.6049 12.4 45.0049 24 45.0049C35.6 45.0049 45 35.6049 45 24.0049C45 18.2149 42.95 13.2649 38.86 9.1549L38.85 9.1549C38.49 8.7949 37.99 8.5649 37.44 8.5649C36.33 8.5649 35.43 9.4649 35.43 10.5649C35.43 11.1549 35.69 11.6849 36.1 12.0549C39.37 15.3649 41 19.3549 41 24.0049C41 33.3949 33.39 41.0049 24 41.0049C14.61 41.0049 7 33.3949 7 24.0049C7 19.3549 8.63 15.3649 11.9 12.0549C12.31 11.6849 12.56 11.1549 12.56 10.5649Z" fill-rule="evenodd"  fill="#000000" >
</path>
</svg>
