<svg xmlns="http://www.w3.org/2000/svg" xmlns:xlink="http://www.w3.org/1999/xlink" width="48" height="48" viewBox="0 0 48 48" fill="none">
<path d="M36 38L21 38C19.8954 38 19 38.8954 19 40C19 41.1046 19.8954 42 21 42L36 42C40.4183 42 44 38.4183 44 34L44 12C44 7.58172 40.4183 4 36 4L14 4C9.58172 4 6 7.58172 6 12L6 27C6 28.1046 6.89543 29 8 29C9.10457 29 10 28.1046 10 27L10 12C10 9.79086 11.7909 8 14 8L36 8C38.2091 8 40 9.79086 40 12L40 34C40 36.2091 38.2091 38 36 38Z" fill-rule="evenodd"  fill="#787878" >
</path>
<path d="M34.4139 13.5858C33.6329 12.8047 32.3665 12.8047 31.5855 13.5858L6.58551 38.5858C5.80444 39.3668 5.80446 40.6331 6.58551 41.4142C7.36656 42.1952 8.63287 42.1953 9.41394 41.4142L34.4139 16.4142C35.195 15.6332 35.195 14.3668 34.4139 13.5858Z" fill-rule="evenodd"  fill="#424242" >
</path>
<path d="M17 12L32 12C34.2091 12 36 13.7909 36 16L36 31C36 32.1046 35.1046 33 34 33C32.8954 33 32 32.1046 32 31L32 16L17 16C15.8954 16 15 15.1046 15 14C15 12.8954 15.8954 12 17 12Z" fill-rule="evenodd"  fill="#424242" >
</path>
</svg>
