<svg xmlns="http://www.w3.org/2000/svg" xmlns:xlink="http://www.w3.org/1999/xlink" width="48" height="48" viewBox="0 0 48 48" fill="none">
<path d="M18 24L10 24C6.68629 24 4 26.6863 4 30L4 38C4 41.3137 6.68629 44 10 44L18 44C21.3137 44 24 41.3137 24 38L24 30C24 26.6863 21.3137 24 18 24Z" fill-rule="evenodd"  fill="#BEDCFF" >
</path>
<path d="M36 40L28 40C26.8954 40 26 40.8954 26 42C26 43.1046 26.8954 44 28 44L36 44C40.4183 44 44 40.4183 44 36L44 12C44 7.58172 40.4183 4 36 4L12 4C7.58172 4 4 7.58172 4 12L4 20C4 21.1046 4.89543 22 6 22C7.10457 22 8 21.1046 8 20L8 12C8 9.79086 9.79086 8 12 8L36 8C38.2091 8 40 9.79086 40 12L40 36C40 38.2091 38.2091 40 36 40Z" fill-rule="evenodd"  fill="#6BA6FF" >
</path>
<path d="M18 24L10 24C6.68629 24 4 26.6863 4 30L4 38C4 41.3137 6.68629 44 10 44L18 44C21.3137 44 24 41.3137 24 38L24 30C24 26.6863 21.3137 24 18 24ZM8 30C8 28.8954 8.89543 28 10 28L18 28C19.1046 28 20 28.8954 20 30L20 38C20 39.1046 19.1046 40 18 40L10 40C8.89543 40 8 39.1046 8 38L8 30Z" fill-rule="evenodd"  fill="#1764FF" >
</path>
<path d="M36 24L28 24C25.7909 24 24 22.2091 24 20L24 12C24 10.8954 24.8954 10 26 10C27.1046 10 28 10.8954 28 12L28 17.1716L33.5858 11.5858C34.3668 10.8048 35.6332 10.8048 36.4142 11.5858C37.1952 12.3668 37.1952 13.6332 36.4142 14.4142L30.8284 20L36 20C37.1046 20 38 20.8954 38 22C38 23.1046 37.1046 24 36 24Z" fill-rule="evenodd"  fill="#4187FF" >
</path>
</svg>
