<svg xmlns="http://www.w3.org/2000/svg" xmlns:xlink="http://www.w3.org/1999/xlink" width="48" height="48" viewBox="0 0 48 48" fill="none">
<path d="M6.23616 24.9428C6.20528 24.885 6.17731 24.8259 6.15224 24.7654C6.12717 24.7049 6.10513 24.6433 6.08612 24.5806C6.06711 24.5179 6.05121 24.4544 6.03843 24.3902C6.02565 24.3259 6.01605 24.2612 6.00963 24.196C6.00321 24.1308 6 24.0655 6 24C6 23.9345 6.00321 23.8692 6.00963 23.804C6.01605 23.7388 6.02565 23.6741 6.03843 23.6098C6.05121 23.5456 6.06711 23.4821 6.08612 23.4194C6.10513 23.3567 6.12717 23.2951 6.15224 23.2346C6.17731 23.1741 6.20528 23.115 6.23616 23.0572C6.26703 22.9994 6.30067 22.9433 6.33706 22.8889C6.37345 22.8344 6.41243 22.7818 6.45398 22.7312C6.49553 22.6806 6.53947 22.6321 6.58579 22.5858C6.6321 22.5395 6.68058 22.4955 6.73121 22.454C6.78184 22.4124 6.83439 22.3735 6.88886 22.3371C6.94332 22.3007 6.99944 22.267 7.05721 22.2362C7.11497 22.2053 7.17412 22.1773 7.23463 22.1522C7.29515 22.1272 7.35675 22.1051 7.41943 22.0861C7.48211 22.0671 7.54558 22.0512 7.60982 22.0384C7.67406 22.0257 7.73878 22.0161 7.80397 22.0096C7.86915 22.0032 7.9345 22 8 22L40 22C40.0655 22 40.1309 22.0032 40.196 22.0096C40.2612 22.0161 40.3259 22.0257 40.3902 22.0384C40.4544 22.0512 40.5179 22.0671 40.5806 22.0861C40.6433 22.1051 40.7049 22.1272 40.7654 22.1522C40.8259 22.1773 40.885 22.2053 40.9428 22.2362C41.0005 22.267 41.0566 22.3007 41.1111 22.3371C41.1656 22.3735 41.2181 22.4124 41.2688 22.454C41.3194 22.4955 41.3679 22.5395 41.4142 22.5858C41.4605 22.6321 41.5045 22.6806 41.546 22.7312C41.5875 22.7818 41.6265 22.8344 41.6629 22.8889C41.6993 22.9433 41.7329 22.9994 41.7638 23.0572C41.7947 23.115 41.8227 23.1741 41.8478 23.2346C41.8729 23.2951 41.8949 23.3567 41.9139 23.4194C41.9329 23.4821 41.9488 23.5456 41.9616 23.6098C41.9743 23.6741 41.9839 23.7388 41.9904 23.804C41.9968 23.8692 42 23.9345 42 24C42 24.0655 41.9968 24.1308 41.9904 24.196C41.9839 24.2612 41.9743 24.3259 41.9616 24.3902C41.9488 24.4544 41.9329 24.5179 41.9139 24.5806C41.8949 24.6433 41.8729 24.7049 41.8478 24.7654C41.8227 24.8259 41.7947 24.885 41.7638 24.9428C41.7329 25.0006 41.6993 25.0567 41.6629 25.1111C41.6265 25.1656 41.5875 25.2182 41.546 25.2688C41.5045 25.3194 41.4605 25.3679 41.4142 25.4142C41.3679 25.4605 41.3194 25.5045 41.2688 25.546C41.2181 25.5876 41.1656 25.6265 41.1111 25.6629C41.0566 25.6993 41.0005 25.733 40.9428 25.7638C40.885 25.7947 40.8259 25.8227 40.7654 25.8478C40.7049 25.8728 40.6433 25.8949 40.5806 25.9139C40.5179 25.9329 40.4544 25.9488 40.3902 25.9616C40.3259 25.9743 40.2612 25.9839 40.196 25.9904C40.1309 25.9968 40.0655 26 40 26L8 26C7.9345 26 7.86915 25.9968 7.80397 25.9904C7.73878 25.9839 7.67406 25.9743 7.60982 25.9616C7.54558 25.9488 7.48211 25.9329 7.41943 25.9139C7.35675 25.8949 7.29515 25.8728 7.23463 25.8478C7.17412 25.8227 7.11497 25.7947 7.05721 25.7638C6.99944 25.733 6.94332 25.6993 6.88886 25.6629C6.83439 25.6265 6.78184 25.5876 6.73121 25.546C6.68058 25.5045 6.6321 25.4605 6.58579 25.4142C6.53947 25.3679 6.49553 25.3194 6.45398 25.2688C6.41243 25.2182 6.37345 25.1656 6.33706 25.1111C6.30067 25.0567 6.26703 25.0006 6.23616 24.9428Z"   fill="#000000" >
</path>
</svg>
