<svg xmlns="http://www.w3.org/2000/svg" xmlns:xlink="http://www.w3.org/1999/xlink" width="48" height="48" viewBox="0 0 48 48" fill="none">
<path d="M9.35756 8.11525L10.6929 34.4887C10.9118 38.8117 15.4969 41.4876 19.3685 39.5518L22.1466 38.1628L23.6885 41.0753C24.5108 42.6287 25.7589 43.6735 27.4327 44.2099C29.1064 44.7463 30.7293 44.6215 32.3013 43.8355C35.5505 42.2109 36.8261 38.2305 35.1264 35.02L33.7055 32.3362L36.2423 31.001C39.9828 29.0324 40.5694 23.9165 37.3716 21.1523L17.6209 4.07974C14.2909 1.20125 9.13498 3.71922 9.35756 8.11525ZM17.5797 35.9741C16.2891 36.6194 14.7608 35.7274 14.6878 34.2864L13.3524 7.91298C13.3079 7.03377 14.3391 6.53018 15.0051 7.10587L34.7557 24.1784C35.8217 25.0998 35.6262 26.8051 34.3793 27.4614L30.9555 29.2634C29.4868 30.0364 28.9248 31.855 29.7013 33.3218L31.5912 36.8916C32.2402 38.1175 31.7532 39.6374 30.5125 40.2577C29.0729 40.9775 27.9767 40.6262 27.2237 39.2038L25.6817 36.2913C24.4627 33.9887 22.688 33.4199 20.3577 34.5851L17.5797 35.9741Z" fill-rule="evenodd"  fill="#787878" >
</path>
<path d="M13.9965 20.6336C13.9987 20.6721 13.9999 20.711 13.9999 20.7501C13.9999 21.8547 13.1044 22.7501 11.9999 22.7501C10.9251 22.7501 10.0484 21.9024 10.0018 20.8392L9.35756 8.11525C9.13498 3.71922 14.2909 1.20125 17.6209 4.07974L27.0485 12.229C27.4778 12.5958 27.7499 13.1412 27.7499 13.7501C27.7499 14.8547 26.8545 15.7501 25.7499 15.7501C25.246 15.7501 24.7857 15.5638 24.434 15.2562L15.0051 7.10587C14.3391 6.53018 13.3079 7.03377 13.3524 7.91298L13.9965 20.6336Z" fill-rule="evenodd"  fill="#424242" >
</path>
</svg>
