<svg xmlns="http://www.w3.org/2000/svg" xmlns:xlink="http://www.w3.org/1999/xlink" width="48" height="48" viewBox="0 0 48 48" fill="none">
<path d="M18.4739 37.763L21.2519 36.374C22.2236 35.8881 23.4055 36.2669 23.9139 37.227L25.4558 40.1396C26.5922 42.286 29.2343 43.1328 31.4066 42.0466C33.6515 40.9241 34.5329 38.174 33.3585 35.9558L31.4686 32.386C31.2098 31.8971 31.3971 31.2909 31.8867 31.0332L35.3105 29.2312C37.8042 27.9187 38.1952 24.5082 36.0634 22.6654L16.3128 5.59281C14.3148 3.86572 11.2212 5.3765 11.3548 8.01411L12.6901 34.3875C12.8361 37.2696 15.8928 39.0535 18.4739 37.763Z"   fill="#BEDCFF" >
</path>
<path d="M9.35756 8.115L10.6929 34.4884C10.9118 38.8114 15.4969 41.4873 19.3685 39.5515L22.1466 38.1625L23.6885 41.075C25.3332 44.1817 29.1573 45.4072 32.3013 43.8352C35.5505 42.2106 36.8261 38.2302 35.1264 35.0197L33.7055 32.3359L36.2423 31.0007C39.9828 29.0321 40.5694 23.9162 37.3716 21.152L17.6209 4.07949C14.2909 1.20101 9.13498 3.71897 9.35756 8.115ZM17.5797 35.9738C16.2891 36.6191 14.7608 35.7271 14.6878 34.2861L13.3524 7.91273C13.3079 7.03352 14.3391 6.52993 15.0051 7.10562L34.7557 24.1781C35.8217 25.0995 35.6262 26.8048 34.3793 27.4611L30.9555 29.2631C29.4868 30.0361 28.9248 31.8547 29.7013 33.3215L31.5912 36.8913C32.2402 38.1172 31.7532 39.6371 30.5125 40.2574C29.3119 40.8577 27.8517 40.3898 27.2237 39.2035L25.6817 36.291C24.6651 34.3706 22.3012 33.6131 20.3577 34.5848L17.5797 35.9738Z" fill-rule="evenodd"  fill="#4187FF" >
</path>
<path d="M13.9965 20.6333C13.9987 20.6718 13.9999 20.7107 13.9999 20.7498C13.9999 21.8544 13.1044 22.7498 11.9999 22.7498C10.9251 22.7498 10.0484 21.9021 10.0018 20.8389L9.35756 8.115C9.13498 3.71897 14.2909 1.20101 17.6209 4.07949L27.0485 12.2287C27.4778 12.5955 27.7499 13.1409 27.7499 13.7498C27.7499 14.8544 26.8545 15.7498 25.7499 15.7498C25.246 15.7498 24.7857 15.5635 24.434 15.2559L15.0051 7.10562C14.3391 6.52993 13.3079 7.03352 13.3524 7.91273L13.9965 20.6333Z" fill-rule="evenodd"  fill="#1764FF" >
</path>
</svg>
