<svg xmlns="http://www.w3.org/2000/svg" xmlns:xlink="http://www.w3.org/1999/xlink" width="48" height="48" viewBox="0 0 48 48" fill="none">
<path d="M22.1425 38.1616C22.1419 38.1635 22.1422 38.1657 22.1436 38.1683L22.1441 38.1692L23.6441 40.9892C24.0515 41.7619 24.5921 42.4261 25.2661 42.9819C25.9159 43.5178 26.6435 43.9143 27.4489 44.1715C28.2531 44.4283 29.0751 44.5271 29.9151 44.468C30.7846 44.4069 31.611 44.1805 32.3942 43.7889C33.1782 43.3951 33.8507 42.8662 34.4117 42.202C34.9534 41.5609 35.3532 40.8401 35.611 40.0395C35.8694 39.2372 35.9651 38.4176 35.8981 37.5808C35.8285 36.7118 35.5882 35.8893 35.177 35.1135L33.7044 32.3354L36.6807 30.7701C37.5377 30.3191 38.2307 29.6954 38.7597 28.8989C39.261 28.1443 39.5638 27.3137 39.668 26.4073C39.7722 25.5009 39.6659 24.6231 39.349 23.774C39.0147 22.8781 38.4816 22.113 37.7497 21.4786L17.6177 4.07693C16.8139 3.38962 15.9013 2.99314 14.8801 2.88751C13.9327 2.7895 13.0255 2.95208 12.1587 3.37524C11.2905 3.79905 10.6044 4.41513 10.1002 5.22347C9.55627 6.09555 9.3103 7.05731 9.36227 8.10876L10.7224 35.0209C10.7751 36.0105 11.0606 36.9175 11.5791 37.7417C12.0703 38.5225 12.7167 39.1471 13.5183 39.6155C14.321 40.0847 15.1832 40.3409 16.1049 40.3842C17.0791 40.43 18.0088 40.2316 18.8943 39.7889L22.1464 38.1578C22.1444 38.1588 22.1431 38.1601 22.1425 38.1616ZM25.676 36.2917L25.6755 36.2908C25.4261 35.8215 25.0973 35.4183 24.6891 35.0811C24.295 34.7556 23.8543 34.5142 23.3669 34.3568C22.8794 34.1994 22.3807 34.1375 21.8709 34.1712C21.3421 34.2062 20.8362 34.3432 20.3532 34.5822L17.1054 36.2111C16.8426 36.3426 16.5717 36.4018 16.2928 36.3886C16.0256 36.3761 15.7735 36.3006 15.5364 36.162C15.2988 36.0232 15.1083 35.8398 14.9649 35.6118C14.8153 35.374 14.7328 35.1097 14.7173 34.819L13.3574 7.91128C13.3466 7.69404 13.3922 7.50372 13.4941 7.34032C13.5933 7.18137 13.7331 7.05787 13.9135 6.9698C14.0948 6.88127 14.2799 6.84676 14.4686 6.86628C14.663 6.88639 14.8408 6.96533 15.0019 7.10311L35.1299 24.5014C35.3478 24.6902 35.505 24.9139 35.6015 25.1725C35.6943 25.4212 35.7252 25.6804 35.6941 25.9502C35.6631 26.2199 35.5743 26.4651 35.4277 26.6858C35.2755 26.915 35.0725 27.0964 34.8189 27.2299L30.9524 29.2633C30.5938 29.4536 30.2866 29.7057 30.0306 30.0197C29.7844 30.3219 29.6035 30.6594 29.488 31.0322C29.3722 31.4063 29.3309 31.788 29.3641 32.1772C29.3987 32.5833 29.5116 32.9665 29.7027 33.3267L31.6426 36.9865C31.7958 37.2757 31.8853 37.5802 31.9109 37.9001C31.9357 38.2098 31.9 38.5141 31.8036 38.813C31.7072 39.1125 31.558 39.3818 31.356 39.6208C31.1474 39.8678 30.8972 40.0646 30.6054 40.2111C30.2975 40.3651 29.9739 40.4541 29.6345 40.4779C29.3052 40.5011 28.9823 40.4621 28.6657 40.361C28.3495 40.2601 28.0646 40.1051 27.811 39.8959C27.5498 39.6805 27.3379 39.4188 27.1755 39.1108L25.676 36.2917Z" fill-rule="evenodd"  fill="#000000" >
</path>
</svg>
