<svg xmlns="http://www.w3.org/2000/svg" xmlns:xlink="http://www.w3.org/1999/xlink" width="48" height="48" viewBox="0 0 48 48" fill="none">
<path d="M30.5601 16.44C30.8501 16.73 31.0001 17.09 31.0001 17.5C31.0001 17.91 30.8501 18.27 30.5601 18.56C30.2701 18.85 29.9101 19 29.5001 19C29.0901 19 28.7301 18.85 28.4401 18.56C28.1501 18.27 28.0001 17.91 28.0001 17.5C28.0001 17.09 28.1501 16.73 28.4401 16.44C28.7301 16.15 29.0901 16 29.5001 16C29.9101 16 30.2701 16.15 30.5601 16.44ZM8.62387 27.9027C8.53193 27.6694 8.48244 27.4219 8.48244 27.1532C8.48244 26.8986 8.52487 26.6441 8.62387 26.4037C8.72285 26.1632 8.86427 25.937 9.05519 25.7461L25.1913 9.34123C25.3752 9.15738 25.5944 9.00889 25.8419 8.90282C26.0894 8.79676 26.351 8.74726 26.6197 8.74726L39.0506 8.78968L39.0648 20.0892C39.0648 20.3438 39.0153 20.6054 38.9163 20.8458C38.8102 21.0933 38.6617 21.3125 38.4779 21.4963L21.6558 38.3184C21.4649 38.5093 21.2457 38.6578 20.9911 38.7568C20.7507 38.8558 20.5032 38.9053 20.2345 38.9053C19.98 38.9053 19.7254 38.8629 19.485 38.7639C19.2375 38.6578 19.0183 38.5093 18.8274 38.3184L9.06935 28.5603C8.87843 28.3694 8.72993 28.1502 8.62387 27.9027ZM27.3601 12.43C28.0401 12.14 28.7601 12 29.5001 12C30.2401 12 30.9601 12.14 31.6401 12.43C32.3001 12.71 32.8801 13.11 33.3901 13.61C33.8901 14.12 34.2901 14.7 34.5701 15.36C34.8601 16.04 35.0001 16.76 35.0001 17.5C35.0001 18.24 34.8601 18.96 34.5701 19.64C34.2901 20.3 33.8901 20.88 33.3901 21.39C32.8801 21.89 32.3001 22.29 31.6401 22.57C30.9601 22.86 30.2401 23 29.5001 23C28.7601 23 28.0401 22.86 27.3601 22.57C26.7001 22.29 26.1201 21.89 25.6101 21.39C25.1101 20.88 24.7101 20.3 24.4301 19.64C24.1401 18.96 24.0001 18.24 24.0001 17.5C24.0001 16.76 24.1401 16.04 24.4301 15.36C24.7101 14.7 25.1101 14.12 25.6101 13.61C26.1201 13.11 26.7001 12.71 27.3601 12.43ZM41.3063 24.3248L24.4842 41.1468C23.9044 41.7267 23.2468 42.158 22.4973 42.4691C21.7689 42.759 21.0265 42.9075 20.2345 42.9075C19.4567 42.9075 18.7001 42.759 17.9859 42.4691C17.2293 42.1651 16.5717 41.7196 15.9989 41.1468L6.24092 31.3888C5.66816 30.816 5.22975 30.1655 4.91862 29.4159C4.63578 28.6947 4.48729 27.9522 4.48022 27.1673C4.48022 26.3895 4.62164 25.64 4.91155 24.9258C5.20854 24.1763 5.63988 23.5187 6.20556 22.9388L22.3346 6.54108C22.9003 5.96126 23.5579 5.51578 24.3074 5.20465C25.0499 4.90059 25.8207 4.7521 26.6338 4.74503L40.0547 4.8016L40.0618 4.79453C40.4648 4.8016 40.8537 4.87938 41.2214 5.03494C41.5821 5.18344 41.8932 5.39557 42.176 5.67841C42.4518 5.95419 42.6639 6.26531 42.8124 6.62594C42.9751 7.0007 43.0528 7.38961 43.0458 7.79266L43.0599 20.0821C43.067 20.8812 42.9114 21.6448 42.6003 22.3802C42.3033 23.1156 41.8649 23.7662 41.3063 24.3248Z" fill-rule="evenodd"  fill="#000000" >
</path>
</svg>
