<svg xmlns="http://www.w3.org/2000/svg" xmlns:xlink="http://www.w3.org/1999/xlink" width="48" height="48" viewBox="0 0 48 48" fill="none">
<path d="M38.83 38.83C38.46 39.2 38.03 39.48 37.55 39.69C37.06 39.9 36.54 40 36 40L12 40C11.46 40 10.94 39.9 10.45 39.69C9.97 39.48 9.54 39.2 9.17 38.83C8.8 38.46 8.52 38.03 8.31 37.55C8.1 37.06 8 36.54 8 36L8 12C8 11.46 8.1 10.94 8.31 10.45C8.52 9.97 8.8 9.54 9.17 9.17C9.54 8.8 9.97 8.52 10.45 8.31C10.94 8.1 11.46 8 12 8L36 8C36.54 8 37.06 8.1 37.55 8.31C38.03 8.52 38.46 8.8 38.83 9.17C39.2 9.54 39.48 9.97 39.69 10.45C39.9 10.94 40 11.46 40 12L40 36C40 36.54 39.9 37.06 39.69 37.55C39.48 38.03 39.2 38.46 38.83 38.83ZM6.34 6.34C7.08 5.61 7.93 5.04 8.89 4.63C9.88 4.21 10.92 4 12 4L36 4C37.08 4 38.12 4.21 39.11 4.63C40.07 5.04 40.92 5.61 41.66 6.34C42.39 7.08 42.96 7.93 43.37 8.89C43.79 9.88 44 10.92 44 12L44 36C44 37.08 43.79 38.12 43.37 39.11C42.96 40.07 42.39 40.92 41.66 41.66C40.92 42.39 40.07 42.96 39.11 43.37C38.12 43.79 37.08 44 36 44L12 44C10.92 44 9.88 43.79 8.89 43.37C7.93 42.96 7.08 42.39 6.34 41.66C5.61 40.92 5.04 40.07 4.63 39.11C4.21 38.12 4 37.08 4 36L4 12C4 10.92 4.21 9.88 4.63 8.89C5.04 7.93 5.61 7.08 6.34 6.34ZM12.7782 21.7443C13.0893 20.9948 13.5278 20.3301 14.1005 19.7574L19.7574 14.1005C20.3301 13.5278 20.9948 13.0893 21.7443 12.7782C22.4656 12.4954 23.2151 12.3398 24 12.3469C24.7849 12.3398 25.5344 12.4954 26.2557 12.7782C27.0052 13.0893 27.6699 13.5278 28.2426 14.1005L33.8995 19.7574C34.4723 20.3301 34.9107 20.9948 35.2218 21.7443C35.5046 22.4656 35.6602 23.2151 35.6531 24C35.6602 24.7849 35.5046 25.5344 35.2218 26.2557C34.9107 27.0052 34.4723 27.6699 33.8995 28.2426L28.2426 33.8995C27.6699 34.4723 27.0052 34.9107 26.2557 35.2218C25.5344 35.5046 24.7849 35.6602 24 35.6531C23.2151 35.6602 22.4656 35.5046 21.7443 35.2218C20.9948 34.9107 20.3301 34.4723 19.7574 33.8995L14.1005 28.2426C13.5278 27.6699 13.0893 27.0052 12.7782 26.2557C12.4954 25.5344 12.3398 24.7849 12.3469 24C12.3398 23.2151 12.4954 22.4656 12.7782 21.7443ZM16.4905 24.7495C16.3915 24.5091 16.342 24.2616 16.3491 24C16.342 23.7384 16.3915 23.4909 16.4905 23.2505C16.5895 22.9959 16.738 22.7767 16.9289 22.5858L22.5858 16.9289C22.7767 16.738 22.9959 16.5895 23.2505 16.4905C23.4909 16.3915 23.7384 16.342 24 16.3491C24.2616 16.342 24.5091 16.3915 24.7495 16.4905C25.0041 16.5895 25.2233 16.738 25.4142 16.9289L31.0711 22.5858C31.262 22.7767 31.4105 22.9959 31.5095 23.2505C31.6085 23.4909 31.658 23.7384 31.6509 24C31.658 24.2616 31.6085 24.5091 31.5095 24.7495C31.4105 25.0041 31.262 25.2233 31.0711 25.4142L25.4142 31.0711C25.2233 31.262 25.0041 31.4105 24.7495 31.5095C24.5091 31.6085 24.2616 31.658 24 31.6509C23.7384 31.658 23.4909 31.6085 23.2505 31.5095C22.9959 31.4105 22.7767 31.262 22.5858 31.0711L16.9289 25.4142C16.738 25.2233 16.5895 25.0041 16.4905 24.7495Z" fill-rule="evenodd"  fill="#000000" >
</path>
</svg>
