<svg xmlns="http://www.w3.org/2000/svg" xmlns:xlink="http://www.w3.org/1999/xlink" width="48" height="48" viewBox="0 0 48 48" fill="none">
<path d="M42.6899 12.5112L35.7083 6.527C35.2751 6.16014 35 5.61219 35 5C35 3.89543 35.8954 3 37 3C37.5011 3 37.9591 3.18427 38.31 3.48874L45.2917 9.47302C45.725 9.83989 46 10.3878 46 11C46 12.1046 45.1046 13 44 13C43.4989 13 43.0409 12.8157 42.6899 12.5112ZM22.5 45C33.2696 45 42 36.2696 42 25.5C42 14.7304 33.2696 6 22.5 6C11.7304 6 3 14.7304 3 25.5C3 36.2696 11.7304 45 22.5 45ZM24.499 17C24.499 15.8954 23.6036 15 22.499 15C21.3944 15 20.499 15.8954 20.499 17L20.499 24.0357C19.3039 24.7275 18.5 26.0198 18.5 27.5C18.5 29.7091 20.2909 31.5 22.5 31.5C24.7091 31.5 26.5 29.7091 26.5 27.5C26.5 26.019 25.6952 24.726 24.499 24.0346L24.499 17Z" fill-rule="evenodd"  fill="#000000" >
</path>
</svg>
