<svg xmlns="http://www.w3.org/2000/svg" xmlns:xlink="http://www.w3.org/1999/xlink" width="48" height="48" viewBox="0 0 48 48" fill="none">
<path d="M4 12L4 14L44 14L44 12C44 7.58172 40.4183 4 36 4L12 4C7.58172 4 4 7.58172 4 12ZM12 44C7.58172 44 4 40.4183 4 36L4 18L44 18L44 36C44 40.4183 40.4183 44 36 44L12 44ZM32.47 28.251C32.3087 28.449 32.096 28.6727 31.832 28.922L25.232 35.038L25.232 37.942L36.87 37.942L36.87 34.818L30.072 34.818L33.834 31.342C34.406 30.7993 34.8827 30.308 35.264 29.868C35.6453 29.428 35.9497 29.0173 36.177 28.636C36.4043 28.2547 36.562 27.8917 36.65 27.547C36.738 27.2023 36.782 26.8613 36.782 26.524C36.782 25.9373 36.6573 25.347 36.408 24.753C36.1587 24.159 35.7957 23.6237 35.319 23.147C34.8423 22.6703 34.263 22.2817 33.581 21.981C32.899 21.6803 32.118 21.53 31.238 21.53C29.3753 21.53 27.9087 21.9993 26.838 22.938C25.7673 23.8767 25.232 25.27 25.232 27.118L28.994 27.118C28.994 26.414 29.203 25.8897 29.621 25.545C30.039 25.2003 30.556 25.028 31.172 25.028C31.7 25.028 32.1437 25.182 32.503 25.49C32.8623 25.798 33.042 26.172 33.042 26.612C33.042 26.8027 33.0273 26.9823 32.998 27.151C32.9687 27.3197 32.9137 27.4957 32.833 27.679C32.7523 27.8623 32.6313 28.053 32.47 28.251ZM17.312 25.71L17.312 37.942L20.568 37.942L20.568 21.992L17.818 21.992L13.044 24.434L13.044 27.756L17.312 25.71Z" fill-rule="evenodd"  fill="#000000" >
</path>
</svg>
