<svg xmlns="http://www.w3.org/2000/svg" xmlns:xlink="http://www.w3.org/1999/xlink" width="48" height="48" viewBox="0 0 48 48" fill="none">
<path d="M4 36C4 40.4183 7.58172 44 12 44L36 44C40.4183 44 44 40.4183 44 36L44 18L4 18L4 36ZM4 14L44 14L44 12C44 7.58172 40.4183 4 36 4L12 4C7.58172 4 4 7.58172 4 12L4 14ZM18.6816 25.0939L11.4436 25.0939L11.4436 21.9919L22.5976 21.9919L22.5976 25.7319L18.3076 27.9099L18.3076 27.9319C19.1436 27.9319 19.9906 28.1629 19.9906 28.1629C20.8376 28.3939 21.5196 28.9659 21.5196 28.9659C22.2016 29.5379 22.6306 30.5059 22.6306 30.5059C23.0596 31.4739 23.0596 32.9479 23.0596 32.9479C23.0596 34.2899 22.5866 35.2579 22.5866 35.2579C22.1136 36.2259 21.2886 36.8639 21.2886 36.8639C20.4636 37.5019 19.3416 37.8099 19.3416 37.8099C18.2196 38.1179 16.9216 38.1179 16.9216 38.1179C15.5136 38.1179 14.3916 37.8319 14.3916 37.8319C13.2696 37.5459 12.4776 36.9299 12.4776 36.9299C11.6856 36.3139 11.2676 35.3349 11.2676 35.3349C10.8496 34.3559 10.8496 32.9919 10.8496 32.9919L14.5676 32.9919C14.5676 34.3339 15.2166 34.8399 15.2166 34.8399C15.8656 35.3459 17.0316 35.3459 17.0316 35.3459C17.5596 35.3459 17.9886 35.2249 17.9886 35.2249C18.4176 35.1039 18.7256 34.8179 18.7256 34.8179C19.0336 34.5319 19.2096 34.0369 19.2096 34.0369C19.3856 33.5419 19.3856 32.8159 19.3856 32.8159C19.3856 31.4959 18.8466 30.9569 18.8466 30.9569C18.3076 30.4179 16.8996 30.4179 16.8996 30.4179C16.4156 30.4179 15.8546 30.6489 15.8546 30.6489C15.2936 30.8799 14.8536 31.0559 14.8536 31.0559L13.8196 31.5179L12.4556 28.6139L18.6816 25.0939ZM30.4296 37.9419L30.4296 25.7099L26.1616 27.7559L26.1616 24.4339L30.9356 21.9919L33.6856 21.9919L33.6856 37.9419L30.4296 37.9419Z" fill-rule="evenodd"  fill="#000000" >
</path>
</svg>
