<svg xmlns="http://www.w3.org/2000/svg" xmlns:xlink="http://www.w3.org/1999/xlink" width="48" height="48" viewBox="0 0 48 48" fill="none">
<path d="M4 36L4 12C4 7.58172 7.58172 4 12 4L36 4C40.4183 4 44 7.58172 44 12L44 36C44 40.4183 40.4183 44 36 44L12 44C7.58172 44 4 40.4183 4 36ZM40 13.9972L40 12C40 9.79086 38.2091 8 36 8L12 8C9.79086 8 8 9.79086 8 12L8 13.9517L40 13.9972ZM8 17.9517L40 17.9972L40 36C40 38.2091 38.2091 40 36 40L12 40C9.79086 40 8 38.2091 8 36L8 17.9517ZM18.8523 27.251C18.8523 27.251 18.6103 27.548 18.2143 27.922L11.6143 34.038L11.6143 36.942L23.2523 36.942L23.2523 33.818L16.4543 33.818L20.2163 30.342C20.2163 30.342 21.0743 29.528 21.6463 28.868C21.6463 28.868 22.2183 28.208 22.5593 27.636C22.5593 27.636 22.9003 27.064 23.0323 26.547C23.0323 26.547 23.1643 26.03 23.1643 25.524C23.1643 25.524 23.1643 24.644 22.7903 23.753C22.7903 23.753 22.4163 22.862 21.7013 22.147C21.7013 22.147 20.9863 21.432 19.9633 20.981C19.9633 20.981 18.9403 20.53 17.6203 20.53C17.6203 20.53 14.8263 20.53 13.2203 21.938C13.2203 21.938 11.6143 23.346 11.6143 26.118L15.3763 26.118C15.3763 26.118 15.3763 25.062 16.0033 24.545C16.0033 24.545 16.6303 24.028 17.5543 24.028C17.5543 24.028 18.3463 24.028 18.8853 24.49C18.8853 24.49 19.4243 24.952 19.4243 25.612C19.4243 25.612 19.4243 25.898 19.3803 26.151C19.3803 26.151 19.3363 26.404 19.2153 26.679C19.2153 26.679 19.0943 26.954 18.8523 27.251ZM25.5623 24.094L32.8003 24.094L26.5743 27.614L27.9383 30.518L28.9723 30.056C28.9723 30.056 29.4123 29.88 29.9733 29.649C29.9733 29.649 30.5343 29.418 31.0183 29.418C31.0183 29.418 32.4263 29.418 32.9653 29.957C32.9653 29.957 33.5043 30.496 33.5043 31.816C33.5043 31.816 33.5043 32.542 33.3283 33.037C33.3283 33.037 33.1523 33.532 32.8443 33.818C32.8443 33.818 32.5363 34.104 32.1073 34.225C32.1073 34.225 31.6783 34.346 31.1503 34.346C31.1503 34.346 29.9843 34.346 29.3353 33.84C29.3353 33.84 28.6863 33.334 28.6863 31.992L24.9683 31.992C24.9683 31.992 24.9683 33.356 25.3863 34.335C25.3863 34.335 25.8043 35.314 26.5963 35.93C26.5963 35.93 27.3883 36.546 28.5103 36.832C28.5103 36.832 29.6323 37.118 31.0403 37.118C31.0403 37.118 32.3383 37.118 33.4603 36.81C33.4603 36.81 34.5823 36.502 35.4073 35.864C35.4073 35.864 36.2323 35.226 36.7053 34.258C36.7053 34.258 37.1783 33.29 37.1783 31.948C37.1783 31.948 37.1783 30.474 36.7493 29.506C36.7493 29.506 36.3203 28.538 35.6383 27.966C35.6383 27.966 34.9563 27.394 34.1093 27.163C34.1093 27.163 33.2623 26.932 32.4263 26.932L32.4263 26.91L36.7163 24.732L36.7163 20.992L25.5623 20.992L25.5623 24.094Z" fill-rule="evenodd"  fill="#000000" >
</path>
</svg>
