<svg xmlns="http://www.w3.org/2000/svg" xmlns:xlink="http://www.w3.org/1999/xlink" width="48" height="48" viewBox="0 0 48 48" fill="none">
<path d="M12 44C7.58172 44 4 40.4183 4 36L4 18L44 18L44 36C44 40.4183 40.4183 44 36 44L12 44ZM44 14L44 12C44 7.58172 40.4183 4 36 4L12 4C7.58172 4 4 7.58172 4 12L4 14L44 14ZM31.3263 31.804C31.2163 31.848 30.9413 31.859 30.9413 31.859C30.6663 31.87 30.4903 31.87 30.4903 31.87C29.0163 31.87 27.8833 31.43 27.8833 31.43C26.7503 30.99 25.9803 30.286 25.9803 30.286C25.2103 29.582 24.8253 28.669 24.8253 28.669C24.4403 27.756 24.4403 26.81 24.4403 26.81C24.4403 25.468 24.9353 24.467 24.9353 24.467C25.4303 23.466 26.2993 22.795 26.2993 22.795C27.1683 22.124 28.3233 21.794 28.3233 21.794C29.4783 21.464 30.7983 21.464 30.7983 21.464C32.1183 21.464 33.2733 21.805 33.2733 21.805C34.4283 22.146 35.3083 22.817 35.3083 22.817C36.1883 23.488 36.6943 24.489 36.6943 24.489C37.2003 25.49 37.2003 26.81 37.2003 26.81C37.2003 28.02 36.7273 29.164 36.7273 29.164C36.2543 30.308 35.5503 31.342 35.5503 31.342L31.0183 37.942L27.0143 37.942L31.3263 31.804ZM18.2143 28.922C18.6103 28.548 18.8523 28.251 18.8523 28.251C19.0943 27.954 19.2153 27.679 19.2153 27.679C19.3363 27.404 19.3803 27.151 19.3803 27.151C19.4243 26.898 19.4243 26.612 19.4243 26.612C19.4243 25.952 18.8853 25.49 18.8853 25.49C18.3463 25.028 17.5543 25.028 17.5543 25.028C16.6303 25.028 16.0033 25.545 16.0033 25.545C15.3763 26.062 15.3763 27.118 15.3763 27.118L11.6143 27.118C11.6143 24.346 13.2203 22.938 13.2203 22.938C14.8263 21.53 17.6203 21.53 17.6203 21.53C18.9403 21.53 19.9633 21.981 19.9633 21.981C20.9863 22.432 21.7013 23.147 21.7013 23.147C22.4163 23.862 22.7903 24.753 22.7903 24.753C23.1643 25.644 23.1643 26.524 23.1643 26.524C23.1643 27.03 23.0323 27.547 23.0323 27.547C22.9003 28.064 22.5593 28.636 22.5593 28.636C22.2183 29.208 21.6463 29.868 21.6463 29.868C21.0743 30.528 20.2163 31.342 20.2163 31.342L16.4543 34.818L23.2523 34.818L23.2523 37.942L11.6143 37.942L11.6143 35.038L18.2143 28.922ZM33.9223 26.81C33.9223 26.106 33.6913 25.589 33.6913 25.589C33.4603 25.072 33.0423 24.742 33.0423 24.742C32.6243 24.412 32.0523 24.258 32.0523 24.258C31.4803 24.104 30.8203 24.104 30.8203 24.104C29.4563 24.104 28.6203 24.742 28.6203 24.742C27.7843 25.38 27.7843 26.81 27.7843 26.81C27.7843 28.086 28.6093 28.658 28.6093 28.658C29.4343 29.23 30.8203 29.23 30.8203 29.23C32.4263 29.23 33.1743 28.603 33.1743 28.603C33.9223 27.976 33.9223 26.81 33.9223 26.81Z" fill-rule="evenodd"  fill="#000000" >
</path>
</svg>
