<svg xmlns="http://www.w3.org/2000/svg" xmlns:xlink="http://www.w3.org/1999/xlink" width="48" height="48" viewBox="0 0 48 48" fill="none">
<path d="M4 36C4 40.4183 7.58172 44 12 44L36 44C40.4183 44 44 40.4183 44 36L44 18L4 18L4 36ZM4 14L44 14L44 12C44 7.58172 40.4183 4 36 4L12 4C7.58172 4 4 7.58172 4 12L4 14ZM17.3119 37.9419L17.3119 25.7099L13.0439 27.7559L13.0439 24.4339L17.8179 21.9919L20.5679 21.9919L20.5679 37.9419L17.3119 37.9419ZM30.9299 37.9419L30.9299 25.7099L26.6619 27.7559L26.6619 24.4339L31.4359 21.9919L34.1859 21.9919L34.1859 37.9419L30.9299 37.9419Z" fill-rule="evenodd"  fill="#000000" >
</path>
</svg>
