<svg xmlns="http://www.w3.org/2000/svg" xmlns:xlink="http://www.w3.org/1999/xlink" width="48" height="48" viewBox="0 0 48 48" fill="none">
<path d="M4 36L4 12C4 7.58172 7.58172 4 12 4L36 4C40.4183 4 44 7.58172 44 12L44 36C44 40.4183 40.4183 44 36 44L12 44C7.58172 44 4 40.4183 4 36ZM40 13.9972L40 12C40 9.79086 38.2091 8 36 8L12 8C9.79086 8 8 9.79086 8 12L8 13.9517L40 13.9972ZM8 17.9517L40 17.9972L40 36C40 38.2091 38.2091 40 36 40L12 40C9.79086 40 8 38.2091 8 36L8 17.9517ZM31.4699 27.251C31.4699 27.251 31.2279 27.548 30.8319 27.922L24.2319 34.038L24.2319 36.942L35.8699 36.942L35.8699 33.818L29.0719 33.818L32.8339 30.342C32.8339 30.342 33.6919 29.528 34.2639 28.868C34.2639 28.868 34.8359 28.208 35.1769 27.636C35.1769 27.636 35.5179 27.064 35.6499 26.547C35.6499 26.547 35.7819 26.03 35.7819 25.524C35.7819 25.524 35.7819 24.644 35.4079 23.753C35.4079 23.753 35.0339 22.862 34.3189 22.147C34.3189 22.147 33.6039 21.432 32.5809 20.981C32.5809 20.981 31.5579 20.53 30.2379 20.53C30.2379 20.53 27.4439 20.53 25.8379 21.938C25.8379 21.938 24.2319 23.346 24.2319 26.118L27.9939 26.118C27.9939 26.118 27.9939 25.062 28.6209 24.545C28.6209 24.545 29.2479 24.028 30.1719 24.028C30.1719 24.028 30.9639 24.028 31.5029 24.49C31.5029 24.49 32.0419 24.952 32.0419 25.612C32.0419 25.612 32.0419 25.898 31.9979 26.151C31.9979 26.151 31.9539 26.404 31.8329 26.679C31.8329 26.679 31.7119 26.954 31.4699 27.251ZM16.3119 24.71L16.3119 36.942L19.5679 36.942L19.5679 20.992L16.8179 20.992L12.0439 23.434L12.0439 26.756L16.3119 24.71Z" fill-rule="evenodd"  fill="#000000" >
</path>
</svg>
