<svg xmlns="http://www.w3.org/2000/svg" xmlns:xlink="http://www.w3.org/1999/xlink" width="48" height="48" viewBox="0 0 48 48" fill="none">
<path d="M4 36L4 12C4 7.58172 7.58172 4 12 4L36 4C40.4183 4 44 7.58172 44 12L44 36C44 40.4183 40.4183 44 36 44L12 44C7.58172 44 4 40.4183 4 36ZM40 13.9972L40 12C40 9.79086 38.2091 8 36 8L12 8C9.79086 8 8 9.79086 8 12L8 13.9517L40 13.9972ZM8 17.9517L40 17.9972L40 36C40 38.2091 38.2091 40 36 40L12 40C9.79086 40 8 38.2091 8 36L8 17.9517ZM18.8523 27.251C18.8523 27.251 18.6103 27.548 18.2143 27.922L11.6143 34.038L11.6143 36.942L23.2523 36.942L23.2523 33.818L16.4543 33.818L20.2163 30.342C20.2163 30.342 21.0743 29.528 21.6463 28.868C21.6463 28.868 22.2183 28.208 22.5593 27.636C22.5593 27.636 22.9003 27.064 23.0323 26.547C23.0323 26.547 23.1643 26.03 23.1643 25.524C23.1643 25.524 23.1643 24.644 22.7903 23.753C22.7903 23.753 22.4163 22.862 21.7013 22.147C21.7013 22.147 20.9863 21.432 19.9633 20.981C19.9633 20.981 18.9403 20.53 17.6203 20.53C17.6203 20.53 14.8263 20.53 13.2203 21.938C13.2203 21.938 11.6143 23.346 11.6143 26.118L15.3763 26.118C15.3763 26.118 15.3763 25.062 16.0033 24.545C16.0033 24.545 16.6303 24.028 17.5543 24.028C17.5543 24.028 18.3463 24.028 18.8853 24.49C18.8853 24.49 19.4243 24.952 19.4243 25.612C19.4243 25.612 19.4243 25.898 19.3803 26.151C19.3803 26.151 19.3363 26.404 19.2153 26.679C19.2153 26.679 19.0943 26.954 18.8523 27.251ZM29.9293 26.14C29.9293 26.14 29.2143 26.25 28.6643 26.624L28.9503 23.918L36.2103 23.918L36.2103 20.992L25.9803 20.992L24.8583 29.418L27.8723 30.342C27.8723 30.342 28.4443 29.572 29.1043 29.264C29.1043 29.264 29.7643 28.956 30.7763 28.956C30.7763 28.956 31.4143 28.956 31.9643 29.11C31.9643 29.11 32.5143 29.264 32.9213 29.572C32.9213 29.572 33.3283 29.88 33.5703 30.342C33.5703 30.342 33.8123 30.804 33.8123 31.42C33.8123 31.42 33.8123 31.992 33.6143 32.498C33.6143 32.498 33.4163 33.004 33.0423 33.378C33.0423 33.378 32.6683 33.752 32.0963 33.972C32.0963 33.972 31.5243 34.192 30.7763 34.192C30.7763 34.192 30.1823 34.192 29.6873 34.082C29.6873 34.082 29.1923 33.972 28.8073 33.697C28.8073 33.697 28.4223 33.422 28.1583 32.971C28.1583 32.971 27.8943 32.52 27.7843 31.838L24.4623 32.344C24.4623 32.344 24.6163 33.488 25.1443 34.368C25.1443 34.368 25.6723 35.248 26.4973 35.864C26.4973 35.864 27.3223 36.48 28.4223 36.799C28.4223 36.799 29.5223 37.118 30.7983 37.118C30.7983 37.118 32.1843 37.118 33.3393 36.755C33.3393 36.755 34.4943 36.392 35.3303 35.677C35.3303 35.677 36.1663 34.962 36.6283 33.895C36.6283 33.895 37.0903 32.828 37.0903 31.442C37.0903 31.442 37.0903 28.736 35.5723 27.383C35.5723 27.383 34.0543 26.03 31.1283 26.03C31.1283 26.03 30.6443 26.03 29.9293 26.14Z" fill-rule="evenodd"  fill="#000000" >
</path>
</svg>
