<svg xmlns="http://www.w3.org/2000/svg" xmlns:xlink="http://www.w3.org/1999/xlink" width="48" height="48" viewBox="0 0 48 48" fill="none">
<path d="M38.83 9.17C39.2 9.54 39.48 9.97 39.69 10.45C39.9 10.94 40 11.46 40 12L40 14L8 13.95L8 12C8 11.46 8.1 10.94 8.31 10.45C8.52 9.97 8.8 9.54 9.17 9.17C9.54 8.8 9.97 8.52 10.45 8.31C10.94 8.1 11.46 8 12 8L36 8C36.54 8 37.06 8.1 37.55 8.31C38.03 8.52 38.46 8.8 38.83 9.17ZM40 36C40 36.54 39.9 37.06 39.69 37.55C39.48 38.03 39.2 38.46 38.83 38.83C38.46 39.2 38.03 39.48 37.55 39.69C37.06 39.9 36.54 40 36 40L12 40C11.46 40 10.94 39.9 10.45 39.69C9.97 39.48 9.54 39.2 9.17 38.83C8.8 38.46 8.52 38.03 8.31 37.55C8.1 37.06 8 36.54 8 36L8 17.95L40 18L40 36ZM31.5 25C31.5 26.38 32.62 27.5 34 27.5C35.38 27.5 36.5 26.38 36.5 25C36.5 23.62 35.38 22.5 34 22.5C32.62 22.5 31.5 23.62 31.5 25ZM4.63 8.89C5.04 7.93 5.61 7.08 6.34 6.34C7.08 5.61 7.93 5.04 8.89 4.63C9.88 4.21 10.92 4 12 4L36 4C37.08 4 38.12 4.21 39.11 4.63C40.07 5.04 40.92 5.61 41.66 6.34C42.39 7.08 42.96 7.93 43.37 8.89C43.79 9.88 44 10.92 44 12L44 36C44 37.08 43.79 38.12 43.37 39.11C42.96 40.07 42.39 40.92 41.66 41.66C40.92 42.39 40.07 42.96 39.11 43.37C38.12 43.79 37.08 44 36 44L12 44C10.92 44 9.88 43.79 8.89 43.37C7.93 42.96 7.08 42.39 6.34 41.66C5.61 40.92 5.04 40.07 4.63 39.11C4.21 38.12 4 37.08 4 36L4 12C4 10.92 4.21 9.88 4.63 8.89ZM24 29.5C22.62 29.5 21.5 30.62 21.5 32C21.5 33.38 22.62 34.5 24 34.5C25.38 34.5 26.5 33.38 26.5 32C26.5 30.62 25.38 29.5 24 29.5ZM16.5 25C16.5 26.38 15.38 27.5 14 27.5C12.62 27.5 11.5 26.38 11.5 25C11.5 23.62 12.62 22.5 14 22.5C15.38 22.5 16.5 23.62 16.5 25ZM24 22.5C25.38 22.5 26.5 23.62 26.5 25C26.5 26.38 25.38 27.5 24 27.5C22.62 27.5 21.5 26.38 21.5 25C21.5 23.62 22.62 22.5 24 22.5ZM14 29.5C15.38 29.5 16.5 30.62 16.5 32C16.5 33.38 15.38 34.5 14 34.5C12.62 34.5 11.5 33.38 11.5 32C11.5 30.62 12.62 29.5 14 29.5Z" fill-rule="evenodd"  fill="#000000" >
</path>
</svg>
