<svg xmlns="http://www.w3.org/2000/svg" xmlns:xlink="http://www.w3.org/1999/xlink" width="48" height="48" viewBox="0 0 48 48" fill="none">
<path d="M4 12L4 14L44 14L44 12C44 7.58172 40.4183 4 36 4L12 4C7.58172 4 4 7.58172 4 12ZM12 44C7.58172 44 4 40.4183 4 36L4 18L44 18L44 36C44 40.4183 40.4183 44 36 44L12 44ZM17.312 25.71L17.312 37.942L20.568 37.942L20.568 21.992L17.818 21.992L13.044 24.434L13.044 27.756L17.312 25.71ZM25.562 25.094L32.8 25.094L26.574 28.614L27.938 31.518L28.972 31.056C29.2653 30.9387 29.599 30.803 29.973 30.649C30.347 30.495 30.6953 30.418 31.018 30.418C31.9567 30.418 32.6057 30.5977 32.965 30.957C33.3243 31.3163 33.504 31.936 33.504 32.816C33.504 33.3 33.4453 33.707 33.328 34.037C33.2107 34.367 33.0493 34.6273 32.844 34.818C32.6387 35.0087 32.393 35.1443 32.107 35.225C31.821 35.3057 31.502 35.346 31.15 35.346C30.3727 35.346 29.7677 35.1773 29.335 34.84C28.9023 34.5027 28.686 33.8867 28.686 32.992L24.968 32.992C24.968 33.9013 25.1073 34.6823 25.386 35.335C25.6647 35.9877 26.068 36.5193 26.596 36.93C27.124 37.3407 27.762 37.6413 28.51 37.832C29.258 38.0227 30.1013 38.118 31.04 38.118C31.9053 38.118 32.712 38.0153 33.46 37.81C34.208 37.6047 34.857 37.2893 35.407 36.864C35.957 36.4387 36.3897 35.9033 36.705 35.258C37.0203 34.6127 37.178 33.8427 37.178 32.948C37.178 31.9653 37.035 31.1513 36.749 30.506C36.463 29.8607 36.0927 29.3473 35.638 28.966C35.1833 28.5847 34.6737 28.317 34.109 28.163C33.5443 28.009 32.9833 27.932 32.426 27.932L32.426 27.91L36.716 25.732L36.716 21.992L25.562 21.992L25.562 25.094Z" fill-rule="evenodd"  fill="#000000" >
</path>
</svg>
