<svg xmlns="http://www.w3.org/2000/svg" xmlns:xlink="http://www.w3.org/1999/xlink" width="48" height="48" viewBox="0 0 48 48" fill="none">
<path d="M4 12L4 14L44 14L44 12C44 7.58172 40.4183 4 36 4L12 4C7.58172 4 4 7.58172 4 12ZM12 44C7.58172 44 4 40.4183 4 36L4 18L44 18L44 36C44 40.4183 40.4183 44 36 44L12 44ZM21.723 32.442L26.651 21.992L22.911 21.992L18.093 31.826L18.093 35.566L24.869 35.566L24.869 37.942L28.323 37.942L28.323 35.566L29.973 35.566L29.973 32.442L28.323 32.442L28.323 27.162L24.869 27.162L24.869 32.442L21.723 32.442Z" fill-rule="evenodd"  fill="#000000" >
</path>
</svg>
