<svg xmlns="http://www.w3.org/2000/svg" xmlns:xlink="http://www.w3.org/1999/xlink" width="48" height="48" viewBox="0 0 48 48" fill="none">
<path d="M4 36L4 12C4 7.58172 7.58172 4 12 4L36 4C40.4183 4 44 7.58172 44 12L44 36C44 40.4183 40.4183 44 36 44L12 44C7.58172 44 4 40.4183 4 36ZM40 13.9972L40 12C40 9.79086 38.2091 8 36 8L12 8C9.79086 8 8 9.79086 8 12L8 13.9517L40 13.9972ZM8 17.9517L40 17.9972L40 36C40 38.2091 38.2091 40 36 40L12 40C9.79086 40 8 38.2091 8 36L8 17.9517ZM17.3119 24.7099L17.3119 36.9419L20.5679 36.9419L20.5679 20.9919L17.8179 20.9919L13.0439 23.4339L13.0439 26.7559L17.3119 24.7099ZM30.9299 24.7099L30.9299 36.9419L34.1859 36.9419L34.1859 20.9919L31.4359 20.9919L26.6619 23.4339L26.6619 26.7559L30.9299 24.7099Z" fill-rule="evenodd"  fill="#000000" >
</path>
</svg>
