<svg xmlns="http://www.w3.org/2000/svg" xmlns:xlink="http://www.w3.org/1999/xlink" width="48" height="48" viewBox="0 0 48 48" fill="none">
<path d="M13.96 5.61C13.97 5.67 13.98 5.74 13.99 5.8C14 5.87 14 5.93 14 6C14 6.14 13.98 6.29 13.95 6.43C13.92 6.57 13.88 6.7 13.82 6.84C13.76 6.97 13.68 7.09 13.6 7.2C13.51 7.32 13.41 7.42 13.3 7.52L6.3 13.52C6.21 13.6 6.12 13.66 6.01 13.72C5.91 13.78 5.8 13.83 5.69 13.88C5.58 13.92 5.47 13.95 5.35 13.97C5.24 13.99 5.12 14 5 14C4.93 14 4.87 14 4.8 13.99C4.74 13.98 4.67 13.97 4.61 13.96C4.55 13.95 4.48 13.93 4.42 13.91C4.36 13.89 4.3 13.87 4.23 13.85C4.17 13.82 4.11 13.79 4.06 13.76C4 13.73 3.94 13.7 3.89 13.66C3.83 13.63 3.78 13.59 3.73 13.55C3.68 13.5 3.63 13.46 3.59 13.41C3.54 13.37 3.5 13.32 3.45 13.27C3.41 13.22 3.37 13.17 3.34 13.11C3.3 13.06 3.27 13 3.24 12.94C3.21 12.88 3.18 12.83 3.15 12.77C3.13 12.7 3.11 12.64 3.09 12.58C3.07 12.52 3.05 12.45 3.04 12.39C3.03 12.33 3.02 12.26 3.01 12.2C3 12.13 3 12.07 3 12C3 11.86 3.02 11.71 3.05 11.57C3.08 11.43 3.12 11.3 3.18 11.16C3.24 11.03 3.32 10.91 3.4 10.8C3.49 10.68 3.59 10.58 3.7 10.48L10.7 4.48C10.79 4.4 10.88 4.34 10.99 4.28C11.09 4.22 11.2 4.17 11.31 4.12C11.42 4.08 11.53 4.05 11.65 4.03C11.76 4.01 11.88 4 12 4C12.07 4 12.13 4 12.2 4.01C12.26 4.02 12.33 4.03 12.39 4.04C12.45 4.05 12.52 4.07 12.58 4.09C12.64 4.11 12.7 4.13 12.77 4.15C12.83 4.18 12.88 4.21 12.94 4.24C13 4.27 13.06 4.3 13.11 4.34C13.17 4.37 13.22 4.41 13.27 4.45C13.32 4.5 13.37 4.54 13.41 4.59C13.46 4.63 13.5 4.68 13.55 4.73C13.59 4.78 13.63 4.83 13.66 4.89C13.7 4.94 13.73 5 13.76 5.06C13.79 5.11 13.82 5.17 13.85 5.23C13.87 5.3 13.89 5.36 13.91 5.42C13.93 5.48 13.95 5.55 13.96 5.61ZM34.0399 5.61C34.0299 5.67 34.0199 5.74 34.0099 5.8C33.9999 5.87 33.9999 5.93 33.9999 6C33.9999 6.14 34.0199 6.29 34.0499 6.43C34.0799 6.57 34.1199 6.7 34.1799 6.84C34.2399 6.97 34.3199 7.09 34.3999 7.2C34.4899 7.32 34.5899 7.42 34.6999 7.52L41.6999 13.52C41.7899 13.6 41.8799 13.66 41.9899 13.72C42.0899 13.78 42.1999 13.83 42.3099 13.88C42.4199 13.92 42.5299 13.95 42.6499 13.97C42.7599 13.99 42.8799 14 42.9999 14C43.0699 14 43.1299 14 43.1999 13.99C43.2599 13.98 43.3299 13.97 43.3899 13.96C43.4499 13.95 43.5199 13.93 43.5799 13.91C43.6399 13.89 43.6999 13.87 43.7699 13.85C43.8299 13.82 43.8899 13.79 43.9399 13.76C43.9999 13.73 44.0599 13.7 44.1099 13.66C44.1699 13.63 44.2199 13.59 44.2699 13.55C44.3199 13.5 44.3699 13.46 44.4099 13.41C44.4599 13.37 44.4999 13.32 44.5499 13.27C44.5899 13.22 44.6299 13.17 44.6599 13.11C44.6999 13.06 44.7299 13 44.7599 12.94C44.7899 12.88 44.8199 12.83 44.8499 12.77C44.8699 12.7 44.8899 12.64 44.9099 12.58C44.9299 12.52 44.9499 12.45 44.9599 12.39C44.9699 12.33 44.9799 12.26 44.9899 12.2C44.9999 12.13 44.9999 12.07 44.9999 12C44.9999 11.86 44.9799 11.71 44.9499 11.57C44.9199 11.43 44.8799 11.3 44.8199 11.16C44.7599 11.03 44.6799 10.91 44.5999 10.8C44.5099 10.68 44.4099 10.58 44.2999 10.48L37.2999 4.48C37.2099 4.4 37.1199 4.34 37.0099 4.28C36.9099 4.22 36.7999 4.17 36.6899 4.12C36.5799 4.08 36.4699 4.05 36.3499 4.03C36.2399 4.01 36.1199 4 35.9999 4C35.9299 4 35.8699 4 35.7999 4.01C35.7399 4.02 35.6699 4.03 35.6099 4.04C35.5499 4.05 35.4799 4.07 35.4199 4.09C35.3599 4.11 35.2999 4.13 35.2299 4.15C35.1699 4.18 35.1199 4.21 35.0599 4.24C34.9999 4.27 34.9399 4.3 34.8899 4.34C34.8299 4.37 34.7799 4.41 34.7299 4.45C34.6799 4.5 34.6299 4.54 34.5899 4.59C34.5399 4.63 34.4999 4.68 34.4499 4.73C34.4099 4.78 34.3699 4.83 34.3399 4.89C34.2999 4.94 34.2699 5 34.2399 5.06C34.2099 5.11 34.1799 5.17 34.1499 5.23C34.1299 5.3 34.1099 5.36 34.0899 5.42C34.0699 5.48 34.0499 5.55 34.0399 5.61ZM16.6 8.49C18.96 7.5 21.42 7 24 7C26.58 7 29.04 7.5 31.4 8.49C33.67 9.46 35.68 10.81 37.44 12.56C39.19 14.32 40.54 16.33 41.51 18.6C42.5 20.96 43 23.42 43 26C43 28.58 42.5 31.04 41.51 33.4C40.54 35.67 39.19 37.68 37.44 39.44C35.68 41.19 33.67 42.54 31.4 43.51C29.04 44.5 26.58 45 24 45C21.42 45 18.96 44.5 16.6 43.51C14.33 42.54 12.32 41.19 10.56 39.44C8.80997 37.68 7.45997 35.67 6.48997 33.4C5.49997 31.04 4.99997 28.58 4.99997 26C4.99997 23.42 5.49997 20.96 6.48997 18.6C7.45997 16.33 8.80997 14.32 10.56 12.56C12.32 10.81 14.33 9.46 16.6 8.49ZM10.18 20.16C10.94 18.37 12.01 16.78 13.39 15.39C14.78 14.01 16.37 12.94 18.16 12.18C20.02 11.39 21.96 11 24 11C26.04 11 27.98 11.39 29.84 12.18C31.63 12.94 33.22 14.01 34.61 15.39C35.99 16.78 37.06 18.37 37.82 20.16C38.61 22.02 39 23.96 39 26C39 28.04 38.61 29.98 37.82 31.84C37.06 33.63 35.99 35.22 34.61 36.61C33.22 37.99 31.63 39.06 29.84 39.82C27.98 40.61 26.04 41 24 41C21.96 41 20.02 40.61 18.16 39.82C16.37 39.06 14.78 37.99 13.39 36.61C12.01 35.22 10.94 33.63 10.18 31.84C9.38997 29.98 8.99997 28.04 8.99997 26C8.99997 23.96 9.38997 22.02 10.18 20.16ZM25.99 15.8C26 15.87 26 15.93 26 16L26 25L29.1 23.44C29.39 23.3 29.68 23.23 30 23.23C30.07 23.23 30.13 23.23 30.2 23.24C30.26 23.25 30.33 23.26 30.39 23.27C30.45 23.28 30.52 23.3 30.58 23.32C30.64 23.34 30.7 23.36 30.77 23.38C30.83 23.41 30.89 23.44 30.94 23.47C31 23.5 31.06 23.53 31.11 23.57C31.17 23.6 31.22 23.64 31.27 23.68C31.32 23.73 31.37 23.77 31.41 23.82C31.46 23.86 31.5 23.91 31.55 23.96C31.59 24.01 31.63 24.07 31.66 24.12C31.7 24.17 31.73 24.23 31.76 24.29C31.79 24.35 31.82 24.4 31.85 24.47L31.91 24.65C31.93 24.71 31.95 24.78 31.96 24.84C31.97 24.9 31.98 24.97 31.99 25.03C32 25.1 32 25.17 32 25.23C32 25.33 31.99 25.42 31.98 25.51C31.97 25.61 31.95 25.7 31.92 25.79C31.89 25.88 31.86 25.97 31.82 26.05C31.78 26.14 31.74 26.22 31.69 26.3C31.64 26.38 31.58 26.46 31.52 26.53C31.46 26.6 31.39 26.67 31.32 26.73C31.25 26.79 31.18 26.85 31.1 26.9C31.02 26.96 30.93 27 30.85 27.04L25.56 29.69C25.15 29.9 24.7 30 24.23 30C23.93 30 23.65 29.94 23.38 29.83C23.1 29.72 22.86 29.56 22.65 29.35C22.44 29.14 22.28 28.9 22.17 28.62C22.06 28.35 22 28.07 22 27.77L22 16C22 15.93 22 15.87 22.01 15.8C22.02 15.74 22.03 15.67 22.04 15.61C22.05 15.55 22.07 15.48 22.09 15.42C22.11 15.36 22.13 15.3 22.15 15.23C22.18 15.17 22.21 15.11 22.24 15.06C22.27 15 22.3 14.94 22.34 14.89C22.37 14.83 22.41 14.78 22.45 14.73C22.5 14.68 22.54 14.63 22.59 14.59C22.63 14.54 22.68 14.5 22.73 14.45C22.78 14.41 22.84 14.37 22.89 14.34C22.94 14.3 23 14.27 23.06 14.24C23.12 14.21 23.17 14.18 23.24 14.15L23.42 14.09C23.48 14.07 23.55 14.05 23.61 14.04C23.67 14.03 23.74 14.02 23.8 14.01C23.87 14 23.94 14 24 14C24.07 14 24.13 14 24.2 14.01C24.26 14.02 24.33 14.03 24.39 14.04C24.46 14.05 24.52 14.07 24.58 14.09C24.64 14.11 24.71 14.13 24.77 14.15C24.83 14.18 24.89 14.21 24.94 14.24C25 14.27 25.06 14.3 25.11 14.34C25.17 14.37 25.22 14.41 25.27 14.45C25.32 14.5 25.37 14.54 25.41 14.59C25.46 14.63 25.51 14.68 25.55 14.73C25.59 14.78 25.63 14.83 25.66 14.89C25.7 14.94 25.73 15 25.76 15.06C25.8 15.11 25.82 15.17 25.85 15.23C25.87 15.3 25.9 15.36 25.91 15.42C25.93 15.48 25.95 15.55 25.96 15.61C25.98 15.67 25.98 15.74 25.99 15.8Z" fill-rule="evenodd"  fill="#000000" >
</path>
</svg>
