<svg xmlns="http://www.w3.org/2000/svg" xmlns:xlink="http://www.w3.org/1999/xlink" width="48" height="48" viewBox="0 0 48 48" fill="none">
<path d="M4 36L4 12C4 7.58172 7.58172 4 12 4L36 4C40.4183 4 44 7.58172 44 12L44 36C44 40.4183 40.4183 44 36 44L12 44C7.58172 44 4 40.4183 4 36ZM40 13.9972L40 12C40 9.79086 38.2091 8 36 8L12 8C9.79086 8 8 9.79086 8 12L8 13.9517L40 13.9972ZM8 17.9517L40 17.9972L40 36C40 38.2091 38.2091 40 36 40L12 40C9.79086 40 8 38.2091 8 36L8 17.9517ZM29.6323 29.572C29.6323 29.572 28.9393 28.494 27.7073 27.856C27.7073 27.856 28.5433 27.284 28.9833 26.536C28.9833 26.536 29.4233 25.788 29.4233 24.6C29.4233 24.6 29.4233 23.654 29.0493 22.873C29.0493 22.873 28.6753 22.092 27.9713 21.542C27.9713 21.542 27.2673 20.992 26.2773 20.684C26.2773 20.684 25.2873 20.376 24.0553 20.376C24.0553 20.376 22.8013 20.376 21.7783 20.695C21.7783 20.695 20.7553 21.014 20.0293 21.586C20.0293 21.586 19.3033 22.158 18.9073 22.95C18.9073 22.95 18.5113 23.742 18.5113 24.71C18.5113 24.71 18.5113 25.854 18.9403 26.591C18.9403 26.591 19.3693 27.328 20.1393 27.856C20.1393 27.856 18.9733 28.472 18.3353 29.561C18.3353 29.561 17.6973 30.65 17.6973 32.102C17.6973 32.102 17.6973 33.246 18.1263 34.159C18.1263 34.159 18.5553 35.072 19.3693 35.71C19.3693 35.71 20.1833 36.348 21.3383 36.7C21.3383 36.7 22.4933 37.052 23.9673 37.052C23.9673 37.052 25.4413 37.052 26.6183 36.7C26.6183 36.7 27.7953 36.348 28.6203 35.699C28.6203 35.699 29.4453 35.05 29.8853 34.137C29.8853 34.137 30.3253 33.224 30.3253 32.102C30.3253 32.102 30.3253 30.65 29.6323 29.572ZM22.4603 25.777C22.4603 25.777 21.8993 25.37 21.8993 24.666C21.8993 24.666 21.8993 23.94 22.4493 23.555C22.4493 23.555 22.9993 23.17 24.0113 23.17C24.0113 23.17 25.0233 23.17 25.5623 23.555C25.5623 23.555 26.1013 23.94 26.1013 24.666C26.1013 24.666 26.1013 25.392 25.5623 25.788C25.5623 25.788 25.0233 26.184 24.0333 26.184C24.0333 26.184 23.0213 26.184 22.4603 25.777ZM26.1013 30.551C26.1013 30.551 26.8493 31.112 26.8493 32.146C26.8493 32.146 26.8493 34.17 23.9013 34.17C23.9013 34.17 21.1513 34.17 21.1513 32.168C21.1513 32.168 21.1513 31.112 21.8883 30.551C21.8883 30.551 22.6253 29.99 23.9673 29.99C23.9673 29.99 25.3533 29.99 26.1013 30.551Z" fill-rule="evenodd"  fill="#000000" >
</path>
</svg>
