<svg xmlns="http://www.w3.org/2000/svg" xmlns:xlink="http://www.w3.org/1999/xlink" width="48" height="48" viewBox="0 0 48 48" fill="none">
<path d="M4 12L4 14L44 14L44 12C44 7.58172 40.4183 4 36 4L12 4C7.58172 4 4 7.58172 4 12ZM12 44C7.58172 44 4 40.4183 4 36L4 18L44 18L44 36C44 40.4183 40.4183 44 36 44L12 44ZM36.188 34.719C36.4373 34.0957 36.562 33.4393 36.562 32.75L36.562 26.546C36.562 25.9007 36.43 25.2773 36.166 24.676C35.902 24.0747 35.5207 23.543 35.022 23.081C34.5233 22.619 33.9147 22.2487 33.196 21.97C32.4773 21.6913 31.656 21.552 30.732 21.552C29.808 21.552 28.994 21.695 28.29 21.981C27.586 22.267 26.992 22.6447 26.508 23.114C26.024 23.5833 25.6573 24.115 25.408 24.709C25.1587 25.303 25.034 25.9153 25.034 26.546L25.034 32.75C25.034 33.454 25.1513 34.1177 25.386 34.741C25.6207 35.3643 25.9727 35.9143 26.442 36.391C26.9113 36.8677 27.5017 37.2417 28.213 37.513C28.9243 37.7843 29.764 37.92 30.732 37.92C31.6853 37.92 32.5213 37.7807 33.24 37.502C33.9587 37.2233 34.5673 36.8457 35.066 36.369C35.5647 35.8923 35.9387 35.3423 36.188 34.719ZM17.312 25.71L17.312 37.942L20.568 37.942L20.568 21.992L17.818 21.992L13.044 24.434L13.044 27.756L17.312 25.71ZM32.866 24.852C33.4087 25.3213 33.68 26.0107 33.68 26.92L33.68 32.728C33.68 33.4907 33.4123 34.103 32.877 34.565C32.3417 35.027 31.6267 35.258 30.732 35.258C29.852 35.258 29.159 35.027 28.653 34.565C28.147 34.103 27.894 33.4907 27.894 32.728L27.894 26.92C27.894 26.0107 28.1507 25.3213 28.664 24.852C29.1773 24.3827 29.8667 24.148 30.732 24.148C31.612 24.148 32.3233 24.3827 32.866 24.852Z" fill-rule="evenodd"  fill="#000000" >
</path>
</svg>
