<svg xmlns="http://www.w3.org/2000/svg" xmlns:xlink="http://www.w3.org/1999/xlink" width="48" height="48" viewBox="0 0 48 48" fill="none">
<path d="M36.02 36.02C34.45 37.59 32.65 38.8 30.61 39.66C28.51 40.55 26.31 41 24 41C21.69 41 19.49 40.55 17.39 39.66C15.35 38.8 13.55 37.59 11.98 36.02C10.41 34.45 9.2 32.65 8.34 30.61C7.45 28.51 7 26.31 7 24C7 21.69 7.45 19.49 8.34 17.39C9.2 15.35 10.41 13.55 11.98 11.98C13.55 10.41 15.35 9.2 17.39 8.34C19.49 7.45 21.69 7 24 7C26.31 7 28.51 7.45 30.61 8.34C32.65 9.2 34.45 10.41 36.02 11.98C37.59 13.55 38.8 15.35 39.66 17.39C40.55 19.49 41 21.69 41 24C41 26.31 40.55 28.51 39.66 30.61C38.8 32.65 37.59 34.45 36.02 36.02ZM25.42 11.59C25.51 11.68 25.59 11.78 25.66 11.89C25.74 12 25.8 12.11 25.85 12.23C25.9 12.36 25.94 12.48 25.96 12.61C25.99 12.74 26 12.87 26 13L26 23.01L29.61 21.21C29.72 21.15 29.85 21.11 29.97 21.07C30.1 21.04 30.23 21.01 30.36 21C30.49 21 30.62 21 30.75 21.02C30.88 21.03 31.01 21.06 31.13 21.1C31.26 21.14 31.38 21.2 31.49 21.26C31.6 21.33 31.71 21.4 31.81 21.49C31.91 21.58 32 21.67 32.08 21.77C32.16 21.88 32.23 21.99 32.29 22.11C32.32 22.16 32.34 22.22 32.37 22.29L32.43 22.47C32.45 22.53 32.46 22.6 32.47 22.66C32.48 22.73 32.49 22.79 32.49 22.86C32.5 22.92 32.5 22.99 32.5 23.05C32.5 23.12 32.49 23.19 32.48 23.25C32.48 23.32 32.46 23.38 32.45 23.44C32.44 23.51 32.42 23.57 32.4 23.63C32.38 23.69 32.35 23.76 32.33 23.82C32.3 23.88 32.27 23.93 32.24 23.99C32.21 24.05 32.17 24.1 32.13 24.16L32.01 24.31C31.97 24.36 31.92 24.41 31.88 24.45C31.83 24.5 31.78 24.54 31.73 24.58C31.67 24.62 31.62 24.66 31.57 24.69C31.51 24.73 31.45 24.76 31.39 24.79L25.6 27.68C25.18 27.89 24.73 28 24.26 28L24.25 28C23.72 28 23.24 27.83 22.82 27.49L22.65 27.35L22.51 27.18C22.17 26.76 22 26.28 22 25.75L22 13C22 12.87 22.01 12.74 22.04 12.61C22.06 12.48 22.1 12.36 22.15 12.23C22.2 12.11 22.27 12 22.34 11.89C22.41 11.78 22.49 11.68 22.59 11.59C22.68 11.49 22.78 11.41 22.89 11.34C23 11.26 23.11 11.2 23.24 11.15C23.36 11.1 23.48 11.06 23.61 11.04C23.74 11.01 23.87 11 24 11C24.13 11 24.26 11.01 24.39 11.04C24.52 11.06 24.65 11.1 24.77 11.15C24.89 11.2 25 11.26 25.11 11.34C25.22 11.41 25.32 11.49 25.42 11.59ZM4.65 32.17C3.55 29.57 3 26.85 3 24C3 21.15 3.55 18.43 4.65 15.83C5.71 13.31 7.21 11.09 9.15 9.15C11.09 7.21 13.31 5.71 15.83 4.65C18.43 3.55 21.15 3 24 3C26.85 3 29.57 3.55 32.17 4.65C34.69 5.71 36.91 7.21 38.85 9.15C40.79 11.09 42.29 13.31 43.35 15.83C44.45 18.43 45 21.15 45 24C45 26.85 44.45 29.57 43.35 32.17C42.29 34.69 40.79 36.91 38.85 38.85C36.91 40.79 34.69 42.29 32.17 43.35C29.57 44.45 26.85 45 24 45C21.15 45 18.43 44.45 15.83 43.35C13.31 42.29 11.09 40.79 9.15 38.85C7.21 36.91 5.71 34.69 4.65 32.17Z" fill-rule="evenodd"  fill="#000000" >
</path>
</svg>
