<svg xmlns="http://www.w3.org/2000/svg" xmlns:xlink="http://www.w3.org/1999/xlink" width="48" height="48" viewBox="0 0 48 48" fill="none">
<path d="M4 36L4 12C4 7.58172 7.58172 4 12 4L36 4C40.4183 4 44 7.58172 44 12L44 36C44 40.4183 40.4183 44 36 44L12 44C7.58172 44 4 40.4183 4 36ZM40 13.9972L40 12C40 9.79086 38.2091 8 36 8L12 8C9.79086 8 8 9.79086 8 12L8 13.9517L40 13.9972ZM8 17.9517L40 17.9972L40 36C40 38.2091 38.2091 40 36 40L12 40C9.79086 40 8 38.2091 8 36L8 17.9517ZM16.3119 24.7099L16.3119 36.9419L19.5679 36.9419L19.5679 20.9919L16.8179 20.9919L12.0439 23.4339L12.0439 26.7559L16.3119 24.7099ZM28.9179 26.5799L32.3059 20.9919L28.7639 20.9919L24.8919 27.3939C24.8919 27.3939 24.3199 28.3179 23.8799 29.4179C23.8799 29.4179 23.4399 30.5179 23.4399 31.5959C23.4399 31.5959 23.4399 32.9159 23.9239 33.9389C23.9239 33.9389 24.4079 34.9619 25.2659 35.6659C25.2659 35.6659 26.1239 36.3699 27.2899 36.7439C27.2899 36.7439 28.4559 37.1179 29.7979 37.1179C29.7979 37.1179 31.1839 37.1179 32.3499 36.7439C32.3499 36.7439 33.5159 36.3699 34.3629 35.6659C34.3629 35.6659 35.2099 34.9619 35.6939 33.9169C35.6939 33.9169 36.1779 32.8719 36.1779 31.5299C36.1779 31.5299 36.1779 30.0339 35.6169 29.0439C35.6169 29.0439 35.0559 28.0539 34.2089 27.4709C34.2089 27.4709 33.3619 26.8879 32.3499 26.6459C32.3499 26.6459 31.3379 26.4039 30.4359 26.4039C30.4359 26.4039 29.5779 26.4039 28.9179 26.5799ZM27.8069 33.3009C27.8069 33.3009 27.0919 32.7399 27.0919 31.6839C27.0919 31.6839 27.0919 30.4079 27.8179 29.8689C27.8179 29.8689 28.5439 29.3299 29.8419 29.3299C29.8419 29.3299 31.1619 29.3299 31.8879 29.8579C31.8879 29.8579 32.6139 30.3859 32.6139 31.6619C32.6139 31.6619 32.6139 32.8499 31.8439 33.3559C31.8439 33.3559 31.0739 33.8619 29.9079 33.8619C29.9079 33.8619 28.5219 33.8619 27.8069 33.3009Z" fill-rule="evenodd"  fill="#000000" >
</path>
</svg>
