<svg xmlns="http://www.w3.org/2000/svg" xmlns:xlink="http://www.w3.org/1999/xlink" width="48" height="48" viewBox="0 0 48 48" fill="none">
<path d="M4 36C4 40.4183 7.58172 44 12 44L36 44C40.4183 44 44 40.4183 44 36L44 18L4 18L4 36ZM4 14L44 14L44 12C44 7.58172 40.4183 4 36 4L12 4C7.58172 4 4 7.58172 4 12L4 14ZM17.3119 37.9419L17.3119 25.7099L13.0439 27.7559L13.0439 24.4339L17.8179 21.9919L20.5679 21.9919L20.5679 37.9419L17.3119 37.9419ZM33.3059 21.9919L29.9179 27.5799C30.5779 27.4039 31.4359 27.4039 31.4359 27.4039C32.3379 27.4039 33.3499 27.6459 33.3499 27.6459C34.3619 27.8879 35.2089 28.4709 35.2089 28.4709C36.0559 29.0539 36.6169 30.0439 36.6169 30.0439C37.1779 31.0339 37.1779 32.5299 37.1779 32.5299C37.1779 33.8719 36.6939 34.9169 36.6939 34.9169C36.2099 35.9619 35.3629 36.6659 35.3629 36.6659C34.5159 37.3699 33.3499 37.7439 33.3499 37.7439C32.1839 38.1179 30.7979 38.1179 30.7979 38.1179C29.4559 38.1179 28.2899 37.7439 28.2899 37.7439C27.1239 37.3699 26.2659 36.6659 26.2659 36.6659C25.4079 35.9619 24.9239 34.9389 24.9239 34.9389C24.4399 33.9159 24.4399 32.5959 24.4399 32.5959C24.4399 31.5179 24.8799 30.4179 24.8799 30.4179C25.3199 29.3179 25.8919 28.3939 25.8919 28.3939L29.7639 21.9919L33.3059 21.9919ZM28.0919 32.6839C28.0919 33.7399 28.8069 34.3009 28.8069 34.3009C29.5219 34.8619 30.9079 34.8619 30.9079 34.8619C32.0739 34.8619 32.8439 34.3559 32.8439 34.3559C33.6139 33.8499 33.6139 32.6619 33.6139 32.6619C33.6139 31.3859 32.8879 30.8579 32.8879 30.8579C32.1619 30.3299 30.8419 30.3299 30.8419 30.3299C29.5439 30.3299 28.8179 30.8689 28.8179 30.8689C28.0919 31.4079 28.0919 32.6839 28.0919 32.6839Z" fill-rule="evenodd"  fill="#000000" >
</path>
</svg>
