<svg xmlns="http://www.w3.org/2000/svg" xmlns:xlink="http://www.w3.org/1999/xlink" width="48" height="48" viewBox="0 0 48 48" fill="none">
<path d="M4 36L4 12C4 7.58172 7.58172 4 12 4L36 4C40.4183 4 44 7.58172 44 12L44 36C44 40.4183 40.4183 44 36 44L12 44C7.58172 44 4 40.4183 4 36ZM40 13.9972L40 12C40 9.79086 38.2091 8 36 8L12 8C9.79086 8 8 9.79086 8 12L8 13.9517L40 13.9972ZM8 17.9517L40 17.9972L40 36C40 38.2091 38.2091 40 36 40L12 40C9.79086 40 8 38.2091 8 36L8 17.9517ZM30.9413 30.859C30.9413 30.859 31.2163 30.848 31.3263 30.804L27.0143 36.942L31.0183 36.942L35.5503 30.342C35.5503 30.342 36.2543 29.308 36.7273 28.164C36.7273 28.164 37.2003 27.02 37.2003 25.81C37.2003 25.81 37.2003 24.49 36.6943 23.489C36.6943 23.489 36.1883 22.488 35.3083 21.817C35.3083 21.817 34.4283 21.146 33.2733 20.805C33.2733 20.805 32.1183 20.464 30.7983 20.464C30.7983 20.464 29.4783 20.464 28.3233 20.794C28.3233 20.794 27.1683 21.124 26.2993 21.795C26.2993 21.795 25.4303 22.466 24.9353 23.467C24.9353 23.467 24.4403 24.468 24.4403 25.81C24.4403 25.81 24.4403 26.756 24.8253 27.669C24.8253 27.669 25.2103 28.582 25.9803 29.286C25.9803 29.286 26.7503 29.99 27.8833 30.43C27.8833 30.43 29.0163 30.87 30.4903 30.87C30.4903 30.87 30.6663 30.87 30.9413 30.859ZM18.8523 27.251C18.8523 27.251 18.6103 27.548 18.2143 27.922L11.6143 34.038L11.6143 36.942L23.2523 36.942L23.2523 33.818L16.4543 33.818L20.2163 30.342C20.2163 30.342 21.0743 29.528 21.6463 28.868C21.6463 28.868 22.2183 28.208 22.5593 27.636C22.5593 27.636 22.9003 27.064 23.0323 26.547C23.0323 26.547 23.1643 26.03 23.1643 25.524C23.1643 25.524 23.1643 24.644 22.7903 23.753C22.7903 23.753 22.4163 22.862 21.7013 22.147C21.7013 22.147 20.9863 21.432 19.9633 20.981C19.9633 20.981 18.9403 20.53 17.6203 20.53C17.6203 20.53 14.8263 20.53 13.2203 21.938C13.2203 21.938 11.6143 23.346 11.6143 26.118L15.3763 26.118C15.3763 26.118 15.3763 25.062 16.0033 24.545C16.0033 24.545 16.6303 24.028 17.5543 24.028C17.5543 24.028 18.3463 24.028 18.8853 24.49C18.8853 24.49 19.4243 24.952 19.4243 25.612C19.4243 25.612 19.4243 25.898 19.3803 26.151C19.3803 26.151 19.3363 26.404 19.2153 26.679C19.2153 26.679 19.0943 26.954 18.8523 27.251ZM33.6913 24.589C33.6913 24.589 33.9223 25.106 33.9223 25.81C33.9223 25.81 33.9223 26.976 33.1743 27.603C33.1743 27.603 32.4263 28.23 30.8203 28.23C30.8203 28.23 29.4343 28.23 28.6093 27.658C28.6093 27.658 27.7843 27.086 27.7843 25.81C27.7843 25.81 27.7843 24.38 28.6203 23.742C28.6203 23.742 29.4563 23.104 30.8203 23.104C30.8203 23.104 31.4803 23.104 32.0523 23.258C32.0523 23.258 32.6243 23.412 33.0423 23.742C33.0423 23.742 33.4603 24.072 33.6913 24.589Z" fill-rule="evenodd"  fill="#000000" >
</path>
</svg>
