<svg xmlns="http://www.w3.org/2000/svg" xmlns:xlink="http://www.w3.org/1999/xlink" width="48" height="48" viewBox="0 0 48 48" fill="none">
<path d="M4 36L4 12C4 7.58172 7.58172 4 12 4L36 4C40.4183 4 44 7.58172 44 12L44 36C44 40.4183 40.4183 44 36 44L12 44C7.58172 44 4 40.4183 4 36ZM40 13.9972L40 12C40 9.79086 38.2091 8 36 8L12 8C9.79086 8 8 9.79086 8 12L8 13.9517L40 13.9972ZM8 17.9517L40 17.9972L40 36C40 38.2091 38.2091 40 36 40L12 40C9.79086 40 8 38.2091 8 36L8 17.9517ZM16.3119 24.7099L16.3119 36.9419L19.5679 36.9419L19.5679 20.9919L16.8179 20.9919L12.0439 23.4339L12.0439 26.7559L16.3119 24.7099ZM28.9289 26.1399C28.9289 26.1399 28.2139 26.2499 27.6639 26.6239L27.9499 23.9179L35.2099 23.9179L35.2099 20.9919L24.9799 20.9919L23.8579 29.4179L26.8719 30.3419C26.8719 30.3419 27.4439 29.5719 28.1039 29.2639C28.1039 29.2639 28.7639 28.9559 29.7759 28.9559C29.7759 28.9559 30.4139 28.9559 30.9639 29.1099C30.9639 29.1099 31.5139 29.2639 31.9209 29.5719C31.9209 29.5719 32.3279 29.8799 32.5699 30.3419C32.5699 30.3419 32.8119 30.8039 32.8119 31.4199C32.8119 31.4199 32.8119 31.9919 32.6139 32.4979C32.6139 32.4979 32.4159 33.0039 32.0419 33.3779C32.0419 33.3779 31.6679 33.7519 31.0959 33.9719C31.0959 33.9719 30.5239 34.1919 29.7759 34.1919C29.7759 34.1919 29.1819 34.1919 28.6869 34.0819C28.6869 34.0819 28.1919 33.9719 27.8069 33.6969C27.8069 33.6969 27.4219 33.4219 27.1579 32.9709C27.1579 32.9709 26.8939 32.5199 26.7839 31.8379L23.4619 32.3439C23.4619 32.3439 23.6159 33.4879 24.1439 34.3679C24.1439 34.3679 24.6719 35.2479 25.4969 35.8639C25.4969 35.8639 26.3219 36.4799 27.4219 36.7989C27.4219 36.7989 28.5219 37.1179 29.7979 37.1179C29.7979 37.1179 31.1839 37.1179 32.3389 36.7549C32.3389 36.7549 33.4939 36.3919 34.3299 35.6769C34.3299 35.6769 35.1659 34.9619 35.6279 33.8949C35.6279 33.8949 36.0899 32.8279 36.0899 31.4419C36.0899 31.4419 36.0899 28.7359 34.5719 27.3829C34.5719 27.3829 33.0539 26.0299 30.1279 26.0299C30.1279 26.0299 29.6439 26.0299 28.9289 26.1399Z" fill-rule="evenodd"  fill="#000000" >
</path>
</svg>
