<svg xmlns="http://www.w3.org/2000/svg" xmlns:xlink="http://www.w3.org/1999/xlink" width="48" height="48" viewBox="0 0 48 48" fill="none">
<path d="M41.6899 13.5112L34.7083 7.527C34.2751 7.16014 34 6.61219 34 6C34 4.89543 34.8954 4 36 4C36.5011 4 36.9591 4.18427 37.31 4.48874L44.2917 10.473C44.725 10.8399 45 11.3878 45 12C45 13.1046 44.1046 14 43 14C42.4989 14 42.0409 13.8157 41.6899 13.5112ZM22 45C32.4934 45 41 36.4934 41 26C41 15.5066 32.4934 7 22 7C11.5066 7 3 15.5066 3 26C3 36.4934 11.5066 45 22 45ZM24 17C24 15.8954 23.1046 15 22 15C20.8954 15 20 15.8954 20 17L20 24.0351C18.8044 24.7267 18 26.0194 18 27.5C18 29.7091 19.7909 31.5 22 31.5C24.2091 31.5 26 29.7091 26 27.5C26 26.0194 25.1956 24.7267 24 24.0351L24 17Z" fill-rule="evenodd"  fill="#000000" >
</path>
</svg>
