<svg xmlns="http://www.w3.org/2000/svg" xmlns:xlink="http://www.w3.org/1999/xlink" width="48" height="48" viewBox="0 0 48 48" fill="none">
<path d="M4 12L4 14L44 14L44 12C44 7.58172 40.4183 4 36 4L12 4C7.58172 4 4 7.58172 4 12ZM12 44C7.58172 44 4 40.4183 4 36L4 18L44 18L44 36C44 40.4183 40.4183 44 36 44L12 44ZM17.3119 25.7099L17.3119 37.9419L20.5679 37.9419L20.5679 21.9919L17.8179 21.9919L13.0439 24.4339L13.0439 27.7559L17.3119 25.7099ZM26.3099 37.9419L30.0279 37.9419L36.6499 25.1379L36.6499 21.9919L24.9019 21.9919L24.9019 25.0499L33.0639 25.0499L26.3099 37.9419Z" fill-rule="evenodd"  fill="#000000" >
</path>
</svg>
