<svg xmlns="http://www.w3.org/2000/svg" xmlns:xlink="http://www.w3.org/1999/xlink" width="48" height="48" viewBox="0 0 48 48" fill="none">
<path d="M4 36C4 40.4183 7.58172 44 12 44L36 44C40.4183 44 44 40.4183 44 36L44 18L4 18L4 36ZM4 14L44 14L44 12C44 7.58172 40.4183 4 36 4L12 4C7.58172 4 4 7.58172 4 12L4 14ZM16.5 25C16.5 26.3807 15.3807 27.5 14 27.5C12.6193 27.5 11.5 26.3807 11.5 25C11.5 23.6193 12.6193 22.5 14 22.5C15.3807 22.5 16.5 23.6193 16.5 25ZM26.5 25C26.5 26.3807 25.3807 27.5 24 27.5C22.6193 27.5 21.5 26.3807 21.5 25C21.5 23.6193 22.6193 22.5 24 22.5C25.3807 22.5 26.5 23.6193 26.5 25ZM34 27.5C35.3807 27.5 36.5 26.3807 36.5 25C36.5 23.6193 35.3807 22.5 34 22.5C32.6193 22.5 31.5 23.6193 31.5 25C31.5 26.3807 32.6193 27.5 34 27.5ZM16.5 33C16.5 34.3807 15.3807 35.5 14 35.5C12.6193 35.5 11.5 34.3807 11.5 33C11.5 31.6193 12.6193 30.5 14 30.5C15.3807 30.5 16.5 31.6193 16.5 33ZM24 35.5C25.3807 35.5 26.5 34.3807 26.5 33C26.5 31.6193 25.3807 30.5 24 30.5C22.6193 30.5 21.5 31.6193 21.5 33C21.5 34.3807 22.6193 35.5 24 35.5Z" fill-rule="evenodd"  fill="#000000" >
</path>
</svg>
