<svg xmlns="http://www.w3.org/2000/svg" xmlns:xlink="http://www.w3.org/1999/xlink" width="48" height="48" viewBox="0 0 48 48" fill="none">
<path d="M4 12L4 14L44 14L44 12C44 7.58172 40.4183 4 36 4L12 4C7.58172 4 4 7.58172 4 12ZM12 44C7.58172 44 4 40.4183 4 36L4 18L44 18L44 36C44 40.4183 40.4183 44 36 44L12 44ZM18.852 28.251C18.6907 28.449 18.478 28.6727 18.214 28.922L11.614 35.038L11.614 37.942L23.252 37.942L23.252 34.818L16.454 34.818L20.216 31.342C20.788 30.7993 21.2647 30.308 21.646 29.868C22.0273 29.428 22.3317 29.0173 22.559 28.636C22.7863 28.2547 22.944 27.8917 23.032 27.547C23.12 27.2023 23.164 26.8613 23.164 26.524C23.164 25.9373 23.0393 25.347 22.79 24.753C22.5407 24.159 22.1777 23.6237 21.701 23.147C21.2243 22.6703 20.645 22.2817 19.963 21.981C19.281 21.6803 18.5 21.53 17.62 21.53C15.7573 21.53 14.2907 21.9993 13.22 22.938C12.1493 23.8767 11.614 25.27 11.614 27.118L15.376 27.118C15.376 26.414 15.585 25.8897 16.003 25.545C16.421 25.2003 16.938 25.028 17.554 25.028C18.082 25.028 18.5257 25.182 18.885 25.49C19.2443 25.798 19.424 26.172 19.424 26.612C19.424 26.8027 19.4093 26.9823 19.38 27.151C19.3507 27.3197 19.2957 27.4957 19.215 27.679C19.1343 27.8623 19.0133 28.053 18.852 28.251ZM32.47 28.251C32.3087 28.449 32.096 28.6727 31.832 28.922L25.232 35.038L25.232 37.942L36.87 37.942L36.87 34.818L30.072 34.818L33.834 31.342C34.406 30.7993 34.8827 30.308 35.264 29.868C35.6453 29.428 35.9497 29.0173 36.177 28.636C36.4043 28.2547 36.562 27.8917 36.65 27.547C36.738 27.2023 36.782 26.8613 36.782 26.524C36.782 25.9373 36.6573 25.347 36.408 24.753C36.1587 24.159 35.7957 23.6237 35.319 23.147C34.8423 22.6703 34.263 22.2817 33.581 21.981C32.899 21.6803 32.118 21.53 31.238 21.53C29.3753 21.53 27.9087 21.9993 26.838 22.938C25.7673 23.8767 25.232 25.27 25.232 27.118L28.994 27.118C28.994 26.414 29.203 25.8897 29.621 25.545C30.039 25.2003 30.556 25.028 31.172 25.028C31.7 25.028 32.1437 25.182 32.503 25.49C32.8623 25.798 33.042 26.172 33.042 26.612C33.042 26.8027 33.0273 26.9823 32.998 27.151C32.9687 27.3197 32.9137 27.4957 32.833 27.679C32.7523 27.8623 32.6313 28.053 32.47 28.251Z" fill-rule="evenodd"  fill="#000000" >
</path>
</svg>
