<svg xmlns="http://www.w3.org/2000/svg" xmlns:xlink="http://www.w3.org/1999/xlink" width="48" height="48" viewBox="0 0 48 48" fill="none">
<path d="M17 32C24.1797 32 30 26.1797 30 19C30 11.8203 24.1797 6 17 6C9.8203 6 4 11.8203 4 19C4 26.1797 9.8203 32 17 32ZM17 10C21.9706 10 26 14.0294 26 19C26 23.9706 21.9706 28 17 28C12.0294 28 8 23.9706 8 19C8 14.0294 12.0294 10 17 10Z" fill-rule="evenodd"  fill="#787878" >
</path>
<path d="M4 39.9991L41.7694 40C43.2775 40 44.5 38.7775 44.5 37.2694C44.5 36.9435 44.4435 36.6277 44.3304 36.322C44.2173 36.0163 44.0546 35.7397 43.8425 35.4923L38.027 28.7083L38.0184 28.6983C37.6517 28.2708 37.1075 28 36.5 28C35.3954 28 34.5 28.8954 34.5 30C34.5 30.4971 34.6814 30.9519 34.9815 31.3017L34.9888 31.3102L39.0091 35.9999L4.00004 35.9991L4 35.9991C2.89543 35.9991 2 36.8946 2 37.9991C2 39.1037 2.89541 39.9991 3.99996 39.9991L4 39.9991Z" fill-rule="evenodd"  fill="#424242" >
</path>
<path d="M15.0005 13.9998C15.0006 12.8953 15.896 12 17.0005 12C18.1051 12 19.0005 12.8954 19.0005 14L19.0005 14.0002L19.0002 18.5603L20.5107 18.2141C20.6673 18.1748 20.8312 18.1539 21 18.1539C22.1045 18.1539 23 19.0493 23 20.1539C23 21.1187 22.3167 21.924 21.4076 22.1123L17.7849 22.9425C17.6176 22.9808 17.4481 23 17.2764 23C16.0191 23 14.9999 21.9807 15 20.7234L15.0005 14L15.0005 13.9998Z" fill-rule="evenodd"  fill="#424242" >
</path>
</svg>
