<svg xmlns="http://www.w3.org/2000/svg" xmlns:xlink="http://www.w3.org/1999/xlink" width="48" height="48" viewBox="0 0 48 48" fill="none">
<path d="M4 12L4 14L44 14L44 12C44 7.58172 40.4183 4 36 4L12 4C7.58172 4 4 7.58172 4 12ZM12 44C7.58172 44 4 40.4183 4 36L4 18L44 18L44 36C44 40.4183 40.4183 44 36 44L12 44ZM22.62 27.14C22.1433 27.2133 21.7217 27.3747 21.355 27.624L21.641 24.918L28.901 24.918L28.901 21.992L18.671 21.992L17.549 30.418L20.563 31.342C20.9443 30.8287 21.355 30.4693 21.795 30.264C22.235 30.0587 22.7923 29.956 23.467 29.956C23.8923 29.956 24.2883 30.0073 24.655 30.11C25.0217 30.2127 25.3407 30.3667 25.612 30.572C25.8833 30.7773 26.0997 31.034 26.261 31.342C26.4223 31.65 26.503 32.0093 26.503 32.42C26.503 32.8013 26.437 33.1607 26.305 33.498C26.173 33.8353 25.9823 34.1287 25.733 34.378C25.4837 34.6273 25.1683 34.8253 24.787 34.972C24.4057 35.1187 23.9657 35.192 23.467 35.192C23.071 35.192 22.708 35.1553 22.378 35.082C22.048 35.0087 21.7547 34.8803 21.498 34.697C21.2413 34.5137 21.025 34.2717 20.849 33.971C20.673 33.6703 20.5483 33.2927 20.475 32.838L17.153 33.344C17.2557 34.1067 17.483 34.7813 17.835 35.368C18.187 35.9547 18.638 36.4533 19.188 36.864C19.738 37.2747 20.3797 37.5863 21.113 37.799C21.8463 38.0117 22.6383 38.118 23.489 38.118C24.413 38.118 25.26 37.997 26.03 37.755C26.8 37.513 27.4637 37.1537 28.021 36.677C28.5783 36.2003 29.011 35.6063 29.319 34.895C29.627 34.1837 29.781 33.366 29.781 32.442C29.781 30.638 29.275 29.285 28.263 28.383C27.251 27.481 25.7697 27.03 23.819 27.03C23.4963 27.03 23.0967 27.0667 22.62 27.14Z" fill-rule="evenodd"  fill="#000000" >
</path>
</svg>
