<svg xmlns="http://www.w3.org/2000/svg" xmlns:xlink="http://www.w3.org/1999/xlink" width="48" height="48" viewBox="0 0 48 48" fill="none">
<path d="M4 36C4 40.4183 7.58172 44 12 44L36 44C40.4183 44 44 40.4183 44 36L44 18L4 18L4 36ZM4 14L44 14L44 12C44 7.58172 40.4183 4 36 4L12 4C7.58172 4 4 7.58172 4 12L4 14ZM36.5616 32.75C36.5616 33.784 36.1876 34.719 36.1876 34.719C35.8136 35.654 35.0656 36.369 35.0656 36.369C34.3176 37.084 33.2396 37.502 33.2396 37.502C32.1616 37.92 30.7316 37.92 30.7316 37.92C29.2796 37.92 28.2126 37.513 28.2126 37.513C27.1456 37.106 26.4416 36.391 26.4416 36.391C25.7376 35.676 25.3856 34.741 25.3856 34.741C25.0336 33.806 25.0336 32.75 25.0336 32.75L25.0336 26.546C25.0336 25.6 25.4076 24.709 25.4076 24.709C25.7816 23.818 26.5076 23.114 26.5076 23.114C27.2336 22.41 28.2896 21.981 28.2896 21.981C29.3456 21.552 30.7316 21.552 30.7316 21.552C32.1176 21.552 33.1956 21.97 33.1956 21.97C34.2736 22.388 35.0216 23.081 35.0216 23.081C35.7696 23.774 36.1656 24.676 36.1656 24.676C36.5616 25.578 36.5616 26.546 36.5616 26.546L36.5616 32.75ZM19.1816 25.094L11.9436 25.094L11.9436 21.992L23.0976 21.992L23.0976 25.732L18.8076 27.91L18.8076 27.932C19.6436 27.932 20.4906 28.163 20.4906 28.163C21.3376 28.394 22.0196 28.966 22.0196 28.966C22.7016 29.538 23.1306 30.506 23.1306 30.506C23.5596 31.474 23.5596 32.948 23.5596 32.948C23.5596 34.29 23.0866 35.258 23.0866 35.258C22.6136 36.226 21.7886 36.864 21.7886 36.864C20.9636 37.502 19.8416 37.81 19.8416 37.81C18.7196 38.118 17.4216 38.118 17.4216 38.118C16.0136 38.118 14.8916 37.832 14.8916 37.832C13.7696 37.546 12.9776 36.93 12.9776 36.93C12.1856 36.314 11.7676 35.335 11.7676 35.335C11.3496 34.356 11.3496 32.992 11.3496 32.992L15.0676 32.992C15.0676 34.334 15.7166 34.84 15.7166 34.84C16.3656 35.346 17.5316 35.346 17.5316 35.346C18.0596 35.346 18.4886 35.225 18.4886 35.225C18.9176 35.104 19.2256 34.818 19.2256 34.818C19.5336 34.532 19.7096 34.037 19.7096 34.037C19.8856 33.542 19.8856 32.816 19.8856 32.816C19.8856 31.496 19.3466 30.957 19.3466 30.957C18.8076 30.418 17.3996 30.418 17.3996 30.418C16.9156 30.418 16.3546 30.649 16.3546 30.649C15.7936 30.88 15.3536 31.056 15.3536 31.056L14.3196 31.518L12.9556 28.614L19.1816 25.094ZM33.6796 26.92C33.6796 25.556 32.8656 24.852 32.8656 24.852C32.0516 24.148 30.7316 24.148 30.7316 24.148C29.4336 24.148 28.6636 24.852 28.6636 24.852C27.8936 25.556 27.8936 26.92 27.8936 26.92L27.8936 32.728C27.8936 33.872 28.6526 34.565 28.6526 34.565C29.4116 35.258 30.7316 35.258 30.7316 35.258C32.0736 35.258 32.8766 34.565 32.8766 34.565C33.6796 33.872 33.6796 32.728 33.6796 32.728L33.6796 26.92Z" fill-rule="evenodd"  fill="#000000" >
</path>
</svg>
