<svg xmlns="http://www.w3.org/2000/svg" xmlns:xlink="http://www.w3.org/1999/xlink" width="48" height="48" viewBox="0 0 48 48" fill="none">
<path d="M24 45C35.598 45 45 35.598 45 24C45 12.402 35.598 3 24 3C12.402 3 3 12.402 3 24C3 35.598 12.402 45 24 45ZM24 7C33.3888 7 41 14.6112 41 24C41 33.3888 33.3888 41 24 41C14.6112 41 7 33.3888 7 24C7 14.6112 14.6112 7 24 7Z" fill-rule="evenodd"  fill="#787878" >
</path>
<path d="M22.0008 12.9999C22.0009 11.8954 22.8963 11 24.0008 11C25.1054 11 26.0008 11.8954 26.0008 13L26.0008 13.0001L26.0002 23.0138L29.5696 21.2291C29.8475 21.0828 30.1641 21 30.5 21C31.6045 21 32.5 21.8954 32.5 23C32.5 23.7984 32.0321 24.4875 31.3556 24.8082L25.4798 27.7462C25.1413 27.9154 24.7829 28 24.4045 28C23.0765 28 21.9999 26.9234 22 25.5954L22.0008 13L22.0008 12.9999Z" fill-rule="evenodd"  fill="#424242" >
</path>
</svg>
