<svg xmlns="http://www.w3.org/2000/svg" xmlns:xlink="http://www.w3.org/1999/xlink" width="48" height="48" viewBox="0 0 48 48" fill="none">
<path d="M40 17.9972L8 17.9517L8 36C8 38.2091 9.79086 40 12 40L36 40C38.2091 40 40 38.2091 40 36L40 17.9972ZM40 12L40 13.9972L8 13.9517L8 12C8 9.79086 9.79086 8 12 8L36 8C38.2091 8 40 9.79086 40 12ZM4 12L4 36C4 40.4183 7.58172 44 12 44L36 44C40.4183 44 44 40.4183 44 36L44 12C44 7.58172 40.4183 4 36 4L12 4C7.58172 4 4 7.58172 4 12ZM18.852 27.251C18.6907 27.449 18.478 27.6727 18.214 27.922L11.614 34.038L11.614 36.942L23.252 36.942L23.252 33.818L16.454 33.818L20.216 30.342C20.788 29.7993 21.2647 29.308 21.646 28.868C22.0273 28.428 22.3317 28.0173 22.559 27.636C22.7863 27.2547 22.944 26.8917 23.032 26.547C23.12 26.2023 23.164 25.8613 23.164 25.524C23.164 24.9373 23.0393 24.347 22.79 23.753C22.5407 23.159 22.1777 22.6237 21.701 22.147C21.2243 21.6703 20.645 21.2817 19.963 20.981C19.281 20.6803 18.5 20.53 17.62 20.53C15.7573 20.53 14.2907 20.9993 13.22 21.938C12.1493 22.8767 11.614 24.27 11.614 26.118L15.376 26.118C15.376 25.414 15.585 24.8897 16.003 24.545C16.421 24.2003 16.938 24.028 17.554 24.028C18.082 24.028 18.5257 24.182 18.885 24.49C19.2443 24.798 19.424 25.172 19.424 25.612C19.424 25.8027 19.4093 25.9823 19.38 26.151C19.3507 26.3197 19.2957 26.4957 19.215 26.679C19.1343 26.8623 19.0133 27.053 18.852 27.251ZM28.532 31.442L33.46 20.992L29.72 20.992L24.902 30.826L24.902 34.566L31.678 34.566L31.678 36.942L35.132 36.942L35.132 34.566L36.782 34.566L36.782 31.442L35.132 31.442L35.132 26.162L31.678 26.162L31.678 31.442L28.532 31.442Z" fill-rule="evenodd"  fill="#000000" >
</path>
</svg>
