<svg xmlns="http://www.w3.org/2000/svg" xmlns:xlink="http://www.w3.org/1999/xlink" width="48" height="48" viewBox="0 0 48 48" fill="none">
<path d="M10.69 4.49C11.04 4.18 11.5 4 12 4C13.1 4 14 4.9 14 6C14 6.61 13.72 7.16 13.29 7.53L6.31 13.51C5.96 13.82 5.5 14 5 14C3.9 14 3 13.1 3 12C3 11.39 3.28 10.84 3.71 10.47L10.69 4.49ZM37.31 4.49C36.96 4.18 36.5 4 36 4C34.9 4 34 4.9 34 6C34 6.61 34.28 7.16 34.71 7.53L41.69 13.51C42.04 13.82 42.5 14 43 14C44.1 14 45 13.1 45 12C45 11.39 44.72 10.84 44.29 10.47L37.31 4.49ZM5 26C5 15.51 13.51 7 24 7C34.49 7 43 15.51 43 26C43 36.49 34.49 45 24 45C13.51 45 5 36.49 5 26ZM24 14C25.11 14 26 14.9 26 16L26 25L29.1 23.44C29.37 23.31 29.68 23.23 30 23.23C31.1 23.23 32 24.13 32 25.23C32 26.04 31.52 26.73 30.83 27.05L25.56 29.69C25.15 29.9 24.7 30 24.23 30C22.74 30 22 29.26 22 27.77L22 16C22 14.9 22.9 14 24 14Z" fill-rule="evenodd"  fill="#000000" >
</path>
</svg>
