<svg xmlns="http://www.w3.org/2000/svg" xmlns:xlink="http://www.w3.org/1999/xlink" width="48" height="48" viewBox="0 0 48 48" fill="none">
<path d="M4 36L4 12C4 7.58172 7.58172 4 12 4L36 4C40.4183 4 44 7.58172 44 12L44 36C44 40.4183 40.4183 44 36 44L12 44C7.58172 44 4 40.4183 4 36ZM40 13.9972L40 12C40 9.79086 38.2091 8 36 8L12 8C9.79086 8 8 9.79086 8 12L8 13.9517L40 13.9972ZM8 17.9517L40 17.9972L40 36C40 38.2091 38.2091 40 36 40L12 40C9.79086 40 8 38.2091 8 36L8 17.9517ZM18.7532 24.0939L25.9912 24.0939L19.7652 27.6139L21.1292 30.5179L22.1632 30.0559C22.1632 30.0559 22.6032 29.8799 23.1642 29.6489C23.1642 29.6489 23.7252 29.4179 24.2092 29.4179C24.2092 29.4179 25.6172 29.4179 26.1562 29.9569C26.1562 29.9569 26.6952 30.4959 26.6952 31.8159C26.6952 31.8159 26.6952 32.5419 26.5192 33.0369C26.5192 33.0369 26.3432 33.5319 26.0352 33.8179C26.0352 33.8179 25.7272 34.1039 25.2982 34.2249C25.2982 34.2249 24.8692 34.3459 24.3412 34.3459C24.3412 34.3459 23.1752 34.3459 22.5262 33.8399C22.5262 33.8399 21.8772 33.3339 21.8772 31.9919L18.1592 31.9919C18.1592 31.9919 18.1592 33.3559 18.5772 34.3349C18.5772 34.3349 18.9952 35.3139 19.7872 35.9299C19.7872 35.9299 20.5792 36.5459 21.7012 36.8319C21.7012 36.8319 22.8232 37.1179 24.2312 37.1179C24.2312 37.1179 25.5292 37.1179 26.6512 36.8099C26.6512 36.8099 27.7732 36.5019 28.5982 35.8639C28.5982 35.8639 29.4232 35.2259 29.8962 34.2579C29.8962 34.2579 30.3692 33.2899 30.3692 31.9479C30.3692 31.9479 30.3692 30.4739 29.9402 29.5059C29.9402 29.5059 29.5112 28.5379 28.8292 27.9659C28.8292 27.9659 28.1472 27.3939 27.3002 27.1629C27.3002 27.1629 26.4532 26.9319 25.6172 26.9319L25.6172 26.9099L29.9072 24.7319L29.9072 20.9919L18.7532 20.9919L18.7532 24.0939Z" fill-rule="evenodd"  fill="#000000" >
</path>
</svg>
