<svg xmlns="http://www.w3.org/2000/svg" xmlns:xlink="http://www.w3.org/1999/xlink" width="48" height="48" viewBox="0 0 48 48" fill="none">
<path d="M12 44C7.58172 44 4 40.4183 4 36L4 18L44 18L44 36C44 40.4183 40.4183 44 36 44L12 44ZM44 14L44 12C44 7.58172 40.4183 4 36 4L12 4C7.58172 4 4 7.58172 4 12L4 14L44 14ZM18.214 28.922C18.478 28.6727 18.6907 28.449 18.852 28.251C19.0133 28.053 19.1343 27.8623 19.215 27.679C19.2957 27.4957 19.3507 27.3197 19.38 27.151C19.4093 26.9823 19.424 26.8027 19.424 26.612C19.424 26.172 19.2443 25.798 18.885 25.49C18.5257 25.182 18.082 25.028 17.554 25.028C16.938 25.028 16.421 25.2003 16.003 25.545C15.585 25.8897 15.376 26.414 15.376 27.118L11.614 27.118C11.614 25.27 12.1493 23.8767 13.22 22.938C14.2907 21.9993 15.7573 21.53 17.62 21.53C18.5 21.53 19.281 21.6803 19.963 21.981C20.645 22.2817 21.2243 22.6703 21.701 23.147C22.1777 23.6237 22.5407 24.159 22.79 24.753C23.0393 25.347 23.164 25.9373 23.164 26.524C23.164 26.8613 23.12 27.2023 23.032 27.547C22.944 27.8917 22.7863 28.2547 22.559 28.636C22.3317 29.0173 22.0273 29.428 21.646 29.868C21.2647 30.308 20.788 30.7993 20.216 31.342L16.454 34.818L23.252 34.818L23.252 37.942L11.614 37.942L11.614 35.038L18.214 28.922ZM30.028 37.942L26.31 37.942L33.064 25.05L24.902 25.05L24.902 21.992L36.65 21.992L36.65 25.138L30.028 37.942Z" fill-rule="evenodd"  fill="#000000" >
</path>
</svg>
