<svg xmlns="http://www.w3.org/2000/svg" xmlns:xlink="http://www.w3.org/1999/xlink" width="48" height="48" viewBox="0 0 48 48" fill="none">
<path d="M4 12L4 14L44 14L44 12C44 7.58172 40.4183 4 36 4L12 4C7.58172 4 4 7.58172 4 12ZM12 44C7.58172 44 4 40.4183 4 36L4 18L44 18L44 36C44 40.4183 40.4183 44 36 44L12 44ZM25.6609 28.251C25.6609 28.251 25.4189 28.548 25.0229 28.922L18.4229 35.038L18.4229 37.942L30.0609 37.942L30.0609 34.818L23.2629 34.818L27.0249 31.342C27.0249 31.342 27.8829 30.528 28.4549 29.868C28.4549 29.868 29.0269 29.208 29.3679 28.636C29.3679 28.636 29.7089 28.064 29.8409 27.547C29.8409 27.547 29.9729 27.03 29.9729 26.524C29.9729 26.524 29.9729 25.644 29.5989 24.753C29.5989 24.753 29.2249 23.862 28.5099 23.147C28.5099 23.147 27.7949 22.432 26.7719 21.981C26.7719 21.981 25.7489 21.53 24.4289 21.53C24.4289 21.53 21.6349 21.53 20.0289 22.938C20.0289 22.938 18.4229 24.346 18.4229 27.118L22.1849 27.118C22.1849 27.118 22.1849 26.062 22.8119 25.545C22.8119 25.545 23.4389 25.028 24.3629 25.028C24.3629 25.028 25.1549 25.028 25.6939 25.49C25.6939 25.49 26.2329 25.952 26.2329 26.612C26.2329 26.612 26.2329 26.898 26.1889 27.151C26.1889 27.151 26.1449 27.404 26.0239 27.679C26.0239 27.679 25.9029 27.954 25.6609 28.251Z" fill-rule="evenodd"  fill="#000000" >
</path>
</svg>
