<svg xmlns="http://www.w3.org/2000/svg" xmlns:xlink="http://www.w3.org/1999/xlink" width="48" height="48" viewBox="0 0 48 48" fill="none">
<path d="M4 36L4 12C4 7.58172 7.58172 4 12 4L36 4C40.4183 4 44 7.58172 44 12L44 36C44 40.4183 40.4183 44 36 44L12 44C7.58172 44 4 40.4183 4 36ZM40 14L40 12C40 9.79086 38.2091 8 36 8L12 8C9.79086 8 8 9.79086 8 12L8 14L40 14ZM8 18L40 18L40 36C40 38.2091 38.2091 40 36 40L12 40C9.79086 40 8 38.2091 8 36L8 18ZM15 27C16.3807 27 17.5 25.8807 17.5 24.5C17.5 23.1193 16.3807 22 15 22C13.6193 22 12.5 23.1193 12.5 24.5C12.5 25.8807 13.6193 27 15 27ZM24 27C25.3807 27 26.5 25.8807 26.5 24.5C26.5 23.1193 25.3807 22 24 22C22.6193 22 21.5 23.1193 21.5 24.5C21.5 25.8807 22.6193 27 24 27ZM35.5 24.5C35.5 25.8807 34.3807 27 33 27C31.6193 27 30.5 25.8807 30.5 24.5C30.5 23.1193 31.6193 22 33 22C34.3807 22 35.5 23.1193 35.5 24.5ZM15 35C16.3807 35 17.5 33.8807 17.5 32.5C17.5 31.1193 16.3807 30 15 30C13.6193 30 12.5 31.1193 12.5 32.5C12.5 33.8807 13.6193 35 15 35ZM26.5 32.5C26.5 33.8807 25.3807 35 24 35C22.6193 35 21.5 33.8807 21.5 32.5C21.5 31.1193 22.6193 30 24 30C25.3807 30 26.5 31.1193 26.5 32.5Z" fill-rule="evenodd"  fill="#000000" >
</path>
</svg>
