<svg xmlns="http://www.w3.org/2000/svg" xmlns:xlink="http://www.w3.org/1999/xlink" width="48" height="48" viewBox="0 0 48 48" fill="none">
<path d="M4 36L4 12C4 7.58172 7.58172 4 12 4L36 4C40.4183 4 44 7.58172 44 12L44 36C44 40.4183 40.4183 44 36 44L12 44C7.58172 44 4 40.4183 4 36ZM40 13.9972L40 12C40 9.79086 38.2091 8 36 8L12 8C9.79086 8 8 9.79086 8 12L8 13.9517L40 13.9972ZM8 17.9517L40 17.9972L40 36C40 38.2091 38.2091 40 36 40L12 40C9.79086 40 8 38.2091 8 36L8 17.9517ZM23.1089 26.5799L26.4969 20.9919L22.9549 20.9919L19.0829 27.3939C19.0829 27.3939 18.5109 28.3179 18.0709 29.4179C18.0709 29.4179 17.6309 30.5179 17.6309 31.5959C17.6309 31.5959 17.6309 32.9159 18.1149 33.9389C18.1149 33.9389 18.5989 34.9619 19.4569 35.6659C19.4569 35.6659 20.3149 36.3699 21.4809 36.7439C21.4809 36.7439 22.6469 37.1179 23.9889 37.1179C23.9889 37.1179 25.3749 37.1179 26.5409 36.7439C26.5409 36.7439 27.7069 36.3699 28.5539 35.6659C28.5539 35.6659 29.4009 34.9619 29.8849 33.9169C29.8849 33.9169 30.3689 32.8719 30.3689 31.5299C30.3689 31.5299 30.3689 30.0339 29.8079 29.0439C29.8079 29.0439 29.2469 28.0539 28.3999 27.4709C28.3999 27.4709 27.5529 26.8879 26.5409 26.6459C26.5409 26.6459 25.5289 26.4039 24.6269 26.4039C24.6269 26.4039 23.7689 26.4039 23.1089 26.5799ZM21.9979 33.3009C21.9979 33.3009 21.2829 32.7399 21.2829 31.6839C21.2829 31.6839 21.2829 30.4079 22.0089 29.8689C22.0089 29.8689 22.7349 29.3299 24.0329 29.3299C24.0329 29.3299 25.3529 29.3299 26.0789 29.8579C26.0789 29.8579 26.8049 30.3859 26.8049 31.6619C26.8049 31.6619 26.8049 32.8499 26.0349 33.3559C26.0349 33.3559 25.2649 33.8619 24.0989 33.8619C24.0989 33.8619 22.7129 33.8619 21.9979 33.3009Z" fill-rule="evenodd"  fill="#000000" >
</path>
</svg>
