<svg xmlns="http://www.w3.org/2000/svg" xmlns:xlink="http://www.w3.org/1999/xlink" width="48" height="48" viewBox="0 0 48 48" fill="none">
<path d="M4 36L4 12C4 7.58172 7.58172 4 12 4L36 4C40.4183 4 44 7.58172 44 12L44 36C44 40.4183 40.4183 44 36 44L12 44C7.58172 44 4 40.4183 4 36ZM40 13.9972L40 12C40 9.79086 38.2091 8 36 8L12 8C9.79086 8 8 9.79086 8 12L8 13.9517L40 13.9972ZM8 17.9517L40 17.9972L40 36C40 38.2091 38.2091 40 36 40L12 40C9.79086 40 8 38.2091 8 36L8 17.9517ZM25.6609 27.251C25.6609 27.251 25.4189 27.548 25.0229 27.922L18.4229 34.038L18.4229 36.942L30.0609 36.942L30.0609 33.818L23.2629 33.818L27.0249 30.342C27.0249 30.342 27.8829 29.528 28.4549 28.868C28.4549 28.868 29.0269 28.208 29.3679 27.636C29.3679 27.636 29.7089 27.064 29.8409 26.547C29.8409 26.547 29.9729 26.03 29.9729 25.524C29.9729 25.524 29.9729 24.644 29.5989 23.753C29.5989 23.753 29.2249 22.862 28.5099 22.147C28.5099 22.147 27.7949 21.432 26.7719 20.981C26.7719 20.981 25.7489 20.53 24.4289 20.53C24.4289 20.53 21.6349 20.53 20.0289 21.938C20.0289 21.938 18.4229 23.346 18.4229 26.118L22.1849 26.118C22.1849 26.118 22.1849 25.062 22.8119 24.545C22.8119 24.545 23.4389 24.028 24.3629 24.028C24.3629 24.028 25.1549 24.028 25.6939 24.49C25.6939 24.49 26.2329 24.952 26.2329 25.612C26.2329 25.612 26.2329 25.898 26.1889 26.151C26.1889 26.151 26.1449 26.404 26.0239 26.679C26.0239 26.679 25.9029 26.954 25.6609 27.251Z" fill-rule="evenodd"  fill="#000000" >
</path>
</svg>
