<svg xmlns="http://www.w3.org/2000/svg" xmlns:xlink="http://www.w3.org/1999/xlink" width="48" height="48" viewBox="0 0 48 48" fill="none">
<path d="M4 36L4 12C4 7.58172 7.58172 4 12 4L36 4C40.4183 4 44 7.58172 44 12L44 36C44 40.4183 40.4183 44 36 44L12 44C7.58172 44 4 40.4183 4 36ZM40 13.9972L40 12C40 9.79086 38.2091 8 36 8L12 8C9.79086 8 8 9.79086 8 12L8 13.9517L40 13.9972ZM8 17.9517L40 17.9972L40 36C40 38.2091 38.2091 40 36 40L12 40C9.79086 40 8 38.2091 8 36L8 17.9517ZM18.8523 27.251C18.8523 27.251 18.6103 27.548 18.2143 27.922L11.6143 34.038L11.6143 36.942L23.2523 36.942L23.2523 33.818L16.4543 33.818L20.2163 30.342C20.2163 30.342 21.0743 29.528 21.6463 28.868C21.6463 28.868 22.2183 28.208 22.5593 27.636C22.5593 27.636 22.9003 27.064 23.0323 26.547C23.0323 26.547 23.1643 26.03 23.1643 25.524C23.1643 25.524 23.1643 24.644 22.7903 23.753C22.7903 23.753 22.4163 22.862 21.7013 22.147C21.7013 22.147 20.9863 21.432 19.9633 20.981C19.9633 20.981 18.9403 20.53 17.6203 20.53C17.6203 20.53 14.8263 20.53 13.2203 21.938C13.2203 21.938 11.6143 23.346 11.6143 26.118L15.3763 26.118C15.3763 26.118 15.3763 25.062 16.0033 24.545C16.0033 24.545 16.6303 24.028 17.5543 24.028C17.5543 24.028 18.3463 24.028 18.8853 24.49C18.8853 24.49 19.4243 24.952 19.4243 25.612C19.4243 25.612 19.4243 25.898 19.3803 26.151C19.3803 26.151 19.3363 26.404 19.2153 26.679C19.2153 26.679 19.0943 26.954 18.8523 27.251ZM29.9183 26.58L33.3063 20.992L29.7643 20.992L25.8923 27.394C25.8923 27.394 25.3203 28.318 24.8803 29.418C24.8803 29.418 24.4403 30.518 24.4403 31.596C24.4403 31.596 24.4403 32.916 24.9243 33.939C24.9243 33.939 25.4083 34.962 26.2663 35.666C26.2663 35.666 27.1243 36.37 28.2903 36.744C28.2903 36.744 29.4563 37.118 30.7983 37.118C30.7983 37.118 32.1843 37.118 33.3503 36.744C33.3503 36.744 34.5163 36.37 35.3633 35.666C35.3633 35.666 36.2103 34.962 36.6943 33.917C36.6943 33.917 37.1783 32.872 37.1783 31.53C37.1783 31.53 37.1783 30.034 36.6173 29.044C36.6173 29.044 36.0563 28.054 35.2093 27.471C35.2093 27.471 34.3623 26.888 33.3503 26.646C33.3503 26.646 32.3383 26.404 31.4363 26.404C31.4363 26.404 30.5783 26.404 29.9183 26.58ZM28.8073 33.301C28.8073 33.301 28.0923 32.74 28.0923 31.684C28.0923 31.684 28.0923 30.408 28.8183 29.869C28.8183 29.869 29.5443 29.33 30.8423 29.33C30.8423 29.33 32.1623 29.33 32.8883 29.858C32.8883 29.858 33.6143 30.386 33.6143 31.662C33.6143 31.662 33.6143 32.85 32.8443 33.356C32.8443 33.356 32.0743 33.862 30.9083 33.862C30.9083 33.862 29.5223 33.862 28.8073 33.301Z" fill-rule="evenodd"  fill="#000000" >
</path>
</svg>
