<svg xmlns="http://www.w3.org/2000/svg" xmlns:xlink="http://www.w3.org/1999/xlink" width="48" height="48" viewBox="0 0 48 48" fill="none">
<path d="M35.6251 31.404C34.812 32.1663 33.9369 32.84 33 33.4251L33 40C33 43.3137 30.3137 46 27 46L21 46C17.6863 46 15 43.3137 15 40L15 33.4251C14.0631 32.84 13.188 32.1663 12.3749 31.404C11.2636 30.3621 10.3094 29.1936 9.51251 27.8986C8.70222 26.5819 8.08425 25.1824 7.65862 23.7001C7.21954 22.171 7 20.6043 7 19C7 9.61116 14.6112 2 24 2C33.3888 2 41 9.61116 41 19C41 20.6043 40.7805 22.171 40.3414 23.7001C39.9157 25.1824 39.2978 26.5819 38.4875 27.8986C37.6906 29.1936 36.7364 30.3621 35.6251 31.404ZM19 38L19 40C19 41.1046 19.8954 42 21 42L27 42C28.1046 42 29 41.1046 29 40L29 38L19 38Z" fill-rule="evenodd"  fill="#000000" >
</path>
</svg>
