<svg xmlns="http://www.w3.org/2000/svg" xmlns:xlink="http://www.w3.org/1999/xlink" width="48" height="48" viewBox="0 0 48 48" fill="none">
<path d="M14.0703 41C15.4536 43.3913 18.0389 45 21.0001 45L33 45C39.6274 45 45 39.6274 45 33L45 21.0001C45 18.0389 43.3913 15.4536 41 14.0703L41 33C41 37.4183 37.4183 41 33 41L14.0703 41Z" fill-rule="evenodd"  fill="#787878" >
</path>
<path d="M3 30.5C3 34.9183 6.58172 38.5 11 38.5L31 38.5C35.4183 38.5 39 34.9183 39 30.5L39 10.5C39 6.08172 35.4183 2.5 31 2.5L11 2.5C6.58172 2.5 3 6.08172 3 10.5L3 30.5ZM31 34.5L11 34.5C8.79086 34.5 7 32.7091 7 30.5L7 10.5C7 8.29086 8.79086 6.5 11 6.5L31 6.5C33.2091 6.5 35 8.29086 35 10.5L35 30.5C35 32.7091 33.2091 34.5 31 34.5Z" fill-rule="evenodd"  fill="#787878" >
</path>
<path d="M30.9132 16.4153L20.3284 27C19.9454 27.383 19.504 27.6758 19.0042 27.8785C18.5224 28.0739 18.021 28.1716 17.5 28.1716C16.979 28.1716 16.4776 28.0739 15.9958 27.8785C15.496 27.6758 15.0546 27.383 14.6716 27L10.0858 22.4142C9.72386 22.0523 9.5 21.5523 9.5 21C9.5 19.8954 10.3954 19 11.5 19C12.0523 19 12.5523 19.2239 12.9142 19.5858L17.5 24.1716L28.0847 13.5868L28.0858 13.5858C28.4477 13.2239 28.9477 13 29.5 13C30.6046 13 31.5 13.8954 31.5 15C31.5 15.5523 31.2761 16.0523 30.9142 16.4142L30.9132 16.4153Z" fill-rule="evenodd"  fill="#424242" >
</path>
</svg>
