<svg xmlns="http://www.w3.org/2000/svg" xmlns:xlink="http://www.w3.org/1999/xlink" width="48" height="48" viewBox="0 0 48 48" fill="none">
<path d="M44.9899 24C44.9899 28.83 43.5499 33.1 40.6699 36.82C43.5899 40.02 41.3399 45.2 36.9799 45.2L23.6999 45.2C11.9899 45.2 2.41992 35.71 2.41992 24C2.41992 12.25 11.9499 2.79004 23.6999 2.79004C35.4099 2.79004 44.9899 12.29 44.9899 24ZM20.4999 11.5C21.5999 11.5 22.4999 12.4 22.4999 13.5C22.4999 13.65 22.4799 13.79 22.4499 13.93L21.737 17.5L28.6592 17.5L29.5299 13.14C29.6999 12.21 30.5199 11.5 31.4999 11.5C32.5999 11.5 33.4999 12.4 33.4999 13.5C33.4999 13.65 33.4799 13.79 33.4499 13.93L32.737 17.5L34.4999 17.5C35.5999 17.5 36.4999 18.4 36.4999 19.5C36.4999 20.6 35.5999 21.5 34.4999 21.5L31.9382 21.5L31.1394 25.5L32.9999 25.5C34.0999 25.5 34.9999 26.4 34.9999 27.5C34.9999 28.6 34.0999 29.5 32.9999 29.5L30.3406 29.5L29.4699 33.86C29.2999 34.79 28.4799 35.5 27.4999 35.5C26.3999 35.5 25.4999 34.6 25.4999 33.5C25.4999 33.35 25.5199 33.21 25.5499 33.07L26.2628 29.5L19.3406 29.5L18.4699 33.86C18.2999 34.79 17.4799 35.5 16.4999 35.5C15.3999 35.5 14.4999 34.6 14.4999 33.5C14.4999 33.35 14.5199 33.21 14.5499 33.07L15.2628 29.5L13.4999 29.5C12.3999 29.5 11.4999 28.6 11.4999 27.5C11.4999 26.4 12.3999 25.5 13.4999 25.5L16.0616 25.5L16.8604 21.5L14.4999 21.5C13.3999 21.5 12.4999 20.6 12.4999 19.5C12.4999 18.4 13.3999 17.5 14.4999 17.5L17.6592 17.5L18.5299 13.14C18.6999 12.21 19.5199 11.5 20.4999 11.5ZM20.9382 21.5L20.1394 25.5L27.0616 25.5L27.8604 21.5L20.9382 21.5Z" fill-rule="evenodd"  fill="#000000" >
</path>
</svg>
