<svg xmlns="http://www.w3.org/2000/svg" xmlns:xlink="http://www.w3.org/1999/xlink" width="48" height="48" viewBox="0 0 48 48" fill="none">
<path d="M23.7002 4.79004C34.3502 4.79004 42.9902 13.39 42.9902 24C42.9902 28.97 41.0902 33.5 37.9802 36.91L39.1502 38.13C40.9702 40.04 39.6202 43.2 36.9802 43.2L23.7002 43.2C13.0602 43.2 4.42023 34.6 4.42023 24C4.42023 13.39 13.0602 4.79004 23.7002 4.79004Z"   fill="#BEDCFF" >
</path>
<path d="M40.6633 36.822C43.5447 33.1032 44.9854 28.8279 44.9854 23.9961C44.9854 12.2843 35.4167 2.79004 23.7049 2.79004C11.952 2.79004 2.42441 12.2432 2.42441 23.9961C2.42441 35.7078 11.9931 45.2021 23.7049 45.2021L36.9788 45.2021C41.3451 45.2021 43.5983 40.0097 40.6633 36.822ZM36.5527 38.31C36.242 37.9942 36.0355 37.5756 35.9887 37.1099C35.9821 37.0434 35.9786 36.9759 35.9786 36.9076L35.9786 36.9073C35.9786 36.3783 36.184 35.8972 36.5194 35.5395C39.4967 32.2664 40.9854 28.4186 40.9854 23.9961C40.9854 14.4934 33.2075 6.79004 23.7049 6.79004C14.1612 6.79004 6.42441 14.4524 6.42441 23.9961C6.42441 33.4987 14.2023 41.2021 23.7049 41.2021L36.9788 41.2021C37.859 41.2021 38.3099 40.147 37.7014 39.5109L36.5527 38.31Z" fill-rule="evenodd"  fill="#1764FF" >
</path>
<path d="M19 19.25L28 19.25L28 27.25L19 27.25L19 19.25Z"   fill="#94C3FF" >
</path>
<path d="M22.5 13.5C22.5 13.6486 22.4838 13.7934 22.4531 13.9327L18.4684 33.8559C18.3005 34.7907 17.4831 35.5 16.5 35.5C15.3954 35.5 14.5 34.6046 14.5 33.5C14.5 33.3514 14.5162 33.2066 14.5469 33.0673L18.5316 13.1441C18.6995 12.2093 19.5169 11.5 20.5 11.5C21.6046 11.5 22.5 12.3954 22.5 13.5Z" fill-rule="evenodd"  fill="#1764FF" >
</path>
<path d="M33.5 13.5C33.5 13.6486 33.4838 13.7934 33.4531 13.9327L29.4684 33.8559C29.3005 34.7907 28.4831 35.5 27.5 35.5C26.3954 35.5 25.5 34.6046 25.5 33.5C25.5 33.3514 25.5162 33.2066 25.5469 33.0673L29.5316 13.1441C29.6995 12.2093 30.5169 11.5 31.5 11.5C32.6046 11.5 33.5 12.3954 33.5 13.5Z" fill-rule="evenodd"  fill="#4187FF" >
</path>
<path d="M12.5 19.5C12.5 20.6046 13.3954 21.5 14.5 21.5L34.5 21.5C35.6046 21.5 36.5 20.6046 36.5 19.5C36.5 18.3954 35.6046 17.5 34.5 17.5L14.5 17.5C13.3954 17.5 12.5 18.3954 12.5 19.5Z" fill-rule="evenodd"  fill="#1764FF" >
</path>
<path d="M11.5 27.5C11.5 28.6046 12.3954 29.5 13.5 29.5L33 29.5C34.1046 29.5 35 28.6046 35 27.5C35 26.3954 34.1046 25.5 33 25.5L13.5 25.5C12.3954 25.5 11.5 26.3954 11.5 27.5Z" fill-rule="evenodd"  fill="#4187FF" >
</path>
</svg>
