<svg xmlns="http://www.w3.org/2000/svg" xmlns:xlink="http://www.w3.org/1999/xlink" width="48" height="48" viewBox="0 0 48 48" fill="none">
<path d="M3 10C3 11.1046 3.89543 12 5 12L25 12C26.1046 12 27 11.1046 27 10C27 8.89543 26.1046 8 25 8L5 8C3.89543 8 3 8.89543 3 10Z" fill-rule="evenodd"  fill="#787878" >
</path>
<path d="M6.21541 15.9039C6.07764 15.6324 6 15.3253 6 15C6 13.8954 6.89543 13 8 13C8.80976 13 9.50712 13.4812 9.82169 14.1733C9.98761 14.5179 10.1324 14.8047 10.2561 15.0337C10.4798 15.4479 10.7215 15.849 10.9812 16.2369C11.7094 17.3247 12.5882 18.3282 13.6177 19.2472C14.2667 19.8266 15.0242 20.4063 15.8903 20.9864C16.8649 21.6391 17.8674 22.2164 18.8979 22.7182C20.0466 23.2775 21.1609 23.7081 22.2409 24.01C23.4098 24.3367 24.4962 24.5 25.5 24.5L39.5 24.5C40.6046 24.5 41.5 25.3954 41.5 26.5C41.5 27.6046 40.6046 28.5 39.5 28.5L25.5 28.5C24.1305 28.5 22.6853 28.2874 21.1642 27.8623C19.8517 27.4955 18.5125 26.9795 17.1467 26.3144C15.9517 25.7325 14.791 25.0643 13.6644 24.3098C12.6445 23.6268 11.741 22.9338 10.9538 22.2311C9.67227 21.087 8.57342 19.8307 7.65722 18.462C7.32725 17.9691 7.0204 17.46 6.73664 16.9346C6.58297 16.6501 6.40923 16.3065 6.21541 15.9039Z" fill-rule="evenodd"  fill="#787878" >
</path>
<path d="M39.5 24.5L28 24.5L28 28.5L39.5 28.5C40.6046 28.5 41.5 27.6046 41.5 26.5C41.5 25.3954 40.6046 24.5 39.5 24.5Z" fill-rule="evenodd"  fill="#424242" >
</path>
<path d="M23 10C23 8.89543 22.1046 8 21 8C19.8954 8 19 8.89543 19 10C19 11.9495 18.7539 13.6773 18.2618 15.1836C17.7721 16.6823 17.0279 17.9885 16.0291 19.102C13.8856 21.4916 10.4315 23.1335 5.66703 24.0276C4.72095 24.1861 4 25.0089 4 26C4 27.1046 4.89543 28 6 28C6.1396 28 6.27585 27.9857 6.40738 27.9585C9.2194 27.4306 11.6635 26.661 13.7397 25.6496C15.8587 24.6173 17.6144 23.3251 19.0067 21.773C21.6689 18.8051 23 14.8808 23 10Z" fill-rule="evenodd"  fill="#787878" >
</path>
<path d="M12.1057 4.2112C11.1177 4.70518 10.7173 5.90652 11.2113 6.89448L13.2113 10.8945C13.7052 11.8824 14.9066 12.2829 15.8945 11.7889C16.8825 11.2949 17.2829 10.0936 16.789 9.10563L14.789 5.10563C14.295 4.11767 13.0936 3.71722 12.1057 4.2112Z" fill-rule="evenodd"  fill="#787878" >
</path>
<path d="M25.9607 40.3965C25.7767 41.3111 24.9688 42 24 42C22.8954 42 22 41.1046 22 40C22 39.8356 22.0198 39.6758 22.0573 39.5228L28.9844 8.43712C30.1603 3.16024 37.7111 3.24502 38.7682 8.54702L44.9533 39.5685C44.9839 39.7074 45 39.8518 45 40C45 41.1046 44.1046 42 43 42C42.0165 42 41.1988 41.2901 41.0314 40.3548L34.8454 9.32912C34.634 8.26872 33.1238 8.25182 32.8886 9.30722L25.9607 40.3965Z" fill-rule="evenodd"  fill="#424242" >
</path>
<path d="M16.6283 34.9983C17.7328 34.9983 18.6282 35.8937 18.6282 36.9983C18.6282 38.1029 17.7327 38.9983 16.6282 38.9983L16.6281 38.9983L13.47 38.9981C12.3703 38.9981 11.3317 38.7728 10.3543 38.322C9.51557 37.9352 8.74178 37.3906 8.03298 36.6882C7.01491 35.6793 6.16584 34.389 5.48577 32.8172C5.36957 32.5638 5.30487 32.282 5.30487 31.985C5.30487 30.8804 6.20027 29.985 7.30489 29.985C8.14432 29.985 8.86296 30.5021 9.1596 31.2352C9.63456 32.3312 10.1976 33.2018 10.8486 33.847C11.623 34.6144 12.4968 34.9981 13.4702 34.9981L16.6282 34.9983L16.6283 34.9983Z" fill-rule="evenodd"  fill="#424242" >
</path>
<path d="M12.0005 39.6428C11.9983 41.3559 13.8684 42.4142 15.3358 41.5302L19.3189 39.1306C20.9348 38.1571 20.9315 35.8129 19.3127 34.8441L15.3374 32.4647C13.8721 31.5878 12.0098 32.6419 12.0076 34.3495L12.0005 39.6428Z" fill-rule="evenodd"  fill="#424242" >
</path>
</svg>
