<svg xmlns="http://www.w3.org/2000/svg" xmlns:xlink="http://www.w3.org/1999/xlink" width="48" height="48" viewBox="0 0 48 48" fill="none">
<path d="M26 8L26 5C26 3.9 25.1 3 24 3C22.9 3 22 3.9 22 5L22 8C22 9.1 22.9 10 24 10C25.1 10 26 9.1 26 8ZM6.5858 11.4142L8.7071 13.5355C9.48491 14.3133 10.7577 14.3133 11.5355 13.5355C12.3133 12.7577 12.3133 11.4849 11.5355 10.7071L9.4142 8.5858C8.63639 7.80799 7.36361 7.80799 6.5858 8.5858C5.80799 9.36361 5.80799 10.6364 6.5858 11.4142ZM41.5355 11.4142L39.4142 13.5355C38.6364 14.3133 37.3636 14.3133 36.5858 13.5355C35.808 12.7577 35.808 11.4849 36.5858 10.7071L38.7071 8.5858C39.4849 7.80799 40.7577 7.80799 41.5355 8.5858C42.3133 9.36361 42.3133 10.6364 41.5355 11.4142ZM24 45C19.86 45 16.5 41.6 16.5 37.46L16.5 34.77C12.83 32.28 11 28.71 11 24.08C11 16.86 16.78 11 24 11C31.18 11 37 16.9 37 24.08C37 28.71 35.17 32.28 31.5 34.77L31.5 37.46C31.5 41.62 28.16 45 24 45ZM27.89 32.46C27.88 32.47 27.88 32.48 27.89 32.48C27.66 32.8 27.52 33.17 27.5 33.57L20.5 33.57C20.46 32.9 20.09 32.28 19.5 31.94C16.5 30.2 15 27.58 15 24.08C15 19.07 18.99 15 24 15C28.97 15 33 19.11 33 24.08C33 27.58 31.5 30.2 28.5 31.94L28.49 31.94C28.19 32.12 27.94 32.37 27.89 32.46ZM26.28 21.89C25.95 21.61 25.58 21.39 25.17 21.23C24.77 21.08 24.38 21 24 21C22.9 21 22 20.1 22 19C22 17.9 22.9 17 24 17C24.87 17 25.74 17.16 26.6 17.49C27.45 17.82 28.21 18.27 28.9 18.86C29.63 19.5 30.2 20.23 30.62 21.07C31.07 21.98 31.3 22.95 31.3 23.97L31.3 24C31.3 25.1 30.4 26 29.3 26C28.2 26 27.3 25.1 27.3 24C27.3 23.18 26.96 22.48 26.28 21.89ZM5 25L8 25C9.1 25 10 24.1 10 23C10 21.9 9.1 21 8 21L5 21C3.9 21 3 21.9 3 23C3 24.1 3.9 25 5 25ZM40.12 25L43.12 25C44.22 25 45.12 24.1 45.12 23C45.12 21.9 44.22 21 43.12 21L40.12 21C39.02 21 38.12 21.9 38.12 23C38.12 24.1 39.02 25 40.12 25ZM6.9661 32.1907L9.7852 31.1647C10.8189 30.7885 11.9724 31.3264 12.3486 32.3601C12.7248 33.3938 12.1869 34.5473 11.1532 34.9235L8.3341 35.9495C7.30043 36.3257 6.1469 35.7878 5.7707 34.7541C5.3945 33.7204 5.93243 32.5669 6.9661 32.1907ZM36.9661 34.9294L39.7852 35.9554C40.8189 36.3316 41.9724 35.7937 42.3486 34.76C42.7248 33.7263 42.1869 32.5728 41.1532 32.1966L38.3341 31.1706C37.3004 30.7944 36.1469 31.3323 35.7707 32.366C35.3945 33.3997 35.9324 34.5532 36.9661 34.9294ZM27.5 37.57C27.44 39.47 25.92 41 24 41C22.1 41 20.56 39.45 20.5 37.57L27.5 37.57Z" fill-rule="evenodd"  fill="#000000" >
</path>
</svg>
