<svg xmlns="http://www.w3.org/2000/svg" xmlns:xlink="http://www.w3.org/1999/xlink" width="48" height="48" viewBox="0 0 48 48" fill="none">
<path d="M14 12L14 18C14 19.1046 14.8954 20 16 20C17.1046 20 18 19.1046 18 18L18 12C18 8.68629 20.6863 6 24 6C25.5963 6 26.9967 6.50702 28.2014 7.52107C28.5508 7.81969 29.0043 8 29.5 8C30.6046 8 31.5 7.10457 31.5 6C31.5 5.38151 31.2193 4.8286 30.7783 4.46173C28.8294 2.82058 26.5699 2 24 2C18.4771 2 14 6.47715 14 12Z" fill-rule="evenodd"  fill="#4187FF" >
</path>
<path d="M31.5 6C31.5 7.10457 30.6046 8 29.5 8C28.3954 8 27.5 7.10457 27.5 6C27.5 4.89543 28.3954 4 29.5 4C30.6046 4 31.5 4.89543 31.5 6Z"   fill="#4187FF" >
</path>
<path d="M35.65 19.6498L32 17.9998L25.6 15.1998C24.58 14.7498 23.42 14.7498 22.4 15.1998L16 17.9998L12.35 19.6498C10.92 20.2998 10 21.7198 10 23.2898L10 28.9898C10 39.9298 21.99 43.4798 23.78 43.9398C23.92 43.9798 24.08 43.9798 24.22 43.9398C26.01 43.4798 38 39.9298 38 28.9898L38 23.2898C38 21.7198 37.08 20.2998 35.65 19.6498Z"   fill="#BEDCFF" >
</path>
<path d="M33.8455 41.34C37.9485 38.0483 40 33.9324 40 28.9923L40 23.2923C40 20.9341 38.6186 18.7946 36.4694 17.8241L32.8016 16.1678L26.4049 13.3693C24.8718 12.6985 23.1282 12.6985 21.5951 13.3693L15.1768 16.1774L11.5306 17.8241C9.38137 18.7946 8 20.9341 8 23.2923L8 28.9923C8 33.9372 10.0553 38.0561 14.1659 41.3491C16.5546 43.2627 19.3485 44.7044 22.5477 45.6742C23.4983 45.9624 24.5138 45.9593 25.4642 45.6706C28.6649 44.6984 31.4586 43.2549 33.8455 41.34ZM36 23.2923L36 28.9923C36 35.1909 32.1005 39.4745 24.3016 41.8433C24.1085 41.9019 23.9014 41.9048 23.7082 41.8462C15.9027 39.48 12 35.1954 12 28.9923L12 23.2923C12 22.5062 12.4605 21.7931 13.1769 21.4696L16.8232 19.8229L23.1984 17.0339C23.7094 16.8103 24.2906 16.8103 24.8016 17.0339L31.1984 19.8325L34.8231 21.4696C35.5395 21.7931 36 22.5062 36 23.2923Z" fill-rule="evenodd"  fill="#1764FF" >
</path>
</svg>
