<svg xmlns="http://www.w3.org/2000/svg" xmlns:xlink="http://www.w3.org/1999/xlink" width="48" height="48" viewBox="0 0 48 48" fill="none">
<path d="M20.11 44.8C18.24 44.03 16.56 43.1 15.05 42.02C12.99 40.54 11.37 38.84 10.2 36.92C8.73 34.53 8 31.89 8 28.99L8 23.29C8 22.71 8.08 22.14 8.25 21.58C8.41 21.03 8.65 20.52 8.96 20.04C9.27 19.56 9.64 19.13 10.07 18.76C10.51 18.38 10.99 18.07 11.53 17.83L14 16.71L14 12C14 10.64 14.26 9.35 14.79 8.11C15.29 6.91 16.01 5.85 16.93 4.93C17.85 4.01 18.91 3.29 20.11 2.79C21.35 2.26 22.64 2 24 2C25.31 2 26.61 2.26 27.9 2.78C28.9599 3.19431 29.8897 3.73858 30.6897 4.39493C31.1805 4.76027 31.5 5.34464 31.5 6C31.5 7.1 30.6 8 29.5 8C28.9856 8 28.515 7.80322 28.1597 7.48123C27.672 7.09219 27.0921 6.75883 26.42 6.49C25.6 6.16 24.8 6 24 6C23.18 6 22.41 6.16 21.66 6.47C20.95 6.77 20.31 7.2 19.76 7.76C19.2 8.31 18.77 8.95 18.47 9.66C18.16 10.41 18 11.18 18 12L18 14.94L21.59 13.37C22.36 13.03 23.16 12.86 24 12.86C24.84 12.86 25.64 13.03 26.4 13.37L32.82 16.18L36.47 17.83L36.48 17.83C37.01 18.07 37.49 18.38 37.93 18.76C38.36 19.13 38.73 19.56 39.04 20.04C39.35 20.52 39.59 21.03 39.75 21.58C39.92 22.14 40 22.71 40 23.29L40 28.99C40 31.89 39.27 34.53 37.8 36.92C36.63 38.84 35.01 40.54 32.95 42.02C31.44 43.1 29.76 44.03 27.89 44.8C26.77 45.26 25.72 45.62 24.74 45.87C24.25 46.01 23.75 46.01 23.26 45.87C22.28 45.62 21.23 45.26 20.11 44.8ZM24 16.86C24.28 16.86 24.54 16.92 24.8 17.03L31.18 19.82L34.82 21.47L34.83 21.47C35.18 21.64 35.47 21.88 35.68 22.21C35.89 22.54 36 22.9 36 23.29L36 28.99C36 32.93 34.2 36.19 30.61 38.77C29.36 39.67 27.94 40.45 26.36 41.1C25.52 41.45 24.73 41.73 24 41.93C23.27 41.73 22.48 41.45 21.64 41.1C20.06 40.45 18.64 39.67 17.39 38.77C13.8 36.19 12 32.93 12 28.99L12 23.29C12 22.9 12.11 22.54 12.32 22.21C12.53 21.88 12.82 21.63 13.17 21.47L16.8 19.83L23.21 17.03C23.46 16.92 23.72 16.86 24 16.86Z" fill-rule="evenodd"  fill="#000000" >
</path>
</svg>
