<svg xmlns="http://www.w3.org/2000/svg" xmlns:xlink="http://www.w3.org/1999/xlink" width="48" height="48" viewBox="0 0 48 48" fill="none">
<path d="M38.7512 26.0821L42.7263 26.4905C42.7252 26.5612 42.7102 26.6175 42.7022 26.6811C42.6869 26.7516 42.6719 26.8079 42.6497 26.8712C42.6345 26.9417 42.6053 26.9978 42.5831 27.0611C42.5609 27.1244 42.5317 27.1805 42.5026 27.2366C42.4734 27.2928 42.4301 27.3487 42.4009 27.4048C42.3648 27.4537 42.3215 27.5096 42.2854 27.5586C42.2421 27.6145 42.199 27.6562 42.1487 27.7049C42.0985 27.7537 42.0554 27.7954 41.9982 27.837C41.9551 27.8787 41.8979 27.9203 41.8478 27.9549C41.7908 27.9823 41.7336 28.0238 41.6766 28.0512C41.6196 28.0786 41.5554 28.113 41.4984 28.1404L41.3065 28.201C41.2498 28.2143 41.1858 28.2345 41.129 28.2477C41.0581 28.2608 40.9943 28.2669 40.9306 28.2729C40.8668 28.279 40.8031 28.2851 40.7324 28.284C40.6617 28.2829 40.6052 28.282 40.5416 28.274C40.4709 28.2729 40.4004 28.2576 40.3441 28.2426C40.2806 28.2345 40.2173 28.2123 40.154 28.1901C40.0835 28.1749 40.0272 28.1599 39.971 28.1307C39.9077 28.1085 39.8446 28.0722 39.7885 28.043C39.7324 28.0138 39.6763 27.9847 39.6204 27.9414C39.5714 27.9052 39.5155 27.8619 39.4666 27.8258C39.4107 27.7825 39.3689 27.7394 39.3202 27.6892C39.2785 27.6461 39.2297 27.5958 39.1952 27.5458C39.1464 27.4955 39.1119 27.4455 39.0703 27.3883C39.0429 27.3313 39.0014 27.274 38.974 27.217L38.8918 27.046C38.8646 26.9749 38.8372 26.9179 38.8239 26.8611C38.8109 26.7902 38.7907 26.7262 38.7774 26.6694C38.7644 26.5985 38.7583 26.5348 38.7522 26.471L38.7522 26.4709C38.7461 26.4072 38.7401 26.3435 38.7412 26.2728C38.7423 26.2021 38.7432 26.1456 38.7512 26.0821ZM38.7512 26.0821C38.9761 23.9003 38.7403 21.7892 38.0511 19.7276C37.3347 17.5949 36.1829 15.717 34.603 14.0871C33.1831 12.6223 31.5528 11.5008 29.691 10.7151C27.8995 9.95876 26.0245 9.56182 24.0662 9.52424C22.1076 9.5008 20.2212 9.83915 18.407 10.5393C16.5642 11.2502 14.9324 12.2887 13.4919 13.661L17.0144 13.7894C17.0844 13.792 17.1444 13.7942 17.2139 13.8067C17.2735 13.8189 17.3431 13.8314 17.4027 13.8436C17.4723 13.8561 17.5316 13.8783 17.5908 13.9005C17.66 13.923 17.7192 13.9452 17.7785 13.9674L17.9551 14.0639C18.0039 14.0957 18.0628 14.1278 18.1113 14.1696C18.1702 14.2018 18.2187 14.2436 18.2672 14.2854C18.3154 14.3372 18.3639 14.379 18.412 14.4308C18.4505 14.4722 18.4987 14.524 18.5368 14.5754C18.575 14.6268 18.6131 14.6783 18.6509 14.7397C18.6791 14.7907 18.7169 14.8521 18.7447 14.9132C18.7728 14.9643 18.8006 15.0253 18.8184 15.086C18.8458 15.157 18.8636 15.2177 18.8814 15.2784C18.8992 15.3391 18.9067 15.4094 18.9145 15.4697C18.9323 15.5304 18.9397 15.6007 18.9375 15.6607C18.945 15.731 18.9428 15.791 18.9403 15.8609C18.9377 15.9309 18.9355 15.9908 18.923 16.0604C18.9208 16.1204 18.9082 16.19 18.8861 16.2492C18.8739 16.3088 18.8614 16.3784 18.8392 16.4376C18.817 16.4969 18.7948 16.5561 18.7623 16.625C18.7401 16.6842 18.708 16.7431 18.6762 16.7919C18.644 16.8508 18.6018 16.9093 18.57 16.9582C18.5279 17.0167 18.4861 17.0652 18.4443 17.1137C18.4025 17.1622 18.3507 17.2103 18.3093 17.2489C18.2575 17.297 18.2061 17.3352 18.1543 17.3833C18.1028 17.4215 18.0514 17.4596 17.9904 17.4874C17.9389 17.5256 17.8779 17.5534 17.8268 17.5815L17.6437 17.6649C17.583 17.6827 17.5223 17.7005 17.4516 17.7179C17.3909 17.7357 17.3302 17.7535 17.2599 17.761C17.1996 17.7688 17.1293 17.7762 17.069 17.784C16.9986 17.7915 16.9387 17.7893 16.8687 17.7867L10.5729 17.5572C10.0332 17.5376 9.51759 17.4087 9.02558 17.1806C8.55318 16.9633 8.14403 16.6581 7.78739 16.2849C7.4411 15.902 7.1666 15.4717 6.98422 14.9848C6.79257 14.4775 6.70159 13.9538 6.72126 13.4142L6.95078 7.11836C6.95333 7.0484 6.95552 6.98844 6.96806 6.91886C6.98024 6.85926 6.99278 6.78967 7.00496 6.73008C7.0175 6.66049 7.03968 6.60125 7.06185 6.54202C7.08438 6.4728 7.10656 6.41357 7.12873 6.35433C7.1609 6.29547 7.19306 6.2366 7.22523 6.17773C7.25703 6.12886 7.2892 6.06999 7.33099 6.02148C7.36316 5.96261 7.40495 5.91411 7.44675 5.8656C7.49853 5.81745 7.54033 5.76894 7.59212 5.7208C7.63355 5.68228 7.68534 5.63413 7.73676 5.59598C7.78819 5.55783 7.83961 5.51968 7.90103 5.48189C7.95209 5.45373 8.0135 5.41595 8.07456 5.38815C8.12562 5.35999 8.18667 5.3322 8.24736 5.3144C8.3184 5.28697 8.37909 5.26917 8.43978 5.25137C8.50047 5.23357 8.57079 5.22612 8.63111 5.21831C8.6918 5.20051 8.76212 5.19307 8.82208 5.19526C8.8924 5.18781 8.95236 5.19 9.02231 5.19255C9.09227 5.1951 9.15223 5.19728 9.22182 5.20983C9.28178 5.21201 9.35136 5.22456 9.4106 5.24673C9.47019 5.25891 9.53978 5.27145 9.59901 5.29363C9.65824 5.3158 9.71748 5.33797 9.78634 5.3705C9.84557 5.39267 9.90444 5.42484 9.95331 5.45664C10.0122 5.48881 10.0707 5.53097 10.1196 5.56277C10.1781 5.60493 10.2266 5.64672 10.2751 5.68852C10.3236 5.73031 10.3717 5.7821 10.4103 5.82353C10.4584 5.87532 10.4965 5.92674 10.5447 5.97853C10.5828 6.02996 10.621 6.08138 10.6488 6.14243C10.6869 6.19386 10.7147 6.25491 10.7429 6.30597L10.8263 6.48913C10.8441 6.54982 10.8619 6.61051 10.8793 6.68119C10.8971 6.74188 10.9149 6.80257 10.9224 6.87288C10.9302 6.93321 10.9376 7.00353 10.9454 7.06385C10.9529 7.13417 10.9507 7.19413 10.9481 7.26408L10.8236 10.6789C12.6242 8.9852 14.6671 7.6998 16.9588 6.80398C19.2639 5.92054 21.6468 5.49091 24.1285 5.5225C26.61 5.56823 28.9784 6.07187 31.2548 7.02668C33.6082 8.03219 35.6794 9.45056 37.4751 11.3031C39.4727 13.3639 40.9278 15.7414 41.8403 18.4501C42.2728 19.7439 42.5703 21.071 42.7189 22.4311C42.8676 23.7771 42.8748 25.135 42.7335 26.4835L38.7512 26.0821ZM31.0401 34.024C31.1093 34.0465 31.1686 34.0687 31.2278 34.0908C31.287 34.113 31.3562 34.1356 31.4158 34.1477C31.4754 34.1599 31.545 34.1725 31.6046 34.1846C31.6746 34.1872 31.7342 34.1994 31.8041 34.2019L35.3302 34.3305C33.8898 35.7024 32.2583 36.7407 30.4159 37.4515C28.6016 38.1516 26.7152 38.49 24.7567 38.4665C22.7983 38.4289 20.9234 38.032 19.1318 37.2757C17.27 36.49 15.6397 35.3684 14.2198 33.9036C12.7095 32.3455 11.5847 30.5529 10.8596 28.5261C10.1616 26.5705 9.88204 24.5436 10.0275 22.4667L10.0206 22.4595C10.0286 22.396 10.0226 22.3322 10.0306 22.2687C10.0246 22.205 10.0185 22.1412 10.0054 22.0703C9.99935 22.0066 9.99327 21.9428 9.97305 21.8789C9.95283 21.8149 9.94675 21.7512 9.91935 21.6941C9.89913 21.6302 9.87891 21.5662 9.85151 21.5092C9.82411 21.4522 9.78975 21.388 9.76236 21.331C9.72778 21.281 9.69341 21.2168 9.65165 21.1737C9.61011 21.1165 9.57554 21.0665 9.52681 21.0162C9.49223 20.9662 9.44351 20.9159 9.38761 20.8726C9.34585 20.8295 9.29713 20.7792 9.24819 20.7431C9.19229 20.6998 9.13617 20.6707 9.08723 20.6345C9.02415 20.5982 8.96803 20.569 8.9119 20.5399C8.85578 20.5107 8.79248 20.4885 8.73636 20.4593C8.67306 20.4371 8.60976 20.4149 8.53928 20.3997C8.48293 20.3847 8.41245 20.3694 8.35611 20.3544C8.29259 20.3464 8.22189 20.3453 8.15837 20.3372C8.09484 20.3291 8.02414 20.328 7.9604 20.3341C7.89666 20.3402 7.82596 20.3391 7.76917 20.3523C7.70543 20.3584 7.63451 20.3715 7.57773 20.3847C7.50681 20.3978 7.44284 20.418 7.37888 20.4382C7.32906 20.4586 7.2651 20.4789 7.20091 20.5132L7.02991 20.5954C6.96573 20.6298 6.91568 20.6644 6.85846 20.7059C6.80842 20.7405 6.75816 20.7892 6.70811 20.8238L6.56451 20.963C6.52839 21.0119 6.47812 21.0606 6.442 21.1096C6.3987 21.1655 6.36258 21.2144 6.32623 21.2775C6.29707 21.3336 6.26095 21.3826 6.23875 21.4459C6.20241 21.509 6.17324 21.5651 6.15104 21.6284C6.13602 21.6847 6.11382 21.748 6.09162 21.8113C6.08356 21.8748 6.06135 21.9381 6.05329 22.0017C6.05142 22.0164 6.04916 22.0315 6.04687 22.0469C6.0393 22.0975 6.0314 22.1505 6.03607 22.1994C5.85347 24.8415 6.20975 27.3929 7.09751 29.8748C8.01223 32.4421 9.43367 34.7131 11.3477 36.6877C13.1434 38.5402 15.2146 39.9586 17.568 40.9641C19.8445 41.9189 22.2128 42.4225 24.6943 42.4683C27.1761 42.4998 29.5589 42.0702 31.864 41.1868C34.1539 40.2917 36.1953 39.0076 37.9948 37.3159L37.8704 40.7272C37.8691 40.7622 37.8705 40.7948 37.8718 40.8274C37.8731 40.86 37.8744 40.8925 37.8731 40.9275C37.8809 40.9878 37.8884 41.0581 37.8962 41.1184C37.904 41.1788 37.9214 41.2495 37.9392 41.3101C37.957 41.3708 37.9748 41.4315 37.9923 41.5022C38.0201 41.5633 38.0479 41.6243 38.076 41.6754C38.1038 41.7364 38.1316 41.7975 38.1698 41.8489C38.2075 41.9103 38.2357 41.9614 38.2838 42.0132C38.322 42.0646 38.3602 42.116 38.4087 42.1578C38.4468 42.2092 38.4953 42.251 38.5435 42.3028C38.592 42.3446 38.6505 42.3868 38.6994 42.4186C38.7579 42.4607 38.8067 42.4925 38.8656 42.5247L39.0422 42.6212L39.2199 42.6877C39.2791 42.7099 39.3484 42.7324 39.4079 42.7446C39.4775 42.7571 39.5371 42.7693 39.6067 42.7819C39.6663 42.794 39.7363 42.7966 39.7962 42.7988L39.7963 42.7988L39.7964 42.7988C39.8663 42.8013 39.9262 42.8035 39.9965 42.7961C40.0568 42.7883 40.1271 42.7808 40.1874 42.773C40.2577 42.7656 40.3184 42.7478 40.3791 42.73C40.4498 42.7125 40.5105 42.6947 40.5712 42.6769L40.7543 42.5936C40.8054 42.5654 40.8665 42.5376 40.9179 42.4994C40.9789 42.4717 41.0304 42.4335 41.0818 42.3953C41.1336 42.3472 41.185 42.3091 41.2368 42.2609C41.2782 42.2224 41.33 42.1742 41.3718 42.1257C41.4136 42.0772 41.4554 42.0287 41.4975 41.9702C41.5293 41.9213 41.5715 41.8628 41.6037 41.804C41.6355 41.7551 41.6676 41.6962 41.6898 41.637C41.7223 41.5681 41.7445 41.5089 41.7667 41.4497C41.7889 41.3904 41.8014 41.3209 41.8136 41.2613C41.8358 41.202 41.8483 41.1324 41.8505 41.0725C41.863 41.0029 41.8652 40.9429 41.8678 40.873L42.0973 34.5772C42.1166 34.0475 42.0352 33.5342 41.8432 33.0369C41.6612 32.5399 41.3871 32.0996 41.0208 31.716C40.6649 31.3228 40.2457 31.0173 39.7634 30.7996C39.2813 30.5719 38.7753 30.4534 38.2457 30.4341L31.9498 30.2046C31.8799 30.202 31.8199 30.1998 31.7496 30.2073C31.6896 30.2051 31.6193 30.2125 31.5586 30.2303C31.4983 30.2381 31.428 30.2456 31.3673 30.2634C31.3066 30.2812 31.2459 30.299 31.1749 30.3264C31.1142 30.3442 31.0531 30.372 31.0021 30.4002C30.941 30.428 30.8796 30.4658 30.8286 30.4939C30.7671 30.5317 30.7157 30.5699 30.6643 30.608C30.6129 30.6462 30.5611 30.6943 30.5196 30.7328C30.4679 30.781 30.4261 30.8295 30.3743 30.8776C30.3325 30.9261 30.2907 30.9746 30.2585 31.0335C30.2167 31.082 30.1846 31.1409 30.1528 31.1898L30.0563 31.3664C30.0341 31.4256 30.0119 31.4848 29.9894 31.554C29.9672 31.6133 29.945 31.6725 29.9325 31.7421C29.9203 31.8017 29.9078 31.8713 29.8956 31.9309C29.883 32.0005 29.8809 32.0604 29.8783 32.1304C29.8761 32.1904 29.8736 32.2603 29.8814 32.3206C29.8888 32.3909 29.8966 32.4513 29.9041 32.5216C29.9119 32.5819 29.9293 32.6526 29.9471 32.7133L30.0005 32.8953L30.0839 33.0785C30.1117 33.1396 30.1399 33.1906 30.1776 33.252C30.2058 33.3031 30.2436 33.3645 30.2817 33.4159C30.3299 33.4677 30.368 33.5191 30.4165 33.5609C30.4547 33.6124 30.5032 33.6542 30.5517 33.696C30.5999 33.7477 30.6487 33.7795 30.7072 33.8217C30.7558 33.8635 30.8146 33.8957 30.8735 33.9278C30.9224 33.9596 30.9812 33.9918 31.0401 34.024Z" fill-rule="evenodd"  fill="#000000" >
</path>
</svg>
