<svg xmlns="http://www.w3.org/2000/svg" xmlns:xlink="http://www.w3.org/1999/xlink" width="48" height="48" viewBox="0 0 48 48" fill="none">
<path d="M21.6707 9.30301C23.3534 6.14849 26.6773 4 30.5 4C36.02 4 40.5 8.48 40.5 14C40.5 19.52 36.02 24 30.5 24C28.249 24 26.171 23.255 24.4992 21.9984C23.8836 22.9237 23.0988 23.7158 22.15 24.38C20.6 25.46 18.89 26 17 26C12.03 26 8 21.97 8 17C8 12.03 12.03 8 17 8C18.22 8 19.39 8.24 20.5 8.71C20.9087 8.88028 21.2987 9.07777 21.6707 9.30301ZM20.5152 13.4453C20.5134 13.4435 20.5117 13.4418 20.51 13.44C20.06 12.99 19.53 12.64 18.94 12.39C18.33 12.13 17.68 12 17 12C14.24 12 12 14.24 12 17C12 19.76 14.24 22 17 22C18.05 22 19 21.7 19.86 21.1C20.68 20.53 21.27 19.79 21.64 18.87C21.6557 18.8247 21.673 18.7801 21.6918 18.7364C20.9316 17.3263 20.5 15.7133 20.5 14C20.5 13.8139 20.5051 13.6289 20.5152 13.4453ZM36.5 14C36.5 17.31 33.81 20 30.5 20C27.19 20 24.5 17.31 24.5 14C24.5 10.69 27.19 8 30.5 8C33.81 8 36.5 10.69 36.5 14ZM36 26C40.42 26 44 29.58 44 34L44 38C44 41.31 41.31 44 38 44L10 44C6.69 44 4 41.31 4 38L4 36C4 31.58 7.58 28 12 28L19.707 28C21.1172 26.7551 22.97 26 25 26L36 26ZM21.8964 31.4757C21.994 31.3865 22.0828 31.2879 22.1613 31.1812C22.8858 30.4516 23.8899 30 25 30L36 30C38.21 30 40 31.79 40 34L40 38C40 39.1 39.1 40 38 40L21 40L21 34C21 33.0426 21.3359 32.1641 21.8964 31.4757ZM17.2518 32L12 32C9.79 32 8 33.79 8 36L8 38C8 39.1 8.9 40 10 40L17 40L17 34C17 33.3093 17.0874 32.6392 17.2518 32Z" fill-rule="evenodd"  fill="#000000" >
</path>
</svg>
