<svg xmlns="http://www.w3.org/2000/svg" xmlns:xlink="http://www.w3.org/1999/xlink" width="48" height="48" viewBox="0 0 48 48" fill="none">
<path d="M14 14C14 8.48 18.48 4 24 4C29.52 4 34 8.48 34 14C34 19.52 29.52 24 24 24C18.48 24 14 19.52 14 14ZM30 14C30 17.31 27.31 20 24 20C20.69 20 18 17.31 18 14C18 10.69 20.69 8 24 8C27.31 8 30 10.69 30 14ZM32.5 26L32.5 32.5L26 32.5C24.9 32.5 24 33.4 24 34.5C24 35.6 24.9 36.5 26 36.5L32.5 36.5L32.5 43C32.5 44.1 33.4 45 34.5 45C35.6 45 36.5 44.1 36.5 43L36.5 36.5L43 36.5C44.1 36.5 45 35.6 45 34.5C45 33.4 44.1 32.5 43 32.5L36.5 32.5L36.5 26C36.5 24.9 35.6 24 34.5 24C33.4 24 32.5 24.9 32.5 26ZM22 42C22 43.1 21.1 44 20 44L10 44C6.69 44 4 41.31 4 38L4 34C4 29.58 7.58 26 12 26L20 26C21.1 26 22 26.9 22 28C22 29.1 21.1 30 20 30L12 30C9.79 30 8 31.79 8 34L8 38C8 39.1 8.9 40 10 40L20 40C21.1 40 22 40.9 22 42Z" fill-rule="evenodd"  fill="#000000" >
</path>
</svg>
