<svg xmlns="http://www.w3.org/2000/svg" xmlns:xlink="http://www.w3.org/1999/xlink" width="48" height="48" viewBox="0 0 48 48" fill="none">
<path d="M46 24C46 35.598 36.598 45 25 45C13.402 45 4 35.598 4 24C4 12.402 13.402 3 25 3C36.598 3 46 12.402 46 24ZM30.0779 28.179C28.7946 29.5082 26.9942 30.3349 25.0008 30.3349C22.5602 30.3349 20.409 29.0959 19.1419 27.2125C18.3857 26.0886 17.9444 24.7351 17.9444 23.2786C17.9444 19.3815 21.1037 16.2222 25.0008 16.2222C26.9493 16.2222 28.7134 17.0121 29.9903 18.289C31.2673 19.5659 32.0571 21.33 32.0571 23.2786C32.0571 23.2945 32.057 23.3105 32.0569 23.3264C32.0582 23.382 32.0615 23.4381 32.0669 23.4948C32.086 23.6973 32.1313 23.9066 32.2026 24.1229C32.2157 24.1624 32.2296 24.2022 32.2444 24.2422C32.2628 24.292 32.2822 24.3411 32.3026 24.3896C32.3904 24.5988 32.4965 24.7957 32.6207 24.9803C32.6717 25.0561 32.7258 25.1298 32.7829 25.2014C32.8303 25.2609 32.8785 25.3171 32.9273 25.3702C33.0712 25.5265 33.2211 25.6548 33.3771 25.7552C33.407 25.7744 33.437 25.7926 33.4673 25.8098C33.6619 25.9201 33.8477 25.9753 34.0247 25.9753C35.1156 25.9753 36 25.0909 36 24C36 17.9249 31.0751 13 25 13C23.1996 13 21.5001 13.4326 20 14.1994C17.7038 15.3733 15.8745 17.3303 14.8644 19.7183C14.3078 21.0343 14 22.4812 14 24C14 30.0751 18.9249 35 25 35C26.2759 35 27.5087 34.7881 28.6983 34.3642C29.8432 33.9563 30.8937 33.3724 31.8496 32.6127C32.1933 32.3342 32.6311 32.1674 33.1079 32.1674C34.2125 32.1674 35.1079 33.0628 35.1079 34.1674C35.1079 34.8079 34.8068 35.3781 34.3384 35.7441C34.1756 35.8735 34.0107 35.9992 33.8438 36.1212C32.6755 36.9749 31.4078 37.6452 30.0408 38.1322C29.8378 38.2045 29.634 38.2723 29.4293 38.3356C27.9961 38.7785 26.5197 39 25 39C16.7157 39 10 32.2843 10 24C10 22.2191 10.3104 20.5106 10.88 18.9258C12.6287 14.0601 16.8211 10.3598 21.977 9.30475C22.9534 9.10493 23.9645 9 25 9C33.2843 9 40 15.7157 40 24C40 27.3 37.3248 29.9753 34.0247 29.9753C33.1444 29.9753 32.3011 29.7467 31.4947 29.2895C31.3308 29.1966 31.1714 29.0959 31.0162 28.9872C30.8053 28.8395 30.6025 28.6773 30.4078 28.5005C30.2951 28.3982 30.1852 28.291 30.0779 28.179ZM28.0567 23.2332C28.0565 23.247 28.0563 23.2609 28.0563 23.2747C28.0563 23.2942 28.0564 23.3137 28.0566 23.3332C28.0275 24.9959 26.6705 26.3349 25.0008 26.3349C24.153 26.3349 23.3859 25.9897 22.8322 25.4323C22.2835 24.8798 21.9444 24.1188 21.9444 23.2786C21.9444 21.5906 23.3128 20.2222 25.0008 20.2222C26.0463 20.2222 26.9692 20.7472 27.5202 21.5479C27.8509 22.0284 28.0476 22.6081 28.0567 23.2332Z" fill-rule="evenodd"  fill="#000000" >
</path>
</svg>
