<svg xmlns="http://www.w3.org/2000/svg" xmlns:xlink="http://www.w3.org/1999/xlink" width="48" height="48" viewBox="0 0 48 48" fill="none">
<path d="M23.5007 21.9984C21.8289 23.2551 19.7509 24 17.5 24C11.98 24 7.5 19.52 7.5 14C7.5 8.48 11.98 4 17.5 4C21.3226 4 24.6464 6.14836 26.3291 9.30273C26.701 9.07761 27.0909 8.88021 27.4994 8.71C28.6094 8.24 29.7794 8 30.9994 8C35.9694 8 39.9994 12.03 39.9994 17C39.9994 21.97 35.9694 26 30.9994 26C29.1194 26 27.3994 25.46 25.8594 24.38C24.9043 23.7159 24.1172 22.9237 23.5007 21.9984ZM26.3068 18.7389C26.3261 18.785 26.3436 18.8321 26.3594 18.88C26.7294 19.79 27.3194 20.53 28.1394 21.1C28.9994 21.7 29.9494 22 30.9994 22C33.7594 22 35.9994 19.76 35.9994 17C35.9994 14.24 33.7594 12 30.9994 12C30.3194 12 29.6694 12.13 29.0594 12.39C28.4694 12.64 27.9494 12.98 27.4994 13.43C27.4946 13.435 27.4897 13.4399 27.4848 13.4448C27.4949 13.6286 27.5 13.8137 27.5 14C27.5 15.7143 27.0679 17.3283 26.3068 18.7389ZM11.5 14C11.5 10.69 14.19 8 17.5 8C20.81 8 23.5 10.69 23.5 14C23.5 17.31 20.81 20 17.5 20C14.19 20 11.5 17.31 11.5 14ZM30.7482 32C30.9126 32.6392 31 33.3093 31 34L31 40L38 40C39.1 40 40 39.1 40 38L40 36C40 33.79 38.21 32 36 32L30.7482 32ZM26.1036 31.4757C26.6641 32.1641 27 33.0426 27 34L27 40L10 40C8.9 40 8 39.1 8 38L8 34C8 31.79 9.79 30 12 30L23 30C24.1101 30 25.1142 30.4516 25.8387 31.1812C25.9172 31.2879 26.006 31.3865 26.1036 31.4757ZM28.293 28C26.8828 26.7551 25.03 26 23 26L12 26C7.58 26 4 29.58 4 34L4 38C4 41.31 6.69 44 10 44L38 44C41.31 44 44 41.31 44 38L44 36C44 31.58 40.42 28 36 28L28.293 28Z" fill-rule="evenodd"  fill="#000000" >
</path>
</svg>
