<svg xmlns="http://www.w3.org/2000/svg" xmlns:xlink="http://www.w3.org/1999/xlink" width="48" height="48" viewBox="0 0 48 48" fill="none">
<path d="M10 42L20 42C20 42 18.5 39 18.5 35C18.5 31 20 28 20 28L12 28C8.68629 28 6 30.6863 6 34L6 38C6 40.2091 7.79086 42 10 42Z"   fill="#4187FF" >
</path>
<path d="M4 34L4 38C4 41.3137 6.68629 44 10 44L20 44C21.4868 44 22.4538 42.4354 21.7889 41.1056C20.9296 39.3871 20.5 37.3519 20.5 35C20.5 32.6481 20.9296 30.6129 21.7889 28.8944C22.1213 28.2295 22.0458 27.5059 21.9249 27.3103C21.9035 27.2757 21.8806 27.2576 21.8584 27.2594C21.5702 26.5421 20.8752 26 20 26L12 26C7.58172 26 4 29.5817 4 34ZM10 40C8.89543 40 8 39.1046 8 38L8 34C8 31.7909 9.79086 30 12 30L17.1191 30C16.7064 31.5401 16.5 33.2067 16.5 35C16.5 36.7933 16.7064 38.4599 17.1191 40L10 40Z" fill-rule="evenodd"  fill="#1764FF" >
</path>
<path d="M24 24C29.5228 24 34 19.5228 34 14C34 8.47715 29.5228 4 24 4C18.4771 4 14 8.47715 14 14C14 19.5228 18.4771 24 24 24Z" fill-rule="evenodd"  fill="#1764FF" >
</path>
<path d="M24 34.5C24 35.6046 24.8954 36.5 26 36.5L43 36.5C44.1046 36.5 45 35.6046 45 34.5C45 33.3954 44.1046 32.5 43 32.5L26 32.5C24.8954 32.5 24 33.3954 24 34.5Z" fill-rule="evenodd"  fill="#4187FF" >
</path>
<path d="M34.5 24C33.3954 24 32.5 24.8954 32.5 26L32.5 43C32.5 44.1046 33.3954 45 34.5 45C35.6046 45 36.5 44.1046 36.5 43L36.5 26C36.5 24.8954 35.6046 24 34.5 24Z" fill-rule="evenodd"  fill="#1764FF" >
</path>
</svg>
