<svg xmlns="http://www.w3.org/2000/svg" xmlns:xlink="http://www.w3.org/1999/xlink" width="48" height="48" viewBox="0 0 48 48" fill="none">
<path d="M42 38L42 34C42 30.69 39.31 28 36 28L25 28C21.69 28 19 30.69 19 34L19 42L38 42C40.21 42 42 40.21 42 38Z"   fill="#4187FF" >
</path>
<path d="M17 34L17 44L38 44C41.3137 44 44 41.3137 44 38L44 34C44 29.5817 40.4183 26 36 26L25 26C20.5817 26 17 29.5817 17 34ZM21 40L38 40C39.1046 40 40 39.1046 40 38L40 34C40 31.7909 38.2091 30 36 30L25 30C22.7909 30 21 31.7909 21 34L21 40Z" fill-rule="evenodd"  fill="#1764FF" >
</path>
<path d="M26.61 4.79C27.85 4.26 29.14 4 30.5 4C31.86 4 33.15 4.26 34.39 4.79C35.59 5.29 36.65 6.01 37.57 6.93C38.49 7.85 39.21 8.91 39.71 10.11C40.24 11.35 40.5 12.64 40.5 14C40.5 15.36 40.24 16.65 39.71 17.89C39.21 19.09 38.49 20.15 37.57 21.07C36.65 21.99 35.59 22.71 34.39 23.21C33.15 23.74 31.86 24 30.5 24C29.14 24 27.85 23.74 26.61 23.21C25.41 22.71 24.35 21.99 23.43 21.07C22.51 20.15 21.79 19.09 21.29 17.89C20.76 16.65 20.5 15.36 20.5 14C20.5 12.64 20.76 11.35 21.29 10.11C21.79 8.91 22.51 7.85 23.43 6.93C24.35 6.01 25.41 5.29 26.61 4.79Z"   fill="#1764FF" >
</path>
<path d="M14 41.5L14 44L10 44C9.19 44 8.41 43.84 7.66 43.53C6.95 43.22 6.31 42.8 5.76 42.24C5.2 41.69 4.78 41.05 4.47 40.34C4.16 39.59 4 38.81 4 38L4 36C4 34.94 4.2 33.92 4.61 32.94C5.02 31.95 5.59 31.09 6.34 30.35C7.09 29.6 7.95 29.02 8.94 28.61C9.92 28.2 10.94 28 12 28L15.7781 28L15.7781 28C15.426 28.5409 15.1227 29.1135 14.87 29.72C14.29 31.08 14 32.51 14 34L14 38C14 39.22 14 41.5 14 41.5Z" fill-rule="evenodd"  fill="#4187FF" >
</path>
<path d="M13.5 8.71C12.42 9.16 11.46 9.8 10.63 10.63C9.8 11.46 9.16 12.42 8.71 13.5C8.24 14.61 8 15.78 8 17C8 18.22 8.24 19.39 8.71 20.5C9.16 21.58 9.8 22.54 10.63 23.37C11.46 24.2 12.42 24.84 13.5 25.29C14.61 25.76 15.78 26 17 26C18.22 26 19.39 25.76 20.5 25.29C21.1918 25.0018 21.8343 24.6356 22.425 24.1915C22.0366 23.8816 21.6648 23.5478 21.31 23.19C20.11 22 19.18 20.62 18.52 19.06C17.84 17.45 17.5 15.76 17.5 14C17.5 12.24 17.84 10.55 18.52 8.94C18.6273 8.68646 18.7417 8.43768 18.8632 8.1937C18.2566 8.06504 17.6351 8 17 8C15.78 8 14.61 8.24 13.5 8.71Z"   fill="#4187FF" >
</path>
</svg>
