<svg xmlns="http://www.w3.org/2000/svg" xmlns:xlink="http://www.w3.org/1999/xlink" width="48" height="48" viewBox="0 0 48 48" fill="none">
<path d="M27.5 14C27.5 15.0138 27.3555 15.9888 27.0624 16.9331C26.8831 17.5177 26.6517 18.0795 26.3735 18.6131C25.9086 19.5138 25.3095 20.3274 24.586 21.054C24.5807 21.0593 24.5753 21.0647 24.57 21.07C24.5647 21.0753 24.5593 21.0807 24.554 21.086C23.8274 21.8095 23.0138 22.4085 22.1132 22.8735C21.5795 23.1517 21.0176 23.3831 20.433 23.5624C19.4887 23.8555 18.5138 24 17.5 24C16.4862 24 15.5113 23.8555 14.567 23.5624C13.9824 23.3831 13.4205 23.1517 12.8868 22.8735C11.9862 22.4086 11.1726 21.8095 10.446 21.086C10.4407 21.0807 10.4353 21.0753 10.43 21.07C10.4247 21.0647 10.4193 21.0593 10.414 21.054C9.69048 20.3273 9.09135 19.5137 8.62641 18.613C8.34829 18.0794 8.11689 17.5177 7.93764 16.9332C7.6445 15.9888 7.5 15.0139 7.5 14C7.5 12.9861 7.6445 12.0111 7.93765 11.0668C8.1169 10.4823 8.3483 9.92059 8.62641 9.38704C9.09363 8.48191 9.69638 7.66466 10.4247 6.9353C10.4265 6.93354 10.4282 6.93177 10.43 6.93C10.4318 6.92823 10.4335 6.92647 10.4353 6.9247C11.1647 6.19638 11.9819 5.59364 12.887 5.12642C13.4206 4.8483 13.9823 4.61689 14.5668 4.43763C15.5112 4.1445 16.4861 4 17.5 4C18.5139 4 19.4888 4.1445 20.4332 4.43763C21.0177 4.61689 21.5794 4.8483 22.113 5.12643C23.0181 5.59365 23.8354 6.19639 24.5647 6.9247C24.5665 6.92647 24.5682 6.92823 24.57 6.93C24.5718 6.93177 24.5735 6.93354 24.5753 6.9353C25.3036 7.66461 25.9063 8.4818 26.3735 9.38686C26.6517 9.92051 26.8831 10.4823 27.0624 11.0669C27.3555 12.0112 27.5 12.9862 27.5 14ZM29.14 8.19C29.75 8.07 30.37 8 31 8C32.22 8 33.39 8.24 34.5 8.71C35.58 9.16 36.54 9.8 37.37 10.63C38.2 11.46 38.84 12.42 39.29 13.5C39.76 14.61 40 15.78 40 17C40 18.22 39.76 19.39 39.29 20.5C38.84 21.58 38.2 22.54 37.37 23.37C36.54 24.2 35.58 24.84 34.5 25.29C33.39 25.76 32.22 26 31 26C29.78 26 28.61 25.76 27.5 25.29C26.81 25 26.17 24.64 25.58 24.19C25.97 23.88 26.34 23.55 26.69 23.19C27.89 22 28.82 20.62 29.48 19.06C30.16 17.45 30.5 15.76 30.5 14C30.5 12.24 30.16 10.55 29.48 8.94C29.38 8.69 29.26 8.44 29.14 8.19ZM12 26C7.58 26 4 29.58 4 34L4 38C4 41.31 6.69 44 10 44L31 44L31 34C31 29.58 27.42 26 23 26L12 26ZM37.9972 44C38.8072 44 39.5872 43.84 40.3372 43.53C41.0472 43.22 41.6872 42.8 42.2372 42.24C42.7972 41.69 43.2172 41.05 43.5272 40.34C43.8372 39.59 43.9972 38.81 43.9972 38L43.9972 36C43.9972 34.94 43.7972 33.92 43.3872 32.94C42.9772 31.95 42.4072 31.09 41.6572 30.35C40.9072 29.6 40.0472 29.02 39.0572 28.61C38.0772 28.2 37.0572 28 35.9972 28L32.2172 28C32.5672 28.54 32.8772 29.11 33.1272 29.72C33.7072 31.08 33.9972 32.51 33.9972 34L33.9972 44L37.9972 44Z" fill-rule="evenodd"  fill="#000000" >
</path>
</svg>
