<svg xmlns="http://www.w3.org/2000/svg" xmlns:xlink="http://www.w3.org/1999/xlink" width="48" height="48" viewBox="0 0 48 48" fill="none">
<path d="M18 26C11.3726 26 6 31.3726 6 38L6 42C6 43.1046 6.89543 44 8 44C9.10457 44 10 43.1046 10 42L10 38C10 33.5817 13.5817 30 18 30L30 30C34.4183 30 38 33.5817 38 38L38 42C38 43.1046 38.8954 44 40 44C41.1046 44 42 43.1046 42 42L42 38C42 31.3726 36.6274 26 30 26L18 26Z" fill-rule="evenodd"  fill="#424242" >
</path>
<path d="M24 35.75L22.3276 38.8858L24 41.3944L25.6725 38.8858L24 35.75ZM21.7156 31.5333L18.7982 37.0034C18.0477 38.4106 18.1148 39.7777 18.9994 41.1046L20.6718 43.6132C22.2551 45.9882 25.7449 45.9882 27.3282 43.6132L29.0007 41.1046C29.8853 39.7777 29.9524 38.4106 29.2019 37.0034L26.2845 31.5333L26.8816 30.4884C28.0244 28.4884 26.5803 26 24.2768 26L23.7232 26C21.4197 26 19.9756 28.4884 21.1185 30.4884L21.7156 31.5333Z" fill-rule="evenodd"  fill="#424242" >
</path>
<path d="M24 24C29.5228 24 34 19.5228 34 14C34 8.47715 29.5228 4 24 4C18.4771 4 14 8.47715 14 14C14 19.5228 18.4771 24 24 24ZM24 8C27.3137 8 30 10.6863 30 14C30 17.3137 27.3137 20 24 20C20.6863 20 18 17.3137 18 14C18 10.6863 20.6863 8 24 8Z" fill-rule="evenodd"  fill="#787878" >
</path>
</svg>
