<svg xmlns="http://www.w3.org/2000/svg" xmlns:xlink="http://www.w3.org/1999/xlink" width="48" height="48" viewBox="0 0 48 48" fill="none">
<path d="M37 29L37 30L29 30C27.8954 30 27 30.8954 27 32C27 33.1046 27.8954 34 29 34L43 34C44.922 34 45.7376 31.5532 44.2 30.4L40.2 27.4C38.8815 26.4111 37 27.3519 37 29Z" fill-rule="evenodd"  fill="#424242" >
</path>
<path d="M35 41L35 40L43 40C44.1046 40 45 39.1046 45 38C45 36.8954 44.1046 36 43 36L29 36C27.078 36 26.2624 38.4468 27.8 39.6L31.8 42.6C33.1185 43.5889 35 42.6481 35 41Z" fill-rule="evenodd"  fill="#424242" >
</path>
<path d="M24 24C29.5228 24 34 19.5228 34 14C34 8.47715 29.5228 4 24 4C18.4771 4 14 8.47715 14 14C14 19.5228 18.4771 24 24 24ZM24 8C27.3137 8 30 10.6863 30 14C30 17.3137 27.3137 20 24 20C20.6863 20 18 17.3137 18 14C18 10.6863 20.6863 8 24 8Z" fill-rule="evenodd"  fill="#787878" >
</path>
<path d="M10 45L20 45C21.1046 45 22 44.1046 22 43C22 41.8954 21.1046 41 20 41L10 41C8.89543 41 8 40.1046 8 39L8 35C8 32.7909 9.79086 31 12 31L20 31C21.1046 31 22 30.1046 22 29C22 27.8954 21.1046 27 20 27L12 27C7.58172 27 4 30.5817 4 35L4 39C4 42.3137 6.68629 45 10 45Z" fill-rule="evenodd"  fill="#787878" >
</path>
</svg>
