<svg xmlns="http://www.w3.org/2000/svg" xmlns:xlink="http://www.w3.org/1999/xlink" width="48" height="48" viewBox="0 0 48 48" fill="none">
<path d="M20.5 14C20.5 12.9862 20.6445 12.0112 20.9376 11.0669C21.1169 10.4823 21.3483 9.92051 21.6265 9.38686C22.0937 8.4818 22.6964 7.66461 23.4247 6.9353C23.4265 6.93354 23.4282 6.93177 23.43 6.93C23.4318 6.92823 23.4335 6.92647 23.4353 6.9247C24.1646 6.19639 24.9819 5.59365 25.887 5.12644C26.4206 4.8483 26.9823 4.61689 27.5668 4.43763C28.5112 4.1445 29.4861 4 30.5 4C31.5139 4 32.4888 4.1445 33.4332 4.43763C34.0177 4.61689 34.5794 4.8483 35.113 5.12642C36.0181 5.59365 36.8353 6.19639 37.5647 6.9247C37.5665 6.92647 37.5682 6.92823 37.57 6.93C37.5718 6.93177 37.5735 6.93354 37.5753 6.9353C38.3036 7.6646 38.9063 8.48177 39.3735 9.38682C39.6517 9.92055 39.8832 10.4825 40.0625 11.0671C40.3555 12.0114 40.5 12.9862 40.5 14C40.5 15.0137 40.3555 15.9886 40.0625 16.9328C39.8832 17.5175 39.6517 18.0794 39.3735 18.6132C38.9086 19.5138 38.3095 20.3274 37.586 21.054C37.5807 21.0593 37.5753 21.0647 37.57 21.07C37.5647 21.0753 37.5593 21.0807 37.554 21.086C36.8274 21.8095 36.0138 22.4086 35.1132 22.8735C34.5795 23.1517 34.0176 23.3831 33.433 23.5624C32.4887 23.8555 31.5138 24 30.5 24C29.4862 24 28.5113 23.8555 27.567 23.5624C26.9823 23.3831 26.4205 23.1517 25.8868 22.8735C24.9862 22.4085 24.1726 21.8095 23.446 21.086C23.4407 21.0807 23.4353 21.0753 23.43 21.07C23.4247 21.0647 23.4193 21.0593 23.414 21.054C22.6905 20.3274 22.0914 19.5138 21.6265 18.6131C21.3483 18.0795 21.1169 17.5177 20.9376 16.9331C20.6445 15.9888 20.5 15.0138 20.5 14ZM8.71 13.5C9.16 12.42 9.8 11.46 10.63 10.63C11.46 9.8 12.42 9.16 13.5 8.71C14.61 8.24 15.78 8 17 8C17.64 8 18.26 8.07 18.86 8.19C18.74 8.44 18.63 8.69 18.52 8.94C17.84 10.55 17.5 12.24 17.5 14C17.5 15.76 17.84 17.45 18.52 19.06C19.18 20.62 20.11 22 21.31 23.19C21.66 23.55 22.04 23.88 22.43 24.19C21.83 24.64 21.19 25 20.5 25.29C19.39 25.76 18.22 26 17 26C15.78 26 14.61 25.76 13.5 25.29C12.42 24.84 11.46 24.2 10.63 23.37C9.8 22.54 9.16 21.58 8.71 20.5C8.24 19.39 8 18.22 8 17C8 15.78 8.24 14.61 8.71 13.5ZM38 44C41.31 44 44 41.31 44 38L44 34C44 29.58 40.42 26 36 26L25 26C20.58 26 17 29.58 17 34L17 44L38 44ZM14 44L14 34C14 32.51 14.29 31.08 14.87 29.72C15.12 29.11 15.43 28.54 15.78 28L12 28C10.94 28 9.92 28.2 8.94 28.61C7.95 29.02 7.09 29.6 6.34 30.35C5.59 31.09 5.02 31.95 4.61 32.94C4.2 33.92 4 34.94 4 36L4 38C4 38.81 4.16 39.59 4.47 40.34C4.78 41.05 5.2 41.69 5.76 42.24C6.31 42.8 6.95 43.22 7.66 43.53C8.41 43.84 9.19 44 10 44L14 44Z" fill-rule="evenodd"  fill="#000000" >
</path>
</svg>
