<svg xmlns="http://www.w3.org/2000/svg" xmlns:xlink="http://www.w3.org/1999/xlink" width="48" height="48" viewBox="0 0 48 48" fill="none">
<path d="M12 32L20.5455 32C21.65 32 22.5455 31.1046 22.5455 30C22.5455 28.8954 21.65 28 20.5455 28L12 28C7.58172 28 4 31.5817 4 36L4 38C4 41.3137 6.68629 44 10 44L24 44C25.1046 44 26 43.1046 26 42C26 40.8954 25.1046 40 24 40L10 40C8.89543 40 8 39.1046 8 38L8 36C8 33.7909 9.79086 32 12 32Z" fill-rule="evenodd"  fill="#787878" >
</path>
<path d="M17 12C18.3807 12 19.5592 12.4882 20.5355 13.4645C20.8975 13.8264 21.3975 14.0503 21.9497 14.0503C23.0543 14.0503 23.9497 13.1548 23.9497 12.0503C23.9497 11.498 23.7259 10.998 23.364 10.636C21.6066 8.87868 19.4853 8 17 8C12.0294 8 8 12.0294 8 17C8 21.9706 12.0294 26 17 26C21.0967 26 23.8893 24.0977 25.3779 20.2932C25.4763 20.0568 25.5307 19.7973 25.5307 19.5252C25.5307 18.4207 24.6352 17.5252 23.5307 17.5252C22.666 17.5252 21.9296 18.0739 21.6504 18.842C20.8221 20.9473 19.2719 22 17 22C14.2386 22 12 19.7614 12 17C12 14.2386 14.2386 12 17 12Z" fill-rule="evenodd"  fill="#787878" >
</path>
<path d="M17 34L17 44L38 44C41.3137 44 44 41.3137 44 38L44 34C44 29.5817 40.4183 26 36 26L25 26C20.5817 26 17 29.5817 17 34ZM21 40L38 40C39.1046 40 40 39.1046 40 38L40 34C40 31.7909 38.2091 30 36 30L25 30C22.7909 30 21 31.7909 21 34L21 40Z" fill-rule="evenodd"  fill="#424242" >
</path>
<path d="M30.5 24C36.0228 24 40.5 19.5228 40.5 14C40.5 8.47715 36.0228 4 30.5 4C24.9771 4 20.5 8.47715 20.5 14C20.5 19.5228 24.9771 24 30.5 24ZM30.5 8C33.8137 8 36.5 10.6863 36.5 14C36.5 17.3137 33.8137 20 30.5 20C27.1863 20 24.5 17.3137 24.5 14C24.5 10.6863 27.1863 8 30.5 8Z" fill-rule="evenodd"  fill="#424242" >
</path>
</svg>
