<svg xmlns="http://www.w3.org/2000/svg" xmlns:xlink="http://www.w3.org/1999/xlink" width="48" height="48" viewBox="0 0 48 48" fill="none">
<path d="M36 32L27.4545 32C26.35 32 25.4545 31.1046 25.4545 30C25.4545 28.8954 26.35 28 27.4545 28L36 28C40.4183 28 44 31.5817 44 36L44 38C44 41.3137 41.3137 44 38 44L24 44C22.8954 44 22 43.1046 22 42C22 40.8954 22.8954 40 24 40L38 40C39.1046 40 40 39.1046 40 38L40 36C40 33.7909 38.2091 32 36 32Z" fill-rule="evenodd"  fill="#787878" >
</path>
<path d="M31 12C29.6193 12 28.4408 12.4882 27.4645 13.4645C27.1025 13.8264 26.6025 14.0503 26.0503 14.0503C24.9457 14.0503 24.0503 13.1548 24.0503 12.0503C24.0503 11.498 24.2741 10.998 24.636 10.636C26.3934 8.87868 28.5147 8 31 8C35.9706 8 40 12.0294 40 17C40 21.9706 35.9706 26 31 26C26.9033 26 24.1107 24.0977 22.6221 20.2932C22.5237 20.0568 22.4693 19.7973 22.4693 19.5252C22.4693 18.4207 23.3648 17.5252 24.4693 17.5252C25.334 17.5252 26.0704 18.0739 26.3496 18.842C27.1779 20.9473 28.7281 22 31 22C33.7614 22 36 19.7614 36 17C36 14.2386 33.7614 12 31 12Z" fill-rule="evenodd"  fill="#787878" >
</path>
<path d="M31 34L31 44L10 44C6.6863 44 4 41.3137 4 38L4 34C4 29.5817 7.5817 26 12 26L23 26C27.4183 26 31 29.5817 31 34ZM27 40L10 40C8.8954 40 8 39.1046 8 38L8 34C8 31.7909 9.7909 30 12 30L23 30C25.2091 30 27 31.7909 27 34L27 40Z" fill-rule="evenodd"  fill="#424242" >
</path>
<path d="M17.5 24C11.9772 24 7.5 19.5228 7.5 14C7.5 8.47715 11.9772 4 17.5 4C23.0229 4 27.5 8.47715 27.5 14C27.5 19.5228 23.0229 24 17.5 24ZM17.5 8C14.1863 8 11.5 10.6863 11.5 14C11.5 17.3137 14.1863 20 17.5 20C20.8137 20 23.5 17.3137 23.5 14C23.5 10.6863 20.8137 8 17.5 8Z" fill-rule="evenodd"  fill="#424242" >
</path>
</svg>
