<svg xmlns="http://www.w3.org/2000/svg" xmlns:xlink="http://www.w3.org/1999/xlink" width="48" height="48" viewBox="0 0 48 48" fill="none">
<path d="M10 42L20 42C20 42 18.5 39 18.5 35C18.5 31 20 28 20 28L12 28C8.68629 28 6 30.6863 6 34L6 38C6 40.2091 7.79086 42 10 42Z"   fill="#4187FF" >
</path>
<path d="M4 34L4 38C4 41.3137 6.68629 44 10 44L20 44C21.4868 44 22.4538 42.4354 21.7889 41.1056C20.9296 39.3871 20.5 37.3519 20.5 35C20.5 32.6481 20.9296 30.6129 21.7889 28.8944C22.1213 28.2295 22.0458 27.5059 21.9249 27.3103C21.9035 27.2757 21.8806 27.2576 21.8584 27.2594C21.5702 26.5421 20.8752 26 20 26L12 26C7.58172 26 4 29.5817 4 34ZM10 40C8.89543 40 8 39.1046 8 38L8 34C8 31.7909 9.79086 30 12 30L17.1191 30C16.7064 31.5401 16.5 33.2067 16.5 35C16.5 36.7933 16.7064 38.4599 17.1191 40L10 40Z" fill-rule="evenodd"  fill="#1764FF" >
</path>
<path d="M24 24C29.5228 24 34 19.5228 34 14C34 8.47715 29.5228 4 24 4C18.4771 4 14 8.47715 14 14C14 19.5228 18.4771 24 24 24Z" fill-rule="evenodd"  fill="#1764FF" >
</path>
<path d="M38.7395 39.0344C37.7582 39.9446 36.4441 40.5011 35 40.5011C31.9621 40.5011 29.4995 38.0384 29.4995 35.0005C29.4995 31.9627 31.9621 29.5 35 29.5C38.0379 29.5 40.5005 31.9627 40.5005 35.0005L40.5005 35.0246C40.5146 35.4256 40.8438 35.7521 41.2479 35.7521C41.6633 35.7521 42 35.4154 42 35C42 31.134 38.866 28 35 28C31.134 28 28 31.134 28 35C28 38.866 31.134 42 35 42C36.3388 42 37.5299 41.7424 38.5734 41.2272C38.8504 41.0821 39.1656 41 39.5 41C40.6046 41 41.5 41.8954 41.5 43C41.5 43.7999 41.0304 44.4902 40.3518 44.8101C38.7486 45.6034 36.9647 46 35 46C28.9249 46 24 41.0751 24 35C24 28.9249 28.9249 24 35 24C41.0751 24 46 28.9249 46 35C46 37.6245 43.8724 39.7521 41.2479 39.7521C40.327 39.7521 39.4674 39.4892 38.7395 39.0344ZM36.5002 34.9692C36.4835 34.155 35.8183 33.5 35 33.5C34.1713 33.5 33.4995 34.1718 33.4995 35.0005C33.4995 35.8292 34.1713 36.5011 35 36.5011C35.8173 36.5011 36.482 35.8476 36.5001 35.0347C36.5 35.0224 36.5 35.0102 36.5 34.9979C36.5 34.9883 36.5001 34.9788 36.5002 34.9692Z" fill-rule="evenodd"  fill="#4187FF" >
</path>
<path d="M40.5 35C40.5 31.9624 38.0376 29.5 35 29.5C31.9624 29.5 29.5 31.9624 29.5 35C29.5 38.0376 31.9624 40.5 35 40.5C36.4441 40.5 37.7582 39.9434 38.7395 39.0331C39.4679 39.4875 40.3283 39.75 41.25 39.75C43.8734 39.75 46 37.6234 46 35C46 33.8954 45.1046 33 44 33C42.8954 33 42 33.8954 42 35C42 35.4142 41.6642 35.75 41.25 35.75C40.8358 35.75 40.5 35.4142 40.5 35ZM36.5 35C36.5 34.1716 35.8284 33.5 35 33.5C34.1716 33.5 33.5 34.1716 33.5 35C33.5 35.8284 34.1716 36.5 35 36.5C35.8284 36.5 36.5 35.8284 36.5 35Z" fill-rule="evenodd"  fill="#1764FF" >
</path>
</svg>
