<svg xmlns="http://www.w3.org/2000/svg" xmlns:xlink="http://www.w3.org/1999/xlink" width="48" height="48" viewBox="0 0 48 48" fill="none">
<path d="M34 14C34 19.5228 29.5228 24 24 24C18.4771 24 14 19.5228 14 14C14 8.47715 18.4771 4 24 4C29.5228 4 34 8.47715 34 14ZM6 38C6 31.3726 11.3726 26 18 26L30 26C36.6274 26 42 31.3726 42 38L42 42C42 43.1046 41.1046 44 40 44C38.8954 44 38 43.1046 38 42L38 38C38 33.5817 34.4183 30 30 30L27.1073 30C27.048 30.1649 26.9731 30.3282 26.8816 30.4884L26.2845 31.5333L29.2019 37.0034C29.5485 37.6534 29.7037 38.3461 29.6676 39.0818C29.6316 39.8175 29.4092 40.4917 29.0007 41.1046L27.3282 43.6132C25.7449 45.9882 22.2551 45.9882 20.6718 43.6132L18.9994 41.1046C18.5908 40.4917 18.3685 39.8175 18.3324 39.0818C18.2963 38.3461 18.4516 37.6534 18.7982 37.0034L21.7156 31.5333L21.1185 30.4884C21.0269 30.3282 20.952 30.1649 20.8928 30L18 30C13.5817 30 10 33.5817 10 38L10 42C10 43.1046 9.10457 44 8 44C6.89543 44 6 43.1046 6 42L6 38Z" fill-rule="evenodd"  fill="#000000" >
</path>
</svg>
