<svg xmlns="http://www.w3.org/2000/svg" xmlns:xlink="http://www.w3.org/1999/xlink" width="48" height="48" viewBox="0 0 48 48" fill="none">
<path d="M24 34.5C24 35.6046 24.8954 36.5 26 36.5L43 36.5C44.1046 36.5 45 35.6046 45 34.5C45 33.3954 44.1046 32.5 43 32.5L26 32.5C24.8954 32.5 24 33.3954 24 34.5Z" fill-rule="evenodd"  fill="#424242" >
</path>
<path d="M34.5 24C33.3954 24 32.5 24.8954 32.5 26L32.5 43C32.5 44.1046 33.3954 45 34.5 45C35.6046 45 36.5 44.1046 36.5 43L36.5 26C36.5 24.8954 35.6046 24 34.5 24Z" fill-rule="evenodd"  fill="#424242" >
</path>
<path d="M24 24.25C29.5228 24.25 34 19.7728 34 14.25C34 8.72715 29.5228 4.25 24 4.25C18.4771 4.25 14 8.72715 14 14.25C14 19.7728 18.4771 24.25 24 24.25ZM24 8.25C27.3137 8.25 30 10.9363 30 14.25C30 17.5637 27.3137 20.25 24 20.25C20.6863 20.25 18 17.5637 18 14.25C18 10.9363 20.6863 8.25 24 8.25Z" fill-rule="evenodd"  fill="#787878" >
</path>
<path d="M10 45L20 45C21.1046 45 22 44.1046 22 43C22 41.8954 21.1046 41 20 41L10 41C8.89543 41 8 40.1046 8 39L8 35C8 32.7909 9.79086 31 12 31L20 31C21.1046 31 22 30.1046 22 29C22 27.8954 21.1046 27 20 27L12 27C7.58172 27 4 30.5817 4 35L4 39C4 42.3137 6.68629 45 10 45Z" fill-rule="evenodd"  fill="#787878" >
</path>
</svg>
