<svg xmlns="http://www.w3.org/2000/svg" xmlns:xlink="http://www.w3.org/1999/xlink" width="48" height="48" viewBox="0 0 48 48" fill="none">
<path d="M31.07 21.07C30.15 21.99 29.09 22.71 27.89 23.21C26.65 23.74 25.36 24 24 24C22.64 24 21.35 23.74 20.11 23.21C18.91 22.71 17.85 21.99 16.93 21.07C16.01 20.15 15.29 19.09 14.79 17.89C14.26 16.65 14 15.36 14 14C14 12.64 14.26 11.35 14.79 10.11C15.29 8.91 16.01 7.85 16.93 6.93C17.85 6.01 18.91 5.29 20.11 4.79C21.35 4.26 22.64 4 24 4C25.36 4 26.65 4.26 27.89 4.79C29.09 5.29 30.15 6.01 31.07 6.93C31.99 7.85 32.71 8.91 33.21 10.11C33.74 11.35 34 12.64 34 14C34 15.36 33.74 16.65 33.21 17.89C32.71 19.09 31.99 20.15 31.07 21.07ZM4.47 40.34C4.16 39.59 4 38.81 4 38L4 34C4 32.92 4.21 31.88 4.63 30.89C5.04 29.93 5.61 29.08 6.34 28.34C7.08 27.61 7.93 27.04 8.89 26.63C9.88 26.21 10.92 26 12 26L36 26C37.08 26 38.12 26.21 39.11 26.63C40.07 27.04 40.92 27.61 41.66 28.34C42.39 29.08 42.96 29.93 43.37 30.89C43.79 31.88 44 32.92 44 34L44 38C44 38.81 43.84 39.59 43.53 40.34C43.22 41.05 42.8 41.69 42.24 42.24C41.69 42.8 41.05 43.22 40.34 43.53C39.59 43.84 38.81 44 38 44L10 44C9.19 44 8.41 43.84 7.66 43.53C6.95 43.22 6.31 42.8 5.76 42.24C5.2 41.69 4.78 41.05 4.47 40.34Z" fill-rule="evenodd"  fill="#000000" >
</path>
</svg>
