<svg xmlns="http://www.w3.org/2000/svg" xmlns:xlink="http://www.w3.org/1999/xlink" width="48" height="48" viewBox="0 0 48 48" fill="none">
<path d="M36 26L12 26C7.58172 26 4 29.5817 4 34L4 38C4 41.3137 6.68629 44 10 44L38 44C41.3137 44 44 41.3137 44 38L44 34C44 29.5817 40.4183 26 36 26ZM8 34C8 31.7909 9.79086 30 12 30L36 30C38.2091 30 40 31.7909 40 34L40 38C40 39.1046 39.1046 40 38 40L10 40C8.89543 40 8 39.1046 8 38L8 34Z" fill-rule="evenodd"  fill="#787878" >
</path>
<path d="M24 24C29.5228 24 34 19.5228 34 14C34 8.47715 29.5228 4 24 4C18.4771 4 14 8.47715 14 14C14 19.5228 18.4771 24 24 24ZM24 8C27.3137 8 30 10.6863 30 14C30 17.3137 27.3137 20 24 20C20.6863 20 18 17.3137 18 14C18 10.6863 20.6863 8 24 8Z" fill-rule="evenodd"  fill="#424242" >
</path>
</svg>
