<svg xmlns="http://www.w3.org/2000/svg" xmlns:xlink="http://www.w3.org/1999/xlink" width="48" height="48" viewBox="0 0 48 48" fill="none">
<path d="M20.1892 19.1392C19.6911 19.6373 19.3056 20.2087 19.0328 20.8534C18.7509 21.5197 18.61 22.2185 18.61 22.95C18.61 23.6815 18.7509 24.3803 19.0328 25.0466C19.3056 25.6913 19.6911 26.2627 20.1892 26.7608C20.6873 27.2589 21.2587 27.6444 21.9034 27.9172C22.5697 28.1991 23.2685 28.34 24 28.34C24.7315 28.34 25.4303 28.1991 26.0966 27.9172C26.7413 27.6444 27.3127 27.2589 27.8108 26.7608C28.3089 26.2627 28.6944 25.6913 28.9672 25.0466C29.2491 24.3803 29.39 23.6815 29.39 22.95C29.39 22.2185 29.2491 21.5197 28.9672 20.8534C28.6944 20.2087 28.3089 19.6373 27.8108 19.1392C27.3127 18.6411 26.7413 18.2556 26.0966 17.9828C25.4303 17.7009 24.7315 17.56 24 17.56C23.2685 17.56 22.5697 17.7009 21.9034 17.9828C21.2587 18.2556 20.6873 18.6411 20.1892 19.1392ZM37.2438 40.2944C37.2907 40.2487 37.3353 40.2009 37.3776 40.1509C37.4199 40.1008 37.4597 40.0488 37.4968 39.9949C37.534 39.941 37.5684 39.8853 37.6001 39.828C37.6318 39.7707 37.6607 39.712 37.6866 39.6518C37.7125 39.5917 37.7354 39.5304 37.7553 39.468C37.7752 39.4056 37.7921 39.3424 37.8058 39.2783C37.8195 39.2142 37.83 39.1497 37.8373 39.0846C37.8447 39.0195 37.8489 38.9542 37.8498 38.8887C37.8507 38.8232 37.8485 38.7579 37.843 38.6926C37.8375 38.6273 37.8289 38.5625 37.817 38.498C37.8051 38.4336 37.7901 38.3699 37.772 38.307C37.7539 38.2441 37.7328 38.1822 37.7086 38.1213C37.6844 38.0604 37.6573 38.0008 37.6272 37.9426C37.5971 37.8844 37.5643 37.8278 37.5287 37.7729C37.4931 37.7179 37.4549 37.6648 37.4141 37.6135C37.3733 37.5623 37.3301 37.5132 37.2844 37.4662C37.2387 37.4193 37.1909 37.3747 37.1409 37.3324C37.0908 37.2901 37.0388 37.2503 36.9849 37.2132C36.931 37.176 36.8753 37.1416 36.818 37.1099C36.7607 37.0782 36.7019 37.0493 36.6418 37.0234C36.5817 36.9975 36.5204 36.9746 36.458 36.9547C36.3956 36.9348 36.3324 36.9179 36.2683 36.9042C36.2042 36.8905 36.1397 36.88 36.0746 36.8727C36.0095 36.8653 35.9442 36.8611 35.8787 36.8602C35.8132 36.8593 35.7479 36.8615 35.6826 36.867C35.6173 36.8725 35.5525 36.8811 35.488 36.893C35.4236 36.9049 35.3599 36.9199 35.297 36.938C35.2341 36.9561 35.1721 36.9773 35.1112 37.0014C35.0503 37.0256 34.9908 37.0527 34.9326 37.0828C34.8744 37.1129 34.8178 37.1457 34.7629 37.1813C34.7079 37.2169 34.6548 37.2551 34.6035 37.2959C33.1214 38.477 31.4919 39.3842 29.715 40.0173C27.8762 40.6724 25.9712 41 24 41C21.6943 41 19.4894 40.5548 17.3851 39.6645C15.3516 38.8041 13.55 37.5891 11.9805 36.0195C10.4109 34.45 9.19592 32.6484 8.33551 30.6149C7.44517 28.5106 7 26.3057 7 24C7 21.6943 7.44517 19.4894 8.33551 17.3851C9.19592 15.3516 10.4109 13.55 11.9805 11.9805C13.55 10.4109 15.3516 9.19592 17.3851 8.33551C19.4894 7.44517 21.6943 7 24 7C26.3057 7 28.5106 7.44517 30.6149 8.33551C32.6484 9.19592 34.45 10.4109 36.0195 11.9805C37.5891 13.55 38.8041 15.3516 39.6645 17.3851C40.5548 19.4894 41 21.6943 41 24C41 24.5156 40.9006 25.0084 40.7017 25.4785C40.5088 25.9344 40.2362 26.3387 39.8837 26.6916C39.5312 27.0446 39.1271 27.3177 38.6714 27.5108C38.2009 27.7103 37.7071 27.81 37.19 27.81C36.769 27.81 36.3457 27.6894 35.9201 27.4481C35.4626 27.1888 35.0404 26.8166 34.6535 26.3315C34.2577 25.8354 33.9472 25.2829 33.7221 24.6741C33.502 24.0788 33.3913 23.5041 33.39 22.95L33.39 22.94L33.39 22.931L33.39 22.9307C33.3875 21.6652 33.1412 20.4532 32.651 19.2947C32.1756 18.1712 31.505 17.1766 30.6392 16.3108C29.7734 15.445 28.7788 14.7744 27.6553 14.299C26.4908 13.8063 25.2724 13.56 24 13.56C22.7275 13.56 21.5091 13.8063 20.3447 14.299C19.2212 14.7744 18.2266 15.445 17.3608 16.3108C16.495 17.1766 15.8244 18.1712 15.349 19.2947C14.8563 20.4592 14.61 21.6776 14.61 22.95C14.61 24.2225 14.8563 25.4409 15.349 26.6053C15.8244 27.7288 16.495 28.7234 17.3608 29.5892C18.2266 30.455 19.2212 31.1256 20.3447 31.601C21.5092 32.0937 22.7276 32.34 24 32.34C25.2725 32.34 26.4909 32.0937 27.6553 31.601C28.7788 31.1256 29.7734 30.455 30.6392 29.5892C30.9225 29.306 31.1848 29.009 31.4262 28.6981C31.4593 28.741 31.4927 28.7836 31.5265 28.826C32.2348 29.7138 33.0417 30.4144 33.9474 30.9278C34.9849 31.5159 36.0657 31.81 37.19 31.81C38.249 31.81 39.2632 31.6045 40.2326 31.1936C41.1668 30.7975 41.9939 30.2391 42.7138 29.5184C43.4331 28.7982 43.9904 27.9711 44.3855 27.0371C44.7952 26.0688 45 25.0565 45 24C45 21.1534 44.4494 18.4289 43.3483 15.8264C42.2853 13.314 40.7852 11.0892 38.848 9.15204C36.9107 7.21482 34.6859 5.7147 32.1735 4.65168C29.5711 3.55056 26.8466 3 24 3C21.1534 3 18.4289 3.55056 15.8264 4.65168C13.314 5.7147 11.0893 7.21482 9.15204 9.15204C7.21482 11.0893 5.7147 13.314 4.65168 15.8264C3.55056 18.4289 3 21.1534 3 24C3 26.8466 3.55056 29.5711 4.65168 32.1736C5.71471 34.6859 7.21483 36.9107 9.15204 38.848C11.0892 40.7852 13.314 42.2853 15.8264 43.3483C18.4289 44.4494 21.1534 45 24 45C26.4321 45 28.7846 44.5951 31.0575 43.7852C33.2535 43.0028 35.2665 41.8824 37.0965 40.4241C37.1477 40.3833 37.1968 40.3401 37.2438 40.2944Z" fill-rule="evenodd"  fill="#000000" >
</path>
</svg>
