<svg xmlns="http://www.w3.org/2000/svg" xmlns:xlink="http://www.w3.org/1999/xlink" width="48" height="48" viewBox="0 0 48 48" fill="none">
<path d="M23 28L12 28C8.69 28 6 30.69 6 34L6 38C6 40.21 7.79 42 10 42L29 42L29 34C29 30.69 26.31 28 23 28Z"   fill="#4187FF" >
</path>
<path d="M27 40L27 34C27 31.7909 25.2091 30 23 30L12 30C9.79086 30 8 31.7909 8 34L8 38C8 39.1046 8.89543 40 10 40L27 40ZM10 44L31 44L31 34C31 29.5817 27.4183 26 23 26L12 26C7.58172 26 4 29.5817 4 34L4 38C4 41.3137 6.68629 44 10 44Z" fill-rule="evenodd"  fill="#1764FF" >
</path>
<path d="M17.5 4C16.14 4 14.85 4.26 13.61 4.79C12.41 5.29 11.35 6.01 10.43 6.93C9.51 7.85 8.79 8.91 8.29 10.11C7.76 11.35 7.5 12.64 7.5 14C7.5 15.36 7.76 16.65 8.29 17.89C8.79 19.09 9.51 20.15 10.43 21.07C11.35 21.99 12.41 22.71 13.61 23.21C14.85 23.74 16.14 24 17.5 24C18.86 24 20.15 23.74 21.39 23.21C22.59 22.71 23.65 21.99 24.57 21.07C25.49 20.15 26.21 19.09 26.71 17.89C27.24 16.65 27.5 15.36 27.5 14C27.5 12.64 27.24 11.35 26.71 10.11C26.21 8.91 25.49 7.85 24.57 6.93C23.65 6.01 22.59 5.29 21.39 4.79C20.15 4.26 18.86 4 17.5 4Z"   fill="#1764FF" >
</path>
<path d="M32.2172 28L32.2172 28ZM37.9972 44C38.8072 44 39.5872 43.84 40.3372 43.53C41.0472 43.22 41.6872 42.8 42.2372 42.24C42.7972 41.69 43.2172 41.05 43.5272 40.34C43.8372 39.59 43.9972 38.81 43.9972 38L43.9972 36C43.9972 34.94 43.7972 33.92 43.3872 32.94C42.9772 31.95 42.4072 31.09 41.6572 30.35C40.9072 29.6 40.0472 29.02 39.0572 28.61C38.0772 28.2 37.0572 28 35.9972 28L32.2172 28C32.5672 28.54 32.8772 29.11 33.1272 29.72C33.7072 31.08 33.9972 32.51 33.9972 34L33.9972 38C33.9972 39.22 33.9972 41.5 33.9972 41.5L33.9972 44L37.9972 44Z" fill-rule="evenodd"  fill="#4187FF" >
</path>
<path d="M31 8C30.37 8 29.75 8.07 29.14 8.19C29.26 8.44 29.38 8.69 29.48 8.94C30.16 10.55 30.5 12.24 30.5 14C30.5 15.76 30.16 17.45 29.48 19.06C28.82 20.62 27.89 22 26.69 23.19C26.34 23.55 25.97 23.88 25.58 24.19C26.17 24.64 26.81 25 27.5 25.29C28.61 25.76 29.78 26 31 26C32.22 26 33.39 25.76 34.5 25.29C35.58 24.84 36.54 24.2 37.37 23.37C38.2 22.54 38.84 21.58 39.29 20.5C39.76 19.39 40 18.22 40 17C40 15.78 39.76 14.61 39.29 13.5C38.84 12.42 38.2 11.46 37.37 10.63C36.54 9.8 35.58 9.16 34.5 8.71C33.39 8.24 32.22 8 31 8Z"   fill="#4187FF" >
</path>
</svg>
