<svg xmlns="http://www.w3.org/2000/svg" xmlns:xlink="http://www.w3.org/1999/xlink" width="48" height="48" viewBox="0 0 48 48" fill="none">
<path d="M24 24C29.5228 24 34 19.5228 34 14C34 8.47715 29.5228 4 24 4C18.4771 4 14 8.47715 14 14C14 19.5228 18.4771 24 24 24ZM24 8C27.3137 8 30 10.6863 30 14C30 17.3137 27.3137 20 24 20C20.6863 20 18 17.3137 18 14C18 10.6863 20.6863 8 24 8Z" fill-rule="evenodd"  fill="#787878" >
</path>
<path d="M38.7395 39.0344C37.7582 39.9446 36.4441 40.5011 35 40.5011C31.9621 40.5011 29.4995 38.0384 29.4995 35.0005C29.4995 31.9627 31.9621 29.5 35 29.5C38.0379 29.5 40.5005 31.9627 40.5005 35.0005L40.5005 35.0246C40.5146 35.4256 40.8438 35.7521 41.2479 35.7521C41.6633 35.7521 42 35.4154 42 35C42 31.134 38.866 28 35 28C31.134 28 28 31.134 28 35C28 38.866 31.134 42 35 42C36.3388 42 37.5299 41.7424 38.5734 41.2272C38.8504 41.0821 39.1656 41 39.5 41C40.6046 41 41.5 41.8954 41.5 43C41.5 43.7999 41.0304 44.4902 40.3518 44.8101C38.7486 45.6034 36.9647 46 35 46C28.9249 46 24 41.0751 24 35C24 28.9249 28.9249 24 35 24C41.0751 24 46 28.9249 46 35C46 37.6245 43.8724 39.7521 41.2479 39.7521C40.327 39.7521 39.4674 39.4892 38.7395 39.0344ZM36.5002 34.9692C36.4835 34.155 35.8183 33.5 35 33.5C34.1713 33.5 33.4995 34.1718 33.4995 35.0005C33.4995 35.8292 34.1713 36.5011 35 36.5011C35.8173 36.5011 36.482 35.8476 36.5001 35.0347C36.5 35.0224 36.5 35.0102 36.5 34.9979C36.5 34.9883 36.5001 34.9788 36.5002 34.9692Z" fill-rule="evenodd"  fill="#424242" >
</path>
<path d="M10 44.75L20 44.75C21.1046 44.75 22 43.8546 22 42.75C22 41.6454 21.1046 40.75 20 40.75L10 40.75C8.89543 40.75 8 39.8546 8 38.75L8 34.75C8 32.5409 9.79086 30.75 12 30.75L20 30.75C21.1046 30.75 22 29.8546 22 28.75C22 27.6454 21.1046 26.75 20 26.75L12 26.75C7.58172 26.75 4 30.3317 4 34.75L4 38.75C4 42.0637 6.68629 44.75 10 44.75Z" fill-rule="evenodd"  fill="#787878" >
</path>
</svg>
