<svg xmlns="http://www.w3.org/2000/svg" xmlns:xlink="http://www.w3.org/1999/xlink" width="48" height="48" viewBox="0 0 48 48" fill="none">
<path d="M7 11L7 37C7 41.4183 10.5817 45 15 45L33 45C37.4183 45 41 41.4183 41 37L41 17L40.9703 17C40.9147 16.442 40.7811 15.899 40.5696 15.3711C40.2827 14.655 39.8728 14.0178 39.3401 13.4598L31.1285 4.85714C31.04 4.76445 30.9493 4.67505 30.8562 4.58896C30.3911 4.15871 29.8687 3.81101 29.289 3.54585C29.2427 3.52463 29.1959 3.50395 29.1488 3.48379C28.9603 3.40316 28.7698 3.33261 28.5773 3.27214C28.2251 3.16153 27.866 3.08465 27.5 3.04147L27.5 3L15 3C10.5817 3 7 6.58172 7 11ZM23.5 7L15 7C12.7909 7 11 8.79086 11 11L11 37C11 39.2091 12.7909 41 15 41L33 41C35.2091 41 37 39.2091 37 37L37 21L31.5 21C27.0817 21 23.5 17.4183 23.5 13L23.5 7ZM36.9072 17C36.8921 16.9526 36.8752 16.9055 36.8565 16.8588C36.7609 16.6201 36.6243 16.4077 36.4467 16.2217L28.2351 7.61905C28.2115 7.59434 28.1874 7.57033 28.1629 7.54703C27.991 7.38392 27.7951 7.25533 27.5752 7.16126C27.5503 7.15059 27.5252 7.14044 27.5 7.13082L27.5 13C27.5 15.2091 29.2909 17 31.5 17L36.9072 17Z" fill-rule="evenodd"  fill="#787878" >
</path>
<path d="M22.25 38.5934L29 34.6963C33 32.3869 33 26.6133 29 24.3039L22.25 20.4068C18.25 18.0974 13.25 20.9841 13.25 25.603L13.25 33.3972C13.25 38.016 18.25 40.9028 22.25 38.5934ZM27 27.768C28.3333 28.5378 28.3333 30.4624 27 31.2322L20.25 35.1293C18.9167 35.8991 17.25 34.9368 17.25 33.3972L17.25 25.603C17.25 24.0633 18.9167 23.1011 20.25 23.8709L27 27.768Z" fill-rule="evenodd"  fill="#424242" >
</path>
</svg>
