<svg xmlns="http://www.w3.org/2000/svg" xmlns:xlink="http://www.w3.org/1999/xlink" width="48" height="48" viewBox="0 0 48 48" fill="none">
<path d="M3 10.5C3 6.08172 6.58172 2.5 11 2.5L18.3056 2.5Q20.0194 2.5 21.5829 3.20208Q23.1463 3.90416 24.2849 5.18509L29.8981 11.5L37 11.5C41.4183 11.5 45 15.0817 45 19.5L45 36.5C45 40.9183 41.4183 44.5 37 44.5L11 44.5C6.58172 44.5 3 40.9183 3 36.5L3 10.5ZM7 11.5L24.5463 11.5L21.2952 7.84254C20.9157 7.41557 20.4653 7.08507 19.9442 6.85104C19.4231 6.61701 18.8769 6.5 18.3056 6.5L11 6.5C8.79086 6.5 7 8.29086 7 10.5L7 11.5ZM7 15.5L7 36.5C7 38.7091 8.79086 40.5 11 40.5L37 40.5C39.2091 40.5 41 38.7091 41 36.5L41 19.5C41 17.2909 39.2091 15.5 37 15.5L7 15.5Z" fill-rule="evenodd"  fill="#787878" >
</path>
<path d="M19.25 36.5934L26 32.6963C30 30.3869 30 24.6133 26 22.3039L19.25 18.4068C15.25 16.0974 10.25 18.9841 10.25 23.603L10.25 31.3972C10.25 36.016 15.25 38.9028 19.25 36.5934ZM24 25.768C25.3333 26.5378 25.3333 28.4624 24 29.2322L17.25 33.1293C15.9167 33.8991 14.25 32.9368 14.25 31.3972L14.25 23.603C14.25 22.0633 15.9167 21.1011 17.25 21.8709L24 25.768Z" fill-rule="evenodd"  fill="#424242" >
</path>
</svg>
