<svg xmlns="http://www.w3.org/2000/svg" xmlns:xlink="http://www.w3.org/1999/xlink" width="48" height="48" viewBox="0 0 48 48" fill="none">
<path d="M40.9696 17C40.8353 15.6773 40.2603 14.4251 39.33 13.46L31.13 4.86C30.1644 3.84308 28.8774 3.20589 27.5 3.04206L27.5 13C27.5 15.21 29.29 17 31.5 17L40.9696 17ZM23.5 3L15 3C10.58 3 7 6.58 7 11L7 37C7 41.42 10.58 45 15 45L33 45C37.42 45 41 41.42 41 37L41 21L31.5 21C27.08 21 23.5 17.42 23.5 13L23.5 3ZM11.2547 35.3972L11.2547 27.5972C11.2547 22.9872 16.2547 20.1072 20.2547 22.4072L27.0047 26.3072C30.9947 28.6172 30.9947 34.3772 27.0047 36.6872L20.2447 40.5972C16.2447 42.8972 11.2547 40.0172 11.2547 35.3972ZM24.9947 33.2272L18.2547 37.1272C16.9147 37.8972 15.2547 36.9472 15.2547 35.3972L15.2547 27.5972C15.2547 26.0672 16.9247 25.1072 18.2447 25.8672L24.9947 29.7672C26.3247 30.5372 26.3247 32.4572 24.9947 33.2272Z" fill-rule="evenodd"  fill="#000000" >
</path>
</svg>
