<svg xmlns="http://www.w3.org/2000/svg" xmlns:xlink="http://www.w3.org/1999/xlink" width="48" height="48" viewBox="0 0 48 48" fill="none">
<path d="M14.46 41.5206C8.82 37.9606 6 32.7806 6 25.9906L6 12.1106C6 9.36061 7.88 6.96061 10.55 6.29061L22.54 3.30061C23.5 3.06061 24.5 3.06061 25.45 3.30061L37.46 6.29061C40.13 6.97061 42 9.36061 42 12.1106L42 25.9906C42 32.7806 39.18 37.9606 33.54 41.5206C30.66 43.3406 27.61 44.4906 24.39 44.9606C24.13 45.0106 23.87 45.0106 23.61 44.9606C20.39 44.4906 17.34 43.3406 14.46 41.5206ZM31.4 38.1406C29.06 39.6206 26.59 40.5706 24 40.9806C21.41 40.5706 18.94 39.6206 16.6 38.1406C12.2 35.3606 10 31.3106 10 25.9906L10 12.1106C10 11.1906 10.63 10.3906 11.51 10.1706L23.52 7.18061C23.83 7.10061 24.17 7.10061 24.49 7.18061L36.48 10.1706C37.37 10.3906 38 11.1906 38 12.1106L38 25.9906C38 31.3106 35.8 35.3606 31.4 38.1406ZM11 24C11 16.82 16.82 11 24 11C31.18 11 37 16.82 37 24C37 31.18 31.18 37 24 37C16.82 37 11 31.18 11 24ZM29.0415 31.4562C30.9005 30.1967 32.2637 28.2601 32.7767 26.0009L29.9432 26.0009C29.8254 28.0119 29.5249 29.8331 29.0415 31.4562ZM32.7768 21.9993C32.2638 19.74 30.9006 17.8034 29.0415 16.5438C29.5249 18.167 29.8254 19.9882 29.9432 21.9993L32.7768 21.9993ZM18.9585 31.4562C18.4751 29.8331 18.1746 28.0119 18.0568 26.0009L15.2233 26.0009C15.7363 28.2601 17.0995 30.1967 18.9585 31.4562ZM15.2232 21.9993L18.0568 21.9993C18.1746 19.9882 18.4751 18.167 18.9585 16.5438C17.0994 17.8034 15.7362 19.74 15.2232 21.9993ZM25.71 20.02C25.8068 20.662 25.8803 21.3222 25.929 21.9993L22.071 21.9993C22.1197 21.3222 22.1932 20.662 22.29 20.02C22.47 18.83 22.73 17.79 23.05 16.9C23.34 16.12 23.64 15.54 23.96 15.17C23.97 15.15 23.99 15.14 24 15.12C24.01 15.14 24.03 15.15 24.04 15.17C24.36 15.54 24.66 16.12 24.95 16.9C25.27 17.79 25.53 18.83 25.71 20.02ZM22.29 27.98C22.1932 27.338 22.1198 26.6779 22.071 26.0009L25.929 26.0009C25.8802 26.6779 25.8068 27.338 25.71 27.98C25.53 29.17 25.27 30.21 24.95 31.1C24.66 31.88 24.36 32.46 24.04 32.83C24.03 32.85 24.01 32.86 24 32.88C23.99 32.86 23.97 32.85 23.96 32.83C23.64 32.46 23.34 31.88 23.05 31.1C22.73 30.21 22.47 29.17 22.29 27.98Z" fill-rule="evenodd"  fill="#000000" >
</path>
</svg>
