<svg xmlns="http://www.w3.org/2000/svg" xmlns:xlink="http://www.w3.org/1999/xlink" width="48" height="48" viewBox="0 0 48 48" fill="none">
<path d="M24 11C16.82 11 11 16.82 11 24C11 31.18 16.82 37 24 37C31.18 37 37 31.18 37 24C37 16.82 31.18 11 24 11Z"   fill="#FEEDBD" >
</path>
<path d="M24 39C32.2843 39 39 32.2843 39 24C39 15.7157 32.2843 9 24 9C15.7157 9 9 15.7157 9 24C9 32.2843 15.7157 39 24 39ZM24 13C30.0751 13 35 17.9249 35 24C35 30.0751 30.0751 35 24 35C17.9249 35 13 30.0751 13 24C13 17.9249 17.9249 13 24 13Z" fill-rule="evenodd"  fill="#FA9E14" >
</path>
<path d="M43 26L45 26C46.1 26 47 25.1 47 24L47 24C47 22.9 46.1 22 45 22L43 22C41.9 22 41 22.9 41 24L41 24C41 25.1 41.9 26 43 26Z"   fill="#FBB63E" >
</path>
<path d="M3 26L5 26C6.1 26 7 25.1 7 24L7 24C7 22.9 6.1 22 5 22L3 22C1.9 22 1 22.9 1 24L1 24C1 25.1 1.9 26 3 26Z"   fill="#FBB63E" >
</path>
<path d="M24 7L24 7C25.1 7 26 6.1 26 5L26 3C26 1.9 25.1 1 24 1L24 1C22.9 1 22 1.9 22 3L22 5C22 6.1 22.9 7 24 7Z"   fill="#FBB63E" >
</path>
<path d="M24 47L24 47C25.1 47 26 46.1 26 45L26 43C26 41.9 25.1 41 24 41L24 41C22.9 41 22 41.9 22 43L22 45C22 46.1 22.9 47 24 47Z"   fill="#FBB63E" >
</path>
<path d="M36.4116 11.6569L36.4116 11.6569C37.1894 12.4347 38.4622 12.4347 39.24 11.6569L40.6542 10.2426C41.432 9.46482 41.432 8.19203 40.6542 7.41421L40.6542 7.41421C39.8764 6.6364 38.6036 6.6364 37.8258 7.41421L36.4116 8.82843C35.6338 9.60625 35.6338 10.879 36.4116 11.6569Z"   fill="#FA9E14" >
</path>
<path d="M7.41158 40.6569L7.41158 40.6569C8.1894 41.4347 9.46219 41.4347 10.24 40.6569L11.6542 39.2426C12.432 38.4648 12.432 37.192 11.6542 36.4142L11.6542 36.4142C10.8764 35.6364 9.60361 35.6364 8.82579 36.4142L7.41158 37.8284C6.63376 38.6062 6.63376 39.879 7.41158 40.6569Z"   fill="#FA9E14" >
</path>
<path d="M7.41158 7.41315L7.41158 7.41315C8.1894 6.63534 9.46219 6.63534 10.24 7.41315L11.6542 8.82737C12.432 9.60518 12.432 10.878 11.6542 11.6558L11.6542 11.6558C10.8764 12.4336 9.60361 12.4336 8.82579 11.6558L7.41158 10.2416C6.63376 9.46376 6.63376 8.19097 7.41158 7.41315Z"   fill="#FA9E14" >
</path>
<path d="M36.4116 36.4132L36.4116 36.4132C37.1894 35.6353 38.4622 35.6353 39.24 36.4132L40.6542 37.8274C41.432 38.6052 41.432 39.878 40.6542 40.6558L40.6542 40.6558C39.8764 41.4336 38.6036 41.4336 37.8258 40.6558L36.4116 39.2416C35.6338 38.4638 35.6338 37.191 36.4116 36.4132Z"   fill="#FA9E14" >
</path>
</svg>
