<svg xmlns="http://www.w3.org/2000/svg" xmlns:xlink="http://www.w3.org/1999/xlink" width="48" height="48" viewBox="0 0 48 48" fill="none">
<path d="M37.0932 11.4138C37.0898 6.21413 32.7937 2 27.5932 2C23.9927 2 21.3323 3.40927 19.6118 6.2278C19.0257 6.14 18.4317 6.0961 17.83 6.0961C11.2965 6.0961 6 11.2726 6 17.8061C6 24.2734 11.3628 29.5161 17.83 29.5161C17.9273 29.5161 18.0245 29.5149 18.1216 29.5126L33.3029 29.5126C33.4018 29.5157 33.5008 29.5172 33.5999 29.5172C38.7914 29.5172 42.9999 25.3287 42.9999 20.1372C42.9999 17.8535 42.2648 15.8402 40.7945 14.0973C39.755 12.865 38.5212 11.9705 37.0932 11.4138ZM32.5832 14.4793L34.5874 14.8463C37.5291 15.385 38.9999 17.1486 38.9999 20.1372C38.9999 23.1195 36.5822 25.5172 33.5999 25.5172C33.535 25.5172 33.4702 25.5161 33.4055 25.5138L33.3707 25.5126L18.0702 25.5126L18.0439 25.5133C17.9727 25.5152 17.9014 25.5161 17.83 25.5161C13.5719 25.5161 10 22.0642 10 17.8061C10 13.4817 13.5056 10.0961 17.83 10.0961C18.6108 10.0961 19.3703 10.2065 20.1086 10.4272L21.8133 10.937L22.518 9.30319C23.4679 7.10106 25.1596 6 27.5932 6C30.5866 6 33.0932 8.42662 33.0932 11.42C33.0932 11.7796 33.0579 12.1337 32.9874 12.4823L32.5832 14.4793ZM27.8078 36.0838L28.6355 33.8068C29.228 32.1765 28.0207 30.4529 26.286 30.4529L22.3558 30.4528C21.1761 30.4528 20.3902 31.0091 19.9981 32.1217L18.1919 37.2458C17.6465 38.7931 18.143 39.8515 19.6815 40.4212L21.2866 41.0156L20.7421 42.5137C19.8747 44.9001 22.7052 46.9101 24.6724 45.3044L30.36 40.6621C32.063 39.2721 31.2722 36.5192 29.0911 36.245L27.8078 36.0838ZM16 35.5C16 35.7068 15.9686 35.9062 15.9104 36.0939L14.9352 39.5069C14.7108 40.366 13.9294 41 13 41C11.8954 41 11 40.1046 11 39C11 38.7932 11.0314 38.5938 11.0896 38.4061L12.0648 34.9931C12.2892 34.134 13.0706 33.5 14 33.5C15.1046 33.5 16 34.3954 16 35.5ZM39 35.5C39 35.7068 38.9686 35.9062 38.9104 36.0939L37.9352 39.5069C37.7108 40.366 36.9294 41 36 41C34.8954 41 34 40.1046 34 39C34 38.7932 34.0314 38.5938 34.0896 38.4061L35.0648 34.9931C35.2892 34.134 36.0706 33.5 37 33.5C38.1046 33.5 39 34.3954 39 35.5Z" fill-rule="evenodd"  fill="#000000" >
</path>
</svg>
