<svg xmlns="http://www.w3.org/2000/svg" xmlns:xlink="http://www.w3.org/1999/xlink" width="48" height="48" viewBox="0 0 48 48" fill="none">
<path d="M34.9476 12.879C38.393 13.5099 40.9999 16.5164 40.9999 20.1372C40.9999 24.2172 37.6899 27.5172 33.5999 27.5172C33.5115 27.5172 33.4234 27.5157 33.3358 27.5126L18.0965 27.5126C18.0079 27.5149 17.9191 27.5161 17.83 27.5161C12.4 27.5161 8 23.1661 8 17.8061C8 12.4461 12.4 8.0961 17.83 8.0961C18.8217 8.0961 19.7791 8.2412 20.6816 8.51106C21.8259 5.85821 24.4884 4 27.5932 4C31.7332 4 35.0932 7.32 35.0932 11.42C35.0932 11.9194 35.0431 12.4073 34.9476 12.879Z" fill-rule="evenodd"  fill="#BEDCFF" >
</path>
<path d="M37.0932 11.4138C37.0898 6.21413 32.7937 2 27.5932 2C23.9928 2 21.3323 3.40927 19.6118 6.22781C19.0257 6.14 18.4317 6.0961 17.83 6.0961C11.2965 6.0961 6 11.2726 6 17.8061C6 24.2734 11.3628 29.5161 17.83 29.5161C17.9263 29.5161 18.0234 29.5149 18.1214 29.5126L33.3026 29.5126C33.4007 29.5157 33.4998 29.5172 33.5999 29.5172C38.7914 29.5172 42.9999 25.3287 42.9999 20.1372C42.9999 17.8535 42.2648 15.8402 40.7945 14.0973C39.755 12.8651 38.5212 11.9706 37.0932 11.4138ZM32.5831 14.4793L34.5874 14.8463C37.5291 15.385 38.9999 17.1486 38.9999 20.1372C38.9999 23.1195 36.5822 25.5172 33.5999 25.5172C33.5341 25.5172 33.4696 25.5161 33.4065 25.5139L33.3712 25.5126L18.0705 25.5126L18.0446 25.5133C17.972 25.5152 17.9005 25.5161 17.83 25.5161C13.5719 25.5161 10 22.0642 10 17.8061C10 13.4817 13.5056 10.0961 17.83 10.0961C18.6108 10.0961 19.3703 10.2065 20.1086 10.4272L21.8133 10.937L22.518 9.3032C23.4679 7.10107 25.1597 6 27.5932 6C30.5866 6 33.0932 8.42662 33.0932 11.42C33.0932 11.7796 33.0579 12.1336 32.9874 12.4822L32.5831 14.4793Z" fill-rule="evenodd"  fill="#1764FF" >
</path>
<path d="M16 35.5C16 35.7068 15.9686 35.9062 15.9104 36.0939L14.9352 39.5069C14.7108 40.366 13.9294 41 13 41C11.8954 41 11 40.1046 11 39C11 38.7932 11.0314 38.5938 11.0896 38.4061L12.0648 34.9931C12.2892 34.134 13.0706 33.5 14 33.5C15.1046 33.5 16 34.3954 16 35.5Z" fill-rule="evenodd"  fill="#1764FF" >
</path>
<path d="M39 35.5C39 35.7068 38.9686 35.9062 38.9104 36.0939L37.9352 39.5069C37.7108 40.366 36.9294 41 36 41C34.8954 41 34 40.1046 34 39C34 38.7932 34.0314 38.5938 34.0896 38.4061L35.0648 34.9931C35.2892 34.134 36.0706 33.5 37 33.5C38.1046 33.5 39 34.3954 39 35.5Z" fill-rule="evenodd"  fill="#1764FF" >
</path>
<path d="M23.5017 40.768L22.6204 43.1928C22.4367 43.6687 23.0109 44.0796 23.4056 43.7549L29.0949 39.1089C29.4315 38.8269 29.2751 38.2912 28.8402 38.2289L26.3181 37.9081C25.6875 37.8279 25.2842 37.1812 25.5028 36.5797L26.7599 33.121C26.8795 32.7921 26.6419 32.4504 26.2908 32.4504L22.3522 32.4553C22.1403 32.4528 21.9532 32.5869 21.8815 32.7843L20.083 37.9082C19.9907 38.1619 20.1223 38.4438 20.3727 38.5455L22.9128 39.49C23.4263 39.6873 23.6896 40.2511 23.5017 40.768Z"   fill="#FA9E14" >
</path>
<path d="M27.8082 36.0839L28.6358 33.8068C29.2284 32.1765 28.021 30.4529 26.2863 30.4529L22.3559 30.4528C21.1762 30.4528 20.3902 31.0091 19.9981 32.1218L18.1919 37.2461C17.6465 38.7935 18.1431 39.852 19.6816 40.4217L21.2868 41.016L20.7423 42.5143C19.8748 44.9008 22.7055 46.9108 24.6728 45.305L30.3606 40.6624C32.0636 39.2724 31.2727 36.5193 29.0915 36.2452L27.8082 36.0839ZM24.145 34.4528L23.4176 34.4528L22.4552 37.1833L23.5113 37.5743C23.3906 37.0382 23.4156 36.4597 23.6208 35.895L24.145 34.4528Z" fill-rule="evenodd"  fill="#FA9E14" >
</path>
</svg>
