<svg xmlns="http://www.w3.org/2000/svg" xmlns:xlink="http://www.w3.org/1999/xlink" width="48" height="48" viewBox="0 0 48 48" fill="none">
<path d="M8.30981 24.3261C9.797 26.283 11.7212 27.6441 14.0824 28.4094C14.2883 28.481 14.5096 28.52 14.74 28.52C15.8446 28.52 16.74 27.6246 16.74 26.52C16.74 25.6131 16.1364 24.8472 15.3089 24.6021C11.7696 23.4563 10 21.0889 10 17.5C10 15.444 10.756 13.6864 12.2679 12.2271C13.7993 10.749 15.6533 10.01 17.83 10.01C18.6265 10.01 19.3895 10.1166 20.1191 10.3298L21.8021 10.8214L22.5098 9.21728C23.4561 7.07243 25.1495 6 27.59 6C29.1249 6 30.4319 6.5207 31.5109 7.56209C32.5703 8.58454 33.1 9.81384 33.1 11.25C33.1 11.5842 33.0639 11.9256 32.9916 12.274L32.5748 14.2846L34.5957 14.6484C37.5319 15.1769 39 16.8874 39 19.78C39 22.3203 37.6203 24.0951 34.8608 25.1043C34.0697 25.371 33.5 26.119 33.5 27C33.5 28.1046 34.3954 29 35.5 29C35.7569 29 36.0025 28.9516 36.2282 28.8633C38.0267 28.2032 39.5756 27.0537 40.8749 25.415C42.2916 23.6282 43 21.7499 43 19.78C43 17.5302 42.2602 15.547 40.7805 13.8305C39.7445 12.6286 38.5176 11.7549 37.0999 11.2093C37.0901 8.65835 36.153 6.48322 34.2887 4.68393C32.4348 2.89464 30.2019 2 27.59 2C23.9989 2 21.3423 3.37927 19.6204 6.13781C19.0345 6.0526 18.4377 6.01 17.83 6.01C14.5763 6.01 11.7963 7.12302 9.49 9.34906C7.16333 11.5947 6 14.3117 6 17.5C6 20.0245 6.76994 22.2999 8.30981 24.3261ZM20.4029 24.5954C18.801 25.8836 18 27.5958 18 29.7321C18 30.8367 18.8954 31.7321 20 31.7321C21.1046 31.7321 22 30.8367 22 29.7321C22 28.9064 22.2055 28.2678 22.6166 27.8164C23.1123 27.2721 23.9067 27 25 27C27 27 28 27.9107 28 29.7321C28 30.98 27.3126 31.7127 25.9378 31.9302C23.9793 32.24 23 33.3466 23 35.25L23 36.5625C23 37.6671 23.8954 38.5625 25 38.5625C26.1046 38.5625 27 37.6671 27 36.5625L27 35.803C30.3333 35.1369 32 33.1132 32 29.7321C32 27.5958 31.199 25.8836 29.5971 24.5954C28.2744 23.5318 26.7421 23 25 23C23.2579 23 21.7256 23.5318 20.4029 24.5954ZM27.5 42.5C27.5 43.8807 26.3807 45 25 45C23.6193 45 22.5 43.8807 22.5 42.5C22.5 41.1193 23.6193 40 25 40C26.3807 40 27.5 41.1193 27.5 42.5Z" fill-rule="evenodd"  fill="#000000" >
</path>
</svg>
