<svg xmlns="http://www.w3.org/2000/svg" xmlns:xlink="http://www.w3.org/1999/xlink" width="48" height="48" viewBox="0 0 48 48" fill="none">
<path d="M29.0043 20.4257L33.5188 8.00549C34.4669 5.39697 32.5351 2.63927 29.7597 2.63925L16.4659 2.63907C14.5784 2.63904 13.321 3.52908 12.6935 5.30919L6.4825 22.9298C5.60991 25.4054 6.40434 27.0989 8.86581 28.0103L18.038 31.4071C18.6594 31.6372 18.8569 32.0637 18.6306 32.6864L15.65 40.8865C14.2621 44.7047 18.791 47.9206 21.9383 45.3516L40.8055 29.9526C43.5301 27.7287 42.2648 23.3239 38.7752 22.8853L29.8193 21.7595C29.1826 21.6794 28.7851 21.0288 29.0043 20.4257Z" fill-rule="evenodd"  fill="#000000" >
</path>
</svg>
