<svg xmlns="http://www.w3.org/2000/svg" xmlns:xlink="http://www.w3.org/1999/xlink" width="48" height="48" viewBox="0 0 48 48" fill="none">
<path d="M24 2C28.4183 2 32 5.58172 32 10L32 22.7405C35.3333 25.2596 37 28.6795 37 33C37 40.1797 31.1797 46 24 46C16.8203 46 11 40.1797 11 33C11 28.6794 12.6667 25.2596 16 22.7405L16 10C16 5.58172 19.5817 2 24 2ZM24 6C21.7909 6 20 7.79086 20 10L20 24.8624L19.0924 25.4542C16.3641 27.2331 15 29.7483 15 33C15 37.9706 19.0294 42 24 42C28.9706 42 33 37.9706 33 33C33 29.7483 31.6359 27.2331 28.9076 25.4542L28 24.8624L28 10C28 7.79086 26.2091 6 24 6ZM26 28.416C27.7659 29.1876 29 30.9497 29 33C29 35.7614 26.7614 38 24 38C21.2386 38 19 35.7614 19 33C19 30.9497 20.2341 29.1876 22 28.416L22 19C22 17.8954 22.8954 17 24 17C25.1046 17 26 17.8954 26 19L26 28.416Z" fill-rule="evenodd"  fill="#000000" >
</path>
</svg>
