<svg xmlns="http://www.w3.org/2000/svg" xmlns:xlink="http://www.w3.org/1999/xlink" width="48" height="48" viewBox="0 0 48 48" fill="none">
<path d="M22 7.01792L22 4C22 2.89543 22.8954 2 24 2C25.1046 2 26 2.89543 26 4L26 7.01791L28.9627 5.28967C29.2652 5.10585 29.6202 4.99999 30 4.99999C31.1046 4.99999 32 5.89542 32 6.99999C32 7.75056 31.5865 8.40456 30.975 8.74667L26 11.6487L26 13.8303L31.5846 16.9716L34.5887 15.4696L35.1058 9.84981C35.1574 9.15103 35.5754 8.4999 36.2556 8.18271C37.2567 7.71592 38.4466 8.14901 38.9134 9.15011C39.0739 9.49432 39.128 9.86079 39.0892 10.2126L38.7992 13.3643L41.0696 12.2291C41.3475 12.0828 41.6641 12 42 12C43.1046 12 44 12.8954 44 13.9999C44 14.7983 43.5322 15.4875 42.8557 15.8082L40.256 17.1081L43.2837 19.208C43.5781 19.4045 43.8241 19.6815 43.9846 20.0257C44.4514 21.0268 44.0183 22.2167 43.0172 22.6835C42.337 23.0007 41.5695 22.9024 41.001 22.4927L36.1776 19.1472L34 20.236L34 27.264L36.0519 28.2899L41.001 24.8573C41.5695 24.4476 42.337 24.3493 43.0172 24.6665C44.0183 25.1333 44.4514 26.3232 43.9846 27.3243C43.8241 27.6685 43.5781 27.9455 43.2837 28.142L40.1303 30.3291L42.8557 31.6918C43.5322 32.0125 44 32.7017 44 33.5C44 34.6046 43.1046 35.5 42 35.5C41.6641 35.5 41.3475 35.4172 41.0696 35.2709L38.8137 34.143L39.0892 37.1374C39.128 37.4892 39.0739 37.8557 38.9134 38.1999C38.4466 39.201 37.2567 39.6341 36.2556 39.1673C35.5754 38.8501 35.1574 38.199 35.1058 37.5002L34.6031 32.0377L32.0551 30.7637L26 34.1697L26 36.3513L30.975 39.2533C31.5865 39.5954 32 40.2494 32 41C32 42.1046 31.1046 43 30 43C29.6202 43 29.2652 42.8941 28.9627 42.7103L26 40.9821L26 44C26 45.1046 25.1046 46 24 46C22.8954 46 22 45.1046 22 44L22 40.9821L19.0373 42.7103C18.7348 42.8941 18.3798 43 18 43C16.8954 43 16 42.1046 16 41C16 40.2494 16.4134 39.5954 17.025 39.2533L22 36.3513L22 34.1697L15.9449 30.7637L13.3969 32.0377L12.8943 37.5002C12.8426 38.199 12.4247 38.8501 11.7444 39.1673C10.7433 39.6341 9.55342 39.201 9.08661 38.1999C8.9261 37.8557 8.87202 37.4892 8.91078 37.1374L9.18631 34.143L6.93038 35.2709C6.65248 35.4172 6.33588 35.5 5.99998 35.5C4.89538 35.5 3.99999 34.6046 3.99999 33.5C3.99999 32.7017 4.46779 32.0125 5.14428 31.6918L7.86971 30.3291L4.7163 28.142C4.4219 27.9455 4.17591 27.6685 4.01541 27.3243C3.54862 26.3232 3.98174 25.1333 4.9828 24.6665C5.66305 24.3493 6.43049 24.4476 6.999 24.8573L11.9481 28.2899L14 27.264L14 20.236L11.8224 19.1472L6.999 22.4927C6.43049 22.9024 5.66305 23.0007 4.9828 22.6835C3.98174 22.2167 3.54862 21.0268 4.01541 20.0257C4.17591 19.6815 4.4219 19.4045 4.7163 19.208L7.74404 17.1081L5.14428 15.8082C4.46779 15.4875 3.99999 14.7983 3.99999 13.9999C3.99999 12.8954 4.89538 12 5.99998 12C6.33588 12 6.65248 12.0828 6.93038 12.2291L9.20078 13.3643L8.91078 10.2126C8.87202 9.86079 8.9261 9.49432 9.08661 9.15011C9.55342 8.14901 10.7433 7.71592 11.7444 8.18271C12.4247 8.4999 12.8426 9.15103 12.8943 9.84981L13.4113 15.4696L16.4154 16.9716L22 13.8303L22 11.6487L17.025 8.74667C16.4134 8.40456 16 7.75056 16 6.99999C16 5.89542 16.8954 4.99999 18 4.99999C18.3798 4.99999 18.7348 5.10585 19.0373 5.28967L22 7.01792ZM24 17.2947L30 20.6697L30 27.3303L24 30.7053L18 27.3303L18 20.6697L24 17.2947Z" fill-rule="evenodd"  fill="#000000" >
</path>
</svg>
