<svg xmlns="http://www.w3.org/2000/svg" xmlns:xlink="http://www.w3.org/1999/xlink" width="48" height="48" viewBox="0 0 48 48" fill="none">
<path d="M25 10C25 5.58172 21.4183 2 17 2C12.5817 2 9 5.58172 9 10L9 22.7405C5.66667 25.2596 4 28.6794 4 33C4 40.1797 9.8203 46 17 46C24.1797 46 30 40.1797 30 33C30 28.6795 28.3333 25.2596 25 22.7405L25 10ZM13 10C13 7.79086 14.7909 6 17 6C19.2091 6 21 7.79086 21 10L21 24.8624L21.9076 25.4542C24.6359 27.2331 26 29.7483 26 33C26 37.9706 21.9706 42 17 42C12.0294 42 8 37.9706 8 33C8 29.7483 9.36412 27.2331 12.0924 25.4542L13 24.8624L13 10ZM38 8C38 6.89543 37.1046 6 36 6C34.8954 6 34 6.89543 34 8L34 12L30 12C28.8954 12 28 12.8954 28 14C28 15.1046 28.8954 16 30 16L34 16L34 20C34 21.1046 34.8954 22 36 22C37.1046 22 38 21.1046 38 20L38 16L42 16C43.1046 16 44 15.1046 44 14C44 12.8954 43.1046 12 42 12L38 12L38 8ZM15 12L15 28.416C13.2341 29.1876 12 30.9497 12 33C12 35.7614 14.2386 38 17 38C19.7614 38 22 35.7614 22 33C22 30.9497 20.7659 29.1876 19 28.416L19 12C19 10.8954 18.1046 10 17 10C15.8954 10 15 10.8954 15 12Z" fill-rule="evenodd"  fill="#000000" >
</path>
</svg>
