<svg xmlns="http://www.w3.org/2000/svg" xmlns:xlink="http://www.w3.org/1999/xlink" width="48" height="48" viewBox="0 0 48 48" fill="none">
<path d="M37.1776 21.1576C41.5564 21.9717 44.87 25.8423 44.87 30.5C44.87 35.75 40.66 40 35.46 40L35.454 40L15.4091 40C8.50909 40 2.90909 34.4 2.90909 27.5C2.90909 20.6 8.50909 15 15.4091 15C16.6689 15 17.8855 15.1867 19.0324 15.5339C20.4865 12.1181 23.8718 9.72729 27.8227 9.72729C33.0927 9.72729 37.3627 13.9973 37.3627 19.2773C37.3627 19.921 37.299 20.5497 37.1776 21.1576Z" fill-rule="evenodd"  fill="#BEDCFF" >
</path>
<path d="M39.356 19.6762C39.3605 19.5435 39.3627 19.4106 39.3627 19.2773C39.3627 12.8984 34.2016 7.72729 27.8227 7.72729C23.3176 7.72729 20.0251 9.55854 17.9453 13.221C17.1128 13.0737 16.2674 13 15.4091 13C7.40096 13 0.909088 19.4919 0.909088 27.5C0.909088 35.5081 7.40096 42 15.4091 42L35.46 42C41.7616 42 46.87 36.8016 46.87 30.5C46.87 27.7065 45.9809 25.2423 44.2026 23.1074C42.8564 21.4913 41.2409 20.3475 39.356 19.6762ZM34.8194 22.7534L36.812 23.1239C38.5462 23.4463 39.9852 24.2942 41.1291 25.6675C42.2897 27.0608 42.87 28.6716 42.87 30.5C42.87 34.5924 39.5524 38 35.46 38L15.4091 38C9.6101 38 4.90909 33.299 4.90909 27.5C4.90909 21.701 9.6101 17 15.4091 17C16.4515 17 17.4661 17.1494 18.4529 17.4481L20.1699 17.9679L20.8726 16.3173C22.1752 13.2573 24.4919 11.7273 27.8227 11.7273C31.9925 11.7273 35.3627 15.1075 35.3627 19.2773C35.3627 19.7811 35.3139 20.2773 35.2163 20.7659L34.8194 22.7534Z" fill-rule="evenodd"  fill="#1764FF" >
</path>
</svg>
