<svg xmlns="http://www.w3.org/2000/svg" xmlns:xlink="http://www.w3.org/1999/xlink" width="48" height="48" viewBox="0 0 48 48" fill="none">
<path d="M45.2919 26.9842C43.1281 24.0885 36.009 16 23.9999 16C11.9762 16 4.85444 24.1082 2.70006 26.9947C2.24922 27.5988 2.25677 28.412 2.70794 29.0158C4.87178 31.9115 11.9908 40 23.9999 40C36.0237 40 43.1454 31.8918 45.2998 29.0053C45.7506 28.4012 45.7431 27.588 45.2919 26.9842Z"   fill="#E2C2FB" >
</path>
<path d="M24 42C33.3978 42 41.0321 38.0672 46.9026 30.2015C47.9987 28.733 47.9958 27.2615 46.8941 25.787C41.022 17.929 33.3907 14 24 14C14.6021 14 6.96786 17.9328 1.09727 25.7985C0.00118482 27.267 0.00404081 28.7385 1.10584 30.213C6.97782 38.071 14.6092 42 24 42ZM43.5533 28C38.5002 21.3333 31.9824 18 24 18C16.0152 18 9.4974 21.3333 4.44651 28C9.49967 34.6667 16.0175 38 24 38C31.9847 38 38.5025 34.6667 43.5533 28Z" fill-rule="evenodd"  fill="#8134ED" >
</path>
<path d="M29 28C29 30.7614 26.7614 33 24 33C21.2386 33 19 30.7614 19 28C19 25.2386 21.2386 23 24 23C26.7614 23 29 25.2386 29 28Z"   fill="#8134ED" >
</path>
<path d="M24 3L24 3C25.1046 3 26 3.89543 26 5L26 9C26 10.1046 25.1046 11 24 11L24 11C22.8954 11 22 10.1046 22 9L22 5C22 3.89543 22.8954 3 24 3Z"   fill="#8134ED" >
</path>
<path d="M41.4142 8.41421L41.4142 8.41421C42.1953 9.19526 42.1953 10.4616 41.4142 11.2426L38.5858 14.0711C37.8047 14.8521 36.5384 14.8521 35.7574 14.0711L35.7574 14.0711C34.9763 13.29 34.9763 12.0237 35.7574 11.2426L38.5858 8.41421C39.3668 7.63317 40.6332 7.63317 41.4142 8.41421Z"   fill="#9C56F1" >
</path>
<path d="M12.4142 14.0758L12.4142 14.0758C13.1953 13.2947 13.1953 12.0284 12.4142 11.2473L9.58579 8.41892C8.80474 7.63787 7.53841 7.63787 6.75736 8.41892L6.75736 8.41892C5.97631 9.19997 5.97631 10.4663 6.75736 11.2473L9.58579 14.0758C10.3668 14.8568 11.6332 14.8568 12.4142 14.0758Z"   fill="#9C56F1" >
</path>
</svg>
