<svg xmlns="http://www.w3.org/2000/svg" xmlns:xlink="http://www.w3.org/1999/xlink" width="48" height="48" viewBox="0 0 48 48" fill="none">
<path d="M21.2778 7.20522C19.623 5.11288 16.3637 5.12962 14.7089 7.22199C11.4395 11.3559 7.8379 15.9813 5.71 20.75C4.56983 23.3051 4 25.6668 4 27.84C4 29.8702 4.36494 31.7737 5.1 33.55C5.8007 35.2432 6.80251 36.733 8.09 38.01C9.36597 39.2756 10.8401 40.2521 12.52 40.94C14.2478 41.6475 16.0738 42 18 42C19.9312 42 21.7632 41.6514 23.49 40.95C25.1708 40.2673 26.647 39.2981 27.92 38.04C29.2064 36.7685 30.2006 35.2832 30.9 33.59C31.6357 31.8087 32 29.8908 32 27.84C32 25.6662 31.4305 23.3058 30.29 20.75C28.1591 15.9748 24.5507 11.3434 21.2778 7.20522Z"   fill="#BEDCFF" >
</path>
<path d="M34 27.84C34 25.384 33.3721 22.749 32.1164 19.935C30.5805 16.4932 27.4906 11.8364 22.8465 5.96456C20.3746 2.83908 15.6121 2.85584 13.1402 5.98136C8.50464 11.8426 5.41911 16.4939 3.8836 19.935C2.62787 22.749 2 25.384 2 27.84C2 30.1396 2.41733 32.2979 3.25199 34.3148C4.05389 36.2525 5.19708 37.9576 6.68156 39.43C8.14732 40.8839 9.84085 42.0042 11.7621 42.7909C13.7308 43.597 15.8101 44 18 44C20.1971 44 22.2779 43.601 24.2426 42.803C26.1704 42.02 27.8648 40.9065 29.3259 39.4624C30.8044 38.0011 31.9453 36.2981 32.7485 34.3535C33.5828 32.3334 34 30.1623 34 27.84ZM19.7092 8.44589C24.1459 14.0555 27.064 18.4285 28.4636 21.565C29.4879 23.8603 30 25.952 30 27.84C30 29.6333 29.6838 31.2954 29.0515 32.8265C28.4544 34.2721 27.6086 35.5358 26.5141 36.6176C25.4314 37.6877 24.1725 38.5141 22.7374 39.097C21.2553 39.699 19.6761 40 18 40C16.3349 40 14.7609 39.6964 13.2779 39.0891C11.8474 38.5034 10.5876 37.6704 9.49844 36.59C8.39489 35.4955 7.54474 34.2272 6.94801 32.7852C6.316 31.258 6 29.6096 6 27.84C6 25.952 6.51213 23.8603 7.5364 21.565C8.93569 18.4292 11.8494 14.0617 16.2776 8.46264C17.148 7.36206 18.8387 7.34532 19.7092 8.44589Z" fill-rule="evenodd"  fill="#1764FF" >
</path>
<path d="M31.7058 30.9195C31.8451 30.2176 31.1539 29.6366 30.4492 29.7606C28.9461 30.025 26.3605 30.3055 23 30C17.4999 29.5 17.5 27 13 26.5C8.90498 26.045 6.42477 26.698 4.54204 27.5743C4.20224 27.7325 3.99737 28.0767 4.01115 28.4513C4.07747 30.2534 4.43916 31.9531 5.09998 33.55C5.80068 35.2432 6.80249 36.733 8.08998 38.01C9.36595 39.2756 10.8401 40.2522 12.52 40.94C14.2478 41.6475 16.0738 42 18 42C19.9312 42 21.7632 41.6514 23.49 40.95C25.1708 40.2673 26.647 39.2982 27.92 38.04C29.2064 36.7685 30.2006 35.2832 30.9 33.59C31.2546 32.7314 31.5229 31.8411 31.7058 30.9195Z"   fill="#4187FF" >
</path>
<path d="M29.3259 39.4625C30.8045 38.0011 31.9453 36.2981 32.7485 34.3535L32.7485 34.3535C33.1526 33.3752 33.4589 32.3603 33.6675 31.3088C33.8843 30.2162 33.5706 29.2929 32.7263 28.5387C31.9722 27.8651 31.0977 27.6158 30.1027 27.7909C27.9876 28.163 25.6804 28.2354 23.1811 28.0082C21.5431 27.8593 19.9607 27.3241 18.4341 26.4025C16.6595 25.3313 14.9217 24.7012 13.2209 24.5122C9.5399 24.1032 6.36565 24.5195 3.69815 25.7611C2.5267 26.3063 1.96484 27.2276 2.01257 28.5248C2.08783 30.5699 2.50098 32.4999 3.25203 34.3148C4.05393 36.2525 5.19712 37.9576 6.6816 39.43C8.14736 40.8838 9.84089 42.0041 11.7622 42.7909C13.7309 43.5969 15.8102 44 18 44C20.1971 44 22.278 43.601 24.2426 42.803C26.1704 42.02 27.8649 40.9065 29.3259 39.4625ZM29.0515 32.8265C29.1718 32.5352 29.2806 32.2394 29.378 31.939C27.3193 32.1845 25.1329 32.2021 22.8189 31.9918C20.5697 31.7873 18.4191 31.0657 16.3669 29.827C15.0938 29.0585 13.8979 28.612 12.7792 28.4878C10.1619 28.1969 7.92069 28.4031 6.05569 29.1062C6.17167 30.4016 6.46912 31.6279 6.94805 32.7852C7.54478 34.2272 8.39492 35.4955 9.49848 36.5901C10.5877 37.6704 11.8475 38.5034 13.2779 39.0892C14.7609 39.6964 16.335 40 18 40C19.6762 40 21.2553 39.699 22.7374 39.097C24.1725 38.5141 25.4314 37.6876 26.5141 36.6176C27.6086 35.5358 28.4544 34.2721 29.0515 32.8265L29.0515 32.8265Z" fill-rule="evenodd"  fill="#1764FF" >
</path>
<path d="M41 5L36 5L36 9L41 9L41 13L38 13L38 17L41 17L41 22L38 22L38 26L41 26L41 31L38 31L38 35L41 35L41 39L36 39L36 43L41 43C43.2091 43 45 41.2091 45 39L45 9C45 6.79086 43.2091 5 41 5Z" fill-rule="evenodd"  fill="#4187FF" >
</path>
<path d="M38 7C38 8.10457 37.1046 9 36 9C34.8954 9 34 8.10457 34 7C34 5.89543 34.8954 5 36 5C37.1046 5 38 5.89543 38 7Z"   fill="#4187FF" >
</path>
<path d="M38 41C38 42.1046 37.1046 43 36 43C34.8954 43 34 42.1046 34 41C34 39.8954 34.8954 39 36 39C37.1046 39 38 39.8954 38 41Z"   fill="#4187FF" >
</path>
<path d="M40 33C40 34.1046 39.1046 35 38 35C36.8954 35 36 34.1046 36 33C36 31.8954 36.8954 31 38 31C39.1046 31 40 31.8954 40 33Z"   fill="#4187FF" >
</path>
<path d="M40 24C40 25.1046 39.1046 26 38 26C36.8954 26 36 25.1046 36 24C36 22.8954 36.8954 22 38 22C39.1046 22 40 22.8954 40 24Z"   fill="#4187FF" >
</path>
<path d="M40 15C40 16.1046 39.1046 17 38 17C36.8954 17 36 16.1046 36 15C36 13.8954 36.8954 13 38 13C39.1046 13 40 13.8954 40 15Z"   fill="#4187FF" >
</path>
</svg>
