<svg xmlns="http://www.w3.org/2000/svg" xmlns:xlink="http://www.w3.org/1999/xlink" width="48" height="48" viewBox="0 0 48 48" fill="none">
<path d="M24 4C27.3137 4 30 6.68629 30 10L30 23.7789C33.0102 25.7416 35 29.1384 35 33C35 39.0751 30.0751 44 24 44C17.9249 44 13 39.0751 13 33C13 29.1384 14.9898 25.7416 18 23.7789L18 10C18 6.68629 20.6863 4 24 4Z" fill-rule="evenodd"  fill="#BEDCFF" >
</path>
<path d="M32 10C32 5.58172 28.4183 2 24 2C19.5817 2 16 5.58172 16 10L16 22.7405C12.6667 25.2596 11 28.6794 11 33C11 40.1797 16.8203 46 24 46C31.1797 46 37 40.1797 37 33C37 28.6795 35.3333 25.2596 32 22.7405L32 10ZM20 10C20 7.79086 21.7909 6 24 6C26.2091 6 28 7.79086 28 10L28 24.8624L28.9076 25.4542C31.6359 27.2331 33 29.7483 33 33C33 37.9706 28.9706 42 24 42C19.0294 42 15 37.9706 15 33C15 29.7483 16.3641 27.2331 19.0924 25.4542L20 24.8624L20 10Z" fill-rule="evenodd"  fill="#4187FF" >
</path>
<path d="M29 33C29 35.7614 26.7614 38 24 38C21.2386 38 19 35.7614 19 33C19 30.2386 21.2386 28 24 28C26.7614 28 29 30.2386 29 33Z"   fill="#1764FF" >
</path>
<path d="M22 33L22 19C22 17.8954 22.8954 17 24 17C25.1046 17 26 17.8954 26 19L26 33C26 34.1046 25.1046 35 24 35C22.8954 35 22 34.1046 22 33Z" fill-rule="evenodd"  fill="#1764FF" >
</path>
</svg>
