<svg xmlns="http://www.w3.org/2000/svg" xmlns:xlink="http://www.w3.org/1999/xlink" width="48" height="48" viewBox="0 0 48 48" fill="none">
<path d="M12.0794 4.3853C5.51602 6.49209 3.79018 13.2592 6.18186 19.9974C6.97839 22.2415 8.32919 24.1292 10.0257 25.5614C12.0585 22.6272 15.4748 20.7027 19.35 20.7027C20.4866 20.7027 21.584 20.8688 22.6186 21.1778C23.932 18.1339 26.9903 16 30.5526 16C30.7497 16 30.9453 16.0065 31.1391 16.0194C31.1777 15.2932 31.1603 14.5616 31.0843 13.8324C31.0857 13.8213 31.0838 13.8087 31.082 13.7961C31.0802 13.7835 31.0784 13.7709 31.0797 13.7598C31.0331 12.8213 29.8088 12.4812 29.2894 13.2599C29.2556 13.3143 29.2219 13.3687 29.1942 13.4104C27.8941 15.368 25.9219 16.7472 24.0182 17.4229C19.7209 18.9482 15.0091 16.705 13.4838 12.4077C12.7077 10.2213 13.114 7.83814 13.6993 6.04929C14.1413 5.02231 13.1121 3.97631 12.0794 4.3853Z" fill-rule="evenodd"  fill="#E2C2FB" >
</path>
<path d="M15.3717 11.7413C16.5252 14.9912 20.0949 16.6907 23.3449 15.5372C25.126 14.905 26.5184 13.8295 27.5221 12.3107C28.2084 11.2724 29.1673 10.7955 30.399 10.88C31.933 10.9853 32.8111 11.7915 33.0334 13.2987C33.0504 13.4139 33.0641 13.5223 33.0747 13.6238C33.1728 14.5623 33.1936 15.4841 33.1372 16.3892C32.3212 16.1363 31.453 16 30.5526 16C27.6201 16 25.0292 17.4461 23.472 19.6554C18.4919 20.7652 13.3521 18.0098 11.6021 13.0793C10.9603 11.2713 10.8623 9.30309 11.308 7.17465C7.2685 9.98437 6.18858 14.037 8.06823 19.3326C8.73962 21.2241 9.87754 22.8163 11.3067 24.0257C10.3586 24.976 9.582 26.0937 9.02635 27.3299C6.93142 25.6507 5.2627 23.3867 4.29863 20.6706C2.90804 16.7529 2.83921 13.1952 4.09214 9.99763C5.49775 6.4104 8.42993 3.67734 12.8887 1.79845C13.9761 1.34021 14.9204 1.55415 15.7217 2.44027C16.4725 3.27064 16.6204 4.19097 16.1653 5.20128C15.0038 7.77965 14.7393 9.95967 15.3717 11.7413Z" fill-rule="evenodd"  fill="#8134ED" >
</path>
<path d="M38.2167 29.3079C41.4387 29.9021 43.8756 32.7142 43.8756 36.0922C43.8756 39.9122 40.7756 43.0022 36.9456 43.0022C36.8481 43.0022 36.751 43.0002 36.6545 42.9962L22.526 42.9962C22.4178 42.9999 22.3091 43.0018 22.2 43.0018C17.12 43.0018 13 38.9318 13 33.9118C13 28.9018 17.12 24.8318 22.2 24.8318C23.1266 24.8318 24.0208 24.9672 24.8638 25.219C25.9338 22.7396 28.4217 21 31.3236 21C35.2036 21 38.3536 24.11 38.3536 27.94C38.3536 28.4083 38.3065 28.8657 38.2167 29.3079Z" fill-rule="evenodd"  fill="#BEDCFF" >
</path>
<path d="M40.3532 27.8512C40.3044 22.9547 36.2314 19 31.3236 19C27.9397 19 25.4309 20.3145 23.7971 22.9435C23.2713 22.869 22.7389 22.8318 22.2 22.8318C16.0144 22.8318 11 27.7262 11 33.9118C11 40.0366 16.0752 45.0018 22.2 45.0018C22.3191 45.0018 22.4386 44.9999 22.5585 44.9962L36.6157 44.9962C36.7252 45.0002 36.8352 45.0022 36.9456 45.0022C41.8775 45.0022 45.8756 41.0241 45.8756 36.0922C45.8756 33.9287 45.1781 32.0201 43.7831 30.3665C42.8167 29.221 41.6734 28.3826 40.3532 27.8512ZM35.8514 30.9054L37.854 31.2747C40.5351 31.7692 41.8756 33.375 41.8756 36.0922C41.8756 38.815 39.6684 41.0022 36.9456 41.0022C36.8756 41.0022 36.8062 41.0008 36.7373 40.9979L36.6959 40.9962L22.4918 40.9962L22.4576 40.9974C22.3712 41.0003 22.2854 41.0018 22.2 41.0018C18.2843 41.0018 15 37.8275 15 33.9118C15 29.9354 18.2235 26.8318 22.2 26.8318C22.9168 26.8318 23.6139 26.933 24.2914 27.1353L25.9954 27.6443L26.7001 26.0115C27.5665 24.0038 29.1077 23 31.3236 23C34.0519 23 36.3536 25.2117 36.3536 27.94C36.3536 28.2685 36.3213 28.5918 36.2567 28.9099L35.8514 30.9054Z" fill-rule="evenodd"  fill="#1764FF" >
</path>
</svg>
