<svg xmlns="http://www.w3.org/2000/svg" xmlns:xlink="http://www.w3.org/1999/xlink" width="48" height="48" viewBox="0 0 48 48" fill="none">
<path d="M22.44 4.11994C10 3.99994 4 12.9499 4 23.9999C4 35.0399 12.95 43.9999 24 43.9999C33.38 43.9999 41.26 36.8199 43.41 27.8799C43.54 27.3799 43.64 26.7099 43.72 26.0199C43.88 25.0999 42.76 24.5099 42.09 25.1699C41.66 25.6099 41.23 26.0199 40.87 26.2999C37.99 28.4699 34.4 29.4499 31.27 29.4499C24.24 29.4499 18.55 23.7599 18.55 16.7299C18.55 12.4099 21.17 8.58994 23.19 6.28994C24.03 5.55994 23.55 4.17994 22.44 4.11994Z"   fill="#E2C2FB" >
</path>
<path d="M31.2727 27.4535C25.3482 27.4535 20.5455 22.6508 20.5455 16.7263C20.5455 13.3044 22.3222 9.85135 25.8755 6.36708C26.693 5.56555 26.8753 4.63294 26.4226 3.56926C25.9669 2.4987 25.1635 1.98458 24.0123 2.02692C16.5983 2.29959 10.9721 4.57842 7.13367 8.86341C3.71122 12.684 2 17.7292 2 23.999C2 36.1493 11.8497 45.999 24 45.999C29.0936 45.999 33.6655 44.2698 37.7158 40.8116C41.6076 37.4885 44.1553 33.3351 45.359 28.3515C45.4803 27.8489 45.5926 27.187 45.6959 26.3657C45.8824 24.8826 45.2819 23.8488 43.8945 23.2644C42.607 22.722 41.4742 22.9474 40.4961 23.9407C40.1524 24.2895 39.8772 24.5419 39.6705 24.6977C37.2322 26.5349 34.433 27.4535 31.2727 27.4535ZM20.5144 6.35263C17.8685 9.72741 16.5455 13.1853 16.5455 16.7263C16.5455 24.8599 23.1391 31.4535 31.2727 31.4535C34.9398 31.4535 38.2377 30.4814 41.1666 28.5374C40.0715 32.1844 38.0554 35.2618 35.1184 37.7696C31.8161 40.5892 28.11 41.999 24 41.999C14.0589 41.999 6 33.9401 6 23.999C6 13.6837 10.8381 7.80164 20.5144 6.35263Z" fill-rule="evenodd"  fill="#8134ED" >
</path>
</svg>
