<svg xmlns="http://www.w3.org/2000/svg" xmlns:xlink="http://www.w3.org/1999/xlink" width="48" height="48" viewBox="0 0 48 48" fill="none">
<path d="M24 3C25.1046 3 26 3.89543 26 5L26 9C26 10.1046 25.1046 11 24 11C22.8954 11 22 10.1046 22 9L22 5C22 3.89543 22.8954 3 24 3ZM41.4142 8.4142C42.1952 9.19524 42.1952 10.4616 41.4142 11.2426L38.5858 14.071C37.8048 14.852 36.5384 14.852 35.7574 14.071C34.9764 13.29 34.9764 12.0236 35.7574 11.2426L38.5858 8.4142C39.3668 7.63316 40.6332 7.63316 41.4142 8.4142ZM12.4142 14.0758C13.1952 13.2948 13.1952 12.0284 12.4142 11.2474L9.58584 8.419C8.8048 7.63796 7.53848 7.63796 6.75744 8.419C5.9764 9.20004 5.9764 10.4664 6.75744 11.2474L9.58584 14.0758C10.3668 14.8568 11.6332 14.8568 12.4142 14.0758ZM23.9999 42C33.3978 42 41.032 38.0672 46.9026 30.2015C47.9987 28.733 47.9958 27.2615 46.894 25.787C41.022 17.929 33.3907 14 23.9999 14C14.6021 14 6.96787 17.9328 1.09727 25.7985C0.00118476 27.267 0.00404075 28.7385 1.10584 30.213C6.97782 38.071 14.6092 42 23.9999 42ZM43.5533 28C38.5002 21.3333 31.9824 18 23.9999 18C16.0152 18 9.4974 21.3333 4.44651 28C9.49967 34.6667 16.0175 38 23.9999 38C31.9847 38 38.5025 34.6667 43.5533 28ZM24 33C26.7614 33 29 30.7614 29 28C29 25.2386 26.7614 23 24 23C21.2386 23 19 25.2386 19 28C19 30.7614 21.2386 33 24 33Z" fill-rule="evenodd"  fill="#000000" >
</path>
</svg>
