<svg xmlns="http://www.w3.org/2000/svg" xmlns:xlink="http://www.w3.org/1999/xlink" width="48" height="48" viewBox="0 0 48 48" fill="none">
<path d="M28.037 5.07001C25.8361 5.07001 23.958 5.85225 22.4028 7.41673L22.402 7.41754C22.0427 7.77912 21.8206 8.27731 21.8206 8.82737C21.8206 9.93194 22.716 10.8274 23.8206 10.8274C24.3751 10.8274 24.8769 10.6017 25.2392 10.2372L25.2399 10.2365C26.013 9.45884 26.9454 9.07001 28.037 9.07001C30.2462 9.07001 32 10.8609 32 13.07C32 15.2587 30.2257 17.07 28.037 17.07L11 17.07C9.89543 17.07 9 17.9654 9 19.07C9 20.1746 9.89543 21.07 11 21.07L28.037 21.07C32.4349 21.07 36 17.4678 36 13.07C36 8.65173 32.4553 5.07001 28.037 5.07001Z" fill-rule="evenodd"  fill="#1764FF" >
</path>
<path d="M37.7843 44C35.925 44 34.2227 43.26 32.6777 41.7799L32.6747 41.7771C32.2951 41.4131 32.0588 40.9008 32.0588 40.3333C32.0588 39.2288 32.9542 38.3333 34.0588 38.3333C34.5959 38.3333 35.0835 38.5451 35.4428 38.8896L35.4447 38.8914C36.2163 39.6305 36.9962 40 37.7843 40C39.9281 40 41 39 41 37C41 35 39.9281 34 37.7843 34L25 34C23.8954 34 23 33.1046 23 32C23 30.8954 23.8954 30 25 30L37.7843 30C39.7604 30 41.4511 30.6736 42.8564 32.0207C44.2855 33.3907 45 35.0504 45 37C45 38.9496 44.2855 40.6093 42.8564 41.9793C41.4511 43.3264 39.7604 44 37.7843 44Z" fill-rule="evenodd"  fill="#1764FF" >
</path>
<path d="M40 22.998C40 22.8235 39.9287 22.6867 39.7862 22.5877C39.2379 22.231 38.8753 21.6129 38.8753 20.91C38.8753 19.8054 39.7708 18.91 40.8753 18.91C41.2947 18.91 41.6839 19.0391 42.0054 19.2596C43.3351 20.1486 44 21.3947 44 22.998C44 25.4833 41.9853 27.498 39.5 27.498L5.5 27.498C4.39543 27.498 3.5 26.6026 3.5 25.498C3.5 24.3935 4.39543 23.498 5.5 23.498L39.5 23.498C39.7761 23.498 40 23.2742 40 22.998Z" fill-rule="evenodd"  fill="#1764FF" >
</path>
<path d="M6 11C6 12.1046 6.89543 13 8 13L12 13C13.1046 13 14 12.1046 14 11C14 9.89543 13.1046 9 12 9L8 9C6.89543 9 6 9.89543 6 11Z" fill-rule="evenodd"  fill="#4187FF" >
</path>
<path d="M2 32C2 33.1046 2.89543 34 4 34L18 34C19.1046 34 20 33.1046 20 32C20 30.8954 19.1046 30 18 30L4 30C2.89543 30 2 30.8954 2 32Z" fill-rule="evenodd"  fill="#4187FF" >
</path>
</svg>
