<svg xmlns="http://www.w3.org/2000/svg" xmlns:xlink="http://www.w3.org/1999/xlink" width="48" height="48" viewBox="0 0 48 48" fill="none">
<path d="M5.88854 18.1664C3.5308 16.4377 2 13.6476 2 10.5C2 5.2533 6.2533 1 11.5 1C15.8965 1 19.5954 3.98651 20.6788 8.04147C19.2655 8.18507 17.9697 8.69506 16.9033 9.46786C16.4203 6.92366 14.1848 5 11.5 5C8.46243 5 6 7.46243 6 10.5C6 12.154 6.73014 13.6375 7.88569 14.6458C6.92619 15.6291 6.22694 16.8334 5.88854 18.1664ZM38.3532 16.8512C38.3044 11.9547 34.2314 8 29.3236 8C25.9397 8 23.4309 9.3145 21.7971 11.9435C21.2714 11.869 20.739 11.8318 20.2 11.8318C14.0144 11.8318 9 16.7262 9 22.9118C9 29.0366 14.0752 34.0018 20.2 34.0018C20.3197 34.0018 20.4393 33.9999 20.5587 33.9962L34.6158 33.9962C34.7256 34.0002 34.8355 34.0022 34.9456 34.0022C39.8775 34.0022 43.8756 30.0241 43.8756 25.0922C43.8756 22.9287 43.1781 21.0201 41.7831 19.3665C40.8167 18.221 39.6734 17.3826 38.3532 16.8512ZM33.8516 19.9054L35.854 20.2747C38.5351 20.7692 39.8756 22.375 39.8756 25.0922C39.8756 27.815 37.6684 30.0022 34.9456 30.0022C34.8759 30.0022 34.8064 30.0008 34.737 29.9979L34.6958 29.9962L20.4915 29.9962L20.4571 29.9974C20.3716 30.0003 20.2859 30.0018 20.2 30.0018C16.2843 30.0018 13 26.8275 13 22.9118C13 18.9354 16.2235 15.8318 20.2 15.8318C20.9168 15.8318 21.6139 15.933 22.2914 16.1353L23.9954 16.6444L24.7001 15.0114C25.5665 13.0038 27.1077 12 29.3236 12C32.0519 12 34.3536 14.2117 34.3536 16.94C34.3536 17.2685 34.3213 17.5918 34.2567 17.91L33.8516 19.9054ZM29 38C29 38.2211 28.9641 38.4338 28.8979 38.6327L26.9249 45.0449C26.6876 45.8846 25.9157 46.5 25 46.5C23.8954 46.5 23 45.6046 23 44.5C23 44.2789 23.0359 44.0662 23.1021 43.8673L25.0751 37.4551C25.3124 36.6154 26.0843 36 27 36C28.1046 36 29 36.8954 29 38ZM19 39.5C19 39.7068 18.9686 39.9062 18.9104 40.0939L17.9352 43.5069C17.7108 44.366 16.9294 45 16 45C14.8954 45 14 44.1046 14 43C14 42.7932 14.0314 42.5938 14.0896 42.4061L15.0648 38.9931C15.2892 38.134 16.0706 37.5 17 37.5C18.1046 37.5 19 38.3954 19 39.5ZM38 39.5C38 39.7068 37.9686 39.9062 37.9104 40.0939L36.9352 43.5069C36.7108 44.366 35.9294 45 35 45C33.8954 45 33 44.1046 33 43C33 42.7932 33.0314 42.5938 33.0896 42.4061L34.0648 38.9931C34.2892 38.134 35.0706 37.5 36 37.5C37.1046 37.5 38 38.3954 38 39.5Z" fill-rule="evenodd"  fill="#000000" >
</path>
</svg>
