<svg xmlns="http://www.w3.org/2000/svg" xmlns:xlink="http://www.w3.org/1999/xlink" width="48" height="48" viewBox="0 0 48 48" fill="none">
<path d="M17 4C20.3137 4 23 6.68629 23 10L23 23.7789C26.0102 25.7416 28 29.1384 28 33C28 39.0751 23.0751 44 17 44C10.9249 44 6 39.0751 6 33C6 29.1384 7.98979 25.7416 11 23.7789L11 10C11 6.68629 13.6863 4 17 4Z" fill-rule="evenodd"  fill="#BEDCFF" >
</path>
<path d="M25 10C25 5.58172 21.4183 2 17 2C12.5817 2 9 5.58172 9 10L9 22.7405C5.66667 25.2596 4 28.6794 4 33C4 40.1797 9.8203 46 17 46C24.1797 46 30 40.1797 30 33C30 28.6795 28.3333 25.2596 25 22.7405L25 10ZM13 10C13 7.79086 14.7909 6 17 6C19.2091 6 21 7.79086 21 10L21 24.8624L21.9076 25.4542C24.6359 27.2331 26 29.7483 26 33C26 37.9706 21.9706 42 17 42C12.0294 42 8 37.9706 8 33C8 29.7483 9.36412 27.2331 12.0924 25.4542L13 24.8624L13 10Z" fill-rule="evenodd"  fill="#4187FF" >
</path>
<path d="M22 33C22 35.7614 19.7614 38 17 38C14.2386 38 12 35.7614 12 33C12 30.2386 14.2386 28 17 28C19.7614 28 22 30.2386 22 33Z"   fill="#1764FF" >
</path>
<path d="M15 33L15 24C15 22.8954 15.8954 22 17 22C18.1046 22 19 22.8954 19 24L19 33C19 34.1046 18.1046 35 17 35C15.8954 35 15 34.1046 15 33Z" fill-rule="evenodd"  fill="#1764FF" >
</path>
<path d="M30 12L42 12L42 16L30 16L30 12Z" fill-rule="evenodd"  fill="#1764FF" >
</path>
<path d="M32 14C32 15.1046 31.1046 16 30 16C28.8954 16 28 15.1046 28 14C28 12.8954 28.8954 12 30 12C31.1046 12 32 12.8954 32 14Z"   fill="#1764FF" >
</path>
<path d="M44 14C44 15.1046 43.1046 16 42 16C40.8954 16 40 15.1046 40 14C40 12.8954 40.8954 12 42 12C43.1046 12 44 12.8954 44 14Z"   fill="#1764FF" >
</path>
</svg>
