<svg xmlns="http://www.w3.org/2000/svg" xmlns:xlink="http://www.w3.org/1999/xlink" width="48" height="48" viewBox="0 0 48 48" fill="none">
<path d="M22 44L22 33C22 31.8954 22.8954 31 24 31C25.1046 31 26 31.8954 26 33L26 44C26 45.1046 25.1046 46 24 46C22.8954 46 22 45.1046 22 44Z" fill-rule="evenodd"  fill="#4187FF" >
</path>
<path d="M22 15L22 4C22 2.89543 22.8954 2 24 2C25.1046 2 26 2.89543 26 4L26 15C26 16.1046 25.1046 17 24 17C22.8954 17 22 16.1046 22 15Z" fill-rule="evenodd"  fill="#4187FF" >
</path>
<path d="M31.8944 21.2888L42.8557 15.8082C43.5322 15.4875 44 14.7984 44 14C44 12.8954 43.1046 12 42 12C41.6641 12 41.3475 12.0828 41.0696 12.2291L30.1056 17.7111L31.8944 21.2888Z" fill-rule="evenodd"  fill="#4187FF" >
</path>
<path d="M31.8944 26.2112L42.8557 31.6918C43.5322 32.0125 44 32.7016 44 33.5C44 34.6046 43.1046 35.5 42 35.5C41.6641 35.5 41.3475 35.4172 41.0696 35.2709L30.1056 29.7889L31.8944 26.2112Z" fill-rule="evenodd"  fill="#4187FF" >
</path>
<path d="M16.1056 21.2888L5.14428 15.8082C4.46778 15.4875 3.99998 14.7984 3.99998 14C3.99998 12.8954 4.89538 12 5.99998 12C6.33588 12 6.65248 12.0828 6.93038 12.2291L17.8944 17.7111L16.1056 21.2888Z" fill-rule="evenodd"  fill="#4187FF" >
</path>
<path d="M16.1056 26.2112L5.14428 31.6918C4.46778 32.0125 3.99998 32.7016 3.99998 33.5C3.99998 34.6046 4.89538 35.5 5.99998 35.5C6.33588 35.5 6.65248 35.4172 6.93038 35.2709L17.8944 29.7889L16.1056 26.2112Z" fill-rule="evenodd"  fill="#4187FF" >
</path>
<path d="M34 27.3303L34 20.6697C34 19.1101 33.3203 17.948 31.961 17.1834L25.9611 13.8084C24.6537 13.073 23.3463 13.073 22.039 13.8084L16.039 17.1834C14.6797 17.948 14 19.1101 14 20.6697L14 27.3303C14 28.8899 14.6797 30.052 16.039 30.8166L22.039 34.1916C23.3463 34.927 24.6537 34.927 25.9611 34.1916L31.961 30.8166C33.3203 30.052 34 28.8899 34 27.3303ZM24 17.2947L30 20.6697L30 27.3303L24 30.7053L18 27.3303L18 20.6697L24 17.2947Z" fill-rule="evenodd"  fill="#1764FF" >
</path>
<path d="M19.0373 42.7103C18.7348 42.8941 18.3798 43 18 43C16.8954 43 16 42.1046 16 41C16 40.2494 16.4135 39.5954 17.025 39.2533L24 35.1846L30.975 39.2533C31.5865 39.5954 32 40.2494 32 41C32 42.1046 31.1046 43 30 43C29.6202 43 29.2652 42.8941 28.9627 42.7103L24 39.8154L19.0373 42.7103Z" fill-rule="evenodd"  fill="#4187FF" >
</path>
<path d="M4.71628 28.1421C4.42187 27.9457 4.17587 27.6686 4.01537 27.3244C3.54855 26.3233 3.98166 25.1334 4.98274 24.6666C5.66299 24.3494 6.43045 24.4477 6.99897 24.8574L13.6342 29.4593L12.8945 37.5003C12.8429 38.1991 12.4249 38.8503 11.7446 39.1675C10.7436 39.6343 9.55361 39.2012 9.08678 38.2001C8.92627 37.8559 8.87219 37.4894 8.91094 37.1376L9.43729 31.4164L4.71628 28.1421Z" fill-rule="evenodd"  fill="#4187FF" >
</path>
<path d="M43.2837 28.1421C43.5781 27.9457 43.8241 27.6686 43.9846 27.3244C44.4514 26.3233 44.0183 25.1334 43.0173 24.6666C42.337 24.3494 41.5695 24.4477 41.001 24.8574L34.3658 29.4593L35.1055 37.5003C35.1571 38.1991 35.5751 38.8503 36.2554 39.1675C37.2564 39.6343 38.4464 39.2012 38.9132 38.2001C39.0737 37.8559 39.1278 37.4894 39.0891 37.1376L38.5627 31.4164L43.2837 28.1421Z" fill-rule="evenodd"  fill="#4187FF" >
</path>
<path d="M4.71628 19.2079C4.42187 19.4043 4.17587 19.6814 4.01537 20.0256C3.54855 21.0267 3.98166 22.2166 4.98274 22.6834C5.66299 23.0007 6.43045 22.9023 6.99897 22.4926L13.6342 17.8907L12.8945 9.84967C12.8429 9.15088 12.4249 8.49973 11.7446 8.18252C10.7436 7.71571 9.55361 8.14879 9.08678 9.1499C8.92627 9.49412 8.87219 9.8606 8.91094 10.2124L9.43729 15.9336L4.71628 19.2079Z" fill-rule="evenodd"  fill="#4187FF" >
</path>
<path d="M43.2837 19.2079C43.5781 19.4043 43.8241 19.6814 43.9846 20.0256C44.4514 21.0267 44.0183 22.2166 43.0173 22.6834C42.337 23.0007 41.5695 22.9023 41.001 22.4926L34.3658 17.8907L35.1055 9.84967C35.1571 9.15088 35.5751 8.49973 36.2554 8.18252C37.2564 7.71571 38.4464 8.14879 38.9132 9.1499C39.0737 9.49412 39.1278 9.8606 39.0891 10.2124L38.5627 15.9336L43.2837 19.2079Z" fill-rule="evenodd"  fill="#4187FF" >
</path>
<path d="M19.0373 5.28967C18.7348 5.10585 18.3798 4.99999 18 4.99999C16.8954 4.99999 16 5.89542 16 6.99999C16 7.75056 16.4135 8.40456 17.025 8.74667L24 12.8154L30.975 8.74667C31.5865 8.40456 32 7.75056 32 6.99999C32 5.89542 31.1046 4.99999 30 4.99999C29.6202 4.99999 29.2652 5.10585 28.9627 5.28967L24 8.18458L19.0373 5.28967Z" fill-rule="evenodd"  fill="#4187FF" >
</path>
</svg>
