<svg xmlns="http://www.w3.org/2000/svg" xmlns:xlink="http://www.w3.org/1999/xlink" width="48" height="48" viewBox="0 0 48 48" fill="none">
<path d="M17 4C20.3137 4 23 6.68629 23 10L23 23.7789C26.0102 25.7416 28 29.1384 28 33C28 39.0751 23.0751 44 17 44C10.9249 44 6 39.0751 6 33C6 29.1384 7.98979 25.7416 11 23.7789L11 10C11 6.68629 13.6863 4 17 4Z" fill-rule="evenodd"  fill="#FFC7BF" >
</path>
<path d="M25 10C25 5.58172 21.4183 2 17 2C12.5817 2 9 5.58172 9 10L9 22.7405C5.66667 25.2596 4 28.6794 4 33C4 40.1797 9.8203 46 17 46C24.1797 46 30 40.1797 30 33C30 28.6795 28.3333 25.2596 25 22.7405L25 10ZM13 10C13 7.79086 14.7909 6 17 6C19.2091 6 21 7.79086 21 10L21 24.8624L21.9076 25.4542C24.6359 27.2331 26 29.7483 26 33C26 37.9706 21.9706 42 17 42C12.0294 42 8 37.9706 8 33C8 29.7483 9.36412 27.2331 12.0924 25.4542L13 24.8624L13 10Z" fill-rule="evenodd"  fill="#FF4943" >
</path>
<path d="M22 33C22 35.7614 19.7614 38 17 38C14.2386 38 12 35.7614 12 33C12 30.2386 14.2386 28 17 28C19.7614 28 22 30.2386 22 33Z"   fill="#FF1A1A" >
</path>
<path d="M15 33L15 12C15 10.8954 15.8954 10 17 10C18.1046 10 19 10.8954 19 12L19 33C19 34.1046 18.1046 35 17 35C15.8954 35 15 34.1046 15 33Z" fill-rule="evenodd"  fill="#FF1A1A" >
</path>
<path d="M38 12L38 8L34 8L34 12L30 12L30 16L34 16L34 20L38 20L38 16L42 16L42 12L38 12Z" fill-rule="evenodd"  fill="#FF1A1A" >
</path>
<path d="M32 14C32 15.1046 31.1046 16 30 16C28.8954 16 28 15.1046 28 14C28 12.8954 28.8954 12 30 12C31.1046 12 32 12.8954 32 14Z"   fill="#FF1A1A" >
</path>
<path d="M44 14C44 15.1046 43.1046 16 42 16C40.8954 16 40 15.1046 40 14C40 12.8954 40.8954 12 42 12C43.1046 12 44 12.8954 44 14Z"   fill="#FF1A1A" >
</path>
<path d="M38 20C38 21.1046 37.1046 22 36 22C34.8954 22 34 21.1046 34 20C34 18.8954 34.8954 18 36 18C37.1046 18 38 18.8954 38 20Z"   fill="#FF1A1A" >
</path>
<path d="M38 8C38 9.10457 37.1046 10 36 10C34.8954 10 34 9.10457 34 8C34 6.89543 34.8954 6 36 6C37.1046 6 38 6.89543 38 8Z"   fill="#FF1A1A" >
</path>
</svg>
