<svg xmlns="http://www.w3.org/2000/svg" xmlns:xlink="http://www.w3.org/1999/xlink" width="48" height="48" viewBox="0 0 48 48" fill="none">
<path d="M29.7603 4.63921L16.466 4.63925C15.6177 4.63925 14.8617 5.17436 14.5797 5.97438L8.36871 23.5958C8.00562 24.626 8.53617 25.757 9.56048 26.1362L18.7331 29.533C20.2803 30.106 21.0745 31.8205 20.5109 33.371L17.5303 41.5716C16.8364 43.4808 19.1009 45.0887 20.6747 43.8042L39.5423 28.4042C40.9047 27.2922 40.272 25.0898 38.5272 24.8704L29.5709 23.7447C27.6606 23.5046 26.4677 21.5528 27.1254 19.7433L31.64 7.32243C32.114 6.01811 31.1481 4.6392 29.7603 4.63921Z"   fill="#FEEDBD" >
</path>
<path d="M29.0052 20.4265L33.5197 8.00563C34.4679 5.39698 32.5359 2.6392 29.7603 2.63922L16.466 2.63925C14.5785 2.63925 13.321 3.52935 12.6935 5.30954L6.48251 22.931C5.60992 25.4067 6.40442 27.1002 8.866 28.0117L18.0386 31.4086C18.6601 31.6387 18.8576 32.0651 18.6313 32.6879L15.6507 40.8884C14.2628 44.7068 18.7919 47.9227 21.9394 45.3536L40.8071 29.9536C43.5318 27.7296 42.2663 23.3246 38.7766 22.8861L29.8203 21.7603C29.1835 21.6802 28.786 21.0296 29.0052 20.4265ZM10.255 24.2607L16.4661 6.63924L16.466 6.63925L29.7603 6.63922L29.7603 6.63924L25.2458 19.0601C24.1497 22.0759 26.1376 25.3288 29.3215 25.729L38.2778 26.8548L38.2778 26.8548L19.4101 42.2548L22.3907 34.0542C22.8603 32.7621 22.8062 31.4924 22.2284 30.2449C21.6506 28.9974 20.717 28.1349 19.4278 27.6574L10.2551 24.2607L10.255 24.2607Z" fill-rule="evenodd"  fill="#FA9E14" >
</path>
</svg>
