<svg xmlns="http://www.w3.org/2000/svg" xmlns:xlink="http://www.w3.org/1999/xlink" width="48" height="48" viewBox="0 0 48 48" fill="none">
<path d="M37.0999 11.2093C38.5176 11.7549 39.7445 12.6286 40.7805 13.8305C42.2602 15.547 43 17.5302 43 19.78C43 21.7499 42.2916 23.6282 40.8749 25.415C39.5638 27.0685 37.9987 28.2238 36.1796 28.881L36.0389 28.9318L35.8922 28.9612C33.1279 29.5141 29.5594 29.7569 25.1868 29.6898C20.5572 29.6187 16.8944 29.2038 14.1983 28.4452L14.1643 28.4357L14.1306 28.4249C11.7474 27.6625 9.80713 26.2962 8.30981 24.3261C6.76994 22.2999 6 20.0245 6 17.5C6 14.3117 7.16333 11.5947 9.49 9.34906C11.7963 7.12302 14.5763 6.01 17.83 6.01C18.4377 6.01 19.0345 6.0526 19.6204 6.13781C21.3424 3.37927 23.9989 2 27.59 2C30.2019 2 32.4348 2.89464 34.2887 4.68393C36.153 6.48322 37.09 8.65835 37.0999 11.2093Z" fill-rule="evenodd"  fill="#D5D5D5" >
</path>
<path d="M14.0824 28.4094C11.7212 27.6441 9.797 26.283 8.30981 24.3261C6.76994 22.2999 6 20.0245 6 17.5C6 14.3117 7.16333 11.5947 9.49 9.34906C11.7963 7.12302 14.5763 6.01 17.83 6.01C18.4377 6.01 19.0345 6.0526 19.6204 6.13781C21.3423 3.37927 23.9989 2 27.59 2C30.2019 2 32.4348 2.89464 34.2887 4.68393C36.153 6.48322 37.0901 8.65835 37.0999 11.2093C38.5176 11.7549 39.7445 12.6286 40.7805 13.8305C42.2602 15.547 43 17.5302 43 19.78C43 21.7499 42.2916 23.6282 40.8749 25.415C39.5756 27.0537 38.0267 28.2032 36.2282 28.8633C36.0025 28.9516 35.7569 29 35.5 29C34.3954 29 33.5 28.1046 33.5 27C33.5 26.119 34.0697 25.371 34.8608 25.1043C37.6203 24.0951 39 22.3203 39 19.78C39 16.8874 37.5319 15.1769 34.5957 14.6484L32.5748 14.2846L32.9916 12.274C33.0639 11.9256 33.1 11.5842 33.1 11.25C33.1 9.81384 32.5703 8.58454 31.5109 7.56209C30.4319 6.5207 29.1249 6 27.59 6C25.1495 6 23.4561 7.07243 22.5098 9.21728L21.8021 10.8214L20.1191 10.3298C19.3895 10.1166 18.6265 10.01 17.83 10.01C15.6533 10.01 13.7993 10.7491 12.2679 12.2271C10.756 13.6864 10 15.444 10 17.5C10 21.0889 11.7696 23.4563 15.3089 24.6021C16.1364 24.8472 16.74 25.6131 16.74 26.52C16.74 27.6246 15.8446 28.52 14.74 28.52C14.5096 28.52 14.2883 28.481 14.0824 28.4094Z" fill-rule="evenodd"  fill="#808080" >
</path>
<path d="M25 40C23.62 40 22.5 41.12 22.5 42.5C22.5 43.88 23.62 45 25 45C26.38 45 27.5 43.88 27.5 42.5C27.5 41.12 26.38 40 25 40Z"   fill="#555555" >
</path>
<path d="M20.4029 24.5954C18.801 25.8836 18 27.5958 18 29.7321C18 30.8367 18.8954 31.7321 20 31.7321C21.1046 31.7321 22 30.8367 22 29.7321C22 27.9107 23 27 25 27C27 27 28 27.9107 28 29.7321C28 30.98 27.3126 31.7127 25.9378 31.9302C23.9793 32.24 23 33.3466 23 35.25L23 36.5625C23 37.6671 23.8954 38.5625 25 38.5625C26.1046 38.5625 27 37.6671 27 36.5625L27 35.803C30.3333 35.1369 32 33.1132 32 29.7321C32 27.5958 31.199 25.8836 29.5971 24.5954C28.2744 23.5318 26.742 23 25 23C23.258 23 21.7256 23.5318 20.4029 24.5954Z" fill-rule="evenodd"  fill="#555555" >
</path>
</svg>
