<svg xmlns="http://www.w3.org/2000/svg" xmlns:xlink="http://www.w3.org/1999/xlink" width="48" height="48" viewBox="0 0 48 48" fill="none">
<path d="M37.0933 11.4139C37.0899 6.21418 32.7938 2 27.5933 2C23.9928 2 21.3323 3.40927 19.6119 6.22781C19.0257 6.14 18.4317 6.0961 17.83 6.0961C11.2965 6.0961 6 11.2726 6 17.8061C6 24.2734 11.3628 29.5161 17.83 29.5161C17.9263 29.5161 18.0234 29.5149 18.1214 29.5126L33.3025 29.5126C33.4006 29.5157 33.4997 29.5172 33.5998 29.5172C38.7913 29.5172 42.9998 25.3287 42.9998 20.1372C42.9998 17.8535 42.2647 15.8403 40.7945 14.0974C39.755 12.8652 38.5213 11.9707 37.0933 11.4139ZM32.5832 14.4793L34.5874 14.8463C37.529 15.385 38.9998 17.1487 38.9998 20.1372C38.9998 23.1195 36.5821 25.5172 33.5998 25.5172C33.534 25.5172 33.4695 25.5161 33.4064 25.5139L33.3711 25.5126L18.0705 25.5126L18.0446 25.5133C17.972 25.5152 17.9005 25.5161 17.83 25.5161C13.5719 25.5161 10 22.0642 10 17.8061C10 13.4817 13.5056 10.0961 17.83 10.0961C18.6109 10.0961 19.3704 10.2065 20.1087 10.4272L21.8135 10.937L22.5182 9.30317C23.468 7.10106 25.1597 6 27.5933 6C30.5867 6 33.0933 8.42662 33.0933 11.42C33.0933 11.7796 33.058 12.1337 32.9875 12.4822L32.5832 14.4793ZM21.5 32.5C21.5 31.3954 22.3954 30.5 23.5 30.5C24.6046 30.5 25.5 31.3954 25.5 32.5L25.5 32.5L25.5 34.9383L28.7615 32.4295C29.1021 32.1605 29.5323 32 30 32C31.1046 32 32 32.8954 32 34C32 34.6517 31.6883 35.2307 31.2058 35.5958L26.7803 39L31.1996 42.3996C31.6856 42.7644 32 43.3455 32 44C32 45.1046 31.1046 46 30 46C29.5335 46 29.1044 45.8403 28.7642 45.5726L25.5 43.0617L25.5 45.5C25.5 46.6046 24.6046 47.5 23.5 47.5C22.3954 47.5 21.5 46.6046 21.5 45.5L21.5 45.4912L21.5 43.0617L18.233 45.5748C17.8933 45.8412 17.4652 46 17 46C15.8954 46 15 45.1046 15 44C15 43.3452 15.3147 42.7638 15.8012 42.399L20.2198 39L15.7953 35.5966C15.3122 35.2315 15 34.6522 15 34C15 32.8954 15.8954 32 17 32C17.4666 32 17.8959 32.1598 18.2362 32.4277L21.5 34.9383L21.5 32.5L21.5 32.5Z" fill-rule="evenodd"  fill="#000000" >
</path>
</svg>
