<svg xmlns="http://www.w3.org/2000/svg" xmlns:xlink="http://www.w3.org/1999/xlink" width="48" height="48" viewBox="0 0 48 48" fill="none">
<path d="M24.037 5.07001C21.8367 5.07001 19.9591 5.85176 18.4042 7.41527L18.402 7.41754C18.0426 7.77911 17.8206 8.27731 17.8206 8.82736C17.8206 9.93193 18.716 10.8274 19.8206 10.8274C20.3751 10.8274 20.8769 10.6017 21.2391 10.2372L21.2399 10.2364C22.0131 9.4588 22.9455 9.07001 24.037 9.07001C26.2461 9.07001 28 10.8609 28 13.07C28 15.2587 26.2257 17.07 24.037 17.07L11 17.07C9.89543 17.07 9 17.9654 9 19.07C9 20.1746 9.89543 21.07 11 21.07L24.037 21.07C28.4348 21.07 32 17.4679 32 13.07C32 8.65173 28.4553 5.07001 24.037 5.07001ZM8 13C6.89543 13 6 12.1046 6 11C6 9.89544 6.89543 9.00001 8 9.00001L12 9.00001C13.1046 9.00001 14 9.89544 14 11C14 12.1046 13.1046 13 12 13L8 13ZM35.7377 10.1431C34.3333 10.8627 33.7782 12.5845 34.4977 13.9889L35.1492 15.2603C35.8687 16.6647 37.5905 17.2198 38.9949 16.5003L40.2663 15.8488C41.6707 15.1293 42.2259 13.4075 41.5063 12.0031L40.8549 10.7317C40.1353 9.32734 38.4135 8.77215 37.0091 9.49171L35.7377 10.1431ZM40.8753 18.91C41.2947 18.91 41.6839 19.0391 42.0054 19.2596C43.3351 20.1485 44 21.3947 44 22.998C44 25.4833 41.9853 27.498 39.5 27.498L19.5 27.498C18.3954 27.498 17.5 26.6026 17.5 25.498C17.5 24.3934 18.3954 23.498 19.5 23.498L39.5 23.498C39.7761 23.498 40 23.2742 40 22.998C40 22.8235 39.9287 22.6867 39.7862 22.5877C39.2379 22.231 38.8753 21.6128 38.8753 20.91C38.8753 19.8054 39.7708 18.91 40.8753 18.91ZM6.42142 23.8331C5.01704 24.5527 4.46186 26.2745 5.18141 27.6789L5.83286 28.9503C6.55241 30.3547 8.27419 30.9098 9.67857 30.1903L10.95 29.5388C12.3544 28.8193 12.9096 27.0975 12.19 25.6931L11.5386 24.4217C10.819 23.0173 9.09722 22.4621 7.69284 23.1817L6.42142 23.8331ZM37.7843 44C35.925 44 34.2228 43.26 32.6777 41.7799C32.2963 41.4157 32.0588 40.9023 32.0588 40.3333C32.0588 39.2288 32.9542 38.3333 34.0588 38.3333C34.5959 38.3333 35.0835 38.5451 35.4428 38.8896L35.4448 38.8915C36.2163 39.6305 36.9962 40 37.7843 40C39.9281 40 41 39 41 37C41 35 39.9281 34 37.7843 34L30.5 34C29.3954 34 28.5 33.1046 28.5 32C28.5 30.8954 29.3954 30 30.5 30L37.7843 30C39.7604 30 41.4511 30.6736 42.8564 32.0207C44.2855 33.3907 45 35.0505 45 37C45 38.9495 44.2855 40.6093 42.8564 41.9793C41.4511 43.3264 39.7604 44 37.7843 44ZM4 37C2.89543 37 2 36.1046 2 35C2 33.8954 2.89543 33 4 33L9 33C10.1046 33 11 33.8954 11 35C11 36.1046 10.1046 37 9 37L4 37ZM16.7143 35.4286C15.7675 36.691 16.0233 38.4818 17.2857 39.4286L18.4286 40.2857C19.691 41.2325 21.4818 40.9767 22.4286 39.7143L23.2857 38.5714C24.2325 37.3091 23.9767 35.5182 22.7143 34.5714L21.5714 33.7143C20.3091 32.7675 18.5182 33.0233 17.5714 34.2857L16.7143 35.4286Z" fill-rule="evenodd"  fill="#000000" >
</path>
</svg>
