<svg xmlns="http://www.w3.org/2000/svg" xmlns:xlink="http://www.w3.org/1999/xlink" width="48" height="48" viewBox="0 0 48 48" fill="none">
<path d="M45.6961 15.3232C41.8269 11.5826 36.2167 10.5311 31.0266 12.606C36.9971 16.2248 39.4256 23.7933 36.4321 30.2133C36.217 30.6745 35.9795 31.1179 35.7214 31.5432C29.9389 42.5245 19.8671 45.1082 10.9622 40.9559C7.33792 39.2659 3.67248 36.1303 1.97899 33.3584C5.84985 37.1005 11.4628 38.1513 16.6548 36.0731C10.7103 32.4458 8.29748 24.8946 11.2851 18.4875C16.9339 6.37306 27.4541 3.40837 36.7129 7.7257C40.3372 9.41567 44.0026 12.5512 45.6961 15.3232ZM23.5 29C25.9853 29 28 26.9853 28 24.5C28 22.0147 25.9853 20 23.5 20C21.0147 20 19 22.0147 19 24.5C19 26.9853 21.0147 29 23.5 29Z" fill-rule="evenodd"  fill="#1764FF" >
</path>
</svg>
