<svg xmlns="http://www.w3.org/2000/svg" xmlns:xlink="http://www.w3.org/1999/xlink" width="48" height="48" viewBox="0 0 48 48" fill="none">
<path d="M24.037 5.07001C21.8367 5.07001 19.9591 5.85176 18.4042 7.41527L18.402 7.41753C18.0426 7.77911 17.8206 8.27731 17.8206 8.82736C17.8206 9.93193 18.716 10.8274 19.8206 10.8274C20.3751 10.8274 20.8769 10.6017 21.2391 10.2372L21.2399 10.2364C22.0131 9.4588 22.9455 9.07001 24.037 9.07001C26.2461 9.07001 28 10.8609 28 13.07C28 15.2587 26.2257 17.07 24.037 17.07L11 17.07C9.89543 17.07 9 17.9654 9 19.07C9 20.1746 9.89543 21.07 11 21.07L24.037 21.07C28.4348 21.07 32 17.4679 32 13.07C32 8.65173 28.4553 5.07001 24.037 5.07001Z" fill-rule="evenodd"  fill="#1764FF" >
</path>
<path d="M37.7843 44C35.925 44 34.2228 43.26 32.6777 41.7799C32.2963 41.4157 32.0588 40.9023 32.0588 40.3333C32.0588 39.2288 32.9542 38.3333 34.0588 38.3333C34.5959 38.3333 35.0835 38.5451 35.4428 38.8896L35.4448 38.8915C36.2163 39.6305 36.9962 40 37.7843 40C39.9281 40 41 39 41 37C41 35 39.9281 34 37.7843 34L30.5 34C29.3954 34 28.5 33.1046 28.5 32C28.5 30.8954 29.3954 30 30.5 30L37.7843 30C39.7604 30 41.4511 30.6736 42.8564 32.0207C44.2855 33.3907 45 35.0504 45 37C45 38.9496 44.2855 40.6093 42.8564 41.9793C41.4511 43.3264 39.7604 44 37.7843 44Z" fill-rule="evenodd"  fill="#4187FF" >
</path>
<path d="M40.8753 18.91C41.2947 18.91 41.6839 19.0391 42.0054 19.2596C43.3351 20.1485 44 21.3947 44 22.998C44 25.4833 41.9853 27.498 39.5 27.498L19.5 27.498C18.3954 27.498 17.5 26.6026 17.5 25.498C17.5 24.3934 18.3954 23.498 19.5 23.498L39.5 23.498C39.7761 23.498 40 23.2742 40 22.998C40 22.8235 39.9287 22.6867 39.7862 22.5877C39.2379 22.231 38.8753 21.6128 38.8753 20.91C38.8753 19.8054 39.7708 18.91 40.8753 18.91Z" fill-rule="evenodd"  fill="#FBB63E" >
</path>
<path d="M6 11C6 12.1046 6.89543 13 8 13L12 13C13.1046 13 14 12.1046 14 11C14 9.89543 13.1046 9 12 9L8 9C6.89543 9 6 9.89543 6 11Z" fill-rule="evenodd"  fill="#FBB63E" >
</path>
<path d="M2 35C2 36.1046 2.89543 37 4 37L9 37C10.1046 37 11 36.1046 11 35C11 33.8954 10.1046 33 9 33L4 33C2.89543 33 2 33.8954 2 35Z" fill-rule="evenodd"  fill="#FBB63E" >
</path>
<path d="M16.7143 35.4286C15.7675 36.691 16.0233 38.4818 17.2857 39.4286L18.4286 40.2857C19.691 41.2325 21.4818 40.9767 22.4286 39.7143L23.2857 38.5714C24.2325 37.3091 23.9767 35.5182 22.7143 34.5714L21.5714 33.7143C20.3091 32.7675 18.5182 33.0233 17.5714 34.2857L16.7143 35.4286Z"   fill="#FA9E14" >
</path>
<path d="M35.7378 10.1431C34.3334 10.8627 33.7783 12.5844 34.4979 13.9888L35.1493 15.2601C35.8689 16.6645 37.5907 17.2196 38.995 16.5L40.2664 15.8486C41.6707 15.129 42.2259 13.4073 41.5063 12.0029L40.8548 10.7315C40.1352 9.32719 38.4135 8.77206 37.0091 9.49163L35.7378 10.1431Z"   fill="#FA9E14" >
</path>
<path d="M6.42148 23.8331C5.01714 24.5527 4.462 26.2744 5.18158 27.6788L5.83304 28.9501C6.55261 30.3545 8.27437 30.9096 9.67871 30.1901L10.9501 29.5386C12.3544 28.819 12.9096 27.0973 12.19 25.6929L11.5385 24.4215C10.819 23.0172 9.0972 22.4621 7.69286 23.1816L6.42148 23.8331Z"   fill="#FA9E14" >
</path>
</svg>
