<svg xmlns="http://www.w3.org/2000/svg" xmlns:xlink="http://www.w3.org/1999/xlink" width="48" height="48" viewBox="0 0 48 48" fill="none">
<path d="M32.12 19.9299C31.0651 17.566 29.5835 15.1182 27.68 12.5799L22.8 6.06988C20.4 2.86753 15.5999 2.86754 13.2 6.06988L8.32 12.5799C6.41665 15.1179 4.93476 17.5661 3.88 19.9299C2.62415 22.7441 2 25.3826 2 27.8399C2 30.1349 2.41365 32.2988 3.25 34.3199C4.05328 36.2609 5.20204 37.9639 6.68 39.4299C7.99168 40.7309 9.48487 41.7646 11.1658 42.5326C11.3621 42.6224 11.5609 42.7085 11.7622 42.7909C13.7309 43.597 15.8102 44 18.0001 44C20.1972 44 22.278 43.601 24.2427 42.803C26.1705 42.02 27.8649 40.9065 29.326 39.4625C30.8045 38.0012 31.9454 36.2982 32.7486 34.3535C32.7825 34.2714 32.8157 34.189 32.8482 34.1064C33.619 32.1506 34 30.0627 34 27.8399C34 25.3821 33.3763 22.745 32.12 19.9299ZM34 7.00002C34 8.10459 34.8954 9.00002 36 9.00002L41 9.00002L41 13L38 13C36.8954 13 36 13.8954 36 15C36 16.1046 36.8954 17 38 17L41 17L41 22L38 22C36.8954 22 36 22.8954 36 24C36 25.1046 36.8954 26 38 26L41 26L41 31L38 31C36.8954 31 36 31.8954 36 33C36 34.1046 36.8954 35 38 35L41 35L41 39L36 39C34.8954 39 34 39.8954 34 41C34 42.1046 34.8954 43 36 43L41 43C43.2091 43 45 41.2091 45 39L45 9.00002C45 6.79088 43.2091 5.00002 41 5.00002L36 5.00002C34.8954 5.00002 34 5.89545 34 7.00002ZM30 27.8087C29.9943 25.927 29.4792 23.8437 28.46 21.5599C27.5272 19.4695 26.2037 17.2785 24.48 14.9799L19.6 8.46988C18.8 7.40241 17.2 7.40242 16.4 8.46988L11.52 14.9799C9.79618 17.2785 8.47277 19.4695 7.54 21.5599C7.03171 22.6989 6.6487 23.7886 6.39178 24.8282C8.43208 24.3384 10.7085 24.2331 13.2209 24.5122C14.9218 24.7012 16.6595 25.3313 18.4342 26.4025C19.9608 27.3241 21.5431 27.8593 23.1812 28.0082C25.64 28.2318 27.9129 28.1653 30 27.8087Z" fill-rule="evenodd"  fill="#000000" >
</path>
</svg>
