<svg xmlns="http://www.w3.org/2000/svg" xmlns:xlink="http://www.w3.org/1999/xlink" width="48" height="48" viewBox="0 0 48 48" fill="none">
<path d="M9.25166 27.1135C5.50331 24.8325 3 20.7086 3 16C3 8.8203 8.8203 3 16 3C23.1797 3 29 8.8203 29 16C29 16.258 28.9925 16.5143 28.9777 16.7686C27.3436 16.9434 25.8496 17.5822 24.6339 18.5492C24.8721 17.7409 25 16.8854 25 16C25 11.0294 20.9706 7 16 7C11.0294 7 7 11.0294 7 16C7 19.4472 8.93807 22.4418 11.784 23.9535C10.7536 24.8381 9.89148 25.9092 9.25166 27.1135ZM40.3532 27.8512C40.3044 22.9547 36.2314 19 31.3236 19C27.9397 19 25.4309 20.3145 23.7971 22.9435C23.2713 22.869 22.7389 22.8318 22.2 22.8318C16.0144 22.8318 11 27.7262 11 33.9118C11 40.0366 16.0752 45.0018 22.2 45.0018C22.3191 45.0018 22.4386 44.9999 22.5585 44.9962L36.6157 44.9962C36.7252 45.0002 36.8352 45.0022 36.9456 45.0022C41.8775 45.0022 45.8756 41.0241 45.8756 36.0922C45.8756 33.9287 45.1781 32.0201 43.7831 30.3665C42.8167 29.221 41.6734 28.3826 40.3532 27.8512ZM35.8514 30.9054L37.854 31.2747C40.5351 31.7692 41.8756 33.375 41.8756 36.0922C41.8756 38.815 39.6684 41.0022 36.9456 41.0022C36.8756 41.0022 36.8062 41.0008 36.7373 40.9979L36.6959 40.9962L22.4918 40.9962L22.4576 40.9974C22.3712 41.0003 22.2854 41.0018 22.2 41.0018C18.2843 41.0018 15 37.8275 15 33.9118C15 29.9354 18.2235 26.8318 22.2 26.8318C22.9168 26.8318 23.6139 26.933 24.2914 27.1353L25.9954 27.6443L26.7001 26.0115C27.5665 24.0038 29.1077 23 31.3236 23C34.0519 23 36.3536 25.2117 36.3536 27.94C36.3536 28.2685 36.3213 28.5918 36.2567 28.9099L35.8514 30.9054Z" fill-rule="evenodd"  fill="#000000" >
</path>
</svg>
