<svg xmlns="http://www.w3.org/2000/svg" xmlns:xlink="http://www.w3.org/1999/xlink" width="48" height="48" viewBox="0 0 48 48" fill="none">
<path d="M24 7C25.1 7 26 6.1 26 5L26 3C26 1.9 25.1 1 24 1C22.9 1 22 1.9 22 3L22 5C22 6.1 22.9 7 24 7ZM7.4116 7.4132C8.18941 6.63539 9.46219 6.63539 10.24 7.4132L11.6542 8.8274C12.432 9.60521 12.432 10.878 11.6542 11.6558C10.8764 12.4336 9.60361 12.4336 8.8258 11.6558L7.4116 10.2416C6.63379 9.46379 6.63379 8.19101 7.4116 7.4132ZM39.24 11.6568L40.6542 10.2426C41.432 9.46479 41.432 8.19201 40.6542 7.4142C39.8764 6.63639 38.6036 6.63639 37.8258 7.4142L36.4116 8.8284C35.6338 9.60621 35.6338 10.879 36.4116 11.6568C37.1894 12.4346 38.4622 12.4346 39.24 11.6568ZM39 24C39 32.2843 32.2843 39 24 39C15.7157 39 9 32.2843 9 24C9 15.7157 15.7157 9 24 9C32.2843 9 39 15.7157 39 24ZM35 24C35 17.9249 30.0751 13 24 13C17.9249 13 13 17.9249 13 24C13 30.0751 17.9249 35 24 35C30.0751 35 35 30.0751 35 24ZM3 26L5 26C6.1 26 7 25.1 7 24C7 22.9 6.1 22 5 22L3 22C1.9 22 1 22.9 1 24C1 25.1 1.9 26 3 26ZM43 26L45 26C46.1 26 47 25.1 47 24C47 22.9 46.1 22 45 22L43 22C41.9 22 41 22.9 41 24C41 25.1 41.9 26 43 26ZM40.6542 37.8274L39.24 36.4132C38.4622 35.6354 37.1894 35.6354 36.4116 36.4132C35.6338 37.191 35.6338 38.4638 36.4116 39.2416L37.8258 40.6558C38.6036 41.4336 39.8764 41.4336 40.6542 40.6558C41.432 39.878 41.432 38.6052 40.6542 37.8274ZM10.24 40.6568L11.6542 39.2426C12.432 38.4648 12.432 37.192 11.6542 36.4142C10.8764 35.6364 9.60361 35.6364 8.8258 36.4142L7.4116 37.8284C6.63379 38.6062 6.63379 39.879 7.4116 40.6568C8.18941 41.4346 9.46219 41.4346 10.24 40.6568ZM24 47C25.1 47 26 46.1 26 45L26 43C26 41.9 25.1 41 24 41C22.9 41 22 41.9 22 43L22 45C22 46.1 22.9 47 24 47Z" fill-rule="evenodd"  fill="#000000" >
</path>
</svg>
