<svg xmlns="http://www.w3.org/2000/svg" xmlns:xlink="http://www.w3.org/1999/xlink" width="48" height="48" viewBox="0 0 48 48" fill="none">
<path d="M34.9477 12.8791C38.393 13.51 40.9998 16.5165 40.9998 20.1372C40.9998 24.2172 37.6898 27.5172 33.5998 27.5172C33.5114 27.5172 33.4233 27.5157 33.3357 27.5126L18.0965 27.5126C18.0079 27.5149 17.9191 27.5161 17.83 27.5161C12.4 27.5161 8 23.1661 8 17.8061C8 12.4461 12.4 8.0961 17.83 8.0961C18.8218 8.0961 19.7792 8.24121 20.6817 8.51109C21.8259 5.85823 24.4885 4 27.5933 4C31.7333 4 35.0933 7.32 35.0933 11.42C35.0933 11.9194 35.0432 12.4073 34.9477 12.8791Z" fill-rule="evenodd"  fill="#BEDCFF" >
</path>
<path d="M37.0933 11.4139C37.0899 6.21418 32.7938 2 27.5933 2C23.9928 2 21.3323 3.40927 19.6119 6.22781C19.0257 6.14 18.4317 6.0961 17.83 6.0961C11.2965 6.0961 6 11.2726 6 17.8061C6 24.2734 11.3628 29.5161 17.83 29.5161C17.9263 29.5161 18.0234 29.5149 18.1214 29.5126L33.3025 29.5126C33.4006 29.5157 33.4997 29.5172 33.5998 29.5172C38.7913 29.5172 42.9998 25.3287 42.9998 20.1372C42.9998 17.8535 42.2647 15.8403 40.7945 14.0974C39.755 12.8652 38.5213 11.9707 37.0933 11.4139ZM32.5832 14.4793L34.5874 14.8463C37.529 15.385 38.9998 17.1487 38.9998 20.1372C38.9998 23.1195 36.5821 25.5172 33.5998 25.5172C33.534 25.5172 33.4695 25.5161 33.4064 25.5139L33.3711 25.5126L18.0705 25.5126L18.0446 25.5133C17.972 25.5152 17.9005 25.5161 17.83 25.5161C13.5719 25.5161 10 22.0642 10 17.8061C10 13.4817 13.5056 10.0961 17.83 10.0961C18.6109 10.0961 19.3704 10.2065 20.1087 10.4272L21.8135 10.937L22.5182 9.30317C23.468 7.10106 25.1597 6 27.5933 6C30.5867 6 33.0933 8.42662 33.0933 11.42C33.0933 11.7796 33.058 12.1337 32.9875 12.4822L32.5832 14.4793Z" fill-rule="evenodd"  fill="#1764FF" >
</path>
<path d="M21.5001 34.9383L18.2195 32.4148L15.7806 35.5853L20.2198 39L15.7806 42.4148L18.2195 45.5852L21.5001 43.0617L21.5001 45.5L25.5001 45.5L25.5001 43.0617L28.7807 45.5852L31.2195 42.4148L26.7803 39L31.2195 35.5853L28.7807 32.4148L25.5001 34.9383L25.5001 32.5L21.5001 32.5L21.5001 34.9383Z" fill-rule="evenodd"  fill="#FA9E14" >
</path>
<path d="M19 34C19 35.1046 18.1046 36 17 36C15.8954 36 15 35.1046 15 34C15 32.8954 15.8954 32 17 32C18.1046 32 19 32.8954 19 34Z"   fill="#FA9E14" >
</path>
<path d="M32 34C32 35.1046 31.1046 36 30 36C28.8954 36 28 35.1046 28 34C28 32.8954 28.8954 32 30 32C31.1046 32 32 32.8954 32 34Z"   fill="#FA9E14" >
</path>
<path d="M32 44C32 45.1046 31.1046 46 30 46C28.8954 46 28 45.1046 28 44C28 42.8954 28.8954 42 30 42C31.1046 42 32 42.8954 32 44Z"   fill="#FA9E14" >
</path>
<path d="M19 44C19 45.1046 18.1046 46 17 46C15.8954 46 15 45.1046 15 44C15 42.8954 15.8954 42 17 42C18.1046 42 19 42.8954 19 44Z"   fill="#FA9E14" >
</path>
<path d="M23.5 43.5C22.3954 43.5 21.5 44.3954 21.5 45.5C21.5 46.6046 22.3954 47.5 23.5 47.5C24.6046 47.5 25.5 46.6046 25.5 45.5C25.5 44.3954 24.6046 43.5 23.5 43.5Z"   fill="#FA9E14" >
</path>
<path d="M23.5 30.5C22.3954 30.5 21.5 31.3954 21.5 32.5C21.5 33.6046 22.3954 34.5 23.5 34.5C24.6046 34.5 25.5 33.6046 25.5 32.5C25.5 31.3954 24.6046 30.5 23.5 30.5Z"   fill="#FA9E14" >
</path>
</svg>
