<svg xmlns="http://www.w3.org/2000/svg" xmlns:xlink="http://www.w3.org/1999/xlink" width="48" height="48" viewBox="0 0 48 48" fill="none">
<path d="M2 19.41C2 23.45 4.14 27.09 7.49 29.55C7.76 29.74 7.94 30.06 7.94 30.42C7.94 30.54 7.92 30.65 7.88 30.76L7.17 33.47C7.13 33.59 7.08 33.73 7.08 33.86C7.08 34.15 7.32 34.39 7.61 34.39C7.73 34.39 7.82 34.35 7.92 34.29L11.4 32.26C11.66 32.11 11.94 32.01 12.24 32.01C12.41 32.01 12.56 32.04 12.71 32.08C14.68 32.65 16.73 32.9 18.78 32.8C18.42 31.74 18.24 30.63 18.24 29.51C18.24 22.76 24.74 17.28 32.75 17.28C33.04 17.28 33.11 17.29 33.4 17.31C32.2 10.9 25.84 6 17.9 6C9.12 6 2 12 2 19.41ZM14.48 15.12C14.48 14.61 14.29 14.13 13.93 13.77C13.58 13.42 13.1 13.22 12.6 13.22C11.56 13.22 10.72 14.07 10.72 15.12C10.72 16.17 11.56 17.02 12.6 17.02C13.64 17.02 14.48 16.17 14.48 15.12ZM24.53 16.46C24.89 16.11 25.08 15.62 25.08 15.12C25.09 14.61 24.89 14.13 24.53 13.77C24.18 13.42 23.7 13.22 23.2 13.22C22.71 13.22 22.23 13.42 21.87 13.77C21.52 14.13 21.32 14.61 21.32 15.12C21.32 15.62 21.52 16.11 21.87 16.46C22.23 16.82 22.71 17.02 23.2 17.02C23.7 17.02 24.18 16.82 24.53 16.46ZM46.0038 29.5072C46.0038 23.3372 40.0638 18.3372 32.7438 18.3372C25.4238 18.3372 19.4938 23.3372 19.4938 29.5072C19.4938 35.6872 25.4238 40.6872 32.7438 40.6872C34.2638 40.6872 35.7238 40.4672 37.0738 40.0772C37.1938 40.0372 37.3238 40.0172 37.4638 40.0172C37.7138 40.0172 37.9438 40.0972 38.1638 40.2172L41.0638 41.9172C41.1438 41.9572 41.2238 41.9972 41.3238 41.9972C41.5638 41.9972 41.7638 41.7972 41.7638 41.5572C41.7638 41.4372 41.7238 41.3272 41.6938 41.2272L41.0938 38.9672C41.0638 38.8772 41.0538 38.7872 41.0538 38.6872C41.0538 38.3872 41.1938 38.1172 41.4238 37.9572C44.2138 35.9072 46.0038 32.8772 46.0038 29.5072ZM38.8238 25.9372C38.8338 25.3272 38.5238 24.7572 38.0038 24.4472C37.4838 24.1372 36.8438 24.1372 36.3238 24.4472C35.8038 24.7572 35.4938 25.3272 35.5138 25.9372C35.5138 26.8572 36.2538 27.6072 37.1638 27.6072C38.0738 27.6072 38.8238 26.8572 38.8238 25.9372ZM29.9838 25.9372C29.9838 25.0072 29.2438 24.2572 28.3238 24.2572C27.4138 24.2572 26.6738 25.0072 26.6738 25.9372C26.6738 26.8572 27.4138 27.6072 28.3238 27.6072C29.2438 27.6072 29.9838 26.8572 29.9838 25.9372Z" fill-rule="evenodd"  fill="#000000" >
</path>
</svg>
