<svg xmlns="http://www.w3.org/2000/svg" xmlns:xlink="http://www.w3.org/1999/xlink" width="48" height="48" viewBox="0 0 48 48" fill="none">
<path d="M18.2747 29.5971C18.0848 29.6973 17.8714 29.7557 17.6454 29.7557C17.1201 29.7557 16.663 29.4514 16.4235 29.0022L16.3321 28.7913L12.5085 19.9617C12.4673 19.8655 12.4416 19.7566 12.4416 19.6507C12.4416 19.2445 12.7548 18.9144 13.1416 18.9144C13.2994 18.9144 13.4438 18.9694 13.5608 19.0611L18.0718 22.4411C18.401 22.6679 18.7958 22.8008 19.2196 22.8008C19.4713 22.8008 19.713 22.7521 19.9369 22.6657L41.1532 12.7285C37.3502 8.01066 31.087 4.92701 23.9992 4.92701C12.4008 4.92701 3 13.1728 3 23.3457C3 28.895 5.82772 33.8915 10.2554 37.2675C10.611 37.5342 10.843 37.9723 10.843 38.468C10.843 38.6315 10.811 38.7803 10.7693 38.9367C10.4161 40.3255 9.85001 42.548 9.82392 42.6525C9.77972 42.8262 9.71027 43.0087 9.71027 43.1912C9.71027 43.5974 10.0234 43.927 10.4111 43.927C10.5626 43.927 10.6868 43.8676 10.8152 43.7906L15.4129 40.9962C15.758 40.7866 16.1242 40.6568 16.5274 40.6568C16.7425 40.6568 16.9501 40.6914 17.1449 40.7543C19.2895 41.4033 21.6041 41.7639 23.9992 41.7639C35.5975 41.7639 45 33.5181 45 23.3457C45 20.2651 44.1329 17.3635 42.6075 14.811L18.4283 29.5032L18.2747 29.5971Z"   fill="#000000" >
</path>
</svg>
