<svg xmlns="http://www.w3.org/2000/svg" xmlns:xlink="http://www.w3.org/1999/xlink" width="48" height="48" viewBox="0 0 48 48" fill="none">
<path d="M34.6179 10.2322L40.3101 4.53994L40.3201 4.52994C40.6801 4.15994 41.1801 3.93994 41.7301 3.93994C42.8301 3.93994 43.7301 4.83994 43.7301 5.93994C43.7301 6.48994 43.5101 6.98994 43.1401 7.34994L38.2172 12.2742C38.2209 12.2768 38.2246 12.2793 38.2283 12.2818L35.3322 15.1779C35.3285 15.1756 35.3249 15.1733 35.3212 15.171L31.8303 18.6629C31.8342 18.6647 31.838 18.6665 31.8418 18.6683L28.7632 21.7469C28.7592 21.7455 28.7552 21.7442 28.7512 21.7429L24.4834 26.012C24.4881 26.0122 24.4927 26.0124 24.4974 26.0127L17.6848 32.8253C17.6819 32.824 17.6789 32.8226 17.676 32.8213L8.1901 42.3099C7.8201 42.6999 7.3001 42.9399 6.7301 42.9399C5.6301 42.9399 4.7301 42.0499 4.7301 40.9399C4.7301 40.3899 4.9501 39.8899 5.3201 39.5299L23.8493 21.0007C19.9645 21.0346 16.6546 22.3845 13.91 25.06C13.26 25.68 12.67 26.37 12.16 27.11C11.81 27.65 11.19 28 10.5 28C9.4 28 8.5 27.1 8.5 26C8.5 25.57 8.64 25.17 8.87 24.85C9.53 23.88 10.29 22.99 11.13 22.18C14.68 18.73 18.97 17 24 17C25.2247 17 26.4055 17.1026 27.5424 17.3076L31.5463 13.3037C29.2025 12.4349 26.6864 12 24 12C17.93 12 12.73 14.21 8.42 18.64C7.42 19.67 6.51 20.82 5.69 22.07C5.34 22.63 4.71 23 4 23C2.9 23 2 22.1 2 21C2 20.59 2.13 20.2 2.34 19.88C3.3 18.41 4.37 17.07 5.56 15.86C10.65 10.62 16.8 8.00004 24 8.00004C27.8382 8.00004 31.378 8.74458 34.6179 10.2322ZM38.5245 17.6256C38.8821 17.9528 39.2339 18.2943 39.58 18.65C40.58 19.68 41.49 20.82 42.31 22.07C42.66 22.63 43.29 23 44 23C45.1 23 46 22.1 46 21C46 20.59 45.87 20.2 45.66 19.88C44.7 18.41 43.63 17.07 42.44 15.85C42.0845 15.4847 41.7237 15.1321 41.3579 14.7922L38.5245 17.6256ZM32.4716 23.6785C33.0314 24.0886 33.5708 24.5457 34.09 25.05C34.74 25.68 35.33 26.37 35.84 27.11C36.19 27.65 36.81 28 37.5 28C38.6 28 39.5 27.1 39.5 26C39.5 25.57 39.36 25.17 39.13 24.85C38.47 23.88 37.71 22.99 36.87 22.19C36.3688 21.7016 35.8528 21.2476 35.3221 20.828L32.4716 23.6785ZM25.7932 30.3569C26.3212 30.5855 26.8034 30.9236 27.24 31.37C27.46 31.6 27.65 31.83 27.81 32.07C28.16 32.63 28.79 33 29.5 33C30.6 33 31.5 32.1 31.5 31C31.5 30.59 31.37 30.2 31.16 29.88C30.87 29.44 30.51 29 30.1 28.57C29.6691 28.1288 29.2136 27.7442 28.7338 27.4163L25.7932 30.3569ZM24 35C22.62 35 21.5 36.12 21.5 37.5C21.5 38.88 22.62 40 24 40C25.38 40 26.5 38.88 26.5 37.5C26.5 36.12 25.38 35 24 35Z" fill-rule="evenodd"  fill="#000000" >
</path>
</svg>
