<svg xmlns="http://www.w3.org/2000/svg" xmlns:xlink="http://www.w3.org/1999/xlink" width="48" height="48" viewBox="0 0 48 48" fill="none">
<path d="M12 6L36 6C39.3137 6 42 8.68629 42 12L42 36C42 39.3137 39.3137 42 36 42L12 42C8.68629 42 6 39.3137 6 36L6 12C6 8.68629 8.68629 6 12 6Z"   fill="#BEDCFF" >
</path>
<path d="M36 4L12 4C7.58172 4 4 7.58172 4 12L4 36C4 40.4183 7.58172 44 12 44L36 44C40.4183 44 44 40.4183 44 36L44 12C44 7.58172 40.4183 4 36 4ZM8 12C8 9.79086 9.79086 8 12 8L36 8C38.2091 8 40 9.79086 40 12L40 36C40 38.2091 38.2091 40 36 40L12 40C9.79086 40 8 38.2091 8 36L8 12Z" fill-rule="evenodd"  fill="#4187FF" >
</path>
<path d="M4 12L4 32C4 33.1046 4.89543 34 6 34C7.10457 34 8 33.1046 8 32L8 12C8 9.79086 9.79086 8 12 8L36 8C38.2091 8 40 9.79086 40 12L40 32C40 33.1046 40.8954 34 42 34C43.1046 34 44 33.1046 44 32L44 12C44 7.58172 40.4183 4 36 4L12 4C7.58172 4 4 7.58172 4 12Z" fill-rule="evenodd"  fill="#1764FF" >
</path>
</svg>
