<svg xmlns="http://www.w3.org/2000/svg" xmlns:xlink="http://www.w3.org/1999/xlink" width="48" height="48" viewBox="0 0 48 48" fill="none">
<path d="M26 42C26 40.9 26.9 40 28 40L36 40C38.21 40 40 38.21 40 36L40 12C40 9.79 38.21 8 36 8L12 8C9.79 8 8 9.79 8 12L8 20C8 21.1 7.1 22 6 22C4.9 22 4 21.1 4 20L4 12C4 7.58 7.58 4 12 4L36 4C40.42 4 44 7.58 44 12L44 36C44 40.42 40.42 44 36 44L28 44C26.9 44 26 43.1 26 42ZM30.8284 20L36 20C37.1 20 38 20.9 38 22C38 23.1 37.1 24 36 24L28 24C25.79 24 24 22.21 24 20L24 12C24 10.9 24.9 10 26 10C27.1 10 28 10.9 28 12L28 17.1716L33.5858 11.5858C34.3636 10.808 35.6364 10.808 36.4142 11.5858C37.192 12.3636 37.192 13.6364 36.4142 14.4142L30.8284 20ZM18.0001 44L10.0001 44C6.6901 44 4.0001 41.31 4.0001 38L4.0001 30C4.0001 26.69 6.6901 24 10.0001 24L18.0001 24C21.3101 24 24.0001 26.69 24.0001 30L24.0001 38C24.0001 41.31 21.3101 44 18.0001 44ZM20.0001 30L20.0001 38C20.0001 39.1 19.1001 40 18.0001 40L10.0001 40C8.9001 40 8.0001 39.1 8.0001 38L8.0001 30C8.0001 28.9 8.9001 28 10.0001 28L18.0001 28C19.1001 28 20.0001 28.9 20.0001 30Z" fill-rule="evenodd"  fill="#000000" >
</path>
</svg>
