<svg xmlns="http://www.w3.org/2000/svg" xmlns:xlink="http://www.w3.org/1999/xlink" width="48" height="48" viewBox="0 0 48 48" fill="none">
<path d="M6 24C6 25.1046 6.89543 26 8 26L40 26C41.1046 26 42 25.1046 42 24C42 22.8954 41.1046 22 40 22L8 22C6.89543 22 6 22.8954 6 24Z" fill-rule="evenodd"  fill="#4187FF" >
</path>
<path d="M8 24C8 25.1046 8.89543 26 10 26L38 26C39.1046 26 40 25.1046 40 24C40 22.8954 39.1046 22 38 22L10 22C8.89543 22 8 22.8954 8 24Z" fill-rule="evenodd"  fill="#1764FF" >
</path>
</svg>
