<svg xmlns="http://www.w3.org/2000/svg" xmlns:xlink="http://www.w3.org/1999/xlink" width="48" height="48" viewBox="0 0 48 48" fill="none">
<path d="M14 45C9.58172 45 6 41.4183 6 37L6 11C6 6.58172 9.58172 3 14 3L34 3C38.4183 3 42 6.58172 42 11L42 37C42 41.4183 38.4183 45 34 45L14 45ZM24 7L18 7L18 14.9676L19.4565 14.0937C19.9316 13.8087 20.4461 13.6662 21 13.6662C21.554 13.6662 22.0685 13.8087 22.5435 14.0937L24 14.9676L24 7ZM14 7L14 16.7338C14 19.0657 16.5439 20.506 18.5435 19.3063L21 17.8324L23.4565 19.3063C25.4561 20.506 28 19.0657 28 16.7338L28 7L34 7C36.2091 7 38 8.79086 38 11L38 37C38 39.2091 36.2091 41 34 41L14 41C11.7909 41 10 39.2091 10 37L10 11C10 8.79086 11.7909 7 14 7Z" fill-rule="evenodd"  fill="#787878" >
</path>
<path d="M14 27C14 28.1046 14.8954 29 16 29L32 29C33.1046 29 34 28.1046 34 27C34 25.8954 33.1046 25 32 25L16 25C14.8954 25 14 25.8954 14 27Z" fill-rule="evenodd"  fill="#424242" >
</path>
<path d="M14 35C14 36.1046 14.8954 37 16 37L22 37C23.1046 37 24 36.1046 24 35C24 33.8954 23.1046 33 22 33L16 33C14.8954 33 14 33.8954 14 35Z" fill-rule="evenodd"  fill="#424242" >
</path>
</svg>
