<svg xmlns="http://www.w3.org/2000/svg" xmlns:xlink="http://www.w3.org/1999/xlink" width="48" height="48" viewBox="0 0 48 48" fill="none">
<path d="M28.3253 21.8945C31.1114 20.3647 33 17.4029 33 14C33 9.02944 28.9706 5 24 5C19.0294 5 15 9.02944 15 14C15 17.4029 16.8886 20.3647 19.6747 21.8945L16 32L32 32L28.3253 21.8945Z" fill-rule="evenodd"  fill="#BEDCFF" >
</path>
<path d="M30.7534 22.7194L33.8796 31.3165C34.3539 32.6209 33.3879 34 32 34L16 34C14.6121 34 13.6461 32.6209 14.1204 31.3165L17.2467 22.7194C14.4156 20.6493 13 17.7428 13 14C13 7.92487 17.9249 3 24 3C30.0751 3 35 7.92487 35 14C35 17.7428 33.5845 20.6493 30.7534 22.7194ZM31 14C31 16.7628 29.7876 18.8099 27.3627 20.1414C26.4979 20.6162 26.1086 21.6508 26.4457 22.578L29.1446 30L18.8554 30L21.5543 22.578C21.8915 21.6508 21.5021 20.6162 20.6373 20.1414C18.2124 18.8099 17 16.7628 17 14C17 10.134 20.134 7 24 7C27.866 7 31 10.134 31 14Z" fill-rule="evenodd"  fill="#4187FF" >
</path>
<path d="M42.0001 37L40.1701 33.94C39.4501 32.74 38.1401 32 36.7401 32L11.2601 32C9.86005 32 8.55005 32.74 7.83005 33.94L6.00005 37C4.68005 39.2 6.26005 42 8.83005 42L39.1701 42C41.7401 42 43.3201 39.2 42.0001 37Z"   fill="#6BA6FF" >
</path>
<path d="M6.11973 32.913L4.91973 34.913C2.52024 38.9122 5.40092 44 10.0647 44L37.9351 44C42.5989 44 45.4796 38.9122 43.0801 34.913L41.8801 32.913C40.7958 31.1058 38.8427 30 36.7351 30L11.2647 30C9.15711 30 7.20407 31.1058 6.11973 32.913ZM10.0647 40C8.5101 40 7.54988 38.3041 8.34971 36.971L9.54971 34.971C9.91115 34.3686 10.5622 34 11.2647 34L36.7351 34C37.4377 34 38.0887 34.3686 38.4501 34.971L39.6501 36.971C40.45 38.3041 39.4897 40 37.9351 40L10.0647 40Z" fill-rule="evenodd"  fill="#1764FF" >
</path>
</svg>
