<svg xmlns="http://www.w3.org/2000/svg" xmlns:xlink="http://www.w3.org/1999/xlink" width="48" height="48" viewBox="0 0 48 48" fill="none">
<path d="M11 45C6.58172 45 3 41.4183 3 37L3 11C3 6.58172 6.58172 3 11 3L31 3C35.4183 3 39 6.58172 39 11L39 22C39 19.3876 37.3304 17.1651 35 16.3414L35 11C35 8.79086 33.2091 7 31 7L11 7C8.79086 7 7 8.79086 7 11L7 37C7 39.2091 8.79086 41 11 41L22 41L22 43L36.2917 43C34.8814 44.2447 33.0289 45 31 45L11 45ZM36.3178 27C37.9345 25.9251 39 24.087 39 22L39 27L36.3178 27ZM39 33L35 33L35 32L39 32L39 33Z" fill-rule="evenodd"  fill="#787878" >
</path>
<path d="M11 13C11 14.1046 11.8954 15 13 15L24.9999 15C26.1044 15 26.9999 14.1046 26.9999 13C26.9999 11.8954 26.1044 11 24.9999 11L13 11C11.8954 11 11 11.8954 11 13ZM33 30C37.4183 30 41 26.4183 41 22C41 17.5817 37.4183 14 33 14C28.5817 14 25 17.5817 25 22C25 26.4183 28.5817 30 33 30ZM33 18C35.2091 18 37 19.7909 37 22C37 24.2091 35.2091 26 33 26C30.7909 26 29 24.2091 29 22C29 19.7909 30.7909 18 33 18ZM11 21C11 22.1046 11.8954 23 13 23L19 23C20.1046 23 21 22.1046 21 21C21 19.8954 20.1046 19 19 19L13 19C11.8954 19 11 19.8954 11 21ZM26 31C22.6863 31 20 33.6863 20 37L20 45L40 45C43.3137 45 46 42.3137 46 39L46 37C46 33.6863 43.3137 31 40 31L26 31ZM24 37C24 35.8954 24.8954 35 26 35L40 35C41.1046 35 42 35.8954 42 37L42 39C42 40.1046 41.1046 41 40 41L24 41L24 37Z" fill-rule="evenodd"  fill="#424242" >
</path>
</svg>
