<svg xmlns="http://www.w3.org/2000/svg" xmlns:xlink="http://www.w3.org/1999/xlink" width="48" height="48" viewBox="0 0 48 48" fill="none">
<path d="M6.1072 32.1269L4.47084 35.1269C2.28998 39.1251 5.18385 44 9.73821 44L38.2618 44C42.8162 44 45.7101 39.1251 43.5292 35.1269L41.8928 32.1269C41.3672 31.1631 40.6323 30.401 39.6883 29.8406C38.7443 29.2802 37.7233 29 36.6255 29L11.3746 29C10.2767 29 9.25581 29.2802 8.31179 29.8406C7.36777 30.401 6.6329 31.1631 6.1072 32.1269ZM9.73821 40C8.22009 40 7.25546 38.375 7.98242 37.0423L9.61878 34.0423C9.79402 33.721 10.039 33.467 10.3536 33.2802C10.6683 33.0934 11.0086 33 11.3746 33L36.6255 33C36.9915 33 37.3318 33.0934 37.6464 33.2802C37.9611 33.467 38.2061 33.721 38.3813 34.0423L40.0176 37.0423C40.7446 38.375 39.7799 40 38.2618 40L9.73821 40Z" fill-rule="evenodd"  fill="#787878" >
</path>
<path d="M32.4881 29L30.6232 22.7837C30.9557 22.5326 31.2745 22.262 31.5794 21.972C32.2871 21.299 32.8944 20.5461 33.4013 19.7134C33.9171 18.8662 34.3104 17.9667 34.5812 17.0149C34.8604 16.0334 35 15.0285 35 14C35 7.92487 30.0751 3 24 3C17.9249 3 13 7.92487 13 14C13 15.0285 13.1396 16.0334 13.4188 17.0149C13.6896 17.9667 14.0829 18.8662 14.5986 19.7134C15.1056 20.5461 15.7129 21.299 16.4206 21.972C16.7255 22.262 17.0443 22.5326 17.3768 22.7837L15.5119 29L19.6881 29L21.6393 22.4958C21.9117 21.5877 21.5092 20.6131 20.6753 20.162C19.5613 19.5593 18.6747 18.7165 18.0153 17.6334C17.3384 16.5216 17 15.3105 17 14C17 10.134 20.134 7 24 7C27.866 7 31 10.134 31 14C31 15.3105 30.6616 16.5216 29.9847 17.6334C29.3253 18.7165 28.4386 19.5593 27.3247 20.162C26.4908 20.6131 26.0882 21.5877 26.3606 22.4958L28.3119 29L32.4881 29Z" fill-rule="evenodd"  fill="#424242" >
</path>
</svg>
