<svg xmlns="http://www.w3.org/2000/svg" xmlns:xlink="http://www.w3.org/1999/xlink" width="48" height="48" viewBox="0 0 48 48" fill="none">
<path d="M13 14C13 16.06 13.53 17.96 14.6 19.71C15.34 20.93 16.27 21.96 17.38 22.79L15.5105 29L11.3701 29C9.1801 29 7.1601 30.2 6.1101 32.12L4.2401 35.54C2.1701 39.35 4.9301 44 9.2601 44L38.7401 44C43.0801 44 45.8301 39.36 43.7601 35.54L41.9001 32.12C40.8401 30.2 38.8201 29 36.6301 29L32.4895 29L30.62 22.79C31.73 21.96 32.66 20.93 33.4 19.71C34.47 17.96 35 16.06 35 14C35 7.92 30.08 3 24 3C17.92 3 13 7.92 13 14ZM28.31 29L26.36 22.5C26.09 21.59 26.49 20.61 27.32 20.16C28.44 19.56 29.33 18.72 29.98 17.63C30.66 16.52 31 15.31 31 14C31 10.13 27.87 7 24 7C20.13 7 17 10.13 17 14C17 15.31 17.34 16.52 18.02 17.63C18.67 18.72 19.56 19.56 20.68 20.16C21.09 20.39 21.4 20.74 21.45 20.87C21.46 20.89 21.46 20.91 21.45 20.91C21.72 21.37 21.8 21.95 21.64 22.5L19.69 29L28.31 29ZM17 33L11.3701 33C10.6401 33 9.9701 33.4 9.6101 34.04L7.7601 37.46C7.1401 38.6 7.9601 40 9.2601 40L38.7401 40C40.0501 40 40.8701 38.61 40.2401 37.46L38.3801 34.04C38.0301 33.4 37.3601 33 36.6301 33L17 33Z" fill-rule="evenodd"  fill="#000000" >
</path>
</svg>
