<svg xmlns="http://www.w3.org/2000/svg" xmlns:xlink="http://www.w3.org/1999/xlink" width="48" height="48" viewBox="0 0 48 48" fill="none">
<path d="M19.4937 34.4938C27.778 34.4938 34.4937 27.7781 34.4937 19.4938C34.4937 11.2095 27.778 4.49377 19.4937 4.49377C11.2094 4.49377 4.49365 11.2095 4.49365 19.4938C4.49365 27.7781 11.2094 34.4938 19.4937 34.4938ZM19.4937 8.49377C25.5688 8.49377 30.4937 13.4186 30.4937 19.4938C30.4937 25.5689 25.5688 30.4938 19.4937 30.4938C13.4185 30.4938 8.49365 25.5689 8.49365 19.4938C8.49365 13.4186 13.4185 8.49377 19.4937 8.49377Z" fill-rule="evenodd"  fill="#787878" >
</path>
<path d="M11.9937 19.4938C11.9937 20.5983 12.8891 21.4938 13.9937 21.4938L24.9937 21.4938C26.0983 21.4938 26.9937 20.5983 26.9937 19.4938C26.9937 18.3892 26.0983 17.4938 24.9937 17.4938L13.9937 17.4938C12.8891 17.4938 11.9937 18.3892 11.9937 19.4938Z" fill-rule="evenodd"  fill="#424242" >
</path>
<path d="M19.4937 11.9938C18.3891 11.9938 17.4937 12.8892 17.4937 13.9938L17.4937 24.9938C17.4937 26.0984 18.3891 26.9938 19.4937 26.9938C20.5982 26.9938 21.4937 26.0984 21.4937 24.9938L21.4937 13.9938C21.4937 12.8892 20.5982 11.9938 19.4937 11.9938Z" fill-rule="evenodd"  fill="#424242" >
</path>
<path d="M42.9205 42.9204C43.7016 42.1393 43.7016 40.873 42.9205 40.0919L30.9178 28.0895C30.1367 27.3084 28.8704 27.3085 28.0894 28.0895C27.3084 28.8706 27.3083 30.1369 28.0894 30.9179L40.0921 42.9204C40.8732 43.7014 42.1395 43.7014 42.9205 42.9204Z" fill-rule="evenodd"  fill="#787878" >
</path>
</svg>
