<svg xmlns="http://www.w3.org/2000/svg" xmlns:xlink="http://www.w3.org/1999/xlink" width="48" height="48" viewBox="0 0 48 48" fill="none">
<path d="M31.51 24.76C31.41 25 31.27 25.22 31.08 25.42L25.42 31.08C25.22 31.27 25 31.41 24.76 31.51C24.52 31.61 24.26 31.66 24 31.66C23.74 31.66 23.48 31.61 23.24 31.51C23 31.41 22.78 31.27 22.58 31.08L16.92 25.42C16.73 25.22 16.59 25 16.49 24.76C16.39 24.52 16.34 24.26 16.34 24C16.34 23.74 16.39 23.48 16.49 23.24C16.59 23 16.73 22.78 16.92 22.58L22.58 16.92C22.78 16.73 23 16.59 23.24 16.49C23.48 16.39 23.74 16.34 24 16.34C24.26 16.34 24.52 16.39 24.76 16.49C25 16.59 25.22 16.73 25.42 16.92L31.08 22.58C31.27 22.78 31.41 23 31.51 23.24C31.61 23.48 31.66 23.74 31.66 24C31.66 24.26 31.61 24.52 31.51 24.76ZM12 44C10.92 44 9.88 43.79 8.89 43.37C7.93 42.96 7.08 42.39 6.34 41.66C5.61 40.92 5.04 40.07 4.63 39.11C4.21 38.12 4 37.08 4 36L4 12C4 10.92 4.21 9.88 4.63 8.89C5.04 7.93 5.61 7.08 6.34 6.34C7.08 5.61 7.93 5.04 8.89 4.63C9.88 4.21 10.92 4 12 4L36 4C37.08 4 38.12 4.21 39.11 4.63C40.07 5.04 40.92 5.61 41.66 6.34C42.39 7.08 42.96 7.93 43.37 8.89C43.79 9.88 44 10.92 44 12L44 36C44 37.08 43.79 38.12 43.37 39.11C42.96 40.07 42.39 40.92 41.66 41.66C40.92 42.39 40.07 42.96 39.11 43.37C38.12 43.79 37.08 44 36 44L12 44Z" fill-rule="evenodd"  fill="#000000" >
</path>
</svg>
